<?xml version="1.0" standalone="no"?>
<!DOCTYPE svg PUBLIC "-//W3C//DTD SVG 1.1//EN" "http://www.w3.org/Graphics/SVG/1.1/DTD/svg11.dtd" >
<svg xmlns="http://www.w3.org/2000/svg" xmlns:xlink="http://www.w3.org/1999/xlink" version="1.1">
<metadata>
Created by FontForge 20170731 at Tue Aug 10 21:38:44 2021
 By Aleksey,,,
Copyright 2013 The Exo 2 Project Authors (https://github.com/NDISCOVER/Exo-2.0)
</metadata>
<defs>
<font id="Exo2-ThinItalic" horiz-adv-x="557" >
  <font-face 
    font-family="Exo 2 Thin"
    font-weight="250"
    font-style="italic"
    font-stretch="normal"
    units-per-em="1000"
    panose-1="0 0 0 0 0 0 0 0 0 0"
    ascent="800"
    descent="-200"
    x-height="480"
    cap-height="690"
    bbox="-379 -258 1206 1017.37"
    underline-thickness="50"
    underline-position="-175"
    slope="-8"
    unicode-range="U+000D-FB02"
  />
<missing-glyph horiz-adv-x="656" 
d="M218 690l-98 -690h-41l98 690h41zM607 690l-98 -690h-41l98 690h41zM177 690h430l-5 -41h-430zM85 41h430l-6 -41h-430z" />
    <glyph glyph-name="fi" unicode="fi" horiz-adv-x="545" 
d="M303 714q15 0 36 -0.5t43 -1t39 -2.5l-1 -18h-109q-60 0 -89 -25t-37 -87l-93 -658q-9 -67 -38.5 -99.5t-93.5 -32.5q-16 0 -42.5 1t-45.5 3l1 18h79q56 0 82 25.5t34 86.5l93 658q6 44 22 73.5t45.5 44t74.5 14.5zM466 480l-4 -23h-406l3 18l94 5h313zM475 480l-68 -480
h-24l68 480h24zM495 679q6 0 9 -3.5t2 -9.5l-9 -62q-1 -6 -3.5 -8.5t-8.5 -2.5h-10q-6 0 -9.5 3.5t-2.5 9.5l9 62q1 6 4 8.5t9 2.5h10z" />
    <glyph glyph-name="fl" unicode="fl" horiz-adv-x="609" 
d="M303 714q32 -1 61 -1.5t54 -1t45.5 -1t35 -1t21.5 -1.5l-85 -613q-6 -39 12 -59t56 -20h59l1 -16q-6 -2 -18 -3.5t-24.5 -2t-21.5 -0.5q-46 0 -70.5 26.5t-17.5 75.5l84 596h-184q-60 0 -89 -25t-37 -87l-93 -658q-9 -67 -38.5 -99.5t-93.5 -32.5q-16 0 -42.5 1t-45.5 3
l1 18h79q56 0 82 25.5t34 86.5l93 658q9 66 41.5 99t100.5 33zM340 480l-4 -23h-280l3 18l94 5h187z" />
    <glyph glyph-name="f_f" unicode="ff" horiz-adv-x="654" 
d="M300 695q15 0 36 -0.5t43 -1t39 -2.5l-1 -18h-109q-60 0 -88.5 -25t-37.5 -87l-90 -639q-10 -67 -39 -99.5t-93 -32.5q-16 0 -42.5 1t-45.5 3l1 18h79q56 0 81.5 25.5t34.5 86.5l90 639q9 66 41.5 99t100.5 33zM606 714q15 0 36 -0.5t43 -1t39 -2.5l-1 -18h-109
q-60 0 -88.5 -25t-37.5 -87l-88 -626q-10 -67 -39 -99.5t-93 -32.5q-16 0 -42.5 1t-45.5 3l1 18h79q56 0 81.5 25.5t34.5 86.5l88 626q9 66 41.5 99t100.5 33zM652 480l-4 -22h-592l3 17l94 5h499z" />
    <glyph glyph-name="f_f_i" unicode="ffi" horiz-adv-x="848" 
d="M300 695q15 0 36 -0.5t43 -1t39 -2.5l-1 -18h-109q-60 0 -88.5 -25t-37.5 -87l-90 -639q-10 -67 -39 -99.5t-93 -32.5q-16 0 -42.5 1t-45.5 3l1 18h79q56 0 81.5 25.5t34.5 86.5l90 639q9 66 41.5 99t100.5 33zM606 714q15 0 36 -0.5t43 -1t39 -2.5l-1 -18h-109
q-60 0 -88.5 -25t-37.5 -87l-88 -626q-10 -67 -39 -99.5t-93 -32.5q-16 0 -42.5 1t-45.5 3l1 18h79q56 0 81.5 25.5t34.5 86.5l88 626q9 66 41.5 99t100.5 33zM769 480l-4 -23l-709 1l3 17l94 5h616zM778 480l-68 -480h-24l68 480h24zM798 679q6 0 9 -3.5t2 -9.5l-9 -62
q-1 -6 -3.5 -8.5t-8.5 -2.5h-10q-6 0 -9.5 3.5t-2.5 9.5l9 62q1 6 4 8.5t9 2.5h10z" />
    <glyph glyph-name="f_f_l" unicode="ffl" horiz-adv-x="912" 
d="M300 695q15 0 36 -0.5t43 -1t39 -2.5l-1 -18h-109q-60 0 -88.5 -25t-37.5 -87l-90 -639q-10 -67 -39 -99.5t-93 -32.5q-16 0 -42.5 1t-45.5 3l1 18h79q56 0 81.5 25.5t34.5 86.5l90 639q9 66 41.5 99t100.5 33zM642 480l-4 -22h-582l3 17l94 5h489zM606 714
q32 -1 61 -1.5t54 -1t45.5 -1t35 -1t21.5 -1.5l-85 -613q-6 -39 12 -59t56 -20h59l1 -16q-6 -2 -18 -3.5t-24.5 -2t-21.5 -0.5q-46 0 -70.5 26.5t-17.5 75.5l84 596h-184q-60 0 -88.5 -25t-37.5 -87l-88 -626q-10 -67 -39 -99.5t-93 -32.5q-16 0 -42.5 1t-45.5 3l1 18h79
q56 0 81.5 25.5t34.5 86.5l88 626q9 66 41.5 99t100.5 33z" />
    <glyph glyph-name=".notdef" horiz-adv-x="656" 
d="M218 690l-98 -690h-41l98 690h41zM607 690l-98 -690h-41l98 690h41zM177 690h430l-5 -41h-430zM85 41h430l-6 -41h-430z" />
    <glyph glyph-name=".null" horiz-adv-x="0" 
 />
    <glyph glyph-name="nonmarkingreturn" horiz-adv-x="333" 
 />
    <glyph glyph-name="CR" unicode="&#xd;" horiz-adv-x="230" 
 />
    <glyph glyph-name="space" unicode=" " horiz-adv-x="230" 
 />
    <glyph glyph-name="exclam" unicode="!" horiz-adv-x="252" 
d="M195 695l-48 -341l-23 -151h-21l19 151l48 341h25zM103 86q6 0 8.5 -3t1.5 -10l-9 -62q-1 -6 -4 -8.5t-9 -2.5h-10q-13 0 -11 13l9 61q2 12 13 12h11z" />
    <glyph glyph-name="quotedbl" unicode="&#x22;" horiz-adv-x="321" 
d="M291 690l-31 -208h-20l27 208h24zM164 690l-31 -208h-20l27 208h24z" />
    <glyph glyph-name="numbersign" unicode="#" horiz-adv-x="662" 
d="M585 690l-217 -690h-23l217 690h23zM557 250l-7 -22h-501l7 22h501zM334 690l-217 -690h-23l217 690h23zM633 492l-7 -22h-501l7 22h501z" />
    <glyph glyph-name="dollar" unicode="$" horiz-adv-x="562" 
d="M334 701q49 -1 95.5 -4t90.5 -8l-4 -19q-44 3 -74.5 5t-59 2.5t-66.5 0.5q-34 0 -65.5 -3t-56.5 -15t-42.5 -40t-23.5 -78q-4 -37 1 -63.5t25 -47t60 -38.5l150 -63q52 -22 79.5 -45.5t35.5 -55.5t1 -82q-11 -73 -43 -106.5t-83.5 -42.5t-121.5 -9q-28 0 -77.5 2
t-112.5 9l4 19q37 -3 69 -4.5t64 -2t67 -0.5q62 1 104.5 10t68 38.5t35.5 90.5q6 43 0.5 69.5t-27.5 46t-64 37.5l-150 63q-48 21 -74 45t-34 56t-3 78q8 56 27.5 88t50 46.5t69.5 18t85 2.5zM282 349l21 -4l-94 -480h-21zM391 804l-88 -459l-21 4l88 455h21z" />
    <glyph glyph-name="percent" unicode="%" horiz-adv-x="878" 
d="M745 690l-577 -690h-24l577 690h24zM266 683q-52 0 -83 -20t-47.5 -61t-25.5 -106q-9 -63 -3 -103.5t30.5 -60t71.5 -19.5q50 0 81 20t49 61.5t26 105.5q9 65 3.5 105t-30 59t-72.5 19zM264 702q57 0 87 -22t38 -67.5t-2 -116.5q-10 -69 -30.5 -114t-55.5 -66.5
t-90 -21.5q-56 0 -86.5 22t-38.5 68t2 116t29.5 114.5t55 66t91.5 21.5zM685 382q-52 0 -83 -20t-47.5 -61t-25.5 -106q-9 -63 -3 -103.5t30.5 -60t71.5 -19.5q50 0 81 20t49 61.5t26 105.5q9 65 3.5 105t-30 59t-72.5 19zM683 401q57 0 87 -22t38 -67.5t-2 -116.5
q-10 -70 -30.5 -114.5t-55.5 -66t-90 -21.5q-56 0 -86.5 22t-38.5 68t2 116t29.5 114.5t55 66t91.5 21.5z" />
    <glyph glyph-name="ampersand" unicode="&#x26;" horiz-adv-x="791" 
d="M388 698q29 0 72 -4.5t83 -18.5l-4 -18q-39 10 -79.5 14t-73.5 4q-67 0 -111 -11.5t-68.5 -44t-36.5 -97.5q-11 -61 3.5 -94.5t57 -46.5t113.5 -13h404l-6 -21h-399q-80 -1 -133 -12.5t-83.5 -48.5t-44.5 -114q-10 -53 -3 -85t27 -48t49 -21.5t64 -5.5q102 0 170.5 34.5
t117.5 116.5q41 70 59.5 158t16.5 200h24q1 -122 -18 -210t-62 -160q-37 -62 -81 -96.5t-95 -49t-110 -16.5q-74 -2 -119.5 13.5t-61.5 57.5t-4 116q11 62 36 101t66.5 58.5t100.5 20.5v4q-52 4 -80 24t-35 55.5t1 83.5q13 71 41 109t77.5 52t124.5 14z" />
    <glyph glyph-name="quotesingle" unicode="'" horiz-adv-x="194" 
d="M164 690l-31 -208h-20l27 208h24z" />
    <glyph glyph-name="parenleft" unicode="(" horiz-adv-x="352" 
d="M374 790l4 -18q-118 -57 -186.5 -169t-94.5 -292q-16 -117 -5.5 -205.5t49 -150.5t106.5 -102l-5 -18q-112 56 -155 174.5t-16 308.5q26 185 99.5 300t203.5 172z" />
    <glyph glyph-name="parenright" unicode=")" horiz-adv-x="352" 
d="M115 790q111 -54 155.5 -171t16.5 -313q-26 -184 -99.5 -298.5t-204.5 -172.5l-3 18q119 60 187.5 172.5t93.5 289.5q17 115 6.5 204t-49 152t-107.5 101z" />
    <glyph glyph-name="asterisk" unicode="*" horiz-adv-x="449" 
d="M290 690l-25 -154l77 -130l-20 -11l-67 125l-102 -124l-17 15l112 126l20 153h22zM115 591l119 -43l-2 -9l-5 -8l-121 38zM412 590l5 -22l-132 -37l-3 8l1 9z" />
    <glyph glyph-name="plus" unicode="+" horiz-adv-x="551" 
d="M315 495l-57 -396h-21l55 396h23zM486 308l-4 -22h-417l4 22h417z" />
    <glyph glyph-name="comma" unicode="," horiz-adv-x="205" 
d="M82 86q5 0 7 -2.5t1 -8.5l-10 -66q-2 -18 -8 -39.5t-13.5 -43.5t-15.5 -42l-15 5q9 30 14 53t11 59q-3 0 -5 3t-1 7l10 64q1 6 3.5 8.5t9.5 2.5h12z" />
    <glyph glyph-name="hyphen" unicode="-" horiz-adv-x="481" 
d="M392 262l-3 -22h-311l3 22h311z" />
    <glyph glyph-name="period" unicode="." horiz-adv-x="205" 
d="M80 86q8 0 9.5 -3.5t0.5 -9.5l-9 -62q-1 -6 -4 -8.5t-9 -2.5h-10q-13 0 -11 13l9 61q2 12 13 12h11z" />
    <glyph glyph-name="slash" unicode="/" horiz-adv-x="497" 
d="M513 690l-496 -749h-27l496 749h27z" />
    <glyph glyph-name="zero" unicode="0" horiz-adv-x="582" 
d="M264 -12q-62 0 -104.5 21.5t-64.5 67t-22 116.5q0 57 5 125.5t19.5 136t43.5 123.5t76 90t117 34q62 0 104.5 -21.5t64.5 -67t22 -116.5q0 -57 -5 -125.5t-19.5 -136t-43.5 -123.5t-76 -90t-117 -34zM262 11q65 0 108.5 33.5t69.5 88.5t39 119.5t17 128.5t4 115
q0 96 -42 139.5t-122 43.5q-65 0 -108.5 -33.5t-69.5 -88.5t-39 -119.5t-17 -128.5t-4 -115q0 -96 42.5 -139.5t121.5 -43.5z" />
    <glyph glyph-name="one" unicode="1" horiz-adv-x="373" 
d="M303 690l-97 -690h-25l87 619q2 11 4.5 23t5.5 23l-196 -64l-3 16l199 73h25z" />
    <glyph glyph-name="two" unicode="2" horiz-adv-x="548" 
d="M317 702q59 0 100.5 -8t63 -31t21.5 -70q0 -57 -24 -108t-64 -98.5t-89 -96.5l-270 -268h58.5h58.5h283l-3 -22h-434l2 15q1 4 2.5 7t4.5 6l279 277q46 46 84.5 93t62 95.5t23.5 98.5q0 40 -19.5 58t-53.5 23.5t-80 5.5q-32 0 -61 -1.5t-61.5 -6.5t-76.5 -14l-6 18
q49 12 83 17.5t61.5 7.5t54.5 2z" />
    <glyph glyph-name="three" unicode="3" horiz-adv-x="544" 
d="M303 702q100 0 143.5 -25.5t43.5 -91.5q0 -51 -14.5 -97.5t-44 -78.5t-76.5 -40l-2 -4q59 -9 83 -47t24 -88q0 -69 -29.5 -122.5t-84.5 -84.5t-131 -35q-40 -1 -93 2.5t-101 14.5l7 18q28 -6 61 -9t65 -3.5t56 0.5q108 7 167 66.5t59 153.5q0 32 -12.5 60.5t-45.5 46
t-93 17.5l-130 1l3 18l128 3q93 2 135.5 57.5t42.5 146.5q0 57 -36 77.5t-125 20.5q-46 0 -91.5 -3.5t-80.5 -8.5l-6 18q48 8 90.5 12.5t87.5 4.5z" />
    <glyph glyph-name="four" unicode="4" horiz-adv-x="590" 
d="M362 690l-285 -424q-12 -18 -5.5 -33t25.5 -15h430l-3 -18l-97 -4h-337q-20 0 -33 12t-14 30.5t11 36.5l279 415h29zM493 560l-79 -560h-25l63 443l23 117h18z" />
    <glyph glyph-name="five" unicode="5" horiz-adv-x="525" 
d="M494 690l-4 -22h-311l-49 -265h54q85 0 144 -10.5t90 -42.5t31 -97q0 -124 -64.5 -192t-187.5 -73q-37 -1 -78.5 4.5t-90.5 23.5l6 18q44 -15 85 -20t75 -4q112 5 171.5 68t59.5 175q0 60 -32.5 87t-97.5 34t-164 7h-13q-7 0 -10.5 4.5t-2.5 10.5l55 294h334z" />
    <glyph glyph-name="six" unicode="6" horiz-adv-x="562" 
d="M383 702q12 0 33.5 -0.5t46.5 -3t47 -8.5l-10 -18q-17 3 -37 4.5t-41 2t-42 0.5q-60 0 -104 -14.5t-75 -54t-53 -114.5t-40 -197q-11 -75 -11.5 -129.5t14.5 -90t49.5 -52.5t93.5 -17q83 0 129 38.5t64.5 103.5t18.5 144q0 56 -27 89.5t-100 33.5q-57 0 -117 -26.5
t-122 -103.5l-2 16q37 54 76 83.5t81.5 41t88.5 11.5q83 0 115.5 -37t32.5 -108q0 -89 -22.5 -159t-75.5 -109.5t-144 -39.5q-63 0 -101.5 17.5t-57 55t-20 97t10.5 144.5q18 129 43.5 208.5t61.5 121t84.5 56t111.5 14.5z" />
    <glyph glyph-name="seven" unicode="7" horiz-adv-x="499" 
d="M473 690q25 0 30.5 -9.5t-5.5 -32.5l-314 -648h-28l306 631q5 10 10 19t11 19l-387 -1l1 22h376z" />
    <glyph glyph-name="eight" unicode="8" horiz-adv-x="612" 
d="M361 698q84 1 126 -19t54 -60t3 -103q-7 -49 -21.5 -82t-38.5 -51.5t-60 -22.5l-3 -4q42 -4 64 -26t27.5 -61.5t-3.5 -98.5q-9 -65 -32 -103.5t-72.5 -56t-138.5 -18.5q-88 0 -134 18t-59 58t-4 106q8 58 24 97t43.5 60t69.5 25l3 4q-52 6 -70 45.5t-8 114.5q9 62 32 101
t70 58t128 19zM317 347q-60 0 -100 -6.5t-64 -25t-38 -53.5t-22 -92q-8 -56 3 -90.5t51 -49.5t118 -15q80 0 125 16t66 50.5t29 92.5q8 57 4.5 91.5t-22.5 52t-55.5 23.5t-94.5 6zM362 675q-74 0 -116 -15.5t-62 -50t-28 -93.5q-9 -64 1.5 -95.5t48 -41.5t110.5 -10
q57 0 93.5 6t58 21.5t33 45.5t18.5 78q9 58 -0.5 91.5t-46 48.5t-110.5 15z" />
    <glyph glyph-name="nine" unicode="9" horiz-adv-x="564" 
d="M327 702q69 0 109.5 -22t57 -65.5t14.5 -109t-16 -153.5q-19 -117 -43.5 -189.5t-59 -110t-83 -51t-116.5 -13.5q-22 0 -57 2t-76 10l8 18q23 -3 40.5 -4.5t35 -2.5t39.5 -1q67 0 113.5 12.5t78 48t54 103.5t40.5 179q13 81 16 142t-10.5 102.5t-48 62t-96.5 20.5
q-69 0 -111 -24.5t-64.5 -71t-33.5 -114.5q-12 -78 -0.5 -122.5t45.5 -61.5t90 -15q42 2 77.5 14.5t71.5 40t76 75.5l2 -17q-34 -47 -68.5 -76t-73.5 -42.5t-86 -16.5q-52 -3 -87.5 9t-54.5 40t-23 72t6 106q8 53 24 94.5t43 71t68 45t99 15.5z" />
    <glyph glyph-name="colon" unicode=":" horiz-adv-x="205" 
d="M160 430q8 0 9.5 -3.5t0.5 -9.5l-9 -62q-1 -6 -4 -8.5t-9 -2.5h-10q-13 0 -11 13l9 61q2 12 13 12h11zM111 86q8 0 9.5 -3.5t0.5 -9.5l-9 -62q-1 -6 -4 -8.5t-9 -2.5h-10q-13 0 -11 13l9 61q2 12 13 12h11z" />
    <glyph glyph-name="semicolon" unicode=";" horiz-adv-x="207" 
d="M129 430q8 0 9.5 -3.5t0.5 -9.5l-9 -62q-1 -6 -4 -8.5t-9 -2.5h-10q-13 0 -11 13l9 61q2 12 13 12h11zM82 86q5 0 7 -2.5t1 -8.5l-10 -66q-2 -18 -8 -39.5t-13.5 -43.5t-15.5 -42l-15 5q9 30 14 53t11 59q-3 0 -5 3t-1 7l10 64q1 6 3.5 8.5t9.5 2.5h12z" />
    <glyph glyph-name="less" unicode="&#x3c;" horiz-adv-x="538" 
d="M484 489l-3 -24l-393 -170l345 -165l-3 -23l-368 177l3 22z" />
    <glyph glyph-name="equal" unicode="=" horiz-adv-x="592" 
d="M519 407l-3 -22h-417l3 22h417zM490 195l-3 -22h-417l3 22h417z" />
    <glyph glyph-name="greater" unicode="&#x3e;" horiz-adv-x="535" 
d="M107 489l367 -183l-3 -22l-418 -177l3 24l392 166l-344 170z" />
    <glyph glyph-name="question" unicode="?" horiz-adv-x="497" 
d="M302 712q97 0 142 -38.5t34 -118.5q-6 -46 -30 -78.5t-56 -60.5t-64.5 -57t-56.5 -66.5t-32 -90.5l-24 2q8 57 32.5 96.5t57 69t64.5 57t55.5 58.5t29.5 74q9 68 -27.5 99.5t-123.5 31.5q-51 0 -82.5 -1.5t-57.5 -4.5t-61 -8l-4 18q24 4 44 7t41.5 5.5t49.5 4t69 1.5z
M215 86q6 0 9 -3t2 -10l-9 -61q-1 -6 -4 -9t-9 -3h-10q-13 0 -11 13l9 61q2 12 14 12h9z" />
    <glyph glyph-name="at" unicode="@" horiz-adv-x="739" 
d="M418 613q91 0 143 -10t74.5 -41.5t23 -94.5t-13.5 -168q-13 -87 -24.5 -146.5t-27.5 -96t-42.5 -52.5t-69.5 -16q-22 0 -37.5 7t-23.5 19.5t-10.5 30t0.5 39.5l49 345h25l-50 -347q-5 -38 6 -55t42 -17q33 0 54.5 12t36 43t25.5 88.5t24 148.5q11 82 13.5 136t-7 85
t-34 45.5t-67.5 18.5t-108 4h-292l2 18q40 1 89.5 2t101 1.5t98.5 0.5zM320 441q35 0 73.5 -2.5t90.5 -9.5l-10 -18q-57 5 -88.5 6.5t-60.5 1.5q-61 0 -101 -8.5t-64.5 -30t-39 -61t-25.5 -101.5q-10 -57 -10 -104t20.5 -75.5t73.5 -28.5q60 0 123.5 38t121.5 107v-27
q-39 -47 -81 -78.5t-84 -46.5t-82 -15q-51 0 -76.5 21.5t-34 56t-5.5 76t10 80.5q12 66 28 108.5t43 66.5t70 34t108 10z" />
    <glyph glyph-name="A" unicode="A" horiz-adv-x="599" 
d="M378 690q5 0 8.5 -2.5t4.5 -7.5l152 -680h-26l-135 613q-3 14 -5.5 27t-6.5 27h-29q-7 -14 -13.5 -28t-14.5 -28l-307 -611h-28l344 682q2 5 5.5 6.5t7.5 1.5h43zM474 274l-3 -22h-350l3 22h350z" />
    <glyph glyph-name="B" unicode="B" horiz-adv-x="610" 
d="M353 698q83 0 129.5 -16t62.5 -55.5t6 -110.5q-10 -73 -43 -111.5t-96 -44.5v-4q75 -7 98.5 -55t11.5 -131q-10 -70 -35 -109t-73 -54t-127 -15q-52 0 -89.5 0.5t-69 2.5t-66.5 5l16 18q21 -1 76.5 -2t131.5 -1q69 0 112 13t66.5 47.5t32.5 98.5q10 68 -4 105t-54.5 52
t-112.5 16h-202l3 21h200q65 1 105.5 13.5t62.5 45.5t30 93q9 64 -4.5 97t-54.5 45.5t-113 12.5h-81h-62.5h-37.5l-13 15q32 4 59 5.5t59 2t76 0.5zM184 690l-97 -690h-25l97 690h25z" />
    <glyph glyph-name="C" unicode="C" 
d="M386 702q40 0 69.5 -2t54 -5.5t49.5 -9.5l-7 -18q-27 5 -51 7.5t-50.5 3.5t-63.5 1q-67 0 -114 -17.5t-79 -57t-52.5 -104t-33.5 -157.5q-17 -123 -6 -196t56.5 -104.5t130.5 -31.5q61 0 103 3t82 10l5 -18q-41 -9 -84 -13.5t-105 -4.5q-95 0 -146.5 34.5t-65 113.5
t4.5 211q14 98 37 166t58 109.5t86.5 60.5t121.5 19z" />
    <glyph glyph-name="D" unicode="D" horiz-adv-x="658" 
d="M388 699q93 0 143.5 -34.5t63.5 -112.5t-5 -209q-13 -99 -36 -166.5t-57.5 -108.5t-85 -59t-119.5 -18q-67 0 -123.5 2.5t-106.5 6.5l15 17q48 -1 99.5 -2t114.5 -1t108.5 17t78 55t53.5 102.5t34 158.5q13 92 10 155t-24 101t-61 55.5t-102 17.5q-43 0 -81 -0.5
t-72 -1.5t-67 -2l-9 18q34 3 70.5 5t76 3t82.5 1zM184 690l-97 -690h-25l97 690h25z" />
    <glyph glyph-name="E" unicode="E" horiz-adv-x="548" 
d="M252 690h99t98 -1t98 -3l-4 -18h-286q-41 0 -65.5 -22.5t-29.5 -60.5l-67 -482q-5 -36 14 -58.5t55 -22.5h288l1 -18q-49 -2 -98.5 -3t-98 -1h-97.5q-45 0 -70.5 29.5t-18.5 73.5l68 486q6 44 35.5 72.5t78.5 28.5zM126 381l336 -1l-3 -20l-336 -1z" />
    <glyph glyph-name="F" unicode="F" horiz-adv-x="530" 
d="M256 690q73 0 144.5 -0.5t143.5 -3.5l-4 -18h-279q-37 0 -63 -21t-32 -62l-82 -585h-25l83 589q7 47 37.5 74t76.5 27zM129 377l329 -1l-3 -20l-329 -1z" />
    <glyph glyph-name="G" unicode="G" horiz-adv-x="620" 
d="M388 702q46 0 78.5 -2t60 -5.5t56.5 -9.5l-7 -18q-31 5 -58 7.5t-57 3.5t-72 1q-67 0 -115 -17.5t-80.5 -56.5t-53 -103.5t-33.5 -158.5q-15 -120 -5 -193t49 -106t112 -33q46 0 86 18t76.5 46.5t70.5 59.5l4 -19q-27 -30 -56 -53.5t-59.5 -40t-61.5 -25.5t-61 -9
q-82 0 -127 37t-57 116t4 206q14 98 36.5 166t58.5 109.5t88 60.5t123 19zM556 400l-58 -400h-17l12 120l1 12l37 268h25z" />
    <glyph glyph-name="H" unicode="H" horiz-adv-x="657" 
d="M184 690l-97 -690h-25l97 690h25zM553 381l-3 -22h-420l3 22h420zM610 690l-97 -690h-25l97 690h25z" />
    <glyph glyph-name="I" unicode="I" horiz-adv-x="231" 
d="M184 690l-97 -690h-25l97 690h25z" />
    <glyph glyph-name="J" unicode="J" horiz-adv-x="322" 
d="M279 690l-81 -576q-8 -60 -42 -90.5t-95 -29.5q-9 0 -20.5 1t-23 2.5t-20.5 2.5l5 16h57q50 0 79 25.5t36 75.5l80 573h25z" />
    <glyph glyph-name="K" unicode="K" horiz-adv-x="559" 
d="M568 690l-267 -297q-6 -7 -15 -15.5t-18 -16.5v-2q5 -7 10 -13.5t9 -14.5l201 -331h-28l-221 361l298 329h31zM183 690l-33 -237q-4 -26 -7.5 -46.5t-8.5 -47.5q-1 -26 -4 -49t-7 -48l-37 -262h-24l97 690h24zM268 371l-3 -22h-145l3 22h145z" />
    <glyph glyph-name="L" unicode="L" horiz-adv-x="501" 
d="M181 690l-82 -587q-5 -36 14 -58.5t55 -22.5h273l-1 -18q-70 -3 -139.5 -3.5t-137.5 -0.5q-30 0 -51.5 13.5t-31.5 37t-6 52.5l82 587h25z" />
    <glyph glyph-name="M" unicode="M" horiz-adv-x="855" 
d="M776 690q7 0 11 -4.5t3 -11.5l-65 -674h-25l64 668h-24l-310 -600q-2 -4 -5 -6t-8 -2h-42q-4 0 -8 3t-5 7l-142 598h-24l-124 -668h-25l125 676q2 7 5.5 10.5t10.5 3.5h41q5 0 8.5 -2.5t4.5 -7.5l120 -505q6 -23 11 -47t11 -47h27l24.5 49l24.5 49l261 503q2 5 5.5 6.5
t7.5 1.5h42z" />
    <glyph glyph-name="N" unicode="N" horiz-adv-x="688" 
d="M641 690l-95 -676q-1 -7 -4.5 -10.5t-11.5 -3.5h-41q-6 0 -10.5 3t-6.5 9l-238 589q-7 17 -14 33.5t-14 33.5h-25q-3 -19 -5.5 -38.5t-5.5 -39.5l-83 -590h-25l95 676q2 8 5.5 11t10.5 3h38q6 0 11 -3t7 -9l233 -576q8 -20 16 -40.5t16 -40.5h28q3 21 6 42.5t6 42.5
l82 584h25z" />
    <glyph glyph-name="O" unicode="O" horiz-adv-x="660" 
d="M386 702q95 0 146.5 -34.5t65 -113.5t-5.5 -211q-13 -98 -36 -166t-58 -109.5t-86 -60.5t-122 -19q-95 0 -146.5 34.5t-65 113.5t4.5 211q14 98 37 166t58 109.5t86.5 60.5t121.5 19zM386 679q-87 0 -142 -32t-86.5 -105.5t-49.5 -198.5q-17 -123 -5.5 -196t57 -104.5
t129.5 -31.5q87 0 142 32t87 106t49 198q18 124 7 196.5t-56 104t-132 31.5z" />
    <glyph glyph-name="P" unicode="P" horiz-adv-x="580" 
d="M379 698q74 0 115.5 -18t55 -62t2.5 -124q-11 -79 -36.5 -123t-71 -61.5t-118.5 -17.5q-40 0 -75 0.5t-62.5 1.5t-46.5 1.5t-27 1.5l4 18h102.5h104.5q64 1 104.5 16.5t63 54.5t32.5 111q10 71 -1 109.5t-46.5 53.5t-98.5 15q-76 0 -132 -0.5t-76 -2.5l-13 18
q36 4 66.5 5.5t66.5 2t87 0.5zM184 690l-97 -690h-25l97 690h25z" />
    <glyph glyph-name="Q" unicode="Q" horiz-adv-x="660" 
d="M386 702q95 0 146.5 -34.5t65 -113.5t-5.5 -211q-13 -98 -36 -166t-58 -109.5t-86 -60.5t-122 -19q-95 0 -146.5 34.5t-65 113.5t4.5 211q14 98 37 166t58 109.5t86.5 60.5t121.5 19zM248 -51q42 -33 93 -53.5t119 -31.5l-8 -25q-65 9 -121 34t-95 62zM386 679
q-87 0 -142 -32t-86.5 -105.5t-49.5 -198.5q-17 -123 -5.5 -196t57 -104.5t129.5 -31.5q87 0 142 32t87 106t49 198q18 124 7 196.5t-56 104t-132 31.5z" />
    <glyph glyph-name="R" unicode="R" horiz-adv-x="606" 
d="M379 698q74 0 115.5 -17t55.5 -59.5t3 -119.5q-9 -62 -28 -99.5t-49.5 -56.5t-76.5 -26v-4q17 -5 29.5 -19t21.5 -34t13 -43l45 -220h-27l-44 219q-10 50 -35 70t-64 21q-58 1 -101 1.5t-72.5 1.5t-46.5 2l4 18h207q64 1 104 16t62.5 52.5t31.5 104.5q10 68 -1.5 104.5
t-46.5 50.5t-99 14q-76 0 -132 -0.5t-76 -2.5l-13 18q36 4 66.5 5.5t66.5 2t87 0.5zM184 690l-97 -690h-25l97 690h25z" />
    <glyph glyph-name="S" unicode="S" horiz-adv-x="553" 
d="M329 701q49 -1 95.5 -4t90.5 -8l-4 -19q-44 3 -74.5 5t-59 2.5t-66.5 0.5q-34 0 -65.5 -3t-56.5 -15t-42.5 -40t-23.5 -78q-4 -37 1 -63.5t25 -47t60 -38.5l150 -63q52 -22 79.5 -45.5t35.5 -55.5t1 -82q-11 -73 -43 -106.5t-83.5 -42.5t-121.5 -9q-28 0 -77.5 2
t-112.5 9l4 19q37 -3 69 -4.5t64 -2t67 -0.5q62 1 104.5 10t68 38.5t35.5 90.5q6 43 0.5 69.5t-27.5 46t-64 37.5l-150 63q-48 21 -74 45t-34 56t-3 78q8 56 27.5 88t50 46.5t69.5 18t85 2.5z" />
    <glyph glyph-name="T" unicode="T" horiz-adv-x="558" 
d="M347 690l-97 -690h-25l97 690h25zM590 690l-3 -22h-510l3 22h510z" />
    <glyph glyph-name="U" unicode="U" horiz-adv-x="667" 
d="M625 690l-61 -436q-13 -96 -44 -154.5t-85.5 -85t-140.5 -26.5q-87 0 -135.5 27t-63.5 86t-2 155l61 434h25l-61 -436q-12 -89 0.5 -142.5t55.5 -77t119 -23.5q77 0 127 24t78.5 78t40.5 143l61 434h25z" />
    <glyph glyph-name="V" unicode="V" horiz-adv-x="587" 
d="M618 690l-332 -682q-3 -8 -13 -8h-42q-4 0 -7.5 3t-4.5 7l-141 680h26l122 -595q4 -19 7.5 -37t6.5 -37h27q8 19 17.5 38.5t18.5 38.5l288 592h27z" />
    <glyph glyph-name="W" unicode="W" horiz-adv-x="926" 
d="M949 690l-278 -681q-2 -4 -6 -6.5t-9 -2.5h-42q-5 0 -8.5 3.5t-4.5 8.5l-65 580q-2 20 -4 38t-5 37h-25q-8 -19 -15.5 -38t-15.5 -39l-227 -580q-2 -5 -6 -7.5t-9 -2.5h-43q-5 0 -8.5 3.5t-4.5 7.5l-87 679h25l76 -600q2 -17 4 -34.5t4 -34.5h29q7 17 13 35t13 35
l232 589q4 10 14 10h39q5 0 9 -3.5t5 -8.5l67 -588q2 -17 3.5 -34.5t3.5 -34.5h29q7 17 13.5 35t13.5 35l244 599h26z" />
    <glyph glyph-name="X" unicode="X" horiz-adv-x="590" 
d="M133 690l161 -332l-268 -358h-30l270 361l-160 329h27zM338 372l-4 -22h-52l4 22h52zM597 690l-252 -330l168 -360h-27l-169 363l251 327h29z" />
    <glyph glyph-name="Y" unicode="Y" horiz-adv-x="535" 
d="M569 690l-300 -440l-18 1l-178 439h26l134 -334q7 -16 14 -34t14 -35h6q11 17 24 35.5t23 34.5l227 333h28zM277 281l-40 -281h-25l40 281h25z" />
    <glyph glyph-name="Z" unicode="Z" horiz-adv-x="553" 
d="M522 668l30 -1l-511 -645l-29 1zM467 23l-4 -23h-455l4 23h455zM555 690l-3 -23h-447l3 23h447z" />
    <glyph glyph-name="bracketleft" unicode="[" horiz-adv-x="308" 
d="M327 768l-3 -22h-119q-5 0 -9.5 -4t-5.5 -9l-121 -865q-2 -11 9 -11h121l-3 -22h-124q-13 0 -21 9.5t-6 22.5l122 871q2 14 11.5 22t22.5 8h126z" />
    <glyph glyph-name="backslash" unicode="\" horiz-adv-x="482" 
d="M112 690l289 -749h-24l-289 749h24z" />
    <glyph glyph-name="bracketright" unicode="]" horiz-adv-x="308" 
d="M238 768q14 0 22 -9t6 -23l-123 -871q-1 -13 -10.5 -21.5t-23.5 -8.5h-126l3 22h119q5 0 9.5 4t5.5 9l122 865q2 11 -10 11h-121l3 22h124z" />
    <glyph glyph-name="asciicircum" unicode="^" horiz-adv-x="392" 
d="M252 575l130 -198l-14 -11l-123 182h-8l-175 -182l-13 12l185 197h18z" />
    <glyph glyph-name="underscore" unicode="_" horiz-adv-x="431" 
d="M397 0l-3 -22h-431l3 22h431z" />
    <glyph glyph-name="grave" unicode="`" horiz-adv-x="277" 
d="M132 709l129 -147l-14 -12l-134 141z" />
    <glyph glyph-name="a" unicode="a" horiz-adv-x="564" 
d="M319 492q22 0 43.5 -1t44 -2.5t45 -3.5t46.5 -5l-10 -18q-54 3 -90.5 5.5t-75.5 2.5q-61 0 -100 -9.5t-63.5 -34.5t-39 -70.5t-25.5 -117.5q-12 -79 -10 -129.5t25 -74t73 -23.5q33 0 75.5 16.5t88 49t86.5 78.5v-27q-42 -48 -88.5 -79t-88.5 -46t-73 -15
q-61 0 -89.5 27.5t-32.5 83.5t10 143q12 75 28.5 123.5t43 76.5t69.5 39t108 11zM473 480h25l-68 -480h-18l15 122l-2 4z" />
    <glyph glyph-name="b" unicode="b" horiz-adv-x="561" 
d="M358 492q56 0 87 -23.5t40 -79t-5 -151.5q-11 -78 -27.5 -127t-42 -76t-64 -37t-94.5 -10q-29 0 -54.5 2t-48.5 6t-46.5 10t-49.5 13l21 18q34 -10 63.5 -15.5t57 -8t53.5 -2.5q56 0 92 10.5t58 36.5t35 71t22 113q12 84 7.5 133.5t-30 71.5t-78.5 22q-49 0 -103 -32
t-131 -95l-2 21q37 33 69.5 57t62 40t56.5 24t52 8zM172 700l-30 -201q-6 -42 -11 -72t-12 -65l3 -13l-46 -330h-24l96 681h24z" />
    <glyph glyph-name="c" unicode="c" horiz-adv-x="475" 
d="M313 492q28 0 66 -3.5t68 -13.5l-7 -18q-25 7 -62 9.5t-60 2.5q-73 0 -119.5 -20.5t-73 -70.5t-39.5 -139q-12 -88 0 -138t52 -70t112 -20q15 0 39 1t51.5 4t50.5 7l3 -18q-34 -7 -72.5 -12t-73.5 -5q-80 0 -125.5 25t-60 80.5t-1.5 148.5q13 92 42 147t80 79t130 24z
" />
    <glyph glyph-name="d" unicode="d" horiz-adv-x="562" 
d="M319 492q41 0 85.5 -3.5t91.5 -8.5l-10 -18q-54 3 -90.5 5.5t-74.5 2.5q-61 0 -101 -9.5t-64.5 -34.5t-38.5 -70.5t-25 -117.5q-11 -75 -9.5 -125.5t22.5 -76t68 -25.5q58 0 126 37t131 107v-27q-31 -34 -63.5 -60.5t-65.5 -44t-66 -26.5t-64 -9q-57 0 -83 29.5t-29 86
t9 138.5q11 75 27.5 124t44 76.5t71 38.5t108.5 11zM527 700l-99 -700h-18l15 133l-1 4l45 327l6 17q2 26 4 46.5t6 46.5l18 126h24z" />
    <glyph glyph-name="e" unicode="e" horiz-adv-x="526" 
d="M310 492q58 0 99.5 -12t59 -43.5t2.5 -92.5q-9 -39 -27.5 -62t-50 -34t-81.5 -17l-243 -26l3 21l241 27q44 6 70 15t41 27.5t23 50.5q15 55 0 81t-50 34.5t-80 8.5q-53 0 -91.5 -8t-65.5 -31.5t-44.5 -69t-29.5 -120.5q-14 -92 -4 -142t50 -69.5t112 -19.5q29 0 62 2
t63 5.5t51 6.5l3 -18q-18 -5 -52.5 -9t-72 -6.5t-64.5 -2.5q-79 0 -121 25.5t-53.5 81.5t2.5 149q12 78 32 126.5t50 75t71 36.5t95 10z" />
    <glyph glyph-name="f" unicode="f" horiz-adv-x="351" 
d="M303 714q15 0 36 -0.5t43 -1t39 -2.5l-1 -18h-109q-60 0 -89 -25t-37 -87l-93 -658q-9 -67 -38.5 -99.5t-93.5 -32.5q-16 0 -42.5 1t-45.5 3l1 18h79q56 0 82 25.5t34 86.5l93 658q9 66 41.5 99t100.5 33zM349 480l-4 -22h-289l3 17l94 5h196z" />
    <glyph glyph-name="g" unicode="g" horiz-adv-x="569" 
d="M481 480h25l-76 -486q-7 -47 -24.5 -84.5t-44.5 -65t-64 -43.5t-85 -21q-21 -2 -55.5 -2.5t-70.5 0.5t-64 4l3 18q29 -1 59.5 -2t60.5 0t59 4q89 9 138 55.5t64 138.5q9 56 16 91t13 51l-6 8zM319 492q29 0 58 -1.5t59.5 -4t61.5 -6.5l-10 -18q-54 3 -90.5 5.5t-75.5 2.5
q-61 0 -100 -9.5t-63.5 -34.5t-39 -70.5t-25.5 -117.5q-12 -79 -10 -129.5t25 -74t73 -23.5q33 0 75.5 16.5t88 49t86.5 78.5l5 -22q-43 -50 -90 -82t-90 -47.5t-75 -15.5q-61 0 -89.5 27.5t-32.5 83.5t10 143q12 75 28.5 123.5t43 76.5t69.5 39t108 11z" />
    <glyph glyph-name="h" unicode="h" horiz-adv-x="567" 
d="M374 492q65 0 93.5 -33.5t19.5 -98.5l-51 -360h-24l51 359q8 59 -15 84.5t-78 25.5q-53 0 -111.5 -33.5t-137.5 -99.5l1 26q71 59 133.5 94.5t118.5 35.5zM175 700l-30 -216q-4 -28 -10 -62t-12 -62l2 -17l-49 -343h-24l99 700h24z" />
    <glyph glyph-name="i" unicode="i" horiz-adv-x="218" 
d="M148 480l-68 -480h-24l68 480h24zM168 679q6 0 9 -3.5t2 -9.5l-9 -62q-1 -11 -12 -11h-10q-14 0 -12 13l9 62q1 11 13 11h10z" />
    <glyph glyph-name="j" unicode="j" horiz-adv-x="219" 
d="M148 480l-74 -527q-4 -32 -16.5 -61t-31 -54t-41.5 -48l-12 10q30 34 50 70t27 85l74 525h24zM168 679q6 0 9 -3.5t2 -9.5l-9 -62q-1 -11 -12 -11h-10q-14 0 -12 13l9 62q1 11 13 11h10z" />
    <glyph glyph-name="k" unicode="k" horiz-adv-x="487" 
d="M175 700l-54 -390q-4 -26 -7.5 -46.5t-10.5 -47.5q1 -1 1.5 -3t1.5 -4l-30 -209h-24l99 700h24zM461 480q-30 -72 -75 -121.5t-97.5 -82t-103.5 -51.5t-93 -31v23q88 24 155.5 62t114.5 88.5t74 112.5h25zM268 271l14 -28l14 -28l108 -215h-27l-130 260z" />
    <glyph glyph-name="l" unicode="l" horiz-adv-x="265" 
d="M176 700l-85 -605q-6 -39 12 -59t56 -20h59l1 -16q-6 -2 -18 -3.5t-24.5 -2t-21.5 -0.5q-46 0 -70.5 26.5t-17.5 75.5l85 604h24z" />
    <glyph glyph-name="m" unicode="m" horiz-adv-x="876" 
d="M138 480l-15 -120l1 -18l-48 -342h-24l68 480h18zM349 492q65 0 93.5 -33.5t19.5 -98.5l-51 -360h-24l51 359q8 59 -15 84.5t-78 25.5q-32 0 -65.5 -15t-71.5 -43.5t-87 -71.5l1 23q65 59 120 94.5t107 35.5zM683 492q65 0 93.5 -33.5t19.5 -98.5l-51 -360h-24l51 359
q8 59 -15 84.5t-78 25.5q-32 0 -65.5 -15t-71.5 -43.5t-87 -71.5l1 23q65 59 120 94.5t107 35.5z" />
    <glyph glyph-name="n" unicode="n" horiz-adv-x="567" 
d="M374 492q43 0 70 -15t38 -44.5t5 -72.5l-51 -360h-24l51 359q8 59 -15 84.5t-78 25.5q-53 0 -111.5 -33t-137.5 -97l1 23q71 59 133.5 94.5t118.5 35.5zM138 480l-15 -120l1 -18l-48 -342h-24l68 480h18z" />
    <glyph glyph-name="o" unicode="o" 
d="M304 492q78 0 121 -25t56 -80.5t0 -148.5q-13 -92 -40.5 -147t-76.5 -79t-126 -24q-78 0 -121 25t-56 80.5t0 148.5q13 92 40.5 147t76.5 79t126 24zM304 469q-68 0 -112 -21.5t-69 -72t-37 -137.5q-12 -86 -1.5 -135.5t48 -70.5t105.5 -21t112 21.5t69 72t37 137.5
q12 86 1.5 135.5t-48 70.5t-105.5 21z" />
    <glyph glyph-name="p" unicode="p" horiz-adv-x="563" 
d="M368 492q61 0 89.5 -27.5t32 -83.5t-9.5 -143q-11 -75 -27.5 -123.5t-43.5 -76.5t-70 -39t-108 -11q-22 0 -43.5 1t-44 2.5t-45 3.5t-46.5 5l10 18q54 -3 90.5 -5.5t75.5 -2.5q61 0 100.5 9.5t64 34.5t39 70.5t24.5 117.5q12 80 10 130t-24.5 73.5t-73.5 23.5
q-32 0 -75 -16.5t-88 -48.5t-87 -79v27q32 36 66 62.5t67.5 43.5t63.5 25.5t53 8.5zM138 480l-15 -133l1 -4l-45 -327l-6 -17q-1 -26 -3.5 -46.5t-6.5 -46.5l-18 -126h-24l99 700h18z" />
    <glyph glyph-name="q" unicode="q" horiz-adv-x="563" 
d="M296 492q29 0 54 -2t48 -6t46.5 -10t49.5 -13l-21 -18q-34 10 -63.5 15.5t-56.5 8t-54 2.5q-55 0 -91 -10.5t-58.5 -36t-35.5 -70.5t-22 -114q-10 -80 -6.5 -130.5t27.5 -73.5t76 -23q41 0 76 14.5t74.5 46t91.5 81.5l-1 -25q-49 -53 -89 -83.5t-77 -43.5t-78 -13
q-53 0 -84 23t-39.5 78.5t4.5 152.5q10 77 26.5 126t42.5 76t65 37.5t95 10.5zM471 461h24l-96 -681h-24l31 212q6 42 11 72.5t12 64.5l-3 13z" />
    <glyph glyph-name="r" unicode="r" horiz-adv-x="383" 
d="M138 480l-15 -121l1 -16l-48 -343h-24l68 480h18zM388 492l-8 -23h-16q-53 0 -109.5 -34.5t-133.5 -98.5l1 24q68 62 129.5 97t116.5 35h20z" />
    <glyph glyph-name="s" unicode="s" horiz-adv-x="498" 
d="M264 492q31 0 63 -1.5t63 -4t60 -6.5l-4 -18q-43 3 -90 5t-91 3q-56 1 -90.5 -3t-53 -22.5t-25.5 -61.5q-7 -45 8.5 -64.5t55.5 -34.5l160 -60q33 -12 55.5 -26t32.5 -36.5t4 -61.5q-7 -52 -33.5 -75.5t-70.5 -30t-105 -6.5q-21 0 -47 0.5t-56.5 3.5t-66.5 8l4 18
q31 -3 58 -5t54 -2.5t58 -0.5q61 1 99 8t57.5 26.5t24.5 59.5q5 32 -3 50t-25 28t-42 19l-159 60q-29 11 -51 23.5t-32 36t-4 66.5q8 50 32 72.5t64 28t96 4.5z" />
    <glyph glyph-name="t" unicode="t" horiz-adv-x="341" 
d="M189 631l-75 -536q-6 -40 12 -59.5t56 -19.5h89l1 -16q-13 -2 -30 -3.5t-32 -2t-23 -0.5q-56 0 -80 26.5t-17 75.5l75 535h24zM346 480l-4 -22h-289l3 17l94 5h196z" />
    <glyph glyph-name="u" unicode="u" horiz-adv-x="556" 
d="M140 480l-51 -359q-8 -57 15 -83.5t78 -26.5q54 0 110.5 36.5t129.5 106.5l1 -24q-69 -70 -130.5 -106t-114.5 -36q-64 0 -93.5 34t-19.5 98l51 360h24zM490 480l-68 -480h-18l16 131l-1 16l47 333h24z" />
    <glyph glyph-name="v" unicode="v" horiz-adv-x="503" 
d="M486 480q-18 -71 -37 -123t-40.5 -92.5t-45.5 -80.5q-37 -61 -65 -101t-47 -61q-8 -9 -15.5 -14t-15.5 -6.5t-19 -1.5h-29q-4 0 -7.5 2.5t-4.5 6.5l-101 471h25l96 -459h19q15 0 23 5.5t20 19.5q15 18 42.5 57.5t58.5 91.5q45 76 73 145t45 140h25z" />
    <glyph glyph-name="w" unicode="w" horiz-adv-x="813" 
d="M83 480l86 -459h12q9 0 16 3t20 19q15 20 40 61.5t48 92.5q21 45 38 93.5t31 95.5t25 87q1 4 4 6t7 2l25 -1q5 0 8 -2.5t4 -6.5l69 -450h12q12 0 21 6.5t17 18.5q27 39 49.5 74t43.5 76q41 79 63.5 149t37.5 135h25q-15 -66 -31.5 -117t-34.5 -94t-41 -85
q-30 -56 -58.5 -100t-43.5 -61q-6 -7 -12.5 -12t-15 -8t-21.5 -3h-19q-4 0 -7.5 2.5t-4.5 6.5l-69 451h-10q-5 -22 -18 -67t-31.5 -99t-40.5 -103q-13 -30 -31.5 -64t-36.5 -63t-32 -44q-6 -6 -12.5 -10.5t-14.5 -7t-19 -2.5h-20q-4 0 -7.5 2.5t-4.5 6.5l-91 471h25z" />
    <glyph glyph-name="x" unicode="x" horiz-adv-x="501" 
d="M102 480l137 -231l-214 -249h-32l218 251l-136 229h27zM272 262l-3 -22h-52l3 22h52zM481 480l-202 -230l147 -250h-27l-148 252l200 228h30z" />
    <glyph glyph-name="y" unicode="y" horiz-adv-x="511" 
d="M487 480q-11 -41 -25 -83t-31 -85t-37.5 -86t-43.5 -85t-49 -83q-48 -73 -88.5 -129.5t-81 -91.5t-88.5 -47l-4 15q33 11 62 33.5t57 55.5t57 75.5t62 93.5q47 74 80 141.5t58.5 135t46.5 140.5h25zM82 480l93 -433q7 -26 32 -26l51 1l-13 -22h-45q-17 0 -29.5 10.5
t-16.5 26.5l-98 443h26z" />
    <glyph glyph-name="z" unicode="z" horiz-adv-x="485" 
d="M423 459l32 -1l-410 -437l-32 1zM396 22l-3 -22h-383l3 22h383zM458 480l-3 -22h-377l3 22h377z" />
    <glyph glyph-name="braceleft" unicode="{" horiz-adv-x="298" 
d="M316 768l-2 -18q-60 0 -86 -28t-34 -81l-28 -205q-6 -40 -15.5 -61t-27 -30.5t-49.5 -16.5q30 -11 45.5 -22t20 -30t-0.5 -54l-36 -262q-7 -52 10 -79.5t78 -27.5l-2 -18q-46 0 -72.5 13t-35 41.5t-2.5 72.5l38 272q4 29 -1.5 42.5t-20 21t-38.5 16.5l5 30q28 8 43.5 14
t23 21t11.5 49l31 215q6 45 22 72.5t46 40.5t77 12z" />
    <glyph glyph-name="bar" unicode="|" horiz-adv-x="233" 
d="M196 781l-133 -950h-22l133 950h22z" />
    <glyph glyph-name="braceright" unicode="}" horiz-adv-x="296" 
d="M114 768q46 0 72.5 -13t35.5 -41t2 -73l-30 -215q-4 -34 -0.5 -49t17 -21t38.5 -14l-5 -30q-25 -9 -41.5 -16.5t-26 -21t-13.5 -42.5l-38 -272q-6 -44 -22.5 -72t-46 -40.5t-75.5 -12.5l2 18q59 0 85 28.5t33 80.5l37 262q5 35 14 53.5t28 29t52 21.5q-28 7 -43.5 17
t-19 31.5t2.5 61.5l29 205q8 53 -9.5 80t-79.5 27z" />
    <glyph glyph-name="asciitilde" unicode="~" horiz-adv-x="533" 
d="M165 330q33 -2 56.5 -12t44.5 -22t44 -22t55 -12t48 13.5t21 50.5l17 -2q-4 -43 -27.5 -65t-57.5 -19q-38 2 -64 12t-46 22t-40.5 22t-49.5 12q-31 3 -48 -14t-22 -54l-17 2q4 31 15.5 51t29.5 29.5t41 7.5z" />
    <glyph glyph-name="uni00A0" unicode="&#xa0;" horiz-adv-x="230" 
 />
    <glyph glyph-name="exclamdown" unicode="&#xa1;" horiz-adv-x="230" 
d="M123 277l-19 -151l-47 -331h-25l47 331l23 151h21zM147 480q6 0 8.5 -3t1.5 -10l-9 -59q-1 -6 -4 -10t-10 -4h-9q-13 0 -11 13l9 62q1 11 13 11h11z" />
    <glyph glyph-name="cent" unicode="&#xa2;" horiz-adv-x="502" 
d="M330 602q28 0 65.5 -3.5t67.5 -13.5l-6 -18q-25 7 -62 9.5t-60 2.5q-72 0 -119 -20t-73.5 -70t-39.5 -139q-12 -88 -0.5 -138t52 -70.5t111.5 -20.5q15 0 39.5 1.5t52 4t49.5 6.5l3 -18q-34 -7 -72.5 -12t-73.5 -5q-80 0 -125.5 25t-59.5 80.5t-1 148.5q13 92 42 147
t80 79t130 24zM246 113l-24 -113h-21l24 113h21zM346 589l-100 -479h-21l100 479h21zM367 690l-21 -104h-21l21 104h21z" />
    <glyph glyph-name="sterling" unicode="&#xa3;" 
d="M376 701q30 0 69.5 -2.5t85.5 -7.5l-3 -18q-23 2 -43.5 3t-40.5 1.5t-42 1t-48 0.5q-79 0 -114 -35t-43 -115l-26 -282q-4 -47 -14.5 -90t-31.5 -78t-58 -57h28.5h29.5h338l-3 -22h-429l2 22q59 34 83 90t31 132l26 285q6 59 23 93.5t43.5 51.5t61 22t75.5 5zM434 373
l-4 -20h-356l3 20h357z" />
    <glyph glyph-name="currency" unicode="&#xa4;" horiz-adv-x="600" 
d="M327 543q61 0 101 -26.5t58 -70t12 -96.5q-5 -55 -33 -97.5t-72.5 -66.5t-101.5 -24q-58 0 -99 25t-60.5 68.5t-13.5 98.5q6 54 32 96.5t71 67.5t106 25zM162 237l12 -14l-92 -81l-13 14zM434 223l73 -84l-15 -12l-72 84zM328 524q-83 0 -132.5 -49.5t-57.5 -124.5
q-7 -72 32.5 -119t112.5 -50q54 -2 96 20t68 61.5t31 91.5q5 47 -10.5 85.5t-50.5 61.5t-89 23zM127 582l71 -82l-15 -12l-70 81zM530 569l12 -15l-91 -79l-12 14z" />
    <glyph glyph-name="yen" unicode="&#xa5;" horiz-adv-x="601" 
d="M603 690l-296 -410l-18 1l-182 409h26l135 -304q8 -16 16 -34t15 -35h7q11 17 24.5 35t24.5 33l219 305h29zM315 311l-44 -311h-25l44 311h25zM497 196l-3 -20h-416l3 20h416zM512 306l-3 -20h-416l3 20h416z" />
    <glyph glyph-name="brokenbar" unicode="&#xa6;" horiz-adv-x="233" 
d="M196 781l-56 -400h-22l56 400h22zM119 231l-56 -400h-22l56 400h22z" />
    <glyph glyph-name="section" unicode="&#xa7;" horiz-adv-x="543" 
d="M104 417l22 -2q-11 -46 -14.5 -81.5t8 -61.5t43.5 -46l178 -109q26 -16 43.5 -32.5t27.5 -34.5t12.5 -39t-1.5 -45q-8 -53 -34 -76.5t-65.5 -29t-90.5 -4.5q-32 1 -65 2t-69.5 3.5t-80.5 6.5l3 18q59 -3 109.5 -5t101.5 -3q42 0 78 3.5t59.5 23t29.5 65.5q6 47 -13 74.5
t-48 45.5l-176 108q-43 26 -59 56.5t-14 70.5t15 92zM307 702q21 0 59.5 -1.5t81 -4t74.5 -6.5l-3 -18q-33 2 -61 3.5t-62.5 3t-87.5 1.5q-46 1 -81.5 -4t-57.5 -23.5t-28 -61.5q-6 -44 11.5 -71.5t50.5 -47.5l176 -109q43 -26 59 -57.5t13.5 -71.5t-15.5 -93l-22 2
q12 47 14.5 83t-8.5 63t-43 46l-176 110q-37 23 -57 46t-25.5 48.5t-1.5 55.5q7 47 30.5 70t63.5 30.5t96 6.5z" />
    <glyph glyph-name="dieresis" unicode="&#xa8;" horiz-adv-x="399" 
d="M177 678q6 0 8 -3t1 -9l-8 -53q-1 -7 -3.5 -10t-9.5 -3h-7q-11 0 -10 12l8 54q1 6 3.5 9t8.5 3h9zM354 678q6 0 8 -3t1 -9l-8 -53q-1 -7 -3.5 -10t-9.5 -3h-7q-11 0 -10 12l8 54q1 6 3.5 9t8.5 3h9z" />
    <glyph glyph-name="copyright" unicode="&#xa9;" horiz-adv-x="856" 
d="M484 702q100 0 174.5 -44.5t111.5 -125t22 -189.5q-14 -103 -66.5 -183t-138 -126t-199.5 -46q-74 0 -135.5 25.5t-104 72.5t-61.5 113t-8 148q14 103 67 183t139 126t199 46zM472 580q47 0 75.5 -2.5t56.5 -9.5l-5 -14q-31 4 -57.5 5t-68.5 1q-64 0 -105.5 -19.5
t-64.5 -66.5t-35 -128q-11 -77 -1.5 -123.5t44.5 -66.5t98 -20q32 0 56.5 0.5t45.5 2.5t41 5l3 -16q-31 -6 -63.5 -9t-80.5 -3q-72 0 -112.5 23t-52.5 74.5t0 136.5t37.5 135t71.5 72.5t117 22.5zM483 683q-107 0 -189 -44t-132 -120.5t-63 -175.5q-13 -102 22 -177.5
t105 -117t162 -41.5q108 0 189.5 44t131.5 120.5t63 175.5q14 103 -20.5 178t-104.5 116.5t-164 41.5z" />
    <glyph glyph-name="ordfeminine" unicode="&#xaa;" horiz-adv-x="444" 
d="M275 600q29 0 59 -2.5t62 -6.5l-8 -15q-36 2 -60 3.5t-50 1.5q-48 0 -81 -10.5t-52.5 -43t-29.5 -97.5q-9 -61 -4.5 -93t24.5 -43.5t55 -11.5q31 0 74 22t83 64l1 -18q-26 -29 -55 -48.5t-55.5 -29.5t-47.5 -10q-39 0 -64 12t-33.5 48.5t1.5 109.5q8 51 22 84t35.5 51.5
t52.5 25.5t71 7zM376 591h20l-46 -322h-16l9 74l-1 4z" />
    <glyph glyph-name="guillemotleft" unicode="&#xab;" horiz-adv-x="451" 
d="M394 454l12 -12l-176 -193l121 -193l-13 -10l-136 201l1 8zM236 454l12 -12l-176 -193l121 -193l-13 -10l-136 201l1 8z" />
    <glyph glyph-name="logicalnot" unicode="&#xac;" horiz-adv-x="591" 
d="M505 307l-4 -22h-416l3 22h417zM505 307l-25 -173h-23l24 165z" />
    <glyph glyph-name="uni00AD" unicode="&#xad;" horiz-adv-x="482" 
d="M392 262l-3 -22h-311l3 22h311z" />
    <glyph glyph-name="registered" unicode="&#xae;" horiz-adv-x="580" 
d="M338 701q70 0 117.5 -28.5t69.5 -79t13 -116.5q-8 -61 -40 -111t-83.5 -80t-119.5 -30q-65 0 -113 28.5t-72 80.5t-16 121q8 70 42.5 117.5t87 72.5t114.5 25zM251 620l-40 -283h-18l40 283h18zM338 685q-98 0 -157 -56.5t-70 -146.5q-7 -64 14.5 -111t66 -73t103.5 -26
q63 0 111 28t78 75.5t37 105.5q8 64 -12.5 109.5t-64.5 70t-106 24.5zM328 623q40 0 65 -5t36 -22t7 -53q-4 -39 -21.5 -54.5t-52.5 -20.5v-2q12 -3 20 -12t13 -28l24 -89h-19l-23 89q-5 20 -17 28t-30 8q-51 0 -72.5 0.5t-28 1t-12.5 0.5l2 12h105q46 1 68 13t27 57
q5 42 -15 52t-70 10h-35t-38.5 -0.5t-21.5 -0.5l-6 13q28 2 51 2.5t44 0.5z" />
    <glyph glyph-name="macron" unicode="&#xaf;" horiz-adv-x="400" 
d="M387 648l-3 -23h-260l3 23h260z" />
    <glyph glyph-name="degree" unicode="&#xb0;" horiz-adv-x="381" 
d="M242 702q36 0 62 -16t39.5 -44t9.5 -65q-6 -57 -46 -89.5t-90 -32.5q-38 0 -64 17.5t-37.5 46.5t-8.5 62q6 56 45.5 88.5t89.5 32.5zM242 683q-46 0 -78 -30t-37 -76q-4 -44 20.5 -73.5t69.5 -29.5q43 0 77 28.5t39 78.5q5 45 -20 73.5t-71 28.5z" />
    <glyph glyph-name="plusminus" unicode="&#xb1;" horiz-adv-x="597" 
d="M339 505l-45 -316h-21l43 316h23zM482 115l-4 -21h-417l4 21h417zM516 358l-4 -22h-417l4 22h417z" />
    <glyph glyph-name="uni00B2" unicode="&#xb2;" horiz-adv-x="364" 
d="M263 753q48 0 76.5 -16t28.5 -56q0 -33 -16.5 -62.5t-42 -56.5t-53.5 -54l-144 -135h32h32h170l-3 -18h-270l1 7q1 3 2.5 5t2.5 3l168 158q29 27 50 49.5t32.5 46.5t11.5 53q0 33 -21 44.5t-57 11.5q-28 0 -59 -4t-68 -13l-2 18q41 11 73 15t56 4z" />
    <glyph glyph-name="uni00B3" unicode="&#xb3;" horiz-adv-x="387" 
d="M245 753q58 0 86 -15.5t28 -54.5q0 -40 -18 -74t-55 -45v-2q29 -7 42 -26t13 -49q0 -45 -16 -76.5t-47 -47.5t-77 -16q-36 0 -68.5 5t-57.5 12l9 17q16 -4 35.5 -7t41.5 -4.5t44 -1.5q59 0 85.5 31t26.5 89q0 25 -16 43t-68 19l-83 1l3 18l85 2q51 2 73.5 32t22.5 75
q0 33 -20 44t-70 11q-27 0 -58 -5t-51 -10l-3 17q29 8 58.5 13t54.5 5z" />
    <glyph glyph-name="acute" unicode="&#xb4;" horiz-adv-x="277" 
d="M273 710l17 -19l-172 -141l-14 14z" />
    <glyph glyph-name="uni00B5" unicode="&#xb5;" horiz-adv-x="564" 
d="M149 480l-51 -359q-8 -57 12 -83.5t75 -26.5q47 0 97.5 23.5t90.5 67t54 104.5l-7 -70q-31 -51 -72 -84t-84 -48.5t-80 -15.5q-43 0 -69.5 15t-36.5 44.5t-4 72.5l51 360h24zM489 480l-55 -390q-4 -31 -0.5 -53t34.5 -22h44l1 -15q-10 -3 -24.5 -4.5t-28.5 -1.5
q-37 0 -45.5 24.5t-2.5 65.5l8 53l-1 20l46 323h24zM93 91l-28 -196l-19 -92h-17l49 342z" />
    <glyph glyph-name="paragraph" unicode="&#xb6;" horiz-adv-x="597" 
d="M399 702q30 0 71 -4.5t74 -12.5l-8 -18q-25 5 -57 7.5t-63.5 3.5t-53.5 1l-78 -479q-85 8 -135 42t-67.5 92t-5.5 136q14 96 50.5 146t102.5 68t170 18zM367 685l-126 -895h-25l126 895h25zM544 685l-97 -685h-25l97 685h25z" />
    <glyph glyph-name="periodcentered" unicode="&#xb7;" horiz-adv-x="205" 
d="M109 300q8 0 9.5 -3.5t0.5 -9.5l-9 -62q-1 -6 -4 -8.5t-9 -2.5h-10q-13 0 -11 13l9 61q2 12 13 12h11z" />
    <glyph glyph-name="cedilla" unicode="&#xb8;" horiz-adv-x="219" 
d="M61 -49q26 2 43 -5t24 -22t3 -40q-4 -33 -24.5 -58.5t-53.5 -37.5t-75 -7l5 15q53 -2 87.5 26t39.5 66q4 27 -7.5 37.5t-44.5 11.5z" />
    <glyph glyph-name="uni00B9" unicode="&#xb9;" horiz-adv-x="287" 
d="M238 747l-56 -392h-22l49 345q1 6 2.5 12.5t3.5 13.5l-115 -36l-2 15l118 42h22z" />
    <glyph glyph-name="ordmasculine" unicode="&#xba;" horiz-adv-x="446" 
d="M264 600q84 0 112.5 -38.5t15.5 -132.5q-9 -61 -28.5 -98t-54.5 -53t-89 -16q-83 0 -111.5 38.5t-15.5 132.5q13 92 51.5 129.5t119.5 37.5zM265 581q-47 0 -77 -14t-47 -47t-25 -91q-12 -84 11 -115.5t92 -31.5q71 0 104 33t45 118t-11 116.5t-92 31.5z" />
    <glyph glyph-name="guillemotright" unicode="&#xbb;" horiz-adv-x="449" 
d="M44 46l-12 12l176 193l-121 193l13 10l136 -201l-1 -8zM202 46l-12 12l176 193l-121 193l13 10l136 -201l-1 -8z" />
    <glyph glyph-name="onequarter" unicode="&#xbc;" horiz-adv-x="832" 
d="M680 690l-577 -690h-24l577 690h24zM251 690l-58 -414h-21l51 364q2 8 3 15.5t3 14.5l-129 -38l-2 14l132 44h21zM644 414l-184 -253q-7 -10 -2.5 -19t17.5 -9h285l-2 -15l-65 -3h-229q-14 0 -22.5 7.5t-10 19t6.5 22.5l183 250h23zM743 336l-47 -336h-21l38 266l14 70
h16z" />
    <glyph glyph-name="onehalf" unicode="&#xbd;" horiz-adv-x="860" 
d="M679 690l-577 -690h-24l577 690h24zM250 690l-58 -414h-21l51 364q2 8 3 15.5t3 14.5l-129 -38l-2 14l132 44h21zM665 421q44 0 73.5 -6.5t43.5 -24.5t8 -55q-5 -40 -32.5 -75.5t-81.5 -84.5l-176 -156q20 0 40 0.5t40 -0.5h187l-3 -19h-293l2 13q1 4 2.5 6.5t3.5 4.5
l180 160q53 48 79 84.5t30 73.5q5 41 -23.5 50.5t-75.5 9.5q-21 0 -41 -1t-42 -3.5t-51 -8.5l-4 16q50 11 78 13.5t56 2.5z" />
    <glyph glyph-name="threequarters" unicode="&#xbe;" horiz-adv-x="924" 
d="M786 690l-577 -690h-24l577 690h24zM245 695q80 0 108.5 -21t20.5 -76q-3 -24 -12.5 -46t-27.5 -37t-48 -20l-2 -2q47 -7 62 -36t10 -70q-5 -40 -21.5 -67t-49 -40t-84.5 -13q-36 0 -71 3t-67 7l4 16q20 -2 41 -3.5t43.5 -2.5t45.5 -1q64 0 97 24t40 82q4 24 -1.5 45
t-27.5 34t-69 13l-87 1l3 15l85 2q47 1 71 17t33.5 38.5t11.5 41.5q6 46 -17.5 61.5t-89.5 15.5q-33 0 -63 -2t-54 -5l-3 16q32 5 61 7.5t58 2.5zM735 414l-184 -253q-7 -10 -2.5 -19t17.5 -9h285l-2 -15l-65 -3h-229q-14 0 -22.5 7.5t-10 19t6.5 22.5l183 250h23zM824 336
l-47 -336h-21l38 266l14 70h16z" />
    <glyph glyph-name="questiondown" unicode="&#xbf;" horiz-adv-x="498" 
d="M267 286q-8 -57 -32.5 -96.5t-56.5 -69.5t-64 -57t-55.5 -58t-29.5 -74q-10 -67 26.5 -99t123.5 -32q51 0 83 1.5t58 5t60 7.5l5 -18q-25 -4 -45 -7t-41.5 -5.5t-49.5 -4t-69 -1.5q-97 0 -142 38.5t-34 118.5q6 46 30 78.5t56 60.5t64.5 57t57.5 66.5t32 90.5zM289 490
q7 0 9.5 -2.5t1.5 -9.5l-8 -62q-1 -7 -4 -9.5t-9 -2.5h-10q-12 0 -11 13l9 62q1 11 12 11h10z" />
    <glyph glyph-name="Agrave" unicode="&#xc0;" horiz-adv-x="599" 
d="M378 690q5 0 8.5 -2.5t4.5 -7.5l152 -680h-26l-135 613q-3 14 -5.5 27t-6.5 27h-29q-7 -14 -13.5 -28t-14.5 -28l-307 -611h-28l344 682q2 5 5.5 6.5t7.5 1.5h43zM474 274l-3 -22h-350l3 22h350zM271 895l129 -147l-14 -12l-134 141z" />
    <glyph glyph-name="Aacute" unicode="&#xc1;" horiz-adv-x="599" 
d="M378 690q5 0 8.5 -2.5t4.5 -7.5l152 -680h-26l-135 613q-3 14 -5.5 27t-6.5 27h-29q-7 -14 -13.5 -28t-14.5 -28l-307 -611h-28l344 682q2 5 5.5 6.5t7.5 1.5h43zM474 274l-3 -22h-350l3 22h350zM482 896l17 -19l-172 -141l-14 14z" />
    <glyph glyph-name="Acircumflex" unicode="&#xc2;" horiz-adv-x="599" 
d="M378 690q5 0 8.5 -2.5t4.5 -7.5l152 -680h-26l-135 613q-3 14 -5.5 27t-6.5 27h-29q-7 -14 -13.5 -28t-14.5 -28l-307 -611h-28l344 682q2 5 5.5 6.5t7.5 1.5h43zM474 274l-3 -22h-350l3 22h350zM388 880l121 -117l-12 -12l-115 102h-9l-145 -103l-10 13l152 117h18z" />
    <glyph glyph-name="Atilde" unicode="&#xc3;" horiz-adv-x="599" 
d="M378 690q5 0 8.5 -2.5t4.5 -7.5l152 -680h-26l-135 613q-3 14 -5.5 27t-6.5 27h-29q-7 -14 -13.5 -28t-14.5 -28l-307 -611h-28l344 682q2 5 5.5 6.5t7.5 1.5h43zM474 274l-3 -22h-350l3 22h350zM307 866q22 -2 37.5 -12t28.5 -22t28 -22t36 -12q32 -2 48.5 13.5
t20.5 50.5l17 -2q-4 -43 -27 -65t-58 -19q-25 2 -42 12t-30 22t-26.5 22t-31.5 12q-31 3 -48 -14t-22 -54l-17 2q5 46 28.5 68.5t57.5 19.5z" />
    <glyph glyph-name="Adieresis" unicode="&#xc4;" horiz-adv-x="599" 
d="M378 690q5 0 8.5 -2.5t4.5 -7.5l152 -680h-26l-135 613q-3 14 -5.5 27t-6.5 27h-29q-7 -14 -13.5 -28t-14.5 -28l-307 -611h-28l344 682q2 5 5.5 6.5t7.5 1.5h43zM474 274l-3 -22h-350l3 22h350zM293 856q6 0 8 -3t1 -9l-8 -53q-1 -7 -3.5 -10t-9.5 -3h-7q-11 0 -10 12
l8 54q1 6 3.5 9t8.5 3h9zM470 856q6 0 8 -3t1 -9l-8 -53q-1 -7 -3.5 -10t-9.5 -3h-7q-11 0 -10 12l8 54q1 6 3.5 9t8.5 3h9z" />
    <glyph glyph-name="Aring" unicode="&#xc5;" horiz-adv-x="599" 
d="M378 690q5 0 8.5 -2.5t4.5 -7.5l152 -680h-26l-135 613q-3 14 -5.5 27t-6.5 27h-29q-7 -14 -13.5 -28t-14.5 -28l-307 -611h-28l344 682q2 5 5.5 6.5t7.5 1.5h43zM474 274l-3 -22h-350l3 22h350zM380 909q41 0 64.5 -24t23.5 -61q0 -43 -31 -74t-75 -31q-41 0 -64.5 24
t-23.5 61q0 44 31 74.5t75 30.5zM380 890q-38 0 -61.5 -26t-23.5 -58q0 -28 17 -48t50 -20q40 0 62.5 27t22.5 61q0 26 -17.5 45t-49.5 19z" />
    <glyph glyph-name="AE" unicode="&#xc6;" horiz-adv-x="903" 
d="M629 690q94 0 156 -1t117 -3l-2 -18h-268q-37 0 -63 -22.5t-32 -60.5l-67 -482q-5 -36 14 -58.5t55 -22.5h270l-1 -18q-70 -3 -138 -3.5t-136 -0.5q-45 0 -70.5 29.5t-18.5 73.5l68 485q3 23 18 46t33 30h-4q-18 -7 -41 -25t-47 -48l-472 -591h-30l484 606q23 28 44 44.5
t42 25t43 11.5t46 3zM484 294l-4 -22h-277l17 22h264zM501 381l316 -1l-3 -20l-316 -1z" />
    <glyph glyph-name="Ccedilla" unicode="&#xc7;" 
d="M386 702q40 0 69.5 -2t54 -5.5t49.5 -9.5l-7 -18q-27 5 -51 7.5t-50.5 3.5t-63.5 1q-67 0 -114 -17.5t-79 -57t-52.5 -104t-33.5 -157.5q-17 -123 -6 -196t56.5 -104.5t130.5 -31.5q61 0 103 3t82 10l5 -18q-41 -9 -84 -13.5t-105 -4.5q-95 0 -146.5 34.5t-65 113.5
t4.5 211q14 98 37 166t58 109.5t86.5 60.5t121.5 19zM251 -61q26 2 43 -5t24 -22t3 -40q-4 -33 -24.5 -58.5t-53.5 -37.5t-75 -7l5 15q53 -2 87.5 26t39.5 66q4 27 -7.5 37.5t-44.5 11.5z" />
    <glyph glyph-name="Egrave" unicode="&#xc8;" horiz-adv-x="548" 
d="M252 690h99t98 -1t98 -3l-4 -18h-286q-41 0 -65.5 -22.5t-29.5 -60.5l-67 -482q-5 -36 14 -58.5t55 -22.5h288l1 -18q-49 -2 -98.5 -3t-98 -1h-97.5q-45 0 -70.5 29.5t-18.5 73.5l68 486q6 44 35.5 72.5t78.5 28.5zM126 381l336 -1l-3 -20l-336 -1zM277 920l129 -147
l-14 -12l-134 141z" />
    <glyph glyph-name="Eacute" unicode="&#xc9;" horiz-adv-x="548" 
d="M252 690h99t98 -1t98 -3l-4 -18h-286q-41 0 -65.5 -22.5t-29.5 -60.5l-67 -482q-5 -36 14 -58.5t55 -22.5h288l1 -18q-49 -2 -98.5 -3t-98 -1h-97.5q-45 0 -70.5 29.5t-18.5 73.5l68 486q6 44 35.5 72.5t78.5 28.5zM126 381l336 -1l-3 -20l-336 -1zM488 921l17 -19
l-172 -141l-14 14z" />
    <glyph glyph-name="Ecircumflex" unicode="&#xca;" horiz-adv-x="548" 
d="M252 690h99t98 -1t98 -3l-4 -18h-286q-41 0 -65.5 -22.5t-29.5 -60.5l-67 -482q-5 -36 14 -58.5t55 -22.5h288l1 -18q-49 -2 -98.5 -3t-98 -1h-97.5q-45 0 -70.5 29.5t-18.5 73.5l68 486q6 44 35.5 72.5t78.5 28.5zM126 381l336 -1l-3 -20l-336 -1zM394 905l121 -117
l-12 -12l-115 102h-9l-145 -103l-10 13l152 117h18z" />
    <glyph glyph-name="Edieresis" unicode="&#xcb;" horiz-adv-x="548" 
d="M252 690h99t98 -1t98 -3l-4 -18h-286q-41 0 -65.5 -22.5t-29.5 -60.5l-67 -482q-5 -36 14 -58.5t55 -22.5h288l1 -18q-49 -2 -98.5 -3t-98 -1h-97.5q-45 0 -70.5 29.5t-18.5 73.5l68 486q6 44 35.5 72.5t78.5 28.5zM126 381l336 -1l-3 -20l-336 -1zM299 881q6 0 8 -3
t1 -9l-8 -53q-1 -7 -3.5 -10t-9.5 -3h-7q-11 0 -10 12l8 54q1 6 3.5 9t8.5 3h9zM476 881q6 0 8 -3t1 -9l-8 -53q-1 -7 -3.5 -10t-9.5 -3h-7q-11 0 -10 12l8 54q1 6 3.5 9t8.5 3h9z" />
    <glyph glyph-name="Igrave" unicode="&#xcc;" horiz-adv-x="231" 
d="M184 690l-97 -690h-25l97 690h25zM88 895l129 -147l-14 -12l-134 141z" />
    <glyph glyph-name="Iacute" unicode="&#xcd;" horiz-adv-x="231" 
d="M184 690l-97 -690h-25l97 690h25zM299 896l17 -19l-172 -141l-14 14z" />
    <glyph glyph-name="Icircumflex" unicode="&#xce;" horiz-adv-x="231" 
d="M184 690l-97 -690h-25l97 690h25zM205 880l121 -117l-12 -12l-115 102h-9l-145 -103l-10 13l152 117h18z" />
    <glyph glyph-name="Idieresis" unicode="&#xcf;" horiz-adv-x="231" 
d="M184 690l-97 -690h-25l97 690h25zM110 856q6 0 8 -3t1 -9l-8 -53q-1 -7 -3.5 -10t-9.5 -3h-7q-11 0 -10 12l8 54q1 6 3.5 9t8.5 3h9zM287 856q6 0 8 -3t1 -9l-8 -53q-1 -7 -3.5 -10t-9.5 -3h-7q-11 0 -10 12l8 54q1 6 3.5 9t8.5 3h9z" />
    <glyph glyph-name="Eth" unicode="&#xd0;" horiz-adv-x="658" 
d="M321 381l-3 -20h-288l3 20h288zM388 699q93 0 143.5 -34.5t63.5 -112.5t-5 -209q-13 -99 -36 -166.5t-57.5 -108.5t-85 -59t-119.5 -18q-67 0 -123.5 2.5t-106.5 6.5l15 17q48 -1 99.5 -2t114.5 -1t108.5 17t78 55t53.5 102.5t34 158.5q13 92 10 155t-24 101t-61 55.5
t-102 17.5q-43 0 -81 -0.5t-72 -1.5t-67 -2l-9 18q34 3 70.5 5t76 3t82.5 1zM184 690l-97 -690h-25l97 690h25z" />
    <glyph glyph-name="Ntilde" unicode="&#xd1;" horiz-adv-x="688" 
d="M641 690l-95 -676q-1 -7 -4.5 -10.5t-11.5 -3.5h-41q-6 0 -10.5 3t-6.5 9l-238 589q-7 17 -14 33.5t-14 33.5h-25q-3 -19 -5.5 -38.5t-5.5 -39.5l-83 -590h-25l95 676q2 8 5.5 11t10.5 3h38q6 0 11 -3t7 -9l233 -576q8 -20 16 -40.5t16 -40.5h28q3 21 6 42.5t6 42.5
l82 584h25zM362 866q22 -2 37.5 -12t28.5 -22t28 -22t36 -12q32 -2 48.5 13.5t20.5 50.5l17 -2q-4 -43 -27 -65t-58 -19q-25 2 -42 12t-30 22t-26.5 22t-31.5 12q-31 3 -48 -14t-22 -54l-17 2q5 46 28.5 68.5t57.5 19.5z" />
    <glyph glyph-name="Ograve" unicode="&#xd2;" horiz-adv-x="660" 
d="M386 702q95 0 146.5 -34.5t65 -113.5t-5.5 -211q-13 -98 -36 -166t-58 -109.5t-86 -60.5t-122 -19q-95 0 -146.5 34.5t-65 113.5t4.5 211q14 98 37 166t58 109.5t86.5 60.5t121.5 19zM386 679q-87 0 -142 -32t-86.5 -105.5t-49.5 -198.5q-17 -123 -5.5 -196t57 -104.5
t129.5 -31.5q87 0 142 32t87 106t49 198q18 124 7 196.5t-56 104t-132 31.5zM299 895l129 -147l-14 -12l-134 141z" />
    <glyph glyph-name="Oacute" unicode="&#xd3;" horiz-adv-x="660" 
d="M386 702q95 0 146.5 -34.5t65 -113.5t-5.5 -211q-13 -98 -36 -166t-58 -109.5t-86 -60.5t-122 -19q-95 0 -146.5 34.5t-65 113.5t4.5 211q14 98 37 166t58 109.5t86.5 60.5t121.5 19zM386 679q-87 0 -142 -32t-86.5 -105.5t-49.5 -198.5q-17 -123 -5.5 -196t57 -104.5
t129.5 -31.5q87 0 142 32t87 106t49 198q18 124 7 196.5t-56 104t-132 31.5zM510 896l17 -19l-172 -141l-14 14z" />
    <glyph glyph-name="Ocircumflex" unicode="&#xd4;" horiz-adv-x="660" 
d="M386 702q95 0 146.5 -34.5t65 -113.5t-5.5 -211q-13 -98 -36 -166t-58 -109.5t-86 -60.5t-122 -19q-95 0 -146.5 34.5t-65 113.5t4.5 211q14 98 37 166t58 109.5t86.5 60.5t121.5 19zM386 679q-87 0 -142 -32t-86.5 -105.5t-49.5 -198.5q-17 -123 -5.5 -196t57 -104.5
t129.5 -31.5q87 0 142 32t87 106t49 198q18 124 7 196.5t-56 104t-132 31.5zM416 880l121 -117l-12 -12l-115 102h-9l-145 -103l-10 13l152 117h18z" />
    <glyph glyph-name="Otilde" unicode="&#xd5;" horiz-adv-x="660" 
d="M386 702q95 0 146.5 -34.5t65 -113.5t-5.5 -211q-13 -98 -36 -166t-58 -109.5t-86 -60.5t-122 -19q-95 0 -146.5 34.5t-65 113.5t4.5 211q14 98 37 166t58 109.5t86.5 60.5t121.5 19zM386 679q-87 0 -142 -32t-86.5 -105.5t-49.5 -198.5q-17 -123 -5.5 -196t57 -104.5
t129.5 -31.5q87 0 142 32t87 106t49 198q18 124 7 196.5t-56 104t-132 31.5zM335 866q22 -2 37.5 -12t28.5 -22t28 -22t36 -12q32 -2 48.5 13.5t20.5 50.5l17 -2q-4 -43 -27 -65t-58 -19q-25 2 -42 12t-30 22t-26.5 22t-31.5 12q-31 3 -48 -14t-22 -54l-17 2q5 46 28.5 68.5
t57.5 19.5z" />
    <glyph glyph-name="Odieresis" unicode="&#xd6;" horiz-adv-x="660" 
d="M386 702q95 0 146.5 -34.5t65 -113.5t-5.5 -211q-13 -98 -36 -166t-58 -109.5t-86 -60.5t-122 -19q-95 0 -146.5 34.5t-65 113.5t4.5 211q14 98 37 166t58 109.5t86.5 60.5t121.5 19zM386 679q-87 0 -142 -32t-86.5 -105.5t-49.5 -198.5q-17 -123 -5.5 -196t57 -104.5
t129.5 -31.5q87 0 142 32t87 106t49 198q18 124 7 196.5t-56 104t-132 31.5zM321 856q6 0 8 -3t1 -9l-8 -53q-1 -7 -3.5 -10t-9.5 -3h-7q-11 0 -10 12l8 54q1 6 3.5 9t8.5 3h9zM498 856q6 0 8 -3t1 -9l-8 -53q-1 -7 -3.5 -10t-9.5 -3h-7q-11 0 -10 12l8 54q1 6 3.5 9t8.5 3
h9z" />
    <glyph glyph-name="multiply" unicode="&#xd7;" horiz-adv-x="526" 
d="M451 454l15 -17l-395 -315l-14 18zM118 452l305 -313l-16 -17l-305 314z" />
    <glyph glyph-name="Oslash" unicode="&#xd8;" horiz-adv-x="660" 
d="M565 741l20 -10l-477 -782l-19 10zM386 702q95 0 146.5 -34.5t65 -113.5t-5.5 -211q-13 -98 -36 -166t-58 -109.5t-86 -60.5t-122 -19q-95 0 -146.5 34.5t-65 113.5t4.5 211q14 98 37 166t58 109.5t86.5 60.5t121.5 19zM386 679q-87 0 -142 -32t-86.5 -105.5
t-49.5 -198.5q-17 -123 -5.5 -196t57 -104.5t129.5 -31.5q87 0 142 32t87 106t49 198q18 124 7 196.5t-56 104t-132 31.5z" />
    <glyph glyph-name="Ugrave" unicode="&#xd9;" horiz-adv-x="667" 
d="M625 690l-61 -436q-13 -96 -44 -154.5t-85.5 -85t-140.5 -26.5q-87 0 -135.5 27t-63.5 86t-2 155l61 434h25l-61 -436q-12 -89 0.5 -142.5t55.5 -77t119 -23.5q77 0 127 24t78.5 78t40.5 143l61 434h25zM299 895l129 -147l-14 -12l-134 141z" />
    <glyph glyph-name="Uacute" unicode="&#xda;" horiz-adv-x="667" 
d="M625 690l-61 -436q-13 -96 -44 -154.5t-85.5 -85t-140.5 -26.5q-87 0 -135.5 27t-63.5 86t-2 155l61 434h25l-61 -436q-12 -89 0.5 -142.5t55.5 -77t119 -23.5q77 0 127 24t78.5 78t40.5 143l61 434h25zM510 896l17 -19l-172 -141l-14 14z" />
    <glyph glyph-name="Ucircumflex" unicode="&#xdb;" horiz-adv-x="667" 
d="M625 690l-61 -436q-13 -96 -44 -154.5t-85.5 -85t-140.5 -26.5q-87 0 -135.5 27t-63.5 86t-2 155l61 434h25l-61 -436q-12 -89 0.5 -142.5t55.5 -77t119 -23.5q77 0 127 24t78.5 78t40.5 143l61 434h25zM416 880l121 -117l-12 -12l-115 102h-9l-145 -103l-10 13l152 117
h18z" />
    <glyph glyph-name="Udieresis" unicode="&#xdc;" horiz-adv-x="667" 
d="M625 690l-61 -436q-13 -96 -44 -154.5t-85.5 -85t-140.5 -26.5q-87 0 -135.5 27t-63.5 86t-2 155l61 434h25l-61 -436q-12 -89 0.5 -142.5t55.5 -77t119 -23.5q77 0 127 24t78.5 78t40.5 143l61 434h25zM321 856q6 0 8 -3t1 -9l-8 -53q-1 -7 -3.5 -10t-9.5 -3h-7
q-11 0 -10 12l8 54q1 6 3.5 9t8.5 3h9zM498 856q6 0 8 -3t1 -9l-8 -53q-1 -7 -3.5 -10t-9.5 -3h-7q-11 0 -10 12l8 54q1 6 3.5 9t8.5 3h9z" />
    <glyph glyph-name="Yacute" unicode="&#xdd;" horiz-adv-x="535" 
d="M569 690l-300 -440l-18 1l-178 439h26l134 -334q7 -16 14 -34t14 -35h6q11 17 24 35.5t23 34.5l227 333h28zM277 281l-40 -281h-25l40 281h25zM444 896l17 -19l-172 -141l-14 14z" />
    <glyph glyph-name="Thorn" unicode="&#xde;" horiz-adv-x="582" 
d="M360 555q74 0 115.5 -18t55 -62.5t1.5 -124.5q-11 -79 -36 -123t-70.5 -61t-118.5 -17q-54 0 -97.5 1t-73 2t-40.5 2l3 18h102.5h104.5q65 1 105.5 16t63 54t32.5 112q10 71 -1.5 109.5t-46.5 53.5t-98 15q-76 0 -132 -0.5t-76 -2.5l-14 18q36 4 67 5.5t67 2t87 0.5z
M185 690l-97 -690h-25l97 690h25z" />
    <glyph glyph-name="germandbls" unicode="&#xdf;" horiz-adv-x="646" 
d="M376 712q72 0 117 -9.5t65.5 -34t17.5 -69.5q-2 -40 -18.5 -64.5t-42.5 -39t-57 -24.5q-41 -13 -73.5 -23.5t-51.5 -28.5t-22 -56q-2 -28 9 -45.5t45 -33.5l128 -60q47 -22 67 -47t13 -77q-6 -50 -31 -73.5t-64.5 -30.5t-90.5 -7q-23 0 -63 2t-91 9l3 18q44 -4 84 -6
t77 -1q45 1 77 8t51 26.5t24 58.5q5 34 -4 52t-24.5 27.5t-32.5 17.5l-126 60q-42 21 -60 43.5t-14 62.5q5 42 28 63.5t59.5 34.5t80.5 27q16 5 38.5 15.5t40.5 33t20 62.5q2 28 -10.5 47.5t-48.5 29.5t-108 10q-71 0 -114 -13t-65 -47.5t-31 -99.5l-86 -608
q-7 -47 -22.5 -76.5t-43.5 -42.5t-72 -13q-10 0 -36.5 1t-45.5 3l1 18h79q56 0 81.5 25.5t34.5 86.5l86 608q9 63 29.5 99t50 53.5t66 22.5t76.5 5zM164 480l-4 -22h-104l3 17l94 5h11z" />
    <glyph glyph-name="agrave" unicode="&#xe0;" horiz-adv-x="564" 
d="M319 492q22 0 43.5 -1t44 -2.5t45 -3.5t46.5 -5l-10 -18q-54 3 -90.5 5.5t-75.5 2.5q-61 0 -100 -9.5t-63.5 -34.5t-39 -70.5t-25.5 -117.5q-12 -79 -10 -129.5t25 -74t73 -23.5q33 0 75.5 16.5t88 49t86.5 78.5v-27q-42 -48 -88.5 -79t-88.5 -46t-73 -15
q-61 0 -89.5 27.5t-32.5 83.5t10 143q12 75 28.5 123.5t43 76.5t69.5 39t108 11zM473 480h25l-68 -480h-18l15 122l-2 4zM237 713l129 -147l-14 -12l-134 141z" />
    <glyph glyph-name="aacute" unicode="&#xe1;" horiz-adv-x="564" 
d="M319 492q22 0 43.5 -1t44 -2.5t45 -3.5t46.5 -5l-10 -18q-54 3 -90.5 5.5t-75.5 2.5q-61 0 -100 -9.5t-63.5 -34.5t-39 -70.5t-25.5 -117.5q-12 -79 -10 -129.5t25 -74t73 -23.5q33 0 75.5 16.5t88 49t86.5 78.5v-27q-42 -48 -88.5 -79t-88.5 -46t-73 -15
q-61 0 -89.5 27.5t-32.5 83.5t10 143q12 75 28.5 123.5t43 76.5t69.5 39t108 11zM473 480h25l-68 -480h-18l15 122l-2 4zM448 714l17 -19l-172 -141l-14 14z" />
    <glyph glyph-name="acircumflex" unicode="&#xe2;" horiz-adv-x="564" 
d="M319 492q22 0 43.5 -1t44 -2.5t45 -3.5t46.5 -5l-10 -18q-54 3 -90.5 5.5t-75.5 2.5q-61 0 -100 -9.5t-63.5 -34.5t-39 -70.5t-25.5 -117.5q-12 -79 -10 -129.5t25 -74t73 -23.5q33 0 75.5 16.5t88 49t86.5 78.5v-27q-42 -48 -88.5 -79t-88.5 -46t-73 -15
q-61 0 -89.5 27.5t-32.5 83.5t10 143q12 75 28.5 123.5t43 76.5t69.5 39t108 11zM473 480h25l-68 -480h-18l15 122l-2 4zM354 698l121 -117l-12 -12l-115 102h-9l-145 -103l-10 13l152 117h18z" />
    <glyph glyph-name="atilde" unicode="&#xe3;" horiz-adv-x="564" 
d="M319 492q22 0 43.5 -1t44 -2.5t45 -3.5t46.5 -5l-10 -18q-54 3 -90.5 5.5t-75.5 2.5q-61 0 -100 -9.5t-63.5 -34.5t-39 -70.5t-25.5 -117.5q-12 -79 -10 -129.5t25 -74t73 -23.5q33 0 75.5 16.5t88 49t86.5 78.5v-27q-42 -48 -88.5 -79t-88.5 -46t-73 -15
q-61 0 -89.5 27.5t-32.5 83.5t10 143q12 75 28.5 123.5t43 76.5t69.5 39t108 11zM473 480h25l-68 -480h-18l15 122l-2 4zM273 684q22 -2 37.5 -12t28.5 -22t28 -22t36 -12q32 -2 48.5 13.5t20.5 50.5l17 -2q-4 -43 -27 -65t-58 -19q-25 2 -42 12t-30 22t-26.5 22t-31.5 12
q-31 3 -48 -14t-22 -54l-17 2q5 46 28.5 68.5t57.5 19.5z" />
    <glyph glyph-name="adieresis" unicode="&#xe4;" horiz-adv-x="564" 
d="M319 492q22 0 43.5 -1t44 -2.5t45 -3.5t46.5 -5l-10 -18q-54 3 -90.5 5.5t-75.5 2.5q-61 0 -100 -9.5t-63.5 -34.5t-39 -70.5t-25.5 -117.5q-12 -79 -10 -129.5t25 -74t73 -23.5q33 0 75.5 16.5t88 49t86.5 78.5v-27q-42 -48 -88.5 -79t-88.5 -46t-73 -15
q-61 0 -89.5 27.5t-32.5 83.5t10 143q12 75 28.5 123.5t43 76.5t69.5 39t108 11zM473 480h25l-68 -480h-18l15 122l-2 4zM259 674q6 0 8 -3t1 -9l-8 -53q-1 -7 -3.5 -10t-9.5 -3h-7q-11 0 -10 12l8 54q1 6 3.5 9t8.5 3h9zM436 674q6 0 8 -3t1 -9l-8 -53q-1 -7 -3.5 -10
t-9.5 -3h-7q-11 0 -10 12l8 54q1 6 3.5 9t8.5 3h9z" />
    <glyph glyph-name="aring" unicode="&#xe5;" horiz-adv-x="564" 
d="M319 492q22 0 43.5 -1t44 -2.5t45 -3.5t46.5 -5l-10 -18q-54 3 -90.5 5.5t-75.5 2.5q-61 0 -100 -9.5t-63.5 -34.5t-39 -70.5t-25.5 -117.5q-12 -79 -10 -129.5t25 -74t73 -23.5q33 0 75.5 16.5t88 49t86.5 78.5v-27q-42 -48 -88.5 -79t-88.5 -46t-73 -15
q-61 0 -89.5 27.5t-32.5 83.5t10 143q12 75 28.5 123.5t43 76.5t69.5 39t108 11zM473 480h25l-68 -480h-18l15 122l-2 4zM346 727q41 0 64.5 -24t23.5 -61q0 -43 -31 -74t-75 -31q-41 0 -64.5 24t-23.5 61q0 44 31 74.5t75 30.5zM346 708q-38 0 -61.5 -26t-23.5 -58
q0 -28 17 -48t50 -20q40 0 62.5 27t22.5 61q0 26 -17.5 45t-49.5 19z" />
    <glyph glyph-name="ae" unicode="&#xe6;" horiz-adv-x="872" 
d="M312 492q37 0 71.5 -3t69.5 -7.5t72 -11.5l-20 -18q-41 5 -71 9t-57.5 6.5t-62.5 2.5q-60 0 -98.5 -10.5t-62.5 -36.5t-37.5 -71t-24.5 -114q-11 -76 -10 -126.5t22 -75.5t68 -25q35 0 75.5 16t83 48.5t82.5 80.5v-27q-38 -46 -79.5 -77.5t-82.5 -47.5t-80 -16
q-59 0 -85 31t-28 88t10 135q12 75 28.5 124t43.5 76.5t69 38.5t104 11zM654 492q58 0 99.5 -12t59 -43.5t2.5 -92.5q-9 -39 -27.5 -62t-50 -34t-81.5 -17l-243 -26l3 21l241 27q44 6 70 15t41 27.5t23 50.5q15 55 0 81t-50 34.5t-80 8.5q-53 0 -91.5 -8t-65.5 -31.5
t-44.5 -69t-29.5 -120.5q-14 -92 -3.5 -142t50 -69.5t111.5 -19.5q29 0 62 2t63 5.5t51 6.5l3 -18q-18 -5 -52.5 -9t-72 -6.5t-64.5 -2.5q-79 0 -121.5 25.5t-53.5 81.5t3 149q12 78 32 126.5t50 75t71 36.5t95 10z" />
    <glyph glyph-name="ccedilla" unicode="&#xe7;" horiz-adv-x="475" 
d="M313 492q28 0 66 -3.5t68 -13.5l-7 -18q-25 7 -62 9.5t-60 2.5q-73 0 -119.5 -20.5t-73 -70.5t-39.5 -139q-12 -88 0 -138t52 -70t112 -20q15 0 39 1t51.5 4t50.5 7l3 -18q-34 -7 -72.5 -12t-73.5 -5q-80 0 -125.5 25t-60 80.5t-1.5 148.5q13 92 42 147t80 79t130 24z
M206 -61q26 2 43 -5t24 -22t3 -40q-4 -33 -24.5 -58.5t-53.5 -37.5t-75 -7l5 15q53 -2 87.5 26t39.5 66q4 27 -7.5 37.5t-44.5 11.5z" />
    <glyph glyph-name="egrave" unicode="&#xe8;" horiz-adv-x="526" 
d="M310 492q58 0 99.5 -12t59 -43.5t2.5 -92.5q-9 -39 -27.5 -62t-50 -34t-81.5 -17l-243 -26l3 21l241 27q44 6 70 15t41 27.5t23 50.5q15 55 0 81t-50 34.5t-80 8.5q-53 0 -91.5 -8t-65.5 -31.5t-44.5 -69t-29.5 -120.5q-14 -92 -4 -142t50 -69.5t112 -19.5q29 0 62 2
t63 5.5t51 6.5l3 -18q-18 -5 -52.5 -9t-72 -6.5t-64.5 -2.5q-79 0 -121 25.5t-53.5 81.5t2.5 149q12 78 32 126.5t50 75t71 36.5t95 10zM225 713l129 -147l-14 -12l-134 141z" />
    <glyph glyph-name="eacute" unicode="&#xe9;" horiz-adv-x="526" 
d="M310 492q58 0 99.5 -12t59 -43.5t2.5 -92.5q-9 -39 -27.5 -62t-50 -34t-81.5 -17l-243 -26l3 21l241 27q44 6 70 15t41 27.5t23 50.5q15 55 0 81t-50 34.5t-80 8.5q-53 0 -91.5 -8t-65.5 -31.5t-44.5 -69t-29.5 -120.5q-14 -92 -4 -142t50 -69.5t112 -19.5q29 0 62 2
t63 5.5t51 6.5l3 -18q-18 -5 -52.5 -9t-72 -6.5t-64.5 -2.5q-79 0 -121 25.5t-53.5 81.5t2.5 149q12 78 32 126.5t50 75t71 36.5t95 10zM436 714l17 -19l-172 -141l-14 14z" />
    <glyph glyph-name="ecircumflex" unicode="&#xea;" horiz-adv-x="526" 
d="M310 492q58 0 99.5 -12t59 -43.5t2.5 -92.5q-9 -39 -27.5 -62t-50 -34t-81.5 -17l-243 -26l3 21l241 27q44 6 70 15t41 27.5t23 50.5q15 55 0 81t-50 34.5t-80 8.5q-53 0 -91.5 -8t-65.5 -31.5t-44.5 -69t-29.5 -120.5q-14 -92 -4 -142t50 -69.5t112 -19.5q29 0 62 2
t63 5.5t51 6.5l3 -18q-18 -5 -52.5 -9t-72 -6.5t-64.5 -2.5q-79 0 -121 25.5t-53.5 81.5t2.5 149q12 78 32 126.5t50 75t71 36.5t95 10zM342 698l121 -117l-12 -12l-115 102h-9l-145 -103l-10 13l152 117h18z" />
    <glyph glyph-name="edieresis" unicode="&#xeb;" horiz-adv-x="526" 
d="M310 492q58 0 99.5 -12t59 -43.5t2.5 -92.5q-9 -39 -27.5 -62t-50 -34t-81.5 -17l-243 -26l3 21l241 27q44 6 70 15t41 27.5t23 50.5q15 55 0 81t-50 34.5t-80 8.5q-53 0 -91.5 -8t-65.5 -31.5t-44.5 -69t-29.5 -120.5q-14 -92 -4 -142t50 -69.5t112 -19.5q29 0 62 2
t63 5.5t51 6.5l3 -18q-18 -5 -52.5 -9t-72 -6.5t-64.5 -2.5q-79 0 -121 25.5t-53.5 81.5t2.5 149q12 78 32 126.5t50 75t71 36.5t95 10zM247 674q6 0 8 -3t1 -9l-8 -53q-1 -7 -3.5 -10t-9.5 -3h-7q-11 0 -10 12l8 54q1 6 3.5 9t8.5 3h9zM424 674q6 0 8 -3t1 -9l-8 -53
q-1 -7 -3.5 -10t-9.5 -3h-7q-11 0 -10 12l8 54q1 6 3.5 9t8.5 3h9z" />
    <glyph glyph-name="igrave" unicode="&#xec;" horiz-adv-x="218" 
d="M148 480l-68 -480h-24l68 480h24zM56 713l129 -147l-14 -12l-134 141z" />
    <glyph glyph-name="iacute" unicode="&#xed;" horiz-adv-x="218" 
d="M148 480l-68 -480h-24l68 480h24zM267 714l17 -19l-172 -141l-14 14z" />
    <glyph glyph-name="icircumflex" unicode="&#xee;" horiz-adv-x="218" 
d="M148 480l-68 -480h-24l68 480h24zM173 698l121 -117l-12 -12l-115 102h-9l-145 -103l-10 13l152 117h18z" />
    <glyph glyph-name="idieresis" unicode="&#xef;" horiz-adv-x="218" 
d="M148 480l-68 -480h-24l68 480h24zM78 674q6 0 8 -3t1 -9l-8 -53q-1 -7 -3.5 -10t-9.5 -3h-7q-11 0 -10 12l8 54q1 6 3.5 9t8.5 3h9zM255 674q6 0 8 -3t1 -9l-8 -53q-1 -7 -3.5 -10t-9.5 -3h-7q-11 0 -10 12l8 54q1 6 3.5 9t8.5 3h9z" />
    <glyph glyph-name="eth" unicode="&#xf0;" horiz-adv-x="545" 
d="M176 698q38 1 83 -7t87.5 -32t74.5 -70.5t45 -122.5t-3 -189q-8 -55 -20.5 -107t-37 -93t-67 -65t-110.5 -24t-110 24.5t-56.5 76.5t-2.5 134q14 102 66 162.5t158 60.5q22 0 46.5 -4t49.5 -15t47.5 -32.5t39.5 -56.5l-7 -15q-22 44 -52.5 65.5t-63.5 28.5t-64 7
q-65 0 -105 -27t-61.5 -73.5t-29.5 -105.5q-16 -114 20.5 -161t123.5 -47q77 0 119 35t63 98t32 145q15 110 1.5 181.5t-45.5 114t-73 63.5t-82 27t-72 6zM469 698l9 -17l-210 -132l-8 17z" />
    <glyph glyph-name="ntilde" unicode="&#xf1;" horiz-adv-x="567" 
d="M374 492q43 0 70 -15t38 -44.5t5 -72.5l-51 -360h-24l51 359q8 59 -15 84.5t-78 25.5q-53 0 -111.5 -33t-137.5 -97l1 23q71 59 133.5 94.5t118.5 35.5zM138 480l-15 -120l1 -18l-48 -342h-24l68 480h18zM258 684q22 -2 37.5 -12t28.5 -22t28 -22t36 -12q32 -2 48.5 13.5
t20.5 50.5l17 -2q-4 -43 -27 -65t-58 -19q-25 2 -42 12t-30 22t-26.5 22t-31.5 12q-31 3 -48 -14t-22 -54l-17 2q5 46 28.5 68.5t57.5 19.5z" />
    <glyph glyph-name="ograve" unicode="&#xf2;" 
d="M304 492q78 0 121 -25t56 -80.5t0 -148.5q-13 -92 -40.5 -147t-76.5 -79t-126 -24q-78 0 -121 25t-56 80.5t0 148.5q13 92 40.5 147t76.5 79t126 24zM304 469q-68 0 -112 -21.5t-69 -72t-37 -137.5q-12 -86 -1.5 -135.5t48 -70.5t105.5 -21t112 21.5t69 72t37 137.5
q12 86 1.5 135.5t-48 70.5t-105.5 21zM225 713l129 -147l-14 -12l-134 141z" />
    <glyph glyph-name="oacute" unicode="&#xf3;" 
d="M304 492q78 0 121 -25t56 -80.5t0 -148.5q-13 -92 -40.5 -147t-76.5 -79t-126 -24q-78 0 -121 25t-56 80.5t0 148.5q13 92 40.5 147t76.5 79t126 24zM304 469q-68 0 -112 -21.5t-69 -72t-37 -137.5q-12 -86 -1.5 -135.5t48 -70.5t105.5 -21t112 21.5t69 72t37 137.5
q12 86 1.5 135.5t-48 70.5t-105.5 21zM436 714l17 -19l-172 -141l-14 14z" />
    <glyph glyph-name="ocircumflex" unicode="&#xf4;" 
d="M304 492q78 0 121 -25t56 -80.5t0 -148.5q-13 -92 -40.5 -147t-76.5 -79t-126 -24q-78 0 -121 25t-56 80.5t0 148.5q13 92 40.5 147t76.5 79t126 24zM304 469q-68 0 -112 -21.5t-69 -72t-37 -137.5q-12 -86 -1.5 -135.5t48 -70.5t105.5 -21t112 21.5t69 72t37 137.5
q12 86 1.5 135.5t-48 70.5t-105.5 21zM342 698l121 -117l-12 -12l-115 102h-9l-145 -103l-10 13l152 117h18z" />
    <glyph glyph-name="otilde" unicode="&#xf5;" 
d="M304 492q78 0 121 -25t56 -80.5t0 -148.5q-13 -92 -40.5 -147t-76.5 -79t-126 -24q-78 0 -121 25t-56 80.5t0 148.5q13 92 40.5 147t76.5 79t126 24zM304 469q-68 0 -112 -21.5t-69 -72t-37 -137.5q-12 -86 -1.5 -135.5t48 -70.5t105.5 -21t112 21.5t69 72t37 137.5
q12 86 1.5 135.5t-48 70.5t-105.5 21zM261 684q22 -2 37.5 -12t28.5 -22t28 -22t36 -12q32 -2 48.5 13.5t20.5 50.5l17 -2q-4 -43 -27 -65t-58 -19q-25 2 -42 12t-30 22t-26.5 22t-31.5 12q-31 3 -48 -14t-22 -54l-17 2q5 46 28.5 68.5t57.5 19.5z" />
    <glyph glyph-name="odieresis" unicode="&#xf6;" 
d="M304 492q78 0 121 -25t56 -80.5t0 -148.5q-13 -92 -40.5 -147t-76.5 -79t-126 -24q-78 0 -121 25t-56 80.5t0 148.5q13 92 40.5 147t76.5 79t126 24zM304 469q-68 0 -112 -21.5t-69 -72t-37 -137.5q-12 -86 -1.5 -135.5t48 -70.5t105.5 -21t112 21.5t69 72t37 137.5
q12 86 1.5 135.5t-48 70.5t-105.5 21zM247 674q6 0 8 -3t1 -9l-8 -53q-1 -7 -3.5 -10t-9.5 -3h-7q-11 0 -10 12l8 54q1 6 3.5 9t8.5 3h9zM424 674q6 0 8 -3t1 -9l-8 -53q-1 -7 -3.5 -10t-9.5 -3h-7q-11 0 -10 12l8 54q1 6 3.5 9t8.5 3h9z" />
    <glyph glyph-name="divide" unicode="&#xf7;" horiz-adv-x="589" 
d="M505 307l-3 -22h-417l3 22h417zM283 175q6 0 8.5 -3t1.5 -10l-9 -62q-1 -6 -4 -8.5t-9 -2.5h-10q-7 0 -9.5 3t-1.5 10l9 61q1 6 4 9t9 3h11zM327 502q7 -1 9.5 -4t1.5 -9l-9 -62q-1 -6 -4 -8.5t-9 -2.5h-10q-7 0 -9.5 3t-1.5 10l9 61q1 6 4 9t9 3h10z" />
    <glyph glyph-name="oslash" unicode="&#xf8;" 
d="M445 539l18 -9l-359 -591l-18 9zM304 492q78 0 121 -25t56 -80.5t0 -148.5q-13 -92 -40.5 -147t-76.5 -79t-126 -24q-78 0 -121 25t-56 80.5t0 148.5q13 92 40.5 147t76.5 79t126 24zM304 469q-68 0 -112 -21.5t-69 -72t-37 -137.5q-12 -86 -1.5 -135.5t48 -70.5
t105.5 -21t112 21.5t69 72t37 137.5q12 86 1.5 135.5t-48 70.5t-105.5 21z" />
    <glyph glyph-name="ugrave" unicode="&#xf9;" horiz-adv-x="556" 
d="M140 480l-51 -359q-8 -57 15 -83.5t78 -26.5q54 0 110.5 36.5t129.5 106.5l1 -24q-69 -70 -130.5 -106t-114.5 -36q-64 0 -93.5 34t-19.5 98l51 360h24zM490 480l-68 -480h-18l16 131l-1 16l47 333h24zM221 713l129 -147l-14 -12l-134 141z" />
    <glyph glyph-name="uacute" unicode="&#xfa;" horiz-adv-x="556" 
d="M140 480l-51 -359q-8 -57 15 -83.5t78 -26.5q54 0 110.5 36.5t129.5 106.5l1 -24q-69 -70 -130.5 -106t-114.5 -36q-64 0 -93.5 34t-19.5 98l51 360h24zM490 480l-68 -480h-18l16 131l-1 16l47 333h24zM432 714l17 -19l-172 -141l-14 14z" />
    <glyph glyph-name="ucircumflex" unicode="&#xfb;" horiz-adv-x="556" 
d="M140 480l-51 -359q-8 -57 15 -83.5t78 -26.5q54 0 110.5 36.5t129.5 106.5l1 -24q-69 -70 -130.5 -106t-114.5 -36q-64 0 -93.5 34t-19.5 98l51 360h24zM490 480l-68 -480h-18l16 131l-1 16l47 333h24zM338 698l121 -117l-12 -12l-115 102h-9l-145 -103l-10 13l152 117
h18z" />
    <glyph glyph-name="udieresis" unicode="&#xfc;" horiz-adv-x="556" 
d="M140 480l-51 -359q-8 -57 15 -83.5t78 -26.5q54 0 110.5 36.5t129.5 106.5l1 -24q-69 -70 -130.5 -106t-114.5 -36q-64 0 -93.5 34t-19.5 98l51 360h24zM490 480l-68 -480h-18l16 131l-1 16l47 333h24zM243 674q6 0 8 -3t1 -9l-8 -53q-1 -7 -3.5 -10t-9.5 -3h-7
q-11 0 -10 12l8 54q1 6 3.5 9t8.5 3h9zM420 674q6 0 8 -3t1 -9l-8 -53q-1 -7 -3.5 -10t-9.5 -3h-7q-11 0 -10 12l8 54q1 6 3.5 9t8.5 3h9z" />
    <glyph glyph-name="yacute" unicode="&#xfd;" horiz-adv-x="511" 
d="M487 480q-11 -41 -25 -83t-31 -85t-37.5 -86t-43.5 -85t-49 -83q-48 -73 -88.5 -129.5t-81 -91.5t-88.5 -47l-4 15q33 11 62 33.5t57 55.5t57 75.5t62 93.5q47 74 80 141.5t58.5 135t46.5 140.5h25zM82 480l93 -433q7 -26 32 -26l51 1l-13 -22h-45q-17 0 -29.5 10.5
t-16.5 26.5l-98 443h26zM401 714l17 -19l-172 -141l-14 14z" />
    <glyph glyph-name="thorn" unicode="&#xfe;" horiz-adv-x="564" 
d="M369 492q61 0 89.5 -27.5t32 -83.5t-9.5 -143q-11 -75 -27.5 -123.5t-43.5 -76.5t-70 -39t-108 -11q-41 0 -83 3.5t-86 8.5l10 18q51 -3 85 -5.5t71 -2.5q61 0 100.5 9.5t64 34.5t39 70.5t24.5 117.5q12 80 10 130t-24.5 73.5t-73.5 23.5q-32 0 -75 -16.5t-88 -48.5
t-87 -79v27q43 49 89 79.5t88 45.5t73 15zM176 700l-37 -259q-4 -26 -6.5 -46.5t-9.5 -46.5l1 -11l-44 -323l-5 -13q-1 -26 -3.5 -46.5t-6.5 -46.5l-17 -118h-24l128 910h24z" />
    <glyph glyph-name="ydieresis" unicode="&#xff;" horiz-adv-x="511" 
d="M487 480q-11 -41 -25 -83t-31 -85t-37.5 -86t-43.5 -85t-49 -83q-48 -73 -88.5 -129.5t-81 -91.5t-88.5 -47l-4 15q33 11 62 33.5t57 55.5t57 75.5t62 93.5q47 74 80 141.5t58.5 135t46.5 140.5h25zM82 480l93 -433q7 -26 32 -26l51 1l-13 -22h-45q-17 0 -29.5 10.5
t-16.5 26.5l-98 443h26zM212 674q6 0 8 -3t1 -9l-8 -53q-1 -7 -3.5 -10t-9.5 -3h-7q-11 0 -10 12l8 54q1 6 3.5 9t8.5 3h9zM389 674q6 0 8 -3t1 -9l-8 -53q-1 -7 -3.5 -10t-9.5 -3h-7q-11 0 -10 12l8 54q1 6 3.5 9t8.5 3h9z" />
    <glyph glyph-name="Amacron" unicode="&#x100;" horiz-adv-x="599" 
d="M378 690q5 0 8.5 -2.5t4.5 -7.5l152 -680h-26l-135 613q-3 14 -5.5 27t-6.5 27h-29q-7 -14 -13.5 -28t-14.5 -28l-307 -611h-28l344 682q2 5 5.5 6.5t7.5 1.5h43zM474 274l-3 -22h-350l3 22h350zM503 827l-3 -23h-260l3 23h260z" />
    <glyph glyph-name="amacron" unicode="&#x101;" horiz-adv-x="564" 
d="M319 492q22 0 43.5 -1t44 -2.5t45 -3.5t46.5 -5l-10 -18q-54 3 -90.5 5.5t-75.5 2.5q-61 0 -100 -9.5t-63.5 -34.5t-39 -70.5t-25.5 -117.5q-12 -79 -10 -129.5t25 -74t73 -23.5q33 0 75.5 16.5t88 49t86.5 78.5v-27q-42 -48 -88.5 -79t-88.5 -46t-73 -15
q-61 0 -89.5 27.5t-32.5 83.5t10 143q12 75 28.5 123.5t43 76.5t69.5 39t108 11zM473 480h25l-68 -480h-18l15 122l-2 4zM469 645l-3 -23h-260l3 23h260z" />
    <glyph glyph-name="Abreve" unicode="&#x102;" horiz-adv-x="599" 
d="M378 690q5 0 8.5 -2.5t4.5 -7.5l152 -680h-26l-135 613q-3 14 -5.5 27t-6.5 27h-29q-7 -14 -13.5 -28t-14.5 -28l-307 -611h-28l344 682q2 5 5.5 6.5t7.5 1.5h43zM474 274l-3 -22h-350l3 22h350zM497 874l17 -6q-5 -35 -24.5 -60.5t-51.5 -39t-73 -13.5q-42 0 -71.5 14
t-43 40t-8.5 61l18 2q-7 -45 22 -69t83 -24t90 25t42 70z" />
    <glyph glyph-name="abreve" unicode="&#x103;" horiz-adv-x="564" 
d="M319 492q22 0 43.5 -1t44 -2.5t45 -3.5t46.5 -5l-10 -18q-54 3 -90.5 5.5t-75.5 2.5q-61 0 -100 -9.5t-63.5 -34.5t-39 -70.5t-25.5 -117.5q-12 -79 -10 -129.5t25 -74t73 -23.5q33 0 75.5 16.5t88 49t86.5 78.5v-27q-42 -48 -88.5 -79t-88.5 -46t-73 -15
q-61 0 -89.5 27.5t-32.5 83.5t10 143q12 75 28.5 123.5t43 76.5t69.5 39t108 11zM473 480h25l-68 -480h-18l15 122l-2 4zM463 692l17 -6q-5 -35 -24.5 -60.5t-51.5 -39t-73 -13.5q-42 0 -71.5 14t-43 40t-8.5 61l18 2q-7 -45 22 -69t83 -24t90 25t42 70z" />
    <glyph glyph-name="Aogonek" unicode="&#x104;" horiz-adv-x="599" 
d="M378 690q5 0 8.5 -2.5t4.5 -7.5l152 -680h-26l-135 613q-3 14 -5.5 27t-6.5 27h-29q-7 -14 -13.5 -28t-14.5 -28l-307 -611h-28l344 682q2 5 5.5 6.5t7.5 1.5h43zM474 274l-3 -22h-350l3 22h350zM526 2l17 -2q-31 -27 -58.5 -58.5t-46.5 -69.5q-22 -46 1.5 -60t83.5 6
l3 -12q-41 -18 -68 -19t-40 11.5t-13 33.5t12 46q13 26 38 56.5t71 67.5z" />
    <glyph glyph-name="aogonek" unicode="&#x105;" horiz-adv-x="564" 
d="M319 492q22 0 43.5 -1t44 -2.5t45 -3.5t46.5 -5l-10 -18q-54 3 -90.5 5.5t-75.5 2.5q-61 0 -100 -9.5t-63.5 -34.5t-39 -70.5t-25.5 -117.5q-12 -79 -10 -129.5t25 -74t73 -23.5q33 0 75.5 16.5t88 49t86.5 78.5v-27q-42 -48 -88.5 -79t-88.5 -46t-73 -15
q-61 0 -89.5 27.5t-32.5 83.5t10 143q12 75 28.5 123.5t43 76.5t69.5 39t108 11zM473 480h25l-68 -480h-18l15 122l-2 4zM413 2l17 -2q-31 -27 -58.5 -58.5t-46.5 -69.5q-22 -46 1.5 -60t83.5 6l3 -12q-41 -18 -68 -19t-40 11.5t-13 33.5t12 46q13 26 38 56.5t71 67.5z" />
    <glyph glyph-name="Cacute" unicode="&#x106;" 
d="M386 702q40 0 69.5 -2t54 -5.5t49.5 -9.5l-7 -18q-27 5 -51 7.5t-50.5 3.5t-63.5 1q-67 0 -114 -17.5t-79 -57t-52.5 -104t-33.5 -157.5q-17 -123 -6 -196t56.5 -104.5t130.5 -31.5q61 0 103 3t82 10l5 -18q-41 -9 -84 -13.5t-105 -4.5q-95 0 -146.5 34.5t-65 113.5
t4.5 211q14 98 37 166t58 109.5t86.5 60.5t121.5 19zM505 896l17 -19l-172 -141l-14 14z" />
    <glyph glyph-name="cacute" unicode="&#x107;" horiz-adv-x="475" 
d="M313 492q28 0 66 -3.5t68 -13.5l-7 -18q-25 7 -62 9.5t-60 2.5q-73 0 -119.5 -20.5t-73 -70.5t-39.5 -139q-12 -88 0 -138t52 -70t112 -20q15 0 39 1t51.5 4t50.5 7l3 -18q-34 -7 -72.5 -12t-73.5 -5q-80 0 -125.5 25t-60 80.5t-1.5 148.5q13 92 42 147t80 79t130 24z
M422 714l17 -19l-172 -141l-14 14z" />
    <glyph glyph-name="Ccircumflex" unicode="&#x108;" 
d="M386 702q40 0 69.5 -2t54 -5.5t49.5 -9.5l-7 -18q-27 5 -51 7.5t-50.5 3.5t-63.5 1q-67 0 -114 -17.5t-79 -57t-52.5 -104t-33.5 -157.5q-17 -123 -6 -196t56.5 -104.5t130.5 -31.5q61 0 103 3t82 10l5 -18q-41 -9 -84 -13.5t-105 -4.5q-95 0 -146.5 34.5t-65 113.5
t4.5 211q14 98 37 166t58 109.5t86.5 60.5t121.5 19zM411 880l121 -117l-12 -12l-115 102h-9l-145 -103l-10 13l152 117h18z" />
    <glyph glyph-name="ccircumflex" unicode="&#x109;" horiz-adv-x="475" 
d="M313 492q28 0 66 -3.5t68 -13.5l-7 -18q-25 7 -62 9.5t-60 2.5q-73 0 -119.5 -20.5t-73 -70.5t-39.5 -139q-12 -88 0 -138t52 -70t112 -20q15 0 39 1t51.5 4t50.5 7l3 -18q-34 -7 -72.5 -12t-73.5 -5q-80 0 -125.5 25t-60 80.5t-1.5 148.5q13 92 42 147t80 79t130 24z
M328 698l121 -117l-12 -12l-115 102h-9l-145 -103l-10 13l152 117h18z" />
    <glyph glyph-name="Cdotaccent" unicode="&#x10a;" 
d="M386 702q40 0 69.5 -2t54 -5.5t49.5 -9.5l-7 -18q-27 5 -51 7.5t-50.5 3.5t-63.5 1q-67 0 -114 -17.5t-79 -57t-52.5 -104t-33.5 -157.5q-17 -123 -6 -196t56.5 -104.5t130.5 -31.5q61 0 103 3t82 10l5 -18q-41 -9 -84 -13.5t-105 -4.5q-95 0 -146.5 34.5t-65 113.5
t4.5 211q14 98 37 166t58 109.5t86.5 60.5t121.5 19zM406 860q6 0 8.5 -3t1.5 -10l-8 -60q-1 -13 -14 -13h-9q-6 0 -9 3.5t-2 9.5l8 60q1 7 3.5 10t9.5 3h11z" />
    <glyph glyph-name="cdotaccent" unicode="&#x10b;" horiz-adv-x="475" 
d="M313 492q28 0 66 -3.5t68 -13.5l-7 -18q-25 7 -62 9.5t-60 2.5q-73 0 -119.5 -20.5t-73 -70.5t-39.5 -139q-12 -88 0 -138t52 -70t112 -20q15 0 39 1t51.5 4t50.5 7l3 -18q-34 -7 -72.5 -12t-73.5 -5q-80 0 -125.5 25t-60 80.5t-1.5 148.5q13 92 42 147t80 79t130 24z
M323 678q6 0 8.5 -3t1.5 -10l-8 -60q-1 -13 -14 -13h-9q-6 0 -9 3.5t-2 9.5l8 60q1 7 3.5 10t9.5 3h11z" />
    <glyph glyph-name="Ccaron" unicode="&#x10c;" 
d="M386 702q40 0 69.5 -2t54 -5.5t49.5 -9.5l-7 -18q-27 5 -51 7.5t-50.5 3.5t-63.5 1q-67 0 -114 -17.5t-79 -57t-52.5 -104t-33.5 -157.5q-17 -123 -6 -196t56.5 -104.5t130.5 -31.5q61 0 103 3t82 10l5 -18q-41 -9 -84 -13.5t-105 -4.5q-95 0 -146.5 34.5t-65 113.5
t4.5 211q14 98 37 166t58 109.5t86.5 60.5t121.5 19zM538 880l11 -12l-154 -117h-18l-120 117l11 12l116 -102h8z" />
    <glyph glyph-name="ccaron" unicode="&#x10d;" horiz-adv-x="475" 
d="M313 492q28 0 66 -3.5t68 -13.5l-7 -18q-25 7 -62 9.5t-60 2.5q-73 0 -119.5 -20.5t-73 -70.5t-39.5 -139q-12 -88 0 -138t52 -70t112 -20q15 0 39 1t51.5 4t50.5 7l3 -18q-34 -7 -72.5 -12t-73.5 -5q-80 0 -125.5 25t-60 80.5t-1.5 148.5q13 92 42 147t80 79t130 24z
M455 698l11 -12l-154 -117h-18l-120 117l11 12l116 -102h8z" />
    <glyph glyph-name="Dcaron" unicode="&#x10e;" horiz-adv-x="658" 
d="M388 699q93 0 143.5 -34.5t63.5 -112.5t-5 -209q-13 -99 -36 -166.5t-57.5 -108.5t-85 -59t-119.5 -18q-67 0 -123.5 2.5t-106.5 6.5l15 17q48 -1 99.5 -2t114.5 -1t108.5 17t78 55t53.5 102.5t34 158.5q13 92 10 155t-24 101t-61 55.5t-102 17.5q-43 0 -81 -0.5
t-72 -1.5t-67 -2l-9 18q34 3 70.5 5t76 3t82.5 1zM184 690l-97 -690h-25l97 690h25zM532 880l11 -12l-154 -117h-18l-120 117l11 12l116 -102h8z" />
    <glyph glyph-name="dcaron" unicode="&#x10f;" horiz-adv-x="562" 
d="M319 492q41 0 85.5 -3.5t91.5 -8.5l-10 -18q-54 3 -90.5 5.5t-74.5 2.5q-61 0 -101 -9.5t-64.5 -34.5t-38.5 -70.5t-25 -117.5q-11 -75 -9.5 -125.5t22.5 -76t68 -25.5q58 0 126 37t131 107v-27q-31 -34 -63.5 -60.5t-65.5 -44t-66 -26.5t-64 -9q-57 0 -83 29.5t-29 86
t9 138.5q11 75 27.5 124t44 76.5t71 38.5t108.5 11zM527 700l-99 -700h-18l15 133l-1 4l45 327l6 17q2 26 4 46.5t6 46.5l18 126h24zM640 700q5 0 6.5 -2t0.5 -7l-8 -58q-3 -22 -12.5 -54t-20.5 -55l-13 4q8 24 13.5 46.5t9.5 51.5q-2 0 -4 2.5t-1 6.5l8 56q1 5 3 7t8 2h10z
" />
    <glyph glyph-name="Dcroat" unicode="&#x110;" horiz-adv-x="658" 
d="M321 381l-3 -20h-288l3 20h288zM388 699q93 0 143.5 -34.5t63.5 -112.5t-5 -209q-13 -99 -36 -166.5t-57.5 -108.5t-85 -59t-119.5 -18q-67 0 -123.5 2.5t-106.5 6.5l15 17q48 -1 99.5 -2t114.5 -1t108.5 17t78 55t53.5 102.5t34 158.5q13 92 10 155t-24 101t-61 55.5
t-102 17.5q-43 0 -81 -0.5t-72 -1.5t-67 -2l-9 18q34 3 70.5 5t76 3t82.5 1zM184 690l-97 -690h-25l97 690h25z" />
    <glyph glyph-name="dcroat" unicode="&#x111;" horiz-adv-x="562" 
d="M592 610l-3 -20h-275l3 20h275zM319 492q41 0 85.5 -3.5t91.5 -8.5l-10 -18q-54 3 -90.5 5.5t-74.5 2.5q-61 0 -101 -9.5t-64.5 -34.5t-38.5 -70.5t-25 -117.5q-11 -75 -9.5 -125.5t22.5 -76t68 -25.5q58 0 126 37t131 107v-27q-31 -34 -63.5 -60.5t-65.5 -44t-66 -26.5
t-64 -9q-57 0 -83 29.5t-29 86t9 138.5q11 75 27.5 124t44 76.5t71 38.5t108.5 11zM527 700l-99 -700h-18l15 133l-1 4l45 327l6 17q2 26 4 46.5t6 46.5l18 126h24z" />
    <glyph glyph-name="Emacron" unicode="&#x112;" horiz-adv-x="548" 
d="M252 690h99t98 -1t98 -3l-4 -18h-286q-41 0 -65.5 -22.5t-29.5 -60.5l-67 -482q-5 -36 14 -58.5t55 -22.5h288l1 -18q-49 -2 -98.5 -3t-98 -1h-97.5q-45 0 -70.5 29.5t-18.5 73.5l68 486q6 44 35.5 72.5t78.5 28.5zM126 381l336 -1l-3 -20l-336 -1zM509 852l-3 -23h-260
l3 23h260z" />
    <glyph glyph-name="emacron" unicode="&#x113;" horiz-adv-x="526" 
d="M310 492q58 0 99.5 -12t59 -43.5t2.5 -92.5q-9 -39 -27.5 -62t-50 -34t-81.5 -17l-243 -26l3 21l241 27q44 6 70 15t41 27.5t23 50.5q15 55 0 81t-50 34.5t-80 8.5q-53 0 -91.5 -8t-65.5 -31.5t-44.5 -69t-29.5 -120.5q-14 -92 -4 -142t50 -69.5t112 -19.5q29 0 62 2
t63 5.5t51 6.5l3 -18q-18 -5 -52.5 -9t-72 -6.5t-64.5 -2.5q-79 0 -121 25.5t-53.5 81.5t2.5 149q12 78 32 126.5t50 75t71 36.5t95 10zM457 645l-3 -23h-260l3 23h260z" />
    <glyph glyph-name="Ebreve" unicode="&#x114;" horiz-adv-x="548" 
d="M252 690h99t98 -1t98 -3l-4 -18h-286q-41 0 -65.5 -22.5t-29.5 -60.5l-67 -482q-5 -36 14 -58.5t55 -22.5h288l1 -18q-49 -2 -98.5 -3t-98 -1h-97.5q-45 0 -70.5 29.5t-18.5 73.5l68 486q6 44 35.5 72.5t78.5 28.5zM126 381l336 -1l-3 -20l-336 -1zM503 899l17 -6
q-5 -35 -24.5 -60.5t-51.5 -39t-73 -13.5q-42 0 -71.5 14t-43 40t-8.5 61l18 2q-7 -45 22 -69t83 -24t90 25t42 70z" />
    <glyph glyph-name="ebreve" unicode="&#x115;" horiz-adv-x="526" 
d="M310 492q58 0 99.5 -12t59 -43.5t2.5 -92.5q-9 -39 -27.5 -62t-50 -34t-81.5 -17l-243 -26l3 21l241 27q44 6 70 15t41 27.5t23 50.5q15 55 0 81t-50 34.5t-80 8.5q-53 0 -91.5 -8t-65.5 -31.5t-44.5 -69t-29.5 -120.5q-14 -92 -4 -142t50 -69.5t112 -19.5q29 0 62 2
t63 5.5t51 6.5l3 -18q-18 -5 -52.5 -9t-72 -6.5t-64.5 -2.5q-79 0 -121 25.5t-53.5 81.5t2.5 149q12 78 32 126.5t50 75t71 36.5t95 10zM451 692l17 -6q-5 -35 -24.5 -60.5t-51.5 -39t-73 -13.5q-42 0 -71.5 14t-43 40t-8.5 61l18 2q-7 -45 22 -69t83 -24t90 25t42 70z" />
    <glyph glyph-name="Edotaccent" unicode="&#x116;" horiz-adv-x="548" 
d="M252 690h99t98 -1t98 -3l-4 -18h-286q-41 0 -65.5 -22.5t-29.5 -60.5l-67 -482q-5 -36 14 -58.5t55 -22.5h288l1 -18q-49 -2 -98.5 -3t-98 -1h-97.5q-45 0 -70.5 29.5t-18.5 73.5l68 486q6 44 35.5 72.5t78.5 28.5zM126 381l336 -1l-3 -20l-336 -1zM389 885q6 0 8.5 -3
t1.5 -10l-8 -60q-1 -13 -14 -13h-9q-6 0 -9 3.5t-2 9.5l8 60q1 7 3.5 10t9.5 3h11z" />
    <glyph glyph-name="edotaccent" unicode="&#x117;" horiz-adv-x="526" 
d="M310 492q58 0 99.5 -12t59 -43.5t2.5 -92.5q-9 -39 -27.5 -62t-50 -34t-81.5 -17l-243 -26l3 21l241 27q44 6 70 15t41 27.5t23 50.5q15 55 0 81t-50 34.5t-80 8.5q-53 0 -91.5 -8t-65.5 -31.5t-44.5 -69t-29.5 -120.5q-14 -92 -4 -142t50 -69.5t112 -19.5q29 0 62 2
t63 5.5t51 6.5l3 -18q-18 -5 -52.5 -9t-72 -6.5t-64.5 -2.5q-79 0 -121 25.5t-53.5 81.5t2.5 149q12 78 32 126.5t50 75t71 36.5t95 10zM337 678q6 0 8.5 -3t1.5 -10l-8 -60q-1 -13 -14 -13h-9q-6 0 -9 3.5t-2 9.5l8 60q1 7 3.5 10t9.5 3h11z" />
    <glyph glyph-name="Eogonek" unicode="&#x118;" horiz-adv-x="548" 
d="M252 690h99t98 -1t98 -3l-4 -18h-286q-41 0 -65.5 -22.5t-29.5 -60.5l-67 -482q-5 -36 14 -58.5t55 -22.5h288l1 -18q-49 -2 -98.5 -3t-98 -1h-97.5q-45 0 -70.5 29.5t-18.5 73.5l68 486q6 44 35.5 72.5t78.5 28.5zM126 381l336 -1l-3 -20l-336 -1zM436 6l17 -2
q-31 -27 -58.5 -58.5t-46.5 -69.5q-22 -46 1.5 -60t83.5 6l3 -12q-41 -18 -68 -19t-40 11.5t-13 33.5t12 46q13 26 38 56.5t71 67.5z" />
    <glyph glyph-name="eogonek" unicode="&#x119;" horiz-adv-x="526" 
d="M310 492q58 0 99.5 -12t59 -43.5t2.5 -92.5q-9 -39 -27.5 -62t-50 -34t-81.5 -17l-243 -26l3 21l241 27q44 6 70 15t41 27.5t23 50.5q15 55 0 81t-50 34.5t-80 8.5q-53 0 -91.5 -8t-65.5 -31.5t-44.5 -69t-29.5 -120.5q-14 -92 -4 -142t50 -69.5t112 -19.5q29 0 62 2
t63 5.5t51 6.5l3 -18q-18 -5 -52.5 -9t-72 -6.5t-64.5 -2.5q-79 0 -121 25.5t-53.5 81.5t2.5 149q12 78 32 126.5t50 75t71 36.5t95 10zM402 10l17 -2q-31 -27 -58.5 -58.5t-46.5 -69.5q-22 -46 1.5 -60t83.5 6l3 -12q-41 -18 -68 -19t-40 11.5t-13 33.5t12 46
q13 26 38 56.5t71 67.5z" />
    <glyph glyph-name="Ecaron" unicode="&#x11a;" horiz-adv-x="548" 
d="M252 690h99t98 -1t98 -3l-4 -18h-286q-41 0 -65.5 -22.5t-29.5 -60.5l-67 -482q-5 -36 14 -58.5t55 -22.5h288l1 -18q-49 -2 -98.5 -3t-98 -1h-97.5q-45 0 -70.5 29.5t-18.5 73.5l68 486q6 44 35.5 72.5t78.5 28.5zM126 381l336 -1l-3 -20l-336 -1zM521 905l11 -12
l-154 -117h-18l-120 117l11 12l116 -102h8z" />
    <glyph glyph-name="ecaron" unicode="&#x11b;" horiz-adv-x="526" 
d="M310 492q58 0 99.5 -12t59 -43.5t2.5 -92.5q-9 -39 -27.5 -62t-50 -34t-81.5 -17l-243 -26l3 21l241 27q44 6 70 15t41 27.5t23 50.5q15 55 0 81t-50 34.5t-80 8.5q-53 0 -91.5 -8t-65.5 -31.5t-44.5 -69t-29.5 -120.5q-14 -92 -4 -142t50 -69.5t112 -19.5q29 0 62 2
t63 5.5t51 6.5l3 -18q-18 -5 -52.5 -9t-72 -6.5t-64.5 -2.5q-79 0 -121 25.5t-53.5 81.5t2.5 149q12 78 32 126.5t50 75t71 36.5t95 10zM469 698l11 -12l-154 -117h-18l-120 117l11 12l116 -102h8z" />
    <glyph glyph-name="Gcircumflex" unicode="&#x11c;" horiz-adv-x="620" 
d="M388 702q46 0 78.5 -2t60 -5.5t56.5 -9.5l-7 -18q-31 5 -58 7.5t-57 3.5t-72 1q-67 0 -115 -17.5t-80.5 -56.5t-53 -103.5t-33.5 -158.5q-15 -120 -5 -193t49 -106t112 -33q46 0 86 18t76.5 46.5t70.5 59.5l4 -19q-27 -30 -56 -53.5t-59.5 -40t-61.5 -25.5t-61 -9
q-82 0 -127 37t-57 116t4 206q14 98 36.5 166t58.5 109.5t88 60.5t123 19zM556 400l-58 -400h-17l12 120l1 12l37 268h25zM424 880l121 -117l-12 -12l-115 102h-9l-145 -103l-10 13l152 117h18z" />
    <glyph glyph-name="gcircumflex" unicode="&#x11d;" horiz-adv-x="569" 
d="M481 480h25l-76 -486q-7 -47 -24.5 -84.5t-44.5 -65t-64 -43.5t-85 -21q-21 -2 -55.5 -2.5t-70.5 0.5t-64 4l3 18q29 -1 59.5 -2t60.5 0t59 4q89 9 138 55.5t64 138.5q9 56 16 91t13 51l-6 8zM319 492q29 0 58 -1.5t59.5 -4t61.5 -6.5l-10 -18q-54 3 -90.5 5.5t-75.5 2.5
q-61 0 -100 -9.5t-63.5 -34.5t-39 -70.5t-25.5 -117.5q-12 -79 -10 -129.5t25 -74t73 -23.5q33 0 75.5 16.5t88 49t86.5 78.5l5 -22q-43 -50 -90 -82t-90 -47.5t-75 -15.5q-61 0 -89.5 27.5t-32.5 83.5t10 143q12 75 28.5 123.5t43 76.5t69.5 39t108 11zM366 698l121 -117
l-12 -12l-115 102h-9l-145 -103l-10 13l152 117h18z" />
    <glyph glyph-name="Gbreve" unicode="&#x11e;" horiz-adv-x="620" 
d="M388 702q46 0 78.5 -2t60 -5.5t56.5 -9.5l-7 -18q-31 5 -58 7.5t-57 3.5t-72 1q-67 0 -115 -17.5t-80.5 -56.5t-53 -103.5t-33.5 -158.5q-15 -120 -5 -193t49 -106t112 -33q46 0 86 18t76.5 46.5t70.5 59.5l4 -19q-27 -30 -56 -53.5t-59.5 -40t-61.5 -25.5t-61 -9
q-82 0 -127 37t-57 116t4 206q14 98 36.5 166t58.5 109.5t88 60.5t123 19zM556 400l-58 -400h-17l12 120l1 12l37 268h25zM533 874l17 -6q-5 -35 -24.5 -60.5t-51.5 -39t-73 -13.5q-42 0 -71.5 14t-43 40t-8.5 61l18 2q-7 -45 22 -69t83 -24t90 25t42 70z" />
    <glyph glyph-name="gbreve" unicode="&#x11f;" horiz-adv-x="569" 
d="M481 480h25l-76 -486q-7 -47 -24.5 -84.5t-44.5 -65t-64 -43.5t-85 -21q-21 -2 -55.5 -2.5t-70.5 0.5t-64 4l3 18q29 -1 59.5 -2t60.5 0t59 4q89 9 138 55.5t64 138.5q9 56 16 91t13 51l-6 8zM319 492q29 0 58 -1.5t59.5 -4t61.5 -6.5l-10 -18q-54 3 -90.5 5.5t-75.5 2.5
q-61 0 -100 -9.5t-63.5 -34.5t-39 -70.5t-25.5 -117.5q-12 -79 -10 -129.5t25 -74t73 -23.5q33 0 75.5 16.5t88 49t86.5 78.5l5 -22q-43 -50 -90 -82t-90 -47.5t-75 -15.5q-61 0 -89.5 27.5t-32.5 83.5t10 143q12 75 28.5 123.5t43 76.5t69.5 39t108 11zM475 692l17 -6
q-5 -35 -24.5 -60.5t-51.5 -39t-73 -13.5q-42 0 -71.5 14t-43 40t-8.5 61l18 2q-7 -45 22 -69t83 -24t90 25t42 70z" />
    <glyph glyph-name="Gdotaccent" unicode="&#x120;" horiz-adv-x="620" 
d="M388 702q46 0 78.5 -2t60 -5.5t56.5 -9.5l-7 -18q-31 5 -58 7.5t-57 3.5t-72 1q-67 0 -115 -17.5t-80.5 -56.5t-53 -103.5t-33.5 -158.5q-15 -120 -5 -193t49 -106t112 -33q46 0 86 18t76.5 46.5t70.5 59.5l4 -19q-27 -30 -56 -53.5t-59.5 -40t-61.5 -25.5t-61 -9
q-82 0 -127 37t-57 116t4 206q14 98 36.5 166t58.5 109.5t88 60.5t123 19zM556 400l-58 -400h-17l12 120l1 12l37 268h25zM419 860q6 0 8.5 -3t1.5 -10l-8 -60q-1 -13 -14 -13h-9q-6 0 -9 3.5t-2 9.5l8 60q1 7 3.5 10t9.5 3h11z" />
    <glyph glyph-name="gdotaccent" unicode="&#x121;" horiz-adv-x="569" 
d="M481 480h25l-76 -486q-7 -47 -24.5 -84.5t-44.5 -65t-64 -43.5t-85 -21q-21 -2 -55.5 -2.5t-70.5 0.5t-64 4l3 18q29 -1 59.5 -2t60.5 0t59 4q89 9 138 55.5t64 138.5q9 56 16 91t13 51l-6 8zM319 492q29 0 58 -1.5t59.5 -4t61.5 -6.5l-10 -18q-54 3 -90.5 5.5t-75.5 2.5
q-61 0 -100 -9.5t-63.5 -34.5t-39 -70.5t-25.5 -117.5q-12 -79 -10 -129.5t25 -74t73 -23.5q33 0 75.5 16.5t88 49t86.5 78.5l5 -22q-43 -50 -90 -82t-90 -47.5t-75 -15.5q-61 0 -89.5 27.5t-32.5 83.5t10 143q12 75 28.5 123.5t43 76.5t69.5 39t108 11zM361 678q6 0 8.5 -3
t1.5 -10l-8 -60q-1 -13 -14 -13h-9q-6 0 -9 3.5t-2 9.5l8 60q1 7 3.5 10t9.5 3h11z" />
    <glyph glyph-name="uni0122" unicode="&#x122;" horiz-adv-x="620" 
d="M278 -65q4 0 5.5 -2t1.5 -8l-9 -60q-3 -16 -8 -35.5t-12 -40t-14 -37.5l-14 4q9 27 13.5 48t9.5 54q-3 0 -4.5 2.5t-0.5 6.5l9 58q0 6 2.5 8t9.5 2h11zM388 702q46 0 78.5 -2t60 -5.5t56.5 -9.5l-7 -18q-31 5 -58 7.5t-57 3.5t-72 1q-67 0 -115 -17.5t-80.5 -56.5
t-53 -103.5t-33.5 -158.5q-15 -120 -5 -193t49 -106t112 -33q46 0 86 18t76.5 46.5t70.5 59.5l4 -19q-27 -30 -56 -53.5t-59.5 -40t-61.5 -25.5t-61 -9q-82 0 -127 37t-57 116t4 206q14 98 36.5 166t58.5 109.5t88 60.5t123 19zM556 400l-58 -400h-17l12 120l1 12l37 268h25
z" />
    <glyph glyph-name="uni0123" unicode="&#x123;" horiz-adv-x="569" 
d="M324 566q-4 0 -5.5 2t-1.5 8l9 60q3 16 8 35.5t12 40t14 37.5l14 -4q-9 -27 -13.5 -48t-9.5 -54q3 0 4.5 -2.5t0.5 -6.5l-9 -58q0 -6 -2.5 -8t-9.5 -2h-11zM481 480h25l-76 -486q-7 -47 -24.5 -84.5t-44.5 -65t-64 -43.5t-85 -21q-21 -2 -55.5 -2.5t-70.5 0.5t-64 4l3 18
q29 -1 59.5 -2t60.5 0t59 4q89 9 138 55.5t64 138.5q9 56 16 91t13 51l-6 8zM319 492q29 0 58 -1.5t59.5 -4t61.5 -6.5l-10 -18q-54 3 -90.5 5.5t-75.5 2.5q-61 0 -100 -9.5t-63.5 -34.5t-39 -70.5t-25.5 -117.5q-12 -79 -10 -129.5t25 -74t73 -23.5q33 0 75.5 16.5t88 49
t86.5 78.5l5 -22q-43 -50 -90 -82t-90 -47.5t-75 -15.5q-61 0 -89.5 27.5t-32.5 83.5t10 143q12 75 28.5 123.5t43 76.5t69.5 39t108 11z" />
    <glyph glyph-name="Hcircumflex" unicode="&#x124;" horiz-adv-x="657" 
d="M184 690l-97 -690h-25l97 690h25zM553 381l-3 -22h-420l3 22h420zM610 690l-97 -690h-25l97 690h25zM421 880l121 -117l-12 -12l-115 102h-9l-145 -103l-10 13l152 117h18z" />
    <glyph glyph-name="hcircumflex" unicode="&#x125;" horiz-adv-x="567" 
d="M374 492q65 0 93.5 -33.5t19.5 -98.5l-51 -360h-24l51 359q8 59 -15 84.5t-78 25.5q-53 0 -111.5 -33.5t-137.5 -99.5l1 26q71 59 133.5 94.5t118.5 35.5zM175 700l-30 -216q-4 -28 -10 -62t-12 -62l2 -17l-49 -343h-24l99 700h24zM192 860l121 -117l-12 -12l-115 102h-9
l-145 -103l-10 13l152 117h18z" />
    <glyph glyph-name="Hbar" unicode="&#x126;" horiz-adv-x="657" 
d="M670 545l-3 -20h-611l3 20h611zM184 690l-97 -690h-25l97 690h25zM553 381l-3 -22h-420l3 22h420zM610 690l-97 -690h-25l97 690h25z" />
    <glyph glyph-name="hbar" unicode="&#x127;" horiz-adv-x="567" 
d="M332 610l-3 -20h-275l3 20h275zM374 492q65 0 93.5 -33.5t19.5 -98.5l-51 -360h-24l51 359q8 59 -15 84.5t-78 25.5q-53 0 -111.5 -33.5t-137.5 -99.5l1 26q71 59 133.5 94.5t118.5 35.5zM175 700l-30 -216q-4 -28 -10 -62t-12 -62l2 -17l-49 -343h-24l99 700h24z" />
    <glyph glyph-name="Itilde" unicode="&#x128;" horiz-adv-x="231" 
d="M184 690l-97 -690h-25l97 690h25zM124 866q22 -2 37.5 -12t28.5 -22t28 -22t36 -12q32 -2 48.5 13.5t20.5 50.5l17 -2q-4 -43 -27 -65t-58 -19q-25 2 -42 12t-30 22t-26.5 22t-31.5 12q-31 3 -48 -14t-22 -54l-17 2q5 46 28.5 68.5t57.5 19.5z" />
    <glyph glyph-name="itilde" unicode="&#x129;" horiz-adv-x="218" 
d="M148 480l-68 -480h-24l68 480h24zM92 684q22 -2 37.5 -12t28.5 -22t28 -22t36 -12q32 -2 48.5 13.5t20.5 50.5l17 -2q-4 -43 -27 -65t-58 -19q-25 2 -42 12t-30 22t-26.5 22t-31.5 12q-31 3 -48 -14t-22 -54l-17 2q5 46 28.5 68.5t57.5 19.5z" />
    <glyph glyph-name="Imacron" unicode="&#x12a;" horiz-adv-x="231" 
d="M184 690l-97 -690h-25l97 690h25zM320 827l-3 -23h-260l3 23h260z" />
    <glyph glyph-name="imacron" unicode="&#x12b;" horiz-adv-x="218" 
d="M148 480l-68 -480h-24l68 480h24zM288 645l-3 -23h-260l3 23h260z" />
    <glyph glyph-name="Ibreve" unicode="&#x12c;" horiz-adv-x="231" 
d="M184 690l-97 -690h-25l97 690h25zM314 874l17 -6q-5 -35 -24.5 -60.5t-51.5 -39t-73 -13.5q-42 0 -71.5 14t-43 40t-8.5 61l18 2q-7 -45 22 -69t83 -24t90 25t42 70z" />
    <glyph glyph-name="ibreve" unicode="&#x12d;" horiz-adv-x="218" 
d="M148 480l-68 -480h-24l68 480h24zM282 692l17 -6q-5 -35 -24.5 -60.5t-51.5 -39t-73 -13.5q-42 0 -71.5 14t-43 40t-8.5 61l18 2q-7 -45 22 -69t83 -24t90 25t42 70z" />
    <glyph glyph-name="Iogonek" unicode="&#x12e;" horiz-adv-x="231" 
d="M184 690l-97 -690h-25l97 690h25zM70 2l17 -2q-31 -27 -58.5 -58.5t-46.5 -69.5q-22 -46 1.5 -60t83.5 6l3 -12q-41 -18 -68 -19t-40 11.5t-13 33.5t12 46q13 26 38 56.5t71 67.5z" />
    <glyph glyph-name="iogonek" unicode="&#x12f;" horiz-adv-x="218" 
d="M148 480l-68 -480h-24l68 480h24zM168 678q6 0 8.5 -3t1.5 -10l-8 -60q-1 -13 -14 -13h-9q-6 0 -9 3.5t-2 9.5l8 60q1 7 3.5 10t9.5 3h11zM63 2l17 -2q-31 -27 -58.5 -58.5t-46.5 -69.5q-22 -46 1.5 -60t83.5 6l3 -12q-41 -18 -68 -19t-40 11.5t-13 33.5t12 46
q13 26 38 56.5t71 67.5z" />
    <glyph glyph-name="Idotaccent" unicode="&#x130;" horiz-adv-x="231" 
d="M184 690l-97 -690h-25l97 690h25zM200 860q6 0 8.5 -3t1.5 -10l-8 -60q-1 -13 -14 -13h-9q-6 0 -9 3.5t-2 9.5l8 60q1 7 3.5 10t9.5 3h11z" />
    <glyph glyph-name="dotlessi" unicode="&#x131;" horiz-adv-x="218" 
d="M148 480l-68 -480h-24l68 480h24z" />
    <glyph glyph-name="IJ" unicode="&#x132;" horiz-adv-x="553" 
d="M184 690l-97 -690h-25l97 690h25zM510 690l-81 -576q-8 -60 -42 -90.5t-95 -29.5q-9 0 -20.5 1t-23 2.5t-20.5 2.5l5 16h57q50 0 79 25.5t36 75.5l80 573h25z" />
    <glyph glyph-name="ij" unicode="&#x133;" horiz-adv-x="437" 
d="M148 480l-68 -480h-24l68 480h24zM168 679q6 0 9 -3.5t2 -9.5l-9 -62q-1 -11 -12 -11h-10q-14 0 -12 13l9 62q1 11 13 11h10zM366 480l-74 -527q-4 -32 -16.5 -61t-31 -54t-41.5 -48l-12 10q30 34 50 70t27 85l74 525h24zM386 679q6 0 9 -3.5t2 -9.5l-9 -62
q-1 -11 -12 -11h-10q-14 0 -12 13l9 62q1 11 13 11h10z" />
    <glyph glyph-name="Jcircumflex" unicode="&#x134;" horiz-adv-x="322" 
d="M279 690l-81 -576q-8 -60 -42 -90.5t-95 -29.5q-9 0 -20.5 1t-23 2.5t-20.5 2.5l5 16h57q50 0 79 25.5t36 75.5l80 573h25zM294 880l121 -117l-12 -12l-115 102h-9l-145 -103l-10 13l152 117h18z" />
    <glyph glyph-name="jcircumflex" unicode="&#x135;" horiz-adv-x="219" 
d="M148 480l-74 -527q-4 -32 -16.5 -61t-31 -54t-41.5 -48l-12 10q30 34 50 70t27 85l74 525h24zM170 698l121 -117l-12 -12l-115 102h-9l-145 -103l-10 13l152 117h18z" />
    <glyph glyph-name="uni0136" unicode="&#x136;" horiz-adv-x="559" 
d="M271 -65q4 0 5.5 -2t1.5 -8l-9 -60q-3 -16 -8 -35.5t-12 -40t-14 -37.5l-14 4q9 27 13.5 48t9.5 54q-3 0 -4.5 2.5t-0.5 6.5l9 58q0 6 2.5 8t9.5 2h11zM568 690l-267 -297q-6 -7 -15 -15.5t-18 -16.5v-2q5 -7 10 -13.5t9 -14.5l201 -331h-28l-221 361l298 329h31z
M183 690l-33 -237q-4 -26 -7.5 -46.5t-8.5 -47.5q-1 -26 -4 -49t-7 -48l-37 -262h-24l97 690h24zM268 371l-3 -22h-145l3 22h145z" />
    <glyph glyph-name="uni0137" unicode="&#x137;" horiz-adv-x="487" 
d="M219 -65q4 0 5.5 -2t1.5 -8l-9 -60q-3 -16 -8 -35.5t-12 -40t-14 -37.5l-14 4q9 27 13.5 48t9.5 54q-3 0 -4.5 2.5t-0.5 6.5l9 58q0 6 2.5 8t9.5 2h11zM175 700l-54 -390q-4 -26 -7.5 -46.5t-10.5 -47.5q1 -1 1.5 -3t1.5 -4l-30 -209h-24l99 700h24zM461 480
q-30 -72 -75 -121.5t-97.5 -82t-103.5 -51.5t-93 -31v23q88 24 155.5 62t114.5 88.5t74 112.5h25zM268 271l14 -28l14 -28l108 -215h-27l-130 260z" />
    <glyph glyph-name="kgreenlandic" unicode="&#x138;" horiz-adv-x="487" 
d="M144 480l-23 -170q-4 -26 -7.5 -46.5t-10.5 -47.5q1 -1 1.5 -3t1.5 -4l-30 -209h-24l68 480h24zM461 480q-30 -72 -75 -121.5t-97.5 -82t-103.5 -51.5t-93 -31v23q88 24 155.5 62t114.5 88.5t74 112.5h25zM268 271l14 -28l14 -28l108 -215h-27l-130 260z" />
    <glyph glyph-name="Lacute" unicode="&#x139;" horiz-adv-x="501" 
d="M181 690l-82 -587q-5 -36 14 -58.5t55 -22.5h273l-1 -18q-70 -3 -139.5 -3.5t-137.5 -0.5q-30 0 -51.5 13.5t-31.5 37t-6 52.5l82 587h25zM294 896l17 -19l-172 -141l-14 14z" />
    <glyph glyph-name="lacute" unicode="&#x13a;" horiz-adv-x="265" 
d="M176 700l-85 -605q-6 -39 12 -59t56 -20h59l1 -16q-6 -2 -18 -3.5t-24.5 -2t-21.5 -0.5q-46 0 -70.5 26.5t-17.5 75.5l85 604h24zM295 919l17 -19l-172 -141l-14 14z" />
    <glyph glyph-name="uni013B" unicode="&#x13b;" horiz-adv-x="501" 
d="M256 -75q4 0 5.5 -2t1.5 -8l-9 -60q-3 -16 -8 -35.5t-12 -40t-14 -37.5l-14 4q9 27 13.5 48t9.5 54q-3 0 -4.5 2.5t-0.5 6.5l9 58q0 6 2.5 8t9.5 2h11zM181 690l-82 -587q-5 -36 14 -58.5t55 -22.5h273l-1 -18q-70 -3 -139.5 -3.5t-137.5 -0.5q-30 0 -51.5 13.5t-31.5 37
t-6 52.5l82 587h25z" />
    <glyph glyph-name="uni013C" unicode="&#x13c;" horiz-adv-x="265" 
d="M125 -75q4 0 5.5 -2t1.5 -8l-9 -60q-3 -16 -8 -35.5t-12 -40t-14 -37.5l-14 4q9 27 13.5 48t9.5 54q-3 0 -4.5 2.5t-0.5 6.5l9 58q0 6 2.5 8t9.5 2h11zM176 700l-85 -605q-6 -39 12 -59t56 -20h59l1 -16q-6 -2 -18 -3.5t-24.5 -2t-21.5 -0.5q-46 0 -70.5 26.5t-17.5 75.5
l85 604h24z" />
    <glyph glyph-name="Lcaron" unicode="&#x13d;" horiz-adv-x="501" 
d="M181 690l-82 -587q-5 -36 14 -58.5t55 -22.5h273l-1 -18q-70 -3 -139.5 -3.5t-137.5 -0.5q-30 0 -51.5 13.5t-31.5 37t-6 52.5l82 587h25zM362 686q5 0 6.5 -2t0.5 -7l-8 -58q-3 -22 -12.5 -54t-20.5 -55l-13 4q8 24 13.5 46.5t9.5 51.5q-2 0 -4 2.5t-1 6.5l8 56q1 5 3 7
t8 2h10z" />
    <glyph glyph-name="lcaron" unicode="&#x13e;" horiz-adv-x="265" 
d="M301 700q4 0 5.5 -2t1.5 -8l-9 -60q-3 -16 -8 -35.5t-12 -40t-14 -37.5l-14 4q9 27 13.5 48t9.5 54q-3 0 -4.5 2.5t-0.5 6.5l9 58q0 6 2.5 8t9.5 2h11zM176 700l-85 -605q-6 -39 12 -59t56 -20h59l1 -16q-6 -2 -18 -3.5t-24.5 -2t-21.5 -0.5q-46 0 -70.5 26.5t-17.5 75.5
l85 604h24z" />
    <glyph glyph-name="Ldot" unicode="&#x13f;" horiz-adv-x="501" 
d="M354 338q-6 0 -8.5 3t-1.5 10l8 60q1 13 14 13h9q6 0 9 -3.5t2 -9.5l-8 -60q-1 -7 -3.5 -10t-9.5 -3h-11zM181 690l-82 -587q-5 -36 14 -58.5t55 -22.5h273l-1 -18q-70 -3 -139.5 -3.5t-137.5 -0.5q-30 0 -51.5 13.5t-31.5 37t-6 52.5l82 587h25z" />
    <glyph glyph-name="ldot" unicode="&#x140;" horiz-adv-x="289" 
d="M272 331q-6 0 -8.5 3t-1.5 10l8 60q1 13 14 13h9q6 0 9 -3.5t2 -9.5l-8 -60q-1 -7 -3.5 -10t-9.5 -3h-11zM176 700l-85 -605q-6 -39 12 -59t56 -20h59l1 -16q-6 -2 -18 -3.5t-24.5 -2t-21.5 -0.5q-46 0 -70.5 26.5t-17.5 75.5l85 604h24z" />
    <glyph glyph-name="Lslash" unicode="&#x141;" horiz-adv-x="501" 
d="M279 445l-3 -20l-245 -102l2 20zM181 690l-82 -587q-5 -36 14 -58.5t55 -22.5h273l-1 -18q-70 -3 -139.5 -3.5t-137.5 -0.5q-30 0 -51.5 13.5t-31.5 37t-6 52.5l82 587h25z" />
    <glyph glyph-name="lslash" unicode="&#x142;" horiz-adv-x="288" 
d="M283 445l-3 -20l-245 -102l2 20zM176 700l-85 -605q-6 -39 12 -59t56 -20h59l1 -16q-6 -2 -18 -3.5t-24.5 -2t-21.5 -0.5q-46 0 -70.5 26.5t-17.5 75.5l85 604h24z" />
    <glyph glyph-name="Nacute" unicode="&#x143;" horiz-adv-x="688" 
d="M641 690l-95 -676q-1 -7 -4.5 -10.5t-11.5 -3.5h-41q-6 0 -10.5 3t-6.5 9l-238 589q-7 17 -14 33.5t-14 33.5h-25q-3 -19 -5.5 -38.5t-5.5 -39.5l-83 -590h-25l95 676q2 8 5.5 11t10.5 3h38q6 0 11 -3t7 -9l233 -576q8 -20 16 -40.5t16 -40.5h28q3 21 6 42.5t6 42.5
l82 584h25zM537 896l17 -19l-172 -141l-14 14z" />
    <glyph glyph-name="nacute" unicode="&#x144;" horiz-adv-x="567" 
d="M374 492q43 0 70 -15t38 -44.5t5 -72.5l-51 -360h-24l51 359q8 59 -15 84.5t-78 25.5q-53 0 -111.5 -33t-137.5 -97l1 23q71 59 133.5 94.5t118.5 35.5zM138 480l-15 -120l1 -18l-48 -342h-24l68 480h18zM433 714l17 -19l-172 -141l-14 14z" />
    <glyph glyph-name="uni0145" unicode="&#x145;" horiz-adv-x="688" 
d="M306 -65q4 0 5.5 -2t1.5 -8l-9 -60q-3 -16 -8 -35.5t-12 -40t-14 -37.5l-14 4q9 27 13.5 48t9.5 54q-3 0 -4.5 2.5t-0.5 6.5l9 58q0 6 2.5 8t9.5 2h11zM641 690l-95 -676q-1 -7 -4.5 -10.5t-11.5 -3.5h-41q-6 0 -10.5 3t-6.5 9l-238 589q-7 17 -14 33.5t-14 33.5h-25
q-3 -19 -5.5 -38.5t-5.5 -39.5l-83 -590h-25l95 676q2 8 5.5 11t10.5 3h38q6 0 11 -3t7 -9l233 -576q8 -20 16 -40.5t16 -40.5h28q3 21 6 42.5t6 42.5l82 584h25z" />
    <glyph glyph-name="uni0146" unicode="&#x146;" horiz-adv-x="567" 
d="M251 -65q4 0 5.5 -2t1.5 -8l-9 -60q-3 -16 -8 -35.5t-12 -40t-14 -37.5l-14 4q9 27 13.5 48t9.5 54q-3 0 -4.5 2.5t-0.5 6.5l9 58q0 6 2.5 8t9.5 2h11zM374 492q43 0 70 -15t38 -44.5t5 -72.5l-51 -360h-24l51 359q8 59 -15 84.5t-78 25.5q-53 0 -111.5 -33t-137.5 -97
l1 23q71 59 133.5 94.5t118.5 35.5zM138 480l-15 -120l1 -18l-48 -342h-24l68 480h18z" />
    <glyph glyph-name="Ncaron" unicode="&#x147;" horiz-adv-x="688" 
d="M641 690l-95 -676q-1 -7 -4.5 -10.5t-11.5 -3.5h-41q-6 0 -10.5 3t-6.5 9l-238 589q-7 17 -14 33.5t-14 33.5h-25q-3 -19 -5.5 -38.5t-5.5 -39.5l-83 -590h-25l95 676q2 8 5.5 11t10.5 3h38q6 0 11 -3t7 -9l233 -576q8 -20 16 -40.5t16 -40.5h28q3 21 6 42.5t6 42.5
l82 584h25zM570 880l11 -12l-154 -117h-18l-120 117l11 12l116 -102h8z" />
    <glyph glyph-name="ncaron" unicode="&#x148;" horiz-adv-x="567" 
d="M374 492q43 0 70 -15t38 -44.5t5 -72.5l-51 -360h-24l51 359q8 59 -15 84.5t-78 25.5q-53 0 -111.5 -33t-137.5 -97l1 23q71 59 133.5 94.5t118.5 35.5zM138 480l-15 -120l1 -18l-48 -342h-24l68 480h18zM466 698l11 -12l-154 -117h-18l-120 117l11 12l116 -102h8z" />
    <glyph glyph-name="Eng" unicode="&#x14a;" horiz-adv-x="688" 
d="M641 690l-111 -792q-8 -60 -42 -90.5t-95 -29.5q-14 0 -32.5 2t-31.5 4l4 16h57q50 0 79 25.5t36 75.5l14 99h-30q-6 0 -10.5 3t-6.5 9l-238 589q-7 17 -14 33.5t-14 33.5h-25q-2 -16 -4.5 -32.5t-4.5 -33.5l-85 -602h-25l95 676q2 8 5.5 11t10.5 3h38q6 0 11 -3t7 -9
l233 -576q8 -20 16 -40.5t16 -40.5h28q3 20 6 41t6 41l82 587h25z" />
    <glyph glyph-name="eng" unicode="&#x14b;" horiz-adv-x="567" 
d="M374 492q65 0 93.5 -33.5t19.5 -98.5l-63 -450q-9 -60 -39.5 -90.5t-86.5 -29.5q-8 0 -16 0.5t-17 2l-21 3.5l4 16h47q45 0 71.5 25.5t33.5 75.5l63 446q8 57 -15 83.5t-78 26.5q-42 0 -81.5 -17.5t-80.5 -47t-90 -67.5l1 23q71 57 131 94.5t124 37.5zM138 480l-15 -121
l2 -16l-49 -343h-24l68 480h18z" />
    <glyph glyph-name="Omacron" unicode="&#x14c;" horiz-adv-x="660" 
d="M386 702q95 0 146.5 -34.5t65 -113.5t-5.5 -211q-13 -98 -36 -166t-58 -109.5t-86 -60.5t-122 -19q-95 0 -146.5 34.5t-65 113.5t4.5 211q14 98 37 166t58 109.5t86.5 60.5t121.5 19zM386 679q-87 0 -142 -32t-86.5 -105.5t-49.5 -198.5q-17 -123 -5.5 -196t57 -104.5
t129.5 -31.5q87 0 142 32t87 106t49 198q18 124 7 196.5t-56 104t-132 31.5zM531 827l-3 -23h-260l3 23h260z" />
    <glyph glyph-name="omacron" unicode="&#x14d;" 
d="M304 492q78 0 121 -25t56 -80.5t0 -148.5q-13 -92 -40.5 -147t-76.5 -79t-126 -24q-78 0 -121 25t-56 80.5t0 148.5q13 92 40.5 147t76.5 79t126 24zM304 469q-68 0 -112 -21.5t-69 -72t-37 -137.5q-12 -86 -1.5 -135.5t48 -70.5t105.5 -21t112 21.5t69 72t37 137.5
q12 86 1.5 135.5t-48 70.5t-105.5 21zM457 645l-3 -23h-260l3 23h260z" />
    <glyph glyph-name="Obreve" unicode="&#x14e;" horiz-adv-x="660" 
d="M386 702q95 0 146.5 -34.5t65 -113.5t-5.5 -211q-13 -98 -36 -166t-58 -109.5t-86 -60.5t-122 -19q-95 0 -146.5 34.5t-65 113.5t4.5 211q14 98 37 166t58 109.5t86.5 60.5t121.5 19zM386 679q-87 0 -142 -32t-86.5 -105.5t-49.5 -198.5q-17 -123 -5.5 -196t57 -104.5
t129.5 -31.5q87 0 142 32t87 106t49 198q18 124 7 196.5t-56 104t-132 31.5zM525 874l17 -6q-5 -35 -24.5 -60.5t-51.5 -39t-73 -13.5q-42 0 -71.5 14t-43 40t-8.5 61l18 2q-7 -45 22 -69t83 -24t90 25t42 70z" />
    <glyph glyph-name="obreve" unicode="&#x14f;" 
d="M304 492q78 0 121 -25t56 -80.5t0 -148.5q-13 -92 -40.5 -147t-76.5 -79t-126 -24q-78 0 -121 25t-56 80.5t0 148.5q13 92 40.5 147t76.5 79t126 24zM304 469q-68 0 -112 -21.5t-69 -72t-37 -137.5q-12 -86 -1.5 -135.5t48 -70.5t105.5 -21t112 21.5t69 72t37 137.5
q12 86 1.5 135.5t-48 70.5t-105.5 21zM451 692l17 -6q-5 -35 -24.5 -60.5t-51.5 -39t-73 -13.5q-42 0 -71.5 14t-43 40t-8.5 61l18 2q-7 -45 22 -69t83 -24t90 25t42 70z" />
    <glyph glyph-name="Ohungarumlaut" unicode="&#x150;" horiz-adv-x="660" 
d="M386 702q95 0 146.5 -34.5t65 -113.5t-5.5 -211q-13 -98 -36 -166t-58 -109.5t-86 -60.5t-122 -19q-95 0 -146.5 34.5t-65 113.5t4.5 211q14 98 37 166t58 109.5t86.5 60.5t121.5 19zM386 679q-87 0 -142 -32t-86.5 -105.5t-49.5 -198.5q-17 -123 -5.5 -196t57 -104.5
t129.5 -31.5q87 0 142 32t87 106t49 198q18 124 7 196.5t-56 104t-132 31.5zM427 901l20 -16l-140 -151l-14 11zM567 901l20 -16l-140 -151l-14 11z" />
    <glyph glyph-name="ohungarumlaut" unicode="&#x151;" 
d="M304 492q78 0 121 -25t56 -80.5t0 -148.5q-13 -92 -40.5 -147t-76.5 -79t-126 -24q-78 0 -121 25t-56 80.5t0 148.5q13 92 40.5 147t76.5 79t126 24zM304 469q-68 0 -112 -21.5t-69 -72t-37 -137.5q-12 -86 -1.5 -135.5t48 -70.5t105.5 -21t112 21.5t69 72t37 137.5
q12 86 1.5 135.5t-48 70.5t-105.5 21zM353 719l20 -16l-140 -151l-14 11zM493 719l20 -16l-140 -151l-14 11z" />
    <glyph glyph-name="OE" unicode="&#x152;" horiz-adv-x="886" 
d="M396 702q40 0 77.5 -8t75.5 -28l-9 -21q-35 20 -71 27t-74 7q-91 0 -148 -31.5t-89 -104.5t-50 -200q-17 -123 -6.5 -195.5t58.5 -104.5t140 -32q33 0 57 4t47.5 11.5t52.5 19.5l7 -19q-29 -13 -53 -22t-50 -13t-63 -4q-75 0 -123.5 18.5t-73 60.5t-28.5 111t10 169
q14 98 36.5 166t58 109.5t89 60.5t129.5 19zM484 381l316 -1l-3 -20l-316 -1zM610 690h92.5t91 -1t91.5 -3l-2 -18h-268q-36 0 -63 -23.5t-32 -59.5l-67 -482q-5 -36 14 -58.5t55 -22.5h270l-1 -18q-46 -2 -92 -3t-91 -1h-91q-30 0 -51.5 13.5t-31.5 37t-6 52.5l68 486
q6 44 38.5 72.5t75.5 28.5z" />
    <glyph glyph-name="oe" unicode="&#x153;" horiz-adv-x="920" 
d="M303 492q59 0 97.5 -13.5t59.5 -43.5t25.5 -78.5t-5.5 -118.5q-13 -92 -40.5 -147t-76.5 -79t-126 -24q-78 0 -121 25t-56 80.5t0 148.5q13 92 40.5 147t76.5 79t126 24zM303 469q-68 0 -112 -21.5t-69 -72t-37 -137.5q-12 -86 -1.5 -135.5t48 -70.5t105.5 -21t112 21.5
t69 72t37 137.5q12 86 1.5 135.5t-48 70.5t-105.5 21zM703 492q58 0 99.5 -12t59 -43.5t2.5 -92.5q-9 -39 -27.5 -62t-50 -34t-81.5 -17l-243 -27l3 22l241 28q44 6 70.5 15t41 27.5t22.5 49.5q14 55 -1.5 81t-50.5 34t-81 8q-52 0 -90 -8.5t-65 -32.5t-44.5 -69t-28.5 -118
q-13 -87 -4 -137.5t48.5 -71.5t115.5 -21q28 0 60 2t62.5 5t51.5 6l3 -18q-18 -5 -52.5 -9t-72 -6.5t-64.5 -2.5q-79 0 -121.5 25.5t-53.5 81.5t3 149q12 78 32 126.5t50 75t71 36.5t95 10z" />
    <glyph glyph-name="Racute" unicode="&#x154;" horiz-adv-x="606" 
d="M379 698q74 0 115.5 -17t55.5 -59.5t3 -119.5q-9 -62 -28 -99.5t-49.5 -56.5t-76.5 -26v-4q17 -5 29.5 -19t21.5 -34t13 -43l45 -220h-27l-44 219q-10 50 -35 70t-64 21q-58 1 -101 1.5t-72.5 1.5t-46.5 2l4 18h207q64 1 104 16t62.5 52.5t31.5 104.5q10 68 -1.5 104.5
t-46.5 50.5t-99 14q-76 0 -132 -0.5t-76 -2.5l-13 18q36 4 66.5 5.5t66.5 2t87 0.5zM184 690l-97 -690h-25l97 690h25zM494 896l17 -19l-172 -141l-14 14z" />
    <glyph glyph-name="racute" unicode="&#x155;" horiz-adv-x="383" 
d="M138 480l-15 -121l1 -16l-48 -343h-24l68 480h18zM388 492l-8 -23h-16q-53 0 -109.5 -34.5t-133.5 -98.5l1 24q68 62 129.5 97t116.5 35h20zM379 714l17 -19l-172 -141l-14 14z" />
    <glyph glyph-name="uni0156" unicode="&#x156;" horiz-adv-x="606" 
d="M287 -65q4 0 5.5 -2t1.5 -8l-9 -60q-3 -16 -8 -35.5t-12 -40t-14 -37.5l-14 4q9 27 13.5 48t9.5 54q-3 0 -4.5 2.5t-0.5 6.5l9 58q0 6 2.5 8t9.5 2h11zM379 698q74 0 115.5 -17t55.5 -59.5t3 -119.5q-9 -62 -28 -99.5t-49.5 -56.5t-76.5 -26v-4q17 -5 29.5 -19t21.5 -34
t13 -43l45 -220h-27l-44 219q-10 50 -35 70t-64 21q-58 1 -101 1.5t-72.5 1.5t-46.5 2l4 18h207q64 1 104 16t62.5 52.5t31.5 104.5q10 68 -1.5 104.5t-46.5 50.5t-99 14q-76 0 -132 -0.5t-76 -2.5l-13 18q36 4 66.5 5.5t66.5 2t87 0.5zM184 690l-97 -690h-25l97 690h25z
" />
    <glyph glyph-name="uni0157" unicode="&#x157;" horiz-adv-x="383" 
d="M61 -65q4 0 5.5 -2t1.5 -8l-9 -60q-3 -16 -8 -35.5t-12 -40t-14 -37.5l-14 4q9 27 13.5 48t9.5 54q-3 0 -4.5 2.5t-0.5 6.5l9 58q0 6 2.5 8t9.5 2h11zM138 480l-15 -121l1 -16l-48 -343h-24l68 480h18zM388 492l-8 -23h-16q-53 0 -109.5 -34.5t-133.5 -98.5l1 24
q68 62 129.5 97t116.5 35h20z" />
    <glyph glyph-name="Rcaron" unicode="&#x158;" horiz-adv-x="606" 
d="M379 698q74 0 115.5 -17t55.5 -59.5t3 -119.5q-9 -62 -28 -99.5t-49.5 -56.5t-76.5 -26v-4q17 -5 29.5 -19t21.5 -34t13 -43l45 -220h-27l-44 219q-10 50 -35 70t-64 21q-58 1 -101 1.5t-72.5 1.5t-46.5 2l4 18h207q64 1 104 16t62.5 52.5t31.5 104.5q10 68 -1.5 104.5
t-46.5 50.5t-99 14q-76 0 -132 -0.5t-76 -2.5l-13 18q36 4 66.5 5.5t66.5 2t87 0.5zM184 690l-97 -690h-25l97 690h25zM527 880l11 -12l-154 -117h-18l-120 117l11 12l116 -102h8z" />
    <glyph glyph-name="rcaron" unicode="&#x159;" horiz-adv-x="383" 
d="M138 480l-15 -121l1 -16l-48 -343h-24l68 480h18zM388 492l-8 -23h-16q-53 0 -109.5 -34.5t-133.5 -98.5l1 24q68 62 129.5 97t116.5 35h20zM412 698l11 -12l-154 -117h-18l-120 117l11 12l116 -102h8z" />
    <glyph glyph-name="Sacute" unicode="&#x15a;" horiz-adv-x="553" 
d="M329 701q49 -1 95.5 -4t90.5 -8l-4 -19q-44 3 -74.5 5t-59 2.5t-66.5 0.5q-34 0 -65.5 -3t-56.5 -15t-42.5 -40t-23.5 -78q-4 -37 1 -63.5t25 -47t60 -38.5l150 -63q52 -22 79.5 -45.5t35.5 -55.5t1 -82q-11 -73 -43 -106.5t-83.5 -42.5t-121.5 -9q-28 0 -77.5 2
t-112.5 9l4 19q37 -3 69 -4.5t64 -2t67 -0.5q62 1 104.5 10t68 38.5t35.5 90.5q6 43 0.5 69.5t-27.5 46t-64 37.5l-150 63q-48 21 -74 45t-34 56t-3 78q8 56 27.5 88t50 46.5t69.5 18t85 2.5zM458 896l17 -19l-172 -141l-14 14z" />
    <glyph glyph-name="sacute" unicode="&#x15b;" horiz-adv-x="498" 
d="M264 492q31 0 63 -1.5t63 -4t60 -6.5l-4 -18q-43 3 -90 5t-91 3q-56 1 -90.5 -3t-53 -22.5t-25.5 -61.5q-7 -45 8.5 -64.5t55.5 -34.5l160 -60q33 -12 55.5 -26t32.5 -36.5t4 -61.5q-7 -52 -33.5 -75.5t-70.5 -30t-105 -6.5q-21 0 -47 0.5t-56.5 3.5t-66.5 8l4 18
q31 -3 58 -5t54 -2.5t58 -0.5q61 1 99 8t57.5 26.5t24.5 59.5q5 32 -3 50t-25 28t-42 19l-159 60q-29 11 -51 23.5t-32 36t-4 66.5q8 50 32 72.5t64 28t96 4.5zM409 714l17 -19l-172 -141l-14 14z" />
    <glyph glyph-name="Scircumflex" unicode="&#x15c;" horiz-adv-x="553" 
d="M329 701q49 -1 95.5 -4t90.5 -8l-4 -19q-44 3 -74.5 5t-59 2.5t-66.5 0.5q-34 0 -65.5 -3t-56.5 -15t-42.5 -40t-23.5 -78q-4 -37 1 -63.5t25 -47t60 -38.5l150 -63q52 -22 79.5 -45.5t35.5 -55.5t1 -82q-11 -73 -43 -106.5t-83.5 -42.5t-121.5 -9q-28 0 -77.5 2
t-112.5 9l4 19q37 -3 69 -4.5t64 -2t67 -0.5q62 1 104.5 10t68 38.5t35.5 90.5q6 43 0.5 69.5t-27.5 46t-64 37.5l-150 63q-48 21 -74 45t-34 56t-3 78q8 56 27.5 88t50 46.5t69.5 18t85 2.5zM364 880l121 -117l-12 -12l-115 102h-9l-145 -103l-10 13l152 117h18z" />
    <glyph glyph-name="scircumflex" unicode="&#x15d;" horiz-adv-x="498" 
d="M264 492q31 0 63 -1.5t63 -4t60 -6.5l-4 -18q-43 3 -90 5t-91 3q-56 1 -90.5 -3t-53 -22.5t-25.5 -61.5q-7 -45 8.5 -64.5t55.5 -34.5l160 -60q33 -12 55.5 -26t32.5 -36.5t4 -61.5q-7 -52 -33.5 -75.5t-70.5 -30t-105 -6.5q-21 0 -47 0.5t-56.5 3.5t-66.5 8l4 18
q31 -3 58 -5t54 -2.5t58 -0.5q61 1 99 8t57.5 26.5t24.5 59.5q5 32 -3 50t-25 28t-42 19l-159 60q-29 11 -51 23.5t-32 36t-4 66.5q8 50 32 72.5t64 28t96 4.5zM315 698l121 -117l-12 -12l-115 102h-9l-145 -103l-10 13l152 117h18z" />
    <glyph glyph-name="Scedilla" unicode="&#x15e;" horiz-adv-x="553" 
d="M329 701q49 -1 95.5 -4t90.5 -8l-4 -19q-44 3 -74.5 5t-59 2.5t-66.5 0.5q-34 0 -65.5 -3t-56.5 -15t-42.5 -40t-23.5 -78q-4 -37 1 -63.5t25 -47t60 -38.5l150 -63q52 -22 79.5 -45.5t35.5 -55.5t1 -82q-11 -73 -43 -106.5t-83.5 -42.5t-121.5 -9q-28 0 -77.5 2
t-112.5 9l4 19q37 -3 69 -4.5t64 -2t67 -0.5q62 1 104.5 10t68 38.5t35.5 90.5q6 43 0.5 69.5t-27.5 46t-64 37.5l-150 63q-48 21 -74 45t-34 56t-3 78q8 56 27.5 88t50 46.5t69.5 18t85 2.5zM201 -49q26 2 43 -5t24 -22t3 -40q-4 -33 -24.5 -58.5t-53.5 -37.5t-75 -7l5 15
q53 -2 87.5 26t39.5 66q4 27 -7.5 37.5t-44.5 11.5z" />
    <glyph glyph-name="scedilla" unicode="&#x15f;" horiz-adv-x="498" 
d="M264 492q31 0 63 -1.5t63 -4t60 -6.5l-4 -18q-43 3 -90 5t-91 3q-56 1 -90.5 -3t-53 -22.5t-25.5 -61.5q-7 -45 8.5 -64.5t55.5 -34.5l160 -60q33 -12 55.5 -26t32.5 -36.5t4 -61.5q-7 -52 -33.5 -75.5t-70.5 -30t-105 -6.5q-21 0 -47 0.5t-56.5 3.5t-66.5 8l4 18
q31 -3 58 -5t54 -2.5t58 -0.5q61 1 99 8t57.5 26.5t24.5 59.5q5 32 -3 50t-25 28t-42 19l-159 60q-29 11 -51 23.5t-32 36t-4 66.5q8 50 32 72.5t64 28t96 4.5zM190 -60q26 2 43 -5t24 -22t3 -40q-4 -33 -24.5 -58.5t-53.5 -37.5t-75 -7l5 15q53 -2 87.5 26t39.5 66
q4 27 -7.5 37.5t-44.5 11.5z" />
    <glyph glyph-name="Scaron" unicode="&#x160;" horiz-adv-x="553" 
d="M329 701q49 -1 95.5 -4t90.5 -8l-4 -19q-44 3 -74.5 5t-59 2.5t-66.5 0.5q-34 0 -65.5 -3t-56.5 -15t-42.5 -40t-23.5 -78q-4 -37 1 -63.5t25 -47t60 -38.5l150 -63q52 -22 79.5 -45.5t35.5 -55.5t1 -82q-11 -73 -43 -106.5t-83.5 -42.5t-121.5 -9q-28 0 -77.5 2
t-112.5 9l4 19q37 -3 69 -4.5t64 -2t67 -0.5q62 1 104.5 10t68 38.5t35.5 90.5q6 43 0.5 69.5t-27.5 46t-64 37.5l-150 63q-48 21 -74 45t-34 56t-3 78q8 56 27.5 88t50 46.5t69.5 18t85 2.5zM491 880l11 -12l-154 -117h-18l-120 117l11 12l116 -102h8z" />
    <glyph glyph-name="scaron" unicode="&#x161;" horiz-adv-x="498" 
d="M264 492q31 0 63 -1.5t63 -4t60 -6.5l-4 -18q-43 3 -90 5t-91 3q-56 1 -90.5 -3t-53 -22.5t-25.5 -61.5q-7 -45 8.5 -64.5t55.5 -34.5l160 -60q33 -12 55.5 -26t32.5 -36.5t4 -61.5q-7 -52 -33.5 -75.5t-70.5 -30t-105 -6.5q-21 0 -47 0.5t-56.5 3.5t-66.5 8l4 18
q31 -3 58 -5t54 -2.5t58 -0.5q61 1 99 8t57.5 26.5t24.5 59.5q5 32 -3 50t-25 28t-42 19l-159 60q-29 11 -51 23.5t-32 36t-4 66.5q8 50 32 72.5t64 28t96 4.5zM442 698l11 -12l-154 -117h-18l-120 117l11 12l116 -102h8z" />
    <glyph glyph-name="uni0162" unicode="&#x162;" horiz-adv-x="558" 
d="M347 690l-97 -690h-25l97 690h25zM590 690l-3 -22h-510l3 22h510zM201 -49q26 2 43 -5t24 -22t3 -40q-4 -33 -24.5 -58.5t-53.5 -37.5t-75 -7l5 15q53 -2 87.5 26t39.5 66q4 27 -7.5 37.5t-44.5 11.5z" />
    <glyph glyph-name="uni0163" unicode="&#x163;" horiz-adv-x="341" 
d="M189 631l-75 -536q-6 -40 12 -59.5t56 -19.5h89l1 -16q-13 -2 -30 -3.5t-32 -2t-23 -0.5q-56 0 -80 26.5t-17 75.5l75 535h24zM346 480l-4 -22h-289l3 17l94 5h196zM136 -55q26 2 43 -5t24 -22t3 -40q-4 -33 -24.5 -58.5t-53.5 -37.5t-75 -7l5 15q53 -2 87.5 26t39.5 66
q4 27 -7.5 37.5t-44.5 11.5z" />
    <glyph glyph-name="Tcaron" unicode="&#x164;" horiz-adv-x="558" 
d="M347 690l-97 -690h-25l97 690h25zM590 690l-3 -22h-510l3 22h510zM497 880l11 -12l-154 -117h-18l-120 117l11 12l116 -102h8z" />
    <glyph glyph-name="tcaron" unicode="&#x165;" horiz-adv-x="341" 
d="M189 631l-75 -536q-6 -40 12 -59.5t56 -19.5h89l1 -16q-13 -2 -30 -3.5t-32 -2t-23 -0.5q-56 0 -80 26.5t-17 75.5l75 535h24zM346 480l-4 -22h-289l3 17l94 5h196zM319 746q5 0 6.5 -2t0.5 -7l-8 -58q-3 -22 -12.5 -54t-20.5 -55l-13 4q8 24 13.5 46.5t9.5 51.5
q-2 0 -4 2.5t-1 6.5l8 56q1 5 3 7t8 2h10z" />
    <glyph glyph-name="Tbar" unicode="&#x166;" horiz-adv-x="558" 
d="M460 405l-3 -20h-329l3 20h329zM347 690l-97 -690h-25l97 690h25zM590 690l-3 -22h-510l3 22h510z" />
    <glyph glyph-name="tbar" unicode="&#x167;" horiz-adv-x="341" 
d="M305 320l-3 -20h-255l3 20h255zM189 631l-75 -536q-6 -40 12 -59.5t56 -19.5h89l1 -16q-13 -2 -30 -3.5t-32 -2t-23 -0.5q-56 0 -80 26.5t-17 75.5l75 535h24zM346 480l-4 -22h-289l3 17l94 5h196z" />
    <glyph glyph-name="Utilde" unicode="&#x168;" horiz-adv-x="667" 
d="M625 690l-61 -436q-13 -96 -44 -154.5t-85.5 -85t-140.5 -26.5q-87 0 -135.5 27t-63.5 86t-2 155l61 434h25l-61 -436q-12 -89 0.5 -142.5t55.5 -77t119 -23.5q77 0 127 24t78.5 78t40.5 143l61 434h25zM335 866q22 -2 37.5 -12t28.5 -22t28 -22t36 -12q32 -2 48.5 13.5
t20.5 50.5l17 -2q-4 -43 -27 -65t-58 -19q-25 2 -42 12t-30 22t-26.5 22t-31.5 12q-31 3 -48 -14t-22 -54l-17 2q5 46 28.5 68.5t57.5 19.5z" />
    <glyph glyph-name="utilde" unicode="&#x169;" horiz-adv-x="556" 
d="M140 480l-51 -359q-8 -57 15 -83.5t78 -26.5q54 0 110.5 36.5t129.5 106.5l1 -24q-69 -70 -130.5 -106t-114.5 -36q-64 0 -93.5 34t-19.5 98l51 360h24zM490 480l-68 -480h-18l16 131l-1 16l47 333h24zM257 684q22 -2 37.5 -12t28.5 -22t28 -22t36 -12q32 -2 48.5 13.5
t20.5 50.5l17 -2q-4 -43 -27 -65t-58 -19q-25 2 -42 12t-30 22t-26.5 22t-31.5 12q-31 3 -48 -14t-22 -54l-17 2q5 46 28.5 68.5t57.5 19.5z" />
    <glyph glyph-name="Umacron" unicode="&#x16a;" horiz-adv-x="667" 
d="M625 690l-61 -436q-13 -96 -44 -154.5t-85.5 -85t-140.5 -26.5q-87 0 -135.5 27t-63.5 86t-2 155l61 434h25l-61 -436q-12 -89 0.5 -142.5t55.5 -77t119 -23.5q77 0 127 24t78.5 78t40.5 143l61 434h25zM531 827l-3 -23h-260l3 23h260z" />
    <glyph glyph-name="umacron" unicode="&#x16b;" horiz-adv-x="556" 
d="M140 480l-51 -359q-8 -57 15 -83.5t78 -26.5q54 0 110.5 36.5t129.5 106.5l1 -24q-69 -70 -130.5 -106t-114.5 -36q-64 0 -93.5 34t-19.5 98l51 360h24zM490 480l-68 -480h-18l16 131l-1 16l47 333h24zM453 645l-3 -23h-260l3 23h260z" />
    <glyph glyph-name="Ubreve" unicode="&#x16c;" horiz-adv-x="667" 
d="M625 690l-61 -436q-13 -96 -44 -154.5t-85.5 -85t-140.5 -26.5q-87 0 -135.5 27t-63.5 86t-2 155l61 434h25l-61 -436q-12 -89 0.5 -142.5t55.5 -77t119 -23.5q77 0 127 24t78.5 78t40.5 143l61 434h25zM525 874l17 -6q-5 -35 -24.5 -60.5t-51.5 -39t-73 -13.5
q-42 0 -71.5 14t-43 40t-8.5 61l18 2q-7 -45 22 -69t83 -24t90 25t42 70z" />
    <glyph glyph-name="ubreve" unicode="&#x16d;" horiz-adv-x="556" 
d="M140 480l-51 -359q-8 -57 15 -83.5t78 -26.5q54 0 110.5 36.5t129.5 106.5l1 -24q-69 -70 -130.5 -106t-114.5 -36q-64 0 -93.5 34t-19.5 98l51 360h24zM490 480l-68 -480h-18l16 131l-1 16l47 333h24zM447 692l17 -6q-5 -35 -24.5 -60.5t-51.5 -39t-73 -13.5
q-42 0 -71.5 14t-43 40t-8.5 61l18 2q-7 -45 22 -69t83 -24t90 25t42 70z" />
    <glyph glyph-name="Uring" unicode="&#x16e;" horiz-adv-x="667" 
d="M625 690l-61 -436q-13 -96 -44 -154.5t-85.5 -85t-140.5 -26.5q-87 0 -135.5 27t-63.5 86t-2 155l61 434h25l-61 -436q-12 -89 0.5 -142.5t55.5 -77t119 -23.5q77 0 127 24t78.5 78t40.5 143l61 434h25zM408 909q41 0 64.5 -24t23.5 -61q0 -43 -31 -74t-75 -31
q-41 0 -64.5 24t-23.5 61q0 44 31 74.5t75 30.5zM408 890q-38 0 -61.5 -26t-23.5 -58q0 -28 17 -48t50 -20q40 0 62.5 27t22.5 61q0 26 -17.5 45t-49.5 19z" />
    <glyph glyph-name="uring" unicode="&#x16f;" horiz-adv-x="556" 
d="M140 480l-51 -359q-8 -57 15 -83.5t78 -26.5q54 0 110.5 36.5t129.5 106.5l1 -24q-69 -70 -130.5 -106t-114.5 -36q-64 0 -93.5 34t-19.5 98l51 360h24zM490 480l-68 -480h-18l16 131l-1 16l47 333h24zM330 727q41 0 64.5 -24t23.5 -61q0 -43 -31 -74t-75 -31
q-41 0 -64.5 24t-23.5 61q0 44 31 74.5t75 30.5zM330 708q-38 0 -61.5 -26t-23.5 -58q0 -28 17 -48t50 -20q40 0 62.5 27t22.5 61q0 26 -17.5 45t-49.5 19z" />
    <glyph glyph-name="Uhungarumlaut" unicode="&#x170;" horiz-adv-x="667" 
d="M625 690l-61 -436q-13 -96 -44 -154.5t-85.5 -85t-140.5 -26.5q-87 0 -135.5 27t-63.5 86t-2 155l61 434h25l-61 -436q-12 -89 0.5 -142.5t55.5 -77t119 -23.5q77 0 127 24t78.5 78t40.5 143l61 434h25zM427 901l20 -16l-140 -151l-14 11zM567 901l20 -16l-140 -151
l-14 11z" />
    <glyph glyph-name="uhungarumlaut" unicode="&#x171;" horiz-adv-x="556" 
d="M140 480l-51 -359q-8 -57 15 -83.5t78 -26.5q54 0 110.5 36.5t129.5 106.5l1 -24q-69 -70 -130.5 -106t-114.5 -36q-64 0 -93.5 34t-19.5 98l51 360h24zM490 480l-68 -480h-18l16 131l-1 16l47 333h24zM349 719l20 -16l-140 -151l-14 11zM489 719l20 -16l-140 -151
l-14 11z" />
    <glyph glyph-name="Uogonek" unicode="&#x172;" horiz-adv-x="667" 
d="M625 690l-61 -436q-13 -96 -44 -154.5t-85.5 -85t-140.5 -26.5q-87 0 -135.5 27t-63.5 86t-2 155l61 434h25l-61 -436q-12 -89 0.5 -142.5t55.5 -77t119 -23.5q77 0 127 24t78.5 78t40.5 143l61 434h25zM315 -7l17 -2q-31 -27 -58.5 -58.5t-46.5 -69.5q-22 -46 1.5 -60
t83.5 6l3 -12q-41 -18 -68 -19t-40 11.5t-13 33.5t12 46q13 26 38 56.5t71 67.5z" />
    <glyph glyph-name="uogonek" unicode="&#x173;" horiz-adv-x="556" 
d="M140 480l-51 -359q-8 -57 15 -83.5t78 -26.5q54 0 110.5 36.5t129.5 106.5l1 -24q-69 -70 -130.5 -106t-114.5 -36q-64 0 -93.5 34t-19.5 98l51 360h24zM490 480l-68 -480h-18l16 131l-1 16l47 333h24zM405 2l17 -2q-31 -27 -58.5 -58.5t-46.5 -69.5q-22 -46 1.5 -60
t83.5 6l3 -12q-41 -18 -68 -19t-40 11.5t-13 33.5t12 46q13 26 38 56.5t71 67.5z" />
    <glyph glyph-name="Wcircumflex" unicode="&#x174;" horiz-adv-x="926" 
d="M949 690l-278 -681q-2 -4 -6 -6.5t-9 -2.5h-42q-5 0 -8.5 3.5t-4.5 8.5l-65 580q-2 20 -4 38t-5 37h-25q-8 -19 -15.5 -38t-15.5 -39l-227 -580q-2 -5 -6 -7.5t-9 -2.5h-43q-5 0 -8.5 3.5t-4.5 7.5l-87 679h25l76 -600q2 -17 4 -34.5t4 -34.5h29q7 17 13 35t13 35
l232 589q4 10 14 10h39q5 0 9 -3.5t5 -8.5l67 -588q2 -17 3.5 -34.5t3.5 -34.5h29q7 17 13.5 35t13.5 35l244 599h26zM552 880l121 -117l-12 -12l-115 102h-9l-145 -103l-10 13l152 117h18z" />
    <glyph glyph-name="wcircumflex" unicode="&#x175;" horiz-adv-x="813" 
d="M83 480l86 -459h12q9 0 16 3t20 19q15 20 40 61.5t48 92.5q21 45 38 93.5t31 95.5t25 87q1 4 4 6t7 2l25 -1q5 0 8 -2.5t4 -6.5l69 -450h12q12 0 21 6.5t17 18.5q27 39 49.5 74t43.5 76q41 79 63.5 149t37.5 135h25q-15 -66 -31.5 -117t-34.5 -94t-41 -85
q-30 -56 -58.5 -100t-43.5 -61q-6 -7 -12.5 -12t-15 -8t-21.5 -3h-19q-4 0 -7.5 2.5t-4.5 6.5l-69 451h-10q-5 -22 -18 -67t-31.5 -99t-40.5 -103q-13 -30 -31.5 -64t-36.5 -63t-32 -44q-6 -6 -12.5 -10.5t-14.5 -7t-19 -2.5h-20q-4 0 -7.5 2.5t-4.5 6.5l-91 471h25z
M480 698l121 -117l-12 -12l-115 102h-9l-145 -103l-10 13l152 117h18z" />
    <glyph glyph-name="Ycircumflex" unicode="&#x176;" horiz-adv-x="535" 
d="M569 690l-300 -440l-18 1l-178 439h26l134 -334q7 -16 14 -34t14 -35h6q11 17 24 35.5t23 34.5l227 333h28zM277 281l-40 -281h-25l40 281h25zM350 880l121 -117l-12 -12l-115 102h-9l-145 -103l-10 13l152 117h18z" />
    <glyph glyph-name="ycircumflex" unicode="&#x177;" horiz-adv-x="511" 
d="M487 480q-11 -41 -25 -83t-31 -85t-37.5 -86t-43.5 -85t-49 -83q-48 -73 -88.5 -129.5t-81 -91.5t-88.5 -47l-4 15q33 11 62 33.5t57 55.5t57 75.5t62 93.5q47 74 80 141.5t58.5 135t46.5 140.5h25zM82 480l93 -433q7 -26 32 -26l51 1l-13 -22h-45q-17 0 -29.5 10.5
t-16.5 26.5l-98 443h26zM307 698l121 -117l-12 -12l-115 102h-9l-145 -103l-10 13l152 117h18z" />
    <glyph glyph-name="Ydieresis" unicode="&#x178;" horiz-adv-x="535" 
d="M569 690l-300 -440l-18 1l-178 439h26l134 -334q7 -16 14 -34t14 -35h6q11 17 24 35.5t23 34.5l227 333h28zM277 281l-40 -281h-25l40 281h25zM255 856q6 0 8 -3t1 -9l-8 -53q-1 -7 -3.5 -10t-9.5 -3h-7q-11 0 -10 12l8 54q1 6 3.5 9t8.5 3h9zM432 856q6 0 8 -3t1 -9
l-8 -53q-1 -7 -3.5 -10t-9.5 -3h-7q-11 0 -10 12l8 54q1 6 3.5 9t8.5 3h9z" />
    <glyph glyph-name="Zacute" unicode="&#x179;" horiz-adv-x="553" 
d="M522 668l30 -1l-511 -645l-29 1zM467 23l-4 -23h-455l4 23h455zM555 690l-3 -23h-447l3 23h447zM456 896l17 -19l-172 -141l-14 14z" />
    <glyph glyph-name="zacute" unicode="&#x17a;" horiz-adv-x="485" 
d="M423 459l32 -1l-410 -437l-32 1zM396 22l-3 -22h-383l3 22h383zM458 480l-3 -22h-377l3 22h377zM394 714l17 -19l-172 -141l-14 14z" />
    <glyph glyph-name="Zdotaccent" unicode="&#x17b;" horiz-adv-x="553" 
d="M522 668l30 -1l-511 -645l-29 1zM467 23l-4 -23h-455l4 23h455zM555 690l-3 -23h-447l3 23h447zM357 860q6 0 8.5 -3t1.5 -10l-8 -60q-1 -13 -14 -13h-9q-6 0 -9 3.5t-2 9.5l8 60q1 7 3.5 10t9.5 3h11z" />
    <glyph glyph-name="zdotaccent" unicode="&#x17c;" horiz-adv-x="485" 
d="M423 459l32 -1l-410 -437l-32 1zM396 22l-3 -22h-383l3 22h383zM458 480l-3 -22h-377l3 22h377zM295 678q6 0 8.5 -3t1.5 -10l-8 -60q-1 -13 -14 -13h-9q-6 0 -9 3.5t-2 9.5l8 60q1 7 3.5 10t9.5 3h11z" />
    <glyph glyph-name="Zcaron" unicode="&#x17d;" horiz-adv-x="553" 
d="M522 668l30 -1l-511 -645l-29 1zM467 23l-4 -23h-455l4 23h455zM555 690l-3 -23h-447l3 23h447zM489 880l11 -12l-154 -117h-18l-120 117l11 12l116 -102h8z" />
    <glyph glyph-name="zcaron" unicode="&#x17e;" horiz-adv-x="485" 
d="M423 459l32 -1l-410 -437l-32 1zM396 22l-3 -22h-383l3 22h383zM458 480l-3 -22h-377l3 22h377zM427 698l11 -12l-154 -117h-18l-120 117l11 12l116 -102h8z" />
    <glyph glyph-name="uni018F" unicode="&#x18f;" horiz-adv-x="625" 
d="M256 -12q-72 0 -122 20.5t-70 66.5t-2 122q14 55 41.5 86.5t72 48t109.5 25.5l264 37l-4 -22l-261 -37q-61 -8 -101 -23.5t-63 -43t-34 -73.5q-13 -57 -4 -93.5t34.5 -56t62 -27t76.5 -7.5q87 0 142 32t87 104.5t49 195.5q18 126 7.5 199.5t-56 105t-132.5 31.5
q-41 0 -80 -3t-74.5 -7.5t-65.5 -9.5l-4 18q26 7 64 12.5t80 9t80 3.5q95 0 146 -35t64.5 -114.5t-5.5 -213.5q-13 -97 -35.5 -164t-58 -108t-86 -60t-121.5 -19z" />
    <glyph glyph-name="florin" unicode="&#x192;" horiz-adv-x="405" 
d="M365 699q11 0 25 -0.5l28 -1t24 -2.5l-3 -18h-69q-60 0 -90.5 -25t-44.5 -87l-133 -563q-16 -66 -48.5 -99t-95.5 -33q-10 0 -24.5 0.5t-28.5 1.5t-24 2l2 18h69q55 0 83 25.5t43 86.5l133 563q15 66 50.5 99t103.5 33zM359 385l-6 -23h-286l5 18l102 5h185z" />
    <glyph glyph-name="Ohorn" unicode="&#x1a0;" horiz-adv-x="660" 
d="M386 702q95 0 146.5 -34.5t65 -113.5t-5.5 -211q-13 -98 -36 -166t-58 -109.5t-86 -60.5t-122 -19q-95 0 -146.5 34.5t-65 113.5t4.5 211q14 98 37 166t58 109.5t86.5 60.5t121.5 19zM386 679q-87 0 -142 -32t-86.5 -105.5t-49.5 -198.5q-17 -123 -5.5 -196t57 -104.5
t129.5 -31.5q87 0 142 32t87 106t49 198q18 124 7 196.5t-56 104t-132 31.5zM569 599l-1 17q51 2 81 32.5t41 79.5l23 -9q-8 -36 -28 -62.5t-49.5 -41.5t-66.5 -16z" />
    <glyph glyph-name="ohorn" unicode="&#x1a1;" 
d="M304 492q78 0 121 -25t56 -80.5t0 -148.5q-13 -92 -40.5 -147t-76.5 -79t-126 -24q-78 0 -121 25t-56 80.5t0 148.5q13 92 40.5 147t76.5 79t126 24zM304 469q-68 0 -112 -21.5t-69 -72t-37 -137.5q-12 -86 -1.5 -135.5t48 -70.5t105.5 -21t112 21.5t69 72t37 137.5
q12 86 1.5 135.5t-48 70.5t-105.5 21zM453 402l-1 17q51 2 81 32.5t41 79.5l23 -9q-8 -36 -28 -62.5t-49.5 -41.5t-66.5 -16z" />
    <glyph glyph-name="Uhorn" unicode="&#x1af;" horiz-adv-x="667" 
d="M625 690l-61 -436q-13 -96 -44 -154.5t-85.5 -85t-140.5 -26.5q-87 0 -135.5 27t-63.5 86t-2 155l61 434h25l-61 -436q-12 -89 0.5 -142.5t55.5 -77t119 -23.5q77 0 127 24t78.5 78t40.5 143l61 434h25zM604 597l-1 17q51 2 81 32.5t41 79.5l23 -9q-8 -36 -28 -62.5
t-49.5 -41.5t-66.5 -16z" />
    <glyph glyph-name="uhorn" unicode="&#x1b0;" horiz-adv-x="556" 
d="M140 480l-51 -359q-8 -57 15 -83.5t78 -26.5q54 0 110.5 36.5t129.5 106.5l1 -24q-69 -70 -130.5 -106t-114.5 -36q-64 0 -93.5 34t-19.5 98l51 360h24zM490 480l-68 -480h-18l16 131l-1 16l47 333h24zM466 412l-1 17q51 2 81 32.5t41 79.5l23 -9q-8 -36 -28 -62.5
t-49.5 -41.5t-66.5 -16z" />
    <glyph glyph-name="uni01C4" unicode="&#x1c4;" horiz-adv-x="1204" 
d="M388 699q93 0 143.5 -34.5t63.5 -112.5t-5 -209q-13 -99 -36 -166.5t-57.5 -108.5t-85 -59t-119.5 -18q-67 0 -123.5 2.5t-106.5 6.5l15 17q48 -1 99.5 -2t114.5 -1t108.5 17t78 55t53.5 102.5t34 158.5q13 92 10 155t-24 101t-61 55.5t-102 17.5q-43 0 -81 -0.5
t-72 -1.5t-67 -2l-9 18q34 3 70.5 5t76 3t82.5 1zM184 690l-97 -690h-25l97 690h25zM1173 668l30 -1l-511 -645l-29 1zM1118 23l-4 -23h-455l4 23h455zM1206 690l-3 -23h-447l3 23h447zM1140 880l11 -12l-154 -117h-18l-120 117l11 12l116 -102h8z" />
    <glyph glyph-name="uni01C5" unicode="&#x1c5;" horiz-adv-x="1143" 
d="M388 699q93 0 143.5 -34.5t63.5 -112.5t-5 -209q-13 -99 -36 -166.5t-57.5 -108.5t-85 -59t-119.5 -18q-67 0 -123.5 2.5t-106.5 6.5l15 17q48 -1 99.5 -2t114.5 -1t108.5 17t78 55t53.5 102.5t34 158.5q13 92 10 155t-24 101t-61 55.5t-102 17.5q-43 0 -81 -0.5
t-72 -1.5t-67 -2l-9 18q34 3 70.5 5t76 3t82.5 1zM184 690l-97 -690h-25l97 690h25zM1081 459l32 -1l-410 -437l-32 1zM1054 22l-3 -22h-383l3 22h383zM1116 480l-3 -22h-377l3 22h377zM1085 698l11 -12l-154 -117h-18l-120 117l11 12l116 -102h8z" />
    <glyph glyph-name="uni01C6" unicode="&#x1c6;" horiz-adv-x="1047" 
d="M319 492q41 0 85.5 -3.5t91.5 -8.5l-10 -18q-54 3 -90.5 5.5t-74.5 2.5q-61 0 -101 -9.5t-64.5 -34.5t-38.5 -70.5t-25 -117.5q-11 -75 -9.5 -125.5t22.5 -76t68 -25.5q58 0 126 37t131 107v-27q-31 -34 -63.5 -60.5t-65.5 -44t-66 -26.5t-64 -9q-57 0 -83 29.5t-29 86
t9 138.5q11 75 27.5 124t44 76.5t71 38.5t108.5 11zM527 700l-99 -700h-18l15 133l-1 4l45 327l6 17q2 26 4 46.5t6 46.5l18 126h24zM985 459l32 -1l-410 -437l-32 1zM958 22l-3 -22h-383l3 22h383zM1020 480l-3 -22h-377l3 22h377zM989 698l11 -12l-154 -117h-18l-120 117
l11 12l116 -102h8z" />
    <glyph glyph-name="uni01C7" unicode="&#x1c7;" horiz-adv-x="823" 
d="M181 690l-82 -587q-5 -36 14 -58.5t55 -22.5h273l-1 -18q-70 -3 -139.5 -3.5t-137.5 -0.5q-30 0 -51.5 13.5t-31.5 37t-6 52.5l82 587h25zM780 690l-81 -576q-8 -60 -42 -90.5t-95 -29.5q-9 0 -20.5 1t-23 2.5t-20.5 2.5l5 16h57q50 0 79 25.5t36 75.5l80 573h25z" />
    <glyph glyph-name="uni01C8" unicode="&#x1c8;" horiz-adv-x="720" 
d="M181 690l-82 -587q-5 -36 14 -58.5t55 -22.5h273l-1 -18q-70 -3 -139.5 -3.5t-137.5 -0.5q-30 0 -51.5 13.5t-31.5 37t-6 52.5l82 587h25zM649 480l-74 -527q-4 -32 -16.5 -61t-31 -54t-41.5 -48l-12 10q30 34 50 70t27 85l74 525h24zM669 679q6 0 9 -3.5t2 -9.5l-9 -62
q-1 -11 -12 -11h-10q-14 0 -12 13l9 62q1 11 13 11h10z" />
    <glyph glyph-name="uni01C9" unicode="&#x1c9;" horiz-adv-x="484" 
d="M176 700l-85 -605q-6 -39 12 -59t56 -20h59l1 -16q-6 -2 -18 -3.5t-24.5 -2t-21.5 -0.5q-46 0 -70.5 26.5t-17.5 75.5l85 604h24zM413 480l-74 -527q-4 -32 -16.5 -61t-31 -54t-41.5 -48l-12 10q30 34 50 70t27 85l74 525h24zM433 679q6 0 9 -3.5t2 -9.5l-9 -62
q-1 -11 -12 -11h-10q-14 0 -12 13l9 62q1 11 13 11h10z" />
    <glyph glyph-name="uni01CA" unicode="&#x1ca;" horiz-adv-x="1010" 
d="M641 690l-95 -676q-1 -7 -4.5 -10.5t-11.5 -3.5h-41q-6 0 -10.5 3t-6.5 9l-238 589q-7 17 -14 33.5t-14 33.5h-25q-3 -19 -5.5 -38.5t-5.5 -39.5l-83 -590h-25l95 676q2 8 5.5 11t10.5 3h38q6 0 11 -3t7 -9l233 -576q8 -20 16 -40.5t16 -40.5h28q3 21 6 42.5t6 42.5
l82 584h25zM967 690l-81 -576q-8 -60 -42 -90.5t-95 -29.5q-9 0 -20.5 1t-23 2.5t-20.5 2.5l5 16h57q50 0 79 25.5t36 75.5l80 573h25z" />
    <glyph glyph-name="uni01CB" unicode="&#x1cb;" horiz-adv-x="907" 
d="M641 690l-95 -676q-1 -7 -4.5 -10.5t-11.5 -3.5h-41q-6 0 -10.5 3t-6.5 9l-238 589q-7 17 -14 33.5t-14 33.5h-25q-3 -19 -5.5 -38.5t-5.5 -39.5l-83 -590h-25l95 676q2 8 5.5 11t10.5 3h38q6 0 11 -3t7 -9l233 -576q8 -20 16 -40.5t16 -40.5h28q3 21 6 42.5t6 42.5
l82 584h25zM836 480l-74 -527q-4 -32 -16.5 -61t-31 -54t-41.5 -48l-12 10q30 34 50 70t27 85l74 525h24zM856 679q6 0 9 -3.5t2 -9.5l-9 -62q-1 -11 -12 -11h-10q-14 0 -12 13l9 62q1 11 13 11h10z" />
    <glyph glyph-name="uni01CC" unicode="&#x1cc;" horiz-adv-x="786" 
d="M374 492q43 0 70 -15t38 -44.5t5 -72.5l-51 -360h-24l51 359q8 59 -15 84.5t-78 25.5q-53 0 -111.5 -33t-137.5 -97l1 23q71 59 133.5 94.5t118.5 35.5zM138 480l-15 -120l1 -18l-48 -342h-24l68 480h18zM715 480l-74 -527q-4 -32 -16.5 -61t-31 -54t-41.5 -48l-12 10
q30 34 50 70t27 85l74 525h24zM735 679q6 0 9 -3.5t2 -9.5l-9 -62q-1 -11 -12 -11h-10q-14 0 -12 13l9 62q1 11 13 11h10z" />
    <glyph glyph-name="Gcaron" unicode="&#x1e6;" horiz-adv-x="620" 
d="M388 702q46 0 78.5 -2t60 -5.5t56.5 -9.5l-7 -18q-31 5 -58 7.5t-57 3.5t-72 1q-67 0 -115 -17.5t-80.5 -56.5t-53 -103.5t-33.5 -158.5q-15 -120 -5 -193t49 -106t112 -33q46 0 86 18t76.5 46.5t70.5 59.5l4 -19q-27 -30 -56 -53.5t-59.5 -40t-61.5 -25.5t-61 -9
q-82 0 -127 37t-57 116t4 206q14 98 36.5 166t58.5 109.5t88 60.5t123 19zM556 400l-58 -400h-17l12 120l1 12l37 268h25zM551 880l11 -12l-154 -117h-18l-120 117l11 12l116 -102h8z" />
    <glyph glyph-name="gcaron" unicode="&#x1e7;" horiz-adv-x="569" 
d="M481 480h25l-76 -486q-7 -47 -24.5 -84.5t-44.5 -65t-64 -43.5t-85 -21q-21 -2 -55.5 -2.5t-70.5 0.5t-64 4l3 18q29 -1 59.5 -2t60.5 0t59 4q89 9 138 55.5t64 138.5q9 56 16 91t13 51l-6 8zM319 492q29 0 58 -1.5t59.5 -4t61.5 -6.5l-10 -18q-54 3 -90.5 5.5t-75.5 2.5
q-61 0 -100 -9.5t-63.5 -34.5t-39 -70.5t-25.5 -117.5q-12 -79 -10 -129.5t25 -74t73 -23.5q33 0 75.5 16.5t88 49t86.5 78.5l5 -22q-43 -50 -90 -82t-90 -47.5t-75 -15.5q-61 0 -89.5 27.5t-32.5 83.5t10 143q12 75 28.5 123.5t43 76.5t69.5 39t108 11zM493 698l11 -12
l-154 -117h-18l-120 117l11 12l116 -102h8z" />
    <glyph glyph-name="uni01EA" unicode="&#x1ea;" horiz-adv-x="660" 
d="M386 702q95 0 146.5 -34.5t65 -113.5t-5.5 -211q-13 -98 -36 -166t-58 -109.5t-86 -60.5t-122 -19q-95 0 -146.5 34.5t-65 113.5t4.5 211q14 98 37 166t58 109.5t86.5 60.5t121.5 19zM386 679q-87 0 -142 -32t-86.5 -105.5t-49.5 -198.5q-17 -123 -5.5 -196t57 -104.5
t129.5 -31.5q87 0 142 32t87 106t49 198q18 124 7 196.5t-56 104t-132 31.5zM304 6l17 -2q-31 -27 -58.5 -58.5t-46.5 -69.5q-22 -46 1.5 -60t83.5 6l3 -12q-41 -18 -68 -19t-40 11.5t-13 33.5t12 46q13 26 38 56.5t71 67.5z" />
    <glyph glyph-name="uni01EB" unicode="&#x1eb;" 
d="M304 492q78 0 121 -25t56 -80.5t0 -148.5q-13 -92 -40.5 -147t-76.5 -79t-126 -24q-78 0 -121 25t-56 80.5t0 148.5q13 92 40.5 147t76.5 79t126 24zM304 469q-68 0 -112 -21.5t-69 -72t-37 -137.5q-12 -86 -1.5 -135.5t48 -70.5t105.5 -21t112 21.5t69 72t37 137.5
q12 86 1.5 135.5t-48 70.5t-105.5 21zM252 2l17 -2q-31 -27 -58.5 -58.5t-46.5 -69.5q-22 -46 1.5 -60t83.5 6l3 -12q-41 -18 -68 -19t-40 11.5t-13 33.5t12 46q13 26 38 56.5t71 67.5z" />
    <glyph glyph-name="Aringacute" unicode="&#x1fa;" horiz-adv-x="599" 
d="M365 630q5 0 8.5 -2.5t4.5 -7.5l165 -620h-26l-148 553q-4 14 -6 27t-6 27h-29q-7 -14 -13.5 -28t-14.5 -28l-294 -551h-28l331 622q4 8 13 8h43zM482 224l-3 -22h-380l3 22h380zM374 859q41 0 64.5 -24t23.5 -61q0 -43 -30.5 -74t-75.5 -31q-41 0 -64.5 24t-23.5 61
q0 44 31 74.5t75 30.5zM374 840q-38 0 -61.5 -26t-23.5 -58q0 -28 17 -48t50 -20q40 0 62.5 27t22.5 61q0 26 -17.5 45t-49.5 19zM456 981l13 -21l-141 -79l-11 15z" />
    <glyph glyph-name="aringacute" unicode="&#x1fb;" horiz-adv-x="564" 
d="M453 870l13 -22l-174 -89l-11 16zM319 492q22 0 43.5 -1t44 -2.5t45 -3.5t46.5 -5l-10 -18q-54 3 -90.5 5.5t-75.5 2.5q-61 0 -100 -9.5t-63.5 -34.5t-39 -70.5t-25.5 -117.5q-12 -79 -10 -129.5t25 -74t73 -23.5q33 0 75.5 16.5t88 49t86.5 78.5v-27q-42 -48 -88.5 -79
t-88.5 -46t-73 -15q-61 0 -89.5 27.5t-32.5 83.5t10 143q12 75 28.5 123.5t43 76.5t69.5 39t108 11zM473 480h25l-68 -480h-18l15 122l-2 4zM346 727q41 0 64.5 -24t23.5 -61q0 -43 -31 -74t-75 -31q-41 0 -64.5 24t-23.5 61q0 44 31 74.5t75 30.5zM346 708q-38 0 -61.5 -26
t-23.5 -58q0 -28 17 -48t50 -20q40 0 62.5 27t22.5 61q0 26 -17.5 45t-49.5 19z" />
    <glyph glyph-name="AEacute" unicode="&#x1fc;" horiz-adv-x="903" 
d="M629 690q94 0 156 -1t117 -3l-2 -18h-268q-37 0 -63 -22.5t-32 -60.5l-67 -482q-5 -36 14 -58.5t55 -22.5h270l-1 -18q-70 -3 -138 -3.5t-136 -0.5q-45 0 -70.5 29.5t-18.5 73.5l68 485q3 23 18 46t33 30h-4q-18 -7 -41 -25t-47 -48l-472 -591h-30l484 606q23 28 44 44.5
t42 25t43 11.5t46 3zM484 294l-4 -22h-277l17 22h264zM501 381l316 -1l-3 -20l-316 -1zM746 896l17 -19l-172 -141l-14 14z" />
    <glyph glyph-name="aeacute" unicode="&#x1fd;" horiz-adv-x="872" 
d="M312 492q37 0 71.5 -3t69.5 -7.5t72 -11.5l-20 -18q-41 5 -71 9t-57.5 6.5t-62.5 2.5q-60 0 -98.5 -10.5t-62.5 -36.5t-37.5 -71t-24.5 -114q-11 -76 -10 -126.5t22 -75.5t68 -25q35 0 75.5 16t83 48.5t82.5 80.5v-27q-38 -46 -79.5 -77.5t-82.5 -47.5t-80 -16
q-59 0 -85 31t-28 88t10 135q12 75 28.5 124t43.5 76.5t69 38.5t104 11zM654 492q58 0 99.5 -12t59 -43.5t2.5 -92.5q-9 -39 -27.5 -62t-50 -34t-81.5 -17l-243 -26l3 21l241 27q44 6 70 15t41 27.5t23 50.5q15 55 0 81t-50 34.5t-80 8.5q-53 0 -91.5 -8t-65.5 -31.5
t-44.5 -69t-29.5 -120.5q-14 -92 -3.5 -142t50 -69.5t111.5 -19.5q29 0 62 2t63 5.5t51 6.5l3 -18q-18 -5 -52.5 -9t-72 -6.5t-64.5 -2.5q-79 0 -121.5 25.5t-53.5 81.5t3 149q12 78 32 126.5t50 75t71 36.5t95 10zM635 714l17 -19l-172 -141l-14 14z" />
    <glyph glyph-name="Oslashacute" unicode="&#x1fe;" horiz-adv-x="660" 
d="M565 741l20 -10l-477 -782l-19 10zM386 702q95 0 146.5 -34.5t65 -113.5t-5.5 -211q-13 -98 -36 -166t-58 -109.5t-86 -60.5t-122 -19q-95 0 -146.5 34.5t-65 113.5t4.5 211q14 98 37 166t58 109.5t86.5 60.5t121.5 19zM386 679q-87 0 -142 -32t-86.5 -105.5
t-49.5 -198.5q-17 -123 -5.5 -196t57 -104.5t129.5 -31.5q87 0 142 32t87 106t49 198q18 124 7 196.5t-56 104t-132 31.5zM510 896l17 -19l-172 -141l-14 14z" />
    <glyph glyph-name="oslashacute" unicode="&#x1ff;" 
d="M445 539l18 -9l-359 -591l-18 9zM304 492q78 0 121 -25t56 -80.5t0 -148.5q-13 -92 -40.5 -147t-76.5 -79t-126 -24q-78 0 -121 25t-56 80.5t0 148.5q13 92 40.5 147t76.5 79t126 24zM304 469q-68 0 -112 -21.5t-69 -72t-37 -137.5q-12 -86 -1.5 -135.5t48 -70.5
t105.5 -21t112 21.5t69 72t37 137.5q12 86 1.5 135.5t-48 70.5t-105.5 21zM436 714l17 -19l-172 -141l-14 14z" />
    <glyph glyph-name="uni0200" unicode="&#x200;" horiz-adv-x="599" 
d="M378 690q5 0 8.5 -2.5t4.5 -7.5l152 -680h-26l-135 613q-3 14 -5.5 27t-6.5 27h-29q-7 -14 -13.5 -28t-14.5 -28l-307 -611h-28l344 682q2 5 5.5 6.5t7.5 1.5h43zM474 274l-3 -22h-350l3 22h350zM323 901l134 -156l-14 -11l-140 151zM183 901l134 -156l-14 -11l-140 151z
" />
    <glyph glyph-name="uni0201" unicode="&#x201;" horiz-adv-x="564" 
d="M319 492q22 0 43.5 -1t44 -2.5t45 -3.5t46.5 -5l-10 -18q-54 3 -90.5 5.5t-75.5 2.5q-61 0 -100 -9.5t-63.5 -34.5t-39 -70.5t-25.5 -117.5q-12 -79 -10 -129.5t25 -74t73 -23.5q33 0 75.5 16.5t88 49t86.5 78.5v-27q-42 -48 -88.5 -79t-88.5 -46t-73 -15
q-61 0 -89.5 27.5t-32.5 83.5t10 143q12 75 28.5 123.5t43 76.5t69.5 39t108 11zM473 480h25l-68 -480h-18l15 122l-2 4zM289 719l134 -156l-14 -11l-140 151zM149 719l134 -156l-14 -11l-140 151z" />
    <glyph glyph-name="uni0202" unicode="&#x202;" horiz-adv-x="599" 
d="M378 690q5 0 8.5 -2.5t4.5 -7.5l152 -680h-26l-135 613q-3 14 -5.5 27t-6.5 27h-29q-7 -14 -13.5 -28t-14.5 -28l-307 -611h-28l344 682q2 5 5.5 6.5t7.5 1.5h43zM474 274l-3 -22h-350l3 22h350zM246 755l-17 6q5 36 25 61t51.5 38.5t72.5 13.5q43 0 72 -14t42.5 -39.5
t8.5 -61.5l-18 -2q7 45 -22 69t-83 24t-90 -25t-42 -70z" />
    <glyph glyph-name="uni0203" unicode="&#x203;" horiz-adv-x="564" 
d="M319 492q22 0 43.5 -1t44 -2.5t45 -3.5t46.5 -5l-10 -18q-54 3 -90.5 5.5t-75.5 2.5q-61 0 -100 -9.5t-63.5 -34.5t-39 -70.5t-25.5 -117.5q-12 -79 -10 -129.5t25 -74t73 -23.5q33 0 75.5 16.5t88 49t86.5 78.5v-27q-42 -48 -88.5 -79t-88.5 -46t-73 -15
q-61 0 -89.5 27.5t-32.5 83.5t10 143q12 75 28.5 123.5t43 76.5t69.5 39t108 11zM473 480h25l-68 -480h-18l15 122l-2 4zM212 573l-17 6q5 36 25 61t51.5 38.5t72.5 13.5q43 0 72 -14t42.5 -39.5t8.5 -61.5l-18 -2q7 45 -22 69t-83 24t-90 -25t-42 -70z" />
    <glyph glyph-name="uni0204" unicode="&#x204;" horiz-adv-x="548" 
d="M252 690h99t98 -1t98 -3l-4 -18h-286q-41 0 -65.5 -22.5t-29.5 -60.5l-67 -482q-5 -36 14 -58.5t55 -22.5h288l1 -18q-49 -2 -98.5 -3t-98 -1h-97.5q-45 0 -70.5 29.5t-18.5 73.5l68 486q6 44 35.5 72.5t78.5 28.5zM126 381l336 -1l-3 -20l-336 -1zM329 926l134 -156
l-14 -11l-140 151zM189 926l134 -156l-14 -11l-140 151z" />
    <glyph glyph-name="uni0205" unicode="&#x205;" horiz-adv-x="526" 
d="M310 492q58 0 99.5 -12t59 -43.5t2.5 -92.5q-9 -39 -27.5 -62t-50 -34t-81.5 -17l-243 -26l3 21l241 27q44 6 70 15t41 27.5t23 50.5q15 55 0 81t-50 34.5t-80 8.5q-53 0 -91.5 -8t-65.5 -31.5t-44.5 -69t-29.5 -120.5q-14 -92 -4 -142t50 -69.5t112 -19.5q29 0 62 2
t63 5.5t51 6.5l3 -18q-18 -5 -52.5 -9t-72 -6.5t-64.5 -2.5q-79 0 -121 25.5t-53.5 81.5t2.5 149q12 78 32 126.5t50 75t71 36.5t95 10zM277 719l134 -156l-14 -11l-140 151zM137 719l134 -156l-14 -11l-140 151z" />
    <glyph glyph-name="uni0206" unicode="&#x206;" horiz-adv-x="548" 
d="M252 690h99t98 -1t98 -3l-4 -18h-286q-41 0 -65.5 -22.5t-29.5 -60.5l-67 -482q-5 -36 14 -58.5t55 -22.5h288l1 -18q-49 -2 -98.5 -3t-98 -1h-97.5q-45 0 -70.5 29.5t-18.5 73.5l68 486q6 44 35.5 72.5t78.5 28.5zM126 381l336 -1l-3 -20l-336 -1zM252 780l-17 6
q5 36 25 61t51.5 38.5t72.5 13.5q43 0 72 -14t42.5 -39.5t8.5 -61.5l-18 -2q7 45 -22 69t-83 24t-90 -25t-42 -70z" />
    <glyph glyph-name="uni0207" unicode="&#x207;" horiz-adv-x="526" 
d="M310 492q58 0 99.5 -12t59 -43.5t2.5 -92.5q-9 -39 -27.5 -62t-50 -34t-81.5 -17l-243 -26l3 21l241 27q44 6 70 15t41 27.5t23 50.5q15 55 0 81t-50 34.5t-80 8.5q-53 0 -91.5 -8t-65.5 -31.5t-44.5 -69t-29.5 -120.5q-14 -92 -4 -142t50 -69.5t112 -19.5q29 0 62 2
t63 5.5t51 6.5l3 -18q-18 -5 -52.5 -9t-72 -6.5t-64.5 -2.5q-79 0 -121 25.5t-53.5 81.5t2.5 149q12 78 32 126.5t50 75t71 36.5t95 10zM200 573l-17 6q5 36 25 61t51.5 38.5t72.5 13.5q43 0 72 -14t42.5 -39.5t8.5 -61.5l-18 -2q7 45 -22 69t-83 24t-90 -25t-42 -70z" />
    <glyph glyph-name="uni0208" unicode="&#x208;" horiz-adv-x="231" 
d="M184 690l-97 -690h-25l97 690h25zM140 901l134 -156l-14 -11l-140 151zM0 901l134 -156l-14 -11l-140 151z" />
    <glyph glyph-name="uni0209" unicode="&#x209;" horiz-adv-x="218" 
d="M148 480l-68 -480h-24l68 480h24zM108 719l134 -156l-14 -11l-140 151zM-32 719l134 -156l-14 -11l-140 151z" />
    <glyph glyph-name="uni020A" unicode="&#x20a;" horiz-adv-x="231" 
d="M184 690l-97 -690h-25l97 690h25zM63 755l-17 6q5 36 25 61t51.5 38.5t72.5 13.5q43 0 72 -14t42.5 -39.5t8.5 -61.5l-18 -2q7 45 -22 69t-83 24t-90 -25t-42 -70z" />
    <glyph glyph-name="uni020B" unicode="&#x20b;" horiz-adv-x="218" 
d="M148 480l-68 -480h-24l68 480h24zM31 573l-17 6q5 36 25 61t51.5 38.5t72.5 13.5q43 0 72 -14t42.5 -39.5t8.5 -61.5l-18 -2q7 45 -22 69t-83 24t-90 -25t-42 -70z" />
    <glyph glyph-name="uni020C" unicode="&#x20c;" horiz-adv-x="660" 
d="M386 702q95 0 146.5 -34.5t65 -113.5t-5.5 -211q-13 -98 -36 -166t-58 -109.5t-86 -60.5t-122 -19q-95 0 -146.5 34.5t-65 113.5t4.5 211q14 98 37 166t58 109.5t86.5 60.5t121.5 19zM386 679q-87 0 -142 -32t-86.5 -105.5t-49.5 -198.5q-17 -123 -5.5 -196t57 -104.5
t129.5 -31.5q87 0 142 32t87 106t49 198q18 124 7 196.5t-56 104t-132 31.5zM351 901l134 -156l-14 -11l-140 151zM211 901l134 -156l-14 -11l-140 151z" />
    <glyph glyph-name="uni020D" unicode="&#x20d;" 
d="M304 492q78 0 121 -25t56 -80.5t0 -148.5q-13 -92 -40.5 -147t-76.5 -79t-126 -24q-78 0 -121 25t-56 80.5t0 148.5q13 92 40.5 147t76.5 79t126 24zM304 469q-68 0 -112 -21.5t-69 -72t-37 -137.5q-12 -86 -1.5 -135.5t48 -70.5t105.5 -21t112 21.5t69 72t37 137.5
q12 86 1.5 135.5t-48 70.5t-105.5 21zM277 719l134 -156l-14 -11l-140 151zM137 719l134 -156l-14 -11l-140 151z" />
    <glyph glyph-name="uni020E" unicode="&#x20e;" horiz-adv-x="660" 
d="M386 702q95 0 146.5 -34.5t65 -113.5t-5.5 -211q-13 -98 -36 -166t-58 -109.5t-86 -60.5t-122 -19q-95 0 -146.5 34.5t-65 113.5t4.5 211q14 98 37 166t58 109.5t86.5 60.5t121.5 19zM386 679q-87 0 -142 -32t-86.5 -105.5t-49.5 -198.5q-17 -123 -5.5 -196t57 -104.5
t129.5 -31.5q87 0 142 32t87 106t49 198q18 124 7 196.5t-56 104t-132 31.5zM274 755l-17 6q5 36 25 61t51.5 38.5t72.5 13.5q43 0 72 -14t42.5 -39.5t8.5 -61.5l-18 -2q7 45 -22 69t-83 24t-90 -25t-42 -70z" />
    <glyph glyph-name="uni020F" unicode="&#x20f;" 
d="M304 492q78 0 121 -25t56 -80.5t0 -148.5q-13 -92 -40.5 -147t-76.5 -79t-126 -24q-78 0 -121 25t-56 80.5t0 148.5q13 92 40.5 147t76.5 79t126 24zM304 469q-68 0 -112 -21.5t-69 -72t-37 -137.5q-12 -86 -1.5 -135.5t48 -70.5t105.5 -21t112 21.5t69 72t37 137.5
q12 86 1.5 135.5t-48 70.5t-105.5 21zM200 573l-17 6q5 36 25 61t51.5 38.5t72.5 13.5q43 0 72 -14t42.5 -39.5t8.5 -61.5l-18 -2q7 45 -22 69t-83 24t-90 -25t-42 -70z" />
    <glyph glyph-name="uni0210" unicode="&#x210;" horiz-adv-x="606" 
d="M379 698q74 0 115.5 -17t55.5 -59.5t3 -119.5q-9 -62 -28 -99.5t-49.5 -56.5t-76.5 -26v-4q17 -5 29.5 -19t21.5 -34t13 -43l45 -220h-27l-44 219q-10 50 -35 70t-64 21q-58 1 -101 1.5t-72.5 1.5t-46.5 2l4 18h207q64 1 104 16t62.5 52.5t31.5 104.5q10 68 -1.5 104.5
t-46.5 50.5t-99 14q-76 0 -132 -0.5t-76 -2.5l-13 18q36 4 66.5 5.5t66.5 2t87 0.5zM184 690l-97 -690h-25l97 690h25zM335 901l134 -156l-14 -11l-140 151zM195 901l134 -156l-14 -11l-140 151z" />
    <glyph glyph-name="uni0211" unicode="&#x211;" horiz-adv-x="383" 
d="M138 480l-15 -121l1 -16l-48 -343h-24l68 480h18zM388 492l-8 -23h-16q-53 0 -109.5 -34.5t-133.5 -98.5l1 24q68 62 129.5 97t116.5 35h20zM220 719l134 -156l-14 -11l-140 151zM80 719l134 -156l-14 -11l-140 151z" />
    <glyph glyph-name="uni0212" unicode="&#x212;" horiz-adv-x="606" 
d="M379 698q74 0 115.5 -17t55.5 -59.5t3 -119.5q-9 -62 -28 -99.5t-49.5 -56.5t-76.5 -26v-4q17 -5 29.5 -19t21.5 -34t13 -43l45 -220h-27l-44 219q-10 50 -35 70t-64 21q-58 1 -101 1.5t-72.5 1.5t-46.5 2l4 18h207q64 1 104 16t62.5 52.5t31.5 104.5q10 68 -1.5 104.5
t-46.5 50.5t-99 14q-76 0 -132 -0.5t-76 -2.5l-13 18q36 4 66.5 5.5t66.5 2t87 0.5zM184 690l-97 -690h-25l97 690h25zM258 755l-17 6q5 36 25 61t51.5 38.5t72.5 13.5q43 0 72 -14t42.5 -39.5t8.5 -61.5l-18 -2q7 45 -22 69t-83 24t-90 -25t-42 -70z" />
    <glyph glyph-name="uni0213" unicode="&#x213;" horiz-adv-x="383" 
d="M138 480l-15 -121l1 -16l-48 -343h-24l68 480h18zM388 492l-8 -23h-16q-53 0 -109.5 -34.5t-133.5 -98.5l1 24q68 62 129.5 97t116.5 35h20zM143 573l-17 6q5 36 25 61t51.5 38.5t72.5 13.5q43 0 72 -14t42.5 -39.5t8.5 -61.5l-18 -2q7 45 -22 69t-83 24t-90 -25t-42 -70
z" />
    <glyph glyph-name="uni0214" unicode="&#x214;" horiz-adv-x="667" 
d="M625 690l-61 -436q-13 -96 -44 -154.5t-85.5 -85t-140.5 -26.5q-87 0 -135.5 27t-63.5 86t-2 155l61 434h25l-61 -436q-12 -89 0.5 -142.5t55.5 -77t119 -23.5q77 0 127 24t78.5 78t40.5 143l61 434h25zM351 901l134 -156l-14 -11l-140 151zM211 901l134 -156l-14 -11
l-140 151z" />
    <glyph glyph-name="uni0215" unicode="&#x215;" horiz-adv-x="556" 
d="M140 480l-51 -359q-8 -57 15 -83.5t78 -26.5q54 0 110.5 36.5t129.5 106.5l1 -24q-69 -70 -130.5 -106t-114.5 -36q-64 0 -93.5 34t-19.5 98l51 360h24zM490 480l-68 -480h-18l16 131l-1 16l47 333h24zM273 719l134 -156l-14 -11l-140 151zM133 719l134 -156l-14 -11
l-140 151z" />
    <glyph glyph-name="uni0216" unicode="&#x216;" horiz-adv-x="667" 
d="M625 690l-61 -436q-13 -96 -44 -154.5t-85.5 -85t-140.5 -26.5q-87 0 -135.5 27t-63.5 86t-2 155l61 434h25l-61 -436q-12 -89 0.5 -142.5t55.5 -77t119 -23.5q77 0 127 24t78.5 78t40.5 143l61 434h25zM274 755l-17 6q5 36 25 61t51.5 38.5t72.5 13.5q43 0 72 -14
t42.5 -39.5t8.5 -61.5l-18 -2q7 45 -22 69t-83 24t-90 -25t-42 -70z" />
    <glyph glyph-name="uni0217" unicode="&#x217;" horiz-adv-x="556" 
d="M140 480l-51 -359q-8 -57 15 -83.5t78 -26.5q54 0 110.5 36.5t129.5 106.5l1 -24q-69 -70 -130.5 -106t-114.5 -36q-64 0 -93.5 34t-19.5 98l51 360h24zM490 480l-68 -480h-18l16 131l-1 16l47 333h24zM196 573l-17 6q5 36 25 61t51.5 38.5t72.5 13.5q43 0 72 -14
t42.5 -39.5t8.5 -61.5l-18 -2q7 45 -22 69t-83 24t-90 -25t-42 -70z" />
    <glyph glyph-name="uni0218" unicode="&#x218;" horiz-adv-x="553" 
d="M266 -65q4 0 5.5 -2t1.5 -8l-9 -60q-3 -16 -8 -35.5t-12 -40t-14 -37.5l-14 4q9 27 13.5 48t9.5 54q-3 0 -4.5 2.5t-0.5 6.5l9 58q0 6 2.5 8t9.5 2h11zM329 701q49 -1 95.5 -4t90.5 -8l-4 -19q-44 3 -74.5 5t-59 2.5t-66.5 0.5q-34 0 -65.5 -3t-56.5 -15t-42.5 -40
t-23.5 -78q-4 -37 1 -63.5t25 -47t60 -38.5l150 -63q52 -22 79.5 -45.5t35.5 -55.5t1 -82q-11 -73 -43 -106.5t-83.5 -42.5t-121.5 -9q-28 0 -77.5 2t-112.5 9l4 19q37 -3 69 -4.5t64 -2t67 -0.5q62 1 104.5 10t68 38.5t35.5 90.5q6 43 0.5 69.5t-27.5 46t-64 37.5l-150 63
q-48 21 -74 45t-34 56t-3 78q8 56 27.5 88t50 46.5t69.5 18t85 2.5z" />
    <glyph glyph-name="uni0219" unicode="&#x219;" horiz-adv-x="498" 
d="M224 -65q4 0 5.5 -2t1.5 -8l-9 -60q-3 -16 -8 -35.5t-12 -40t-14 -37.5l-14 4q9 27 13.5 48t9.5 54q-3 0 -4.5 2.5t-0.5 6.5l9 58q0 6 2.5 8t9.5 2h11zM264 492q31 0 63 -1.5t63 -4t60 -6.5l-4 -18q-43 3 -90 5t-91 3q-56 1 -90.5 -3t-53 -22.5t-25.5 -61.5
q-7 -45 8.5 -64.5t55.5 -34.5l160 -60q33 -12 55.5 -26t32.5 -36.5t4 -61.5q-7 -52 -33.5 -75.5t-70.5 -30t-105 -6.5q-21 0 -47 0.5t-56.5 3.5t-66.5 8l4 18q31 -3 58 -5t54 -2.5t58 -0.5q61 1 99 8t57.5 26.5t24.5 59.5q5 32 -3 50t-25 28t-42 19l-159 60q-29 11 -51 23.5
t-32 36t-4 66.5q8 50 32 72.5t64 28t96 4.5z" />
    <glyph glyph-name="uni021A" unicode="&#x21a;" horiz-adv-x="558" 
d="M233 -65q4 0 5.5 -2t1.5 -8l-9 -60q-3 -16 -8 -35.5t-12 -40t-14 -37.5l-14 4q9 27 13.5 48t9.5 54q-3 0 -4.5 2.5t-0.5 6.5l9 58q0 6 2.5 8t9.5 2h11zM347 690l-97 -690h-25l97 690h25zM590 690l-3 -22h-510l3 22h510z" />
    <glyph glyph-name="uni021B" unicode="&#x21b;" horiz-adv-x="341" 
d="M172 -65q4 0 5.5 -2t1.5 -8l-9 -60q-3 -16 -8 -35.5t-12 -40t-14 -37.5l-14 4q9 27 13.5 48t9.5 54q-3 0 -4.5 2.5t-0.5 6.5l9 58q0 6 2.5 8t9.5 2h11zM189 631l-75 -536q-6 -40 12 -59.5t56 -19.5h89l1 -16q-13 -2 -30 -3.5t-32 -2t-23 -0.5q-56 0 -80 26.5t-17 75.5
l75 535h24zM346 480l-4 -22h-289l3 17l94 5h196z" />
    <glyph glyph-name="uni022A" unicode="&#x22a;" horiz-adv-x="660" 
d="M386 702q95 0 146.5 -34.5t65 -113.5t-5.5 -211q-13 -98 -36 -166t-58 -109.5t-86 -60.5t-122 -19q-95 0 -146.5 34.5t-65 113.5t4.5 211q14 98 37 166t58 109.5t86.5 60.5t121.5 19zM386 679q-87 0 -142 -32t-86.5 -105.5t-49.5 -198.5q-17 -123 -5.5 -196t57 -104.5
t129.5 -31.5q87 0 142 32t87 106t49 198q18 124 7 196.5t-56 104t-132 31.5zM323 827q9 0 8 -10l-7 -49q-1 -7 -3.5 -9t-8.5 -2h-6q-10 0 -9 10l7 50q1 5 3.5 7.5t7.5 2.5h8zM484 827q5 0 7 -2.5t1 -7.5l-7 -49q-1 -7 -3.5 -9t-8.5 -2h-6q-10 0 -9 10l7 50q1 10 11 10h8z
M528 912l-3 -21h-236l3 21h236z" />
    <glyph glyph-name="uni022B" unicode="&#x22b;" 
d="M304 492q78 0 121 -25t56 -80.5t0 -148.5q-13 -92 -40.5 -147t-76.5 -79t-126 -24q-78 0 -121 25t-56 80.5t0 148.5q13 92 40.5 147t76.5 79t126 24zM304 469q-68 0 -112 -21.5t-69 -72t-37 -137.5q-12 -86 -1.5 -135.5t48 -70.5t105.5 -21t112 21.5t69 72t37 137.5
q12 86 1.5 135.5t-48 70.5t-105.5 21zM249 645q9 0 8 -10l-7 -49q-1 -7 -3.5 -9t-8.5 -2h-6q-10 0 -9 10l7 50q1 5 3.5 7.5t7.5 2.5h8zM410 645q5 0 7 -2.5t1 -7.5l-7 -49q-1 -7 -3.5 -9t-8.5 -2h-6q-10 0 -9 10l7 50q1 10 11 10h8zM454 730l-3 -21h-236l3 21h236z" />
    <glyph glyph-name="uni022C" unicode="&#x22c;" horiz-adv-x="660" 
d="M386 702q95 0 146.5 -34.5t65 -113.5t-5.5 -211q-13 -98 -36 -166t-58 -109.5t-86 -60.5t-122 -19q-95 0 -146.5 34.5t-65 113.5t4.5 211q14 98 37 166t58 109.5t86.5 60.5t121.5 19zM386 679q-87 0 -142 -32t-86.5 -105.5t-49.5 -198.5q-17 -123 -5.5 -196t57 -104.5
t129.5 -31.5q87 0 142 32t87 106t49 198q18 124 7 196.5t-56 104t-132 31.5zM332 846q22 -2 37.5 -12t28.5 -22.5t28 -22t36 -11.5q32 -2 48.5 13.5t20.5 50.5l17 -2q-4 -43 -27 -64.5t-58 -19.5q-25 2 -42 11.5t-30 22t-26.5 22.5t-31.5 12q-31 3 -48 -14t-22 -54l-17 2
q5 46 28.5 68.5t57.5 19.5zM531 933l-3 -21h-236l3 21h236z" />
    <glyph glyph-name="uni022D" unicode="&#x22d;" 
d="M304 492q78 0 121 -25t56 -80.5t0 -148.5q-13 -92 -40.5 -147t-76.5 -79t-126 -24q-78 0 -121 25t-56 80.5t0 148.5q13 92 40.5 147t76.5 79t126 24zM304 469q-68 0 -112 -21.5t-69 -72t-37 -137.5q-12 -86 -1.5 -135.5t48 -70.5t105.5 -21t112 21.5t69 72t37 137.5
q12 86 1.5 135.5t-48 70.5t-105.5 21zM258 664q22 -2 37.5 -12t28.5 -22.5t28 -22t36 -11.5q32 -2 48.5 13.5t20.5 50.5l17 -2q-4 -43 -27 -64.5t-58 -19.5q-25 2 -42 11.5t-30 22t-26.5 22.5t-31.5 12q-31 3 -48 -14t-22 -54l-17 2q5 46 28.5 68.5t57.5 19.5zM457 751
l-3 -21h-236l3 21h236z" />
    <glyph glyph-name="uni0230" unicode="&#x230;" horiz-adv-x="660" 
d="M386 702q95 0 146.5 -34.5t65 -113.5t-5.5 -211q-13 -98 -36 -166t-58 -109.5t-86 -60.5t-122 -19q-95 0 -146.5 34.5t-65 113.5t4.5 211q14 98 37 166t58 109.5t86.5 60.5t121.5 19zM386 679q-87 0 -142 -32t-86.5 -105.5t-49.5 -198.5q-17 -123 -5.5 -196t57 -104.5
t129.5 -31.5q87 0 142 32t87 106t49 198q18 124 7 196.5t-56 104t-132 31.5zM529 922l-3 -21h-236l3 21h236zM406 835q5 0 7.5 -3t1.5 -9l-7 -54q-1 -12 -13 -12h-8q-11 0 -10 12l7 54q2 12 12 12h10z" />
    <glyph glyph-name="uni0231" unicode="&#x231;" 
d="M304 492q78 0 121 -25t56 -80.5t0 -148.5q-13 -92 -40.5 -147t-76.5 -79t-126 -24q-78 0 -121 25t-56 80.5t0 148.5q13 92 40.5 147t76.5 79t126 24zM304 469q-68 0 -112 -21.5t-69 -72t-37 -137.5q-12 -86 -1.5 -135.5t48 -70.5t105.5 -21t112 21.5t69 72t37 137.5
q12 86 1.5 135.5t-48 70.5t-105.5 21zM455 740l-3 -21h-236l3 21h236zM332 653q5 0 7.5 -3t1.5 -9l-7 -54q-1 -12 -13 -12h-8q-11 0 -10 12l7 54q2 12 12 12h10z" />
    <glyph glyph-name="uni0232" unicode="&#x232;" horiz-adv-x="535" 
d="M569 690l-300 -440l-18 1l-178 439h26l134 -334q7 -16 14 -34t14 -35h6q11 17 24 35.5t23 34.5l227 333h28zM277 281l-40 -281h-25l40 281h25zM465 827l-3 -23h-260l3 23h260z" />
    <glyph glyph-name="uni0233" unicode="&#x233;" horiz-adv-x="511" 
d="M487 480q-11 -41 -25 -83t-31 -85t-37.5 -86t-43.5 -85t-49 -83q-48 -73 -88.5 -129.5t-81 -91.5t-88.5 -47l-4 15q33 11 62 33.5t57 55.5t57 75.5t62 93.5q47 74 80 141.5t58.5 135t46.5 140.5h25zM82 480l93 -433q7 -26 32 -26l51 1l-13 -22h-45q-17 0 -29.5 10.5
t-16.5 26.5l-98 443h26zM422 645l-3 -23h-260l3 23h260z" />
    <glyph glyph-name="uni0237" unicode="&#x237;" horiz-adv-x="219" 
d="M148 480l-74 -527q-4 -32 -16.5 -61t-31 -54t-41.5 -48l-12 10q30 34 50 70t27 85l74 525h24z" />
    <glyph glyph-name="uni0259" unicode="&#x259;" horiz-adv-x="526" 
d="M216 -12q-58 0 -99.5 12t-58.5 44t-3 92q10 40 28 62.5t50 34t81 16.5l243 26l-3 -21l-241 -27q-43 -5 -69.5 -14.5t-41 -27.5t-23.5 -51q-14 -54 0.5 -80.5t49.5 -35t80 -8.5q53 0 91.5 8t65.5 31.5t44.5 69t29.5 120.5q15 92 4.5 142t-50 69.5t-112.5 19.5
q-29 0 -62 -2t-63 -5.5t-51 -6.5l-3 18q19 5 53 9t71.5 6.5t64.5 2.5q79 0 121.5 -25t53.5 -81.5t-3 -149.5q-12 -78 -32 -126.5t-50 -75t-71 -36.5t-95 -10z" />
    <glyph glyph-name="uni02B9" unicode="&#x2b9;" horiz-adv-x="241" 
d="M238 746l-96 -208h-18l90 208h24z" />
    <glyph glyph-name="uni02BA" unicode="&#x2ba;" horiz-adv-x="342" 
d="M339 746l-96 -208h-18l90 208h24zM238 746l-96 -208h-18l90 208h24z" />
    <glyph glyph-name="uni02BB" unicode="&#x2bb;" horiz-adv-x="205" 
d="M144 542q-5 0 -7 2.5t-1 8.5l10 66q3 18 8.5 39.5t13 44t15.5 41.5l15 -5q-9 -30 -14 -53t-11 -59q3 0 5 -2.5t1 -7.5l-10 -64q-1 -6 -3 -8.5t-10 -2.5h-12z" />
    <glyph glyph-name="uni02BE" unicode="&#x2be;" horiz-adv-x="186" 
d="M86 562q38 0 61.5 26t23.5 58q0 28 -16 47.5t-48 20.5l3 19q38 -2 60 -25t22 -60q0 -43 -31 -74t-78 -31z" />
    <glyph glyph-name="uni02BF" unicode="&#x2bf;" horiz-adv-x="186" 
d="M212 714q-38 0 -61.5 -26t-23.5 -58q0 -28 16.5 -47t47.5 -21l-3 -19q-38 2 -60 25t-22 60q0 44 31.5 74.5t77.5 30.5z" />
    <glyph glyph-name="circumflex" unicode="&#x2c6;" horiz-adv-x="392" 
d="M270 704l121 -117l-12 -12l-115 102h-9l-145 -103l-10 13l152 117h18z" />
    <glyph glyph-name="caron" unicode="&#x2c7;" horiz-adv-x="392" 
d="M395 704l11 -12l-154 -117h-18l-120 117l11 12l116 -102h8z" />
    <glyph glyph-name="uni02C8" unicode="&#x2c8;" horiz-adv-x="198" 
d="M157 588h-22l18 97h22z" />
    <glyph glyph-name="uni02C9" unicode="&#x2c9;" horiz-adv-x="400" 
d="M387 648l-3 -23h-260l3 23h260z" />
    <glyph glyph-name="uni02CA" unicode="&#x2ca;" horiz-adv-x="277" 
d="M273 710l17 -19l-172 -141l-14 14z" />
    <glyph glyph-name="uni02CB" unicode="&#x2cb;" horiz-adv-x="277" 
d="M132 709l129 -147l-14 -12l-134 141z" />
    <glyph glyph-name="uni02CC" unicode="&#x2cc;" horiz-adv-x="199" 
d="M52 -161h-22l18 97h22z" />
    <glyph glyph-name="breve" unicode="&#x2d8;" horiz-adv-x="357" 
d="M360 688l17 -6q-5 -35 -24.5 -60.5t-51.5 -39t-73 -13.5q-42 0 -71.5 14t-43 40t-8.5 61l18 2q-7 -45 22 -69t83 -24t90 25t42 70z" />
    <glyph glyph-name="dotaccent" unicode="&#x2d9;" horiz-adv-x="206" 
d="M169 676q6 0 8.5 -3t1.5 -10l-8 -60q-1 -13 -14 -13h-9q-6 0 -9 3.5t-2 9.5l8 60q1 7 3.5 10t9.5 3h11z" />
    <glyph glyph-name="ring" unicode="&#x2da;" horiz-adv-x="292" 
d="M211 733q41 0 64.5 -24t23.5 -61q0 -43 -31 -74t-75 -31q-41 0 -64.5 24t-23.5 61q0 44 31 74.5t75 30.5zM211 714q-38 0 -61.5 -26t-23.5 -58q0 -28 17 -48t50 -20q40 0 62.5 27t22.5 61q0 26 -17.5 45t-49.5 19z" />
    <glyph glyph-name="ogonek" unicode="&#x2db;" horiz-adv-x="253" 
d="M114 2l17 -2q-31 -27 -58.5 -58.5t-46.5 -69.5q-22 -46 1.5 -60t83.5 6l3 -12q-41 -18 -68 -19t-40 11.5t-13 33.5t12 46q13 26 38 56.5t71 67.5z" />
    <glyph glyph-name="tilde" unicode="&#x2dc;" horiz-adv-x="400" 
d="M191 687q22 -2 37.5 -12t28.5 -22t28 -22t36 -12q32 -2 48.5 13.5t20.5 50.5l17 -2q-4 -43 -27 -65t-58 -19q-25 2 -42 12t-30 22t-26.5 22t-31.5 12q-31 3 -48 -14t-22 -54l-17 2q5 46 28.5 68.5t57.5 19.5z" />
    <glyph glyph-name="hungarumlaut" unicode="&#x2dd;" horiz-adv-x="410" 
d="M243 715l20 -16l-140 -151l-14 11zM383 715l20 -16l-140 -151l-14 11z" />
    <glyph glyph-name="acutecomb" unicode="&#x301;" horiz-adv-x="0" 
d="M-5 710l17 -19l-172 -141l-14 14z" />
    <glyph glyph-name="uni0302" unicode="&#x302;" horiz-adv-x="0" 
d="M-131 704l121 -117l-12 -12l-115 102h-9l-145 -103l-10 13l152 117h18z" />
    <glyph glyph-name="tildecomb" unicode="&#x303;" horiz-adv-x="0" 
d="M-213 687q22 -2 37.5 -12t28.5 -22t28 -22t36 -12q32 -2 48.5 13.5t20.5 50.5l17 -2q-4 -43 -27 -65t-58 -19q-25 2 -42 12t-30 22t-26.5 22t-31.5 12q-31 3 -48 -14t-22 -54l-17 2q5 46 28.5 68.5t57.5 19.5z" />
    <glyph glyph-name="uni0304" unicode="&#x304;" horiz-adv-x="0" 
d="M-13 648l-3 -23h-260l3 23h260z" />
    <glyph glyph-name="uni0306" unicode="&#x306;" horiz-adv-x="0" 
d="M-3 688l17 -6q-5 -35 -24.5 -60.5t-51.5 -39t-73 -13.5q-42 0 -71.5 14t-43 40t-8.5 61l18 2q-7 -45 22 -69t83 -24t90 25t42 70z" />
    <glyph glyph-name="uni0307" unicode="&#x307;" horiz-adv-x="0" 
d="M-37 676q6 0 8.5 -3t1.5 -10l-8 -60q-1 -13 -14 -13h-9q-6 0 -9 3.5t-2 9.5l8 60q1 7 3.5 10t9.5 3h11z" />
    <glyph glyph-name="uni0308" unicode="&#x308;" horiz-adv-x="0" 
d="M-229 678q6 0 8 -3t1 -9l-8 -53q-1 -7 -3.5 -10t-9.5 -3h-7q-11 0 -10 12l8 54q1 6 3.5 9t8.5 3h9zM-52 678q6 0 8 -3t1 -9l-8 -53q-1 -7 -3.5 -10t-9.5 -3h-7q-11 0 -10 12l8 54q1 6 3.5 9t8.5 3h9z" />
    <glyph glyph-name="hookabovecomb" unicode="&#x309;" horiz-adv-x="0" 
d="M-123 579q45 12 67 39t22 61q0 28 -21 36.5t-65 -0.5l-1 15q48 13 79.5 1.5t31.5 -49.5q0 -42 -29.5 -74.5t-80.5 -42.5z" />
    <glyph glyph-name="uni030A" unicode="&#x30a;" horiz-adv-x="0" 
d="M-89 733q41 0 64.5 -24t23.5 -61q0 -43 -31 -74t-75 -31q-41 0 -64.5 24t-23.5 61q0 44 31 74.5t75 30.5zM-89 714q-38 0 -61.5 -26t-23.5 -58q0 -28 17 -48t50 -20q40 0 62.5 27t22.5 61q0 26 -17.5 45t-49.5 19z" />
    <glyph glyph-name="uni030B" unicode="&#x30b;" horiz-adv-x="0" 
d="M-171 715l20 -16l-140 -151l-14 11zM-31 715l20 -16l-140 -151l-14 11z" />
    <glyph glyph-name="uni030C" unicode="&#x30c;" horiz-adv-x="0" 
d="M-5 704l11 -12l-154 -117h-18l-120 117l11 12l116 -102h8z" />
    <glyph glyph-name="uni030F" unicode="&#x30f;" horiz-adv-x="0" 
d="M-155 715l134 -156l-14 -11l-140 151zM-295 715l134 -156l-14 -11l-140 151z" />
    <glyph glyph-name="uni0311" unicode="&#x311;" horiz-adv-x="0" 
d="M-256 569l-17 6q5 36 25 61t51.5 38.5t72.5 13.5q43 0 72 -14t42.5 -39.5t8.5 -61.5l-18 -2q7 45 -22 69t-83 24t-90 -25t-42 -70z" />
    <glyph glyph-name="uni0312" unicode="&#x312;" horiz-adv-x="0" 
d="M-149 554q-4 0 -5.5 2t-0.5 6l7 51q3 21 11 49t18 49l12 -4q-7 -22 -12 -42.5t-8 -45.5q6 0 4 -8l-7 -49q-1 -4 -3 -6t-7 -2h-9z" />
    <glyph glyph-name="uni031B" unicode="&#x31b;" horiz-adv-x="0" 
d="M-142 418l-1 17q51 2 81 32.5t41 79.5l23 -9q-8 -36 -28 -62.5t-49.5 -41.5t-66.5 -16z" />
    <glyph glyph-name="dotbelowcomb" unicode="&#x323;" horiz-adv-x="0" 
d="M-211 -64q6 0 8.5 -3t1.5 -10l-8 -60q-1 -13 -14 -13h-9q-6 0 -9 3.5t-2 9.5l8 60q1 7 3.5 10t9.5 3h11z" />
    <glyph glyph-name="uni0324" unicode="&#x324;" horiz-adv-x="0" 
d="M-334 -68q6 0 8 -3t1 -9l-8 -53q-1 -7 -3.5 -10t-9.5 -3h-7q-11 0 -10 12l8 54q1 6 3.5 9t8.5 3h9zM-157 -68q6 0 8 -3t1 -9l-8 -53q-1 -7 -3.5 -10t-9.5 -3h-7q-11 0 -10 12l8 54q1 6 3.5 9t8.5 3h9z" />
    <glyph glyph-name="uni0327" unicode="&#x327;" horiz-adv-x="0" 
d="M-162 -49q26 2 43 -5t24 -22t3 -40q-4 -33 -24.5 -58.5t-53.5 -37.5t-75 -7l5 15q53 -2 87.5 26t39.5 66q4 27 -7.5 37.5t-44.5 11.5z" />
    <glyph glyph-name="uni0328" unicode="&#x328;" horiz-adv-x="0" 
d="M-145 2l17 -2q-31 -27 -58.5 -58.5t-46.5 -69.5q-22 -46 1.5 -60t83.5 6l3 -12q-41 -18 -68 -19t-40 11.5t-13 33.5t12 46q13 26 38 56.5t71 67.5z" />
    <glyph glyph-name="uni032E" unicode="&#x32e;" horiz-adv-x="0" 
d="M-105 -42l17 -6q-5 -35 -24.5 -60.5t-51.5 -39t-73 -13.5q-42 0 -71.5 14t-43 40t-8.5 61l18 2q-7 -45 22 -69t83 -24t90 25t42 70z" />
    <glyph glyph-name="uni0331" unicode="&#x331;" horiz-adv-x="0" 
d="M-116 -86l-3 -23h-260l3 23h260z" />
    <glyph glyph-name="uni0394" unicode="&#x394;" horiz-adv-x="609" 
d="M375 690l162 -668l-3 -22h-540l3 22l350 668h28zM358 663q-8 -18 -17 -35t-17 -34l-300 -572h487l-137 575q-4 17 -8 33.5t-8 32.5z" />
    <glyph glyph-name="uni03A9" unicode="&#x3a9;" horiz-adv-x="715" 
d="M417 702q140 0 192 -88t28 -259q-11 -82 -36.5 -143t-67.5 -106.5t-103 -83.5h29h30h136l-3 -22h-228l2 22q68 41 111.5 88.5t68 108t35.5 138.5q16 110 0.5 181t-63.5 106t-132 35q-88 0 -147 -35.5t-93.5 -108t-50.5 -183.5q-12 -85 -2.5 -144t40 -102t81.5 -84l-2 -22
h-228l3 22h134h31h32q-50 39 -79.5 86t-37.5 108.5t3 142.5q16 113 53.5 189.5t102.5 115t161 38.5z" />
    <glyph glyph-name="uni03BC" unicode="&#x3bc;" horiz-adv-x="574" 
d="M149 480l-51 -359q-7 -57 15 -83.5t77 -26.5q47 0 99 23.5t93 67t55 104.5l-7 -70q-31 -51 -73 -84t-86.5 -48.5t-81.5 -15.5q-43 0 -70.5 15t-39 44.5t-5.5 72.5l51 360h24zM499 480l-55 -390q-4 -31 -0.5 -53t34.5 -22h44l1 -15q-10 -3 -24.5 -4.5t-28.5 -1.5
q-37 0 -45.5 24.5t-2.5 65.5l8 53l-1 20l46 323h24zM93 91l-28 -196l-19 -92h-17l49 342z" />
    <glyph glyph-name="pi" unicode="&#x3c0;" horiz-adv-x="637" 
d="M523 480l-68 -480h-24l68 480h24zM191 480l-68 -480h-24l68 480h24zM634 480l-3 -21h-578l3 21h578z" />
    <glyph glyph-name="uni0400" unicode="&#x400;" horiz-adv-x="548" 
d="M252 690h99t98 -1t98 -3l-4 -18h-286q-41 0 -65.5 -22.5t-29.5 -60.5l-67 -482q-5 -36 14 -58.5t55 -22.5h288l1 -18q-49 -2 -98.5 -3t-98 -1h-97.5q-45 0 -70.5 29.5t-18.5 73.5l68 486q6 44 35.5 72.5t78.5 28.5zM126 381l336 -1l-3 -20l-336 -1zM266 896l129 -147
l-14 -12l-134 141z" />
    <glyph glyph-name="uni0401" unicode="&#x401;" horiz-adv-x="548" 
d="M252 690h99t98 -1t98 -3l-4 -18h-286q-41 0 -65.5 -22.5t-29.5 -60.5l-67 -482q-5 -36 14 -58.5t55 -22.5h288l1 -18q-49 -2 -98.5 -3t-98 -1h-97.5q-45 0 -70.5 29.5t-18.5 73.5l68 486q6 44 35.5 72.5t78.5 28.5zM126 381l336 -1l-3 -20l-336 -1zM299 881q6 0 8 -3
t1 -9l-8 -53q-1 -7 -3.5 -10t-9.5 -3h-7q-11 0 -10 12l8 54q1 6 3.5 9t8.5 3h9zM476 881q6 0 8 -3t1 -9l-8 -53q-1 -7 -3.5 -10t-9.5 -3h-7q-11 0 -10 12l8 54q1 6 3.5 9t8.5 3h9z" />
    <glyph glyph-name="uni0402" unicode="&#x402;" horiz-adv-x="743" 
d="M590 690l-3 -22h-510l3 22h510zM347 690l-97 -690h-25l97 690h25zM540 432q55 0 89.5 -20.5t47 -66.5t1.5 -122q-12 -84 -49.5 -133.5t-97 -70t-136.5 -18.5l-1 17q70 4 124 22t89 62t46 124q10 72 -0.5 111.5t-40 55.5t-75.5 16q-50 0 -89 -10t-77.5 -30t-86.5 -50l1 23
q52 35 93.5 54.5t80.5 27.5t81 8z" />
    <glyph glyph-name="uni0403" unicode="&#x403;" horiz-adv-x="514" 
d="M256 690h96t94.5 -1t95.5 -3l-4 -18h-277q-35 0 -62 -19.5t-33 -63.5l-82 -585h-25l83 589q8 52 39.5 76.5t74.5 24.5zM481 896l17 -19l-172 -141l-14 14z" />
    <glyph glyph-name="uni0404" unicode="&#x404;" horiz-adv-x="565" 
d="M395 702q60 0 98.5 -4t76.5 -13l-7 -18q-27 5 -51.5 7.5t-51.5 3.5t-64 1q-67 0 -115.5 -17.5t-82.5 -57t-56 -104t-35 -157.5q-17 -123 -4.5 -196t60 -104.5t135.5 -31.5q61 0 101 3t80 10l5 -18q-41 -9 -82 -13.5t-103 -4.5q-98 0 -152 34.5t-68.5 113.5t3.5 211
q19 131 55 209t98.5 112t159.5 34zM107 381l322 -1l-3 -20l-322 -1z" />
    <glyph glyph-name="uni0405" unicode="&#x405;" horiz-adv-x="553" 
d="M329 701q49 -1 95.5 -4t90.5 -8l-4 -19q-44 3 -74.5 5t-59 2.5t-66.5 0.5q-34 0 -65.5 -3t-56.5 -15t-42.5 -40t-23.5 -78q-4 -37 1 -63.5t25 -47t60 -38.5l150 -63q52 -22 79.5 -45.5t35.5 -55.5t1 -82q-11 -73 -43 -106.5t-83.5 -42.5t-121.5 -9q-28 0 -77.5 2
t-112.5 9l4 19q37 -3 69 -4.5t64 -2t67 -0.5q62 1 104.5 10t68 38.5t35.5 90.5q6 43 0.5 69.5t-27.5 46t-64 37.5l-150 63q-48 21 -74 45t-34 56t-3 78q8 56 27.5 88t50 46.5t69.5 18t85 2.5z" />
    <glyph glyph-name="uni0406" unicode="&#x406;" horiz-adv-x="230" 
d="M184 690l-97 -690h-25l97 690h25z" />
    <glyph glyph-name="uni0407" unicode="&#x407;" horiz-adv-x="231" 
d="M184 690l-97 -690h-25l97 690h25zM110 856q6 0 8 -3t1 -9l-8 -53q-1 -7 -3.5 -10t-9.5 -3h-7q-11 0 -10 12l8 54q1 6 3.5 9t8.5 3h9zM287 856q6 0 8 -3t1 -9l-8 -53q-1 -7 -3.5 -10t-9.5 -3h-7q-11 0 -10 12l8 54q1 6 3.5 9t8.5 3h9z" />
    <glyph glyph-name="uni0408" unicode="&#x408;" horiz-adv-x="322" 
d="M279 690l-81 -576q-8 -60 -42 -90.5t-95 -29.5q-9 0 -20.5 1t-23 2.5t-20.5 2.5l5 16h57q50 0 79 25.5t36 75.5l80 573h25z" />
    <glyph glyph-name="uni0409" unicode="&#x409;" horiz-adv-x="964" 
d="M559 690l-3 -22h-179q-41 0 -64.5 -17.5t-34.5 -67.5q-18 -89 -32 -153.5t-26 -111t-25.5 -81.5t-30.5 -64.5t-40 -61.5q-17 -23 -38 -46.5t-45 -41t-50 -23.5l-3 22q19 8 36 20t36 32t43 50q22 29 37.5 56.5t28.5 60t25 78t26.5 111t34.5 159.5q12 58 41.5 79.5
t77.5 21.5h185zM573 690l-97 -690h-25l97 690h25zM713 384q80 0 122.5 -20t55 -63.5t2.5 -114.5q-10 -77 -36.5 -119t-74 -58.5t-121.5 -16.5q-50 0 -84 0.5t-62.5 2.5t-62.5 5l15 18q8 -1 27.5 -1.5t44.5 -1t48 -0.5h37q60 0 102.5 5.5t71 23.5t45.5 53t25 93
q9 63 -1.5 100.5t-47.5 54t-107 16.5h-197l3 23h195z" />
    <glyph glyph-name="uni040A" unicode="&#x40a;" horiz-adv-x="980" 
d="M730 382q80 0 122.5 -20t55 -63t2.5 -113q-10 -77 -36.5 -119t-74 -58.5t-121.5 -16.5q-50 0 -84 0.5t-62.5 2.5t-62.5 5l15 18q20 -1 70.5 -2t122.5 -1q66 0 108 14t66 52t34 109q9 62 -2 99t-47.5 53.5t-106.5 16.5h-197l3 23h195zM184 690l-97 -690h-25l97 690h25z
M533 381l-3 -22h-400l3 22h400zM590 690l-97 -690h-25l97 690h25z" />
    <glyph glyph-name="uni040B" unicode="&#x40b;" horiz-adv-x="784" 
d="M590 690l-3 -22h-510l3 22h510zM347 690l-97 -690h-25l97 690h25zM591 432q74 0 105 -36.5t20 -109.5l-40 -286h-25l40 285q9 65 -16 94.5t-88 29.5q-52 0 -98 -10.5t-94.5 -34.5t-110.5 -65l1 23q86 65 160.5 87.5t145.5 22.5z" />
    <glyph glyph-name="uni040C" unicode="&#x40c;" horiz-adv-x="571" 
d="M569 689q-24 -42 -49 -87t-51.5 -86.5t-55.5 -75.5t-60.5 -55t-66.5 -24l-2 -2q37 -2 64.5 -23t48 -56t36 -80t29 -96t27.5 -104h-27q-19 70 -36 133t-40.5 112t-59 76.5t-92.5 27.5l4 22q51 0 93.5 28.5t78.5 75.5t69 103.5t64 112.5zM183 690l-33 -237
q-4 -26 -7.5 -46.5t-8.5 -47.5q-1 -26 -4 -49t-7 -48l-37 -262h-24l97 690h24zM268 371l-3 -22h-145l3 22h145zM482 896l17 -19l-172 -141l-14 14z" />
    <glyph glyph-name="uni040D" unicode="&#x40d;" horiz-adv-x="678" 
d="M631 690l-97 -690h-25l78 553q4 24 7 48l6 48l-1 -1q-10 -14 -21 -29.5t-22 -29.5l-470 -589h-24l97 690h25l-77 -548q-4 -25 -7 -50t-7 -51l1 1q11 14 25 33t25 33l463 582h24zM309 895l129 -147l-14 -12l-134 141z" />
    <glyph glyph-name="uni040E" unicode="&#x40e;" horiz-adv-x="533" 
d="M565 690l-274 -530q-20 -38 -41 -75.5t-47 -62.5t-61 -28q-14 -1 -31 0t-33.5 4.5t-30.5 7.5l3 16q47 -8 76.5 -7t50.5 15.5t41 47t49 87.5l24 46l4 8l243 471h27zM114 690l107 -442q5 -21 27 -21h60l-14 -22h-49q-17 0 -29.5 10t-16.5 26l-111 449h26zM466 874l17 -6
q-5 -35 -24.5 -60.5t-51.5 -39t-73 -13.5q-42 0 -71.5 14t-43 40t-8.5 61l18 2q-7 -45 22 -69t83 -24t90 25t42 70z" />
    <glyph glyph-name="uni040F" unicode="&#x40f;" horiz-adv-x="666" 
d="M184 690l-97 -690h-25l97 690h25zM512 22l-3 -22h-430l3 22h430zM619 690l-97 -690h-25l97 690h25zM313 7l-24 -158h-18l18 158h24z" />
    <glyph glyph-name="uni0410" unicode="&#x410;" horiz-adv-x="599" 
d="M378 690q5 0 8.5 -2.5t4.5 -7.5l152 -680h-26l-135 613q-3 14 -5.5 27t-6.5 27h-29q-7 -14 -13.5 -28t-14.5 -28l-307 -611h-28l344 682q2 5 5.5 6.5t7.5 1.5h43zM474 274l-3 -22h-350l3 22h350z" />
    <glyph glyph-name="uni0411" unicode="&#x411;" horiz-adv-x="591" 
d="M552 690l-4 -19h-367l-94 -671h-25l97 690q49 3 97 4t97 1q57 0 103.5 -1.5t95.5 -3.5zM332 370q80 0 122.5 -19t55.5 -61t3 -111q-10 -74 -36.5 -115t-73.5 -56.5t-121 -15.5q-52 0 -88 0.5t-66 2.5t-65 5l15 18q21 -1 74 -2t129 -1q66 0 108 13.5t66 50t33 104.5
q9 61 -2 97t-48 51.5t-107 15.5h-207l3 23h205z" />
    <glyph glyph-name="uni0412" unicode="&#x412;" horiz-adv-x="610" 
d="M353 698q83 0 129.5 -16t62.5 -55.5t6 -110.5q-10 -73 -43 -111.5t-96 -44.5v-4q75 -7 98.5 -55t11.5 -131q-10 -70 -35 -109t-73 -54t-127 -15q-52 0 -89.5 0.5t-69 2.5t-66.5 5l16 18q21 -1 76.5 -2t131.5 -1q69 0 112 13t66.5 47.5t32.5 98.5q10 68 -4 105t-54.5 52
t-112.5 16h-202l3 21h200q65 1 105.5 13.5t62.5 45.5t30 93q9 64 -4.5 97t-54.5 45.5t-113 12.5h-81h-62.5h-37.5l-13 15q32 4 59 5.5t59 2t76 0.5zM184 690l-97 -690h-25l97 690h25z" />
    <glyph glyph-name="uni0413" unicode="&#x413;" horiz-adv-x="514" 
d="M256 690h96t94.5 -1t95.5 -3l-4 -18h-277q-35 0 -62 -19.5t-33 -63.5l-82 -585h-25l83 589q8 52 39.5 76.5t74.5 24.5z" />
    <glyph glyph-name="uni0414" unicode="&#x414;" horiz-adv-x="649" 
d="M589 690l-97 -690h-25l94 668h-205q-40 0 -63 -17.5t-31 -65.5q-17 -102 -42.5 -204.5t-65.5 -199t-102 -179.5l-28 1q63 82 104.5 178t68 200t42.5 208q9 57 38 79t78 22h234zM7 7l-28 -158h-18l22 158h24zM577 22l-3 -22h-592l3 22h592zM575 7l-22 -158h-18l16 158h24z
" />
    <glyph glyph-name="uni0415" unicode="&#x415;" horiz-adv-x="548" 
d="M252 690h99t98 -1t98 -3l-4 -18h-286q-41 0 -65.5 -22.5t-29.5 -60.5l-67 -482q-5 -36 14 -58.5t55 -22.5h288l1 -18q-49 -2 -98.5 -3t-98 -1h-97.5q-45 0 -70.5 29.5t-18.5 73.5l68 486q6 44 35.5 72.5t78.5 28.5zM126 381l336 -1l-3 -20l-336 -1z" />
    <glyph glyph-name="uni0416" unicode="&#x416;" horiz-adv-x="890" 
d="M145 690q14 -56 28 -112.5t33.5 -103t49 -75t73.5 -28.5l2 -22q-51 0 -90.5 -24.5t-73 -71t-65.5 -111t-68 -142.5h-28q27 59 52 112t50.5 97.5t52.5 77.5t57 52t64 21v2q-28 4 -49.5 25t-38 55t-29.5 75.5t-24 86t-21 86.5h25zM457 371l-3 -22h-156l3 22h156zM518 690
l-33 -237q-4 -26 -7 -46.5t-10 -47.5q-1 -26 -3.5 -49t-6.5 -48l-37 -262h-24l37 264q4 25 8 48t10 51q1 26 3 46t6 46l33 235h24zM624 371l-3 -22h-156l3 22h156zM885 690q-20 -42 -41.5 -87t-44.5 -87t-48 -76t-52.5 -55t-57.5 -24v-2q30 -4 51.5 -24.5t37.5 -54.5
t28.5 -78t23.5 -95t23 -107h-25q-16 74 -30.5 137.5t-33.5 111t-49 74t-77 26.5l4 22q45 0 81.5 28.5t68 75t59.5 103t55 112.5h27z" />
    <glyph glyph-name="uni0417" unicode="&#x417;" horiz-adv-x="540" 
d="M280 698q82 0 129 -15.5t63.5 -55t6.5 -111.5q-10 -73 -43 -111.5t-95 -44.5l-3 -4q77 -7 100.5 -55t11.5 -131q-10 -70 -35.5 -109t-73.5 -54t-126 -15q-40 0 -77 1.5t-71 4.5t-65 8l5 18q21 -1 76 -5t131 -4q69 0 112 13t66 47.5t32 98.5q10 68 -3.5 105.5t-54 52.5
t-112.5 15h-102l3 21h100q65 0 106 13t63 46t30 93q9 64 -5 97t-55 45.5t-113 12.5q-42 0 -76 -2t-57.5 -3.5t-35.5 -2.5l-3 18q45 7 85 10t86 3z" />
    <glyph glyph-name="uni0418" unicode="&#x418;" horiz-adv-x="678" 
d="M631 690l-97 -690h-25l78 553q4 24 7 48l6 48l-1 -1q-10 -14 -21 -29.5t-22 -29.5l-470 -589h-24l97 690h25l-77 -548q-4 -25 -7 -50t-7 -51l1 1q11 14 25 33t25 33l463 582h24z" />
    <glyph glyph-name="uni0419" unicode="&#x419;" horiz-adv-x="678" 
d="M631 690l-97 -690h-25l78 553q4 24 7 48l6 48l-1 -1q-10 -14 -21 -29.5t-22 -29.5l-470 -589h-24l97 690h25l-77 -548q-4 -25 -7 -50t-7 -51l1 1q11 14 25 33t25 33l463 582h24zM527 875h24q-5 -35 -25.5 -63t-53 -43.5t-74.5 -15.5t-70.5 15.5t-41 43.5t-7.5 63h24
q-7 -49 20.5 -76.5t77.5 -27.5q49 0 84 27.5t42 76.5z" />
    <glyph glyph-name="uni041A" unicode="&#x41a;" horiz-adv-x="571" 
d="M569 689q-24 -42 -49 -87t-51.5 -86.5t-55.5 -75.5t-60.5 -55t-66.5 -24l-2 -2q37 -2 64.5 -23t48 -56t36 -80t29 -96t27.5 -104h-27q-19 70 -36 133t-40.5 112t-59 76.5t-92.5 27.5l4 22q51 0 93.5 28.5t78.5 75.5t69 103.5t64 112.5zM183 690l-33 -237
q-4 -26 -7.5 -46.5t-8.5 -47.5q-1 -26 -4 -49t-7 -48l-37 -262h-24l97 690h24zM268 371l-3 -22h-145l3 22h145z" />
    <glyph glyph-name="uni041B" unicode="&#x41b;" horiz-adv-x="632" 
d="M571 690l-3 -22h-204q-41 0 -64.5 -18t-34.5 -67q-19 -89 -33 -154t-26.5 -111.5t-25.5 -81.5t-29 -64.5t-38 -60.5q-18 -25 -39.5 -47t-45.5 -38.5t-50 -25.5l-3 23q19 10 37 21t37 29.5t42 50.5q20 29 35 54.5t27.5 57t25 76.5t27.5 112.5t36 164.5q12 57 40.5 79
t78.5 22h210zM585 690l-97 -690h-25l97 690h25z" />
    <glyph glyph-name="uni041C" unicode="&#x41c;" horiz-adv-x="855" 
d="M776 690q7 0 11 -4.5t3 -11.5l-65 -674h-25l64 668h-24l-310 -600q-2 -4 -5 -6t-8 -2h-42q-4 0 -8 3t-5 7l-142 598h-24l-124 -668h-25l125 676q2 7 5.5 10.5t10.5 3.5h41q5 0 8.5 -2.5t4.5 -7.5l120 -505q6 -23 11 -47t11 -47h27l24.5 49l24.5 49l261 503q2 5 5.5 6.5
t7.5 1.5h42z" />
    <glyph glyph-name="uni041D" unicode="&#x41d;" horiz-adv-x="657" 
d="M184 690l-97 -690h-25l97 690h25zM553 381l-3 -22h-420l3 22h420zM610 690l-97 -690h-25l97 690h25z" />
    <glyph glyph-name="uni041E" unicode="&#x41e;" horiz-adv-x="660" 
d="M386 702q95 0 146.5 -34.5t65 -113.5t-5.5 -211q-13 -98 -36 -166t-58 -109.5t-86 -60.5t-122 -19q-95 0 -146.5 34.5t-65 113.5t4.5 211q14 98 37 166t58 109.5t86.5 60.5t121.5 19zM386 679q-87 0 -142 -32t-86.5 -105.5t-49.5 -198.5q-17 -123 -5.5 -196t57 -104.5
t129.5 -31.5q87 0 142 32t87 106t49 198q18 124 7 196.5t-56 104t-132 31.5z" />
    <glyph glyph-name="uni041F" unicode="&#x41f;" horiz-adv-x="661" 
d="M614 690l-97 -690h-25l97 690h25zM184 690l-97 -690h-25l97 690h25zM600 690l-3 -22h-424l3 22h424z" />
    <glyph glyph-name="uni0420" unicode="&#x420;" horiz-adv-x="580" 
d="M379 698q74 0 115.5 -18t55 -62t2.5 -124q-11 -79 -36.5 -123t-71 -61.5t-118.5 -17.5q-40 0 -75 0.5t-62.5 1.5t-46.5 1.5t-27 1.5l4 18h102.5h104.5q64 1 104.5 16.5t63 54.5t32.5 111q10 71 -1 109.5t-46.5 53.5t-98.5 15q-76 0 -132 -0.5t-76 -2.5l-13 18
q36 4 66.5 5.5t66.5 2t87 0.5zM184 690l-97 -690h-25l97 690h25z" />
    <glyph glyph-name="uni0421" unicode="&#x421;" 
d="M386 702q40 0 69.5 -2t54 -5.5t49.5 -9.5l-7 -18q-27 5 -51 7.5t-50.5 3.5t-63.5 1q-67 0 -114 -17.5t-79 -57t-52.5 -104t-33.5 -157.5q-17 -123 -6 -196t56.5 -104.5t130.5 -31.5q61 0 103 3t82 10l5 -18q-41 -9 -84 -13.5t-105 -4.5q-95 0 -146.5 34.5t-65 113.5
t4.5 211q14 98 37 166t58 109.5t86.5 60.5t121.5 19z" />
    <glyph glyph-name="uni0422" unicode="&#x422;" horiz-adv-x="558" 
d="M347 690l-97 -690h-25l97 690h25zM590 690l-3 -22h-510l3 22h510z" />
    <glyph glyph-name="uni0423" unicode="&#x423;" horiz-adv-x="533" 
d="M565 690l-274 -530q-20 -38 -41 -75.5t-47 -62.5t-61 -28q-14 -1 -31 0t-33.5 4.5t-30.5 7.5l3 16q47 -8 76.5 -7t50.5 15.5t41 47t49 87.5l24 46l4 8l243 471h27zM114 690l107 -442q5 -21 27 -21h60l-14 -22h-49q-17 0 -29.5 10t-16.5 26l-111 449h26z" />
    <glyph glyph-name="uni0424" unicode="&#x424;" horiz-adv-x="819" 
d="M458 652q124 0 194 -28.5t94 -94t8 -176.5q-12 -82 -38 -138.5t-70 -91t-110 -50t-158 -15.5q-123 0 -193 28.5t-93.5 94t-8.5 176.5q12 82 37.5 138.5t70 91t110.5 50t157 15.5zM459 630q-85 0 -146.5 -13.5t-102.5 -45t-65.5 -85t-35.5 -133.5q-11 -79 -2 -132t41 -84
t89 -44t141 -13q86 0 147 14t102.5 45.5t65.5 85t35 132.5q15 105 -6.5 164.5t-85.5 84t-177 24.5zM488 758l-16 -112l-1 -11l-79 -561l-1 -8l-16 -114h-25l16 114l1 8l79 561l1 11l16 112h25z" />
    <glyph glyph-name="uni0425" unicode="&#x425;" horiz-adv-x="590" 
d="M133 690l161 -332l-268 -358h-30l270 361l-160 329h27zM338 372l-4 -22h-52l4 22h52zM597 690l-252 -330l168 -360h-27l-169 363l251 327h29z" />
    <glyph glyph-name="uni0426" unicode="&#x426;" horiz-adv-x="667" 
d="M184 690l-97 -690h-25l97 690h25zM595 22l-3 -22h-513l3 22h513zM607 690l-97 -690h-25l97 690h25zM569 7l23 -7l-21 -151h-18z" />
    <glyph glyph-name="uni0427" unicode="&#x427;" horiz-adv-x="603" 
d="M150 690l-38 -275q-8 -69 14.5 -96.5t85.5 -27.5q56 0 106 16.5t94.5 42t85.5 51.5l-1 -23q-47 -35 -94.5 -60t-95.5 -37.5t-97 -12.5q-70 0 -102 31.5t-22 114.5l39 276h25zM556 690l-97 -690h-25l97 690h25z" />
    <glyph glyph-name="uni0428" unicode="&#x428;" horiz-adv-x="901" 
d="M184 690l-97 -690h-25l97 690h25zM750 22l-3 -22h-668l3 22h668zM519 690l-97 -690h-25l97 690h25zM854 690l-97 -690h-25l97 690h25z" />
    <glyph glyph-name="uni0429" unicode="&#x429;" horiz-adv-x="904" 
d="M184 690l-97 -690h-25l97 690h25zM832 22l-3 -22h-750l3 22h750zM514 690l-97 -690h-25l97 690h25zM844 690l-97 -690h-25l97 690h25zM806 7l23 -7l-21 -151h-18z" />
    <glyph glyph-name="uni042A" unicode="&#x42a;" horiz-adv-x="735" 
d="M485 384q80 0 122.5 -20t55 -63.5t2.5 -114.5q-10 -77 -36.5 -119t-74 -58.5t-121.5 -16.5q-52 0 -88 0.5t-66 2.5t-65 5l15 18q21 -1 74 -2t129 -1q66 0 108 14t66 52t34 109q9 63 -1.5 100.5t-47.5 54t-107 16.5h-207l3 23h205zM335 690l-97 -690h-25l97 690h25z
M323 690l-3 -22h-246l3 22h246z" />
    <glyph glyph-name="uni042B" unicode="&#x42b;" horiz-adv-x="809" 
d="M334 384q80 0 122.5 -20t55 -63.5t2.5 -114.5q-10 -77 -36.5 -119t-74 -58.5t-121.5 -16.5q-52 0 -88 0.5t-66 2.5t-65 5l15 18q21 -1 74 -2t129 -1q66 0 108 14t66 52t34 109q9 63 -1.5 100.5t-47.5 54t-107 16.5h-207l3 23h205zM184 690l-97 -690h-25l97 690h25z
M762 690l-97 -690h-25l97 690h25z" />
    <glyph glyph-name="uni042C" unicode="&#x42c;" horiz-adv-x="584" 
d="M334 384q80 0 122.5 -20t55 -63.5t2.5 -114.5q-10 -77 -36.5 -119t-74 -58.5t-121.5 -16.5q-52 0 -88 0.5t-66 2.5t-65 5l15 18q21 -1 74 -2t129 -1q66 0 108 14t66 52t34 109q9 63 -1.5 100.5t-47.5 54t-107 16.5h-207l3 23h205zM184 690l-97 -690h-25l97 690h25z" />
    <glyph glyph-name="uni042D" unicode="&#x42d;" horiz-adv-x="566" 
d="M282 702q99 0 152.5 -34.5t68 -113.5t-4.5 -211q-18 -131 -54 -209t-98 -112t-160 -34q-64 0 -104.5 4.5t-78.5 13.5l7 18q38 -7 77 -10t98 -3q89 0 146.5 32t91 106t50.5 198q13 93 9.5 156.5t-25.5 102t-65 56t-109 17.5q-38 0 -66 -1t-53 -3.5t-54 -7.5l-5 18
q40 9 79.5 13t97.5 4zM480 380l-3 -22l-322 1l3 20z" />
    <glyph glyph-name="uni042E" unicode="&#x42e;" horiz-adv-x="891" 
d="M617 702q95 0 146.5 -34.5t65 -113.5t-5.5 -211q-13 -98 -36 -166t-58 -109.5t-86 -60.5t-122 -19q-69 0 -113.5 19t-67.5 61.5t-26.5 111t10.5 167.5q14 98 36 166t56.5 109.5t83.5 60.5t117 19zM184 690l-97 -690h-25l97 690h25zM353 371l-3 -22h-222l3 22h222z
M618 679q-82 0 -135 -32t-84.5 -105.5t-49.5 -198.5q-17 -123 -6.5 -196t53.5 -104.5t124 -31.5q86 0 141 32t87.5 106t49.5 198q18 124 6.5 196.5t-56.5 104t-130 31.5z" />
    <glyph glyph-name="uni042F" unicode="&#x42f;" horiz-adv-x="600" 
d="M331 698q52 0 89 -0.5t68 -2t65 -5.5l-15 -18q-20 2 -75.5 2.5t-130.5 0.5q-81 0 -127.5 -34.5t-61.5 -123.5q-15 -88 18 -141t119 -53h209l1 -18q-28 -1 -51 -2t-46.5 -1.5t-52.5 -1t-70 -0.5q-46 -1 -75.5 -23.5t-52.5 -69.5l-100 -207h-29l103 212q15 31 30.5 50
t32.5 30.5t34 16.5l1 4q-39 11 -63.5 37t-33.5 68t0 100q10 64 36 103.5t70 58t108 18.5zM553 690l-97 -690h-25l97 690h25z" />
    <glyph glyph-name="uni0430" unicode="&#x430;" horiz-adv-x="564" 
d="M319 492q22 0 43.5 -1t44 -2.5t45 -3.5t46.5 -5l-10 -18q-54 3 -90.5 5.5t-75.5 2.5q-61 0 -100 -9.5t-63.5 -34.5t-39 -70.5t-25.5 -117.5q-12 -79 -10 -129.5t25 -74t73 -23.5q33 0 75.5 16.5t88 49t86.5 78.5v-27q-42 -48 -88.5 -79t-88.5 -46t-73 -15
q-61 0 -89.5 27.5t-32.5 83.5t10 143q12 75 28.5 123.5t43 76.5t69.5 39t108 11zM473 480h25l-68 -480h-18l15 122l-2 4z" />
    <glyph glyph-name="uni0431" unicode="&#x431;" horiz-adv-x="559" 
d="M512 733l8 -16q-41 -27 -73.5 -40t-61 -19.5t-59.5 -15.5q-68 -19 -107 -50t-59 -76t-33 -107q-4 -16 -7 -32.5t-7 -34.5h1q9 25 30 54t63 50t112 21q73 0 112 -23t50 -75t-1 -139q-10 -72 -32 -126.5t-68 -85t-130 -30.5q-58 0 -94 13.5t-55 39.5t-25 63.5t-2.5 86
t11.5 107.5q12 88 27 149.5t39.5 103t64.5 68t103 44.5q33 10 61 15.5t59 17t73 37.5zM318 444q-79 0 -123 -27.5t-64.5 -76t-29.5 -110.5q-12 -83 -1 -131t48 -68t103 -20q63 0 104 21t65 71t36 135q11 78 2 123t-42.5 64t-97.5 19z" />
    <glyph glyph-name="uni0432" unicode="&#x432;" horiz-adv-x="556" 
d="M305 492q52 0 88.5 -5t59 -17t30 -34t0.5 -56q-5 -26 -20 -49t-41.5 -39.5t-67.5 -23.5v-2q72 -3 97 -42t16 -107q-7 -52 -31.5 -80t-69 -38.5t-112.5 -10.5q-64 0 -106 10t-64.5 37.5t-26.5 79t8 133.5q12 83 31.5 132t48.5 73t68.5 31.5t91.5 7.5zM307 470
q-49 0 -85 -6t-62 -27.5t-43.5 -67t-28.5 -124.5q-11 -76 -8 -122.5t22 -71t55.5 -33t93.5 -8.5q63 0 102.5 9t60.5 33.5t28 69.5q7 48 -6.5 80t-52 44.5t-109.5 0.5l-192 -30l2 20l190 30q66 9 104 23.5t56 37t24 55.5q7 37 -4.5 55.5t-47 25t-99.5 6.5z" />
    <glyph glyph-name="uni0433" unicode="&#x433;" horiz-adv-x="507" 
d="M285 492q27 1 56 -0.5t53 -11.5t37 -32.5t8 -63.5q-4 -32 -17 -53.5t-30.5 -35t-37 -22.5t-37.5 -15l-166 -55q-34 -13 -58 -34t-31 -65q-6 -41 10 -61t50 -26t79 -6q39 0 72.5 3.5t69.5 12t80 23.5l3 -18q-45 -19 -85 -28.5t-75.5 -12.5t-68.5 -3q-46 0 -85 7
t-60.5 31.5t-14.5 76.5q6 46 32.5 75t85.5 51l167 55q41 15 63.5 38.5t28.5 60.5q7 41 -9 60t-49 24t-78 3q-25 -1 -48 -3t-45 -5.5t-46.5 -8.5t-53.5 -11l-2 18q47 14 100 22t102 10z" />
    <glyph glyph-name="uni0434" unicode="&#x434;" horiz-adv-x="555" 
d="M169 709q56 -5 108.5 -17t95.5 -38.5t71 -73.5t36 -121t-9 -182q-8 -55 -20.5 -107t-37 -93t-67 -65t-110.5 -24t-110 24.5t-56.5 76.5t-2.5 134q14 102 66 162.5t158 60.5q22 0 46.5 -4t49.5 -15t47.5 -32.5t39.5 -56.5l-7 -15q-22 44 -52.5 65.5t-63.5 28.5t-64 7
q-65 0 -105 -27t-61.5 -73.5t-29.5 -105.5q-16 -114 20.5 -161t123.5 -47q77 0 119 35t63 98t32 145q17 103 8.5 172t-36 112.5t-68 67.5t-89.5 34.5t-100 15.5z" />
    <glyph glyph-name="uni0435" unicode="&#x435;" horiz-adv-x="526" 
d="M310 492q58 0 99.5 -12t59 -43.5t2.5 -92.5q-9 -39 -27.5 -62t-50 -34t-81.5 -17l-243 -26l3 21l241 27q44 6 70 15t41 27.5t23 50.5q15 55 0 81t-50 34.5t-80 8.5q-53 0 -91.5 -8t-65.5 -31.5t-44.5 -69t-29.5 -120.5q-14 -92 -4 -142t50 -69.5t112 -19.5q29 0 62 2
t63 5.5t51 6.5l3 -18q-18 -5 -52.5 -9t-72 -6.5t-64.5 -2.5q-79 0 -121 25.5t-53.5 81.5t2.5 149q12 78 32 126.5t50 75t71 36.5t95 10z" />
    <glyph glyph-name="uni0436" unicode="&#x436;" horiz-adv-x="761" 
d="M109 480q12 -40 25.5 -79t31.5 -70.5t44.5 -50.5t66.5 -19v-21q-43 0 -75.5 -18t-60 -51t-54 -77t-56.5 -94h-27q22 38 43.5 74t43 67.5t44 55t48 38t55.5 16.5v1q-27 4 -47.5 18.5t-36 37t-28 51t-22.5 59.5t-19 62h24zM375 261l-3 -21h-120l3 21h120zM423 480l-23 -162
q-3 -19 -5.5 -34t-8.5 -35q0 -18 -1.5 -34.5t-3.5 -33.5l-26 -181h-24l26 183q2 17 5.5 34t8.5 36q-1 18 0.5 33t4.5 34l23 160h24zM499 261l-3 -21h-112l3 21h112zM731 480q-18 -31 -37 -62.5t-39 -60.5t-41.5 -51.5t-46 -37t-51.5 -17.5v-1q29 -3 49.5 -17.5t36.5 -38
t28 -54t23 -66.5t23 -74h-24q-16 50 -29.5 94t-31.5 77t-46 51t-72 18l2 21q39 0 71 19t59 50.5t51.5 70.5t48.5 79h26z" />
    <glyph glyph-name="uni0437" unicode="&#x437;" horiz-adv-x="484" 
d="M222 486q76 0 119.5 -11t59 -39t8.5 -78q-7 -49 -32 -77t-85 -33l-2 -2q64 -5 87.5 -36.5t15.5 -93.5q-7 -49 -29 -75.5t-66.5 -36.5t-118.5 -10q-40 0 -89.5 2.5t-87.5 7.5l5 18q12 0 39 -1.5t62 -3t70 -1.5q67 0 106 8t58.5 31.5t25.5 67.5q9 67 -25.5 89.5
t-128.5 23.5l-95 1l2 19l94 1q59 1 94 9.5t52.5 31t22.5 61.5q6 45 -7.5 67.5t-52 30t-108.5 7.5q-37 0 -74 -1.5t-57 -4.5l-3 18q38 6 74 8t66 2z" />
    <glyph glyph-name="uni0438" unicode="&#x438;" horiz-adv-x="556" 
d="M140 480l-51 -359q-8 -57 15 -83.5t78 -26.5q54 0 110.5 36.5t129.5 106.5l1 -24q-69 -70 -130.5 -106t-114.5 -36q-64 0 -93.5 34t-19.5 98l51 360h24zM490 480l-68 -480h-18l16 131l-1 16l47 333h24z" />
    <glyph glyph-name="uni0439" unicode="&#x439;" horiz-adv-x="556" 
d="M140 480l-51 -359q-8 -57 15 -83.5t78 -26.5q54 0 110.5 36.5t129.5 106.5l1 -24q-69 -70 -130.5 -106t-114.5 -36q-64 0 -93.5 34t-19.5 98l51 360h24zM490 480l-68 -480h-18l16 131l-1 16l47 333h24zM444 693h24q-5 -35 -25.5 -63t-53 -43.5t-74.5 -15.5t-70.5 15.5
t-41 43.5t-7.5 63h24q-7 -49 20.5 -76.5t77.5 -27.5q49 0 84 27.5t42 76.5z" />
    <glyph glyph-name="uni043A" unicode="&#x43a;" horiz-adv-x="513" 
d="M483 479q-19 -31 -39.5 -62.5t-41.5 -60t-44.5 -51.5t-49.5 -37.5t-55 -16.5l-3 -1q31 -2 54.5 -16t41.5 -38t32 -55t26 -67t25 -74h-27q-17 50 -32.5 94t-35.5 77t-50 51t-77 18l3 21q42 0 76.5 19t63.5 51t55.5 71t51.5 79zM144 480l-23 -162q-3 -19 -5.5 -34t-7.5 -35
q0 -18 -2 -34.5t-4 -33.5l-26 -181h-24l68 480h24zM236 261l-3 -21h-136l3 21h136z" />
    <glyph glyph-name="uni043B" unicode="&#x43b;" horiz-adv-x="536" 
d="M457 480l-3 -21h-161q-37 0 -57.5 -16.5t-28.5 -55.5q-11 -49 -25 -103t-32.5 -105t-44.5 -92q-13 -20 -31 -38t-39.5 -32t-46.5 -22l-3 22q36 15 61 38.5t40 46.5q20 31 35.5 71.5t27.5 82t20.5 78t13.5 58.5q11 47 37 67.5t74 20.5h163zM470 480l-68 -480h-24l68 480
h24z" />
    <glyph glyph-name="uni043C" unicode="&#x43c;" horiz-adv-x="715" 
d="M621 480q6 0 10 -4t3 -10l-41 -466h-24l41 458h-20l-236 -406q-3 -4 -5.5 -6t-7.5 -2h-36q-4 0 -6.5 3t-4.5 7l-122 404h-20l-89 -458h-24l91 468q1 6 4.5 9t10.5 3h37q5 0 7.5 -2.5t3.5 -7.5l102 -341q5 -16 10.5 -32.5t9.5 -33.5l20 2q11 17 20 34t19 33l198 340
q3 8 13 8h36z" />
    <glyph glyph-name="uni043D" unicode="&#x43d;" horiz-adv-x="564" 
d="M144 480l-68 -480h-24l68 480h24zM453 267l-3 -21h-345l3 21h345zM498 480l-68 -480h-24l68 480h24z" />
    <glyph glyph-name="uni043E" unicode="&#x43e;" 
d="M304 492q78 0 121 -25t56 -80.5t0 -148.5q-13 -92 -40.5 -147t-76.5 -79t-126 -24q-78 0 -121 25t-56 80.5t0 148.5q13 92 40.5 147t76.5 79t126 24zM304 469q-68 0 -112 -21.5t-69 -72t-37 -137.5q-12 -86 -1.5 -135.5t48 -70.5t105.5 -21t112 21.5t69 72t37 137.5
q12 86 1.5 135.5t-48 70.5t-105.5 21z" />
    <glyph glyph-name="uni043F" unicode="&#x43f;" horiz-adv-x="567" 
d="M374 492q43 0 70 -15t38 -44.5t5 -72.5l-51 -360h-24l51 359q8 59 -15 84.5t-78 25.5q-53 0 -111.5 -33t-137.5 -97l1 23q71 59 133.5 94.5t118.5 35.5zM138 480l-15 -120l1 -18l-48 -342h-24l68 480h18z" />
    <glyph glyph-name="uni0440" unicode="&#x440;" horiz-adv-x="563" 
d="M368 492q61 0 89.5 -27.5t32 -83.5t-9.5 -143q-11 -75 -27.5 -123.5t-43.5 -76.5t-70 -39t-108 -11q-22 0 -43.5 1t-44 2.5t-45 3.5t-46.5 5l10 18q54 -3 90.5 -5.5t75.5 -2.5q61 0 100.5 9.5t64 34.5t39 70.5t24.5 117.5q12 80 10 130t-24.5 73.5t-73.5 23.5
q-32 0 -75 -16.5t-88 -48.5t-87 -79v27q32 36 66 62.5t67.5 43.5t63.5 25.5t53 8.5zM138 480l-15 -133l1 -4l-45 -327l-6 -17q-1 -26 -3.5 -46.5t-6.5 -46.5l-18 -126h-24l99 700h18z" />
    <glyph glyph-name="uni0441" unicode="&#x441;" horiz-adv-x="475" 
d="M313 492q28 0 66 -3.5t68 -13.5l-7 -18q-25 7 -62 9.5t-60 2.5q-73 0 -119.5 -20.5t-73 -70.5t-39.5 -139q-12 -88 0 -138t52 -70t112 -20q15 0 39 1t51.5 4t50.5 7l3 -18q-34 -7 -72.5 -12t-73.5 -5q-80 0 -125.5 25t-60 80.5t-1.5 148.5q13 92 42 147t80 79t130 24z
" />
    <glyph glyph-name="uni0442" unicode="&#x442;" horiz-adv-x="876" 
d="M138 480l-15 -120l1 -18l-48 -342h-24l68 480h18zM349 492q65 0 93.5 -33.5t19.5 -98.5l-51 -360h-24l51 359q8 59 -15 84.5t-78 25.5q-32 0 -65.5 -15t-71.5 -43.5t-87 -71.5l1 23q65 59 120 94.5t107 35.5zM683 492q65 0 93.5 -33.5t19.5 -98.5l-51 -360h-24l51 359
q8 59 -15 84.5t-78 25.5q-32 0 -65.5 -15t-71.5 -43.5t-87 -71.5l1 23q65 59 120 94.5t107 35.5z" />
    <glyph glyph-name="uni0443" unicode="&#x443;" horiz-adv-x="510" 
d="M487 480q-10 -40 -28 -91.5t-42 -108t-52.5 -114t-58.5 -110.5q-45 -82 -83 -134t-70.5 -80.5t-61 -40.5t-55 -13t-52.5 2l5 21q19 -2 40.5 -1.5t47.5 10.5t57 36.5t67.5 75t79.5 127.5q32 56 62 117.5t54 120t41 106.5t24 77h25zM82 480l93 -433q7 -26 32 -26l61 1
l-13 -22h-55q-17 0 -29.5 10.5t-16.5 26.5l-98 443h26z" />
    <glyph glyph-name="uni0444" unicode="&#x444;" horiz-adv-x="693" 
d="M372 492q103 0 161 -25.5t78.5 -81.5t7.5 -147q-13 -90 -48 -145t-99 -80t-166 -25t-160.5 25.5t-78.5 81.5t-8 147q13 90 48 145t99.5 80t165.5 25zM373 469q-93 0 -152.5 -21.5t-92 -72t-44.5 -137.5q-12 -86 6 -135.5t70.5 -70.5t144.5 -21q93 0 152.5 21.5t92 72
t44.5 137.5q12 86 -6 135.5t-70.5 70.5t-144.5 21zM417 700l-30 -214l-2 -11l-66 -471l-1 -8l-29 -206h-25l29 206l1 8l66 471l2 11l30 214h25z" />
    <glyph glyph-name="uni0445" unicode="&#x445;" horiz-adv-x="501" 
d="M102 480l137 -231l-214 -249h-32l218 251l-136 229h27zM272 262l-3 -22h-52l3 22h52zM481 480l-202 -230l147 -250h-27l-148 252l200 228h30z" />
    <glyph glyph-name="uni0446" unicode="&#x446;" horiz-adv-x="570" 
d="M140 480l-51 -359q-8 -57 15 -83.5t78 -26.5q54 0 110 32.5t129 96.5l1 -24q-69 -63 -130 -95.5t-114 -32.5q-64 0 -93.5 34t-19.5 98l51 360h24zM476 5l17 -5l-23 -149h-23zM490 480l-58 -414q-4 -28 7 -36.5t30 -8.5h27l-3 -21h-28q-28 0 -43.5 15.5t-11.5 51.5l6 50
l2 16l48 347h24z" />
    <glyph glyph-name="uni0447" unicode="&#x447;" horiz-adv-x="516" 
d="M114 480l-27 -193q-6 -44 14 -62.5t69 -18.5q61 0 112.5 19.5t119.5 57.5v-22q-43 -25 -83.5 -42.5t-78.5 -27t-75 -9.5q-58 0 -84 26t-19 77l28 195h24zM450 480l-68 -480h-24l68 480h24z" />
    <glyph glyph-name="uni0448" unicode="&#x448;" horiz-adv-x="860" 
d="M140 480l-51 -359q-8 -57 13 -83.5t70 -26.5q35 0 69 14.5t72 43.5t85 71l1 -24q-66 -63 -123 -95.5t-108 -32.5q-58 0 -85 34t-18 98l51 360h24zM467 480l-51 -359q-8 -57 13 -83.5t70 -26.5q35 0 69 14.5t72 43.5t85 71l1 -24q-66 -63 -123 -95.5t-108 -32.5
q-58 0 -85 34t-18 98l51 360h24zM794 480l-68 -480h-18l15 117l-1 16l48 347h24z" />
    <glyph glyph-name="uni0449" unicode="&#x449;" horiz-adv-x="873" 
d="M140 480l-51 -359q-8 -57 13 -83.5t70 -26.5q35 0 69 14.5t72 43.5t85 71l1 -24q-66 -63 -123 -95.5t-108 -32.5q-58 0 -85 34t-18 98l51 360h24zM467 480l-51 -359q-8 -57 13 -83.5t70 -26.5q35 0 69 14.5t72 43.5t85 71l1 -24q-66 -63 -123 -95.5t-108 -32.5
q-58 0 -85 34t-18 98l51 360h24zM794 480l-59 -414q-4 -29 7 -37t30 -8h27l-3 -21h-28q-28 0 -43.5 15.5t-11.5 51.5l6 50l3 16l48 347h24zM779 5l17 -5l-24 -149h-23z" />
    <glyph glyph-name="uni044A" unicode="&#x44a;" horiz-adv-x="611" 
d="M303 480l-99 -345q-10 -41 0.5 -66t33.5 -37.5t51 -17t51 -4.5q58 0 92.5 10.5t52 37.5t24.5 76q6 45 -3 70.5t-40 36.5t-91 11q-39 0 -82.5 -10.5t-87.5 -54.5l3 21q43 44 86 54.5t81 10.5q70 0 107 -14.5t48 -46t4 -83.5q-7 -56 -30 -86.5t-62 -42.5t-96 -12
q-32 0 -66 6t-60.5 22t-38.5 45.5t0 75.5l97 336zM303 480l-15 -22h-247l3 22h259z" />
    <glyph glyph-name="uni044B" unicode="&#x44b;" horiz-adv-x="665" 
d="M142 480l-56 -374q-5 -33 7.5 -52.5t35 -28.5t49.5 -12t51 -3q58 0 92.5 10.5t52 37.5t24.5 76q6 45 -3 70.5t-40.5 36.5t-92.5 11q-40 0 -86 -10.5t-92 -54.5l3 21q45 44 90.5 54.5t85.5 10.5q69 0 106.5 -14t49.5 -45.5t4 -84.5q-8 -55 -28.5 -86t-59 -43t-100.5 -12
q-33 0 -65.5 4t-59 16.5t-40 36.5t-7.5 63l55 372h24zM599 480l-68 -480h-25l68 480h25z" />
    <glyph glyph-name="uni044C" unicode="&#x44c;" horiz-adv-x="499" 
d="M142 480l-56 -374q-5 -33 7.5 -52.5t35 -28.5t49.5 -12t51 -3q58 0 92.5 10.5t52 37.5t24.5 76q6 45 -3 70.5t-40.5 36.5t-92.5 11q-40 0 -86 -10.5t-92 -54.5l3 21q45 44 90.5 54.5t85.5 10.5q69 0 106.5 -14t49.5 -45.5t4 -84.5q-8 -55 -28.5 -86t-59 -43t-100.5 -12
q-33 0 -65.5 4t-59 16.5t-40 36.5t-7.5 63l55 372h24z" />
    <glyph glyph-name="uni044D" unicode="&#x44d;" horiz-adv-x="480" 
d="M220 484q81 0 125 -24t57 -78t1 -146q-12 -93 -40 -146.5t-78 -75.5t-130 -22q-52 0 -84.5 3t-64.5 10l6 19q32 -4 63 -6.5t79 -2.5q54 0 92.5 11t65 36.5t43 69t24.5 108.5q11 84 0 132.5t-49 68.5t-109 20q-31 0 -54 -1t-43 -2.5t-44 -4.5l-4 19q22 5 43 7.5t45 3.5
t56 1zM387 256l-3 -21l-260 1l3 19z" />
    <glyph glyph-name="uni044E" unicode="&#x44e;" horiz-adv-x="764" 
d="M509 492q78 0 121.5 -24t57 -79t0.5 -149q-10 -69 -28 -117t-47 -76.5t-71.5 -41.5t-100.5 -13q-77 0 -120 23.5t-55 78.5t1 150q10 70 27.5 117.5t45.5 76t69.5 41.5t99.5 13zM144 480l-68 -480h-24l68 480h24zM292 259l-3 -21h-186l3 21h186zM508 470q-66 0 -109.5 -20
t-68.5 -70t-38 -140q-12 -85 -2.5 -134.5t46 -70.5t103.5 -21q72 0 117 22.5t70 73.5t37 134q13 88 0.5 137t-51 69t-104.5 20z" />
    <glyph glyph-name="uni044F" unicode="&#x44f;" horiz-adv-x="523" 
d="M298 482q16 0 41.5 -0.5t55.5 -1.5t60 -4l-13 -19q-5 1 -23 1.5t-42 1t-46.5 0.5h-36.5q-60 0 -98 -7.5t-58 -32t-27 -76.5q-3 -26 2.5 -56t30 -51t78.5 -21h187v-21h-33h-67h-87q-48 0 -82 -13t-48 -52l-47 -130h-27l52 140q14 36 43.5 49.5t54.5 16.5l1 3q-32 4 -52 25
t-27.5 52t-3.5 62q6 42 20 68.5t38.5 41t62 19.5t91.5 5zM456 476l-67 -476h-24l67 476h24z" />
    <glyph glyph-name="uni0450" unicode="&#x450;" horiz-adv-x="526" 
d="M310 492q58 0 99.5 -12t59 -43.5t2.5 -92.5q-9 -39 -27.5 -62t-50 -34t-81.5 -17l-243 -26l3 21l241 27q44 6 70 15t41 27.5t23 50.5q15 55 0 81t-50 34.5t-80 8.5q-53 0 -91.5 -8t-65.5 -31.5t-44.5 -69t-29.5 -120.5q-14 -92 -4 -142t50 -69.5t112 -19.5q29 0 62 2
t63 5.5t51 6.5l3 -18q-18 -5 -52.5 -9t-72 -6.5t-64.5 -2.5q-79 0 -121 25.5t-53.5 81.5t2.5 149q12 78 32 126.5t50 75t71 36.5t95 10zM227 713l129 -147l-14 -12l-134 141z" />
    <glyph glyph-name="uni0451" unicode="&#x451;" horiz-adv-x="526" 
d="M310 492q58 0 99.5 -12t59 -43.5t2.5 -92.5q-9 -39 -27.5 -62t-50 -34t-81.5 -17l-243 -26l3 21l241 27q44 6 70 15t41 27.5t23 50.5q15 55 0 81t-50 34.5t-80 8.5q-53 0 -91.5 -8t-65.5 -31.5t-44.5 -69t-29.5 -120.5q-14 -92 -4 -142t50 -69.5t112 -19.5q29 0 62 2
t63 5.5t51 6.5l3 -18q-18 -5 -52.5 -9t-72 -6.5t-64.5 -2.5q-79 0 -121 25.5t-53.5 81.5t2.5 149q12 78 32 126.5t50 75t71 36.5t95 10zM247 674q6 0 8 -3t1 -9l-8 -53q-1 -7 -3.5 -10t-9.5 -3h-7q-11 0 -10 12l8 54q1 6 3.5 9t8.5 3h9zM424 674q6 0 8 -3t1 -9l-8 -53
q-1 -7 -3.5 -10t-9.5 -3h-7q-11 0 -10 12l8 54q1 6 3.5 9t8.5 3h9z" />
    <glyph glyph-name="uni0452" unicode="&#x452;" horiz-adv-x="588" 
d="M377 392q65 0 93.5 -33.5t19.5 -98.5l-42 -307q-4 -32 -16.5 -61t-31 -54t-41.5 -48l-12 10q30 34 50 70.5t27 85.5l42 303q8 57 -15 83.5t-78 26.5q-56 0 -112.5 -32t-134.5 -94l1 23q70 59 132 92.5t118 33.5zM192 700l-48 -342q-4 -26 -6.5 -45.5t-9.5 -47.5l1 -15
l-36 -250h-24l99 700h24zM388 531l-3 -20h-325l3 20h325z" />
    <glyph glyph-name="uni0453" unicode="&#x453;" horiz-adv-x="507" 
d="M285 492q27 1 56 -0.5t53 -11.5t37 -32.5t8 -63.5q-4 -32 -17 -53.5t-30.5 -35t-37 -22.5t-37.5 -15l-166 -55q-34 -13 -58 -34t-31 -65q-6 -41 10 -61t50 -26t79 -6q39 0 72.5 3.5t69.5 12t80 23.5l3 -18q-45 -19 -85 -28.5t-75.5 -12.5t-68.5 -3q-46 0 -85 7
t-60.5 31.5t-14.5 76.5q6 46 32.5 75t85.5 51l167 55q41 15 63.5 38.5t28.5 60.5q7 41 -9 60t-49 24t-78 3q-25 -1 -48 -3t-45 -5.5t-46.5 -8.5t-53.5 -11l-2 18q47 14 100 22t102 10zM402 714l17 -19l-172 -141l-14 14z" />
    <glyph glyph-name="uni0454" unicode="&#x454;" horiz-adv-x="480" 
d="M310 484q33 0 57.5 -1t45 -3.5t41.5 -7.5l-6 -19q-34 5 -63 6.5t-74 1.5q-72 0 -117 -20.5t-70.5 -69t-37.5 -134.5q-11 -83 0 -131.5t49.5 -69.5t108.5 -21q50 0 82.5 2.5t65.5 6.5l4 -19q-33 -7 -67 -10t-84 -3q-80 0 -124.5 24t-57.5 78.5t-1 145.5q9 68 27 115
t47 75.5t71.5 41t102.5 12.5zM83 256l260 -1l-3 -19l-260 -1z" />
    <glyph glyph-name="uni0455" unicode="&#x455;" horiz-adv-x="498" 
d="M264 492q31 0 63 -1.5t63 -4t60 -6.5l-4 -18q-43 3 -90 5t-91 3q-56 1 -90.5 -3t-53 -22.5t-25.5 -61.5q-7 -45 8.5 -64.5t55.5 -34.5l160 -60q33 -12 55.5 -26t32.5 -36.5t4 -61.5q-7 -52 -33.5 -75.5t-70.5 -30t-105 -6.5q-21 0 -47 0.5t-56.5 3.5t-66.5 8l4 18
q31 -3 58 -5t54 -2.5t58 -0.5q61 1 99 8t57.5 26.5t24.5 59.5q5 32 -3 50t-25 28t-42 19l-159 60q-29 11 -51 23.5t-32 36t-4 66.5q8 50 32 72.5t64 28t96 4.5z" />
    <glyph glyph-name="uni0456" unicode="&#x456;" horiz-adv-x="218" 
d="M148 480l-68 -480h-24l68 480h24zM168 679q6 0 9 -3.5t2 -9.5l-9 -62q-1 -11 -12 -11h-10q-14 0 -12 13l9 62q1 11 13 11h10z" />
    <glyph glyph-name="uni0457" unicode="&#x457;" horiz-adv-x="218" 
d="M148 480l-68 -480h-24l68 480h24zM78 674q6 0 8 -3t1 -9l-8 -53q-1 -7 -3.5 -10t-9.5 -3h-7q-11 0 -10 12l8 54q1 6 3.5 9t8.5 3h9zM255 674q6 0 8 -3t1 -9l-8 -53q-1 -7 -3.5 -10t-9.5 -3h-7q-11 0 -10 12l8 54q1 6 3.5 9t8.5 3h9z" />
    <glyph glyph-name="uni0458" unicode="&#x458;" horiz-adv-x="219" 
d="M148 480l-74 -527q-4 -32 -16.5 -61t-31 -54t-41.5 -48l-12 10q30 34 50 70t27 85l74 525h24zM168 679q6 0 9 -3.5t2 -9.5l-9 -62q-1 -11 -12 -11h-10q-14 0 -12 13l9 62q1 11 13 11h10z" />
    <glyph glyph-name="uni0459" unicode="&#x459;" horiz-adv-x="766" 
d="M425 480l-3 -20h-139q-28 0 -47.5 -18t-26.5 -53q-17 -70 -29 -118.5t-23.5 -81.5t-25 -58.5t-32.5 -49.5q-14 -18 -31 -34t-36 -28t-41 -19l-5 23q26 12 47.5 27.5t42.5 42.5q18 24 31 46.5t24.5 54t24 80t30.5 122.5q9 42 32.5 63t60.5 21h146zM439 480l-56 -374
q-4 -33 6.5 -52.5t30.5 -28.5t44.5 -12t46.5 -3q53 0 84.5 10.5t47.5 37.5t22 76q5 45 -3 70.5t-35.5 36.5t-82.5 11q-25 0 -51.5 -4t-54 -17.5t-57.5 -43.5l3 21q29 30 56.5 43.5t53.5 17.5t51 4q63 0 96.5 -14t44.5 -45.5t4 -84.5q-7 -55 -25.5 -86t-54 -43t-93.5 -12
q-29 0 -59 4t-54.5 16.5t-37 36.5t-6.5 63l55 372h24z" />
    <glyph glyph-name="uni045A" unicode="&#x45a;" horiz-adv-x="785" 
d="M458 480l-56 -374q-4 -33 6.5 -52.5t30.5 -28.5t44.5 -12t46.5 -3q53 0 84.5 10.5t47.5 37.5t22 76q5 45 -3 70.5t-35.5 36.5t-82.5 11q-37 0 -78 -10.5t-85 -54.5l3 21q44 44 84 54.5t77 10.5q63 0 96.5 -14t44.5 -45.5t4 -84.5q-7 -55 -25.5 -86t-54 -43t-93.5 -12
q-29 0 -59 4t-54.5 16.5t-37 36.5t-6.5 63l55 372h24zM144 480l-68 -480h-24l68 480h24zM411 276l-3 -20h-302l3 20h302z" />
    <glyph glyph-name="uni045B" unicode="&#x45b;" horiz-adv-x="560" 
d="M192 700l-48 -342l-7 -45.5t-9 -47.5l1 -15l-36 -250h-24l99 700h24zM388 531l-3 -20h-325l3 20h325zM377 392q65 0 93.5 -33.5t19.5 -98.5l-37 -260h-24l37 259q8 57 -15 83.5t-78 26.5q-56 0 -112.5 -32t-134.5 -94l1 23q70 59 132 92.5t118 33.5z" />
    <glyph glyph-name="uni045C" unicode="&#x45c;" horiz-adv-x="513" 
d="M483 479q-19 -31 -39.5 -62.5t-41.5 -60t-44.5 -51.5t-49.5 -37.5t-55 -16.5l-3 -1q31 -2 54.5 -16t41.5 -38t32 -55t26 -67t25 -74h-27q-17 50 -32.5 94t-35.5 77t-50 51t-77 18l3 21q42 0 76.5 19t63.5 51t55.5 71t51.5 79zM144 480l-23 -162q-3 -19 -5.5 -34t-7.5 -35
q0 -18 -2 -34.5t-4 -33.5l-26 -181h-24l68 480h24zM236 261l-3 -21h-136l3 21h136zM425 714l17 -19l-172 -141l-14 14z" />
    <glyph glyph-name="uni045D" unicode="&#x45d;" horiz-adv-x="556" 
d="M140 480l-51 -359q-8 -57 15 -83.5t78 -26.5q54 0 110.5 36.5t129.5 106.5l1 -24q-69 -70 -130.5 -106t-114.5 -36q-64 0 -93.5 34t-19.5 98l51 360h24zM490 480l-68 -480h-18l16 131l-1 16l47 333h24zM226 713l129 -147l-14 -12l-134 141z" />
    <glyph glyph-name="uni045E" unicode="&#x45e;" horiz-adv-x="510" 
d="M487 480q-10 -40 -28 -91.5t-42 -108t-52.5 -114t-58.5 -110.5q-45 -82 -83 -134t-70.5 -80.5t-61 -40.5t-55 -13t-52.5 2l5 21q19 -2 40.5 -1.5t47.5 10.5t57 36.5t67.5 75t79.5 127.5q32 56 62 117.5t54 120t41 106.5t24 77h25zM82 480l93 -433q7 -26 32 -26l61 1
l-13 -22h-55q-17 0 -29.5 10.5t-16.5 26.5l-98 443h26zM408 693h24q-5 -35 -25.5 -63t-53 -43.5t-74.5 -15.5t-70.5 15.5t-41 43.5t-7.5 63h24q-7 -49 20.5 -76.5t77.5 -27.5q49 0 84 27.5t42 76.5z" />
    <glyph glyph-name="uni045F" unicode="&#x45f;" horiz-adv-x="556" 
d="M265 -38l-18 -165h-23l24 165h17zM140 480l-51 -359q-8 -57 15 -83.5t78 -26.5q54 0 110.5 36.5t129.5 106.5l1 -24q-69 -70 -130.5 -106t-114.5 -36q-64 0 -93.5 34t-19.5 98l51 360h24zM490 480l-68 -480h-18l16 131l-1 16l47 333h24z" />
    <glyph glyph-name="uni0462" unicode="&#x462;" horiz-adv-x="600" 
d="M334 384q80 0 122.5 -20t55 -63.5t2.5 -114.5q-10 -77 -36.5 -119t-74 -58.5t-121.5 -16.5q-52 0 -88 0.5t-66 2.5t-65 5l15 18q21 -1 74 -2t129 -1q66 0 108 14t66 52t34 109q9 63 -1.5 100.5t-47.5 54t-107 16.5h-207l3 23h205zM190 730l-103 -730h-25l103 730h25z
M29 566l4 23h398l-4 -23h-398z" />
    <glyph glyph-name="uni0463" unicode="&#x463;" horiz-adv-x="490" 
d="M235 -12q-33 0 -65.5 4t-59 16.5t-40 36.5t-7.5 63l86 582h24l-87 -584q-5 -33 7.5 -52.5t35 -28.5t49.5 -12t51 -3q58 0 92.5 10.5t52 37.5t24.5 76q6 45 -3 70.5t-40.5 36.5t-92.5 11q-40 0 -86 -10.5t-92 -54.5l3 21q45 44 90.5 54.5t85.5 10.5q69 0 106.5 -14
t49.5 -45.5t4 -84.5q-8 -55 -28.5 -86t-59 -43t-100.5 -12zM24 460l3 20h308l-3 -20h-308z" />
    <glyph glyph-name="uni046A" unicode="&#x46a;" horiz-adv-x="837" 
d="M-20 0q47 84 83.5 146t69.5 104.5t70 68t84.5 37t114.5 11.5v2l-297 321h716l-379 -321v-2q67 0 111.5 -11.5t74.5 -37t51 -68t40 -104.5t43 -146h-27q-25 92 -45.5 154.5t-42.5 101t-50.5 58t-69 26.5t-98.5 7q-2 -22 -4.5 -43t-5.5 -41l-36 -263h-24l36 263
q3 20 6.5 41t7.5 43q-58 0 -100.5 -7t-76.5 -26.5t-66.5 -58t-70.5 -101t-88 -154.5h-27zM424 380l338 288h-605z" />
    <glyph glyph-name="uni046B" unicode="&#x46b;" horiz-adv-x="670" 
d="M-5 0q36 59 63.5 102.5t52.5 74t53.5 49t65.5 26.5t89 8v2l-230 218h555l-286 -218v-2q52 0 86.5 -8t58 -26.5t40 -49t31.5 -74t34 -102.5h-27q-25 80 -44.5 128t-43 72t-58 32t-89.5 8q-2 -15 -3.5 -29.5t-3.5 -28.5l-26 -182h-24l26 182q2 14 4.5 28.5t5.5 29.5
q-55 0 -92 -8t-67 -32t-63.5 -72t-80.5 -128h-27zM340 274l244 185h-441z" />
    <glyph glyph-name="uni0472" unicode="&#x472;" horiz-adv-x="660" 
d="M94 338v22h480v-22h-480zM386 702q95 0 146.5 -34.5t65 -113.5t-5.5 -211q-13 -98 -36 -166t-58 -109.5t-86 -60.5t-122 -19q-95 0 -146.5 34.5t-65 113.5t4.5 211q14 98 37 166t58 109.5t86.5 60.5t121.5 19zM386 679q-87 0 -142 -32t-86.5 -105.5t-49.5 -198.5
q-17 -123 -5.5 -196t57 -104.5t129.5 -31.5q87 0 142 32t87 106t49 198q18 124 7 196.5t-56 104t-132 31.5z" />
    <glyph glyph-name="uni0473" unicode="&#x473;" horiz-adv-x="560" 
d="M245 -12q-77 0 -120 24.5t-55.5 80t0.5 147.5q13 93 41 148t77 79.5t127 24.5t120.5 -24.5t55 -79.5t-0.5 -148q-13 -92 -41 -147.5t-77 -80t-127 -24.5zM248 11q68 0 111.5 21t68.5 71.5t37 136.5q12 87 1 137t-48.5 71t-105.5 21t-111.5 -21t-68.5 -71t-37 -137
q-12 -86 -1 -136.5t48.5 -71.5t105.5 -21zM83 240l3 20h395l-3 -20h-395z" />
    <glyph glyph-name="uni0474" unicode="&#x474;" horiz-adv-x="636" 
d="M230 0q-4 0 -7.5 2.5t-4.5 6.5l-140 681h27l120 -594q5 -19 8 -37t7 -37h28q5 10 7 14.5t4.5 9.5l8 16t15.5 35l221 510q11 26 25.5 48t38 35.5t60.5 13.5q5 0 11.5 -0.5t13.5 -1.5l-4 -20h-7.5h-7.5q-40 0 -63 -16.5t-46 -69.5l-259 -587q-2 -4 -5.5 -6.5t-8.5 -2.5h-42
z" />
    <glyph glyph-name="uni0475" unicode="&#x475;" horiz-adv-x="533" 
d="M200 0q-4 0 -7 2t-5 6l-129 475h28l110 -410q3 -13 7 -26t6 -26h23q6 9 8.5 12.5t6.5 11.5t14 29l171 350q7 15 15.5 27.5t20.5 22t29 14.5t41 5q5 0 10.5 -0.5t9.5 -1.5l-2 -19h-6.5h-7.5q-32 0 -51 -11.5t-36 -46.5l-205 -406q-1 -4 -5 -6t-8 -2h-38z" />
    <glyph glyph-name="uni048A" unicode="&#x48a;" horiz-adv-x="678" 
d="M514 22h89l-3 -19l-57 -154h-19l51 151h-64zM631 690l-97 -690h-25l78 553q4 24 7 48l6 48l-1 -1q-10 -14 -21 -29.5t-22 -29.5l-470 -589h-24l97 690h25l-77 -548q-4 -25 -7 -50t-7 -51l1 1q11 14 25 33t25 33l463 582h24zM527 875h24q-5 -35 -25.5 -63t-53 -43.5
t-74.5 -15.5t-70.5 15.5t-41 43.5t-7.5 63h24q-7 -49 20.5 -76.5t77.5 -27.5q49 0 84 27.5t42 76.5z" />
    <glyph glyph-name="uni048B" unicode="&#x48b;" horiz-adv-x="556" 
d="M408 20h69l-2 -19l-56 -144h-19l50 143h-44zM140 480l-51 -359q-8 -57 15 -83.5t78 -26.5q54 0 110.5 36.5t129.5 106.5l1 -24q-69 -70 -130.5 -106t-114.5 -36q-64 0 -93.5 34t-19.5 98l51 360h24zM490 480l-68 -480h-18l16 131l-1 16l47 333h24zM444 693h24
q-5 -35 -25.5 -63t-53 -43.5t-74.5 -15.5t-70.5 15.5t-41 43.5t-7.5 63h24q-7 -49 20.5 -76.5t77.5 -27.5q49 0 84 27.5t42 76.5z" />
    <glyph glyph-name="uni048C" unicode="&#x48c;" horiz-adv-x="600" 
d="M64 532l4 23h398l-4 -23h-398zM375 384q80 0 122.5 -20t55 -63.5t2.5 -114.5q-10 -77 -36.5 -119t-74 -58.5t-121.5 -16.5q-52 0 -88 0.5t-66 2.5t-65 5l15 18q21 -1 74 -2t129 -1q66 0 108 14t66 52t34 109q9 63 -1.5 100.5t-47.5 54t-107 16.5h-207l3 23h205zM225 690
l-97 -690h-25l97 690h25z" />
    <glyph glyph-name="uni048D" unicode="&#x48d;" horiz-adv-x="490" 
d="M235 -12q-33 0 -65.5 4t-59 16.5t-40 36.5t-7.5 63l86 582h24l-87 -584q-5 -33 7.5 -52.5t35 -28.5t49.5 -12t51 -3q58 0 92.5 10.5t52 37.5t24.5 76q6 45 -3 70.5t-40.5 36.5t-92.5 11q-40 0 -86 -10.5t-92 -54.5l3 21q45 44 90.5 54.5t85.5 10.5q69 0 106.5 -14
t49.5 -45.5t4 -84.5q-8 -55 -28.5 -86t-59 -43t-100.5 -12zM24 460l3 20h308l-3 -20h-308z" />
    <glyph glyph-name="uni048E" unicode="&#x48e;" horiz-adv-x="570" 
d="M379 698q74 0 115.5 -18t55 -62t2.5 -124q-11 -79 -36.5 -123t-71 -61.5t-118.5 -17.5q-40 0 -75 0.5t-62.5 1.5t-46.5 1.5t-27 1.5l4 18h102.5h104.5q64 1 104.5 16.5t63 54.5t32.5 111q10 71 -1 109.5t-46.5 53.5t-98.5 15q-76 0 -132 -0.5t-76 -2.5l-13 18
q36 4 66.5 5.5t66.5 2t87 0.5zM184 690l-97 -690h-25l97 690h25zM369 431l15 16l189 -189l-15 -16z" />
    <glyph glyph-name="uni048F" unicode="&#x48f;" horiz-adv-x="606" 
d="M308 135l17 13l154 -219l-18 -13zM368 492q61 0 89.5 -27.5t32 -83.5t-9.5 -143q-11 -75 -27.5 -123.5t-43.5 -76.5t-70 -39t-108 -11q-22 0 -43.5 1t-44 2.5t-45 3.5t-46.5 5l10 18q54 -3 90.5 -5.5t75.5 -2.5q61 0 100.5 9.5t64 34.5t39 70.5t24.5 117.5q12 80 10 130
t-24.5 73.5t-73.5 23.5q-32 0 -75 -16.5t-88 -48.5t-87 -79v27q32 36 66 62.5t67.5 43.5t63.5 25.5t53 8.5zM138 480l-15 -133l1 -4l-45 -327l-6 -17q-1 -26 -3.5 -46.5t-6.5 -46.5l-18 -126h-24l99 700h18z" />
    <glyph glyph-name="uni0490" unicode="&#x490;" horiz-adv-x="513" 
d="M257 690h96t94 -1t95 -3l-3 -18h-277q-36 0 -62.5 -19t-32.5 -64l-82 -585h-25l83 589q8 53 39.5 77t74.5 24zM568 841l-26 -155l-25 -17l33 172h18z" />
    <glyph glyph-name="uni0491" unicode="&#x491;" horiz-adv-x="433" 
d="M207 480q58 0 112.5 -0.5t111.5 -2.5l-3 -19h-216q-37 0 -57.5 -14.5t-27.5 -61.5l-54 -382h-24l55 387q8 52 34 72.5t69 20.5zM454 627l-23 -150l-25 -16l30 166h18z" />
    <glyph glyph-name="uni0492" unicode="&#x492;" horiz-adv-x="537" 
d="M21 336l4 23h371l-4 -23h-371zM291 690h96t94.5 -1t95.5 -3l-4 -18h-277q-35 0 -62 -19.5t-33 -63.5l-82 -585h-25l83 589q8 52 39.5 76.5t74.5 24.5z" />
    <glyph glyph-name="uni0493" unicode="&#x493;" horiz-adv-x="438" 
d="M-2 209l4 20h291l-4 -20h-291zM218 480h75t73.5 -0.5t74.5 -2.5l-2 -19h-219q-37 0 -58 -18.5t-26 -56.5l-54 -383h-24l55 386q6 44 34 69t71 25z" />
    <glyph glyph-name="uni0494" unicode="&#x494;" horiz-adv-x="578" 
d="M209 -141v19q56 5 100.5 19t78.5 45t56.5 86t34.5 140q11 76 6 123.5t-21.5 73t-42.5 35t-58 9.5q-47 0 -87 -11.5t-78 -31.5t-81 -47l3 23q69 47 127.5 68.5t121.5 21.5q37 0 66.5 -11.5t49 -40t25 -80t-5.5 -131.5q-12 -86 -35.5 -144.5t-59.5 -94.5t-85.5 -52.5
t-114.5 -18.5zM258 690q67 0 132.5 -0.5t132.5 -3.5l-5 -18h-258q-36 0 -62 -23t-31 -59l-83 -586h-25l83 588q4 30 20.5 53t41.5 36t54 13z" />
    <glyph glyph-name="uni0495" unicode="&#x495;" horiz-adv-x="516" 
d="M233 480h68.5t67 -0.5t67.5 -2.5l-3 -19h-199q-37 0 -57.5 -18.5t-25.5 -56.5l-54 -383h-24l54 386q7 44 35 69t71 25zM180 -211l1 19q70 6 121 29t83.5 76.5t45.5 149.5q12 84 -1.5 127.5t-45.5 58.5t-75 15q-55 0 -96.5 -19t-91.5 -51l4 23q53 36 97.5 53t92.5 17
q37 0 67 -9.5t50 -34t27 -68t-3 -111.5q-13 -97 -47 -157t-90.5 -87.5t-138.5 -30.5z" />
    <glyph glyph-name="uni0496" unicode="&#x496;" horiz-adv-x="931" 
d="M785 0l3 22h102l-3 -22h-102zM848 -151l16 158h24l-22 -158h-18zM145 690q14 -56 28 -112.5t33.5 -103t49 -75t73.5 -28.5l2 -22q-51 0 -90.5 -24.5t-73 -71t-65.5 -111t-68 -142.5h-28q27 59 52 112t50.5 97.5t52.5 77.5t57 52t64 21v2q-28 4 -49.5 25t-38 55
t-29.5 75.5t-24 86t-21 86.5h25zM457 371l-3 -22h-156l3 22h156zM518 690l-33 -237q-4 -26 -7 -46.5t-10 -47.5q-1 -26 -3.5 -49t-6.5 -48l-37 -262h-24l37 264q4 25 8 48t10 51q1 26 3 46t6 46l33 235h24zM624 371l-3 -22h-156l3 22h156zM885 690q-20 -42 -41.5 -87
t-44.5 -87t-48 -76t-52.5 -55t-57.5 -24v-2q30 -4 51.5 -24.5t37.5 -54.5t28.5 -78t23.5 -95t23 -107h-25q-16 74 -30.5 137.5t-33.5 111t-49 74t-77 26.5l4 22q45 0 81.5 28.5t68 75t59.5 103t55 112.5h27z" />
    <glyph glyph-name="uni0497" unicode="&#x497;" horiz-adv-x="771" 
d="M720 21l-23 -164h-17l14 143h-38l3 21h61zM109 480q12 -40 25.5 -79t31.5 -70.5t44.5 -50.5t66.5 -19v-21q-43 0 -75.5 -18t-60 -51t-54 -77t-56.5 -94h-27q22 38 43.5 74t43 67.5t44 55t48 38t55.5 16.5v1q-27 4 -47.5 18.5t-36 37t-28 51t-22.5 59.5t-19 62h24z
M375 261l-3 -21h-120l3 21h120zM423 480l-23 -162q-3 -19 -5.5 -34t-8.5 -35q0 -18 -1.5 -34.5t-3.5 -33.5l-26 -181h-24l26 183q2 17 5.5 34t8.5 36q-1 18 0.5 33t4.5 34l23 160h24zM499 261l-3 -21h-112l3 21h112zM731 480q-18 -31 -37 -62.5t-39 -60.5t-41.5 -51.5
t-46 -37t-51.5 -17.5v-1q29 -3 49.5 -17.5t36.5 -38t28 -54t23 -66.5t23 -74h-24q-16 50 -29.5 94t-31.5 77t-46 51t-72 18l2 21q39 0 71 19t59 50.5t51.5 70.5t48.5 79h26z" />
    <glyph glyph-name="uni0498" unicode="&#x498;" horiz-adv-x="540" 
d="M280 698q82 0 129 -15.5t63.5 -55t6.5 -111.5q-10 -73 -43 -111.5t-95 -44.5l-3 -4q77 -7 100.5 -55t11.5 -131q-10 -70 -35.5 -109t-73.5 -54t-126 -15q-40 0 -77 1.5t-71 4.5t-65 8l5 18q21 -1 76 -5t131 -4q69 0 112 13t66 47.5t32 98.5q10 68 -3.5 105.5t-54 52.5
t-112.5 15h-102l3 21h100q65 0 106 13t63 46t30 93q9 64 -5 97t-55 45.5t-113 12.5q-42 0 -76 -2t-57.5 -3.5t-35.5 -2.5l-3 18q45 7 85 10t86 3zM176 -49q26 2 43 -5t24 -22t3 -40q-4 -33 -24.5 -58.5t-53.5 -37.5t-75 -7l5 15q53 -2 87.5 26t39.5 66q4 27 -7.5 37.5
t-44.5 11.5z" />
    <glyph glyph-name="uni0499" unicode="&#x499;" horiz-adv-x="484" 
d="M222 486q76 0 119.5 -11t59 -39t8.5 -78q-7 -49 -32 -77t-85 -33l-2 -2q64 -5 87.5 -36.5t15.5 -93.5q-7 -49 -29 -75.5t-66.5 -36.5t-118.5 -10q-40 0 -89.5 2.5t-87.5 7.5l5 18q12 0 39 -1.5t62 -3t70 -1.5q67 0 106 8t58.5 31.5t25.5 67.5q9 67 -25.5 89.5
t-128.5 23.5l-95 1l2 19l94 1q59 1 94 9.5t52.5 31t22.5 61.5q6 45 -7.5 67.5t-52 30t-108.5 7.5q-37 0 -74 -1.5t-57 -4.5l-3 18q38 6 74 8t66 2zM151 -49q26 2 43 -5t24 -22t3 -40q-4 -33 -24.5 -58.5t-53.5 -37.5t-75 -7l5 15q53 -2 87.5 26t39.5 66q4 27 -7.5 37.5
t-44.5 11.5z" />
    <glyph glyph-name="uni049A" unicode="&#x49a;" horiz-adv-x="625" 
d="M572 22l-3 -22h-105l3 22h105zM570 7l-22 -158h-18l16 158h24zM569 689q-24 -42 -49 -87t-51.5 -86.5t-55.5 -75.5t-60.5 -55t-66.5 -24l-2 -2q37 -2 64.5 -23t48 -56t36 -80t29 -96t27.5 -104h-27q-19 70 -36 133t-40.5 112t-59 76.5t-92.5 27.5l4 22q51 0 93.5 28.5
t78.5 75.5t69 103.5t64 112.5zM183 690l-33 -237q-4 -26 -7.5 -46.5t-8.5 -47.5q-1 -26 -4 -49t-7 -48l-37 -262h-24l97 690h24zM268 371l-3 -22h-145l3 22h145z" />
    <glyph glyph-name="uni049B" unicode="&#x49b;" horiz-adv-x="513" 
d="M468 21l-23 -164h-17l14 143h-38l3 21h61zM483 479q-19 -31 -39.5 -62.5t-41.5 -60t-44.5 -51.5t-49.5 -37.5t-55 -16.5l-3 -1q31 -2 54.5 -16t41.5 -38t32 -55t26 -67t25 -74h-27q-17 50 -32.5 94t-35.5 77t-50 51t-77 18l3 21q42 0 76.5 19t63.5 51t55.5 71t51.5 79z
M144 480l-23 -162q-3 -19 -5.5 -34t-7.5 -35q0 -18 -2 -34.5t-4 -33.5l-26 -181h-24l68 480h24zM236 261l-3 -21h-136l3 21h136z" />
    </font>
</defs>
</svg>
