<?xml version="1.0" standalone="no"?>
<!DOCTYPE svg PUBLIC "-//W3C//DTD SVG 1.1//EN" "http://www.w3.org/Graphics/SVG/1.1/DTD/svg11.dtd" >
<svg xmlns="http://www.w3.org/2000/svg" xmlns:xlink="http://www.w3.org/1999/xlink" version="1.1">
<metadata>
Created by FontForge 20170731 at Tue Aug 10 21:38:44 2021
 By Aleksey,,,
Copyright 2013 The Exo 2 Project Authors (https://github.com/NDISCOVER/Exo-2.0)
</metadata>
<defs>
<font id="Exo2-LightItalic" horiz-adv-x="554" >
  <font-face 
    font-family="Exo 2 Light"
    font-weight="300"
    font-style="italic"
    font-stretch="normal"
    units-per-em="1000"
    panose-1="0 0 0 0 0 0 0 0 0 0"
    ascent="800"
    descent="-200"
    x-height="485"
    cap-height="690"
    bbox="-392 -270 1218 1033.33"
    underline-thickness="50"
    underline-position="-175"
    slope="-8"
    unicode-range="U+000D-FB02"
  />
<missing-glyph horiz-adv-x="635" 
d="M207 690l-98 -690h-41l98 690h41zM596 690l-98 -690h-41l98 690h41zM166 690h430l-5 -41h-430zM74 41h430l-6 -41h-430z" />
    <glyph glyph-name="fi" unicode="fi" horiz-adv-x="582" 
d="M309 716q15 0 36.5 -0.5t43.5 -1.5t39 -4l-4 -47h-95q-52 0 -77.5 -23t-32.5 -77l-90 -629q-9 -67 -43.5 -102.5t-102.5 -35.5q-20 0 -48.5 1t-57.5 5l9 47h77q50 0 73.5 20t30.5 74l89 629q6 47 23.5 79t49 48.5t80.5 16.5zM472 485l-7 -52h-416l6 47l93 5h324zM524 485
l-69 -485h-63l69 485h63zM533 689q11 0 16 -6.5t3 -16.5l-7 -59q-2 -10 -6.5 -14.5t-16.5 -4.5h-29q-10 0 -15.5 6t-4.5 17l9 58q1 10 6 15t16 5h29z" />
    <glyph glyph-name="fl" unicode="fl" horiz-adv-x="644" 
d="M309 716q26 0 54.5 -0.5t58 -1t57 -2t50 -3t37.5 -3.5l-81 -594q-5 -34 10 -51.5t49 -17.5h52l3 -41q-8 -3 -23 -5.5t-30 -3.5t-26 -1q-53 0 -80.5 29.5t-20.5 81.5l79 561h-169q-52 0 -77.5 -23t-32.5 -78l-90 -629q-9 -67 -43.5 -102.5t-102.5 -35.5q-20 0 -48.5 1
t-57.5 5l9 47h77q50 0 73.5 20t30.5 74l89 629q10 70 45 107.5t108 36.5zM361 485l-7 -52h-305l6 47l93 5h213z" />
    <glyph glyph-name="f_f" unicode="ff" horiz-adv-x="690" 
d="M307 701q16 0 40 -0.5t48.5 -1.5t42.5 -3l-9 -48h-102q-52 0 -76.5 -19.5t-33.5 -73.5l-88 -621q-10 -67 -44 -102.5t-102 -35.5q-20 0 -48.5 1t-57.5 5l9 47h77q50 0 73.5 20t30.5 74l88 621q9 67 45.5 102t106.5 35zM631 716q16 0 40 -0.5t48.5 -1.5t42.5 -4l-9 -47
h-102q-52 0 -76.5 -20t-32.5 -74l-87 -614q-10 -67 -44 -102.5t-102 -35.5q-20 0 -48 1.5t-58 4.5l9 48h76q51 0 74 19.5t31 73.5l86 614q9 67 45.5 102.5t106.5 35.5zM693 485l-8 -52h-637l6 47l94 5h545z" />
    <glyph glyph-name="f_f_i" unicode="ffi" horiz-adv-x="904" 
d="M307 701q16 0 40 -0.5t48.5 -1.5t42.5 -3l-9 -48h-102q-52 0 -76.5 -19.5t-33.5 -73.5l-88 -621q-10 -67 -44 -102.5t-102 -35.5q-20 0 -48.5 1t-57.5 5l9 47h77q50 0 73.5 20t30.5 74l88 621q9 67 45.5 102t106.5 35zM631 716q16 0 40 -0.5t48.5 -1.5t42.5 -4l-9 -47
h-102q-52 0 -76.5 -20t-32.5 -74l-87 -614q-10 -67 -44 -102.5t-102 -35.5q-20 0 -48 1.5t-58 4.5l9 48h76q51 0 74 19.5t31 73.5l86 614q9 67 45.5 102.5t106.5 35.5zM812 485l-8 -52h-756l6 47l94 5h664zM846 485l-69 -485h-63l68 485h64zM855 689q11 0 16 -6.5t3 -16.5
l-8 -59q-1 -10 -6 -14.5t-15 -4.5h-30q-10 0 -15.5 6t-4.5 17l8 58q2 10 7 15t15 5h30z" />
    <glyph glyph-name="f_f_l" unicode="ffl" horiz-adv-x="967" 
d="M307 701q16 0 40 -0.5t48.5 -1.5t42.5 -3l-9 -48h-102q-52 0 -76.5 -19.5t-33.5 -73.5l-88 -621q-10 -67 -44 -102.5t-102 -35.5q-20 0 -48.5 1t-57.5 5l9 47h77q50 0 73.5 20t30.5 74l88 621q9 67 45.5 102t106.5 35zM683 485l-8 -52h-627l6 47l94 5h535zM630 716
q26 0 55 -0.5t58.5 -1t57 -2t50 -3t37.5 -3.5l-82 -594q-5 -34 10 -51.5t49 -17.5h53l3 -41q-8 -3 -23.5 -5.5t-30.5 -3.5t-26 -1q-53 0 -80 29.5t-20 81.5l79 561h-170q-52 0 -77 -23t-33 -78l-86 -608q-10 -67 -44.5 -102.5t-102.5 -35.5q-20 0 -48 1.5t-57 4.5l9 48h76
q50 0 73.5 19.5t30.5 73.5l86 608q10 70 45 107.5t108 36.5z" />
    <glyph glyph-name=".notdef" horiz-adv-x="635" 
d="M207 690l-98 -690h-41l98 690h41zM596 690l-98 -690h-41l98 690h41zM166 690h430l-5 -41h-430zM74 41h430l-6 -41h-430z" />
    <glyph glyph-name=".null" horiz-adv-x="0" 
 />
    <glyph glyph-name="nonmarkingreturn" horiz-adv-x="333" 
 />
    <glyph glyph-name="CR" unicode="&#xd;" horiz-adv-x="225" 
 />
    <glyph glyph-name="space" unicode=" " horiz-adv-x="225" 
 />
    <glyph glyph-name="exclam" unicode="!" horiz-adv-x="264" 
d="M220 695l-45 -318l-29 -169h-51l17 169l45 318h63zM115 107q13 0 18.5 -6.5t2.5 -19.5l-7 -58q-2 -12 -8.5 -17.5t-17.5 -5.5h-19q-26 0 -23 26l8 58q4 23 27 23h19z" />
    <glyph glyph-name="quotedbl" unicode="&#x22;" horiz-adv-x="340" 
d="M321 690l-34 -213h-45l26 213h53zM183 690l-35 -213h-44l26 213h53z" />
    <glyph glyph-name="numbersign" unicode="#" horiz-adv-x="675" 
d="M605 690l-217 -690h-51l217 690h51zM580 262l-13 -44h-530l14 44h529zM354 690l-217 -690h-51l217 690h51zM656 499l-15 -43h-528l14 43h529z" />
    <glyph glyph-name="dollar" unicode="$" horiz-adv-x="563" 
d="M334 702q50 -1 100 -5t98 -13l-8 -48q-37 3 -69 4.5t-62.5 2t-66.5 0.5q-34 0 -62 -2.5t-49 -12.5t-35 -33.5t-20 -66.5q-4 -35 1 -57.5t22.5 -37t51.5 -28.5l141 -55q52 -20 79 -45t34.5 -59.5t0.5 -85.5q-10 -74 -40.5 -111t-83 -49t-129.5 -12q-30 0 -83.5 3
t-119.5 14l8 48q51 -2 85.5 -3.5t61.5 -2t52 -0.5q60 1 97.5 9t58 33.5t27.5 77.5q6 39 0.5 61t-24 36.5t-52.5 27.5l-143 56q-48 19 -74.5 44.5t-34.5 60.5t-2 82q8 57 27.5 91t50.5 50t71.5 21t90.5 5zM277 352l34 -3l-100 -479h-35zM408 801l-93 -452l-34 3l92 449h35z
" />
    <glyph glyph-name="percent" unicode="%" horiz-adv-x="888" 
d="M753 690l-555 -690h-51l555 690h51zM261 661q-44 0 -70.5 -16.5t-40.5 -53t-22 -96.5q-8 -57 -3.5 -92.5t24.5 -51.5t59 -16q45 0 71 16.5t40.5 53.5t22.5 96q8 58 4 93.5t-24 51t-61 15.5zM259 703q60 0 92.5 -22t41.5 -67.5t-1 -118.5q-10 -71 -31 -115.5t-57 -65.5
t-94 -21t-90.5 22t-41.5 68t1 118q11 72 31 116t56 65t93 21zM695 359q-45 0 -71.5 -17t-40 -53.5t-22.5 -96.5q-7 -57 -3 -92.5t24 -51.5t59 -16q45 0 71 17t41 54t22 95q8 59 4.5 94t-24 51t-60.5 16zM693 400q59 0 91.5 -21.5t41.5 -67.5t-2 -119q-10 -71 -31 -115
t-57 -65t-93 -21q-59 0 -91.5 21.5t-41 67.5t1.5 118t30 116.5t56.5 65t94.5 20.5z" />
    <glyph glyph-name="ampersand" unicode="&#x26;" horiz-adv-x="768" 
d="M383 699q37 0 77.5 -4t86.5 -17l-11 -49q-35 8 -75.5 12t-77.5 4q-61 0 -100 -10t-60 -38.5t-30 -84.5q-9 -51 2 -79.5t45 -39t92 -10.5h402l-9 -51h-399q-65 0 -107.5 -11.5t-66.5 -44t-35 -95.5q-7 -42 -2 -68.5t20.5 -41t40.5 -20t59 -5.5q92 0 152.5 31t99.5 93
q43 65 57 153t12 197h59q1 -120 -15 -212.5t-60 -162.5q-33 -55 -78 -89t-100.5 -50t-122.5 -17q-75 -1 -120.5 16.5t-62.5 59t-8 112.5q9 58 31.5 97t60 59.5t91.5 22.5l1 5q-46 3 -72 23t-33 55.5t1 84.5q13 73 44 111t83 51t128 13z" />
    <glyph glyph-name="quotesingle" unicode="'" horiz-adv-x="202" 
d="M183 690l-35 -213h-44l26 213h53z" />
    <glyph glyph-name="parenleft" unicode="(" horiz-adv-x="355" 
d="M380 791l8 -34q-111 -52 -175 -160.5t-89 -286.5q-16 -113 -7.5 -199t43.5 -146.5t99 -97.5l-9 -31q-123 54 -169.5 172.5t-19.5 308.5q27 189 103.5 304.5t215.5 169.5z" />
    <glyph glyph-name="parenright" unicode=")" horiz-adv-x="355" 
d="M110 789q122 -52 170 -169t20 -313q-27 -188 -104 -303t-216 -170l-6 34q111 55 175 165.5t88 282.5q16 113 7.5 199.5t-43.5 147.5t-99 95z" />
    <glyph glyph-name="asterisk" unicode="*" horiz-adv-x="448" 
d="M300 691l-29 -159l81 -129l-35 -23l-63 123l-96 -122l-32 25l116 126l16 159h42zM110 597l118 -44l-2 -18l-11 -12l-121 36zM418 597l9 -41l-130 -33l-7 12l1 18z" />
    <glyph glyph-name="plus" unicode="+" horiz-adv-x="548" 
d="M329 503l-58 -410h-49l56 410h51zM494 323l-7 -49h-431l7 49h431z" />
    <glyph glyph-name="comma" unicode="," horiz-adv-x="219" 
d="M96 107q13 0 18 -6t2 -20l-9 -64q-3 -23 -10 -47.5t-17 -49t-22 -47.5l-33 11q10 30 17 56t14 62q-11 -1 -15.5 5t-3.5 16l8 60q3 13 9 18.5t21 5.5h21z" />
    <glyph glyph-name="hyphen" unicode="-" horiz-adv-x="459" 
d="M380 277l-6 -50h-307l7 50h306z" />
    <glyph glyph-name="period" unicode="." horiz-adv-x="218" 
d="M94 107q14 0 18.5 -6.5t3.5 -19.5l-8 -58q-2 -12 -8 -17.5t-18 -5.5h-22q-27 0 -23 26l8 58q3 23 27 23h22z" />
    <glyph glyph-name="slash" unicode="/" horiz-adv-x="514" 
d="M538 690l-498 -754h-57l498 754h57z" />
    <glyph glyph-name="zero" unicode="0" horiz-adv-x="594" 
d="M265 -13q-66 0 -111 23.5t-67 72t-22 123.5q0 61 6.5 130t23 134t48.5 117.5t80.5 84t120.5 31.5q67 0 111.5 -23.5t67 -71.5t22.5 -123q0 -63 -6 -132.5t-22.5 -134.5t-48 -117t-81 -83t-122.5 -31zM267 45q61 0 100 29.5t62.5 78t34.5 106.5t14.5 117t3.5 107
q0 86 -35.5 124t-105.5 38q-59 0 -97.5 -29.5t-62 -78t-35 -106.5t-15 -117t-3.5 -107q0 -86 35 -124t104 -38z" />
    <glyph glyph-name="one" unicode="1" horiz-adv-x="387" 
d="M326 690l-97 -690h-65l81 574q2 13 4.5 27t6.5 28l-183 -58l-2 47l190 72h65z" />
    <glyph glyph-name="two" unicode="2" 
d="M320 702q59 0 102 -9t67.5 -34.5t24.5 -75.5q0 -55 -22 -103.5t-59.5 -93t-83.5 -90.5l-242 -236l56 2t55 1h252l-9 -63h-446l6 42q1 9 3.5 16t8.5 13l249 244q44 42 81.5 85.5t60 87.5t22.5 87q0 31 -15.5 45.5t-44.5 19t-68 4.5q-33 0 -62.5 -1.5t-62.5 -5.5t-77 -12
l-3 51q49 11 84.5 16.5t65 7.5t57.5 2z" />
    <glyph glyph-name="three" unicode="3" horiz-adv-x="548" 
d="M307 703q104 0 148.5 -31t44.5 -99q0 -47 -14.5 -92.5t-43 -77t-71.5 -37.5l-1 -4q53 -9 78 -43t25 -86q0 -74 -30.5 -128t-88 -84.5t-139.5 -33.5q-42 -1 -93.5 3.5t-105.5 14.5l10 50q32 -3 63.5 -6t62.5 -4t57 1q96 7 147.5 56.5t51.5 132.5q0 27 -11.5 50.5t-40 38
t-79.5 14.5l-130 1l7 50l127 1q81 1 118 47t37 128q0 47 -30.5 63t-110.5 16q-41 0 -88 -3t-84 -6l-4 50q53 9 99.5 13.5t88.5 4.5z" />
    <glyph glyph-name="four" unicode="4" horiz-adv-x="603" 
d="M376 690l-262 -415q-12 -19 -6.5 -30.5t23.5 -11.5h418l-7 -47l-94 -7h-345q-29 0 -47 15.5t-20.5 39.5t12.5 47l260 409h68zM508 559l-79 -559h-62l62 444l29 115h50z" />
    <glyph glyph-name="five" unicode="5" horiz-adv-x="530" 
d="M508 690l-12 -56h-297l-41 -216l65 -3q76 -4 129.5 -19t81 -49.5t27.5 -96.5q0 -120 -65.5 -188t-186.5 -74q-40 -2 -88 3.5t-101 22.5l13 52q44 -12 86 -17t76 -3q98 5 150.5 56t52.5 147q0 47 -24 70t-74.5 31.5t-129.5 10.5l-46 3q-14 2 -22 11.5t-5 23.5l56 291h355z
" />
    <glyph glyph-name="six" unicode="6" horiz-adv-x="567" 
d="M378 702q14 0 37.5 -0.5t52 -3.5t52.5 -10l-14 -48q-20 3 -40 4t-42 1h-49q-52 0 -90 -12.5t-65 -47.5t-46.5 -100t-34.5 -169q-10 -74 -12.5 -125.5t9 -84t41.5 -47.5t84 -15q68 0 107.5 32t56 87.5t16.5 126.5q0 48 -21.5 75.5t-86.5 27.5q-54 0 -107 -26.5t-114 -97.5
l-1 42q38 52 74.5 81.5t76 42t86.5 12.5q83 0 119.5 -37t36.5 -106q0 -96 -25 -167t-80 -110t-146 -39q-66 0 -107 17.5t-61 56.5t-21.5 102t10.5 155q18 122 42.5 198t61 116t86 54.5t114.5 14.5z" />
    <glyph glyph-name="seven" unicode="7" horiz-adv-x="506" 
d="M478 690q30 0 38 -14t-4 -41l-307 -635h-67l285 589q6 12 12.5 23.5t13.5 22.5l-361 -1l4 56h386z" />
    <glyph glyph-name="eight" unicode="8" horiz-adv-x="608" 
d="M356 699q88 1 132.5 -19t57.5 -60.5t4 -104.5q-7 -45 -21.5 -79t-38.5 -53.5t-60 -23.5l-3 -4q42 -4 64 -27t27.5 -63t-3.5 -96q-8 -63 -32 -102t-75 -57t-143 -19q-87 0 -135.5 19t-65 59.5t-7.5 105.5q8 54 23.5 93.5t43 62t71.5 26.5l2 4q-50 6 -68 47.5t-8 112.5
q9 62 32 101.5t71 58.5t132 18zM310 332q-51 0 -84.5 -6t-54 -21.5t-32.5 -45t-18 -78.5q-7 -50 2 -79t44 -42t103 -13q67 0 105 14t56 44t24 82q7 46 4 74.5t-19 43.5t-47.5 21t-82.5 6zM353 645q-64 0 -99 -13t-51 -42t-23 -80q-7 -52 1.5 -79.5t41 -37t96.5 -9.5
q48 0 78.5 6t48.5 20t27.5 39.5t15.5 65.5q7 49 -0.5 77.5t-39 40.5t-96.5 12z" />
    <glyph glyph-name="nine" unicode="9" horiz-adv-x="567" 
d="M331 702q68 0 109.5 -19.5t60.5 -61.5t19 -109t-15 -161q-18 -115 -42.5 -186.5t-60 -110t-85.5 -52.5t-119 -14q-26 0 -64.5 2.5t-82.5 12.5l11 47q22 -2 43 -3l42 -2t44 -1q61 1 102.5 14.5t68.5 47t45 94.5t34 157q13 78 16.5 132.5t-7.5 89.5t-40.5 51t-82.5 16
q-61 0 -97.5 -20t-55.5 -60t-28 -102q-8 -62 0 -99.5t36 -53.5t77 -15q38 2 69.5 13.5t65.5 38t75 73.5l1 -40q-36 -50 -70 -80t-70.5 -43t-82.5 -15q-53 -2 -88.5 13t-54.5 45t-23 72.5t4 97.5q8 59 25.5 103t47.5 72t73 42t100 14z" />
    <glyph glyph-name="colon" unicode=":" horiz-adv-x="224" 
d="M154 437q14 0 18.5 -6.5t3.5 -19.5l-8 -58q-2 -12 -8 -17.5t-18 -5.5h-22q-27 0 -23 26l8 58q3 23 27 23h22zM108 107q14 0 18.5 -6.5t3.5 -19.5l-8 -58q-2 -12 -8 -17.5t-18 -5.5h-22q-27 0 -23 26l8 58q3 23 27 23h22z" />
    <glyph glyph-name="semicolon" unicode=";" horiz-adv-x="228" 
d="M144 437q14 0 18.5 -6.5t3.5 -19.5l-8 -58q-2 -12 -8 -17.5t-18 -5.5h-22q-27 0 -23 26l8 58q3 23 27 23h22zM101 107q13 0 18 -6t2 -20l-9 -64q-3 -23 -10 -47.5t-17 -49t-22 -47.5l-33 11q10 30 17 56t14 62q-11 -1 -15.5 5t-3.5 16l8 60q3 13 9 18.5t21 5.5h21z" />
    <glyph glyph-name="less" unicode="&#x3c;" horiz-adv-x="530" 
d="M486 499l-8 -55l-366 -148l324 -148l-7 -51l-377 174l7 52z" />
    <glyph glyph-name="equal" unicode="=" horiz-adv-x="588" 
d="M527 422l-7 -49h-431l7 49h431zM498 210l-7 -49h-431l7 49h431z" />
    <glyph glyph-name="greater" unicode="&#x3e;" horiz-adv-x="529" 
d="M102 500l377 -177l-8 -52l-426 -173l7 55l366 147l-324 150z" />
    <glyph glyph-name="question" unicode="?" horiz-adv-x="498" 
d="M306 712q98 0 145.5 -39t36.5 -119q-6 -45 -29 -77.5t-54 -60t-63 -55.5t-56 -65t-32 -89l-55 1q7 56 30 95.5t53 70t60 57t52 54.5t26 66q9 59 -21 83t-104 24q-51 0 -83 -1.5t-58 -4t-60 -6.5l-2 46q25 5 46 8t43.5 6t52.5 4.5t72 1.5zM220 107q13 0 18.5 -6.5
t4.5 -19.5l-9 -57q-1 -12 -7.5 -18t-17.5 -6h-19q-26 0 -23 26l8 57q4 24 27 24h18z" />
    <glyph glyph-name="at" unicode="@" horiz-adv-x="760" 
d="M426 632q95 0 152.5 -10.5t84.5 -43.5t29.5 -97.5t-12.5 -171.5q-12 -93 -26 -154.5t-35 -97.5t-53 -51t-79 -15q-31 0 -51.5 9t-31.5 26t-13.5 41t1.5 53l46 308h63l-49 -325q-4 -31 5 -44.5t35 -13.5q30 0 50.5 12.5t34 42.5t23.5 82.5t21 131.5q11 76 13.5 125.5
t-7 78t-33 41t-65 16t-104.5 3.5h-308l5 47q46 2 98 3.5t104.5 2.5t101.5 1zM304 447q46 0 93 -4.5t104 -14.5l-28 -39q-59 4 -92 5t-57 1q-54 0 -89 -7t-56 -25t-33.5 -52.5t-22.5 -89.5q-10 -60 -9 -99.5t19 -59.5t59 -20q56 0 109 35.5t113 104.5l11 -36q-34 -44 -71 -80
t-80 -57t-94 -21q-46 0 -73.5 17t-40.5 48.5t-13 75.5t9 98q12 69 30 112.5t46.5 67t69 32t96.5 8.5z" />
    <glyph glyph-name="A" unicode="A" horiz-adv-x="612" 
d="M400 690q9 0 16 -5.5t8 -14.5l137 -670h-66l-112 581q-2 15 -4 29.5t-5 28.5h-30q-6 -14 -13 -29t-13 -29l-275 -581h-70l326 672q3 10 10 14t16 4h75zM482 286l-8 -58h-350l8 58h350z" />
    <glyph glyph-name="B" unicode="B" horiz-adv-x="615" 
d="M359 698q83 0 131.5 -16t66 -56t7.5 -111q-10 -73 -42.5 -111.5t-95.5 -44.5l-1 -4q76 -7 99.5 -56t11.5 -130q-10 -70 -36 -109t-74.5 -53.5t-126.5 -14.5q-58 0 -99 0.5t-76 2.5t-73 5l20 52q22 -1 80.5 -2t138.5 -1q61 0 98.5 11t57 40.5t26.5 83.5q9 59 -2.5 90.5
t-45.5 44t-96 13.5h-217l8 51h212q55 1 90 12t53.5 39.5t25.5 79.5q8 53 -3.5 80.5t-45.5 37t-94 9.5h-87h-67t-45 -1l-10 50q34 4 64 5.5t65 2t82 0.5zM212 690l-97 -690h-64l97 690h64z" />
    <glyph glyph-name="C" unicode="C" horiz-adv-x="563" 
d="M384 702q43 0 74.5 -2t56.5 -6t52 -12l-12 -49q-28 4 -53 6.5t-52.5 3.5t-65.5 1q-57 0 -97 -15t-68.5 -49t-47 -92t-29.5 -146q-16 -111 -7.5 -175.5t47 -92t110.5 -28.5q64 0 107.5 3t85.5 9l5 -49q-44 -11 -88.5 -16t-109.5 -5q-98 0 -152 36.5t-69.5 116t2.5 207.5
q14 98 37.5 166t59.5 109.5t88.5 60t125.5 18.5z" />
    <glyph glyph-name="D" unicode="D" horiz-adv-x="661" 
d="M375 699q101 0 157 -34t72 -112t-2 -211q-15 -107 -40 -176t-62 -107t-91 -53t-129 -15q-57 0 -116.5 2.5t-112.5 6.5l35 52q44 -1 95.5 -2t97.5 -1q61 0 103.5 13t72 46t48 91.5t31.5 148.5q12 87 10 144.5t-20.5 90t-55 46t-94.5 13.5q-31 0 -67 -0.5t-71.5 -1.5
t-63.5 -2l-24 52q34 3 73.5 5t79 3t74.5 1zM214 690l-97 -690h-66l97 690h66z" />
    <glyph glyph-name="E" unicode="E" 
d="M260 691h100.5t100 -1.5t96.5 -4.5l-9 -51h-279q-37 0 -56 -18t-24 -55l-60 -435q-5 -34 10 -52t50 -18h277l-1 -51q-46 -3 -94 -4t-96 -1.5t-95 -0.5q-65 0 -95.5 34.5t-22.5 91.5l64 454q7 51 41 81.5t93 30.5zM118 392h356l-7 -51l-357 -1z" />
    <glyph glyph-name="F" unicode="F" horiz-adv-x="535" 
d="M264 691q73 0 146.5 -1t141.5 -5l-9 -51h-265q-38 0 -59 -16.5t-26 -56.5l-79 -561h-65l80 576q8 55 43.5 85t91.5 30zM119 383h349l-7 -50l-349 -1z" />
    <glyph glyph-name="G" unicode="G" horiz-adv-x="623" 
d="M393 703q38 0 71.5 -2t64.5 -6.5t60 -12.5l-10 -48q-31 4 -61 6t-59 3t-59 1q-63 0 -107 -14t-73.5 -47.5t-48 -92t-30.5 -148.5q-12 -108 -4.5 -173.5t38.5 -94t91 -28.5q40 0 74.5 14.5t67 40.5t66.5 59l7 -45q-25 -30 -51.5 -53.5t-55.5 -40t-61 -25.5t-66 -9
q-76 0 -119.5 37.5t-56.5 117t2 206.5q14 104 39 173t64 108.5t92.5 56.5t124.5 17zM567 400l-57 -400h-47l5 112l-2 17l37 271h64z" />
    <glyph glyph-name="H" unicode="H" horiz-adv-x="663" 
d="M214 690l-97 -690h-66l97 690h66zM531 397l-7 -57h-367l8 57h366zM627 690l-97 -690h-65l97 690h65z" />
    <glyph glyph-name="I" unicode="I" horiz-adv-x="250" 
d="M214 690l-97 -690h-66l97 690h66z" />
    <glyph glyph-name="J" unicode="J" horiz-adv-x="333" 
d="M300 690l-79 -557q-9 -70 -46 -105.5t-99 -35.5q-12 0 -27.5 1.5t-30.5 4t-25 5.5l13 45h50q44 0 69.5 22t31.5 64l77 556h66z" />
    <glyph glyph-name="K" unicode="K" horiz-adv-x="581" 
d="M600 690l-249 -290q-9 -10 -19 -20t-23 -20v-3q7 -9 14.5 -20t13.5 -22l181 -315h-75l-206 362l283 328h80zM213 690l-31 -224q-4 -29 -9.5 -54t-14.5 -54q1 -27 -1 -53t-6 -51l-35 -254h-65l97 690h65zM282 386l-7 -53h-137l7 53h137z" />
    <glyph glyph-name="L" unicode="L" horiz-adv-x="506" 
d="M211 690l-78 -564q-5 -32 9.5 -51t50.5 -19h258l-2 -51q-67 -4 -135.5 -5t-135.5 -1q-37 0 -64.5 15.5t-39.5 44.5t-6 69l77 562h66z" />
    <glyph glyph-name="M" unicode="M" horiz-adv-x="869" 
d="M786 690q14 0 21 -8.5t6 -22.5l-64 -659h-66l64 635h-21l-255 -542q-5 -11 -12 -16t-19 -5h-66q-12 0 -19 6.5t-10 17.5l-106 539h-22l-115 -635h-65l121 662q3 14 10.5 21t20.5 7h77q11 0 18 -6.5t8 -17.5l91 -450q5 -24 8.5 -47.5t7.5 -46.5h22q10 24 21 48t21 46
l213 452q6 12 13 16.5t19 4.5z" />
    <glyph glyph-name="N" unicode="N" horiz-adv-x="698" 
d="M662 690l-94 -664q-2 -13 -8.5 -19.5t-19.5 -6.5h-66q-12 0 -19 6t-11 18l-196 524q-7 18 -14 40t-13 41h-20q-2 -21 -4 -42.5t-5 -43.5l-75 -543h-66l93 664q3 14 10 20t20 6h63q12 0 19 -6t11 -18l191 -511q8 -21 16.5 -45.5t15.5 -47.5h22q3 24 5 47.5t6 47.5l74 533
h65z" />
    <glyph glyph-name="O" unicode="O" horiz-adv-x="664" 
d="M387 703q95 0 149.5 -35t71 -114t-2.5 -212q-13 -99 -36.5 -167.5t-59.5 -109.5t-89 -59.5t-125 -18.5q-95 0 -150.5 34.5t-72.5 113.5t1 213q14 98 37 165.5t59.5 109.5t90 61t127.5 19zM383 644q-76 0 -123.5 -28t-74.5 -94t-43 -180q-16 -111 -7 -175.5t48 -92.5
t112 -28q76 0 123 28.5t75.5 94.5t43.5 179q17 113 8 177.5t-48 91.5t-114 27z" />
    <glyph glyph-name="P" unicode="P" horiz-adv-x="585" 
d="M377 699q78 0 123 -20t60.5 -66.5t3.5 -127.5q-11 -85 -38 -130t-74.5 -62t-124.5 -17q-39 0 -75.5 1.5t-66.5 4.5t-51 5.5t-30 4.5l5 41h107.5h108.5q58 0 92.5 14t53.5 47.5t28 96.5q9 60 -0.5 93t-39.5 45t-84 12q-80 0 -138.5 -0.5t-79.5 -2.5l-9 52q37 4 69.5 6
t69.5 2.5t90 0.5zM214 690l-97 -690h-66l97 690h66z" />
    <glyph glyph-name="Q" unicode="Q" horiz-adv-x="664" 
d="M387 703q95 0 149.5 -35t71 -114t-2.5 -212q-13 -99 -36.5 -167.5t-59.5 -109.5t-89 -59.5t-125 -18.5q-95 0 -150.5 34.5t-72.5 113.5t1 213q14 98 37 165.5t59.5 109.5t90 61t127.5 19zM244 -46q51 -30 110.5 -49.5t130.5 -30.5l-25 -66q-74 15 -134.5 43t-107.5 64z
M383 644q-76 0 -123.5 -28t-74.5 -94t-43 -180q-16 -111 -7 -175.5t48 -92.5t112 -28q76 0 123 28.5t75.5 94.5t43.5 179q17 113 8 177.5t-48 91.5t-114 27z" />
    <glyph glyph-name="R" unicode="R" horiz-adv-x="614" 
d="M377 699q73 0 118.5 -18t64.5 -61.5t8 -121.5q-8 -55 -26.5 -92.5t-49.5 -57.5t-78 -27l-1 -4q18 -5 32 -18.5t23.5 -34t14.5 -47.5l44 -217h-67l-42 218q-8 43 -29.5 60t-56.5 18q-61 1 -105 1.5t-73.5 1t-48.5 1.5l9 53h216q55 1 89.5 14t54 45t27.5 89q8 56 -1 86
t-39 42t-85 12q-82 0 -140 -0.5t-79 -1.5l-9 51q37 4 70 6t71 2.5t88 0.5zM212 690l-97 -690h-64l97 690h64z" />
    <glyph glyph-name="S" unicode="S" horiz-adv-x="558" 
d="M330 702q50 -1 100.5 -5t97.5 -13l-7 -48q-38 3 -69.5 4.5t-62.5 2t-66 0.5q-34 0 -62.5 -2.5t-49.5 -12.5t-35 -33.5t-19 -66.5q-4 -35 0.5 -57.5t22 -37t52.5 -28.5l140 -55q52 -20 79 -45t35 -59.5t1 -85.5q-11 -74 -41.5 -111t-82.5 -49t-130 -12q-30 0 -83 3
t-120 14l8 48q52 -2 86.5 -3.5t61 -2t52.5 -0.5q59 1 96.5 9t58 33.5t28.5 77.5q5 39 0 61t-23.5 36.5t-53.5 27.5l-142 56q-48 19 -74.5 44.5t-34.5 60.5t-2 82q8 57 27.5 91t50 50t71 21t90.5 5z" />
    <glyph glyph-name="T" unicode="T" horiz-adv-x="568" 
d="M372 690l-97 -690h-65l97 690h65zM602 690l-8 -58h-525l8 58h525z" />
    <glyph glyph-name="U" unicode="U" horiz-adv-x="665" 
d="M634 690l-60 -430q-14 -99 -46.5 -159t-88.5 -87t-142 -27q-88 0 -140 28t-70 88.5t-4 159.5l59 427h67l-61 -430q-10 -80 -0.5 -127t45.5 -67t102 -20q67 0 110 21t67.5 69t36.5 127l59 427h66z" />
    <glyph glyph-name="V" unicode="V" horiz-adv-x="599" 
d="M635 690l-314 -672q-7 -18 -27 -18h-71q-10 0 -16 6t-8 15l-127 669h67l99 -565q4 -19 7 -37.5t5 -37.5h26q7 19 15.5 39t17.5 39l257 562h69z" />
    <glyph glyph-name="W" unicode="W" horiz-adv-x="937" 
d="M962 690l-250 -671q-4 -9 -11 -14t-18 -5h-78q-10 0 -17 6.5t-8 16.5l-47 541q-1 20 -3 38t-4 37h-22q-7 -19 -14 -39l-14 -40l-197 -540q-3 -10 -10.5 -15t-17.5 -5h-78q-10 0 -17.5 6.5t-8.5 15.5l-63 668h67l48 -561q2 -19 2.5 -39t1.5 -41h26q8 21 14.5 42t13.5 41
l197 536q6 22 28 22h75q10 0 16.5 -7t7.5 -17l50 -537q2 -20 3.5 -40t2.5 -40h26q6 20 13 41t14 40l203 560h69z" />
    <glyph glyph-name="X" unicode="X" horiz-adv-x="602" 
d="M166 690l143 -338l-246 -352h-76l254 358l-143 332h68zM360 385l-8 -52h-87l8 52h87zM618 690l-238 -332l154 -358h-68l-153 366l232 324h73z" />
    <glyph glyph-name="Y" unicode="Y" 
d="M595 690l-298 -450h-58l-172 450h67l115 -308q6 -17 12.5 -36t10.5 -38h7q9 18 21 39t22 38l201 305h72zM307 291l-40 -291h-67l42 291h65z" />
    <glyph glyph-name="Z" unicode="Z" horiz-adv-x="559" 
d="M481 634l74 -1l-468 -577l-72 1zM480 57l-9 -57h-464l8 57h465zM563 690l-8 -57h-455l8 57h455z" />
    <glyph glyph-name="bracketleft" unicode="[" horiz-adv-x="319" 
d="M343 768l-6 -44h-106q-6 0 -11.5 -4.5t-6.5 -11.5l-114 -816q-2 -13 9 -13h110l-6 -44h-134q-20 0 -32 12t-9 35l118 842q3 20 16.5 32t34.5 12h137z" />
    <glyph glyph-name="backslash" unicode="\" horiz-adv-x="499" 
d="M134 690l289 -754h-52l-289 754h52z" />
    <glyph glyph-name="bracketright" unicode="]" horiz-adv-x="319" 
d="M243 768q20 0 32 -13.5t9 -33.5l-118 -842q-3 -19 -17 -31.5t-34 -12.5h-137l5 44h106q6 0 12 5t7 11l115 816q2 13 -11 13h-109l6 44h134z" />
    <glyph glyph-name="asciicircum" unicode="^" horiz-adv-x="414" 
d="M279 592l126 -207l-29 -18l-119 177h-8l-173 -177l-26 19l183 206h46z" />
    <glyph glyph-name="underscore" unicode="_" horiz-adv-x="436" 
d="M402 0l-8 -50h-436l8 50h436z" />
    <glyph glyph-name="grave" unicode="`" horiz-adv-x="301" 
d="M127 718l156 -147l-25 -29l-167 131z" />
    <glyph glyph-name="a" unicode="a" horiz-adv-x="570" 
d="M303 497q24 0 51 -1.5t54 -4.5l54 -6t52 -8l-28 -40q-55 2 -96 4t-69 2q-54 0 -88.5 -7.5t-55.5 -28.5t-33.5 -61.5t-22.5 -104.5q-11 -76 -9 -119t20.5 -60.5t57.5 -17.5q35 0 73 16t79 47t82 75l11 -36q-31 -46 -73 -81.5t-88.5 -56t-94.5 -20.5q-59 0 -90 25.5
t-38 82.5t7 151q12 79 30.5 128.5t47 76t69.5 36t98 9.5zM450 477h64l-67 -477h-50l10 117l-7 7z" />
    <glyph glyph-name="b" unicode="b" horiz-adv-x="569" 
d="M372 497q56 0 88.5 -23t42 -79t-4.5 -157q-12 -81 -30.5 -131t-46 -76t-65.5 -35t-89 -9q-29 0 -58 2.5t-57.5 7t-55.5 11t-53 14.5l33 34q35 -5 66.5 -8.5t58 -5t44.5 -1.5q52 0 84.5 8t52 30t31.5 61.5t20 102.5q11 78 8 121t-22.5 60t-60.5 17q-42 0 -98.5 -33
t-126.5 -96l-12 32q26 29 57 56.5t64 49t66 34.5t64 13zM200 700l-28 -202q-5 -36 -10.5 -65.5t-14.5 -60.5l5 -13l-47 -340l-63 3l96 678h62z" />
    <glyph glyph-name="c" unicode="c" horiz-adv-x="481" 
d="M310 497q32 0 73.5 -4.5t74.5 -17.5l-12 -41q-29 5 -65.5 6.5t-59.5 1.5q-64 0 -105 -17t-64 -60.5t-34 -124.5q-11 -80 -1 -122.5t44 -58.5t96 -16q16 0 40 1t52 3t52 6l5 -43q-36 -11 -78 -16.5t-81 -5.5q-84 0 -131 25.5t-62.5 82t-2.5 149.5q14 93 43.5 148.5
t81.5 79.5t134 24z" />
    <glyph glyph-name="d" unicode="d" horiz-adv-x="568" 
d="M297 497q49 0 104 -5.5t103 -14.5l-19 -39q-54 2 -95 4t-72 2q-53 0 -87.5 -8t-55.5 -29t-33 -61t-22 -105q-10 -72 -8.5 -115t18.5 -62.5t55 -19.5q55 0 112.5 34.5t124.5 103.5l11 -36q-22 -29 -51 -57t-63 -51t-72 -36.5t-78 -13.5q-52 0 -81 26.5t-36.5 83.5t4.5 149
q12 79 31 128.5t47 75.5t68 36t95 10zM544 700l-99 -700h-49l10 118l-6 6l46 339l8 16q1 26 3 49t6 50l17 122h64z" />
    <glyph glyph-name="e" unicode="e" horiz-adv-x="533" 
d="M313 497q70 0 111.5 -16t57.5 -49.5t4 -88.5q-8 -44 -28.5 -70t-56 -39t-90.5 -18l-239 -24l6 49l232 24q37 4 59.5 12t35.5 25t19 47q9 43 -3.5 63t-41.5 25.5t-71 5.5q-45 0 -76.5 -7.5t-53.5 -27.5t-36 -58.5t-24 -100.5q-12 -85 -1.5 -129.5t45 -61t92.5 -16.5
q28 0 60 2t62.5 5t55.5 6l5 -43q-22 -8 -57.5 -13.5t-72.5 -8t-65 -2.5q-82 0 -128 27.5t-60 85.5t-1 150q11 74 30 122t50 75t75 38t105 11z" />
    <glyph glyph-name="f" unicode="f" horiz-adv-x="368" 
d="M309 716q16 0 39.5 -0.5t48 -1.5t43.5 -4l-9 -47h-102q-52 0 -77 -20t-33 -74l-90 -635q-9 -67 -43.5 -102.5t-102.5 -35.5q-20 0 -48.5 1t-57.5 5l9 47h77q50 0 73.5 20t30.5 74l89 635q10 67 46.5 102.5t106.5 35.5zM371 485l-8 -52h-314l6 47l93 5h223z" />
    <glyph glyph-name="g" unicode="g" horiz-adv-x="573" 
d="M455 477h64l-71 -473q-6 -49 -24.5 -88t-50 -67.5t-76.5 -44t-105 -18.5q-16 -1 -47 -1t-65.5 3t-62.5 9l7 43q24 -1 49 -1.5t54 -0.5t63 2q77 5 128.5 40t65.5 113q8 43 15.5 76t20.5 56l-17 9zM298 497q35 0 72 -2.5t74.5 -7t70.5 -10.5l-28 -40q-55 2 -96 4t-72 2
q-53 0 -87 -7.5t-54.5 -28.5t-33 -61.5t-22.5 -104.5q-11 -75 -9.5 -118t20.5 -61t58 -18q35 0 73 16t78.5 46.5t81.5 75.5l14 -33q-32 -47 -74.5 -83t-90 -57t-95.5 -21q-55 0 -86.5 25t-39.5 81.5t6 152.5q12 80 31 129t47 75.5t68 36t94 9.5z" />
    <glyph glyph-name="h" unicode="h" horiz-adv-x="574" 
d="M391 497q62 0 92.5 -34t21.5 -100l-52 -363h-63l50 349q6 52 -9.5 72.5t-57.5 20.5q-50 0 -103 -31.5t-126 -90.5l1 50q70 61 130 94t116 33zM203 700l-28 -203q-4 -36 -12 -74t-15 -63l5 -15l-49 -345h-63l99 700h63z" />
    <glyph glyph-name="i" unicode="i" horiz-adv-x="236" 
d="M176 485l-68 -485h-62l68 485h62zM187 689q11 0 16 -6.5t3 -16.5l-8 -59q-3 -19 -22 -19h-29q-23 0 -20 23l8 58q3 20 22 20h30z" />
    <glyph glyph-name="j" unicode="j" horiz-adv-x="236" 
d="M176 485l-71 -511q-5 -36 -19.5 -69.5t-37 -61t-50.5 -49.5l-34 29q33 34 52 70.5t26 84.5l72 507h62zM187 689q11 0 16 -6.5t3 -16.5l-8 -59q-3 -19 -22 -19h-29q-23 0 -20 23l8 58q3 20 22 20h30z" />
    <glyph glyph-name="k" unicode="k" horiz-adv-x="509" 
d="M203 700l-48 -356q-4 -32 -10.5 -58t-17.5 -57q2 -7 4 -13.5t3 -12.5l-30 -203h-62l98 700h63zM484 485q-26 -73 -68.5 -124t-94 -85.5t-105.5 -58t-101 -41.5l-4 54q74 26 136 63.5t107 85.5t65 106h65zM303 279q9 -15 18 -31.5t17 -33.5l100 -214h-68l-118 259z" />
    <glyph glyph-name="l" unicode="l" horiz-adv-x="283" 
d="M204 700l-81 -581q-6 -36 9 -52.5t50 -16.5h53l2 -48q-8 -3 -23 -5.5t-30.5 -3.5t-25.5 -1q-53 0 -80.5 30.5t-19.5 87.5l83 590h63z" />
    <glyph glyph-name="m" unicode="m" horiz-adv-x="873" 
d="M158 485l-10 -124l4 -16l-48 -345h-63l69 485h48zM366 497q65 0 93.5 -35.5t19.5 -98.5l-51 -363h-61l49 349q7 49 -9.5 71t-61.5 22q-28 0 -56.5 -13t-63 -39t-81.5 -68v48q63 62 116.5 94.5t105.5 32.5zM691 497q65 0 93.5 -35.5t19.5 -98.5l-51 -363h-62l49 349
q6 52 -11.5 72.5t-59.5 20.5q-28 0 -56 -12.5t-61.5 -38.5t-81.5 -69v48q63 63 116 95t105 32z" />
    <glyph glyph-name="n" unicode="n" horiz-adv-x="574" 
d="M391 497q41 0 68.5 -15t39.5 -45t6 -74l-52 -363h-63l50 349q6 52 -9.5 72.5t-57.5 20.5q-50 0 -103 -31.5t-126 -88.5l1 48q70 61 130 94t116 33zM160 485l-11 -124l3 -16l-48 -345h-63l69 485h50z" />
    <glyph glyph-name="o" unicode="o" horiz-adv-x="562" 
d="M306 497q81 0 127 -25.5t61 -82t2 -150.5q-13 -92 -42 -147.5t-80 -80t-131 -24.5t-127 25.5t-62.5 82t-2.5 150.5q13 92 42 147t80.5 80t132.5 25zM306 442q-59 0 -96.5 -18t-59 -62t-32.5 -123q-11 -75 -3 -118t39 -61t89 -18q59 0 96.5 18.5t59 63t32.5 121.5
q11 76 3 118.5t-39 60.5t-89 18z" />
    <glyph glyph-name="p" unicode="p" horiz-adv-x="571" 
d="M378 497q59 0 90 -25t37.5 -81.5t-6.5 -152.5q-12 -80 -30.5 -129t-46.5 -75.5t-69 -36.5t-96 -10q-23 0 -49.5 2t-53 4.5t-52.5 6t-50 7.5l18 39q56 -2 97 -4t69 -2q54 0 88.5 7.5t55.5 29t33 61.5t22 105q11 76 9 119t-20.5 61t-57.5 18q-27 0 -66 -16.5t-82 -47
t-85 -75.5l-10 36q23 31 54.5 59.5t66.5 50.5t70 35.5t64 13.5zM160 485l-10 -119l6 -6l-47 -338l-8 -17q-1 -26 -2.5 -48.5t-5.5 -49.5l-18 -116h-64l99 694h50z" />
    <glyph glyph-name="q" unicode="q" horiz-adv-x="568" 
d="M284 497q30 0 59.5 -2.5t58 -7t56 -10.5t53.5 -13l-33 -36q-35 6 -66 9t-57.5 4.5t-47.5 1.5q-50 0 -82.5 -8t-52.5 -29.5t-31.5 -61.5t-20.5 -103q-10 -75 -7.5 -118t21.5 -61t60 -18q38 0 71 14t70.5 44.5t87.5 78.5l10 -35q-34 -43 -73.5 -78.5t-84.5 -57.5t-98 -22
q-50 0 -82 23t-42.5 79.5t3.5 156.5q11 80 29.5 129.5t46 75.5t65.5 35.5t87 9.5zM448 466l63 -2l-95 -673h-64l29 198q6 39 12.5 68.5t16.5 61.5l-9 9z" />
    <glyph glyph-name="r" unicode="r" horiz-adv-x="393" 
d="M158 485l-10 -130l4 -15l-48 -340h-63l69 485h48zM403 497l-17 -60h-21q-48 0 -98.5 -31t-122.5 -87l-2 44q65 64 125 99t113 35h23z" />
    <glyph glyph-name="s" unicode="s" horiz-adv-x="503" 
d="M264 497q33 0 68 -2.5t68.5 -5t61.5 -6.5l-8 -46q-45 2 -91.5 3.5t-96.5 2.5q-47 0 -76 -3t-44 -16t-20 -44q-5 -36 11 -51.5t50 -29.5l145 -60q36 -15 58.5 -31t32 -40t4.5 -62q-7 -53 -35 -78t-74.5 -32t-111.5 -7q-38 0 -65 1.5t-53.5 4.5t-62.5 7l8 46q27 -2 54 -3.5
t54 -2t53 -0.5q62 1 97.5 6.5t52 20t21.5 43.5q3 25 -4 38.5t-23 22t-39 18.5l-144 60q-32 14 -54.5 30t-31.5 41t-5 63q7 49 31.5 73t66.5 32t102 7z" />
    <glyph glyph-name="t" unicode="t" horiz-adv-x="364" 
d="M225 631l-72 -512q-5 -37 9 -53t50 -16h81l2 -47q-15 -4 -35 -6.5t-37.5 -3.5t-27.5 -1q-61 0 -87.5 32t-18.5 90l73 517h63zM368 485l-8 -52h-314l6 47l95 5h221z" />
    <glyph glyph-name="u" unicode="u" horiz-adv-x="563" 
d="M170 485l-50 -349q-7 -49 10 -71t60 -22q50 0 98.5 32t116.5 95l6 -48q-67 -67 -125.5 -101t-115.5 -34q-66 0 -95.5 36t-19.5 99l51 363h64zM508 485l-68 -485h-49l12 133l-5 15l47 337h63z" />
    <glyph glyph-name="v" unicode="v" horiz-adv-x="521" 
d="M506 485q-13 -59 -29.5 -110t-35.5 -95t-39 -83q-27 -53 -52 -93.5t-42 -62.5q-11 -14 -22 -23.5t-24.5 -13.5t-33.5 -4h-59q-7 0 -13.5 5t-8.5 13l-97 467h66l82 -434h17q17 0 27.5 5.5t23.5 21.5q14 18 36.5 55.5t47.5 89.5q35 69 55.5 130t34.5 132h66z" />
    <glyph glyph-name="w" unicode="w" horiz-adv-x="837" 
d="M115 485l75 -434h13q12 0 21.5 5.5t21.5 24.5q14 22 32 59.5t35 83.5q14 37 25.5 74.5t21.5 79t20 90.5q1 8 6.5 12.5t12.5 4.5h69q7 0 12 -5t6 -12l56 -417h12q13 0 22.5 8t17.5 21q23 33 41 64.5t38 79.5q30 66 48 130t30 131h66q-12 -55 -26.5 -104.5t-31.5 -95
t-37 -88.5q-25 -52 -50.5 -95t-41.5 -63q-10 -13 -20 -21.5t-22.5 -13t-30.5 -4.5h-43q-8 0 -14 5t-7 13l-54 423h-12q-4 -26 -13 -65.5t-21.5 -83.5t-27.5 -84q-10 -29 -24 -59.5t-28 -57t-27 -43.5q-11 -18 -24 -28.5t-28.5 -15t-32.5 -4.5h-39q-8 0 -14 5t-8 13l-90 467
h65z" />
    <glyph glyph-name="x" unicode="x" horiz-adv-x="517" 
d="M132 485l124 -239l-198 -246h-73l206 252l-124 233h65zM300 277l-8 -50h-85l7 50h86zM506 485l-190 -234l134 -251h-65l-135 256l186 229h70z" />
    <glyph glyph-name="y" unicode="y" horiz-adv-x="529" 
d="M510 485q-10 -43 -22 -84t-26 -82.5t-31.5 -82.5t-37.5 -81.5t-44 -81.5q-51 -90 -98 -148t-96 -89t-107 -43l-12 44q37 10 69 28.5t63 48.5t61.5 73.5t62.5 103.5q37 65 64.5 126.5t49 126.5t39.5 141h65zM115 485l83 -413q5 -21 26 -21h55l-30 -51h-52q-20 0 -34.5 12
t-18.5 30l-96 443h67z" />
    <glyph glyph-name="z" unicode="z" horiz-adv-x="497" 
d="M391 433l75 -1l-377 -381l-75 1zM415 52l-7 -52h-401l8 52h400zM473 485l-8 -53h-393l7 53h394z" />
    <glyph glyph-name="braceleft" unicode="{" horiz-adv-x="311" 
d="M331 768l-2 -41q-55 0 -79.5 -23.5t-30.5 -71.5l-27 -188q-5 -41 -15 -64t-29.5 -34.5t-55.5 -18.5q33 -11 50 -24t22 -34t0 -56l-35 -245q-7 -48 9.5 -70t71.5 -22l-3 -41q-54 -3 -87 11t-45.5 44.5t-5.5 76.5l36 261q4 27 -1 40t-18.5 20t-36.5 16l7 50q26 8 40.5 14
t22 20.5t11.5 46.5l29 204q6 46 25 76t55 43.5t92 9.5z" />
    <glyph glyph-name="bar" unicode="|" horiz-adv-x="241" 
d="M213 781l-133 -950h-49l133 950h49z" />
    <glyph glyph-name="braceright" unicode="}" horiz-adv-x="311" 
d="M109 768q57 3 89.5 -11.5t44 -45t5.5 -75.5l-29 -204q-4 -32 -1 -46.5t16 -20t37 -13.5l-7 -50q-24 -9 -39.5 -16t-25 -20t-13.5 -41l-36 -261q-6 -46 -24.5 -75.5t-54.5 -43t-93 -10.5l2 41q56 0 79.5 23.5t29.5 70.5l35 246q6 35 15.5 55.5t30.5 33t58 24.5
q-31 7 -48 18.5t-21.5 35t1.5 64.5l27 188q7 48 -9 70t-72 22z" />
    <glyph glyph-name="asciitilde" unicode="~" horiz-adv-x="526" 
d="M159 342q29 -2 54 -11t48.5 -20t47 -20.5t48.5 -11.5q30 -2 43.5 12t18.5 47l34 -3q-2 -54 -26.5 -80.5t-60.5 -24.5q-33 2 -60 11t-50 20t-44.5 20.5t-44.5 11.5q-29 3 -43.5 -12.5t-18.5 -49.5l-34 3q2 38 14 62t31.5 35.5t42.5 10.5z" />
    <glyph glyph-name="uni00A0" unicode="&#xa0;" horiz-adv-x="225" 
 />
    <glyph glyph-name="exclamdown" unicode="&#xa1;" horiz-adv-x="246" 
d="M147 280l-18 -168l-44 -311h-63l44 311l30 168h51zM159 488q13 0 18.5 -6t3.5 -20l-8 -56q-1 -12 -7.5 -18t-19.5 -6h-17q-27 0 -23 26l8 57q3 23 27 23h18z" />
    <glyph glyph-name="cent" unicode="&#xa2;" horiz-adv-x="504" 
d="M325 603q32 0 74 -4.5t74 -17.5l-11 -40q-29 4 -66 6t-60 2q-64 0 -105 -17t-64 -60.5t-34 -124.5q-10 -80 -0.5 -123t43.5 -59t96 -16q15 0 40 1t53 3.5t52 6.5l5 -44q-37 -11 -79.5 -16.5t-81.5 -5.5q-83 0 -130.5 25.5t-62 82t-1.5 149.5q14 93 43 148.5t81.5 79.5
t133.5 24zM260 126l-28 -126h-35l29 126h34zM358 568l-97 -444h-35l96 444h36zM386 690l-28 -124h-35l28 124h35z" />
    <glyph glyph-name="sterling" unicode="&#xa3;" horiz-adv-x="564" 
d="M371 702q32 0 77 -2.5t95 -7.5l-8 -52q-20 1 -38.5 2t-37.5 1.5t-42 1t-55 0.5q-68 0 -98.5 -27.5t-36.5 -95.5l-22 -265q-4 -47 -15 -84.5t-31.5 -67t-54.5 -51.5q15 2 31 2h31h313l-7 -56h-449l7 57q57 29 81 81t30 119l22 268q6 59 23 94t43.5 53t62 24t79.5 6z
M442 384l-8 -41h-366l5 41h369z" />
    <glyph glyph-name="currency" unicode="&#xa4;" horiz-adv-x="597" 
d="M326 547q61 0 102.5 -26t60 -70.5t12.5 -101.5q-7 -57 -35.5 -100t-74 -67t-104.5 -24q-58 0 -99.5 25t-61.5 69.5t-13 102.5q7 57 34.5 100t73 67.5t105.5 24.5zM155 249l27 -32l-96 -85l-28 31zM439 231l76 -85l-31 -27l-74 85zM325 509q-73 0 -118.5 -44.5
t-53.5 -115.5q-7 -67 28.5 -109t102.5 -44q48 0 86 19.5t61.5 55.5t28.5 84q5 45 -9.5 79.5t-46 54.5t-79.5 20zM132 590l72 -84l-31 -28l-72 83zM525 577l27 -33l-91 -79l-28 30z" />
    <glyph glyph-name="yen" unicode="&#xa5;" horiz-adv-x="610" 
d="M623 690l-296 -435l-57 1l-175 434h67l116 -292q6 -17 12.5 -36.5t11.5 -38.5h8q8 19 20.5 40t23.5 37l197 290h72zM338 306l-44 -306h-65l43 306h66zM509 205l-7 -40h-430l4 40h433zM524 317l-6 -41h-431l5 41h432z" />
    <glyph glyph-name="brokenbar" unicode="&#xa6;" horiz-adv-x="241" 
d="M213 781l-56 -400h-49l57 400h48zM136 231l-56 -400h-49l56 400h49z" />
    <glyph glyph-name="section" unicode="&#xa7;" horiz-adv-x="544" 
d="M96 397l47 -1q-9 -44 -11 -76t10 -55t42 -42l167 -103q22 -14 39.5 -29t28 -33t14 -40.5t-0.5 -52.5q-8 -55 -35.5 -81t-69.5 -33t-99 -7q-30 1 -65.5 2t-73 3.5t-77.5 6.5l8 50q53 -3 98.5 -4.5t96.5 -2.5q40 0 72.5 3.5t53 19t24.5 51.5q6 39 -10 61.5t-43 38.5
l-159 97q-44 27 -62 58.5t-15 73t20 95.5zM310 703q26 0 64.5 -1.5t80 -4t73.5 -6.5l-8 -49q-31 2 -57 3t-58 2t-80 1q-45 1 -77 -3t-50.5 -19t-24.5 -49q-5 -38 10.5 -60.5t44.5 -39.5l160 -99q44 -27 61 -59.5t14.5 -74.5t-19.5 -96l-48 1q10 44 11 77t-10.5 58t-42.5 43
l-165 103q-31 20 -51.5 41.5t-28 48.5t-2.5 64q7 51 32.5 76.5t68 34t102.5 8.5z" />
    <glyph glyph-name="dieresis" unicode="&#xa8;" horiz-adv-x="407" 
d="M191 688q11 0 15 -5t2 -14l-8 -55q-1 -10 -6 -15t-16 -5h-21q-19 0 -17 19l8 56q2 9 7 14t16 5h20zM362 688q12 0 15.5 -5t2.5 -14l-8 -55q-1 -10 -6 -15t-16 -5h-21q-19 0 -17 19l8 56q2 9 7 14t15 5h20z" />
    <glyph glyph-name="copyright" unicode="&#xa9;" horiz-adv-x="842" 
d="M471 703q103 0 179.5 -45.5t113.5 -126t22 -189.5q-13 -102 -66 -182t-138.5 -126.5t-196.5 -46.5q-79 0 -141.5 26.5t-105 75t-60.5 114t-7 145.5q13 101 65.5 181t138 127t196.5 47zM467 572q42 0 70.5 -3t58.5 -10l-9 -36q-31 3 -57.5 4t-57.5 1q-59 0 -95.5 -15
t-56.5 -54.5t-31 -113.5q-9 -67 -1.5 -105.5t36 -55t80.5 -16.5q32 0 56.5 0.5t45 2t41.5 3.5l3 -37q-31 -7 -64 -10.5t-75 -3.5q-76 0 -117.5 22t-53.5 72t-1 134q12 83 37.5 131t72 69t118.5 21zM473 668q-100 0 -178 -42.5t-126.5 -115.5t-61.5 -168q-11 -96 21.5 -168
t99.5 -112t156 -40q100 0 178 42.5t127 115.5t60 168q13 95 -19 166.5t-98.5 112.5t-158.5 41z" />
    <glyph glyph-name="ordfeminine" unicode="&#xaa;" horiz-adv-x="445" 
d="M257 605q34 0 74.5 -4t74.5 -11l-21 -30q-37 2 -66 2.5t-47 0.5q-45 0 -72.5 -8.5t-42 -36t-23.5 -85.5q-7 -53 -4 -80t18 -36t41 -9q32 0 70.5 21.5t79.5 60.5l10 -25q-19 -27 -45 -50.5t-57.5 -37.5t-65.5 -14q-38 0 -63 14.5t-34 52t0 107.5q8 54 23 88t36.5 51t50 23
t63.5 6zM358 590h48l-44 -320h-40l4 71l-2 5z" />
    <glyph glyph-name="guillemotleft" unicode="&#xab;" horiz-adv-x="468" 
d="M402 457l27 -25l-161 -182l113 -186l-33 -23l-136 205l1 15zM229 457l27 -25l-161 -182l113 -186l-33 -23l-136 205l1 15z" />
    <glyph glyph-name="logicalnot" unicode="&#xac;" horiz-adv-x="588" 
d="M511 322l-7 -50h-430l7 50h430zM511 322l-26 -189h-51l26 181z" />
    <glyph glyph-name="uni00AD" unicode="&#xad;" horiz-adv-x="459" 
d="M379 277l-6 -50h-307l7 50h306z" />
    <glyph glyph-name="registered" unicode="&#xae;" horiz-adv-x="563" 
d="M328 702q66 0 113.5 -27t72 -77.5t16.5 -121.5q-8 -65 -40 -114t-83 -77t-118 -28t-115.5 28.5t-72 80.5t-15.5 119q8 68 40.5 116.5t85 74.5t116.5 26zM257 614l-38 -267h-32l38 267h32zM328 678q-96 0 -151.5 -55.5t-65.5 -141.5q-6 -63 14.5 -108t63 -69t100.5 -24
q61 0 107 26t74.5 72t33.5 104q7 63 -13 106.5t-62.5 66.5t-100.5 23zM328 617q33 0 56.5 -5t35.5 -22t7 -52q-3 -32 -18 -47t-48 -21v-2q11 -4 17.5 -12.5t10.5 -26.5l22 -82h-34l-20 83q-4 18 -14 23.5t-25 5.5q-41 0 -61.5 0.5t-29.5 1t-16 0.5l2 23h101q39 1 58 10.5
t23 46.5q4 33 -11 41.5t-55 8.5h-40t-36.5 -0.5t-21.5 -0.5l-6 24q28 2 51 2.5t52 0.5z" />
    <glyph glyph-name="macron" unicode="&#xaf;" horiz-adv-x="400" 
d="M395 663l-6 -48h-273l6 48h273z" />
    <glyph glyph-name="degree" unicode="&#xb0;" horiz-adv-x="369" 
d="M234 703q39 0 66 -17t41 -46t10 -66q-5 -57 -44.5 -90.5t-93.5 -33.5q-40 0 -67 18.5t-39.5 48t-9.5 63.5q6 56 44.5 89.5t92.5 33.5zM232 663q-37 0 -63 -24t-30 -62t17 -62.5t59 -24.5q37 0 63.5 23.5t30.5 63.5q4 37 -16.5 61.5t-60.5 24.5z" />
    <glyph glyph-name="plusminus" unicode="&#xb1;" horiz-adv-x="589" 
d="M351 517l-46 -325h-49l45 325h50zM487 127l-8 -48h-430l7 48h431zM522 379l-7 -49h-431l7 49h431z" />
    <glyph glyph-name="uni00B2" unicode="&#xb2;" horiz-adv-x="396" 
d="M271 766q59 0 91 -15.5t32 -59.5q0 -31 -15 -60t-39 -55t-52 -51l-139 -124q17 1 32 1h32l160 -1l-7 -43h-293l4 25q1 7 3.5 12t7.5 9l152 136q26 23 48 45.5t35 46t13 48.5q0 26 -19.5 34t-52.5 8q-30 0 -60.5 -2.5t-70.5 -9.5l2 39q45 11 78.5 14t57.5 3z" />
    <glyph glyph-name="uni00B3" unicode="&#xb3;" horiz-adv-x="400" 
d="M259 767q66 0 96 -16.5t30 -55.5q0 -44 -19.5 -79.5t-62.5 -43.5v-2q35 -7 49.5 -26t14.5 -49q0 -50 -17.5 -82.5t-51.5 -47.5t-85 -15q-38 0 -74 4t-65 9l11 39q20 -3 40 -5t41 -3t43 -1q54 0 79.5 24.5t25.5 76.5q0 22 -15 37t-62 16l-84 1l5 38l85 2q47 0 68 24t21 66
q0 27 -18.5 36t-64.5 9q-30 0 -61.5 -2.5t-53.5 -6.5l1 38q32 6 63.5 10.5t60.5 4.5z" />
    <glyph glyph-name="acute" unicode="&#xb4;" horiz-adv-x="301" 
d="M286 719l32 -49l-194 -128l-22 30z" />
    <glyph glyph-name="uni00B5" unicode="&#xb5;" horiz-adv-x="576" 
d="M180 485l-50 -349q-6 -46 11 -67t61 -21q38 0 81.5 21t79.5 65t51 115l-16 -134q-24 -39 -58 -68t-73 -44.5t-78 -15.5q-45 0 -74 19.5t-41 52.5t-7 73l50 353h63zM510 485l-53 -383q-4 -28 -0.5 -44.5t26.5 -16.5h42v-38q-17 -5 -36 -8.5t-35 -3.5q-38 0 -52.5 22
t-8.5 66l5 37l-1 16l50 353h63zM122 81l-23 -167l-26 -111h-52l51 365z" />
    <glyph glyph-name="paragraph" unicode="&#xb6;" horiz-adv-x="592" 
d="M395 702q33 0 76 -4t77 -13l-10 -39q-24 5 -55 7.5t-61.5 3.5t-51.5 1l-98 -458q-84 7 -133.5 38.5t-67 87.5t-5.5 136q13 94 50 146t105 73t174 21zM380 685l-126 -895h-51l126 895h51zM548 685l-96 -685h-52l97 685h51z" />
    <glyph glyph-name="periodcentered" unicode="&#xb7;" horiz-adv-x="223" 
d="M124 311q14 0 18.5 -6.5t3.5 -19.5l-8 -58q-2 -12 -8 -17.5t-18 -5.5h-22q-27 0 -23 26l8 58q3 23 27 23h22z" />
    <glyph glyph-name="cedilla" unicode="&#xb8;" horiz-adv-x="229" 
d="M52 -45q34 3 56.5 -2.5t31.5 -21t4 -44.5q-5 -39 -29 -66t-61 -39.5t-82 -6.5l12 34q46 -1 77 22.5t36 57.5q3 20 -7.5 27t-45.5 8z" />
    <glyph glyph-name="uni00B9" unicode="&#xb9;" horiz-adv-x="292" 
d="M268 760l-58 -402h-50l46 322q1 8 2.5 16.5t4.5 17.5l-113 -32l-2 36l119 42h51z" />
    <glyph glyph-name="ordmasculine" unicode="&#xba;" horiz-adv-x="443" 
d="M260 605q89 0 120 -39.5t18 -134.5q-9 -62 -29 -99t-56 -53t-93 -16q-86 0 -118 39.5t-19 134.5q13 93 52.5 130.5t124.5 37.5zM260 564q-41 0 -66.5 -12.5t-39 -41t-21.5 -79.5q-10 -73 8.5 -99.5t78.5 -26.5q61 0 88.5 28.5t38.5 103.5q10 74 -8.5 100.5t-78.5 26.5z
" />
    <glyph glyph-name="guillemotright" unicode="&#xbb;" horiz-adv-x="468" 
d="M54 40l-27 25l161 183l-113 186l32 22l136 -205l-1 -15zM227 40l-27 25l161 183l-113 186l32 22l136 -205l-1 -15z" />
    <glyph glyph-name="onequarter" unicode="&#xbc;" horiz-adv-x="849" 
d="M692 690l-556 -690h-49l556 690h49zM266 690l-58 -414h-51l47 334q2 9 3 18t4 17l-120 -33l-1 35l125 43h51zM668 414l-166 -247q-6 -9 -2.5 -16t14.5 -7h272l-5 -36l-63 -5h-240q-15 0 -26 8.5t-13 22t9 30.5l169 250h51zM764 335l-47 -335h-48l37 267l18 68h40z" />
    <glyph glyph-name="onehalf" unicode="&#xbd;" horiz-adv-x="872" 
d="M687 690l-556 -690h-48l555 690h49zM265 690l-58 -414h-51l47 334q2 9 3.5 18t4.5 17l-120 -33l-2 35l126 43h50zM674 421q49 0 81 -7t46 -27t8 -60q-4 -35 -29 -69.5t-76 -78.5l-158 -135q19 1 36.5 1.5t36.5 -0.5h170l-7 -45h-305l4 30q1 7 3.5 12.5t6.5 9.5l158 137
q49 43 75 76.5t31 64.5q5 33 -18 40t-63 7q-21 0 -41 -0.5t-42 -2.5t-52 -6l-3 38q50 11 81.5 13t56.5 2z" />
    <glyph glyph-name="threequarters" unicode="&#xbe;" horiz-adv-x="942" 
d="M796 690l-556 -690h-49l556 690h49zM246 695q83 0 112.5 -21.5t21.5 -76.5q-3 -26 -12 -47.5t-26.5 -35.5t-47.5 -19l-5 -3q48 -7 63 -34.5t10 -71.5q-5 -41 -21.5 -67.5t-50 -39.5t-87.5 -13q-38 0 -74.5 3.5t-70.5 7.5l4 38q23 -2 43.5 -3t41.5 -2t43 -1q59 0 87.5 20
t34.5 69q3 20 -1.5 37t-23 27t-59.5 10h-87l5 38h85q39 1 60 14t29 31.5t10 35.5q6 37 -13 49.5t-76 12.5q-33 0 -64.5 -1.5t-55.5 -3.5l-2 37q34 5 65 7.5t62 2.5zM760 414l-166 -247q-5 -9 -2 -16t15 -7h272l-5 -36l-64 -5h-240q-15 0 -26 8.5t-13 22t9 30.5l169 250h51z
M851 335l-47 -335h-48l37 267l19 68h39z" />
    <glyph glyph-name="questiondown" unicode="&#xbf;" horiz-adv-x="495" 
d="M283 287q-7 -56 -29.5 -96t-52.5 -70t-59.5 -56t-51.5 -54.5t-28 -65.5q-9 -55 21 -80.5t104 -25.5q51 0 84 1t59.5 3.5t57.5 5.5l3 -45q-26 -4 -47 -8t-43.5 -6.5t-52 -4t-72.5 -1.5q-101 0 -146 42t-36 116q6 45 29 77.5t54 60t63 56t56.5 65t32.5 86.5h54zM293 496
q13 0 19 -6t4 -20l-8 -57q-2 -13 -8 -18.5t-18 -5.5h-18q-26 0 -23 26l9 58q2 23 25 23h18z" />
    <glyph glyph-name="Agrave" unicode="&#xc0;" horiz-adv-x="612" 
d="M400 690q9 0 16 -5.5t8 -14.5l137 -670h-66l-112 581q-2 15 -4 29.5t-5 28.5h-30q-6 -14 -13 -29t-13 -29l-275 -581h-70l326 672q3 10 10 14t16 4h75zM482 286l-8 -58h-350l8 58h350zM261 907l156 -147l-25 -29l-167 131z" />
    <glyph glyph-name="Aacute" unicode="&#xc1;" horiz-adv-x="612" 
d="M400 690q9 0 16 -5.5t8 -14.5l137 -670h-66l-112 581q-2 15 -4 29.5t-5 28.5h-30q-6 -14 -13 -29t-13 -29l-275 -581h-70l326 672q3 10 10 14t16 4h75zM482 286l-8 -58h-350l8 58h350zM496 908l32 -49l-194 -128l-22 30z" />
    <glyph glyph-name="Acircumflex" unicode="&#xc2;" horiz-adv-x="612" 
d="M400 690q9 0 16 -5.5t8 -14.5l137 -670h-66l-112 581q-2 15 -4 29.5t-5 28.5h-30q-6 -14 -13 -29t-13 -29l-275 -581h-70l326 672q3 10 10 14t16 4h75zM482 286l-8 -58h-350l8 58h350zM412 891l123 -128l-25 -25l-118 101h-8l-148 -101l-20 29l150 124h46z" />
    <glyph glyph-name="Atilde" unicode="&#xc3;" horiz-adv-x="612" 
d="M400 690q9 0 16 -5.5t8 -14.5l137 -670h-66l-112 581q-2 15 -4 29.5t-5 28.5h-30q-6 -14 -13 -29t-13 -29l-275 -581h-70l326 672q3 10 10 14t16 4h75zM482 286l-8 -58h-350l8 58h350zM309 875q24 -2 40.5 -10.5t31 -19t29.5 -19.5t36 -11q31 -3 45.5 11.5t18.5 44.5
l31 -2q-2 -52 -26.5 -78.5t-60.5 -23.5q-26 2 -44 11t-33 19.5t-29 19.5t-32 11q-30 3 -44.5 -12.5t-18.5 -47.5l-32 3q3 55 28.5 81t59.5 23z" />
    <glyph glyph-name="Adieresis" unicode="&#xc4;" horiz-adv-x="612" 
d="M400 690q9 0 16 -5.5t8 -14.5l137 -670h-66l-112 581q-2 15 -4 29.5t-5 28.5h-30q-6 -14 -13 -29t-13 -29l-275 -581h-70l326 672q3 10 10 14t16 4h75zM482 286l-8 -58h-350l8 58h350zM312 865q11 0 15 -5t2 -14l-8 -55q-1 -10 -6 -15t-16 -5h-21q-19 0 -17 19l8 56
q2 9 7 14t16 5h20zM483 865q12 0 15.5 -5t2.5 -14l-8 -55q-1 -10 -6 -15t-16 -5h-21q-19 0 -17 19l8 56q2 9 7 14t15 5h20z" />
    <glyph glyph-name="Aring" unicode="&#xc5;" horiz-adv-x="612" 
d="M400 690q9 0 16 -5.5t8 -14.5l137 -670h-66l-112 581q-2 15 -4 29.5t-5 28.5h-30q-6 -14 -13 -29t-13 -29l-275 -581h-70l326 672q3 10 10 14t16 4h75zM482 286l-8 -58h-350l8 58h350zM389 920q43 0 69.5 -25.5t26.5 -66.5q0 -47 -31.5 -79t-79.5 -32q-44 0 -70.5 25.5
t-26.5 66.5q0 47 32 79t80 32zM388 885q-33 0 -52.5 -21.5t-19.5 -51.5q0 -25 15 -42.5t44 -17.5q33 0 52.5 22t19.5 52q0 25 -15.5 42t-43.5 17z" />
    <glyph glyph-name="AE" unicode="&#xc6;" horiz-adv-x="909" 
d="M623 691q94 0 160 -1t128 -5l-8 -51h-260q-33 0 -55.5 -18t-27.5 -56l-60 -434q-5 -34 10 -52t50 -18h262l-3 -51q-68 -4 -135.5 -5t-135.5 -1q-58 0 -89 34t-22 92l62 445q3 22 15.5 43t28.5 29h-4q-16 -7 -35.5 -23.5t-39.5 -44.5l-430 -574h-72l446 591
q23 31 45.5 50.5t47.5 30t54.5 15t67.5 4.5zM481 297l-9 -56h-292l19 58zM489 393l340 -1l-7 -52h-341z" />
    <glyph glyph-name="Ccedilla" unicode="&#xc7;" horiz-adv-x="563" 
d="M384 702q43 0 74.5 -2t56.5 -6t52 -12l-12 -49q-28 4 -53 6.5t-52.5 3.5t-65.5 1q-57 0 -97 -15t-68.5 -49t-47 -92t-29.5 -146q-16 -111 -7.5 -175.5t47 -92t110.5 -28.5q64 0 107.5 3t85.5 9l5 -49q-44 -11 -88.5 -16t-109.5 -5q-98 0 -152 36.5t-69.5 116t2.5 207.5
q14 98 37.5 166t59.5 109.5t88.5 60t125.5 18.5zM236 -57q34 3 56.5 -2.5t31.5 -21t4 -44.5q-5 -39 -29 -66t-61 -39.5t-82 -6.5l12 34q46 -1 77 22.5t36 57.5q3 20 -7.5 27t-45.5 8z" />
    <glyph glyph-name="Egrave" unicode="&#xc8;" 
d="M260 691h100.5t100 -1.5t96.5 -4.5l-9 -51h-279q-37 0 -56 -18t-24 -55l-60 -435q-5 -34 10 -52t50 -18h277l-1 -51q-46 -3 -94 -4t-96 -1.5t-95 -0.5q-65 0 -95.5 34.5t-22.5 91.5l64 454q7 51 41 81.5t93 30.5zM118 392h356l-7 -51l-357 -1zM262 929l156 -147l-25 -29
l-167 131z" />
    <glyph glyph-name="Eacute" unicode="&#xc9;" 
d="M260 691h100.5t100 -1.5t96.5 -4.5l-9 -51h-279q-37 0 -56 -18t-24 -55l-60 -435q-5 -34 10 -52t50 -18h277l-1 -51q-46 -3 -94 -4t-96 -1.5t-95 -0.5q-65 0 -95.5 34.5t-22.5 91.5l64 454q7 51 41 81.5t93 30.5zM118 392h356l-7 -51l-357 -1zM497 930l32 -49l-194 -128
l-22 30z" />
    <glyph glyph-name="Ecircumflex" unicode="&#xca;" 
d="M260 691h100.5t100 -1.5t96.5 -4.5l-9 -51h-279q-37 0 -56 -18t-24 -55l-60 -435q-5 -34 10 -52t50 -18h277l-1 -51q-46 -3 -94 -4t-96 -1.5t-95 -0.5q-65 0 -95.5 34.5t-22.5 91.5l64 454q7 51 41 81.5t93 30.5zM118 392h356l-7 -51l-357 -1zM412 913l123 -128l-25 -25
l-118 101h-8l-148 -101l-20 29l150 124h46z" />
    <glyph glyph-name="Edieresis" unicode="&#xcb;" 
d="M260 691h100.5t100 -1.5t96.5 -4.5l-9 -51h-279q-37 0 -56 -18t-24 -55l-60 -435q-5 -34 10 -52t50 -18h277l-1 -51q-46 -3 -94 -4t-96 -1.5t-95 -0.5q-65 0 -95.5 34.5t-22.5 91.5l64 454q7 51 41 81.5t93 30.5zM118 392h356l-7 -51l-357 -1zM312 886q11 0 15 -5t2 -14
l-8 -55q-1 -10 -6 -15t-16 -5h-21q-19 0 -17 19l8 56q2 9 7 14t16 5h20zM483 886q12 0 15.5 -5t2.5 -14l-8 -55q-1 -10 -6 -15t-16 -5h-21q-19 0 -17 19l8 56q2 9 7 14t15 5h20z" />
    <glyph glyph-name="Igrave" unicode="&#xcc;" horiz-adv-x="250" 
d="M214 690l-97 -690h-66l97 690h66zM79 907l156 -147l-25 -29l-167 131z" />
    <glyph glyph-name="Iacute" unicode="&#xcd;" horiz-adv-x="250" 
d="M214 690l-97 -690h-66l97 690h66zM315 908l32 -49l-194 -128l-22 30z" />
    <glyph glyph-name="Icircumflex" unicode="&#xce;" horiz-adv-x="250" 
d="M214 690l-97 -690h-66l97 690h66zM230 891l123 -128l-25 -25l-118 101h-8l-148 -101l-20 29l150 124h46z" />
    <glyph glyph-name="Idieresis" unicode="&#xcf;" horiz-adv-x="250" 
d="M214 690l-97 -690h-66l97 690h66zM130 865q11 0 15 -5t2 -14l-8 -55q-1 -10 -6 -15t-16 -5h-21q-19 0 -17 19l8 56q2 9 7 14t16 5h20zM301 865q12 0 15.5 -5t2.5 -14l-8 -55q-1 -10 -6 -15t-16 -5h-21q-19 0 -17 19l8 56q2 9 7 14t15 5h20z" />
    <glyph glyph-name="Eth" unicode="&#xd0;" horiz-adv-x="661" 
d="M335 387l-5 -38h-302l6 38h301zM375 699q101 0 157 -34t72 -112t-2 -211q-15 -107 -40 -176t-62 -107t-91 -53t-129 -15q-57 0 -116.5 2.5t-112.5 6.5l35 52q44 -1 95.5 -2t97.5 -1q61 0 103.5 13t72 46t48 91.5t31.5 148.5q12 87 10 144.5t-20.5 90t-55 46t-94.5 13.5
q-31 0 -67 -0.5t-71.5 -1.5t-63.5 -2l-24 52q34 3 73.5 5t79 3t74.5 1zM214 690l-97 -690h-66l97 690h66z" />
    <glyph glyph-name="Ntilde" unicode="&#xd1;" horiz-adv-x="698" 
d="M662 690l-94 -664q-2 -13 -8.5 -19.5t-19.5 -6.5h-66q-12 0 -19 6t-11 18l-196 524q-7 18 -14 40t-13 41h-20q-2 -21 -4 -42.5t-5 -43.5l-75 -543h-66l93 664q3 14 10 20t20 6h63q12 0 19 -6t11 -18l191 -511q8 -21 16.5 -45.5t15.5 -47.5h22q3 24 5 47.5t6 47.5l74 533
h65zM358 875q24 -2 40.5 -10.5t31 -19t29.5 -19.5t36 -11q31 -3 45.5 11.5t18.5 44.5l31 -2q-2 -52 -26.5 -78.5t-60.5 -23.5q-26 2 -44 11t-33 19.5t-29 19.5t-32 11q-30 3 -44.5 -12.5t-18.5 -47.5l-32 3q3 55 28.5 81t59.5 23z" />
    <glyph glyph-name="Ograve" unicode="&#xd2;" horiz-adv-x="664" 
d="M387 703q95 0 149.5 -35t71 -114t-2.5 -212q-13 -99 -36.5 -167.5t-59.5 -109.5t-89 -59.5t-125 -18.5q-95 0 -150.5 34.5t-72.5 113.5t1 213q14 98 37 165.5t59.5 109.5t90 61t127.5 19zM383 644q-76 0 -123.5 -28t-74.5 -94t-43 -180q-16 -111 -7 -175.5t48 -92.5
t112 -28q76 0 123 28.5t75.5 94.5t43.5 179q17 113 8 177.5t-48 91.5t-114 27zM282 907l156 -147l-25 -29l-167 131z" />
    <glyph glyph-name="Oacute" unicode="&#xd3;" horiz-adv-x="664" 
d="M387 703q95 0 149.5 -35t71 -114t-2.5 -212q-13 -99 -36.5 -167.5t-59.5 -109.5t-89 -59.5t-125 -18.5q-95 0 -150.5 34.5t-72.5 113.5t1 213q14 98 37 165.5t59.5 109.5t90 61t127.5 19zM383 644q-76 0 -123.5 -28t-74.5 -94t-43 -180q-16 -111 -7 -175.5t48 -92.5
t112 -28q76 0 123 28.5t75.5 94.5t43.5 179q17 113 8 177.5t-48 91.5t-114 27zM517 908l32 -49l-194 -128l-22 30z" />
    <glyph glyph-name="Ocircumflex" unicode="&#xd4;" horiz-adv-x="664" 
d="M387 703q95 0 149.5 -35t71 -114t-2.5 -212q-13 -99 -36.5 -167.5t-59.5 -109.5t-89 -59.5t-125 -18.5q-95 0 -150.5 34.5t-72.5 113.5t1 213q14 98 37 165.5t59.5 109.5t90 61t127.5 19zM383 644q-76 0 -123.5 -28t-74.5 -94t-43 -180q-16 -111 -7 -175.5t48 -92.5
t112 -28q76 0 123 28.5t75.5 94.5t43.5 179q17 113 8 177.5t-48 91.5t-114 27zM433 891l123 -128l-25 -25l-118 101h-8l-148 -101l-20 29l150 124h46z" />
    <glyph glyph-name="Otilde" unicode="&#xd5;" horiz-adv-x="664" 
d="M387 703q95 0 149.5 -35t71 -114t-2.5 -212q-13 -99 -36.5 -167.5t-59.5 -109.5t-89 -59.5t-125 -18.5q-95 0 -150.5 34.5t-72.5 113.5t1 213q14 98 37 165.5t59.5 109.5t90 61t127.5 19zM383 644q-76 0 -123.5 -28t-74.5 -94t-43 -180q-16 -111 -7 -175.5t48 -92.5
t112 -28q76 0 123 28.5t75.5 94.5t43.5 179q17 113 8 177.5t-48 91.5t-114 27zM329 875q24 -2 40.5 -10.5t31 -19t29.5 -19.5t36 -11q31 -3 45.5 11.5t18.5 44.5l31 -2q-2 -52 -26.5 -78.5t-60.5 -23.5q-26 2 -44 11t-33 19.5t-29 19.5t-32 11q-30 3 -44.5 -12.5
t-18.5 -47.5l-32 3q3 55 28.5 81t59.5 23z" />
    <glyph glyph-name="Odieresis" unicode="&#xd6;" horiz-adv-x="664" 
d="M387 703q95 0 149.5 -35t71 -114t-2.5 -212q-13 -99 -36.5 -167.5t-59.5 -109.5t-89 -59.5t-125 -18.5q-95 0 -150.5 34.5t-72.5 113.5t1 213q14 98 37 165.5t59.5 109.5t90 61t127.5 19zM383 644q-76 0 -123.5 -28t-74.5 -94t-43 -180q-16 -111 -7 -175.5t48 -92.5
t112 -28q76 0 123 28.5t75.5 94.5t43.5 179q17 113 8 177.5t-48 91.5t-114 27zM332 865q11 0 15 -5t2 -14l-8 -55q-1 -10 -6 -15t-16 -5h-21q-19 0 -17 19l8 56q2 9 7 14t16 5h20zM503 865q12 0 15.5 -5t2.5 -14l-8 -55q-1 -10 -6 -15t-16 -5h-21q-19 0 -17 19l8 56
q2 9 7 14t15 5h20z" />
    <glyph glyph-name="multiply" unicode="&#xd7;" horiz-adv-x="525" 
d="M447 469l31 -42l-401 -318l-30 42zM126 464l307 -317l-36 -37l-307 318z" />
    <glyph glyph-name="Oslash" unicode="&#xd8;" horiz-adv-x="664" 
d="M562 749l34 -19l-478 -787l-34 20zM387 703q95 0 149.5 -35t71 -114t-2.5 -212q-13 -99 -36.5 -167.5t-59.5 -109.5t-89 -59.5t-125 -18.5q-95 0 -150.5 34.5t-72.5 113.5t1 213q14 98 37 165.5t59.5 109.5t90 61t127.5 19zM383 644q-76 0 -123.5 -28t-74.5 -94t-43 -180
q-16 -111 -7 -175.5t48 -92.5t112 -28q76 0 123 28.5t75.5 94.5t43.5 179q17 113 8 177.5t-48 91.5t-114 27z" />
    <glyph glyph-name="Ugrave" unicode="&#xd9;" horiz-adv-x="665" 
d="M634 690l-60 -430q-14 -99 -46.5 -159t-88.5 -87t-142 -27q-88 0 -140 28t-70 88.5t-4 159.5l59 427h67l-61 -430q-10 -80 -0.5 -127t45.5 -67t102 -20q67 0 110 21t67.5 69t36.5 127l59 427h66zM282 907l156 -147l-25 -29l-167 131z" />
    <glyph glyph-name="Uacute" unicode="&#xda;" horiz-adv-x="665" 
d="M634 690l-60 -430q-14 -99 -46.5 -159t-88.5 -87t-142 -27q-88 0 -140 28t-70 88.5t-4 159.5l59 427h67l-61 -430q-10 -80 -0.5 -127t45.5 -67t102 -20q67 0 110 21t67.5 69t36.5 127l59 427h66zM517 908l32 -49l-194 -128l-22 30z" />
    <glyph glyph-name="Ucircumflex" unicode="&#xdb;" horiz-adv-x="665" 
d="M634 690l-60 -430q-14 -99 -46.5 -159t-88.5 -87t-142 -27q-88 0 -140 28t-70 88.5t-4 159.5l59 427h67l-61 -430q-10 -80 -0.5 -127t45.5 -67t102 -20q67 0 110 21t67.5 69t36.5 127l59 427h66zM433 891l123 -128l-25 -25l-118 101h-8l-148 -101l-20 29l150 124h46z" />
    <glyph glyph-name="Udieresis" unicode="&#xdc;" horiz-adv-x="665" 
d="M634 690l-60 -430q-14 -99 -46.5 -159t-88.5 -87t-142 -27q-88 0 -140 28t-70 88.5t-4 159.5l59 427h67l-61 -430q-10 -80 -0.5 -127t45.5 -67t102 -20q67 0 110 21t67.5 69t36.5 127l59 427h66zM332 865q11 0 15 -5t2 -14l-8 -55q-1 -10 -6 -15t-16 -5h-21q-19 0 -17 19
l8 56q2 9 7 14t16 5h20zM503 865q12 0 15.5 -5t2.5 -14l-8 -55q-1 -10 -6 -15t-16 -5h-21q-19 0 -17 19l8 56q2 9 7 14t15 5h20z" />
    <glyph glyph-name="Yacute" unicode="&#xdd;" 
d="M595 690l-298 -450h-58l-172 450h67l115 -308q6 -17 12.5 -36t10.5 -38h7q9 18 21 39t22 38l201 305h72zM307 291l-40 -291h-67l42 291h65zM456 908l32 -49l-194 -128l-22 30z" />
    <glyph glyph-name="Thorn" unicode="&#xde;" horiz-adv-x="587" 
d="M359 563q75 0 120.5 -19t62 -66t3.5 -131q-12 -82 -38 -128t-73.5 -64t-120.5 -18q-56 0 -103.5 3t-80 6.5t-44.5 6.5l5 42h107.5h107.5q57 1 92 14t54.5 47t28.5 97q9 62 0 95t-38.5 45.5t-84.5 12.5q-80 0 -138.5 -0.5t-79.5 -2.5l-10 52q38 4 70 5.5t69.5 2t90.5 0.5z
M214 690l-97 -690h-66l97 690h66z" />
    <glyph glyph-name="germandbls" unicode="&#xdf;" horiz-adv-x="663" 
d="M388 718q80 0 128 -11.5t68 -39t14 -76.5q-3 -31 -15.5 -53.5t-36 -41t-57.5 -35.5q-32 -13 -59.5 -24.5t-44.5 -27.5t-20 -43q-4 -25 9 -39.5t43 -30.5l108 -60q43 -24 62 -50.5t12 -79.5q-6 -50 -31 -75t-65 -33.5t-95 -8.5q-28 0 -68.5 2t-88.5 9l8 48q40 -2 77 -4
t66 -1q42 1 70 6t44 20.5t19 46.5q4 25 -3 39t-20 23.5t-30 19.5l-110 60q-37 21 -55 47.5t-14 63.5q5 35 25 56.5t51.5 37.5t70.5 33q22 11 41.5 23.5t32 30t14.5 44.5q2 22 -8 38t-40.5 24.5t-93.5 8.5q-62 0 -99.5 -11t-56 -40t-26.5 -83l-85 -597q-7 -48 -24.5 -78.5
t-49 -45t-78.5 -14.5q-12 0 -41.5 1t-58.5 5l9 47h77q50 0 73.5 20t30.5 74l84 597q9 60 29 95.5t50.5 53.5t70.5 23.5t87 5.5zM179 485l-9 -52h-122l7 46l93 6h31z" />
    <glyph glyph-name="agrave" unicode="&#xe0;" horiz-adv-x="570" 
d="M303 497q24 0 51 -1.5t54 -4.5l54 -6t52 -8l-28 -40q-55 2 -96 4t-69 2q-54 0 -88.5 -7.5t-55.5 -28.5t-33.5 -61.5t-22.5 -104.5q-11 -76 -9 -119t20.5 -60.5t57.5 -17.5q35 0 73 16t79 47t82 75l11 -36q-31 -46 -73 -81.5t-88.5 -56t-94.5 -20.5q-59 0 -90 25.5
t-38 82.5t7 151q12 79 30.5 128.5t47 76t69.5 36t98 9.5zM450 477h64l-67 -477h-50l10 117l-7 7zM217 727l156 -147l-25 -29l-167 131z" />
    <glyph glyph-name="aacute" unicode="&#xe1;" horiz-adv-x="570" 
d="M303 497q24 0 51 -1.5t54 -4.5l54 -6t52 -8l-28 -40q-55 2 -96 4t-69 2q-54 0 -88.5 -7.5t-55.5 -28.5t-33.5 -61.5t-22.5 -104.5q-11 -76 -9 -119t20.5 -60.5t57.5 -17.5q35 0 73 16t79 47t82 75l11 -36q-31 -46 -73 -81.5t-88.5 -56t-94.5 -20.5q-59 0 -90 25.5
t-38 82.5t7 151q12 79 30.5 128.5t47 76t69.5 36t98 9.5zM450 477h64l-67 -477h-50l10 117l-7 7zM451 728l32 -49l-194 -128l-22 30z" />
    <glyph glyph-name="acircumflex" unicode="&#xe2;" horiz-adv-x="570" 
d="M303 497q24 0 51 -1.5t54 -4.5l54 -6t52 -8l-28 -40q-55 2 -96 4t-69 2q-54 0 -88.5 -7.5t-55.5 -28.5t-33.5 -61.5t-22.5 -104.5q-11 -76 -9 -119t20.5 -60.5t57.5 -17.5q35 0 73 16t79 47t82 75l11 -36q-31 -46 -73 -81.5t-88.5 -56t-94.5 -20.5q-59 0 -90 25.5
t-38 82.5t7 151q12 79 30.5 128.5t47 76t69.5 36t98 9.5zM450 477h64l-67 -477h-50l10 117l-7 7zM367 710l123 -128l-25 -25l-118 101h-8l-148 -101l-20 29l150 124h46z" />
    <glyph glyph-name="atilde" unicode="&#xe3;" horiz-adv-x="570" 
d="M303 497q24 0 51 -1.5t54 -4.5l54 -6t52 -8l-28 -40q-55 2 -96 4t-69 2q-54 0 -88.5 -7.5t-55.5 -28.5t-33.5 -61.5t-22.5 -104.5q-11 -76 -9 -119t20.5 -60.5t57.5 -17.5q35 0 73 16t79 47t82 75l11 -36q-31 -46 -73 -81.5t-88.5 -56t-94.5 -20.5q-59 0 -90 25.5
t-38 82.5t7 151q12 79 30.5 128.5t47 76t69.5 36t98 9.5zM450 477h64l-67 -477h-50l10 117l-7 7zM264 695q24 -2 40.5 -10.5t31 -19t29.5 -19.5t36 -11q31 -3 45.5 11.5t18.5 44.5l31 -2q-2 -52 -26.5 -78.5t-60.5 -23.5q-26 2 -44 11t-33 19.5t-29 19.5t-32 11
q-30 3 -44.5 -12.5t-18.5 -47.5l-32 3q3 55 28.5 81t59.5 23z" />
    <glyph glyph-name="adieresis" unicode="&#xe4;" horiz-adv-x="570" 
d="M303 497q24 0 51 -1.5t54 -4.5l54 -6t52 -8l-28 -40q-55 2 -96 4t-69 2q-54 0 -88.5 -7.5t-55.5 -28.5t-33.5 -61.5t-22.5 -104.5q-11 -76 -9 -119t20.5 -60.5t57.5 -17.5q35 0 73 16t79 47t82 75l11 -36q-31 -46 -73 -81.5t-88.5 -56t-94.5 -20.5q-59 0 -90 25.5
t-38 82.5t7 151q12 79 30.5 128.5t47 76t69.5 36t98 9.5zM450 477h64l-67 -477h-50l10 117l-7 7zM267 684q11 0 15 -5t2 -14l-8 -55q-1 -10 -6 -15t-16 -5h-21q-19 0 -17 19l8 56q2 9 7 14t16 5h20zM438 684q12 0 15.5 -5t2.5 -14l-8 -55q-1 -10 -6 -15t-16 -5h-21
q-19 0 -17 19l8 56q2 9 7 14t15 5h20z" />
    <glyph glyph-name="aring" unicode="&#xe5;" horiz-adv-x="570" 
d="M303 497q24 0 51 -1.5t54 -4.5l54 -6t52 -8l-28 -40q-55 2 -96 4t-69 2q-54 0 -88.5 -7.5t-55.5 -28.5t-33.5 -61.5t-22.5 -104.5q-11 -76 -9 -119t20.5 -60.5t57.5 -17.5q35 0 73 16t79 47t82 75l11 -36q-31 -46 -73 -81.5t-88.5 -56t-94.5 -20.5q-59 0 -90 25.5
t-38 82.5t7 151q12 79 30.5 128.5t47 76t69.5 36t98 9.5zM450 477h64l-67 -477h-50l10 117l-7 7zM344 739q43 0 69.5 -25.5t26.5 -66.5q0 -47 -31.5 -79t-79.5 -32q-44 0 -70.5 25.5t-26.5 66.5q0 47 32 79t80 32zM343 704q-33 0 -52.5 -21.5t-19.5 -51.5q0 -25 15 -42.5
t44 -17.5q33 0 52.5 22t19.5 52q0 25 -15.5 42t-43.5 17z" />
    <glyph glyph-name="ae" unicode="&#xe6;" horiz-adv-x="873" 
d="M299 497q37 0 76 -3.5t78.5 -8.5t74.5 -13l-33 -40q-39 3 -70.5 5.5t-57.5 4t-50 1.5q-53 0 -87 -8.5t-55 -30t-32.5 -61t-21.5 -102.5q-10 -74 -9 -117t18.5 -61.5t54.5 -18.5q36 0 73 15.5t75.5 46.5t79.5 76l11 -35q-29 -45 -68.5 -81t-85.5 -57t-97 -21
q-58 0 -88 27.5t-36 85t7 146.5q12 79 31 128.5t47.5 76t69 36t95.5 9.5zM652 497q70 0 112 -16t57 -49.5t5 -88.5q-8 -44 -28.5 -70t-56.5 -39t-91 -18l-240 -24l8 49l232 24q36 4 58.5 12t35.5 25t19 47q9 43 -3 63t-41.5 25.5t-71.5 5.5q-44 0 -76 -7.5t-53.5 -27.5
t-36 -58.5t-23.5 -100.5q-13 -85 -2.5 -129.5t45 -61t93.5 -16.5q27 0 58.5 2t62.5 5t54 6l5 -43q-22 -8 -57 -13.5t-72 -8t-64 -2.5q-82 0 -128 27.5t-59.5 85.5t-1.5 150q11 74 30 122t50 75t75.5 38t104.5 11z" />
    <glyph glyph-name="ccedilla" unicode="&#xe7;" horiz-adv-x="481" 
d="M310 497q32 0 73.5 -4.5t74.5 -17.5l-12 -41q-29 5 -65.5 6.5t-59.5 1.5q-64 0 -105 -17t-64 -60.5t-34 -124.5q-11 -80 -1 -122.5t44 -58.5t96 -16q16 0 40 1t52 3t52 6l5 -43q-36 -11 -78 -16.5t-81 -5.5q-84 0 -131 25.5t-62.5 82t-2.5 149.5q14 93 43.5 148.5
t81.5 79.5t134 24zM191 -57q34 3 56.5 -2.5t31.5 -21t4 -44.5q-5 -39 -29 -66t-61 -39.5t-82 -6.5l12 34q46 -1 77 22.5t36 57.5q3 20 -7.5 27t-45.5 8z" />
    <glyph glyph-name="egrave" unicode="&#xe8;" horiz-adv-x="533" 
d="M313 497q70 0 111.5 -16t57.5 -49.5t4 -88.5q-8 -44 -28.5 -70t-56 -39t-90.5 -18l-239 -24l6 49l232 24q37 4 59.5 12t35.5 25t19 47q9 43 -3.5 63t-41.5 25.5t-71 5.5q-45 0 -76.5 -7.5t-53.5 -27.5t-36 -58.5t-24 -100.5q-12 -85 -1.5 -129.5t45 -61t92.5 -16.5
q28 0 60 2t62.5 5t55.5 6l5 -43q-22 -8 -57.5 -13.5t-72.5 -8t-65 -2.5q-82 0 -128 27.5t-60 85.5t-1 150q11 74 30 122t50 75t75 38t105 11zM208 727l156 -147l-25 -29l-167 131z" />
    <glyph glyph-name="eacute" unicode="&#xe9;" horiz-adv-x="533" 
d="M313 497q70 0 111.5 -16t57.5 -49.5t4 -88.5q-8 -44 -28.5 -70t-56 -39t-90.5 -18l-239 -24l6 49l232 24q37 4 59.5 12t35.5 25t19 47q9 43 -3.5 63t-41.5 25.5t-71 5.5q-45 0 -76.5 -7.5t-53.5 -27.5t-36 -58.5t-24 -100.5q-12 -85 -1.5 -129.5t45 -61t92.5 -16.5
q28 0 60 2t62.5 5t55.5 6l5 -43q-22 -8 -57.5 -13.5t-72.5 -8t-65 -2.5q-82 0 -128 27.5t-60 85.5t-1 150q11 74 30 122t50 75t75 38t105 11zM444 728l32 -49l-194 -128l-22 30z" />
    <glyph glyph-name="ecircumflex" unicode="&#xea;" horiz-adv-x="533" 
d="M313 497q70 0 111.5 -16t57.5 -49.5t4 -88.5q-8 -44 -28.5 -70t-56 -39t-90.5 -18l-239 -24l6 49l232 24q37 4 59.5 12t35.5 25t19 47q9 43 -3.5 63t-41.5 25.5t-71 5.5q-45 0 -76.5 -7.5t-53.5 -27.5t-36 -58.5t-24 -100.5q-12 -85 -1.5 -129.5t45 -61t92.5 -16.5
q28 0 60 2t62.5 5t55.5 6l5 -43q-22 -8 -57.5 -13.5t-72.5 -8t-65 -2.5q-82 0 -128 27.5t-60 85.5t-1 150q11 74 30 122t50 75t75 38t105 11zM359 710l123 -128l-25 -25l-118 101h-8l-148 -101l-20 29l150 124h46z" />
    <glyph glyph-name="edieresis" unicode="&#xeb;" horiz-adv-x="533" 
d="M313 497q70 0 111.5 -16t57.5 -49.5t4 -88.5q-8 -44 -28.5 -70t-56 -39t-90.5 -18l-239 -24l6 49l232 24q37 4 59.5 12t35.5 25t19 47q9 43 -3.5 63t-41.5 25.5t-71 5.5q-45 0 -76.5 -7.5t-53.5 -27.5t-36 -58.5t-24 -100.5q-12 -85 -1.5 -129.5t45 -61t92.5 -16.5
q28 0 60 2t62.5 5t55.5 6l5 -43q-22 -8 -57.5 -13.5t-72.5 -8t-65 -2.5q-82 0 -128 27.5t-60 85.5t-1 150q11 74 30 122t50 75t75 38t105 11zM259 684q11 0 15 -5t2 -14l-8 -55q-1 -10 -6 -15t-16 -5h-21q-19 0 -17 19l8 56q2 9 7 14t16 5h20zM430 684q12 0 15.5 -5t2.5 -14
l-8 -55q-1 -10 -6 -15t-16 -5h-21q-19 0 -17 19l8 56q2 9 7 14t15 5h20z" />
    <glyph glyph-name="igrave" unicode="&#xec;" horiz-adv-x="236" 
d="M177 485l-69 -485h-63l69 485h63zM47 727l156 -147l-25 -29l-167 131z" />
    <glyph glyph-name="iacute" unicode="&#xed;" horiz-adv-x="236" 
d="M177 485l-69 -485h-63l69 485h63zM283 728l32 -49l-194 -128l-22 30z" />
    <glyph glyph-name="icircumflex" unicode="&#xee;" horiz-adv-x="236" 
d="M177 485l-69 -485h-63l69 485h63zM198 710l123 -128l-25 -25l-118 101h-8l-148 -101l-20 29l150 124h46z" />
    <glyph glyph-name="idieresis" unicode="&#xef;" horiz-adv-x="236" 
d="M177 485l-69 -485h-63l69 485h63zM98 684q11 0 15 -5t2 -14l-8 -55q-1 -10 -6 -15t-16 -5h-21q-19 0 -17 19l8 56q2 9 7 14t16 5h20zM269 684q12 0 15.5 -5t2.5 -14l-8 -55q-1 -10 -6 -15t-16 -5h-21q-19 0 -17 19l8 56q2 9 7 14t15 5h20z" />
    <glyph glyph-name="eth" unicode="&#xf0;" horiz-adv-x="551" 
d="M179 698q50 2 99.5 -8t92 -36.5t72.5 -74t41 -121.5t-3 -180q-9 -62 -24 -115t-42.5 -92.5t-72.5 -61.5t-113 -22q-72 0 -116 25.5t-59 77.5t-5 132q14 104 66 164.5t159 60.5q23 0 47 -4t48 -15t46 -31.5t39 -55.5l-7 -28q-22 33 -49 50.5t-56 24t-58 6.5
q-56 0 -90.5 -22t-53 -61.5t-25.5 -93.5q-14 -97 15 -136t102 -39q63 0 100 28.5t56 84t30 135.5q13 98 3.5 164t-35.5 105.5t-62 60t-76.5 26.5t-78.5 6zM468 706l20 -30l-221 -147l-17 28z" />
    <glyph glyph-name="ntilde" unicode="&#xf1;" horiz-adv-x="574" 
d="M391 497q41 0 68.5 -15t39.5 -45t6 -74l-52 -363h-63l50 349q6 52 -9.5 72.5t-57.5 20.5q-50 0 -103 -31.5t-126 -88.5l1 48q70 61 130 94t116 33zM160 485l-11 -124l3 -16l-48 -345h-63l69 485h50zM262 695q24 -2 40.5 -10.5t31 -19t29.5 -19.5t36 -11q31 -3 45.5 11.5
t18.5 44.5l31 -2q-2 -52 -26.5 -78.5t-60.5 -23.5q-26 2 -44 11t-33 19.5t-29 19.5t-32 11q-30 3 -44.5 -12.5t-18.5 -47.5l-32 3q3 55 28.5 81t59.5 23z" />
    <glyph glyph-name="ograve" unicode="&#xf2;" horiz-adv-x="562" 
d="M306 497q81 0 127 -25.5t61 -82t2 -150.5q-13 -92 -42 -147.5t-80 -80t-131 -24.5t-127 25.5t-62.5 82t-2.5 150.5q13 92 42 147t80.5 80t132.5 25zM306 442q-59 0 -96.5 -18t-59 -62t-32.5 -123q-11 -75 -3 -118t39 -61t89 -18q59 0 96.5 18.5t59 63t32.5 121.5
q11 76 3 118.5t-39 60.5t-89 18zM208 727l156 -147l-25 -29l-167 131z" />
    <glyph glyph-name="oacute" unicode="&#xf3;" horiz-adv-x="562" 
d="M306 497q81 0 127 -25.5t61 -82t2 -150.5q-13 -92 -42 -147.5t-80 -80t-131 -24.5t-127 25.5t-62.5 82t-2.5 150.5q13 92 42 147t80.5 80t132.5 25zM306 442q-59 0 -96.5 -18t-59 -62t-32.5 -123q-11 -75 -3 -118t39 -61t89 -18q59 0 96.5 18.5t59 63t32.5 121.5
q11 76 3 118.5t-39 60.5t-89 18zM444 728l32 -49l-194 -128l-22 30z" />
    <glyph glyph-name="ocircumflex" unicode="&#xf4;" horiz-adv-x="562" 
d="M306 497q81 0 127 -25.5t61 -82t2 -150.5q-13 -92 -42 -147.5t-80 -80t-131 -24.5t-127 25.5t-62.5 82t-2.5 150.5q13 92 42 147t80.5 80t132.5 25zM306 442q-59 0 -96.5 -18t-59 -62t-32.5 -123q-11 -75 -3 -118t39 -61t89 -18q59 0 96.5 18.5t59 63t32.5 121.5
q11 76 3 118.5t-39 60.5t-89 18zM359 710l123 -128l-25 -25l-118 101h-8l-148 -101l-20 29l150 124h46z" />
    <glyph glyph-name="otilde" unicode="&#xf5;" horiz-adv-x="562" 
d="M306 497q81 0 127 -25.5t61 -82t2 -150.5q-13 -92 -42 -147.5t-80 -80t-131 -24.5t-127 25.5t-62.5 82t-2.5 150.5q13 92 42 147t80.5 80t132.5 25zM306 442q-59 0 -96.5 -18t-59 -62t-32.5 -123q-11 -75 -3 -118t39 -61t89 -18q59 0 96.5 18.5t59 63t32.5 121.5
q11 76 3 118.5t-39 60.5t-89 18zM256 695q24 -2 40.5 -10.5t31 -19t29.5 -19.5t36 -11q31 -3 45.5 11.5t18.5 44.5l31 -2q-2 -52 -26.5 -78.5t-60.5 -23.5q-26 2 -44 11t-33 19.5t-29 19.5t-32 11q-30 3 -44.5 -12.5t-18.5 -47.5l-32 3q3 55 28.5 81t59.5 23z" />
    <glyph glyph-name="odieresis" unicode="&#xf6;" horiz-adv-x="562" 
d="M306 497q81 0 127 -25.5t61 -82t2 -150.5q-13 -92 -42 -147.5t-80 -80t-131 -24.5t-127 25.5t-62.5 82t-2.5 150.5q13 92 42 147t80.5 80t132.5 25zM306 442q-59 0 -96.5 -18t-59 -62t-32.5 -123q-11 -75 -3 -118t39 -61t89 -18q59 0 96.5 18.5t59 63t32.5 121.5
q11 76 3 118.5t-39 60.5t-89 18zM259 684q11 0 15 -5t2 -14l-8 -55q-1 -10 -6 -15t-16 -5h-21q-19 0 -17 19l8 56q2 9 7 14t16 5h20zM430 684q12 0 15.5 -5t2.5 -14l-8 -55q-1 -10 -6 -15t-16 -5h-21q-19 0 -17 19l8 56q2 9 7 14t15 5h20z" />
    <glyph glyph-name="divide" unicode="&#xf7;" horiz-adv-x="575" 
d="M507 320l-8 -49h-430l7 49h431zM278 176q13 0 18.5 -6.5t4.5 -20.5l-9 -54q-1 -11 -7.5 -16.5t-18.5 -5.5h-18q-13 0 -18.5 6.5t-3.5 19.5l8 52q1 13 7.5 19t17.5 6h19zM325 517q14 -1 19.5 -7.5t3.5 -19.5l-7 -53q-2 -12 -8.5 -17.5t-18.5 -5.5h-18q-13 0 -19 6.5
t-4 19.5l8 53q1 12 7.5 18t18.5 6h18z" />
    <glyph glyph-name="oslash" unicode="&#xf8;" horiz-adv-x="562" 
d="M448 554l30 -17l-368 -607l-30 17zM306 497q81 0 127 -25.5t61 -82t2 -150.5q-13 -92 -42 -147.5t-80 -80t-131 -24.5t-127 25.5t-62.5 82t-2.5 150.5q13 92 42 147t80.5 80t132.5 25zM306 442q-59 0 -96.5 -18t-59 -62t-32.5 -123q-11 -75 -3 -118t39 -61t89 -18
q59 0 96.5 18.5t59 63t32.5 121.5q11 76 3 118.5t-39 60.5t-89 18z" />
    <glyph glyph-name="ugrave" unicode="&#xf9;" horiz-adv-x="563" 
d="M170 485l-50 -349q-7 -49 10 -71t60 -22q50 0 98.5 32t116.5 95l6 -48q-67 -67 -125.5 -101t-115.5 -34q-66 0 -95.5 36t-19.5 99l51 363h64zM508 485l-68 -485h-49l12 133l-5 15l47 337h63zM210 728l156 -147l-25 -29l-167 131z" />
    <glyph glyph-name="uacute" unicode="&#xfa;" horiz-adv-x="563" 
d="M170 485l-50 -349q-7 -49 10 -71t60 -22q50 0 98.5 32t116.5 95l6 -48q-67 -67 -125.5 -101t-115.5 -34q-66 0 -95.5 36t-19.5 99l51 363h64zM508 485l-68 -485h-49l12 133l-5 15l47 337h63zM445 729l32 -49l-194 -128l-22 30z" />
    <glyph glyph-name="ucircumflex" unicode="&#xfb;" horiz-adv-x="563" 
d="M170 485l-50 -349q-7 -49 10 -71t60 -22q50 0 98.5 32t116.5 95l6 -48q-67 -67 -125.5 -101t-115.5 -34q-66 0 -95.5 36t-19.5 99l51 363h64zM508 485l-68 -485h-49l12 133l-5 15l47 337h63zM360 712l123 -128l-25 -25l-118 101h-8l-148 -101l-20 29l150 124h46z" />
    <glyph glyph-name="udieresis" unicode="&#xfc;" horiz-adv-x="563" 
d="M170 485l-50 -349q-7 -49 10 -71t60 -22q50 0 98.5 32t116.5 95l6 -48q-67 -67 -125.5 -101t-115.5 -34q-66 0 -95.5 36t-19.5 99l51 363h64zM508 485l-68 -485h-49l12 133l-5 15l47 337h63zM260 687q11 0 15 -5t2 -14l-8 -55q-1 -10 -6 -15t-16 -5h-21q-19 0 -17 19
l8 56q2 9 7 14t16 5h20zM431 687q12 0 15.5 -5t2.5 -14l-8 -55q-1 -10 -6 -15t-16 -5h-21q-19 0 -17 19l8 56q2 9 7 14t15 5h20z" />
    <glyph glyph-name="yacute" unicode="&#xfd;" horiz-adv-x="529" 
d="M510 485q-10 -43 -22 -84t-26 -82.5t-31.5 -82.5t-37.5 -81.5t-44 -81.5q-51 -90 -98 -148t-96 -89t-107 -43l-12 44q37 10 69 28.5t63 48.5t61.5 73.5t62.5 103.5q37 65 64.5 126.5t49 126.5t39.5 141h65zM115 485l83 -413q5 -21 26 -21h55l-30 -51h-52q-20 0 -34.5 12
t-18.5 30l-96 443h67zM413 728l32 -49l-194 -128l-22 30z" />
    <glyph glyph-name="thorn" unicode="&#xfe;" horiz-adv-x="570" 
d="M379 497q56 0 87 -25t39 -81.5t-6 -152.5q-12 -80 -30.5 -129t-47 -75.5t-69 -36.5t-95.5 -10q-46 0 -100 6t-100 14l19 40q53 -2 93 -3.5t67 -1.5q54 0 88.5 7.5t55 28.5t32.5 60.5t22 104.5q11 76 9.5 119t-19.5 61t-58 18q-34 0 -72.5 -16.5t-78.5 -47t-82 -75.5
l-11 36q32 47 74 82.5t89 56t94 20.5zM204 700l-30 -213q-4 -27 -7.5 -51t-11.5 -52l2 -10l-46 -337l-6 -13q-1 -28 -3.5 -52t-7.5 -52l-18 -124h-62l126 904h64z" />
    <glyph glyph-name="ydieresis" unicode="&#xff;" horiz-adv-x="529" 
d="M510 485q-10 -43 -22 -84t-26 -82.5t-31.5 -82.5t-37.5 -81.5t-44 -81.5q-51 -90 -98 -148t-96 -89t-107 -43l-12 44q37 10 69 28.5t63 48.5t61.5 73.5t62.5 103.5q37 65 64.5 126.5t49 126.5t39.5 141h65zM115 485l83 -413q5 -21 26 -21h55l-30 -51h-52q-20 0 -34.5 12
t-18.5 30l-96 443h67zM229 684q11 0 15 -5t2 -14l-8 -55q-1 -10 -6 -15t-16 -5h-21q-19 0 -17 19l8 56q2 9 7 14t16 5h20zM400 684q12 0 15.5 -5t2.5 -14l-8 -55q-1 -10 -6 -15t-16 -5h-21q-19 0 -17 19l8 56q2 9 7 14t15 5h20z" />
    <glyph glyph-name="Amacron" unicode="&#x100;" horiz-adv-x="612" 
d="M400 690q9 0 16 -5.5t8 -14.5l137 -670h-66l-112 581q-2 15 -4 29.5t-5 28.5h-30q-6 -14 -13 -29t-13 -29l-275 -581h-70l326 672q3 10 10 14t16 4h75zM482 286l-8 -58h-350l8 58h350zM520 841l-6 -48h-273l6 48h273z" />
    <glyph glyph-name="amacron" unicode="&#x101;" horiz-adv-x="570" 
d="M303 497q24 0 51 -1.5t54 -4.5l54 -6t52 -8l-28 -40q-55 2 -96 4t-69 2q-54 0 -88.5 -7.5t-55.5 -28.5t-33.5 -61.5t-22.5 -104.5q-11 -76 -9 -119t20.5 -60.5t57.5 -17.5q35 0 73 16t79 47t82 75l11 -36q-31 -46 -73 -81.5t-88.5 -56t-94.5 -20.5q-59 0 -90 25.5
t-38 82.5t7 151q12 79 30.5 128.5t47 76t69.5 36t98 9.5zM450 477h64l-67 -477h-50l10 117l-7 7zM475 660l-6 -48h-273l6 48h273z" />
    <glyph glyph-name="Abreve" unicode="&#x102;" horiz-adv-x="612" 
d="M400 690q9 0 16 -5.5t8 -14.5l137 -670h-66l-112 581q-2 15 -4 29.5t-5 28.5h-30q-6 -14 -13 -29t-13 -29l-275 -581h-70l326 672q3 10 10 14t16 4h75zM482 286l-8 -58h-350l8 58h350zM499 881l34 -8q-4 -38 -24.5 -65.5t-54.5 -43t-79 -15.5q-47 0 -79 16t-46 45t-7 66
l35 3q-6 -39 20.5 -60t76.5 -21q53 0 86 22.5t38 60.5z" />
    <glyph glyph-name="abreve" unicode="&#x103;" horiz-adv-x="570" 
d="M303 497q24 0 51 -1.5t54 -4.5l54 -6t52 -8l-28 -40q-55 2 -96 4t-69 2q-54 0 -88.5 -7.5t-55.5 -28.5t-33.5 -61.5t-22.5 -104.5q-11 -76 -9 -119t20.5 -60.5t57.5 -17.5q35 0 73 16t79 47t82 75l11 -36q-31 -46 -73 -81.5t-88.5 -56t-94.5 -20.5q-59 0 -90 25.5
t-38 82.5t7 151q12 79 30.5 128.5t47 76t69.5 36t98 9.5zM450 477h64l-67 -477h-50l10 117l-7 7zM454 701l34 -8q-4 -38 -24.5 -65.5t-54.5 -43t-79 -15.5q-47 0 -79 16t-46 45t-7 66l35 3q-6 -39 20.5 -60t76.5 -21q53 0 86 22.5t38 60.5z" />
    <glyph glyph-name="Aogonek" unicode="&#x104;" horiz-adv-x="612" 
d="M400 690q9 0 16 -5.5t8 -14.5l137 -670h-66l-112 581q-2 15 -4 29.5t-5 28.5h-30q-6 -14 -13 -29t-13 -29l-275 -581h-70l326 672q3 10 10 14t16 4h75zM482 286l-8 -58h-350l8 58h350zM529 3l32 -3q-27 -26 -50.5 -55.5t-43.5 -65.5q-20 -39 0.5 -50.5t73.5 5.5l8 -28
q-47 -19 -78 -19.5t-47 13t-16.5 35.5t11.5 48q13 25 38.5 55t71.5 65z" />
    <glyph glyph-name="aogonek" unicode="&#x105;" horiz-adv-x="570" 
d="M303 497q24 0 51 -1.5t54 -4.5l54 -6t52 -8l-28 -40q-55 2 -96 4t-69 2q-54 0 -88.5 -7.5t-55.5 -28.5t-33.5 -61.5t-22.5 -104.5q-11 -76 -9 -119t20.5 -60.5t57.5 -17.5q35 0 73 16t79 47t82 75l11 -36q-31 -46 -73 -81.5t-88.5 -56t-94.5 -20.5q-59 0 -90 25.5
t-38 82.5t7 151q12 79 30.5 128.5t47 76t69.5 36t98 9.5zM450 477h64l-67 -477h-50l10 117l-7 7zM414 3l32 -3q-27 -26 -50.5 -55.5t-43.5 -65.5q-20 -39 0.5 -50.5t73.5 5.5l8 -28q-47 -19 -78 -19.5t-47 13t-16.5 35.5t11.5 48q13 25 38.5 55t71.5 65z" />
    <glyph glyph-name="Cacute" unicode="&#x106;" horiz-adv-x="563" 
d="M384 702q43 0 74.5 -2t56.5 -6t52 -12l-12 -49q-28 4 -53 6.5t-52.5 3.5t-65.5 1q-57 0 -97 -15t-68.5 -49t-47 -92t-29.5 -146q-16 -111 -7.5 -175.5t47 -92t110.5 -28.5q64 0 107.5 3t85.5 9l5 -49q-44 -11 -88.5 -16t-109.5 -5q-98 0 -152 36.5t-69.5 116t2.5 207.5
q14 98 37.5 166t59.5 109.5t88.5 60t125.5 18.5zM510 908l32 -49l-194 -128l-22 30z" />
    <glyph glyph-name="cacute" unicode="&#x107;" horiz-adv-x="481" 
d="M310 497q32 0 73.5 -4.5t74.5 -17.5l-12 -41q-29 5 -65.5 6.5t-59.5 1.5q-64 0 -105 -17t-64 -60.5t-34 -124.5q-11 -80 -1 -122.5t44 -58.5t96 -16q16 0 40 1t52 3t52 6l5 -43q-36 -11 -78 -16.5t-81 -5.5q-84 0 -131 25.5t-62.5 82t-2.5 149.5q14 93 43.5 148.5
t81.5 79.5t134 24zM427 728l32 -49l-194 -128l-22 30z" />
    <glyph glyph-name="Ccircumflex" unicode="&#x108;" horiz-adv-x="563" 
d="M384 702q43 0 74.5 -2t56.5 -6t52 -12l-12 -49q-28 4 -53 6.5t-52.5 3.5t-65.5 1q-57 0 -97 -15t-68.5 -49t-47 -92t-29.5 -146q-16 -111 -7.5 -175.5t47 -92t110.5 -28.5q64 0 107.5 3t85.5 9l5 -49q-44 -11 -88.5 -16t-109.5 -5q-98 0 -152 36.5t-69.5 116t2.5 207.5
q14 98 37.5 166t59.5 109.5t88.5 60t125.5 18.5zM425 891l123 -128l-25 -25l-118 101h-8l-148 -101l-20 29l150 124h46z" />
    <glyph glyph-name="ccircumflex" unicode="&#x109;" horiz-adv-x="481" 
d="M310 497q32 0 73.5 -4.5t74.5 -17.5l-12 -41q-29 5 -65.5 6.5t-59.5 1.5q-64 0 -105 -17t-64 -60.5t-34 -124.5q-11 -80 -1 -122.5t44 -58.5t96 -16q16 0 40 1t52 3t52 6l5 -43q-36 -11 -78 -16.5t-81 -5.5q-84 0 -131 25.5t-62.5 82t-2.5 149.5q14 93 43.5 148.5
t81.5 79.5t134 24zM343 710l123 -128l-25 -25l-118 101h-8l-148 -101l-20 29l150 124h46z" />
    <glyph glyph-name="Cdotaccent" unicode="&#x10a;" horiz-adv-x="563" 
d="M384 702q43 0 74.5 -2t56.5 -6t52 -12l-12 -49q-28 4 -53 6.5t-52.5 3.5t-65.5 1q-57 0 -97 -15t-68.5 -49t-47 -92t-29.5 -146q-16 -111 -7.5 -175.5t47 -92t110.5 -28.5q64 0 107.5 3t85.5 9l5 -49q-44 -11 -88.5 -16t-109.5 -5q-98 0 -152 36.5t-69.5 116t2.5 207.5
q14 98 37.5 166t59.5 109.5t88.5 60t125.5 18.5zM410 865q10 0 15 -5.5t4 -16.5l-8 -58q-3 -20 -23 -20h-20q-11 0 -16 6t-4 16l8 58q1 11 6 15.5t16 4.5h22z" />
    <glyph glyph-name="cdotaccent" unicode="&#x10b;" horiz-adv-x="481" 
d="M310 497q32 0 73.5 -4.5t74.5 -17.5l-12 -41q-29 5 -65.5 6.5t-59.5 1.5q-64 0 -105 -17t-64 -60.5t-34 -124.5q-11 -80 -1 -122.5t44 -58.5t96 -16q16 0 40 1t52 3t52 6l5 -43q-36 -11 -78 -16.5t-81 -5.5q-84 0 -131 25.5t-62.5 82t-2.5 149.5q14 93 43.5 148.5
t81.5 79.5t134 24zM328 684q10 0 15 -5.5t4 -16.5l-8 -58q-3 -20 -23 -20h-20q-11 0 -16 6t-4 16l8 58q1 11 6 15.5t16 4.5h22z" />
    <glyph glyph-name="Ccaron" unicode="&#x10c;" horiz-adv-x="563" 
d="M384 702q43 0 74.5 -2t56.5 -6t52 -12l-12 -49q-28 4 -53 6.5t-52.5 3.5t-65.5 1q-57 0 -97 -15t-68.5 -49t-47 -92t-29.5 -146q-16 -111 -7.5 -175.5t47 -92t110.5 -28.5q64 0 107.5 3t85.5 9l5 -49q-44 -11 -88.5 -16t-109.5 -5q-98 0 -152 36.5t-69.5 116t2.5 207.5
q14 98 37.5 166t59.5 109.5t88.5 60t125.5 18.5zM539 898l21 -28l-151 -124h-47l-118 128l27 24l114 -100h8z" />
    <glyph glyph-name="ccaron" unicode="&#x10d;" horiz-adv-x="481" 
d="M310 497q32 0 73.5 -4.5t74.5 -17.5l-12 -41q-29 5 -65.5 6.5t-59.5 1.5q-64 0 -105 -17t-64 -60.5t-34 -124.5q-11 -80 -1 -122.5t44 -58.5t96 -16q16 0 40 1t52 3t52 6l5 -43q-36 -11 -78 -16.5t-81 -5.5q-84 0 -131 25.5t-62.5 82t-2.5 149.5q14 93 43.5 148.5
t81.5 79.5t134 24zM457 717l21 -28l-151 -124h-47l-118 128l27 24l114 -100h8z" />
    <glyph glyph-name="Dcaron" unicode="&#x10e;" horiz-adv-x="661" 
d="M375 699q101 0 157 -34t72 -112t-2 -211q-15 -107 -40 -176t-62 -107t-91 -53t-129 -15q-57 0 -116.5 2.5t-112.5 6.5l35 52q44 -1 95.5 -2t97.5 -1q61 0 103.5 13t72 46t48 91.5t31.5 148.5q12 87 10 144.5t-20.5 90t-55 46t-94.5 13.5q-31 0 -67 -0.5t-71.5 -1.5
t-63.5 -2l-24 52q34 3 73.5 5t79 3t74.5 1zM214 690l-97 -690h-66l97 690h66zM534 898l21 -28l-151 -124h-47l-118 128l27 24l114 -100h8z" />
    <glyph glyph-name="dcaron" unicode="&#x10f;" horiz-adv-x="568" 
d="M297 497q49 0 104 -5.5t103 -14.5l-19 -39q-54 2 -95 4t-72 2q-53 0 -87.5 -8t-55.5 -29t-33 -61t-22 -105q-10 -72 -8.5 -115t18.5 -62.5t55 -19.5q55 0 112.5 34.5t124.5 103.5l11 -36q-22 -29 -51 -57t-63 -51t-72 -36.5t-78 -13.5q-52 0 -81 26.5t-36.5 83.5t4.5 149
q12 79 31 128.5t47 75.5t68 36t95 10zM544 700l-99 -700h-49l10 118l-6 6l46 339l8 16q1 26 3 49t6 50l17 122h64zM660 700q11 0 15 -5t2 -17l-8 -58q-3 -27 -16.5 -62.5t-27.5 -61.5l-28 9q9 24 17 49t12 54q-8 -1 -12.5 4.5t-3.5 13.5l8 54q2 11 7 15.5t18 4.5h17z" />
    <glyph glyph-name="Dcroat" unicode="&#x110;" horiz-adv-x="661" 
d="M335 387l-5 -38h-302l6 38h301zM375 699q101 0 157 -34t72 -112t-2 -211q-15 -107 -40 -176t-62 -107t-91 -53t-129 -15q-57 0 -116.5 2.5t-112.5 6.5l35 52q44 -1 95.5 -2t97.5 -1q61 0 103.5 13t72 46t48 91.5t31.5 148.5q12 87 10 144.5t-20.5 90t-55 46t-94.5 13.5
q-31 0 -67 -0.5t-71.5 -1.5t-63.5 -2l-24 52q34 3 73.5 5t79 3t74.5 1zM214 690l-97 -690h-66l97 690h66z" />
    <glyph glyph-name="dcroat" unicode="&#x111;" horiz-adv-x="568" 
d="M607 619l-5 -38h-296l6 38h295zM297 497q49 0 104 -5.5t103 -14.5l-19 -39q-54 2 -95 4t-72 2q-53 0 -87.5 -8t-55.5 -29t-33 -61t-22 -105q-10 -72 -8.5 -115t18.5 -62.5t55 -19.5q55 0 112.5 34.5t124.5 103.5l11 -36q-22 -29 -51 -57t-63 -51t-72 -36.5t-78 -13.5
q-52 0 -81 26.5t-36.5 83.5t4.5 149q12 79 31 128.5t47 75.5t68 36t95 10zM544 700l-99 -700h-49l10 118l-6 6l46 339l8 16q1 26 3 49t6 50l17 122h64z" />
    <glyph glyph-name="Emacron" unicode="&#x112;" 
d="M260 691h100.5t100 -1.5t96.5 -4.5l-9 -51h-279q-37 0 -56 -18t-24 -55l-60 -435q-5 -34 10 -52t50 -18h277l-1 -51q-46 -3 -94 -4t-96 -1.5t-95 -0.5q-65 0 -95.5 34.5t-22.5 91.5l64 454q7 51 41 81.5t93 30.5zM118 392h356l-7 -51l-357 -1zM521 862l-6 -48h-273l6 48
h273z" />
    <glyph glyph-name="emacron" unicode="&#x113;" horiz-adv-x="533" 
d="M313 497q70 0 111.5 -16t57.5 -49.5t4 -88.5q-8 -44 -28.5 -70t-56 -39t-90.5 -18l-239 -24l6 49l232 24q37 4 59.5 12t35.5 25t19 47q9 43 -3.5 63t-41.5 25.5t-71 5.5q-45 0 -76.5 -7.5t-53.5 -27.5t-36 -58.5t-24 -100.5q-12 -85 -1.5 -129.5t45 -61t92.5 -16.5
q28 0 60 2t62.5 5t55.5 6l5 -43q-22 -8 -57.5 -13.5t-72.5 -8t-65 -2.5q-82 0 -128 27.5t-60 85.5t-1 150q11 74 30 122t50 75t75 38t105 11zM468 660l-6 -48h-273l6 48h273z" />
    <glyph glyph-name="Ebreve" unicode="&#x114;" 
d="M260 691h100.5t100 -1.5t96.5 -4.5l-9 -51h-279q-37 0 -56 -18t-24 -55l-60 -435q-5 -34 10 -52t50 -18h277l-1 -51q-46 -3 -94 -4t-96 -1.5t-95 -0.5q-65 0 -95.5 34.5t-22.5 91.5l64 454q7 51 41 81.5t93 30.5zM118 392h356l-7 -51l-357 -1zM500 903l34 -8
q-4 -38 -24.5 -65.5t-54.5 -43t-79 -15.5q-47 0 -79 16t-46 45t-7 66l35 3q-6 -39 20.5 -60t76.5 -21q53 0 86 22.5t38 60.5z" />
    <glyph glyph-name="ebreve" unicode="&#x115;" horiz-adv-x="533" 
d="M313 497q70 0 111.5 -16t57.5 -49.5t4 -88.5q-8 -44 -28.5 -70t-56 -39t-90.5 -18l-239 -24l6 49l232 24q37 4 59.5 12t35.5 25t19 47q9 43 -3.5 63t-41.5 25.5t-71 5.5q-45 0 -76.5 -7.5t-53.5 -27.5t-36 -58.5t-24 -100.5q-12 -85 -1.5 -129.5t45 -61t92.5 -16.5
q28 0 60 2t62.5 5t55.5 6l5 -43q-22 -8 -57.5 -13.5t-72.5 -8t-65 -2.5q-82 0 -128 27.5t-60 85.5t-1 150q11 74 30 122t50 75t75 38t105 11zM446 701l34 -8q-4 -38 -24.5 -65.5t-54.5 -43t-79 -15.5q-47 0 -79 16t-46 45t-7 66l35 3q-6 -39 20.5 -60t76.5 -21q53 0 86 22.5
t38 60.5z" />
    <glyph glyph-name="Edotaccent" unicode="&#x116;" 
d="M260 691h100.5t100 -1.5t96.5 -4.5l-9 -51h-279q-37 0 -56 -18t-24 -55l-60 -435q-5 -34 10 -52t50 -18h277l-1 -51q-46 -3 -94 -4t-96 -1.5t-95 -0.5q-65 0 -95.5 34.5t-22.5 91.5l64 454q7 51 41 81.5t93 30.5zM118 392h356l-7 -51l-357 -1zM398 886q10 0 15 -5.5
t4 -16.5l-8 -58q-3 -20 -23 -20h-20q-11 0 -16 6t-4 16l8 58q1 11 6 15.5t16 4.5h22z" />
    <glyph glyph-name="edotaccent" unicode="&#x117;" horiz-adv-x="533" 
d="M313 497q70 0 111.5 -16t57.5 -49.5t4 -88.5q-8 -44 -28.5 -70t-56 -39t-90.5 -18l-239 -24l6 49l232 24q37 4 59.5 12t35.5 25t19 47q9 43 -3.5 63t-41.5 25.5t-71 5.5q-45 0 -76.5 -7.5t-53.5 -27.5t-36 -58.5t-24 -100.5q-12 -85 -1.5 -129.5t45 -61t92.5 -16.5
q28 0 60 2t62.5 5t55.5 6l5 -43q-22 -8 -57.5 -13.5t-72.5 -8t-65 -2.5q-82 0 -128 27.5t-60 85.5t-1 150q11 74 30 122t50 75t75 38t105 11zM344 684q10 0 15 -5.5t4 -16.5l-8 -58q-3 -20 -23 -20h-20q-11 0 -16 6t-4 16l8 58q1 11 6 15.5t16 4.5h22z" />
    <glyph glyph-name="Eogonek" unicode="&#x118;" 
d="M260 691h100.5t100 -1.5t96.5 -4.5l-9 -51h-279q-37 0 -56 -18t-24 -55l-60 -435q-5 -34 10 -52t50 -18h277l-1 -51q-46 -3 -94 -4t-96 -1.5t-95 -0.5q-65 0 -95.5 34.5t-22.5 91.5l64 454q7 51 41 81.5t93 30.5zM118 392h356l-7 -51l-357 -1zM432 8l32 -3
q-27 -26 -50.5 -55.5t-43.5 -65.5q-20 -39 0.5 -50.5t73.5 5.5l8 -28q-47 -19 -78 -19.5t-47 13t-16.5 35.5t11.5 48q13 25 38.5 55t71.5 65z" />
    <glyph glyph-name="eogonek" unicode="&#x119;" horiz-adv-x="533" 
d="M313 497q70 0 111.5 -16t57.5 -49.5t4 -88.5q-8 -44 -28.5 -70t-56 -39t-90.5 -18l-239 -24l6 49l232 24q37 4 59.5 12t35.5 25t19 47q9 43 -3.5 63t-41.5 25.5t-71 5.5q-45 0 -76.5 -7.5t-53.5 -27.5t-36 -58.5t-24 -100.5q-12 -85 -1.5 -129.5t45 -61t92.5 -16.5
q28 0 60 2t62.5 5t55.5 6l5 -43q-22 -8 -57.5 -13.5t-72.5 -8t-65 -2.5q-82 0 -128 27.5t-60 85.5t-1 150q11 74 30 122t50 75t75 38t105 11zM402 16l32 -3q-27 -26 -50.5 -55.5t-43.5 -65.5q-20 -39 0.5 -50.5t73.5 5.5l8 -28q-47 -19 -78 -19.5t-47 13t-16.5 35.5t11.5 48
q13 25 38.5 55t71.5 65z" />
    <glyph glyph-name="Ecaron" unicode="&#x11a;" 
d="M260 691h100.5t100 -1.5t96.5 -4.5l-9 -51h-279q-37 0 -56 -18t-24 -55l-60 -435q-5 -34 10 -52t50 -18h277l-1 -51q-46 -3 -94 -4t-96 -1.5t-95 -0.5q-65 0 -95.5 34.5t-22.5 91.5l64 454q7 51 41 81.5t93 30.5zM118 392h356l-7 -51l-357 -1zM526 920l21 -28l-151 -124
h-47l-118 128l27 24l114 -100h8z" />
    <glyph glyph-name="ecaron" unicode="&#x11b;" horiz-adv-x="533" 
d="M313 497q70 0 111.5 -16t57.5 -49.5t4 -88.5q-8 -44 -28.5 -70t-56 -39t-90.5 -18l-239 -24l6 49l232 24q37 4 59.5 12t35.5 25t19 47q9 43 -3.5 63t-41.5 25.5t-71 5.5q-45 0 -76.5 -7.5t-53.5 -27.5t-36 -58.5t-24 -100.5q-12 -85 -1.5 -129.5t45 -61t92.5 -16.5
q28 0 60 2t62.5 5t55.5 6l5 -43q-22 -8 -57.5 -13.5t-72.5 -8t-65 -2.5q-82 0 -128 27.5t-60 85.5t-1 150q11 74 30 122t50 75t75 38t105 11zM473 717l21 -28l-151 -124h-47l-118 128l27 24l114 -100h8z" />
    <glyph glyph-name="Gcircumflex" unicode="&#x11c;" horiz-adv-x="623" 
d="M393 703q38 0 71.5 -2t64.5 -6.5t60 -12.5l-10 -48q-31 4 -61 6t-59 3t-59 1q-63 0 -107 -14t-73.5 -47.5t-48 -92t-30.5 -148.5q-12 -108 -4.5 -173.5t38.5 -94t91 -28.5q40 0 74.5 14.5t67 40.5t66.5 59l7 -45q-25 -30 -51.5 -53.5t-55.5 -40t-61 -25.5t-66 -9
q-76 0 -119.5 37.5t-56.5 117t2 206.5q14 104 39 173t64 108.5t92.5 56.5t124.5 17zM567 400l-57 -400h-47l5 112l-2 17l37 271h64zM435 891l123 -128l-25 -25l-118 101h-8l-148 -101l-20 29l150 124h46z" />
    <glyph glyph-name="gcircumflex" unicode="&#x11d;" horiz-adv-x="573" 
d="M455 477h64l-71 -473q-6 -49 -24.5 -88t-50 -67.5t-76.5 -44t-105 -18.5q-16 -1 -47 -1t-65.5 3t-62.5 9l7 43q24 -1 49 -1.5t54 -0.5t63 2q77 5 128.5 40t65.5 113q8 43 15.5 76t20.5 56l-17 9zM298 497q35 0 72 -2.5t74.5 -7t70.5 -10.5l-28 -40q-55 2 -96 4t-72 2
q-53 0 -87 -7.5t-54.5 -28.5t-33 -61.5t-22.5 -104.5q-11 -75 -9.5 -118t20.5 -61t58 -18q35 0 73 16t78.5 46.5t81.5 75.5l14 -33q-32 -47 -74.5 -83t-90 -57t-95.5 -21q-55 0 -86.5 25t-39.5 81.5t6 152.5q12 80 31 129t47 75.5t68 36t94 9.5zM378 710l123 -128l-25 -25
l-118 101h-8l-148 -101l-20 29l150 124h46z" />
    <glyph glyph-name="Gbreve" unicode="&#x11e;" horiz-adv-x="623" 
d="M393 703q38 0 71.5 -2t64.5 -6.5t60 -12.5l-10 -48q-31 4 -61 6t-59 3t-59 1q-63 0 -107 -14t-73.5 -47.5t-48 -92t-30.5 -148.5q-12 -108 -4.5 -173.5t38.5 -94t91 -28.5q40 0 74.5 14.5t67 40.5t66.5 59l7 -45q-25 -30 -51.5 -53.5t-55.5 -40t-61 -25.5t-66 -9
q-76 0 -119.5 37.5t-56.5 117t2 206.5q14 104 39 173t64 108.5t92.5 56.5t124.5 17zM567 400l-57 -400h-47l5 112l-2 17l37 271h64zM522 881l34 -8q-4 -38 -24.5 -65.5t-54.5 -43t-79 -15.5q-47 0 -79 16t-46 45t-7 66l35 3q-6 -39 20.5 -60t76.5 -21q53 0 86 22.5t38 60.5z
" />
    <glyph glyph-name="gbreve" unicode="&#x11f;" horiz-adv-x="573" 
d="M455 477h64l-71 -473q-6 -49 -24.5 -88t-50 -67.5t-76.5 -44t-105 -18.5q-16 -1 -47 -1t-65.5 3t-62.5 9l7 43q24 -1 49 -1.5t54 -0.5t63 2q77 5 128.5 40t65.5 113q8 43 15.5 76t20.5 56l-17 9zM298 497q35 0 72 -2.5t74.5 -7t70.5 -10.5l-28 -40q-55 2 -96 4t-72 2
q-53 0 -87 -7.5t-54.5 -28.5t-33 -61.5t-22.5 -104.5q-11 -75 -9.5 -118t20.5 -61t58 -18q35 0 73 16t78.5 46.5t81.5 75.5l14 -33q-32 -47 -74.5 -83t-90 -57t-95.5 -21q-55 0 -86.5 25t-39.5 81.5t6 152.5q12 80 31 129t47 75.5t68 36t94 9.5zM465 701l34 -8
q-4 -38 -24.5 -65.5t-54.5 -43t-79 -15.5q-47 0 -79 16t-46 45t-7 66l35 3q-6 -39 20.5 -60t76.5 -21q53 0 86 22.5t38 60.5z" />
    <glyph glyph-name="Gdotaccent" unicode="&#x120;" horiz-adv-x="623" 
d="M393 703q38 0 71.5 -2t64.5 -6.5t60 -12.5l-10 -48q-31 4 -61 6t-59 3t-59 1q-63 0 -107 -14t-73.5 -47.5t-48 -92t-30.5 -148.5q-12 -108 -4.5 -173.5t38.5 -94t91 -28.5q40 0 74.5 14.5t67 40.5t66.5 59l7 -45q-25 -30 -51.5 -53.5t-55.5 -40t-61 -25.5t-66 -9
q-76 0 -119.5 37.5t-56.5 117t2 206.5q14 104 39 173t64 108.5t92.5 56.5t124.5 17zM567 400l-57 -400h-47l5 112l-2 17l37 271h64zM421 865q10 0 15 -5.5t4 -16.5l-8 -58q-3 -20 -23 -20h-20q-11 0 -16 6t-4 16l8 58q1 11 6 15.5t16 4.5h22z" />
    <glyph glyph-name="gdotaccent" unicode="&#x121;" horiz-adv-x="573" 
d="M455 477h64l-71 -473q-6 -49 -24.5 -88t-50 -67.5t-76.5 -44t-105 -18.5q-16 -1 -47 -1t-65.5 3t-62.5 9l7 43q24 -1 49 -1.5t54 -0.5t63 2q77 5 128.5 40t65.5 113q8 43 15.5 76t20.5 56l-17 9zM298 497q35 0 72 -2.5t74.5 -7t70.5 -10.5l-28 -40q-55 2 -96 4t-72 2
q-53 0 -87 -7.5t-54.5 -28.5t-33 -61.5t-22.5 -104.5q-11 -75 -9.5 -118t20.5 -61t58 -18q35 0 73 16t78.5 46.5t81.5 75.5l14 -33q-32 -47 -74.5 -83t-90 -57t-95.5 -21q-55 0 -86.5 25t-39.5 81.5t6 152.5q12 80 31 129t47 75.5t68 36t94 9.5zM363 684q10 0 15 -5.5
t4 -16.5l-8 -58q-3 -20 -23 -20h-20q-11 0 -16 6t-4 16l8 58q1 11 6 15.5t16 4.5h22z" />
    <glyph glyph-name="uni0122" unicode="&#x122;" horiz-adv-x="623" 
d="M292 -61q11 0 15.5 -5t2.5 -17l-8 -57q-3 -19 -9.5 -40.5t-16 -43.5t-19.5 -41l-30 10q9 26 15.5 48.5t12.5 54.5q-10 -2 -14 3.5t-3 14.5l7 53q3 11 8 15.5t20 4.5h19zM393 703q38 0 71.5 -2t64.5 -6.5t60 -12.5l-10 -48q-31 4 -61 6t-59 3t-59 1q-63 0 -107 -14
t-73.5 -47.5t-48 -92t-30.5 -148.5q-12 -108 -4.5 -173.5t38.5 -94t91 -28.5q40 0 74.5 14.5t67 40.5t66.5 59l7 -45q-25 -30 -51.5 -53.5t-55.5 -40t-61 -25.5t-66 -9q-76 0 -119.5 37.5t-56.5 117t2 206.5q14 104 39 173t64 108.5t92.5 56.5t124.5 17zM567 400l-57 -400
h-47l5 112l-2 17l37 271h64z" />
    <glyph glyph-name="uni0123" unicode="&#x123;" horiz-adv-x="573" 
d="M316 561q-11 0 -15.5 5t-2.5 16l9 57q3 19 9.5 41t15.5 44t20 40l29 -9q-9 -27 -15.5 -49t-11.5 -54q9 1 13.5 -4t3.5 -14l-8 -53q-2 -12 -7.5 -16t-19.5 -4h-20zM455 477h64l-71 -473q-6 -49 -24.5 -88t-50 -67.5t-76.5 -44t-105 -18.5q-16 -1 -47 -1t-65.5 3t-62.5 9
l7 43q24 -1 49 -1.5t54 -0.5t63 2q77 5 128.5 40t65.5 113q8 43 15.5 76t20.5 56l-17 9zM298 497q35 0 72 -2.5t74.5 -7t70.5 -10.5l-28 -40q-55 2 -96 4t-72 2q-53 0 -87 -7.5t-54.5 -28.5t-33 -61.5t-22.5 -104.5q-11 -75 -9.5 -118t20.5 -61t58 -18q35 0 73 16t78.5 46.5
t81.5 75.5l14 -33q-32 -47 -74.5 -83t-90 -57t-95.5 -21q-55 0 -86.5 25t-39.5 81.5t6 152.5q12 80 31 129t47 75.5t68 36t94 9.5z" />
    <glyph glyph-name="Hcircumflex" unicode="&#x124;" horiz-adv-x="663" 
d="M214 690l-97 -690h-66l97 690h66zM531 397l-7 -57h-367l8 57h366zM627 690l-97 -690h-65l97 690h65zM429 891l123 -128l-25 -25l-118 101h-8l-148 -101l-20 29l150 124h46z" />
    <glyph glyph-name="hcircumflex" unicode="&#x125;" horiz-adv-x="574" 
d="M391 497q62 0 92.5 -34t21.5 -100l-52 -363h-63l50 349q6 52 -9.5 72.5t-57.5 20.5q-50 0 -103 -31.5t-126 -90.5l1 50q70 61 130 94t116 33zM203 700l-28 -203q-4 -36 -12 -74t-15 -63l5 -15l-49 -345h-63l99 700h63zM216 874l123 -128l-25 -25l-118 101h-8l-148 -101
l-20 29l150 124h46z" />
    <glyph glyph-name="Hbar" unicode="&#x126;" horiz-adv-x="663" 
d="M684 559l-5 -38h-626l5 38h626zM214 690l-97 -690h-66l97 690h66zM531 397l-7 -57h-367l8 57h366zM627 690l-97 -690h-65l97 690h65z" />
    <glyph glyph-name="hbar" unicode="&#x127;" horiz-adv-x="574" 
d="M349 619l-6 -38h-295l6 38h295zM391 497q62 0 92.5 -34t21.5 -100l-52 -363h-63l50 349q6 52 -9.5 72.5t-57.5 20.5q-50 0 -103 -31.5t-126 -90.5l1 50q70 61 130 94t116 33zM203 700l-28 -203q-4 -36 -12 -74t-15 -63l5 -15l-49 -345h-63l99 700h63z" />
    <glyph glyph-name="Itilde" unicode="&#x128;" horiz-adv-x="250" 
d="M214 690l-97 -690h-66l97 690h66zM127 875q24 -2 40.5 -10.5t31 -19t29.5 -19.5t36 -11q31 -3 45.5 11.5t18.5 44.5l31 -2q-2 -52 -26.5 -78.5t-60.5 -23.5q-26 2 -44 11t-33 19.5t-29 19.5t-32 11q-30 3 -44.5 -12.5t-18.5 -47.5l-32 3q3 55 28.5 81t59.5 23z" />
    <glyph glyph-name="itilde" unicode="&#x129;" horiz-adv-x="236" 
d="M177 485l-69 -485h-63l69 485h63zM95 695q24 -2 40.5 -10.5t31 -19t29.5 -19.5t36 -11q31 -3 45.5 11.5t18.5 44.5l31 -2q-2 -52 -26.5 -78.5t-60.5 -23.5q-26 2 -44 11t-33 19.5t-29 19.5t-32 11q-30 3 -44.5 -12.5t-18.5 -47.5l-32 3q3 55 28.5 81t59.5 23z" />
    <glyph glyph-name="Imacron" unicode="&#x12a;" horiz-adv-x="250" 
d="M214 690l-97 -690h-66l97 690h66zM338 841l-6 -48h-273l6 48h273z" />
    <glyph glyph-name="imacron" unicode="&#x12b;" horiz-adv-x="236" 
d="M177 485l-69 -485h-63l69 485h63zM306 660l-6 -48h-273l6 48h273z" />
    <glyph glyph-name="Ibreve" unicode="&#x12c;" horiz-adv-x="250" 
d="M214 690l-97 -690h-66l97 690h66zM317 881l34 -8q-4 -38 -24.5 -65.5t-54.5 -43t-79 -15.5q-47 0 -79 16t-46 45t-7 66l35 3q-6 -39 20.5 -60t76.5 -21q53 0 86 22.5t38 60.5z" />
    <glyph glyph-name="ibreve" unicode="&#x12d;" horiz-adv-x="236" 
d="M177 485l-69 -485h-63l69 485h63zM285 701l34 -8q-4 -38 -24.5 -65.5t-54.5 -43t-79 -15.5q-47 0 -79 16t-46 45t-7 66l35 3q-6 -39 20.5 -60t76.5 -21q53 0 86 22.5t38 60.5z" />
    <glyph glyph-name="Iogonek" unicode="&#x12e;" horiz-adv-x="250" 
d="M214 690l-97 -690h-66l97 690h66zM78 3l32 -3q-27 -26 -50.5 -55.5t-43.5 -65.5q-20 -39 0.5 -50.5t73.5 5.5l8 -28q-47 -19 -78 -19.5t-47 13t-16.5 35.5t11.5 48q13 25 38.5 55t71.5 65z" />
    <glyph glyph-name="iogonek" unicode="&#x12f;" horiz-adv-x="236" 
d="M177 485l-69 -485h-63l69 485h63zM183 684q10 0 15 -5.5t4 -16.5l-8 -58q-3 -20 -23 -20h-20q-11 0 -16 6t-4 16l8 58q1 11 6 15.5t16 4.5h22zM72 3l32 -3q-27 -26 -50.5 -55.5t-43.5 -65.5q-20 -39 0.5 -50.5t73.5 5.5l8 -28q-47 -19 -78 -19.5t-47 13t-16.5 35.5
t11.5 48q13 25 38.5 55t71.5 65z" />
    <glyph glyph-name="Idotaccent" unicode="&#x130;" horiz-adv-x="250" 
d="M214 690l-97 -690h-66l97 690h66zM215 865q10 0 15 -5.5t4 -16.5l-8 -58q-3 -20 -23 -20h-20q-11 0 -16 6t-4 16l8 58q1 11 6 15.5t16 4.5h22z" />
    <glyph glyph-name="dotlessi" unicode="&#x131;" horiz-adv-x="236" 
d="M177 485l-69 -485h-63l69 485h63z" />
    <glyph glyph-name="IJ" unicode="&#x132;" horiz-adv-x="583" 
d="M214 690l-97 -690h-66l97 690h66zM550 690l-79 -557q-9 -70 -46 -105.5t-99 -35.5q-12 0 -27.5 1.5t-30.5 4t-25 5.5l13 45h50q44 0 69.5 22t31.5 64l77 556h66z" />
    <glyph glyph-name="ij" unicode="&#x133;" horiz-adv-x="472" 
d="M176 485l-68 -485h-62l68 485h62zM187 689q11 0 16 -6.5t3 -16.5l-8 -59q-3 -19 -22 -19h-29q-23 0 -20 23l8 58q3 20 22 20h30zM412 485l-71 -511q-5 -36 -19.5 -69.5t-37 -61t-50.5 -49.5l-34 29q33 34 52 70.5t26 84.5l72 507h62zM423 689q11 0 16 -6.5t3 -16.5
l-8 -59q-3 -19 -22 -19h-29q-23 0 -20 23l8 58q3 20 22 20h30z" />
    <glyph glyph-name="Jcircumflex" unicode="&#x134;" horiz-adv-x="333" 
d="M300 690l-79 -557q-9 -70 -46 -105.5t-99 -35.5q-12 0 -27.5 1.5t-30.5 4t-25 5.5l13 45h50q44 0 69.5 22t31.5 64l77 556h66zM310 891l123 -128l-25 -25l-118 101h-8l-148 -101l-20 29l150 124h46z" />
    <glyph glyph-name="jcircumflex" unicode="&#x135;" horiz-adv-x="236" 
d="M176 485l-71 -511q-5 -36 -19.5 -69.5t-37 -61t-50.5 -49.5l-34 29q33 34 52 70.5t26 84.5l72 507h62zM192 710l123 -128l-25 -25l-118 101h-8l-148 -101l-20 29l150 124h46z" />
    <glyph glyph-name="uni0136" unicode="&#x136;" horiz-adv-x="581" 
d="M281 -61q11 0 15.5 -5t2.5 -17l-9 -57q-3 -19 -9.5 -40.5t-15.5 -43.5t-20 -41l-29 10q9 26 15.5 48.5t11.5 54.5q-9 -2 -13.5 3.5t-3.5 14.5l8 53q2 11 7.5 15.5t19.5 4.5h20zM600 690l-249 -290q-9 -10 -19 -20t-23 -20v-3q7 -9 14.5 -20t13.5 -22l181 -315h-75
l-206 362l283 328h80zM213 690l-31 -224q-4 -29 -9.5 -54t-14.5 -54q1 -27 -1 -53t-6 -51l-35 -254h-65l97 690h65zM282 386l-7 -53h-137l7 53h137z" />
    <glyph glyph-name="uni0137" unicode="&#x137;" horiz-adv-x="509" 
d="M244 -61q11 0 15 -5t2 -17l-8 -57q-3 -19 -9.5 -40.5t-16 -43.5t-19.5 -41l-29 10q9 26 15.5 48.5t11.5 54.5q-9 -2 -13.5 3.5t-3.5 14.5l8 53q2 11 7 15.5t20 4.5h20zM203 700l-48 -356q-4 -32 -10.5 -58t-17.5 -57q2 -7 4 -13.5t3 -12.5l-30 -203h-62l98 700h63z
M484 485q-26 -73 -68.5 -124t-94 -85.5t-105.5 -58t-101 -41.5l-4 54q74 26 136 63.5t107 85.5t65 106h65zM303 279q9 -15 18 -31.5t17 -33.5l100 -214h-68l-118 259z" />
    <glyph glyph-name="kgreenlandic" unicode="&#x138;" horiz-adv-x="509" 
d="M174 485l-19 -146q-4 -30 -11 -56.5t-18 -58.5q3 -6 4.5 -12.5t3.5 -13.5l-30 -198h-62l68 485h64zM486 485q-26 -73 -69 -124.5t-95 -87t-106 -59t-101 -42.5l-4 53q73 26 135.5 64.5t108 87.5t66.5 108h65zM302 276q10 -16 19 -33t16 -33l99 -210h-68l-116 254z" />
    <glyph glyph-name="Lacute" unicode="&#x139;" horiz-adv-x="506" 
d="M211 690l-78 -564q-5 -32 9.5 -51t50.5 -19h258l-2 -51q-67 -4 -135.5 -5t-135.5 -1q-37 0 -64.5 15.5t-39.5 44.5t-6 69l77 562h66zM312 908l32 -49l-194 -128l-22 30z" />
    <glyph glyph-name="lacute" unicode="&#x13a;" horiz-adv-x="283" 
d="M204 700l-81 -581q-6 -36 9 -52.5t50 -16.5h53l2 -48q-8 -3 -23 -5.5t-30.5 -3.5t-25.5 -1q-53 0 -80.5 30.5t-19.5 87.5l83 590h63zM310 930l32 -49l-194 -128l-22 30z" />
    <glyph glyph-name="uni013B" unicode="&#x13b;" horiz-adv-x="506" 
d="M268 -66q11 0 15.5 -5t2.5 -17l-8 -56q-3 -20 -9.5 -41.5t-16 -43.5t-19.5 -41l-30 10q9 27 15.5 49t12.5 54q-10 -1 -14 4t-3 14l7 53q3 12 8 16t20 4h19zM211 690l-78 -564q-5 -32 9.5 -51t50.5 -19h258l-2 -51q-67 -4 -135.5 -5t-135.5 -1q-37 0 -64.5 15.5
t-39.5 44.5t-6 69l77 562h66z" />
    <glyph glyph-name="uni013C" unicode="&#x13c;" horiz-adv-x="283" 
d="M140 -66q12 0 16 -5t2 -17l-8 -56q-3 -20 -9.5 -41.5t-16 -43.5t-19.5 -41l-29 10q9 27 15.5 49t11.5 54q-9 -1 -13.5 4t-3.5 14l8 53q2 12 7 16t20 4h19zM204 700l-81 -581q-6 -36 9 -52.5t50 -16.5h53l2 -48q-8 -3 -23 -5.5t-30.5 -3.5t-25.5 -1q-53 0 -80.5 30.5
t-19.5 87.5l83 590h63z" />
    <glyph glyph-name="Lcaron" unicode="&#x13d;" horiz-adv-x="506" 
d="M211 690l-78 -564q-5 -32 9.5 -51t50.5 -19h258l-2 -51q-67 -4 -135.5 -5t-135.5 -1q-37 0 -64.5 15.5t-39.5 44.5t-6 69l77 562h66zM385 689q11 0 15 -5t2 -17l-8 -58q-3 -27 -16.5 -62.5t-27.5 -61.5l-28 9q9 24 17 49t12 54q-8 -1 -12.5 4.5t-3.5 13.5l8 54
q2 11 7 15.5t18 4.5h17z" />
    <glyph glyph-name="lcaron" unicode="&#x13e;" horiz-adv-x="283" 
d="M326 700q11 0 15 -5t2 -17l-8 -56q-3 -20 -9.5 -41.5t-16 -43.5t-19.5 -41l-29 10q9 27 15.5 49t11.5 54q-9 -1 -13.5 4t-3.5 14l8 53q2 11 7 15.5t20 4.5h20zM204 700l-81 -581q-6 -36 9 -52.5t50 -16.5h53l2 -48q-8 -3 -23 -5.5t-30.5 -3.5t-25.5 -1q-53 0 -80.5 30.5
t-19.5 87.5l83 590h63z" />
    <glyph glyph-name="Ldot" unicode="&#x13f;" horiz-adv-x="506" 
d="M349 347q-10 0 -15.5 5.5t-3.5 16.5l8 57q2 21 22 21h21q10 0 15.5 -6t3.5 -16l-7 -58q-1 -11 -6 -15.5t-16 -4.5h-22zM211 690l-78 -564q-5 -32 9.5 -51t50.5 -19h258l-2 -51q-67 -4 -135.5 -5t-135.5 -1q-37 0 -64.5 15.5t-39.5 44.5t-6 69l77 562h66z" />
    <glyph glyph-name="ldot" unicode="&#x140;" horiz-adv-x="318" 
d="M280 323q-9 0 -14.5 5.5t-4.5 16.5l8 58q3 20 23 20h20q11 0 16 -6t4 -16l-8 -58q-1 -11 -6 -15.5t-16 -4.5h-22zM204 700l-81 -581q-6 -36 9 -52.5t50 -16.5h53l2 -48q-8 -3 -23 -5.5t-30.5 -3.5t-25.5 -1q-53 0 -80.5 30.5t-19.5 87.5l83 590h63z" />
    <glyph glyph-name="Lslash" unicode="&#x141;" horiz-adv-x="506" 
d="M304 463l-5 -41l-274 -111l4 42zM211 690l-79 -564q-4 -32 10.5 -51t49.5 -19h258l-2 -51q-66 -4 -135 -5t-135 -1q-38 0 -65.5 15.5t-39.5 44.5t-6 69l77 562h67z" />
    <glyph glyph-name="lslash" unicode="&#x142;" horiz-adv-x="295" 
d="M302 463l-5 -41l-274 -111l5 42zM204 700l-81 -581q-6 -36 9 -52.5t50 -16.5h53l2 -48q-8 -3 -23 -5.5t-30.5 -3.5t-25.5 -1q-53 0 -80.5 30.5t-19.5 87.5l83 590h63z" />
    <glyph glyph-name="Nacute" unicode="&#x143;" horiz-adv-x="698" 
d="M662 690l-94 -664q-2 -13 -8.5 -19.5t-19.5 -6.5h-66q-12 0 -19 6t-11 18l-196 524q-7 18 -14 40t-13 41h-20q-2 -21 -4 -42.5t-5 -43.5l-75 -543h-66l93 664q3 14 10 20t20 6h63q12 0 19 -6t11 -18l191 -511q8 -21 16.5 -45.5t15.5 -47.5h22q3 24 5 47.5t6 47.5l74 533
h65zM546 908l32 -49l-194 -128l-22 30z" />
    <glyph glyph-name="nacute" unicode="&#x144;" horiz-adv-x="574" 
d="M391 497q41 0 68.5 -15t39.5 -45t6 -74l-52 -363h-63l50 349q6 52 -9.5 72.5t-57.5 20.5q-50 0 -103 -31.5t-126 -88.5l1 48q70 61 130 94t116 33zM160 485l-11 -124l3 -16l-48 -345h-63l69 485h50zM449 728l32 -49l-194 -128l-22 30z" />
    <glyph glyph-name="uni0145" unicode="&#x145;" horiz-adv-x="698" 
d="M325 -61q11 0 15.5 -5t2.5 -17l-9 -57q-3 -19 -9.5 -40.5t-15.5 -43.5t-20 -41l-29 10q9 26 15.5 48.5t11.5 54.5q-9 -2 -13.5 3.5t-3.5 14.5l8 53q2 11 7.5 15.5t19.5 4.5h20zM662 690l-94 -664q-2 -13 -8.5 -19.5t-19.5 -6.5h-66q-12 0 -19 6t-11 18l-196 524
q-7 18 -14 40t-13 41h-20q-2 -21 -4 -42.5t-5 -43.5l-75 -543h-66l93 664q3 14 10 20t20 6h63q12 0 19 -6t11 -18l191 -511q8 -21 16.5 -45.5t15.5 -47.5h22q3 24 5 47.5t6 47.5l74 533h65z" />
    <glyph glyph-name="uni0146" unicode="&#x146;" horiz-adv-x="574" 
d="M260 -61q11 0 15.5 -5t2.5 -17l-8 -57q-3 -19 -10 -40.5t-16 -43.5t-19 -41l-30 10q9 26 15.5 48.5t12.5 54.5q-10 -2 -14.5 3.5t-3.5 14.5l8 53q3 11 8 15.5t20 4.5h19zM391 497q41 0 68.5 -15t39.5 -45t6 -74l-52 -363h-63l50 349q6 52 -9.5 72.5t-57.5 20.5
q-50 0 -103 -31.5t-126 -88.5l1 48q70 61 130 94t116 33zM160 485l-11 -124l3 -16l-48 -345h-63l69 485h50z" />
    <glyph glyph-name="Ncaron" unicode="&#x147;" horiz-adv-x="698" 
d="M662 690l-94 -664q-2 -13 -8.5 -19.5t-19.5 -6.5h-66q-12 0 -19 6t-11 18l-196 524q-7 18 -14 40t-13 41h-20q-2 -21 -4 -42.5t-5 -43.5l-75 -543h-66l93 664q3 14 10 20t20 6h63q12 0 19 -6t11 -18l191 -511q8 -21 16.5 -45.5t15.5 -47.5h22q3 24 5 47.5t6 47.5l74 533
h65zM575 898l21 -28l-151 -124h-47l-118 128l27 24l114 -100h8z" />
    <glyph glyph-name="ncaron" unicode="&#x148;" horiz-adv-x="574" 
d="M391 497q41 0 68.5 -15t39.5 -45t6 -74l-52 -363h-63l50 349q6 52 -9.5 72.5t-57.5 20.5q-50 0 -103 -31.5t-126 -88.5l1 48q70 61 130 94t116 33zM160 485l-11 -124l3 -16l-48 -345h-63l69 485h50zM479 717l21 -28l-151 -124h-47l-118 128l27 24l114 -100h8z" />
    <glyph glyph-name="Eng" unicode="&#x14a;" horiz-adv-x="698" 
d="M662 690l-110 -778q-9 -65 -46.5 -98t-97.5 -32q-18 0 -41.5 3t-39.5 7l11 42h51q45 0 70.5 21.5t31.5 63.5l11 82l-28 -1q-8 -1 -13 6t-9 16l-204 516q-7 18 -14 39.5t-13 43.5h-19q-2 -21 -4.5 -42t-5.5 -42l-75 -537h-66l93 664q3 14 10 20t20 6h57q12 0 19 -6t11 -18
l196 -502q8 -20 17 -44.5t17 -48.5h21q2 24 4.5 48.5t5.5 47.5l74 523h66z" />
    <glyph glyph-name="eng" unicode="&#x14b;" horiz-adv-x="574" 
d="M389 497q65 0 95 -34.5t21 -99.5l-60 -431q-10 -69 -43.5 -104t-93.5 -35q-10 0 -22.5 1.5t-25.5 3.5t-26 6l11 40h43q39 0 62.5 20.5t30.5 66.5l59 418q6 47 -9.5 68t-59.5 21q-35 0 -71 -15.5t-74 -42t-82 -59.5l-3 45q68 60 128 95.5t120 35.5zM158 485l-9 -122l4 -21
l-49 -342h-63l69 485h48z" />
    <glyph glyph-name="Omacron" unicode="&#x14c;" horiz-adv-x="664" 
d="M387 703q95 0 149.5 -35t71 -114t-2.5 -212q-13 -99 -36.5 -167.5t-59.5 -109.5t-89 -59.5t-125 -18.5q-95 0 -150.5 34.5t-72.5 113.5t1 213q14 98 37 165.5t59.5 109.5t90 61t127.5 19zM383 644q-76 0 -123.5 -28t-74.5 -94t-43 -180q-16 -111 -7 -175.5t48 -92.5
t112 -28q76 0 123 28.5t75.5 94.5t43.5 179q17 113 8 177.5t-48 91.5t-114 27zM540 841l-6 -48h-273l6 48h273z" />
    <glyph glyph-name="omacron" unicode="&#x14d;" horiz-adv-x="562" 
d="M306 497q81 0 127 -25.5t61 -82t2 -150.5q-13 -92 -42 -147.5t-80 -80t-131 -24.5t-127 25.5t-62.5 82t-2.5 150.5q13 92 42 147t80.5 80t132.5 25zM306 442q-59 0 -96.5 -18t-59 -62t-32.5 -123q-11 -75 -3 -118t39 -61t89 -18q59 0 96.5 18.5t59 63t32.5 121.5
q11 76 3 118.5t-39 60.5t-89 18zM468 660l-6 -48h-273l6 48h273z" />
    <glyph glyph-name="Obreve" unicode="&#x14e;" horiz-adv-x="664" 
d="M387 703q95 0 149.5 -35t71 -114t-2.5 -212q-13 -99 -36.5 -167.5t-59.5 -109.5t-89 -59.5t-125 -18.5q-95 0 -150.5 34.5t-72.5 113.5t1 213q14 98 37 165.5t59.5 109.5t90 61t127.5 19zM383 644q-76 0 -123.5 -28t-74.5 -94t-43 -180q-16 -111 -7 -175.5t48 -92.5
t112 -28q76 0 123 28.5t75.5 94.5t43.5 179q17 113 8 177.5t-48 91.5t-114 27zM519 881l34 -8q-4 -38 -24.5 -65.5t-54.5 -43t-79 -15.5q-47 0 -79 16t-46 45t-7 66l35 3q-6 -39 20.5 -60t76.5 -21q53 0 86 22.5t38 60.5z" />
    <glyph glyph-name="obreve" unicode="&#x14f;" horiz-adv-x="562" 
d="M306 497q81 0 127 -25.5t61 -82t2 -150.5q-13 -92 -42 -147.5t-80 -80t-131 -24.5t-127 25.5t-62.5 82t-2.5 150.5q13 92 42 147t80.5 80t132.5 25zM306 442q-59 0 -96.5 -18t-59 -62t-32.5 -123q-11 -75 -3 -118t39 -61t89 -18q59 0 96.5 18.5t59 63t32.5 121.5
q11 76 3 118.5t-39 60.5t-89 18zM446 701l34 -8q-4 -38 -24.5 -65.5t-54.5 -43t-79 -15.5q-47 0 -79 16t-46 45t-7 66l35 3q-6 -39 20.5 -60t76.5 -21q53 0 86 22.5t38 60.5z" />
    <glyph glyph-name="Ohungarumlaut" unicode="&#x150;" horiz-adv-x="664" 
d="M387 703q95 0 149.5 -35t71 -114t-2.5 -212q-13 -99 -36.5 -167.5t-59.5 -109.5t-89 -59.5t-125 -18.5q-95 0 -150.5 34.5t-72.5 113.5t1 213q14 98 37 165.5t59.5 109.5t90 61t127.5 19zM383 644q-76 0 -123.5 -28t-74.5 -94t-43 -180q-16 -111 -7 -175.5t48 -92.5
t112 -28q76 0 123 28.5t75.5 94.5t43.5 179q17 113 8 177.5t-48 91.5t-114 27zM409 913l41 -30l-150 -156l-28 22zM565 913l41 -30l-150 -156l-28 22z" />
    <glyph glyph-name="ohungarumlaut" unicode="&#x151;" horiz-adv-x="562" 
d="M306 497q81 0 127 -25.5t61 -82t2 -150.5q-13 -92 -42 -147.5t-80 -80t-131 -24.5t-127 25.5t-62.5 82t-2.5 150.5q13 92 42 147t80.5 80t132.5 25zM306 442q-59 0 -96.5 -18t-59 -62t-32.5 -123q-11 -75 -3 -118t39 -61t89 -18q59 0 96.5 18.5t59 63t32.5 121.5
q11 76 3 118.5t-39 60.5t-89 18zM336 733l41 -30l-150 -156l-28 22zM492 733l41 -30l-150 -156l-28 22z" />
    <glyph glyph-name="OE" unicode="&#x152;" horiz-adv-x="907" 
d="M390 703q51 0 88 -8t77 -28l-28 -49q-32 13 -63.5 19.5t-73.5 6.5q-78 0 -127 -28t-77 -93.5t-44 -180.5q-16 -111 -7.5 -175.5t48.5 -92.5t116 -28q35 0 58.5 3.5t44.5 10t47 14.5l20 -48q-29 -13 -54 -22t-52.5 -13t-65.5 -4q-76 0 -126 18.5t-76 60.5t-31 111t9 171
q14 100 37.5 168t60 109t90 59.5t129.5 18.5zM481 393l345 -1l-6 -52h-347zM623 691h97.5t96 -1.5t92.5 -4.5l-8 -51h-269q-34 0 -54.5 -18.5t-25.5 -54.5l-60 -435q-5 -34 10.5 -52t49.5 -18h267l-2 -51q-44 -3 -90 -4t-92 -1.5t-92 -0.5q-42 0 -70.5 16t-40.5 44.5
t-7 65.5l64 454q7 51 43 81.5t91 30.5z" />
    <glyph glyph-name="oe" unicode="&#x153;" horiz-adv-x="910" 
d="M306 497q61 0 101.5 -14t63.5 -44.5t28.5 -80t-4.5 -119.5q-13 -92 -41.5 -147.5t-80 -80t-131.5 -24.5t-126.5 25.5t-62 82t-2.5 150.5q13 92 42 147t80.5 80t132.5 25zM306 442q-59 0 -96.5 -18t-59 -62t-33.5 -123q-10 -75 -2.5 -118t38.5 -61t89 -18q59 0 97 18.5
t59.5 63t31.5 121.5q11 76 3 118.5t-39 60.5t-88 18zM691 497q70 0 112 -16t57 -49.5t5 -88.5q-9 -44 -29.5 -70t-56.5 -39t-91 -18l-239 -24l8 49l232 24q36 4 58.5 12t35.5 25.5t18 46.5q9 44 -3.5 63.5t-41.5 24.5t-72 5q-44 0 -75.5 -7.5t-53 -28t-36 -58.5t-23.5 -99
q-12 -82 -2 -127t44.5 -62t94.5 -17q27 0 58 1.5t62 4.5t55 6l5 -43q-22 -8 -57 -13.5t-72 -8t-65 -2.5q-81 0 -127 27.5t-60 85.5t-1 150q11 74 30 122t49.5 75t75 38t105.5 11z" />
    <glyph glyph-name="Racute" unicode="&#x154;" horiz-adv-x="614" 
d="M377 699q73 0 118.5 -18t64.5 -61.5t8 -121.5q-8 -55 -26.5 -92.5t-49.5 -57.5t-78 -27l-1 -4q18 -5 32 -18.5t23.5 -34t14.5 -47.5l44 -217h-67l-42 218q-8 43 -29.5 60t-56.5 18q-61 1 -105 1.5t-73.5 1t-48.5 1.5l9 53h216q55 1 89.5 14t54 45t27.5 89q8 56 -1 86
t-39 42t-85 12q-82 0 -140 -0.5t-79 -1.5l-9 51q37 4 70 6t71 2.5t88 0.5zM212 690l-97 -690h-64l97 690h64zM501 908l32 -49l-194 -128l-22 30z" />
    <glyph glyph-name="racute" unicode="&#x155;" horiz-adv-x="393" 
d="M158 485l-10 -130l4 -15l-48 -340h-63l69 485h48zM403 497l-17 -60h-21q-48 0 -98.5 -31t-122.5 -87l-2 44q65 64 125 99t113 35h23zM391 728l32 -49l-194 -128l-22 30z" />
    <glyph glyph-name="uni0156" unicode="&#x156;" horiz-adv-x="614" 
d="M306 -61q11 0 15.5 -5t2.5 -17l-9 -57q-3 -19 -9.5 -40.5t-15.5 -43.5t-20 -41l-29 10q9 26 15.5 48.5t11.5 54.5q-9 -2 -13.5 3.5t-3.5 14.5l8 53q2 11 7.5 15.5t19.5 4.5h20zM377 699q73 0 118.5 -18t64.5 -61.5t8 -121.5q-8 -55 -26.5 -92.5t-49.5 -57.5t-78 -27
l-1 -4q18 -5 32 -18.5t23.5 -34t14.5 -47.5l44 -217h-67l-42 218q-8 43 -29.5 60t-56.5 18q-61 1 -105 1.5t-73.5 1t-48.5 1.5l9 53h216q55 1 89.5 14t54 45t27.5 89q8 56 -1 86t-39 42t-85 12q-82 0 -140 -0.5t-79 -1.5l-9 51q37 4 70 6t71 2.5t88 0.5zM212 690l-97 -690
h-64l97 690h64z" />
    <glyph glyph-name="uni0157" unicode="&#x157;" horiz-adv-x="393" 
d="M73 -61q11 0 15.5 -5t2.5 -17l-8 -57q-3 -19 -9.5 -40.5t-16 -43.5t-19.5 -41l-30 10q9 26 15.5 48.5t12.5 54.5q-10 -2 -14 3.5t-3 14.5l7 53q3 11 8 15.5t20 4.5h19zM158 485l-10 -130l4 -15l-48 -340h-63l69 485h48zM403 497l-17 -60h-21q-48 0 -98.5 -31t-122.5 -87
l-2 44q65 64 125 99t113 35h23z" />
    <glyph glyph-name="Rcaron" unicode="&#x158;" horiz-adv-x="614" 
d="M377 699q73 0 118.5 -18t64.5 -61.5t8 -121.5q-8 -55 -26.5 -92.5t-49.5 -57.5t-78 -27l-1 -4q18 -5 32 -18.5t23.5 -34t14.5 -47.5l44 -217h-67l-42 218q-8 43 -29.5 60t-56.5 18q-61 1 -105 1.5t-73.5 1t-48.5 1.5l9 53h216q55 1 89.5 14t54 45t27.5 89q8 56 -1 86
t-39 42t-85 12q-82 0 -140 -0.5t-79 -1.5l-9 51q37 4 70 6t71 2.5t88 0.5zM212 690l-97 -690h-64l97 690h64zM531 898l21 -28l-151 -124h-47l-118 128l27 24l114 -100h8z" />
    <glyph glyph-name="rcaron" unicode="&#x159;" horiz-adv-x="393" 
d="M158 485l-10 -130l4 -15l-48 -340h-63l69 485h48zM403 497l-17 -60h-21q-48 0 -98.5 -31t-122.5 -87l-2 44q65 64 125 99t113 35h23zM421 717l21 -28l-151 -124h-47l-118 128l27 24l114 -100h8z" />
    <glyph glyph-name="Sacute" unicode="&#x15a;" horiz-adv-x="558" 
d="M330 702q50 -1 100.5 -5t97.5 -13l-7 -48q-38 3 -69.5 4.5t-62.5 2t-66 0.5q-34 0 -62.5 -2.5t-49.5 -12.5t-35 -33.5t-19 -66.5q-4 -35 0.5 -57.5t22 -37t52.5 -28.5l140 -55q52 -20 79 -45t35 -59.5t1 -85.5q-11 -74 -41.5 -111t-82.5 -49t-130 -12q-30 0 -83 3
t-120 14l8 48q52 -2 86.5 -3.5t61 -2t52.5 -0.5q59 1 96.5 9t58 33.5t28.5 77.5q5 39 0 61t-23.5 36.5t-53.5 27.5l-142 56q-48 19 -74.5 44.5t-34.5 60.5t-2 82q8 57 27.5 91t50 50t71 21t90.5 5zM463 908l32 -49l-194 -128l-22 30z" />
    <glyph glyph-name="sacute" unicode="&#x15b;" horiz-adv-x="503" 
d="M264 497q33 0 68 -2.5t68.5 -5t61.5 -6.5l-8 -46q-45 2 -91.5 3.5t-96.5 2.5q-47 0 -76 -3t-44 -16t-20 -44q-5 -36 11 -51.5t50 -29.5l145 -60q36 -15 58.5 -31t32 -40t4.5 -62q-7 -53 -35 -78t-74.5 -32t-111.5 -7q-38 0 -65 1.5t-53.5 4.5t-62.5 7l8 46q27 -2 54 -3.5
t54 -2t53 -0.5q62 1 97.5 6.5t52 20t21.5 43.5q3 25 -4 38.5t-23 22t-39 18.5l-144 60q-32 14 -54.5 30t-31.5 41t-5 63q7 49 31.5 73t66.5 32t102 7zM419 728l32 -49l-194 -128l-22 30z" />
    <glyph glyph-name="Scircumflex" unicode="&#x15c;" horiz-adv-x="558" 
d="M330 702q50 -1 100.5 -5t97.5 -13l-7 -48q-38 3 -69.5 4.5t-62.5 2t-66 0.5q-34 0 -62.5 -2.5t-49.5 -12.5t-35 -33.5t-19 -66.5q-4 -35 0.5 -57.5t22 -37t52.5 -28.5l140 -55q52 -20 79 -45t35 -59.5t1 -85.5q-11 -74 -41.5 -111t-82.5 -49t-130 -12q-30 0 -83 3
t-120 14l8 48q52 -2 86.5 -3.5t61 -2t52.5 -0.5q59 1 96.5 9t58 33.5t28.5 77.5q5 39 0 61t-23.5 36.5t-53.5 27.5l-142 56q-48 19 -74.5 44.5t-34.5 60.5t-2 82q8 57 27.5 91t50 50t71 21t90.5 5zM379 891l123 -128l-25 -25l-118 101h-8l-148 -101l-20 29l150 124h46z" />
    <glyph glyph-name="scircumflex" unicode="&#x15d;" horiz-adv-x="503" 
d="M264 497q33 0 68 -2.5t68.5 -5t61.5 -6.5l-8 -46q-45 2 -91.5 3.5t-96.5 2.5q-47 0 -76 -3t-44 -16t-20 -44q-5 -36 11 -51.5t50 -29.5l145 -60q36 -15 58.5 -31t32 -40t4.5 -62q-7 -53 -35 -78t-74.5 -32t-111.5 -7q-38 0 -65 1.5t-53.5 4.5t-62.5 7l8 46q27 -2 54 -3.5
t54 -2t53 -0.5q62 1 97.5 6.5t52 20t21.5 43.5q3 25 -4 38.5t-23 22t-39 18.5l-144 60q-32 14 -54.5 30t-31.5 41t-5 63q7 49 31.5 73t66.5 32t102 7zM334 710l123 -128l-25 -25l-118 101h-8l-148 -101l-20 29l150 124h46z" />
    <glyph glyph-name="Scedilla" unicode="&#x15e;" horiz-adv-x="558" 
d="M330 702q50 -1 100.5 -5t97.5 -13l-7 -48q-38 3 -69.5 4.5t-62.5 2t-66 0.5q-34 0 -62.5 -2.5t-49.5 -12.5t-35 -33.5t-19 -66.5q-4 -35 0.5 -57.5t22 -37t52.5 -28.5l140 -55q52 -20 79 -45t35 -59.5t1 -85.5q-11 -74 -41.5 -111t-82.5 -49t-130 -12q-30 0 -83 3
t-120 14l8 48q52 -2 86.5 -3.5t61 -2t52.5 -0.5q59 1 96.5 9t58 33.5t28.5 77.5q5 39 0 61t-23.5 36.5t-53.5 27.5l-142 56q-48 19 -74.5 44.5t-34.5 60.5t-2 82q8 57 27.5 91t50 50t71 21t90.5 5zM193 -45q34 3 56.5 -2.5t31.5 -21t4 -44.5q-5 -39 -29 -66t-61 -39.5
t-82 -6.5l12 34q46 -1 77 22.5t36 57.5q3 20 -7.5 27t-45.5 8z" />
    <glyph glyph-name="scedilla" unicode="&#x15f;" horiz-adv-x="503" 
d="M264 497q33 0 68 -2.5t68.5 -5t61.5 -6.5l-8 -46q-45 2 -91.5 3.5t-96.5 2.5q-47 0 -76 -3t-44 -16t-20 -44q-5 -36 11 -51.5t50 -29.5l145 -60q36 -15 58.5 -31t32 -40t4.5 -62q-7 -53 -35 -78t-74.5 -32t-111.5 -7q-38 0 -65 1.5t-53.5 4.5t-62.5 7l8 46q27 -2 54 -3.5
t54 -2t53 -0.5q62 1 97.5 6.5t52 20t21.5 43.5q3 25 -4 38.5t-23 22t-39 18.5l-144 60q-32 14 -54.5 30t-31.5 41t-5 63q7 49 31.5 73t66.5 32t102 7zM171 -56q34 3 56.5 -2.5t31.5 -21t4 -44.5q-5 -39 -29 -66t-61 -39.5t-82 -6.5l12 34q46 -1 77 22.5t36 57.5
q3 20 -7.5 27t-45.5 8z" />
    <glyph glyph-name="Scaron" unicode="&#x160;" horiz-adv-x="558" 
d="M330 702q50 -1 100.5 -5t97.5 -13l-7 -48q-38 3 -69.5 4.5t-62.5 2t-66 0.5q-34 0 -62.5 -2.5t-49.5 -12.5t-35 -33.5t-19 -66.5q-4 -35 0.5 -57.5t22 -37t52.5 -28.5l140 -55q52 -20 79 -45t35 -59.5t1 -85.5q-11 -74 -41.5 -111t-82.5 -49t-130 -12q-30 0 -83 3
t-120 14l8 48q52 -2 86.5 -3.5t61 -2t52.5 -0.5q59 1 96.5 9t58 33.5t28.5 77.5q5 39 0 61t-23.5 36.5t-53.5 27.5l-142 56q-48 19 -74.5 44.5t-34.5 60.5t-2 82q8 57 27.5 91t50 50t71 21t90.5 5zM493 898l21 -28l-151 -124h-47l-118 128l27 24l114 -100h8z" />
    <glyph glyph-name="scaron" unicode="&#x161;" horiz-adv-x="503" 
d="M264 497q33 0 68 -2.5t68.5 -5t61.5 -6.5l-8 -46q-45 2 -91.5 3.5t-96.5 2.5q-47 0 -76 -3t-44 -16t-20 -44q-5 -36 11 -51.5t50 -29.5l145 -60q36 -15 58.5 -31t32 -40t4.5 -62q-7 -53 -35 -78t-74.5 -32t-111.5 -7q-38 0 -65 1.5t-53.5 4.5t-62.5 7l8 46q27 -2 54 -3.5
t54 -2t53 -0.5q62 1 97.5 6.5t52 20t21.5 43.5q3 25 -4 38.5t-23 22t-39 18.5l-144 60q-32 14 -54.5 30t-31.5 41t-5 63q7 49 31.5 73t66.5 32t102 7zM448 717l21 -28l-151 -124h-47l-118 128l27 24l114 -100h8z" />
    <glyph glyph-name="uni0162" unicode="&#x162;" horiz-adv-x="568" 
d="M372 690l-97 -690h-65l97 690h65zM602 690l-8 -58h-525l8 58h525zM195 -45q34 3 56.5 -2.5t31.5 -21t4 -44.5q-5 -39 -29 -66t-61 -39.5t-82 -6.5l12 34q46 -1 77 22.5t36 57.5q3 20 -7.5 27t-45.5 8z" />
    <glyph glyph-name="uni0163" unicode="&#x163;" horiz-adv-x="364" 
d="M225 631l-72 -512q-5 -37 9 -53t50 -16h81l2 -47q-15 -4 -35 -6.5t-37.5 -3.5t-27.5 -1q-61 0 -87.5 32t-18.5 90l73 517h63zM368 485l-8 -52h-314l6 47l95 5h221zM139 -53q34 3 56.5 -2.5t31.5 -21t4 -44.5q-5 -39 -29 -66t-61 -39.5t-82 -6.5l12 34q46 -1 77 22.5
t36 57.5q3 20 -7.5 27t-45.5 8z" />
    <glyph glyph-name="Tcaron" unicode="&#x164;" horiz-adv-x="568" 
d="M372 690l-97 -690h-65l97 690h65zM602 690l-8 -58h-525l8 58h525zM503 898l21 -28l-151 -124h-47l-118 128l27 24l114 -100h8z" />
    <glyph glyph-name="tcaron" unicode="&#x165;" horiz-adv-x="364" 
d="M225 631l-72 -512q-5 -37 9 -53t50 -16h81l2 -47q-15 -4 -35 -6.5t-37.5 -3.5t-27.5 -1q-61 0 -87.5 32t-18.5 90l73 517h63zM368 485l-8 -52h-314l6 47l95 5h221zM352 762q11 0 15 -5t2 -17l-8 -58q-3 -27 -16.5 -62.5t-27.5 -61.5l-28 9q9 24 17 49t12 54
q-8 -1 -12.5 4.5t-3.5 13.5l8 54q2 11 7 15.5t18 4.5h17z" />
    <glyph glyph-name="Tbar" unicode="&#x166;" horiz-adv-x="568" 
d="M479 400l-5 -39h-355l6 39h354zM372 690l-97 -690h-65l97 690h65zM602 690l-8 -58h-525l8 58h525z" />
    <glyph glyph-name="tbar" unicode="&#x167;" horiz-adv-x="364" 
d="M323 314l-6 -39h-273l5 39h274zM225 631l-72 -512q-5 -37 9 -53t50 -16h81l2 -47q-15 -4 -35 -6.5t-37.5 -3.5t-27.5 -1q-61 0 -87.5 32t-18.5 90l73 517h63zM368 485l-8 -52h-314l6 47l95 5h221z" />
    <glyph glyph-name="Utilde" unicode="&#x168;" horiz-adv-x="665" 
d="M634 690l-60 -430q-14 -99 -46.5 -159t-88.5 -87t-142 -27q-88 0 -140 28t-70 88.5t-4 159.5l59 427h67l-61 -430q-10 -80 -0.5 -127t45.5 -67t102 -20q67 0 110 21t67.5 69t36.5 127l59 427h66zM329 875q24 -2 40.5 -10.5t31 -19t29.5 -19.5t36 -11q31 -3 45.5 11.5
t18.5 44.5l31 -2q-2 -52 -26.5 -78.5t-60.5 -23.5q-26 2 -44 11t-33 19.5t-29 19.5t-32 11q-30 3 -44.5 -12.5t-18.5 -47.5l-32 3q3 55 28.5 81t59.5 23z" />
    <glyph glyph-name="utilde" unicode="&#x169;" horiz-adv-x="563" 
d="M170 485l-50 -349q-7 -49 10 -71t60 -22q50 0 98.5 32t116.5 95l6 -48q-67 -67 -125.5 -101t-115.5 -34q-66 0 -95.5 36t-19.5 99l51 363h64zM508 485l-68 -485h-49l12 133l-5 15l47 337h63zM257 697q24 -2 40.5 -10.5t31 -19t29.5 -19.5t36 -11q31 -3 45.5 11.5
t18.5 44.5l31 -2q-2 -52 -26.5 -78.5t-60.5 -23.5q-26 2 -44 11t-33 19.5t-29 19.5t-32 11q-30 3 -44.5 -12.5t-18.5 -47.5l-32 3q3 55 28.5 81t59.5 23z" />
    <glyph glyph-name="Umacron" unicode="&#x16a;" horiz-adv-x="665" 
d="M634 690l-60 -430q-14 -99 -46.5 -159t-88.5 -87t-142 -27q-88 0 -140 28t-70 88.5t-4 159.5l59 427h67l-61 -430q-10 -80 -0.5 -127t45.5 -67t102 -20q67 0 110 21t67.5 69t36.5 127l59 427h66zM540 841l-6 -48h-273l6 48h273z" />
    <glyph glyph-name="umacron" unicode="&#x16b;" horiz-adv-x="563" 
d="M170 485l-50 -349q-7 -49 10 -71t60 -22q50 0 98.5 32t116.5 95l6 -48q-67 -67 -125.5 -101t-115.5 -34q-66 0 -95.5 36t-19.5 99l51 363h64zM508 485l-68 -485h-49l12 133l-5 15l47 337h63zM469 663l-6 -48h-273l6 48h273z" />
    <glyph glyph-name="Ubreve" unicode="&#x16c;" horiz-adv-x="665" 
d="M634 690l-60 -430q-14 -99 -46.5 -159t-88.5 -87t-142 -27q-88 0 -140 28t-70 88.5t-4 159.5l59 427h67l-61 -430q-10 -80 -0.5 -127t45.5 -67t102 -20q67 0 110 21t67.5 69t36.5 127l59 427h66zM519 881l34 -8q-4 -38 -24.5 -65.5t-54.5 -43t-79 -15.5q-47 0 -79 16
t-46 45t-7 66l35 3q-6 -39 20.5 -60t76.5 -21q53 0 86 22.5t38 60.5z" />
    <glyph glyph-name="ubreve" unicode="&#x16d;" horiz-adv-x="563" 
d="M170 485l-50 -349q-7 -49 10 -71t60 -22q50 0 98.5 32t116.5 95l6 -48q-67 -67 -125.5 -101t-115.5 -34q-66 0 -95.5 36t-19.5 99l51 363h64zM508 485l-68 -485h-49l12 133l-5 15l47 337h63zM448 703l34 -8q-4 -38 -24.5 -65.5t-54.5 -43t-79 -15.5q-47 0 -79 16t-46 45
t-7 66l35 3q-6 -39 20.5 -60t76.5 -21q53 0 86 22.5t38 60.5z" />
    <glyph glyph-name="Uring" unicode="&#x16e;" horiz-adv-x="665" 
d="M634 690l-60 -430q-14 -99 -46.5 -159t-88.5 -87t-142 -27q-88 0 -140 28t-70 88.5t-4 159.5l59 427h67l-61 -430q-10 -80 -0.5 -127t45.5 -67t102 -20q67 0 110 21t67.5 69t36.5 127l59 427h66zM409 920q43 0 69.5 -25.5t26.5 -66.5q0 -47 -31.5 -79t-79.5 -32
q-44 0 -70.5 25.5t-26.5 66.5q0 47 32 79t80 32zM408 885q-33 0 -52.5 -21.5t-19.5 -51.5q0 -25 15 -42.5t44 -17.5q33 0 52.5 22t19.5 52q0 25 -15.5 42t-43.5 17z" />
    <glyph glyph-name="uring" unicode="&#x16f;" horiz-adv-x="563" 
d="M170 485l-50 -349q-7 -49 10 -71t60 -22q50 0 98.5 32t116.5 95l6 -48q-67 -67 -125.5 -101t-115.5 -34q-66 0 -95.5 36t-19.5 99l51 363h64zM508 485l-68 -485h-49l12 133l-5 15l47 337h63zM337 741q43 0 69.5 -25.5t26.5 -66.5q0 -47 -31.5 -79t-79.5 -32
q-44 0 -70.5 25.5t-26.5 66.5q0 47 32 79t80 32zM336 706q-33 0 -52.5 -21.5t-19.5 -51.5q0 -25 15 -42.5t44 -17.5q33 0 52.5 22t19.5 52q0 25 -15.5 42t-43.5 17z" />
    <glyph glyph-name="Uhungarumlaut" unicode="&#x170;" horiz-adv-x="665" 
d="M634 690l-60 -430q-14 -99 -46.5 -159t-88.5 -87t-142 -27q-88 0 -140 28t-70 88.5t-4 159.5l59 427h67l-61 -430q-10 -80 -0.5 -127t45.5 -67t102 -20q67 0 110 21t67.5 69t36.5 127l59 427h66zM409 913l41 -30l-150 -156l-28 22zM565 913l41 -30l-150 -156l-28 22z" />
    <glyph glyph-name="uhungarumlaut" unicode="&#x171;" horiz-adv-x="563" 
d="M170 485l-50 -349q-7 -49 10 -71t60 -22q50 0 98.5 32t116.5 95l6 -48q-67 -67 -125.5 -101t-115.5 -34q-66 0 -95.5 36t-19.5 99l51 363h64zM508 485l-68 -485h-49l12 133l-5 15l47 337h63zM337 734l41 -30l-150 -156l-28 22zM493 734l41 -30l-150 -156l-28 22z" />
    <glyph glyph-name="Uogonek" unicode="&#x172;" horiz-adv-x="665" 
d="M634 690l-60 -430q-14 -99 -46.5 -159t-88.5 -87t-142 -27q-88 0 -140 28t-70 88.5t-4 159.5l59 427h67l-61 -430q-10 -80 -0.5 -127t45.5 -67t102 -20q67 0 110 21t67.5 69t36.5 127l59 427h66zM298 -6l32 -3q-27 -26 -50.5 -55.5t-43.5 -65.5q-20 -39 0.5 -50.5
t73.5 5.5l8 -28q-47 -19 -78 -19.5t-47 13t-16.5 35.5t11.5 48q13 25 38.5 55t71.5 65z" />
    <glyph glyph-name="uogonek" unicode="&#x173;" horiz-adv-x="563" 
d="M170 485l-50 -349q-7 -49 10 -71t60 -22q50 0 98.5 32t116.5 95l6 -48q-67 -67 -125.5 -101t-115.5 -34q-66 0 -95.5 36t-19.5 99l51 363h64zM508 485l-68 -485h-49l12 133l-5 15l47 337h63zM408 3l32 -3q-27 -26 -50.5 -55.5t-43.5 -65.5q-20 -39 0.5 -50.5t73.5 5.5
l8 -28q-47 -19 -78 -19.5t-47 13t-16.5 35.5t11.5 48q13 25 38.5 55t71.5 65z" />
    <glyph glyph-name="Wcircumflex" unicode="&#x174;" horiz-adv-x="937" 
d="M962 690l-250 -671q-4 -9 -11 -14t-18 -5h-78q-10 0 -17 6.5t-8 16.5l-47 541q-1 20 -3 38t-4 37h-22q-7 -19 -14 -39l-14 -40l-197 -540q-3 -10 -10.5 -15t-17.5 -5h-78q-10 0 -17.5 6.5t-8.5 15.5l-63 668h67l48 -561q2 -19 2.5 -39t1.5 -41h26q8 21 14.5 42t13.5 41
l197 536q6 22 28 22h75q10 0 16.5 -7t7.5 -17l50 -537q2 -20 3.5 -40t2.5 -40h26q6 20 13 41t14 40l203 560h69zM572 891l123 -128l-25 -25l-118 101h-8l-148 -101l-20 29l150 124h46z" />
    <glyph glyph-name="wcircumflex" unicode="&#x175;" horiz-adv-x="837" 
d="M115 485l75 -434h13q12 0 21.5 5.5t21.5 24.5q14 22 32 59.5t35 83.5q14 37 25.5 74.5t21.5 79t20 90.5q1 8 6.5 12.5t12.5 4.5h69q7 0 12 -5t6 -12l56 -417h12q13 0 22.5 8t17.5 21q23 33 41 64.5t38 79.5q30 66 48 130t30 131h66q-12 -55 -26.5 -104.5t-31.5 -95
t-37 -88.5q-25 -52 -50.5 -95t-41.5 -63q-10 -13 -20 -21.5t-22.5 -13t-30.5 -4.5h-43q-8 0 -14 5t-7 13l-54 423h-12q-4 -26 -13 -65.5t-21.5 -83.5t-27.5 -84q-10 -29 -24 -59.5t-28 -57t-27 -43.5q-11 -18 -24 -28.5t-28.5 -15t-32.5 -4.5h-39q-8 0 -14 5t-8 13l-90 467
h65zM499 710l123 -128l-25 -25l-118 101h-8l-148 -101l-20 29l150 124h46z" />
    <glyph glyph-name="Ycircumflex" unicode="&#x176;" 
d="M595 690l-298 -450h-58l-172 450h67l115 -308q6 -17 12.5 -36t10.5 -38h7q9 18 21 39t22 38l201 305h72zM307 291l-40 -291h-67l42 291h65zM372 891l123 -128l-25 -25l-118 101h-8l-148 -101l-20 29l150 124h46z" />
    <glyph glyph-name="ycircumflex" unicode="&#x177;" horiz-adv-x="529" 
d="M510 485q-10 -43 -22 -84t-26 -82.5t-31.5 -82.5t-37.5 -81.5t-44 -81.5q-51 -90 -98 -148t-96 -89t-107 -43l-12 44q37 10 69 28.5t63 48.5t61.5 73.5t62.5 103.5q37 65 64.5 126.5t49 126.5t39.5 141h65zM115 485l83 -413q5 -21 26 -21h55l-30 -51h-52q-20 0 -34.5 12
t-18.5 30l-96 443h67zM329 710l123 -128l-25 -25l-118 101h-8l-148 -101l-20 29l150 124h46z" />
    <glyph glyph-name="Ydieresis" unicode="&#x178;" 
d="M595 690l-298 -450h-58l-172 450h67l115 -308q6 -17 12.5 -36t10.5 -38h7q9 18 21 39t22 38l201 305h72zM307 291l-40 -291h-67l42 291h65zM272 865q11 0 15 -5t2 -14l-8 -55q-1 -10 -6 -15t-16 -5h-21q-19 0 -17 19l8 56q2 9 7 14t16 5h20zM443 865q12 0 15.5 -5
t2.5 -14l-8 -55q-1 -10 -6 -15t-16 -5h-21q-19 0 -17 19l8 56q2 9 7 14t15 5h20z" />
    <glyph glyph-name="Zacute" unicode="&#x179;" horiz-adv-x="559" 
d="M481 634l74 -1l-468 -577l-72 1zM480 57l-9 -57h-464l8 57h465zM563 690l-8 -57h-455l8 57h455zM463 908l32 -49l-194 -128l-22 30z" />
    <glyph glyph-name="zacute" unicode="&#x17a;" horiz-adv-x="497" 
d="M391 433l75 -1l-377 -381l-75 1zM415 52l-7 -52h-401l8 52h400zM473 485l-8 -53h-393l7 53h394zM406 728l32 -49l-194 -128l-22 30z" />
    <glyph glyph-name="Zdotaccent" unicode="&#x17b;" horiz-adv-x="559" 
d="M481 634l74 -1l-468 -577l-72 1zM480 57l-9 -57h-464l8 57h465zM563 690l-8 -57h-455l8 57h455zM363 865q10 0 15 -5.5t4 -16.5l-8 -58q-3 -20 -23 -20h-20q-11 0 -16 6t-4 16l8 58q1 11 6 15.5t16 4.5h22z" />
    <glyph glyph-name="zdotaccent" unicode="&#x17c;" horiz-adv-x="497" 
d="M391 433l75 -1l-377 -381l-75 1zM415 52l-7 -52h-401l8 52h400zM473 485l-8 -53h-393l7 53h394zM308 684q10 0 15 -5.5t4 -16.5l-8 -58q-3 -20 -23 -20h-20q-11 0 -16 6t-4 16l8 58q1 11 6 15.5t16 4.5h22z" />
    <glyph glyph-name="Zcaron" unicode="&#x17d;" horiz-adv-x="559" 
d="M481 634l74 -1l-468 -577l-72 1zM480 57l-9 -57h-464l8 57h465zM563 690l-8 -57h-455l8 57h455zM492 898l21 -28l-151 -124h-47l-118 128l27 24l114 -100h8z" />
    <glyph glyph-name="zcaron" unicode="&#x17e;" horiz-adv-x="497" 
d="M391 433l75 -1l-377 -381l-75 1zM415 52l-7 -52h-401l8 52h400zM473 485l-8 -53h-393l7 53h394zM436 717l21 -28l-151 -124h-47l-118 128l27 24l114 -100h8z" />
    <glyph glyph-name="uni018F" unicode="&#x18f;" horiz-adv-x="635" 
d="M266 -13q-83 0 -134 25t-70 74t-5 119q13 62 41 97.5t76.5 53.5t117.5 26l264 32l-10 -57l-259 -32q-50 -6 -84 -20.5t-53 -40.5t-27 -68q-8 -46 0.5 -75t29.5 -45t51 -23t63 -7q76 0 123 28.5t75 94t44 177.5q17 114 8 179t-48 92t-114 27q-39 0 -75.5 -2.5t-72 -7
t-70.5 -9.5l-7 44q32 12 71 19t80 11t77 4q95 0 149.5 -35t71 -114.5t-2.5 -213.5q-13 -99 -36.5 -166.5t-60 -108.5t-88.5 -59.5t-125 -18.5z" />
    <glyph glyph-name="florin" unicode="&#x192;" horiz-adv-x="426" 
d="M371 700q13 0 30.5 -0.5t35 -2t29.5 -3.5l-12 -47h-69q-50 0 -76.5 -20t-38.5 -74l-131 -556q-16 -66 -51 -101.5t-105 -35.5q-12 0 -29.5 0.5t-35 2t-29.5 3.5l11 47h67q48 0 73 21.5t37 72.5l131 555q15 68 54 103t109 35zM383 393l-12 -51h-312l10 44l105 7h209z" />
    <glyph glyph-name="Ohorn" unicode="&#x1a0;" horiz-adv-x="670" 
d="M387 703q95 0 149.5 -35t71 -114t-2.5 -212q-13 -99 -36.5 -167.5t-59.5 -109.5t-89 -59.5t-125 -18.5q-95 0 -150.5 34.5t-72.5 113.5t1 213q14 98 37 165.5t59.5 109.5t90 61t127.5 19zM383 644q-76 0 -123.5 -28t-74.5 -94t-43 -180q-16 -111 -7 -175.5t48 -92.5
t112 -28q76 0 123 28.5t75.5 94.5t43.5 179q17 113 8 177.5t-48 91.5t-114 27zM574 586l1 33q47 2 76.5 32.5t39.5 74.5l47 -11q-8 -40 -32.5 -69t-58.5 -45t-73 -15z" />
    <glyph glyph-name="ohorn" unicode="&#x1a1;" horiz-adv-x="574" 
d="M306 497q81 0 127 -25.5t61 -82t2 -150.5q-13 -92 -42 -147.5t-80 -80t-131 -24.5t-127 25.5t-62.5 82t-2.5 150.5q13 92 42 147t80.5 80t132.5 25zM306 442q-59 0 -96.5 -18t-59 -62t-32.5 -123q-11 -75 -3 -118t39 -61t89 -18q59 0 96.5 18.5t59 63t32.5 121.5
q11 76 3 118.5t-39 60.5t-89 18zM459 393l1 33q47 2 76.5 32.5t39.5 74.5l47 -11q-8 -40 -32.5 -69t-58.5 -45t-73 -15z" />
    <glyph glyph-name="Uhorn" unicode="&#x1af;" horiz-adv-x="690" 
d="M634 690l-60 -430q-14 -99 -46.5 -159t-88.5 -87t-142 -27q-88 0 -140 28t-70 88.5t-4 159.5l59 427h67l-61 -430q-10 -80 -0.5 -127t45.5 -67t102 -20q67 0 110 21t67.5 69t36.5 127l59 427h66zM610 588l1 33q47 2 76.5 32.5t39.5 74.5l47 -11q-8 -40 -32.5 -69
t-58.5 -45t-73 -15z" />
    <glyph glyph-name="uhorn" unicode="&#x1b0;" horiz-adv-x="581" 
d="M170 485l-50 -349q-7 -49 10 -71t60 -22q50 0 98.5 32t116.5 95l6 -48q-67 -67 -125.5 -101t-115.5 -34q-66 0 -95.5 36t-19.5 99l51 363h64zM508 485l-68 -485h-49l12 133l-5 15l47 337h63zM480 405l1 33q47 2 76.5 32.5t39.5 74.5l47 -11q-8 -40 -32.5 -69t-58.5 -45
t-73 -15z" />
    <glyph glyph-name="uni01C4" unicode="&#x1c4;" horiz-adv-x="1214" 
d="M375 699q101 0 157 -34t72 -112t-2 -211q-15 -107 -40 -176t-62 -107t-91 -53t-129 -15q-57 0 -116.5 2.5t-112.5 6.5l35 52q44 -1 95.5 -2t97.5 -1q61 0 103.5 13t72 46t48 91.5t31.5 148.5q12 87 10 144.5t-20.5 90t-55 46t-94.5 13.5q-31 0 -67 -0.5t-71.5 -1.5
t-63.5 -2l-24 52q34 3 73.5 5t79 3t74.5 1zM214 690l-97 -690h-66l97 690h66zM1136 634l74 -1l-468 -577l-72 1zM1135 57l-9 -57h-464l8 57h465zM1218 690l-8 -57h-455l8 57h455zM1147 898l21 -28l-151 -124h-47l-118 128l27 24l114 -100h8z" />
    <glyph glyph-name="uni01C5" unicode="&#x1c5;" horiz-adv-x="1158" 
d="M375 699q101 0 157 -34t72 -112t-2 -211q-15 -107 -40 -176t-62 -107t-91 -53t-129 -15q-57 0 -116.5 2.5t-112.5 6.5l35 52q44 -1 95.5 -2t97.5 -1q61 0 103.5 13t72 46t48 91.5t31.5 148.5q12 87 10 144.5t-20.5 90t-55 46t-94.5 13.5q-31 0 -67 -0.5t-71.5 -1.5
t-63.5 -2l-24 52q34 3 73.5 5t79 3t74.5 1zM214 690l-97 -690h-66l97 690h66zM1052 433l75 -1l-377 -381l-75 1zM1076 52l-7 -52h-401l8 52h400zM1134 485l-8 -53h-393l7 53h394zM1097 717l21 -28l-151 -124h-47l-118 128l27 24l114 -100h8z" />
    <glyph glyph-name="uni01C6" unicode="&#x1c6;" horiz-adv-x="1066" 
d="M297 497q49 0 104 -5.5t103 -14.5l-19 -39q-54 2 -95 4t-72 2q-53 0 -87.5 -8t-55.5 -29t-33 -61t-22 -105q-10 -72 -8.5 -115t18.5 -62.5t55 -19.5q55 0 112.5 34.5t124.5 103.5l11 -36q-22 -29 -51 -57t-63 -51t-72 -36.5t-78 -13.5q-52 0 -81 26.5t-36.5 83.5t4.5 149
q12 79 31 128.5t47 75.5t68 36t95 10zM544 700l-99 -700h-49l10 118l-6 6l46 339l8 16q1 26 3 49t6 50l17 122h64zM959 433l75 -1l-377 -381l-75 1zM983 52l-7 -52h-401l8 52h400zM1041 485l-8 -53h-393l7 53h394zM1005 717l21 -28l-151 -124h-47l-118 128l27 24l114 -100h8
z" />
    <glyph glyph-name="uni01C7" unicode="&#x1c7;" horiz-adv-x="839" 
d="M211 690l-78 -564q-5 -32 9.5 -51t50.5 -19h258l-2 -51q-67 -4 -135.5 -5t-135.5 -1q-37 0 -64.5 15.5t-39.5 44.5t-6 69l77 562h66zM806 690l-79 -557q-9 -70 -46 -105.5t-99 -35.5q-12 0 -27.5 1.5t-30.5 4t-25 5.5l13 45h50q44 0 69.5 22t31.5 64l77 556h66z" />
    <glyph glyph-name="uni01C8" unicode="&#x1c8;" horiz-adv-x="743" 
d="M211 690l-78 -564q-5 -32 9.5 -51t50.5 -19h258l-2 -51q-67 -4 -135.5 -5t-135.5 -1q-37 0 -64.5 15.5t-39.5 44.5t-6 69l77 562h66zM682 485l-71 -511q-5 -36 -19.5 -69.5t-37 -61t-50.5 -49.5l-34 29q33 34 52 70.5t26 84.5l72 507h62zM693 689q11 0 16 -6.5t3 -16.5
l-8 -59q-3 -19 -22 -19h-29q-23 0 -20 23l8 58q3 20 22 20h30z" />
    <glyph glyph-name="uni01C9" unicode="&#x1c9;" horiz-adv-x="519" 
d="M204 700l-81 -581q-6 -36 9 -52.5t50 -16.5h53l2 -48q-8 -3 -23 -5.5t-30.5 -3.5t-25.5 -1q-53 0 -80.5 30.5t-19.5 87.5l83 590h63zM459 485l-71 -511q-5 -36 -19.5 -69.5t-37 -61t-50.5 -49.5l-34 29q33 34 52 70.5t26 84.5l72 507h62zM470 689q11 0 16 -6.5t3 -16.5
l-8 -59q-3 -19 -22 -19h-29q-23 0 -20 23l8 58q3 20 22 20h30z" />
    <glyph glyph-name="uni01CA" unicode="&#x1ca;" horiz-adv-x="1031" 
d="M662 690l-94 -664q-2 -13 -8.5 -19.5t-19.5 -6.5h-66q-12 0 -19 6t-11 18l-196 524q-7 18 -14 40t-13 41h-20q-2 -21 -4 -42.5t-5 -43.5l-75 -543h-66l93 664q3 14 10 20t20 6h63q12 0 19 -6t11 -18l191 -511q8 -21 16.5 -45.5t15.5 -47.5h22q3 24 5 47.5t6 47.5l74 533
h65zM998 690l-79 -557q-9 -70 -46 -105.5t-99 -35.5q-12 0 -27.5 1.5t-30.5 4t-25 5.5l13 45h50q44 0 69.5 22t31.5 64l77 556h66z" />
    <glyph glyph-name="uni01CB" unicode="&#x1cb;" horiz-adv-x="934" 
d="M662 690l-94 -664q-2 -13 -8.5 -19.5t-19.5 -6.5h-66q-12 0 -19 6t-11 18l-196 524q-7 18 -14 40t-13 41h-20q-2 -21 -4 -42.5t-5 -43.5l-75 -543h-66l93 664q3 14 10 20t20 6h63q12 0 19 -6t11 -18l191 -511q8 -21 16.5 -45.5t15.5 -47.5h22q3 24 5 47.5t6 47.5l74 533
h65zM874 485l-71 -511q-5 -36 -19.5 -69.5t-37 -61t-50.5 -49.5l-34 29q33 34 52 70.5t26 84.5l72 507h62zM885 689q11 0 16 -6.5t3 -16.5l-8 -59q-3 -19 -22 -19h-29q-23 0 -20 23l8 58q3 20 22 20h30z" />
    <glyph glyph-name="uni01CC" unicode="&#x1cc;" horiz-adv-x="811" 
d="M391 497q41 0 68.5 -15t39.5 -45t6 -74l-52 -363h-63l50 349q6 52 -9.5 72.5t-57.5 20.5q-50 0 -103 -31.5t-126 -88.5l1 48q70 61 130 94t116 33zM160 485l-11 -124l3 -16l-48 -345h-63l69 485h50zM750 485l-71 -511q-5 -36 -19.5 -69.5t-37 -61t-50.5 -49.5l-34 29
q33 34 52 70.5t26 84.5l72 507h62zM761 689q11 0 16 -6.5t3 -16.5l-8 -59q-3 -19 -22 -19h-29q-23 0 -20 23l8 58q3 20 22 20h30z" />
    <glyph glyph-name="Gcaron" unicode="&#x1e6;" horiz-adv-x="623" 
d="M393 703q38 0 71.5 -2t64.5 -6.5t60 -12.5l-10 -48q-31 4 -61 6t-59 3t-59 1q-63 0 -107 -14t-73.5 -47.5t-48 -92t-30.5 -148.5q-12 -108 -4.5 -173.5t38.5 -94t91 -28.5q40 0 74.5 14.5t67 40.5t66.5 59l7 -45q-25 -30 -51.5 -53.5t-55.5 -40t-61 -25.5t-66 -9
q-76 0 -119.5 37.5t-56.5 117t2 206.5q14 104 39 173t64 108.5t92.5 56.5t124.5 17zM567 400l-57 -400h-47l5 112l-2 17l37 271h64zM549 898l21 -28l-151 -124h-47l-118 128l27 24l114 -100h8z" />
    <glyph glyph-name="gcaron" unicode="&#x1e7;" horiz-adv-x="573" 
d="M455 477h64l-71 -473q-6 -49 -24.5 -88t-50 -67.5t-76.5 -44t-105 -18.5q-16 -1 -47 -1t-65.5 3t-62.5 9l7 43q24 -1 49 -1.5t54 -0.5t63 2q77 5 128.5 40t65.5 113q8 43 15.5 76t20.5 56l-17 9zM298 497q35 0 72 -2.5t74.5 -7t70.5 -10.5l-28 -40q-55 2 -96 4t-72 2
q-53 0 -87 -7.5t-54.5 -28.5t-33 -61.5t-22.5 -104.5q-11 -75 -9.5 -118t20.5 -61t58 -18q35 0 73 16t78.5 46.5t81.5 75.5l14 -33q-32 -47 -74.5 -83t-90 -57t-95.5 -21q-55 0 -86.5 25t-39.5 81.5t6 152.5q12 80 31 129t47 75.5t68 36t94 9.5zM492 717l21 -28l-151 -124
h-47l-118 128l27 24l114 -100h8z" />
    <glyph glyph-name="uni01EA" unicode="&#x1ea;" horiz-adv-x="664" 
d="M387 703q95 0 149.5 -35t71 -114t-2.5 -212q-13 -99 -36.5 -167.5t-59.5 -109.5t-89 -59.5t-125 -18.5q-95 0 -150.5 34.5t-72.5 113.5t1 213q14 98 37 165.5t59.5 109.5t90 61t127.5 19zM383 644q-76 0 -123.5 -28t-74.5 -94t-43 -180q-16 -111 -7 -175.5t48 -92.5
t112 -28q76 0 123 28.5t75.5 94.5t43.5 179q17 113 8 177.5t-48 91.5t-114 27zM291 7l32 -3q-27 -26 -50.5 -55.5t-43.5 -65.5q-20 -39 0.5 -50.5t73.5 5.5l8 -28q-47 -19 -78 -19.5t-47 13t-16.5 35.5t11.5 48q13 25 38.5 55t71.5 65z" />
    <glyph glyph-name="uni01EB" unicode="&#x1eb;" horiz-adv-x="562" 
d="M306 497q81 0 127 -25.5t61 -82t2 -150.5q-13 -92 -42 -147.5t-80 -80t-131 -24.5t-127 25.5t-62.5 82t-2.5 150.5q13 92 42 147t80.5 80t132.5 25zM306 442q-59 0 -96.5 -18t-59 -62t-32.5 -123q-11 -75 -3 -118t39 -61t89 -18q59 0 96.5 18.5t59 63t32.5 121.5
q11 76 3 118.5t-39 60.5t-89 18zM246 3l32 -3q-27 -26 -50.5 -55.5t-43.5 -65.5q-20 -39 0.5 -50.5t73.5 5.5l8 -28q-47 -19 -78 -19.5t-47 13t-16.5 35.5t11.5 48q13 25 38.5 55t71.5 65z" />
    <glyph glyph-name="Aringacute" unicode="&#x1fa;" horiz-adv-x="612" 
d="M387 630q9 0 15.5 -5.5t8.5 -14.5l150 -610h-66l-125 521q-3 15 -4.5 29.5t-4.5 28.5h-30q-6 -14 -13 -29t-13 -29l-262 -521h-70l313 612q8 18 26 18h75zM487 236l-9 -58h-365l7 58h367zM375 866q43 0 69.5 -25.5t26.5 -66.5q0 -46 -31.5 -78.5t-79.5 -32.5
q-44 0 -70.5 25.5t-26.5 66.5q0 48 32 79.5t80 31.5zM374 831q-33 0 -52.5 -21.5t-19.5 -50.5q0 -26 15 -43.5t44 -17.5q33 0 52.5 22.5t19.5 52.5q0 24 -15.5 41t-43.5 17zM451 1007l27 -48l-151 -73l-18 29z" />
    <glyph glyph-name="aringacute" unicode="&#x1fb;" horiz-adv-x="570" 
d="M448 900l27 -53l-190 -81l-18 32zM303 497q24 0 51 -1.5t54 -4.5l54 -6t52 -8l-28 -40q-55 2 -96 4t-69 2q-54 0 -88.5 -7.5t-55.5 -28.5t-33.5 -61.5t-22.5 -104.5q-11 -76 -9 -119t20.5 -60.5t57.5 -17.5q35 0 73 16t79 47t82 75l11 -36q-31 -46 -73 -81.5t-88.5 -56
t-94.5 -20.5q-59 0 -90 25.5t-38 82.5t7 151q12 79 30.5 128.5t47 76t69.5 36t98 9.5zM450 477h64l-67 -477h-50l10 117l-7 7zM343 739q44 0 70.5 -26t26.5 -66q0 -47 -31.5 -79t-79.5 -32q-44 0 -70.5 25.5t-26.5 66.5q0 47 32 79t79 32zM343 703q-34 0 -53 -21t-19 -51
q0 -25 15 -42.5t44 -17.5q33 0 52 22t19 52q0 25 -15 41.5t-43 16.5z" />
    <glyph glyph-name="AEacute" unicode="&#x1fc;" horiz-adv-x="909" 
d="M623 691q94 0 160 -1t128 -5l-8 -51h-260q-33 0 -55.5 -18t-27.5 -56l-60 -434q-5 -34 10 -52t50 -18h262l-3 -51q-68 -4 -135.5 -5t-135.5 -1q-58 0 -89 34t-22 92l62 445q3 22 15.5 43t28.5 29h-4q-16 -7 -35.5 -23.5t-39.5 -44.5l-430 -574h-72l446 591
q23 31 45.5 50.5t47.5 30t54.5 15t67.5 4.5zM481 297l-9 -56h-292l19 58zM489 393l340 -1l-7 -52h-341zM730 908l33 -49l-195 -128l-22 30z" />
    <glyph glyph-name="aeacute" unicode="&#x1fd;" horiz-adv-x="873" 
d="M299 497q37 0 76 -3.5t78.5 -8.5t74.5 -13l-33 -40q-39 3 -70.5 5.5t-57.5 4t-50 1.5q-53 0 -87 -8.5t-55 -30t-32.5 -61t-21.5 -102.5q-10 -74 -9 -117t18.5 -61.5t54.5 -18.5q36 0 73 15.5t75.5 46.5t79.5 76l11 -35q-29 -45 -68.5 -81t-85.5 -57t-97 -21
q-58 0 -88 27.5t-36 85t7 146.5q12 79 31 128.5t47.5 76t69 36t95.5 9.5zM652 497q70 0 112 -16t57 -49.5t5 -88.5q-8 -44 -28.5 -70t-56.5 -39t-91 -18l-240 -24l8 49l232 24q36 4 58.5 12t35.5 25t19 47q9 43 -3 63t-41.5 25.5t-71.5 5.5q-44 0 -76 -7.5t-53.5 -27.5
t-36 -58.5t-23.5 -100.5q-13 -85 -2.5 -129.5t45 -61t93.5 -16.5q27 0 58.5 2t62.5 5t54 6l5 -43q-22 -8 -57 -13.5t-72 -8t-64 -2.5q-82 0 -128 27.5t-59.5 85.5t-1.5 150q11 74 30 122t50 75t75.5 38t104.5 11zM639 728l33 -49l-195 -128l-22 30z" />
    <glyph glyph-name="Oslashacute" unicode="&#x1fe;" horiz-adv-x="664" 
d="M562 749l34 -19l-478 -787l-34 20zM387 703q95 0 149.5 -35t71 -114t-2.5 -212q-13 -99 -36.5 -167.5t-59.5 -109.5t-89 -59.5t-125 -18.5q-95 0 -150.5 34.5t-72.5 113.5t1 213q14 98 37 165.5t59.5 109.5t90 61t127.5 19zM383 644q-76 0 -123.5 -28t-74.5 -94t-43 -180
q-16 -111 -7 -175.5t48 -92.5t112 -28q76 0 123 28.5t75.5 94.5t43.5 179q17 113 8 177.5t-48 91.5t-114 27zM517 908l33 -49l-195 -128l-22 30z" />
    <glyph glyph-name="oslashacute" unicode="&#x1ff;" horiz-adv-x="562" 
d="M448 554l30 -17l-368 -607l-30 17zM306 497q81 0 127 -25.5t61 -82t2 -150.5q-13 -92 -42 -147.5t-80 -80t-131 -24.5t-127 25.5t-62.5 82t-2.5 150.5q13 92 42 147t80.5 80t132.5 25zM306 442q-59 0 -96.5 -18t-59 -62t-32.5 -123q-11 -75 -3 -118t39 -61t89 -18
q59 0 96.5 18.5t59 63t32.5 121.5q11 76 3 118.5t-39 60.5t-89 18zM444 728l33 -49l-195 -128l-22 30z" />
    <glyph glyph-name="uni0200" unicode="&#x200;" horiz-adv-x="612" 
d="M400 690q9 0 16 -5.5t8 -14.5l137 -670h-66l-112 581q-2 15 -4 29.5t-5 28.5h-30q-6 -14 -13 -29t-13 -29l-275 -581h-70l326 672q3 10 10 14t16 4h75zM482 286l-8 -58h-350l8 58h350zM350 913l138 -164l-29 -22l-149 156zM195 913l136 -164l-27 -22l-150 156z" />
    <glyph glyph-name="uni0201" unicode="&#x201;" horiz-adv-x="570" 
d="M303 497q24 0 51 -1.5t54 -4.5l54 -6t52 -8l-28 -40q-55 2 -96 4t-69 2q-54 0 -88.5 -7.5t-55.5 -28.5t-33.5 -61.5t-22.5 -104.5q-11 -76 -9 -119t20.5 -60.5t57.5 -17.5q35 0 73 16t79 47t82 75l11 -36q-31 -46 -73 -81.5t-88.5 -56t-94.5 -20.5q-59 0 -90 25.5
t-38 82.5t7 151q12 79 30.5 128.5t47 76t69.5 36t98 9.5zM450 477h64l-67 -477h-50l10 117l-7 7zM305 733l138 -164l-29 -22l-149 156zM150 733l136 -164l-27 -22l-150 156z" />
    <glyph glyph-name="uni0202" unicode="&#x202;" horiz-adv-x="612" 
d="M400 690q9 0 16 -5.5t8 -14.5l137 -670h-66l-112 581q-2 15 -4 29.5t-5 28.5h-30q-6 -14 -13 -29t-13 -29l-275 -581h-70l326 672q3 10 10 14t16 4h75zM482 286l-8 -58h-350l8 58h350zM261 749l-35 8q5 38 25.5 66t54.5 43t78 15q48 0 80 -15.5t45.5 -44t6.5 -66.5
l-35 -3q6 39 -20.5 59.5t-75.5 20.5q-53 0 -86.5 -22t-37.5 -61z" />
    <glyph glyph-name="uni0203" unicode="&#x203;" horiz-adv-x="570" 
d="M303 497q24 0 51 -1.5t54 -4.5l54 -6t52 -8l-28 -40q-55 2 -96 4t-69 2q-54 0 -88.5 -7.5t-55.5 -28.5t-33.5 -61.5t-22.5 -104.5q-11 -76 -9 -119t20.5 -60.5t57.5 -17.5q35 0 73 16t79 47t82 75l11 -36q-31 -46 -73 -81.5t-88.5 -56t-94.5 -20.5q-59 0 -90 25.5
t-38 82.5t7 151q12 79 30.5 128.5t47 76t69.5 36t98 9.5zM450 477h64l-67 -477h-50l10 117l-7 7zM216 569l-35 8q5 38 25.5 66t54.5 43t78 15q48 0 80 -15.5t45.5 -44t6.5 -66.5l-35 -3q6 39 -20.5 59.5t-75.5 20.5q-53 0 -86.5 -22t-37.5 -61z" />
    <glyph glyph-name="uni0204" unicode="&#x204;" 
d="M260 691h100.5t100 -1.5t96.5 -4.5l-9 -51h-279q-37 0 -56 -18t-24 -55l-60 -435q-5 -34 10 -52t50 -18h277l-1 -51q-46 -3 -94 -4t-96 -1.5t-95 -0.5q-65 0 -95.5 34.5t-22.5 91.5l64 454q7 51 41 81.5t93 30.5zM118 392h356l-7 -51l-357 -1zM351 935l138 -164l-29 -22
l-149 156zM196 935l136 -164l-27 -22l-150 156z" />
    <glyph glyph-name="uni0205" unicode="&#x205;" horiz-adv-x="533" 
d="M313 497q70 0 111.5 -16t57.5 -49.5t4 -88.5q-8 -44 -28.5 -70t-56 -39t-90.5 -18l-239 -24l6 49l232 24q37 4 59.5 12t35.5 25t19 47q9 43 -3.5 63t-41.5 25.5t-71 5.5q-45 0 -76.5 -7.5t-53.5 -27.5t-36 -58.5t-24 -100.5q-12 -85 -1.5 -129.5t45 -61t92.5 -16.5
q28 0 60 2t62.5 5t55.5 6l5 -43q-22 -8 -57.5 -13.5t-72.5 -8t-65 -2.5q-82 0 -128 27.5t-60 85.5t-1 150q11 74 30 122t50 75t75 38t105 11zM297 733l138 -164l-29 -22l-149 156zM142 733l136 -164l-27 -22l-150 156z" />
    <glyph glyph-name="uni0206" unicode="&#x206;" 
d="M260 691h100.5t100 -1.5t96.5 -4.5l-9 -51h-279q-37 0 -56 -18t-24 -55l-60 -435q-5 -34 10 -52t50 -18h277l-1 -51q-46 -3 -94 -4t-96 -1.5t-95 -0.5q-65 0 -95.5 34.5t-22.5 91.5l64 454q7 51 41 81.5t93 30.5zM118 392h356l-7 -51l-357 -1zM261 771l-35 8
q5 38 25.5 66t54.5 43t78 15q48 0 80 -15.5t45.5 -44t6.5 -66.5l-35 -3q6 39 -20.5 59.5t-75.5 20.5q-53 0 -86.5 -22t-37.5 -61z" />
    <glyph glyph-name="uni0207" unicode="&#x207;" horiz-adv-x="533" 
d="M313 497q70 0 111.5 -16t57.5 -49.5t4 -88.5q-8 -44 -28.5 -70t-56 -39t-90.5 -18l-239 -24l6 49l232 24q37 4 59.5 12t35.5 25t19 47q9 43 -3.5 63t-41.5 25.5t-71 5.5q-45 0 -76.5 -7.5t-53.5 -27.5t-36 -58.5t-24 -100.5q-12 -85 -1.5 -129.5t45 -61t92.5 -16.5
q28 0 60 2t62.5 5t55.5 6l5 -43q-22 -8 -57.5 -13.5t-72.5 -8t-65 -2.5q-82 0 -128 27.5t-60 85.5t-1 150q11 74 30 122t50 75t75 38t105 11zM208 569l-35 8q5 38 25.5 66t54.5 43t78 15q48 0 80 -15.5t45.5 -44t6.5 -66.5l-35 -3q6 39 -20.5 59.5t-75.5 20.5
q-53 0 -86.5 -22t-37.5 -61z" />
    <glyph glyph-name="uni0208" unicode="&#x208;" horiz-adv-x="250" 
d="M214 690l-97 -690h-66l97 690h66zM167 913l138 -164l-29 -22l-149 156zM12 913l136 -164l-27 -22l-150 156z" />
    <glyph glyph-name="uni0209" unicode="&#x209;" horiz-adv-x="236" 
d="M177 485l-69 -485h-63l69 485h63zM135 733l138 -164l-29 -22l-149 156zM-20 733l136 -164l-27 -22l-150 156z" />
    <glyph glyph-name="uni020A" unicode="&#x20a;" horiz-adv-x="250" 
d="M214 690l-97 -690h-66l97 690h66zM78 749l-35 8q5 38 25.5 66t54.5 43t78 15q48 0 80 -15.5t45.5 -44t6.5 -66.5l-35 -3q6 39 -20.5 59.5t-75.5 20.5q-53 0 -86.5 -22t-37.5 -61z" />
    <glyph glyph-name="uni020B" unicode="&#x20b;" horiz-adv-x="236" 
d="M177 485l-69 -485h-63l69 485h63zM46 569l-35 8q5 38 25.5 66t54.5 43t78 15q48 0 80 -15.5t45.5 -44t6.5 -66.5l-35 -3q6 39 -20.5 59.5t-75.5 20.5q-53 0 -86.5 -22t-37.5 -61z" />
    <glyph glyph-name="uni020C" unicode="&#x20c;" horiz-adv-x="664" 
d="M387 703q95 0 149.5 -35t71 -114t-2.5 -212q-13 -99 -36.5 -167.5t-59.5 -109.5t-89 -59.5t-125 -18.5q-95 0 -150.5 34.5t-72.5 113.5t1 213q14 98 37 165.5t59.5 109.5t90 61t127.5 19zM383 644q-76 0 -123.5 -28t-74.5 -94t-43 -180q-16 -111 -7 -175.5t48 -92.5
t112 -28q76 0 123 28.5t75.5 94.5t43.5 179q17 113 8 177.5t-48 91.5t-114 27zM370 913l138 -164l-29 -22l-149 156zM215 913l136 -164l-27 -22l-150 156z" />
    <glyph glyph-name="uni020D" unicode="&#x20d;" horiz-adv-x="562" 
d="M306 497q81 0 127 -25.5t61 -82t2 -150.5q-13 -92 -42 -147.5t-80 -80t-131 -24.5t-127 25.5t-62.5 82t-2.5 150.5q13 92 42 147t80.5 80t132.5 25zM306 442q-59 0 -96.5 -18t-59 -62t-32.5 -123q-11 -75 -3 -118t39 -61t89 -18q59 0 96.5 18.5t59 63t32.5 121.5
q11 76 3 118.5t-39 60.5t-89 18zM297 733l138 -164l-29 -22l-149 156zM142 733l136 -164l-27 -22l-150 156z" />
    <glyph glyph-name="uni020E" unicode="&#x20e;" horiz-adv-x="664" 
d="M387 703q95 0 149.5 -35t71 -114t-2.5 -212q-13 -99 -36.5 -167.5t-59.5 -109.5t-89 -59.5t-125 -18.5q-95 0 -150.5 34.5t-72.5 113.5t1 213q14 98 37 165.5t59.5 109.5t90 61t127.5 19zM383 644q-76 0 -123.5 -28t-74.5 -94t-43 -180q-16 -111 -7 -175.5t48 -92.5
t112 -28q76 0 123 28.5t75.5 94.5t43.5 179q17 113 8 177.5t-48 91.5t-114 27zM281 749l-35 8q5 38 25.5 66t54.5 43t78 15q48 0 80 -15.5t45.5 -44t6.5 -66.5l-35 -3q6 39 -20.5 59.5t-75.5 20.5q-53 0 -86.5 -22t-37.5 -61z" />
    <glyph glyph-name="uni020F" unicode="&#x20f;" horiz-adv-x="562" 
d="M306 497q81 0 127 -25.5t61 -82t2 -150.5q-13 -92 -42 -147.5t-80 -80t-131 -24.5t-127 25.5t-62.5 82t-2.5 150.5q13 92 42 147t80.5 80t132.5 25zM306 442q-59 0 -96.5 -18t-59 -62t-32.5 -123q-11 -75 -3 -118t39 -61t89 -18q59 0 96.5 18.5t59 63t32.5 121.5
q11 76 3 118.5t-39 60.5t-89 18zM208 569l-35 8q5 38 25.5 66t54.5 43t78 15q48 0 80 -15.5t45.5 -44t6.5 -66.5l-35 -3q6 39 -20.5 59.5t-75.5 20.5q-53 0 -86.5 -22t-37.5 -61z" />
    <glyph glyph-name="uni0210" unicode="&#x210;" horiz-adv-x="614" 
d="M377 699q73 0 118.5 -18t64.5 -61.5t8 -121.5q-8 -55 -26.5 -92.5t-49.5 -57.5t-78 -27l-1 -4q18 -5 32 -18.5t23.5 -34t14.5 -47.5l44 -217h-67l-42 218q-8 43 -29.5 60t-56.5 18q-61 1 -105 1.5t-73.5 1t-48.5 1.5l9 53h216q55 1 89.5 14t54 45t27.5 89q8 56 -1 86
t-39 42t-85 12q-82 0 -140 -0.5t-79 -1.5l-9 51q37 4 70 6t71 2.5t88 0.5zM212 690l-97 -690h-64l97 690h64zM355 913l138 -164l-29 -22l-149 156zM200 913l136 -164l-27 -22l-150 156z" />
    <glyph glyph-name="uni0211" unicode="&#x211;" horiz-adv-x="393" 
d="M158 485l-10 -130l4 -15l-48 -340h-63l69 485h48zM403 497l-17 -60h-21q-48 0 -98.5 -31t-122.5 -87l-2 44q65 64 125 99t113 35h23zM244 733l138 -164l-29 -22l-149 156zM89 733l136 -164l-27 -22l-150 156z" />
    <glyph glyph-name="uni0212" unicode="&#x212;" horiz-adv-x="614" 
d="M377 699q73 0 118.5 -18t64.5 -61.5t8 -121.5q-8 -55 -26.5 -92.5t-49.5 -57.5t-78 -27l-1 -4q18 -5 32 -18.5t23.5 -34t14.5 -47.5l44 -217h-67l-42 218q-8 43 -29.5 60t-56.5 18q-61 1 -105 1.5t-73.5 1t-48.5 1.5l9 53h216q55 1 89.5 14t54 45t27.5 89q8 56 -1 86
t-39 42t-85 12q-82 0 -140 -0.5t-79 -1.5l-9 51q37 4 70 6t71 2.5t88 0.5zM212 690l-97 -690h-64l97 690h64zM266 749l-35 8q5 38 25.5 66t54.5 43t78 15q48 0 80 -15.5t45.5 -44t6.5 -66.5l-35 -3q6 39 -20.5 59.5t-75.5 20.5q-53 0 -86.5 -22t-37.5 -61z" />
    <glyph glyph-name="uni0213" unicode="&#x213;" horiz-adv-x="393" 
d="M158 485l-10 -130l4 -15l-48 -340h-63l69 485h48zM403 497l-17 -60h-21q-48 0 -98.5 -31t-122.5 -87l-2 44q65 64 125 99t113 35h23zM155 569l-35 8q5 38 25.5 66t54.5 43t78 15q48 0 80 -15.5t45.5 -44t6.5 -66.5l-35 -3q6 39 -20.5 59.5t-75.5 20.5q-53 0 -86.5 -22
t-37.5 -61z" />
    <glyph glyph-name="uni0214" unicode="&#x214;" horiz-adv-x="665" 
d="M634 690l-60 -430q-14 -99 -46.5 -159t-88.5 -87t-142 -27q-88 0 -140 28t-70 88.5t-4 159.5l59 427h67l-61 -430q-10 -80 -0.5 -127t45.5 -67t102 -20q67 0 110 21t67.5 69t36.5 127l59 427h66zM370 913l138 -164l-29 -22l-149 156zM215 913l136 -164l-27 -22l-150 156z
" />
    <glyph glyph-name="uni0215" unicode="&#x215;" horiz-adv-x="563" 
d="M170 485l-50 -349q-7 -49 10 -71t60 -22q50 0 98.5 32t116.5 95l6 -48q-67 -67 -125.5 -101t-115.5 -34q-66 0 -95.5 36t-19.5 99l51 363h64zM508 485l-68 -485h-49l12 133l-5 15l47 337h63zM298 734l138 -164l-29 -22l-149 156zM143 734l136 -164l-27 -22l-150 156z" />
    <glyph glyph-name="uni0216" unicode="&#x216;" horiz-adv-x="665" 
d="M634 690l-60 -430q-14 -99 -46.5 -159t-88.5 -87t-142 -27q-88 0 -140 28t-70 88.5t-4 159.5l59 427h67l-61 -430q-10 -80 -0.5 -127t45.5 -67t102 -20q67 0 110 21t67.5 69t36.5 127l59 427h66zM281 749l-35 8q5 38 25.5 66t54.5 43t78 15q48 0 80 -15.5t45.5 -44
t6.5 -66.5l-35 -3q6 39 -20.5 59.5t-75.5 20.5q-53 0 -86.5 -22t-37.5 -61z" />
    <glyph glyph-name="uni0217" unicode="&#x217;" horiz-adv-x="563" 
d="M170 485l-50 -349q-7 -49 10 -71t60 -22q50 0 98.5 32t116.5 95l6 -48q-67 -67 -125.5 -101t-115.5 -34q-66 0 -95.5 36t-19.5 99l51 363h64zM508 485l-68 -485h-49l12 133l-5 15l47 337h63zM209 571l-35 8q5 38 25.5 66t54.5 43t78 15q48 0 80 -15.5t45.5 -44t6.5 -66.5
l-35 -3q6 39 -20.5 59.5t-75.5 20.5q-53 0 -86.5 -22t-37.5 -61z" />
    <glyph glyph-name="uni0218" unicode="&#x218;" horiz-adv-x="558" 
d="M270 -61q11 0 15.5 -5t2.5 -17l-9 -57q-3 -19 -9.5 -40.5t-15.5 -43.5t-19 -41l-30 10q9 26 15.5 48.5t12.5 54.5q-10 -2 -14.5 3.5t-3.5 14.5l8 53q3 11 8 15.5t19 4.5h20zM330 702q50 -1 100.5 -5t97.5 -13l-7 -48q-38 3 -69.5 4.5t-62.5 2t-66 0.5q-34 0 -62.5 -2.5
t-49.5 -12.5t-35 -33.5t-19 -66.5q-4 -35 0.5 -57.5t22 -37t52.5 -28.5l140 -55q52 -20 79 -45t35 -59.5t1 -85.5q-11 -74 -41.5 -111t-82.5 -49t-130 -12q-30 0 -83 3t-120 14l8 48q52 -2 86.5 -3.5t61 -2t52.5 -0.5q59 1 96.5 9t58 33.5t28.5 77.5q5 39 0 61t-23.5 36.5
t-53.5 27.5l-142 56q-48 19 -74.5 44.5t-34.5 60.5t-2 82q8 57 27.5 91t50 50t71 21t90.5 5z" />
    <glyph glyph-name="uni0219" unicode="&#x219;" horiz-adv-x="503" 
d="M225 -61q11 0 15.5 -5t2.5 -17l-8 -57q-3 -19 -9.5 -40.5t-16 -43.5t-19.5 -41l-30 10q9 26 15.5 48.5t12.5 54.5q-9 -2 -13.5 3.5t-3.5 14.5l7 53q3 11 8 15.5t20 4.5h19zM264 497q33 0 68 -2.5t68.5 -5t61.5 -6.5l-8 -46q-45 2 -91.5 3.5t-96.5 2.5q-47 0 -76 -3
t-44 -16t-20 -44q-5 -36 11 -51.5t50 -29.5l145 -60q36 -15 58.5 -31t32 -40t4.5 -62q-7 -53 -35 -78t-74.5 -32t-111.5 -7q-38 0 -65 1.5t-53.5 4.5t-62.5 7l8 46q27 -2 54 -3.5t54 -2t53 -0.5q62 1 97.5 6.5t52 20t21.5 43.5q3 25 -4 38.5t-23 22t-39 18.5l-144 60
q-32 14 -54.5 30t-31.5 41t-5 63q7 49 31.5 73t66.5 32t102 7z" />
    <glyph glyph-name="uni021A" unicode="&#x21a;" horiz-adv-x="568" 
d="M245 -61q11 0 15.5 -5t2.5 -17l-8 -57q-3 -19 -9.5 -40.5t-16 -43.5t-19.5 -41l-30 10q9 26 15.5 48.5t12.5 54.5q-10 -2 -14 3.5t-3 14.5l7 53q3 11 8 15.5t20 4.5h19zM372 690l-97 -690h-65l97 690h65zM602 690l-8 -58h-525l8 58h525z" />
    <glyph glyph-name="uni021B" unicode="&#x21b;" horiz-adv-x="364" 
d="M187 -61q12 0 16 -5t2 -17l-8 -57q-3 -19 -9.5 -40.5t-16 -43.5t-19.5 -41l-29 10q9 26 15.5 48.5t11.5 54.5q-9 -2 -13.5 3.5t-3.5 14.5l8 53q2 11 7 15.5t20 4.5h19zM225 631l-72 -512q-5 -37 9 -53t50 -16h81l2 -47q-15 -4 -35 -6.5t-37.5 -3.5t-27.5 -1
q-61 0 -87.5 32t-18.5 90l73 517h63zM368 485l-8 -52h-314l6 47l95 5h221z" />
    <glyph glyph-name="uni022A" unicode="&#x22a;" horiz-adv-x="664" 
d="M387 703q95 0 149.5 -35t71 -114t-2.5 -212q-13 -99 -36.5 -167.5t-59.5 -109.5t-89 -59.5t-125 -18.5q-95 0 -150.5 34.5t-72.5 113.5t1 213q14 98 37 165.5t59.5 109.5t90 61t127.5 19zM383 644q-76 0 -123.5 -28t-74.5 -94t-43 -180q-16 -111 -7 -175.5t48 -92.5
t112 -28q76 0 123 28.5t75.5 94.5t43.5 179q17 113 8 177.5t-48 91.5t-114 27zM332 840q19 0 16 -17l-8 -50q-1 -10 -5.5 -14t-13.5 -4h-19q-18 0 -16 17l8 51q1 8 6 12.5t14 4.5h18zM488 840q11 0 14.5 -4.5t1.5 -12.5l-8 -50q-1 -10 -5.5 -14t-13.5 -4h-19q-19 0 -16 17
l7 51q3 17 21 17h18zM539 940l-6 -45h-248l6 45h248z" />
    <glyph glyph-name="uni022B" unicode="&#x22b;" horiz-adv-x="562" 
d="M306 497q81 0 127 -25.5t61 -82t2 -150.5q-13 -92 -42 -147.5t-80 -80t-131 -24.5t-127 25.5t-62.5 82t-2.5 150.5q13 92 42 147t80.5 80t132.5 25zM306 442q-59 0 -96.5 -18t-59 -62t-32.5 -123q-11 -75 -3 -118t39 -61t89 -18q59 0 96.5 18.5t59 63t32.5 121.5
q11 76 3 118.5t-39 60.5t-89 18zM259 659q19 0 16 -17l-8 -50q-1 -10 -5.5 -14t-13.5 -4h-19q-18 0 -16 17l8 51q1 8 6 12.5t14 4.5h18zM415 659q11 0 14.5 -4.5t1.5 -12.5l-8 -50q-1 -10 -5.5 -14t-13.5 -4h-19q-19 0 -16 17l7 51q3 17 21 17h18zM466 759l-6 -45h-248l6 45
h248z" />
    <glyph glyph-name="uni022C" unicode="&#x22c;" horiz-adv-x="664" 
d="M387 703q95 0 149.5 -35t71 -114t-2.5 -212q-13 -99 -36.5 -167.5t-59.5 -109.5t-89 -59.5t-125 -18.5q-95 0 -150.5 34.5t-72.5 113.5t1 213q14 98 37 165.5t59.5 109.5t90 61t127.5 19zM383 644q-76 0 -123.5 -28t-74.5 -94t-43 -180q-16 -111 -7 -175.5t48 -92.5
t112 -28q76 0 123 28.5t75.5 94.5t43.5 179q17 113 8 177.5t-48 91.5t-114 27zM326 855q24 -2 40.5 -10.5t31 -19.5t29.5 -19.5t36 -10.5q31 -3 45.5 11.5t18.5 44.5l31 -2q-2 -52 -26.5 -78t-60.5 -24q-26 2 -44 11t-33 20t-29 19.5t-32 10.5q-30 3 -44.5 -12.5
t-18.5 -47.5l-32 3q3 55 28.5 81t59.5 23zM541 959l-6 -45h-248l6 45h248z" />
    <glyph glyph-name="uni022D" unicode="&#x22d;" horiz-adv-x="562" 
d="M306 497q81 0 127 -25.5t61 -82t2 -150.5q-13 -92 -42 -147.5t-80 -80t-131 -24.5t-127 25.5t-62.5 82t-2.5 150.5q13 92 42 147t80.5 80t132.5 25zM306 442q-59 0 -96.5 -18t-59 -62t-32.5 -123q-11 -75 -3 -118t39 -61t89 -18q59 0 96.5 18.5t59 63t32.5 121.5
q11 76 3 118.5t-39 60.5t-89 18zM253 675q24 -2 40.5 -10.5t31 -19.5t29.5 -19.5t36 -10.5q31 -3 45.5 11.5t18.5 44.5l31 -2q-2 -52 -26.5 -78t-60.5 -24q-26 2 -44 11t-33 20t-29 19.5t-32 10.5q-30 3 -44.5 -12.5t-18.5 -47.5l-32 3q3 55 28.5 81t59.5 23zM468 779
l-6 -45h-248l6 45h248z" />
    <glyph glyph-name="uni0230" unicode="&#x230;" horiz-adv-x="664" 
d="M387 703q95 0 149.5 -35t71 -114t-2.5 -212q-13 -99 -36.5 -167.5t-59.5 -109.5t-89 -59.5t-125 -18.5q-95 0 -150.5 34.5t-72.5 113.5t1 213q14 98 37 165.5t59.5 109.5t90 61t127.5 19zM383 644q-76 0 -123.5 -28t-74.5 -94t-43 -180q-16 -111 -7 -175.5t48 -92.5
t112 -28q76 0 123 28.5t75.5 94.5t43.5 179q17 113 8 177.5t-48 91.5t-114 27zM541 948l-6 -45h-248l6 45h248zM411 842q9 0 14 -5.5t4 -15.5l-7 -52q-4 -19 -21 -19h-19q-19 0 -18 21l7 52q2 19 20 19h20z" />
    <glyph glyph-name="uni0231" unicode="&#x231;" horiz-adv-x="562" 
d="M306 497q81 0 127 -25.5t61 -82t2 -150.5q-13 -92 -42 -147.5t-80 -80t-131 -24.5t-127 25.5t-62.5 82t-2.5 150.5q13 92 42 147t80.5 80t132.5 25zM306 442q-59 0 -96.5 -18t-59 -62t-32.5 -123q-11 -75 -3 -118t39 -61t89 -18q59 0 96.5 18.5t59 63t32.5 121.5
q11 76 3 118.5t-39 60.5t-89 18zM469 768l-6 -45h-248l6 45h248zM339 662q9 0 14 -5.5t4 -15.5l-7 -52q-4 -19 -21 -19h-19q-19 0 -18 21l7 52q2 19 20 19h20z" />
    <glyph glyph-name="uni0232" unicode="&#x232;" 
d="M595 690l-298 -450h-58l-172 450h67l115 -308q6 -17 12.5 -36t10.5 -38h7q9 18 21 39t22 38l201 305h72zM307 291l-40 -291h-67l42 291h65zM479 841l-6 -48h-273l6 48h273z" />
    <glyph glyph-name="uni0233" unicode="&#x233;" horiz-adv-x="529" 
d="M510 485q-10 -43 -22 -84t-26 -82.5t-31.5 -82.5t-37.5 -81.5t-44 -81.5q-51 -90 -98 -148t-96 -89t-107 -43l-12 44q37 10 69 28.5t63 48.5t61.5 73.5t62.5 103.5q37 65 64.5 126.5t49 126.5t39.5 141h65zM115 485l83 -413q5 -21 26 -21h55l-30 -51h-52q-20 0 -34.5 12
t-18.5 30l-96 443h67zM437 660l-6 -48h-273l6 48h273z" />
    <glyph glyph-name="uni0237" unicode="&#x237;" horiz-adv-x="236" 
d="M176 485l-71 -511q-5 -36 -19.5 -69.5t-37 -61t-50.5 -49.5l-34 29q33 34 52 70.5t26 84.5l72 507h62z" />
    <glyph glyph-name="uni0259" unicode="&#x259;" horiz-adv-x="533" 
d="M221 -12q-70 0 -112 16t-57.5 50t-4.5 87q8 45 28.5 71t56.5 39.5t90 17.5l240 23l-7 -48l-232 -23q-36 -4 -59 -12.5t-35.5 -25.5t-19.5 -47q-9 -43 3.5 -63t41.5 -25.5t71 -5.5q45 0 76.5 7t53.5 27.5t36 58.5t24 100q13 86 2.5 130.5t-45 61t-93.5 16.5
q-28 0 -59.5 -2t-62.5 -5t-56 -6l-5 43q23 9 58 14t72.5 7.5t64.5 2.5q83 0 128.5 -27.5t59.5 -85.5t1 -151q-11 -74 -30 -121.5t-50 -74.5t-75 -38t-104 -11z" />
    <glyph glyph-name="uni02B9" unicode="&#x2b9;" horiz-adv-x="258" 
d="M261 751l-102 -212h-41l90 212h53z" />
    <glyph glyph-name="uni02BA" unicode="&#x2ba;" horiz-adv-x="377" 
d="M380 751l-102 -212h-41l90 212h53zM261 751l-102 -212h-41l90 212h53z" />
    <glyph glyph-name="uni02BB" unicode="&#x2bb;" horiz-adv-x="219" 
d="M141 528q-12 0 -17 6t-3 20l9 64q4 23 11 47.5t17 49.5t21 47l33 -11q-10 -30 -16.5 -56t-13.5 -62q10 2 15.5 -4t3.5 -17l-9 -60q-2 -14 -8 -19t-22 -5h-21z" />
    <glyph glyph-name="uni02BE" unicode="&#x2be;" horiz-adv-x="183" 
d="M82 572q34 0 53 21.5t19 49.5q0 26 -13.5 43t-39.5 18l4 35q40 -3 64 -27.5t24 -64.5q0 -47 -32 -79t-84 -31z" />
    <glyph glyph-name="uni02BF" unicode="&#x2bf;" horiz-adv-x="183" 
d="M212 704q-33 0 -52.5 -21.5t-19.5 -51.5q0 -24 13.5 -41t40.5 -19l-5 -34q-40 2 -64 27t-24 64q0 47 32.5 79t83.5 32z" />
    <glyph glyph-name="circumflex" unicode="&#x2c6;" horiz-adv-x="410" 
d="M293 710l123 -128l-25 -25l-118 101h-8l-148 -101l-20 29l150 124h46z" />
    <glyph glyph-name="caron" unicode="&#x2c7;" horiz-adv-x="410" 
d="M405 717l21 -28l-151 -124h-47l-118 128l27 24l114 -100h8z" />
    <glyph glyph-name="uni02C8" unicode="&#x2c8;" horiz-adv-x="207" 
d="M174 579h-51l22 114h49z" />
    <glyph glyph-name="uni02C9" unicode="&#x2c9;" horiz-adv-x="400" 
d="M395 663l-6 -48h-273l6 48h273z" />
    <glyph glyph-name="uni02CA" unicode="&#x2ca;" horiz-adv-x="301" 
d="M286 719l32 -49l-194 -128l-22 30z" />
    <glyph glyph-name="uni02CB" unicode="&#x2cb;" horiz-adv-x="301" 
d="M127 718l156 -147l-25 -29l-167 131z" />
    <glyph glyph-name="uni02CC" unicode="&#x2cc;" horiz-adv-x="207" 
d="M68 -171h-50l21 115h50z" />
    <glyph glyph-name="breve" unicode="&#x2d8;" horiz-adv-x="369" 
d="M358 694l34 -8q-4 -38 -24.5 -65.5t-54.5 -43t-79 -15.5q-47 0 -79 16t-46 45t-7 66l35 3q-6 -39 20.5 -60t76.5 -21q53 0 86 22.5t38 60.5z" />
    <glyph glyph-name="dotaccent" unicode="&#x2d9;" horiz-adv-x="216" 
d="M179 682q10 0 15 -5.5t4 -16.5l-8 -58q-3 -20 -23 -20h-20q-11 0 -16 6t-4 16l8 58q1 11 6 15.5t16 4.5h22z" />
    <glyph glyph-name="ring" unicode="&#x2da;" horiz-adv-x="297" 
d="M212 739q43 0 69.5 -25.5t26.5 -66.5q0 -47 -31.5 -79t-79.5 -32q-44 0 -70.5 25.5t-26.5 66.5q0 47 32 79t80 32zM211 704q-33 0 -52.5 -21.5t-19.5 -51.5q0 -25 15 -42.5t44 -17.5q33 0 52.5 22t19.5 52q0 25 -15.5 42t-43.5 17z" />
    <glyph glyph-name="ogonek" unicode="&#x2db;" horiz-adv-x="252" 
d="M109 3l32 -3q-27 -26 -50.5 -55.5t-43.5 -65.5q-20 -39 0.5 -50.5t73.5 5.5l8 -28q-47 -19 -78 -19.5t-47 13t-16.5 35.5t11.5 48q13 25 38.5 55t71.5 65z" />
    <glyph glyph-name="tilde" unicode="&#x2dc;" horiz-adv-x="412" 
d="M190 695q24 -2 40.5 -10.5t31 -19t29.5 -19.5t36 -11q31 -3 45.5 11.5t18.5 44.5l31 -2q-2 -52 -26.5 -78.5t-60.5 -23.5q-26 2 -44 11t-33 19.5t-29 19.5t-32 11q-30 3 -44.5 -12.5t-18.5 -47.5l-32 3q3 55 28.5 81t59.5 23z" />
    <glyph glyph-name="hungarumlaut" unicode="&#x2dd;" horiz-adv-x="438" 
d="M240 724l41 -30l-150 -156l-28 22zM396 724l41 -30l-150 -156l-28 22z" />
    <glyph glyph-name="acutecomb" unicode="&#x301;" horiz-adv-x="0" 
d="M-18 719l33 -49l-195 -128l-22 30z" />
    <glyph glyph-name="uni0302" unicode="&#x302;" horiz-adv-x="0" 
d="M-125 710l123 -128l-25 -25l-118 101h-9l-147 -101l-19 29l149 124h46z" />
    <glyph glyph-name="tildecomb" unicode="&#x303;" horiz-adv-x="0" 
d="M-226 695q23 -2 40.5 -10.5t31.5 -19t29.5 -19.5t35.5 -11q31 -3 45.5 11.5t18.5 44.5l32 -2q-3 -52 -27 -78.5t-61 -23.5q-25 2 -44 11t-33.5 19.5t-28.5 19.5t-31 11q-30 3 -45 -12.5t-20 -47.5l-31 3q3 55 28.5 81t59.5 23z" />
    <glyph glyph-name="uni0304" unicode="&#x304;" horiz-adv-x="0" 
d="M-13 663l-7 -48h-272l7 48h272z" />
    <glyph glyph-name="uni0306" unicode="&#x306;" horiz-adv-x="0" 
d="M-15 694l34 -8q-4 -38 -24.5 -65.5t-55 -43t-79.5 -15.5q-46 0 -78 16t-46 45t-7 66l35 3q-6 -39 20.5 -60t75.5 -21q53 0 86.5 22.5t38.5 60.5z" />
    <glyph glyph-name="uni0307" unicode="&#x307;" horiz-adv-x="0" 
d="M-42 682q11 0 16.5 -5.5t3.5 -16.5l-8 -58q-2 -20 -22 -20h-21q-10 0 -15.5 6t-3.5 16l7 58q2 11 6.5 15.5t15.5 4.5h21z" />
    <glyph glyph-name="uni0308" unicode="&#x308;" horiz-adv-x="0" 
d="M-221 688q11 0 15 -5t2 -14l-9 -55q-1 -10 -6 -15t-15 -5h-20q-20 0 -18 19l8 56q2 9 7 14t16 5h20zM-49 688q11 0 15 -5t2 -14l-9 -55q-1 -10 -6 -15t-15 -5h-21q-20 0 -17 19l8 56q2 9 7 14t16 5h20z" />
    <glyph glyph-name="hookabovecomb" unicode="&#x309;" horiz-adv-x="0" 
d="M-129 589q43 9 61.5 33t18.5 54q0 25 -18.5 32.5t-55.5 -2.5l-1 36q54 16 88 1t34 -59q0 -47 -33 -83t-91 -44z" />
    <glyph glyph-name="uni030A" unicode="&#x30a;" horiz-adv-x="0" 
d="M-94 739q44 0 70.5 -25.5t26.5 -66.5q0 -47 -31.5 -79t-79.5 -32q-44 0 -70.5 25.5t-26.5 66.5q0 47 32 79t79 32zM-94 704q-34 0 -53 -21.5t-19 -51.5q0 -25 15 -42.5t44 -17.5q33 0 52 22t19 52q0 25 -15 42t-43 17z" />
    <glyph glyph-name="uni030B" unicode="&#x30b;" horiz-adv-x="0" 
d="M-201 724l40 -30l-149 -156l-29 22zM-46 724l41 -30l-150 -156l-27 22z" />
    <glyph glyph-name="uni030C" unicode="&#x30c;" horiz-adv-x="0" 
d="M-11 717l22 -28l-152 -124h-46l-118 128l25 24l115 -100h8z" />
    <glyph glyph-name="uni030F" unicode="&#x30f;" horiz-adv-x="0" 
d="M-152 724l136 -164l-28 -22l-150 156zM-308 724l136 -164l-28 -22l-149 156z" />
    <glyph glyph-name="uni0311" unicode="&#x311;" horiz-adv-x="0" 
d="M-253 562l-35 8q5 38 25.5 66t54.5 43t78 15q48 0 80 -15.5t45.5 -44t6.5 -66.5l-35 -3q6 39 -20.5 59.5t-75.5 20.5q-53 0 -86.5 -22t-37.5 -61z" />
    <glyph glyph-name="uni0312" unicode="&#x312;" horiz-adv-x="0" 
d="M-126 538q-10 0 -13 4.5t-2 14.5l6 50q4 27 14.5 57.5t23.5 54.5l25 -9q-7 -21 -13.5 -44t-9.5 -48q17 0 14 -17l-7 -45q-2 -10 -6.5 -14t-15.5 -4h-16z" />
    <glyph glyph-name="uni031B" unicode="&#x31b;" horiz-adv-x="0" 
d="M-181 410l1 33q47 2 76.5 32.5t39.5 74.5l47 -11q-8 -40 -32.5 -69t-58.5 -45t-73 -15z" />
    <glyph glyph-name="dotbelowcomb" unicode="&#x323;" horiz-adv-x="0" 
d="M-182 -56q11 0 16 -5.5t4 -16.5l-8 -58q-3 -20 -23 -20h-21q-10 0 -15 6t-4 16l8 58q1 11 5.5 15.5t15.5 4.5h22z" />
    <glyph glyph-name="uni0324" unicode="&#x324;" horiz-adv-x="0" 
d="M-326 -59q11 0 15 -5t2 -15l-9 -54q-1 -11 -6 -15.5t-15 -4.5h-20q-20 0 -18 19l8 55q2 10 7 15t16 5h20zM-154 -59q11 0 15 -5t2 -15l-9 -54q-1 -11 -6 -15.5t-15 -4.5h-21q-20 0 -17 19l8 55q2 10 7 15t16 5h20z" />
    <glyph glyph-name="uni0327" unicode="&#x327;" horiz-adv-x="0" 
d="M-180 -45q34 3 56.5 -2.5t31.5 -21t4 -44.5q-6 -39 -30 -66t-60.5 -39.5t-81.5 -6.5l12 34q46 -1 76.5 22.5t36.5 57.5q3 20 -7.5 27t-45.5 8z" />
    <glyph glyph-name="uni0328" unicode="&#x328;" horiz-adv-x="0" 
d="M-148 3l32 -3q-28 -26 -51.5 -55.5t-42.5 -65.5q-21 -39 0 -50.5t74 5.5l7 -28q-47 -19 -77.5 -19.5t-46.5 13t-17 35.5t11 48q13 25 39 55t72 65z" />
    <glyph glyph-name="uni032E" unicode="&#x32e;" horiz-adv-x="0" 
d="M-118 -40l34 -9q-4 -37 -24.5 -65t-54.5 -43.5t-79 -15.5q-47 0 -79 16t-46 44.5t-7 66.5l35 3q-5 -39 21 -59.5t75 -20.5q53 0 86.5 22t38.5 61z" />
    <glyph glyph-name="uni0331" unicode="&#x331;" horiz-adv-x="0" 
d="M-113 -81l-7 -49h-272l7 49h272z" />
    <glyph glyph-name="uni0394" unicode="&#x394;" horiz-adv-x="621" 
d="M401 690l155 -658l-4 -32h-563l4 32l341 658h67zM360 626q-7 -20 -16 -39t-17 -37l-253 -496h412l-113 498q-4 19 -7 36.5t-6 37.5z" />
    <glyph glyph-name="uni03A9" unicode="&#x3a9;" horiz-adv-x="715" 
d="M413 703q144 0 200 -85.5t33 -254.5q-10 -76 -33.5 -131.5t-63 -98t-97.5 -79.5q16 2 31 2.5t31 0.5h117l-8 -57h-242l6 56q60 38 98 80.5t60 97.5t32 128q14 99 2 161t-53 91.5t-115 29.5q-77 0 -127.5 -30.5t-80.5 -94.5t-44 -164q-11 -78 -4 -131.5t34 -92t72 -76.5
l-7 -55h-243l9 57h113q16 0 32 -0.5t33 -2.5q-44 39 -71.5 83.5t-36 102t1.5 131.5q16 109 53.5 183t103.5 111.5t164 37.5z" />
    <glyph glyph-name="uni03BC" unicode="&#x3bc;" horiz-adv-x="586" 
d="M180 485l-50 -349q-5 -46 13 -67t64 -21q38 0 82.5 21t82 65t52.5 115l-16 -134q-24 -39 -59 -68t-75.5 -44.5t-79.5 -15.5q-46 0 -76.5 19.5t-43 52.5t-7.5 73l50 353h63zM520 485l-53 -383q-4 -28 -0.5 -44.5t26.5 -16.5h42v-38q-17 -5 -36 -8.5t-35 -3.5
q-38 0 -52.5 22t-8.5 66l5 37l-1 16l50 353h63zM122 81l-23 -167l-26 -111h-52l51 365z" />
    <glyph glyph-name="pi" unicode="&#x3c0;" horiz-adv-x="638" 
d="M538 485l-68 -485h-63l68 485h63zM217 485l-68 -485h-63l68 485h63zM639 485l-8 -52h-584l7 52h585z" />
    <glyph glyph-name="uni0400" unicode="&#x400;" 
d="M260 691h100.5t100 -1.5t96.5 -4.5l-9 -51h-279q-37 0 -56 -18t-24 -55l-60 -435q-5 -34 10 -52t50 -18h277l-1 -51q-46 -3 -94 -4t-96 -1.5t-95 -0.5q-65 0 -95.5 34.5t-22.5 91.5l64 454q7 51 41 81.5t93 30.5zM118 392h356l-7 -51l-357 -1zM251 908l156 -147l-25 -29
l-167 131z" />
    <glyph glyph-name="uni0401" unicode="&#x401;" 
d="M260 691h100.5t100 -1.5t96.5 -4.5l-9 -51h-279q-37 0 -56 -18t-24 -55l-60 -435q-5 -34 10 -52t50 -18h277l-1 -51q-46 -3 -94 -4t-96 -1.5t-95 -0.5q-65 0 -95.5 34.5t-22.5 91.5l64 454q7 51 41 81.5t93 30.5zM118 392h356l-7 -51l-357 -1zM312 886q11 0 15 -5t2 -14
l-8 -55q-1 -10 -6 -15t-16 -5h-21q-19 0 -17 19l8 56q2 9 7 14t16 5h20zM483 886q12 0 15.5 -5t2.5 -14l-8 -55q-1 -10 -6 -15t-16 -5h-21q-19 0 -17 19l8 56q2 9 7 14t15 5h20z" />
    <glyph glyph-name="uni0402" unicode="&#x402;" horiz-adv-x="746" 
d="M602 690l-7 -58h-525l8 58h524zM372 690l-97 -690h-65l97 690h65zM548 438q52 0 87.5 -18.5t51 -64.5t3.5 -128q-13 -89 -51 -140t-97.5 -71t-136.5 -18l-3 47q65 5 110.5 21t73.5 54t39 107q10 65 0.5 98t-34 44.5t-60.5 11.5q-41 0 -75.5 -8.5t-69 -26t-77.5 -45.5
l-2 51q47 33 87.5 52t78.5 26.5t75 7.5z" />
    <glyph glyph-name="uni0403" unicode="&#x403;" horiz-adv-x="515" 
d="M259 691q50 0 98 -0.5t96 -1.5t94 -4l-10 -51h-259q-38 0 -59 -16.5t-27 -59.5l-78 -558h-65l80 572q9 61 45 90t85 29zM484 908l32 -49l-194 -128l-22 30z" />
    <glyph glyph-name="uni0404" unicode="&#x404;" horiz-adv-x="570" 
d="M400 702q60 0 101 -5.5t75 -14.5l-11 -49q-28 4 -54.5 6t-52 3t-54.5 1q-63 0 -108 -13.5t-75.5 -47t-49.5 -92.5t-32 -148q-15 -112 -5.5 -175.5t50 -90t115.5 -29.5q59 -1 106.5 3t81.5 9l5 -50q-38 -10 -82.5 -16.5t-110.5 -4.5q-102 3 -157.5 38.5t-70.5 113.5t2 208
q18 135 56 212t104 109.5t167 32.5zM104 392h345l-6 -51l-347 -1z" />
    <glyph glyph-name="uni0405" unicode="&#x405;" horiz-adv-x="558" 
d="M330 702q50 -1 100.5 -5t97.5 -13l-7 -48q-38 3 -69.5 4.5t-62.5 2t-66 0.5q-34 0 -62.5 -2.5t-49.5 -12.5t-35 -33.5t-19 -66.5q-4 -35 0.5 -57.5t22 -37t52.5 -28.5l140 -55q52 -20 79 -45t35 -59.5t1 -85.5q-11 -74 -41.5 -111t-82.5 -49t-130 -12q-30 0 -83 3
t-120 14l8 48q52 -2 86.5 -3.5t61 -2t52.5 -0.5q59 1 96.5 9t58 33.5t28.5 77.5q5 39 0 61t-23.5 36.5t-53.5 27.5l-142 56q-48 19 -74.5 44.5t-34.5 60.5t-2 82q8 57 27.5 91t50 50t71 21t90.5 5z" />
    <glyph glyph-name="uni0406" unicode="&#x406;" horiz-adv-x="249" 
d="M214 690l-97 -690h-66l97 690h66z" />
    <glyph glyph-name="uni0407" unicode="&#x407;" horiz-adv-x="250" 
d="M214 690l-97 -690h-66l97 690h66zM130 865q11 0 15 -5t2 -14l-8 -55q-1 -10 -6 -15t-16 -5h-21q-19 0 -17 19l8 56q2 9 7 14t16 5h20zM301 865q12 0 15.5 -5t2.5 -14l-8 -55q-1 -10 -6 -15t-16 -5h-21q-19 0 -17 19l8 56q2 9 7 14t15 5h20z" />
    <glyph glyph-name="uni0408" unicode="&#x408;" horiz-adv-x="333" 
d="M300 690l-79 -557q-9 -70 -46 -105.5t-99 -35.5q-12 0 -27.5 1.5t-30.5 4t-25 5.5l13 45h50q44 0 69.5 22t31.5 64l77 556h66z" />
    <glyph glyph-name="uni0409" unicode="&#x409;" horiz-adv-x="969" 
d="M586 690l-7 -54h-185q-40 0 -60.5 -16.5t-30.5 -61.5q-16 -74 -28.5 -131t-23.5 -101t-23.5 -79t-27.5 -65.5t-35 -60.5q-22 -32 -48 -57.5t-56.5 -42t-66.5 -22.5l-4 58q23 7 42.5 18t37.5 28.5t36 41.5q18 27 31.5 53.5t25 58t22.5 74.5t24.5 102t30.5 140
q14 62 47.5 89.5t90.5 27.5h208zM600 690l-97 -690h-65l97 690h65zM715 402q82 0 127.5 -20.5t60.5 -66.5t4 -123q-10 -78 -37 -122t-75 -61t-123 -17q-55 0 -93.5 0.5t-70.5 2.5t-69 5l19 53q9 -1 29.5 -1.5t47 -1t55 -0.5h54.5q51 0 85.5 5.5t57 21.5t35.5 45.5t20 77.5
q8 54 0 86t-38.5 46.5t-92.5 14.5h-211l8 55h207z" />
    <glyph glyph-name="uni040A" unicode="&#x40a;" horiz-adv-x="977" 
d="M724 401q82 0 127.5 -20.5t60.5 -66t4 -122.5q-10 -78 -37 -122t-75 -61t-123 -17q-56 0 -94.5 0.5t-70.5 2.5t-69 5l20 53q21 -1 75.5 -2t129.5 -1q61 0 96.5 12.5t54.5 45t28 92.5q8 53 0 85.5t-38.5 46.5t-92.5 14h-211l8 55h207zM214 690l-97 -690h-65l97 690h65z
M514 400l-8 -55h-348l8 55h348zM609 690l-97 -690h-65l97 690h65z" />
    <glyph glyph-name="uni040B" unicode="&#x40b;" horiz-adv-x="774" 
d="M602 690l-8 -58h-525l8 58h525zM372 690l-97 -690h-65l97 690h65zM580 438q80 0 113 -38t22 -115l-40 -285h-65l38 275q9 58 -11.5 82t-77.5 24q-43 0 -81 -9t-78 -29t-92 -54l-2 52q77 55 146 76t128 21z" />
    <glyph glyph-name="uni040C" unicode="&#x40c;" horiz-adv-x="588" 
d="M593 690q-25 -51 -49.5 -98t-49.5 -87.5t-52 -71.5t-57.5 -50t-66.5 -23l-2 -2q38 -4 64.5 -23t45.5 -50.5t33 -74.5t26.5 -96t26.5 -114h-66q-18 75 -32.5 136t-35 105.5t-52 68t-82.5 23.5l5 53q46 0 83.5 25t69.5 67.5t62 97t61 114.5h68zM213 690l-31 -224
q-4 -30 -10 -54t-15 -52q2 -28 0.5 -52t-6.5 -54l-35 -254h-65l97 690h65zM285 386l-8 -53h-137l8 53h137zM492 908l32 -49l-194 -128l-22 30z" />
    <glyph glyph-name="uni040D" unicode="&#x40d;" horiz-adv-x="686" 
d="M649 690l-97 -690h-63l71 505q4 26 8 50.5t9 48.5h-3q-11 -17 -22.5 -35.5t-22.5 -33.5l-408 -535h-70l97 690h64l-71 -503q-4 -25 -7.5 -49t-10.5 -52h3q13 20 26 39t24 35l403 530h70zM296 907l156 -147l-25 -29l-167 131z" />
    <glyph glyph-name="uni040E" unicode="&#x40e;" horiz-adv-x="552" 
d="M590 690l-264 -525q-21 -43 -45 -81t-53 -63t-68 -28q-17 -1 -38 1t-41 5.5t-35 7.5l10 47q48 -5 77 -4.5t48.5 12t36 37.5t41.5 71l29 53l10 21l222 446h70zM146 690l91 -416q4 -16 22 -16h55l-3 -56h-72q-24 0 -38.5 12t-18.5 33l-102 443h66zM467 881l34 -8
q-4 -38 -24.5 -65.5t-54.5 -43t-79 -15.5q-47 0 -79 16t-46 45t-7 66l35 3q-6 -39 20.5 -60t76.5 -21q53 0 86 22.5t38 60.5z" />
    <glyph glyph-name="uni040F" unicode="&#x40f;" horiz-adv-x="671" 
d="M214 690l-97 -690h-65l97 690h65zM504 54l-7 -54h-406l7 54h406zM634 690l-97 -690h-65l97 690h65zM330 7l-25 -158h-46l18 158h53z" />
    <glyph glyph-name="uni0410" unicode="&#x410;" horiz-adv-x="612" 
d="M400 690q9 0 16 -5.5t8 -14.5l137 -670h-66l-112 581q-2 15 -4 29.5t-5 28.5h-30q-6 -14 -13 -29t-13 -29l-275 -581h-70l326 672q3 10 10 14t16 4h75zM482 286l-8 -58h-350l8 58h350z" />
    <glyph glyph-name="uni0411" unicode="&#x411;" horiz-adv-x="594" 
d="M561 690l-13 -54h-342l-89 -636h-66l97 690q52 3 103.5 4.5t102.5 1.5q56 0 105.5 -1.5t101.5 -4.5zM332 385q83 0 129 -19.5t61 -63t4 -117.5q-11 -77 -37.5 -119t-74.5 -58.5t-124 -16.5q-56 0 -95.5 1t-72.5 3t-71 5l21 52q21 -1 77 -2t134 -1q60 0 95.5 11.5t55 42.5
t26.5 90q8 53 0 83.5t-38.5 43t-93.5 12.5h-216l7 53h213z" />
    <glyph glyph-name="uni0412" unicode="&#x412;" horiz-adv-x="615" 
d="M359 698q83 0 131.5 -16t66 -56t7.5 -111q-10 -73 -42.5 -111.5t-95.5 -44.5l-1 -4q76 -7 99.5 -56t11.5 -130q-10 -70 -36 -109t-74.5 -53.5t-126.5 -14.5q-58 0 -99 0.5t-76 2.5t-73 5l20 52q22 -1 80.5 -2t138.5 -1q61 0 98.5 11t57 40.5t26.5 83.5q9 59 -2.5 90.5
t-45.5 44t-96 13.5h-217l8 51h212q55 1 90 12t53.5 39.5t25.5 79.5q8 53 -3.5 80.5t-45.5 37t-94 9.5h-87h-67t-45 -1l-10 50q34 4 64 5.5t65 2t82 0.5zM212 690l-97 -690h-64l97 690h64z" />
    <glyph glyph-name="uni0413" unicode="&#x413;" horiz-adv-x="515" 
d="M259 691q50 0 98 -0.5t96 -1.5t94 -4l-10 -51h-259q-38 0 -59 -16.5t-27 -59.5l-78 -558h-65l80 572q9 61 45 90t85 29z" />
    <glyph glyph-name="uni0414" unicode="&#x414;" horiz-adv-x="675" 
d="M616 690l-97 -690h-65l89 636h-162q-37 0 -58.5 -17.5t-28.5 -59.5q-18 -98 -44 -196t-65.5 -189.5t-99.5 -171.5h-73q63 83 105 176.5t69 193.5t45 201q11 60 46 88.5t92 28.5h247zM41 7l-31 -158h-50l22 158h59zM611 54l-8 -54h-622l7 54h623zM604 7l-22 -158h-50
l14 158h58z" />
    <glyph glyph-name="uni0415" unicode="&#x415;" 
d="M260 691h100.5t100 -1.5t96.5 -4.5l-9 -51h-279q-37 0 -56 -18t-24 -55l-60 -435q-5 -34 10 -52t50 -18h277l-1 -51q-46 -3 -94 -4t-96 -1.5t-95 -0.5q-65 0 -95.5 34.5t-22.5 91.5l64 454q7 51 41 81.5t93 30.5zM118 392h356l-7 -51l-357 -1z" />
    <glyph glyph-name="uni0416" unicode="&#x416;" horiz-adv-x="898" 
d="M175 690q14 -61 27 -115.5t31 -97t44.5 -67t66.5 -24.5l-1 -53q-45 0 -80 -22t-65 -65t-61.5 -105t-70.5 -141h-70q30 64 56 118.5t51 98t52 74.5t57 48.5t66 20.5l1 3q-31 4 -53.5 23t-39 49.5t-29.5 71t-24 87t-21 96.5h63zM451 386l-7 -53h-134l8 53h133zM541 690
l-32 -224q-4 -29 -9 -54t-15 -54q0 -27 -1 -53t-5 -51l-35 -254h-64l37 256q4 27 10 53t15 55q-1 27 0 51.5t5 53.5l31 221h63zM614 386l-7 -53h-130l6 53h131zM902 690q-23 -50 -45.5 -98t-45 -88t-47.5 -71.5t-53.5 -50t-62.5 -22.5l-1 -2q33 -4 56 -22.5t40 -50t30 -74.5
t24 -96t25 -115h-65q-17 77 -31 138.5t-31 105t-44.5 66.5t-72.5 23l5 53q41 0 74.5 24.5t62.5 67t57 97t58 115.5h67z" />
    <glyph glyph-name="uni0417" unicode="&#x417;" horiz-adv-x="545" 
d="M290 698q78 0 126.5 -16t67.5 -55.5t9 -111.5q-10 -73 -42.5 -111.5t-95.5 -44.5l-2 -4q74 -7 98.5 -55t12.5 -131q-9 -69 -34.5 -107.5t-73.5 -54t-128 -15.5q-45 0 -84.5 2t-75 6.5t-68.5 11.5l10 47q32 -3 86 -7.5t123 -4.5q59 0 95.5 11t56.5 41t28 85q8 59 -3 90.5
t-44.5 44.5t-94.5 13h-113l6 51h110q54 0 88.5 11.5t53 40t25.5 79.5q8 54 -3 82t-44 37.5t-94 9.5q-40 0 -73.5 -2t-59.5 -4t-44 -4l-3 50q46 8 90 11.5t94 3.5z" />
    <glyph glyph-name="uni0418" unicode="&#x418;" horiz-adv-x="686" 
d="M649 690l-97 -690h-63l71 505q4 26 8 50.5t9 48.5h-3q-11 -17 -22.5 -35.5t-22.5 -33.5l-408 -535h-70l97 690h64l-71 -503q-4 -25 -7.5 -49t-10.5 -52h3q13 20 26 39t24 35l403 530h70z" />
    <glyph glyph-name="uni0419" unicode="&#x419;" horiz-adv-x="686" 
d="M649 690l-97 -690h-63l71 505q4 26 8 50.5t9 48.5h-3q-11 -17 -22.5 -35.5t-22.5 -33.5l-408 -535h-70l97 690h64l-71 -503q-4 -25 -7.5 -49t-10.5 -52h3q13 20 26 39t24 35l403 530h70zM516 880h51q-4 -38 -25.5 -68t-56.5 -47t-82 -17q-45 0 -76.5 17t-44 47t-5.5 68
h50q-7 -45 15.5 -70t66.5 -25q43 0 71.5 25t35.5 70z" />
    <glyph glyph-name="uni041A" unicode="&#x41a;" horiz-adv-x="588" 
d="M593 690q-25 -51 -49.5 -98t-49.5 -87.5t-52 -71.5t-57.5 -50t-66.5 -23l-2 -2q38 -4 64.5 -23t45.5 -50.5t33 -74.5t26.5 -96t26.5 -114h-66q-18 75 -32.5 136t-35 105.5t-52 68t-82.5 23.5l5 53q46 0 83.5 25t69.5 67.5t62 97t61 114.5h68zM213 690l-31 -224
q-4 -30 -10 -54t-15 -52q2 -28 0.5 -52t-6.5 -54l-35 -254h-65l97 690h65zM285 386l-8 -53h-137l8 53h137z" />
    <glyph glyph-name="uni041B" unicode="&#x41b;" horiz-adv-x="644" 
d="M593 690l-7 -54h-207q-40 0 -61 -17t-30 -61q-17 -77 -30.5 -135t-25 -102t-23 -78t-26 -63.5t-33.5 -58.5q-21 -35 -48 -61t-58 -41.5t-65 -19.5l-3 54q19 8 37.5 18t38 27.5t39.5 47.5q17 26 30.5 51.5t25 56.5t22.5 74t24.5 103t31.5 144q14 61 48.5 88t92.5 27h227z
M607 690l-97 -690h-65l97 690h65z" />
    <glyph glyph-name="uni041C" unicode="&#x41c;" horiz-adv-x="869" 
d="M786 690q14 0 21 -8.5t6 -22.5l-64 -659h-66l64 635h-21l-255 -542q-5 -11 -12 -16t-19 -5h-66q-12 0 -19 6.5t-10 17.5l-106 539h-22l-115 -635h-65l121 662q3 14 10.5 21t20.5 7h77q11 0 18 -6.5t8 -17.5l91 -450q5 -24 8.5 -47.5t7.5 -46.5h22q10 24 21 48t21 46
l213 452q6 12 13 16.5t19 4.5z" />
    <glyph glyph-name="uni041D" unicode="&#x41d;" horiz-adv-x="663" 
d="M214 690l-97 -690h-66l97 690h66zM531 397l-7 -57h-367l8 57h366zM627 690l-97 -690h-65l97 690h65z" />
    <glyph glyph-name="uni041E" unicode="&#x41e;" horiz-adv-x="664" 
d="M387 703q95 0 149.5 -35t71 -114t-2.5 -212q-13 -99 -36.5 -167.5t-59.5 -109.5t-89 -59.5t-125 -18.5q-95 0 -150.5 34.5t-72.5 113.5t1 213q14 98 37 165.5t59.5 109.5t90 61t127.5 19zM383 644q-76 0 -123.5 -28t-74.5 -94t-43 -180q-16 -111 -7 -175.5t48 -92.5
t112 -28q76 0 123 28.5t75.5 94.5t43.5 179q17 113 8 177.5t-48 91.5t-114 27z" />
    <glyph glyph-name="uni041F" unicode="&#x41f;" horiz-adv-x="666" 
d="M629 690l-97 -690h-65l97 690h65zM214 690l-97 -690h-66l97 690h66zM575 690l-8 -54h-369l8 54h369z" />
    <glyph glyph-name="uni0420" unicode="&#x420;" horiz-adv-x="585" 
d="M377 699q78 0 123 -20t60.5 -66.5t3.5 -127.5q-11 -85 -38 -130t-74.5 -62t-124.5 -17q-39 0 -75.5 1.5t-66.5 4.5t-51 5.5t-30 4.5l5 41h107.5h108.5q58 0 92.5 14t53.5 47.5t28 96.5q9 60 -0.5 93t-39.5 45t-84 12q-80 0 -138.5 -0.5t-79.5 -2.5l-9 52q37 4 69.5 6
t69.5 2.5t90 0.5zM214 690l-97 -690h-66l97 690h66z" />
    <glyph glyph-name="uni0421" unicode="&#x421;" horiz-adv-x="563" 
d="M384 702q43 0 74.5 -2t56.5 -6t52 -12l-12 -49q-28 4 -53 6.5t-52.5 3.5t-65.5 1q-57 0 -97 -15t-68.5 -49t-47 -92t-29.5 -146q-16 -111 -7.5 -175.5t47 -92t110.5 -28.5q64 0 107.5 3t85.5 9l5 -49q-44 -11 -88.5 -16t-109.5 -5q-98 0 -152 36.5t-69.5 116t2.5 207.5
q14 98 37.5 166t59.5 109.5t88.5 60t125.5 18.5z" />
    <glyph glyph-name="uni0422" unicode="&#x422;" horiz-adv-x="568" 
d="M372 690l-97 -690h-65l97 690h65zM602 690l-8 -58h-525l8 58h525z" />
    <glyph glyph-name="uni0423" unicode="&#x423;" horiz-adv-x="552" 
d="M590 690l-264 -525q-21 -43 -45 -81t-53 -63t-68 -28q-17 -1 -38 1t-41 5.5t-35 7.5l10 47q48 -5 77 -4.5t48.5 12t36 37.5t41.5 71l29 53l10 21l222 446h70zM146 690l91 -416q4 -16 22 -16h55l-3 -56h-72q-24 0 -38.5 12t-18.5 33l-102 443h66z" />
    <glyph glyph-name="uni0424" unicode="&#x424;" horiz-adv-x="819" 
d="M456 646q129 0 203 -28t100.5 -92.5t10.5 -175.5q-11 -82 -37.5 -137.5t-72 -89t-114 -48.5t-165.5 -15q-129 0 -203 28t-99.5 92.5t-9.5 175.5q11 82 37 137.5t72 89t114.5 48.5t163.5 15zM456 591q-80 0 -137 -11.5t-94 -39t-58.5 -74t-31.5 -116.5q-9 -69 -1.5 -114.5
t36.5 -71.5t81 -37.5t131 -11.5q81 0 137.5 12t94 39.5t59 74t30.5 115.5q14 92 -5 142.5t-77.5 71.5t-164.5 21zM508 746l-16 -116l-5 -17l-73 -516v-16l-17 -122h-65l16 122l5 16l73 516v17l16 116h66z" />
    <glyph glyph-name="uni0425" unicode="&#x425;" horiz-adv-x="602" 
d="M166 690l143 -338l-246 -352h-76l254 358l-143 332h68zM360 385l-8 -52h-87l8 52h87zM618 690l-238 -332l154 -358h-68l-153 366l232 324h73z" />
    <glyph glyph-name="uni0426" unicode="&#x426;" horiz-adv-x="680" 
d="M214 690l-97 -690h-65l97 690h65zM616 54l-7 -54h-500l8 54h499zM622 690l-97 -690h-65l97 690h65zM552 7l57 -7l-21 -151h-50z" />
    <glyph glyph-name="uni0427" unicode="&#x427;" horiz-adv-x="615" 
d="M183 690l-37 -270q-8 -57 11.5 -80.5t74.5 -23.5q46 0 87 12t81 32.5t81 46.5l2 -50q-46 -33 -94 -55.5t-93 -33.5t-85 -11q-76 0 -109.5 35.5t-23.5 118.5l39 279h66zM579 690l-97 -690h-65l97 690h65z" />
    <glyph glyph-name="uni0428" unicode="&#x428;" horiz-adv-x="918" 
d="M212 690l-97 -690h-64l97 690h64zM750 54l-8 -54h-635l8 54h635zM547 690l-97 -690h-64l97 690h64zM882 690l-97 -690h-65l97 690h65z" />
    <glyph glyph-name="uni0429" unicode="&#x429;" horiz-adv-x="933" 
d="M213 690l-97 -690h-64l97 690h64zM869 54l-8 -54h-753l8 54h753zM544 690l-97 -690h-65l97 690h65zM874 690l-96 -690h-64l97 690h63zM805 7l56 -7l-21 -151h-50z" />
    <glyph glyph-name="uni042A" unicode="&#x42a;" horiz-adv-x="738" 
d="M484 402q82 0 128 -20.5t60.5 -66.5t4.5 -123q-10 -78 -37 -122t-75 -61t-124 -17q-55 0 -95 0.5t-72.5 2.5t-70.5 5l20 53q21 -1 76.5 -2t133.5 -1q60 0 96 12.5t55 45t28 92.5q7 54 -0.5 86t-38.5 46.5t-92 14.5h-217l8 55h212zM365 690l-97 -690h-65l97 690h65z
M335 690l-9 -58h-258l8 58h259z" />
    <glyph glyph-name="uni042B" unicode="&#x42b;" horiz-adv-x="833" 
d="M335 402q82 0 127 -20.5t60.5 -66.5t4.5 -123q-11 -78 -37.5 -122t-74.5 -61t-123 -17q-57 0 -97 0.5t-73 2.5t-71 5l21 53q22 -1 77.5 -2t133.5 -1q60 0 96 12.5t55 45t27 92.5q8 54 0.5 86t-38.5 46.5t-93 14.5h-216l8 55h213zM214 690l-97 -690h-66l97 690h66z
M796 690l-97 -690h-65l97 690h65z" />
    <glyph glyph-name="uni042C" unicode="&#x42c;" horiz-adv-x="589" 
d="M335 402q82 0 127 -20.5t60.5 -66.5t4.5 -123q-11 -78 -37.5 -122t-74.5 -61t-123 -17q-57 0 -97 0.5t-73 2.5t-71 5l21 53q22 -1 77.5 -2t133.5 -1q60 0 96 12.5t55 45t27 92.5q8 54 0.5 86t-38.5 46.5t-93 14.5h-216l8 55h213zM214 690l-97 -690h-66l98 690h65z" />
    <glyph glyph-name="uni042D" unicode="&#x42d;" horiz-adv-x="572" 
d="M277 702q105 0 162.5 -34t74.5 -112.5t-1 -213.5q-18 -131 -54.5 -208t-100.5 -110.5t-164 -35.5q-66 -1 -111 5.5t-81 16.5l12 49q33 -6 78.5 -9.5t102.5 -2.5q78 2 127.5 30.5t78.5 94t45 176.5q14 91 10.5 148.5t-25 89.5t-60.5 44.5t-98 12.5q-31 0 -58 -1t-53.5 -3
t-56.5 -6l-5 50q38 9 80 14t97 5zM493 392l-8 -52l-345 1l6 50z" />
    <glyph glyph-name="uni042E" unicode="&#x42e;" horiz-adv-x="912" 
d="M634 703q94 0 149 -34.5t72 -113t-2 -213.5q-13 -100 -36.5 -168t-60 -109t-89 -59.5t-125.5 -18.5q-71 0 -117.5 19t-71 61.5t-29 111.5t9.5 169t37 168t58.5 109t85.5 59.5t119 18.5zM214 690l-97 -690h-65l97 690h65zM376 386l-8 -54h-212l7 54h213zM634 644
q-72 0 -118.5 -28.5t-73.5 -94.5t-43 -179q-16 -111 -8 -175.5t45 -92.5t106 -28q75 0 123 28.5t76.5 94.5t44.5 179q16 111 6.5 176t-47 92.5t-111.5 27.5z" />
    <glyph glyph-name="uni042F" unicode="&#x42f;" horiz-adv-x="607" 
d="M336 699q55 0 95 -1t73 -3t67 -5l-19 -52q-21 2 -78.5 2.5t-136.5 0.5q-74 0 -113 -28.5t-51 -105.5q-12 -75 14.5 -119t102.5 -44h219l-2 -53q-22 -1 -44 -1.5t-47.5 -1t-58 -1t-75.5 -0.5q-41 0 -67.5 -19t-45.5 -62l-92 -206h-72l96 213q16 32 32.5 52.5t34.5 31.5
t39 14l1 4q-43 9 -68 37.5t-33 70.5t-1 92q10 68 37.5 108t75.5 58t117 18zM571 690l-97 -690h-66l97 690h66z" />
    <glyph glyph-name="uni0430" unicode="&#x430;" horiz-adv-x="572" 
d="M304 497q25 0 51 -1.5t54 -4.5t54.5 -6t51.5 -8l-28 -40q-54 2 -95.5 4t-70.5 2q-54 0 -88.5 -7.5t-55 -28.5t-33 -61.5t-22.5 -104.5q-11 -76 -9.5 -119t20.5 -60.5t59 -17.5q35 0 73 16t78 47t81 75l11 -36q-31 -46 -73 -81.5t-88 -56t-93 -20.5q-59 0 -90.5 25.5
t-39 82.5t6.5 151q12 79 31 128.5t47.5 76t70 36t97.5 9.5zM451 477h64l-68 -477h-49l10 117l-6 7z" />
    <glyph glyph-name="uni0431" unicode="&#x431;" horiz-adv-x="567" 
d="M527 729l10 -54q-45 -22 -79 -31t-65 -13.5t-66 -13.5q-61 -16 -95 -42.5t-51.5 -63t-29.5 -84.5q-4 -16 -9 -34.5t-9 -33.5h2q12 23 33.5 49t60.5 44t103 18q77 0 116 -27t49.5 -79.5t0.5 -130.5q-10 -80 -36 -134.5t-75.5 -82.5t-131.5 -28q-63 0 -102 15t-59 43
t-26.5 67t-2.5 87t11 103q12 82 26.5 143t38.5 104t63.5 71.5t101.5 46.5q38 11 71 16.5t69 14.5t81 30zM318 416q-68 0 -105.5 -22.5t-55 -63.5t-24.5 -97q-10 -71 -2 -113t38.5 -59.5t87.5 -17.5q52 0 87 17.5t56.5 61t32.5 118.5q9 68 2 106.5t-35 54t-82 15.5z" />
    <glyph glyph-name="uni0432" unicode="&#x432;" horiz-adv-x="550" 
d="M306 497q41 0 76.5 -4.5t61.5 -17t38 -37.5t4 -68q-5 -24 -19.5 -46t-41 -37.5t-68.5 -21.5l-1 -2q71 -4 97 -41t16 -105q-7 -49 -31 -77.5t-70 -40.5t-119 -12q-65 0 -107.5 10.5t-65.5 38.5t-27.5 79.5t7.5 133.5q12 81 32 130.5t49 75t71 34t98 8.5zM299 445
q-42 0 -72 -6t-50.5 -25.5t-34.5 -59.5t-24 -108q-10 -69 -8.5 -110t16 -62t43 -27.5t72.5 -6.5q55 0 89.5 8t52.5 28t24 58q5 39 -5.5 64t-42 35t-90.5 2l-164 -22l5 47l161 21q57 7 88.5 18.5t45.5 29.5t19 42q6 31 -4 46.5t-39.5 21.5t-81.5 6z" />
    <glyph glyph-name="uni0433" unicode="&#x433;" horiz-adv-x="514" 
d="M280 497q34 1 67.5 -0.5t60 -12t41 -34.5t9.5 -66q-4 -35 -19.5 -59t-36 -39.5t-41.5 -25t-38 -15.5l-153 -56q-34 -13 -53 -30t-23 -47q-4 -31 8.5 -45.5t38.5 -19t61 -4.5q41 1 78 5t75 12.5t78 21.5l3 -51q-47 -18 -89.5 -27.5t-79 -13t-66.5 -3.5q-53 0 -93.5 10.5
t-62 38t-14.5 77.5q6 49 36 79t89 52l147 53q47 16 68.5 36t24.5 49q4 28 -7.5 41.5t-40 17.5t-75.5 2q-24 -1 -46 -3t-44 -5.5t-47 -8t-56 -11.5l-2 50q49 14 101 22t101 10z" />
    <glyph glyph-name="uni0434" unicode="&#x434;" horiz-adv-x="561" 
d="M166 710q62 -7 117.5 -21.5t100 -43t73.5 -75.5t38.5 -118.5t-5.5 -173.5q-9 -62 -24.5 -115t-43 -92.5t-72 -61.5t-112.5 -22q-73 0 -116.5 25.5t-59 77.5t-5.5 132q14 104 66.5 164.5t159.5 60.5q22 0 46 -4t48.5 -15t46 -31.5t39.5 -55.5l-8 -28q-22 33 -49 50.5
t-56 24t-57 6.5q-56 0 -90.5 -22t-53 -61.5t-26.5 -93.5q-14 -97 15 -136t102 -39q64 0 100.5 28.5t55.5 84t30 135.5q15 93 7.5 155.5t-31.5 102.5t-61.5 62.5t-84.5 34t-100 19.5z" />
    <glyph glyph-name="uni0435" unicode="&#x435;" horiz-adv-x="533" 
d="M313 497q70 0 111.5 -16t57.5 -49.5t4 -88.5q-8 -44 -28.5 -70t-56 -39t-90.5 -18l-239 -24l6 49l232 24q37 4 59.5 12t35.5 25t19 47q9 43 -3.5 63t-41.5 25.5t-71 5.5q-45 0 -76.5 -7.5t-53.5 -27.5t-36 -58.5t-24 -100.5q-12 -85 -1.5 -129.5t45 -61t92.5 -16.5
q28 0 60 2t62.5 5t55.5 6l5 -43q-22 -8 -57.5 -13.5t-72.5 -8t-65 -2.5q-82 0 -128 27.5t-60 85.5t-1 150q11 74 30 122t50 75t75 38t105 11z" />
    <glyph glyph-name="uni0436" unicode="&#x436;" horiz-adv-x="758" 
d="M140 485q11 -45 22.5 -83t27 -66t38 -44t56.5 -16l-2 -48q-37 0 -64.5 -14.5t-51.5 -43.5t-48.5 -72t-56.5 -98h-65q25 46 46.5 84.5t41.5 68.5t40.5 51.5t45 33.5t56.5 16v1q-27 4 -47.5 16.5t-35 32.5t-25.5 47.5t-20 61t-19 72.5h61zM365 276l-7 -48h-102l7 48h102z
M438 485l-21 -153q-3 -21 -7.5 -40.5t-13.5 -41.5q1 -18 1 -37.5t-2 -37.5l-25 -175h-58l26 178q2 18 7.5 37.5t12.5 40.5q-3 20 -2.5 39t3.5 40l22 150h57zM493 276l-7 -48h-96l7 48h96zM737 485q-21 -39 -40 -73t-38 -62t-39 -49t-43.5 -33t-52.5 -15v-2q29 -3 49.5 -15.5
t35.5 -33.5t26.5 -50.5t22 -67.5t23.5 -84h-61q-16 55 -28 98t-27 72t-39 43.5t-61 14.5l2 48q33 0 60.5 16t51 44t46.5 66t48 83h64z" />
    <glyph glyph-name="uni0437" unicode="&#x437;" horiz-adv-x="492" 
d="M228 492q76 0 122.5 -11t65 -39.5t11.5 -80.5q-7 -51 -32.5 -78.5t-85.5 -32.5l-2 -3q64 -5 88 -36.5t15 -93.5q-7 -52 -30.5 -79t-69 -36.5t-119.5 -9.5q-46 0 -97 3t-94 10l10 49q18 -2 47 -3.5t63.5 -3t66.5 -1.5q59 0 92 7t48.5 26t19.5 56q7 52 -21 70t-107 19
l-110 1l6 46l106 1q50 0 79.5 7.5t44.5 26.5t20 52q4 34 -6 51t-41.5 23t-91.5 6q-40 0 -80.5 -2t-65.5 -5l-3 48q42 9 81.5 11t69.5 2z" />
    <glyph glyph-name="uni0438" unicode="&#x438;" horiz-adv-x="565" 
d="M170 485l-49 -349q-7 -49 10 -71t61 -22q49 0 97.5 32t116.5 95l5 -48q-65 -67 -124 -101t-115 -34q-66 0 -95.5 36t-20.5 99l51 363h63zM509 485l-68 -485h-49l11 133l-4 15l47 337h63z" />
    <glyph glyph-name="uni0439" unicode="&#x439;" horiz-adv-x="565" 
d="M170 485l-49 -349q-7 -49 10 -71t61 -22q49 0 97.5 32t116.5 95l5 -48q-65 -67 -124 -101t-115 -34q-66 0 -95.5 36t-20.5 99l51 363h63zM509 485l-68 -485h-49l11 133l-4 15l47 337h63zM432 700h51q-4 -38 -25.5 -68t-56.5 -47t-82 -17q-45 0 -76.5 17t-44 47t-5.5 68
h50q-7 -45 15.5 -70t66.5 -25q43 0 71.5 25t35.5 70z" />
    <glyph glyph-name="uni043A" unicode="&#x43a;" horiz-adv-x="525" 
d="M503 484q-21 -40 -41 -73.5t-39 -61t-40.5 -48t-46 -33t-55.5 -15.5l-2 -2q32 -3 54.5 -14.5t39 -33t28.5 -51.5t23 -68t24 -84h-64q-16 56 -29.5 98.5t-30 71.5t-42 43t-67.5 14l3 50q38 0 67.5 15.5t54 43.5t48 66t47.5 83zM174 485l-21 -152q-4 -22 -9 -40.5
t-12 -40.5q1 -19 1 -37.5t-3 -40.5l-25 -174h-63l68 485h64zM249 277l-6 -50h-126l7 50h125z" />
    <glyph glyph-name="uni043B" unicode="&#x43b;" horiz-adv-x="553" 
d="M484 485l-7 -51h-170q-33 0 -51 -15t-27 -52q-10 -45 -23.5 -94t-30 -94.5t-36.5 -83.5q-15 -31 -36.5 -52.5t-49.5 -33t-62 -14.5l-5 52q33 11 57 26.5t40 47.5q16 27 29 61.5t23.5 71t19.5 70t15 58.5q13 53 41.5 78t83.5 25h189zM497 485l-69 -485h-63l69 485h63z" />
    <glyph glyph-name="uni043C" unicode="&#x43c;" horiz-adv-x="734" 
d="M639 485q12 0 19 -8t5 -19l-42 -458h-59l40 435h-18l-193 -366q-5 -9 -11 -14t-16 -5h-58q-10 0 -16 6t-8 16l-92 363h-19l-81 -435h-59l86 460q2 13 8.5 19t19.5 6h69q11 0 16.5 -6.5t7.5 -16.5l75 -298q5 -17 9 -34.5t7 -36.5h18q9 19 16.5 36t16.5 35l162 301
q8 20 28 20h69z" />
    <glyph glyph-name="uni043D" unicode="&#x43d;" horiz-adv-x="574" 
d="M173 485l-68 -485h-63l68 485h63zM436 282l-7 -49h-297l7 49h297zM518 485l-69 -485h-62l68 485h63z" />
    <glyph glyph-name="uni043E" unicode="&#x43e;" horiz-adv-x="563" 
d="M307 497q80 0 126.5 -25.5t62 -82t1.5 -150.5q-13 -92 -41.5 -147.5t-80 -80t-131.5 -24.5t-126.5 25.5t-62 82t-2.5 150.5q13 92 41.5 147t80 80t132.5 25zM307 442q-59 0 -96.5 -18t-59 -62t-33.5 -123q-10 -75 -2 -118t39 -61t89 -18q59 0 96.5 18.5t59 63t31.5 121.5
q11 76 3 118.5t-39 60.5t-88 18z" />
    <glyph glyph-name="uni043F" unicode="&#x43f;" horiz-adv-x="576" 
d="M391 497q42 0 69.5 -15t39.5 -45t6 -74l-52 -363h-63l49 349q7 52 -9 72.5t-58 20.5q-50 0 -103 -31.5t-124 -88.5l1 48q69 61 129 94t115 33zM161 485l-11 -124l3 -16l-47 -345h-64l68 485h51z" />
    <glyph glyph-name="uni0440" unicode="&#x440;" horiz-adv-x="573" 
d="M380 497q58 0 89 -25t38 -81.5t-7 -152.5q-12 -80 -30.5 -129t-47 -75.5t-69 -36.5t-95.5 -10q-24 0 -49.5 2t-52.5 4.5t-53 6t-50 7.5l19 39q54 -2 95 -4t70 -2q54 0 88.5 7.5t55.5 29t33.5 61.5t21.5 105q11 76 9 119t-20 61t-58 18q-27 0 -66 -16.5t-82 -47t-85 -75.5
l-11 36q24 31 55.5 59.5t66.5 50.5t70 35.5t65 13.5zM161 485l-10 -119l5 -6l-46 -338l-8 -17q0 -26 -2 -48.5t-7 -49.5l-17 -116h-63l98 694h50z" />
    <glyph glyph-name="uni0441" unicode="&#x441;" horiz-adv-x="483" 
d="M310 497q33 0 75 -4.5t74 -17.5l-11 -41q-30 5 -66.5 6.5t-60.5 1.5q-64 0 -105 -17t-64 -60.5t-34 -124.5q-10 -80 0 -122.5t44 -58.5t96 -16q15 0 40 1t52.5 3t52.5 6l4 -43q-36 -11 -78.5 -16.5t-81.5 -5.5q-83 0 -130.5 25.5t-62 82t-1.5 149.5t42.5 148.5t81.5 79.5
t133 24z" />
    <glyph glyph-name="uni0442" unicode="&#x442;" horiz-adv-x="875" 
d="M159 485l-10 -124l4 -16l-48 -345h-63l68 485h49zM367 497q65 0 93.5 -35.5t19.5 -98.5l-51 -363h-61l49 349q6 49 -10 71t-61 22q-28 0 -57 -13t-62.5 -39t-80.5 -68l-1 48q63 62 116.5 94.5t105.5 32.5zM692 497q65 0 94 -35.5t20 -98.5l-51 -363h-64l49 349
q8 52 -10.5 72.5t-60.5 20.5q-27 0 -55 -12.5t-61.5 -38.5t-80.5 -69l-1 48q63 63 116 95t105 32z" />
    <glyph glyph-name="uni0443" unicode="&#x443;" horiz-adv-x="530" 
d="M512 485q-9 -39 -24.5 -89t-36.5 -105t-45.5 -111.5t-51.5 -108.5q-42 -82 -81 -135.5t-75 -85t-70.5 -45.5t-67.5 -15.5t-65 3.5l7 52q25 -4 51 -2t54 14.5t58 40t62.5 74t68.5 116.5q26 48 50 101.5t43.5 107t34 101.5t21.5 87h67zM116 485l82 -413q6 -21 26 -21h61
l-30 -51h-58q-19 0 -33.5 12t-19.5 30l-95 443h67z" />
    <glyph glyph-name="uni0444" unicode="&#x444;" horiz-adv-x="708" 
d="M378 497q109 0 171 -26t84 -82.5t9 -149.5q-13 -91 -49 -146t-103.5 -80t-174.5 -25q-108 0 -170.5 26t-84 82t-9.5 149q13 91 49.5 146.5t104 80.5t173.5 25zM379 442q-87 0 -142 -18.5t-84 -63t-41 -121.5q-10 -75 6 -118t64 -60.5t133 -17.5q88 0 142.5 18.5
t83.5 62.5t39 121q11 75 -5 118t-63.5 61t-132.5 18zM442 700l-30 -215l-5 -16l-63 -448l-1 -17l-29 -208h-60l29 208l5 17l63 448l1 16l30 215h60z" />
    <glyph glyph-name="uni0445" unicode="&#x445;" horiz-adv-x="517" 
d="M132 485l124 -239l-198 -246h-73l206 252l-124 233h65zM300 277l-8 -50h-85l7 50h86zM506 485l-190 -234l134 -251h-65l-135 256l186 229h70z" />
    <glyph glyph-name="uni0446" unicode="&#x446;" horiz-adv-x="586" 
d="M170 485l-50 -349q-7 -49 10 -71t60 -22q50 0 98 30t116 90l6 -48q-66 -63 -124.5 -95.5t-115.5 -32.5q-66 0 -95.5 36t-19.5 99l51 363h64zM468 10l45 -10l-22 -149h-56zM508 485l-56 -404q-2 -18 5.5 -25t21.5 -7h40l-6 -49h-49q-32 0 -52 19.5t-16 61.5l5 44l-3 16
l47 344h63z" />
    <glyph glyph-name="uni0447" unicode="&#x447;" horiz-adv-x="529" 
d="M148 485l-27 -188q-5 -40 10 -55t58 -15q50 0 95 16t103 50l2 -51q-39 -22 -78.5 -37.5t-75.5 -23t-65 -7.5q-65 -1 -93.5 26t-21.5 80l29 205h64zM473 485l-68 -485h-64l68 485h64z" />
    <glyph glyph-name="uni0448" unicode="&#x448;" horiz-adv-x="857" 
d="M169 485l-49 -349q-7 -48 10.5 -69t56.5 -21q30 0 57 12t59.5 37.5t76.5 66.5l2 -49q-63 -64 -115.5 -95t-103.5 -31q-61 0 -89 36t-19 99l51 363h63zM484 485l-49 -349q-6 -46 9.5 -68t57.5 -22q31 0 58.5 12.5t60 38.5t77.5 65l2 -49q-63 -63 -116 -94.5t-104 -31.5
q-61 0 -89 36t-19 99l51 363h61zM801 485l-69 -485h-48l11 122l-5 16l48 347h63z" />
    <glyph glyph-name="uni0449" unicode="&#x449;" horiz-adv-x="879" 
d="M169 485l-49 -349q-7 -48 10.5 -69t56.5 -21q30 0 57 12t59.5 37.5t76.5 66.5l2 -49q-63 -64 -115.5 -95t-103.5 -31q-61 0 -89 36t-19 99l51 363h63zM484 485l-49 -349q-6 -46 9.5 -68t57.5 -22q31 0 58.5 12.5t60 38.5t77.5 65l2 -49q-63 -63 -116 -94.5t-104 -31.5
q-61 0 -89 36t-19 99l51 363h61zM801 485l-56 -404q-2 -19 5.5 -25.5t20.5 -6.5h41l-6 -49h-49q-32 0 -52.5 19.5t-16.5 61.5l5 44l-2 16l47 344h63zM762 10l44 -10l-23 -149h-55z" />
    <glyph glyph-name="uni044A" unicode="&#x44a;" horiz-adv-x="621" 
d="M331 485l-95 -344q-7 -32 0.5 -52t25.5 -30t40.5 -13.5t45.5 -3.5q48 0 76.5 8.5t43.5 31t22 64.5q6 36 -1.5 57t-33 30t-75.5 9q-43 0 -89 -11.5t-92 -41.5l7 43q45 32 90 45t87 13q74 0 113.5 -15t52.5 -48t4 -90q-8 -58 -30.5 -90t-62.5 -44t-101 -12q-34 0 -71 4.5
t-67.5 20.5t-44 48t0.5 87l91 325zM331 485l-36 -52h-256l8 52h284z" />
    <glyph glyph-name="uni044B" unicode="&#x44b;" horiz-adv-x="697" 
d="M170 485l-54 -364q-3 -27 6 -42.5t26 -23t39.5 -10.5t45.5 -3q48 0 77 8.5t44 31t21 64.5q5 36 -2.5 57t-32.5 30t-75 9q-44 0 -91.5 -11.5t-94.5 -41.5l7 43q46 32 92 45t90 13q73 0 113 -14.5t53 -48t4 -90.5q-8 -57 -29.5 -89t-61.5 -44.5t-103 -12.5q-31 0 -66 3
t-65 15.5t-47 39t-11 73.5l53 363h62zM641 485l-69 -485h-63l68 485h64z" />
    <glyph glyph-name="uni044C" unicode="&#x44c;" horiz-adv-x="506" 
d="M170 485l-54 -364q-3 -27 6 -42.5t26 -23t39.5 -10.5t45.5 -3q48 0 77 8.5t44 31t21 64.5q5 36 -2.5 57t-32.5 30t-75 9q-44 0 -91.5 -11.5t-94.5 -41.5l7 43q46 32 92 45t90 13q73 0 113 -14.5t53 -48t4 -90.5q-8 -57 -29.5 -89t-62 -44.5t-106.5 -12.5q-44 0 -80 5.5
t-61.5 20.5t-37 41.5t-5.5 67.5l52 359h62z" />
    <glyph glyph-name="uni044D" unicode="&#x44d;" horiz-adv-x="495" 
d="M220 490q87 0 136.5 -23t66.5 -78.5t5 -151.5q-12 -94 -42 -148t-84.5 -76.5t-140.5 -21.5q-53 0 -89.5 4t-68.5 13l11 45q34 -3 68 -5t73 -3q52 0 88.5 8.5t60.5 30.5t38 60.5t22 98.5q11 80 0.5 121.5t-46.5 56.5t-100 15q-25 0 -48 -1l-46 -2t-49 -3l-4 45
q22 5 44 8.5t48 5t57 1.5zM409 271l-7 -48l-291 1l6 46z" />
    <glyph glyph-name="uni044E" unicode="&#x44e;" horiz-adv-x="783" 
d="M524 497q80 0 127 -24t62.5 -79.5t2.5 -152.5q-10 -71 -29 -119.5t-48.5 -77t-74 -41t-104.5 -12.5q-80 0 -125 23.5t-58.5 79.5t0.5 153q10 72 28 120t47 76.5t71.5 41t100.5 12.5zM174 485l-68 -485h-64l69 485h63zM314 275l-7 -50h-176l7 50h176zM522 442
q-57 0 -94.5 -17.5t-58.5 -61.5t-32 -122q-11 -74 -3.5 -117t38 -60.5t86.5 -17.5q62 0 100.5 19t60 63.5t31.5 118.5q11 76 2 118.5t-41 59.5t-89 17z" />
    <glyph glyph-name="uni044F" unicode="&#x44f;" horiz-adv-x="532" 
d="M301 488q25 0 54 -0.5t59.5 -1.5t60.5 -4l-16 -49q-5 1 -23 2t-44 1.5t-55.5 0.5h-57.5q-48 0 -77 -7t-43.5 -27.5t-20.5 -61.5q-4 -28 1.5 -52.5t26.5 -39.5t66 -15h198l-3 -48q-9 0 -35 -0.5t-66.5 -0.5h-93.5q-42 0 -71 -12t-40 -44l-47 -130l-65 1l51 141
q14 38 44.5 52.5t57.5 15.5l1 3q-37 6 -57.5 27.5t-26.5 51t-3 59.5q6 45 21.5 72t42 41.5t67 19.5t94.5 5zM476 482l-68 -482h-62l68 482h62z" />
    <glyph glyph-name="uni0450" unicode="&#x450;" horiz-adv-x="533" 
d="M313 497q70 0 111.5 -16t57.5 -49.5t4 -88.5q-8 -44 -28.5 -70t-56 -39t-90.5 -18l-239 -24l6 49l232 24q37 4 59.5 12t35.5 25t19 47q9 43 -3.5 63t-41.5 25.5t-71 5.5q-45 0 -76.5 -7.5t-53.5 -27.5t-36 -58.5t-24 -100.5q-12 -85 -1.5 -129.5t45 -61t92.5 -16.5
q28 0 60 2t62.5 5t55.5 6l5 -43q-22 -8 -57.5 -13.5t-72.5 -8t-65 -2.5q-82 0 -128 27.5t-60 85.5t-1 150q11 74 30 122t50 75t75 38t105 11zM204 727l156 -147l-25 -29l-167 131z" />
    <glyph glyph-name="uni0451" unicode="&#x451;" horiz-adv-x="533" 
d="M313 497q70 0 111.5 -16t57.5 -49.5t4 -88.5q-8 -44 -28.5 -70t-56 -39t-90.5 -18l-239 -24l6 49l232 24q37 4 59.5 12t35.5 25t19 47q9 43 -3.5 63t-41.5 25.5t-71 5.5q-45 0 -76.5 -7.5t-53.5 -27.5t-36 -58.5t-24 -100.5q-12 -85 -1.5 -129.5t45 -61t92.5 -16.5
q28 0 60 2t62.5 5t55.5 6l5 -43q-22 -8 -57.5 -13.5t-72.5 -8t-65 -2.5q-82 0 -128 27.5t-60 85.5t-1 150q11 74 30 122t50 75t75 38t105 11zM259 684q11 0 15 -5t2 -14l-8 -55q-1 -10 -6 -15t-16 -5h-21q-19 0 -17 19l8 56q2 9 7 14t16 5h20zM430 684q12 0 15.5 -5t2.5 -14
l-8 -55q-1 -10 -6 -15t-16 -5h-21q-19 0 -17 19l8 56q2 9 7 14t15 5h20z" />
    <glyph glyph-name="uni0452" unicode="&#x452;" horiz-adv-x="593" 
d="M393 398q67 0 96.5 -34t20.5 -99l-40 -291q-5 -36 -20 -69.5t-37 -61t-51 -49.5l-33 29q32 34 51.5 70.5t26.5 84.5l38 273q6 49 -12 69.5t-66 20.5q-47 0 -96 -26t-117 -78l-2 47q66 55 126.5 84.5t114.5 29.5zM222 700l-44 -314q-4 -32 -9.5 -59.5t-13.5 -53.5l4 -14
l-36 -259h-63l99 700h63zM401 540l-6 -44h-339l6 44h339z" />
    <glyph glyph-name="uni0453" unicode="&#x453;" horiz-adv-x="514" 
d="M280 497q34 1 67.5 -0.5t60 -12t41 -34.5t9.5 -66q-4 -35 -19.5 -59t-36 -39.5t-41.5 -25t-38 -15.5l-153 -56q-34 -13 -53 -30t-23 -47q-4 -31 8.5 -45.5t38.5 -19t61 -4.5q41 1 78 5t75 12.5t78 21.5l3 -51q-47 -18 -89.5 -27.5t-79 -13t-66.5 -3.5q-53 0 -93.5 10.5
t-62 38t-14.5 77.5q6 49 36 79t89 52l147 53q47 16 68.5 36t24.5 49q4 28 -7.5 41.5t-40 17.5t-75.5 2q-24 -1 -46 -3t-44 -5.5t-47 -8t-56 -11.5l-2 50q49 14 101 22t101 10zM401 728l32 -49l-194 -128l-22 30z" />
    <glyph glyph-name="uni0454" unicode="&#x454;" horiz-adv-x="494" 
d="M320 490q30 0 56 -1.5t49 -5t46 -9.5l-11 -44q-35 3 -68.5 4.5t-70.5 1.5q-68 0 -108.5 -16.5t-62.5 -59t-34 -122.5q-10 -77 0 -118t45.5 -57t102.5 -18q41 0 76.5 2.5t70.5 5.5l5 -45q-34 -9 -73 -13t-90 -4q-80 0 -129 23.5t-66.5 78.5t-4.5 150q10 71 29 118.5
t50.5 75.5t77.5 40.5t110 12.5zM80 271l292 -1l-6 -46l-292 -1z" />
    <glyph glyph-name="uni0455" unicode="&#x455;" horiz-adv-x="505" 
d="M265 497q33 0 68 -2.5t68.5 -5t61.5 -6.5l-8 -46q-45 2 -91.5 3.5t-96.5 2.5q-47 0 -76 -3t-44 -16t-20 -44q-5 -36 11 -51.5t50 -29.5l145 -60q35 -15 58 -31t32.5 -40t3.5 -62q-7 -53 -34.5 -78t-74 -32t-111.5 -7q-38 0 -65 1.5t-53 4.5t-62 7l7 46q27 -2 53.5 -3.5
t53.5 -2t54 -0.5q61 1 97 6.5t53 20t20 43.5q4 25 -3.5 38.5t-23 22t-38.5 18.5l-144 60q-32 14 -54 30t-32 41t-4 63q6 49 30 73t66.5 32t102.5 7z" />
    <glyph glyph-name="uni0456" unicode="&#x456;" horiz-adv-x="238" 
d="M178 485l-68 -485h-64l68 485h64zM188 689q11 0 16 -6.5t3 -16.5l-8 -59q-2 -19 -22 -19h-29q-24 0 -20 23l9 58q2 20 22 20h29z" />
    <glyph glyph-name="uni0457" unicode="&#x457;" horiz-adv-x="236" 
d="M177 485l-69 -485h-63l69 485h63zM98 684q11 0 15 -5t2 -14l-8 -55q-1 -10 -6 -15t-16 -5h-21q-19 0 -17 19l8 56q2 9 7 14t16 5h20zM269 684q12 0 15.5 -5t2.5 -14l-8 -55q-1 -10 -6 -15t-16 -5h-21q-19 0 -17 19l8 56q2 9 7 14t15 5h20z" />
    <glyph glyph-name="uni0458" unicode="&#x458;" horiz-adv-x="238" 
d="M178 485l-72 -511q-4 -36 -19 -69.5t-37.5 -61t-50.5 -49.5l-34 29q32 34 51.5 70.5t26.5 84.5l71 507h64zM188 689q11 0 16 -6.5t3 -16.5l-8 -59q-2 -19 -22 -19h-29q-24 0 -20 23l9 58q2 20 22 20h29z" />
    <glyph glyph-name="uni0459" unicode="&#x459;" horiz-adv-x="788" 
d="M453 485l-7 -50h-148q-28 0 -45 -14t-24 -46q-14 -61 -25 -104.5t-21 -75t-22.5 -56.5t-29.5 -50q-19 -30 -42 -49t-47.5 -28.5t-51.5 -13.5l-4 52q28 8 49.5 22.5t40.5 39.5q16 22 27.5 44t21.5 52t21 74.5t27 109.5q10 45 36.5 69t72.5 24h171zM464 485l-53 -364
q-4 -26 4 -42t24 -23.5t37 -10.5t45 -3q47 0 74.5 8.5t41.5 31t20 64.5q4 37 -3 58t-29.5 29.5t-67.5 8.5q-30 0 -59 -4.5t-58.5 -15.5t-63.5 -33l7 43q36 24 65.5 36.5t57.5 17t59 4.5q68 0 104 -16t47 -49.5t4 -87.5q-7 -58 -28.5 -90t-59.5 -44t-98 -12q-38 0 -72.5 4
t-61 17.5t-39.5 40t-8 69.5l52 363h59z" />
    <glyph glyph-name="uni045A" unicode="&#x45a;" horiz-adv-x="801" 
d="M479 485l-53 -364q-3 -27 4.5 -42.5t24 -23t37.5 -10.5t44 -3q45 0 72.5 8.5t41.5 31t20 64.5q5 36 -2 57t-30.5 30t-69.5 9q-43 0 -87.5 -11.5t-90.5 -41.5l7 43q45 32 88.5 45t84.5 13q70 0 108 -14.5t50.5 -48t5.5 -90.5q-8 -57 -29 -89t-59 -44.5t-99 -12.5
q-30 0 -63.5 3t-62.5 15.5t-45 39t-10 73.5l53 363h60zM170 485l-69 -485h-59l68 485h60zM398 291l-7 -47h-262l7 47h262z" />
    <glyph glyph-name="uni045B" unicode="&#x45b;" horiz-adv-x="571" 
d="M222 700l-45 -325q-4 -29 -9.5 -53t-12.5 -49l4 -13l-36 -260h-63l99 700h63zM401 540l-6 -44h-339l6 44h339zM393 398q67 0 96.5 -34t20.5 -99l-38 -265h-63l36 251q6 49 -12 69.5t-66 20.5q-47 0 -96 -26t-117 -78l-2 47q66 55 126.5 84.5t114.5 29.5z" />
    <glyph glyph-name="uni045C" unicode="&#x45c;" horiz-adv-x="525" 
d="M503 484q-21 -40 -41 -73.5t-39 -61t-40.5 -48t-46 -33t-55.5 -15.5l-2 -2q32 -3 54.5 -14.5t39 -33t28.5 -51.5t23 -68t24 -84h-64q-16 56 -29.5 98.5t-30 71.5t-42 43t-67.5 14l3 50q38 0 67.5 15.5t54 43.5t48 66t47.5 83zM174 485l-21 -152q-4 -22 -9 -40.5
t-12 -40.5q1 -19 1 -37.5t-3 -40.5l-25 -174h-63l68 485h64zM249 277l-6 -50h-126l7 50h125zM437 728l32 -49l-194 -128l-22 30z" />
    <glyph glyph-name="uni045D" unicode="&#x45d;" horiz-adv-x="565" 
d="M170 485l-49 -349q-7 -49 10 -71t61 -22q49 0 97.5 32t116.5 95l5 -48q-65 -67 -124 -101t-115 -34q-66 0 -95.5 36t-20.5 99l51 363h63zM509 485l-68 -485h-49l11 133l-4 15l47 337h63zM211 727l156 -147l-25 -29l-167 131z" />
    <glyph glyph-name="uni045E" unicode="&#x45e;" horiz-adv-x="530" 
d="M512 485q-9 -39 -24.5 -89t-36.5 -105t-45.5 -111.5t-51.5 -108.5q-42 -82 -81 -135.5t-75 -85t-70.5 -45.5t-67.5 -15.5t-65 3.5l7 52q25 -4 51 -2t54 14.5t58 40t62.5 74t68.5 116.5q26 48 50 101.5t43.5 107t34 101.5t21.5 87h67zM116 485l82 -413q6 -21 26 -21h61
l-30 -51h-58q-19 0 -33.5 12t-19.5 30l-95 443h67zM400 700h51q-4 -38 -25.5 -68t-56.5 -47t-82 -17q-45 0 -76.5 17t-44 47t-5.5 68h50q-7 -45 15.5 -70t66.5 -25q43 0 71.5 25t35.5 70z" />
    <glyph glyph-name="uni045F" unicode="&#x45f;" horiz-adv-x="565" 
d="M282 -40l-18 -178h-57l31 178h44zM170 485l-49 -349q-8 -49 9.5 -71t60.5 -22q50 0 98.5 32t116.5 95l5 -48q-66 -67 -124.5 -101t-115.5 -34q-66 0 -95.5 36t-19.5 99l51 363h63zM509 485l-68 -485h-49l11 133l-4 15l46 337h64z" />
    <glyph glyph-name="uni0462" unicode="&#x462;" horiz-adv-x="615" 
d="M353 402q82 0 127.5 -20.5t60.5 -66.5t5 -123q-11 -78 -38 -122t-74.5 -61t-123.5 -17q-56 0 -96 0.5t-73 2.5t-70 5l20 53q22 -1 77.5 -2t133.5 -1q60 0 96 12.5t55 45t27 92.5q8 54 0 86t-38.5 46.5t-91.5 14.5h-217l8 55h212zM240 729l-104 -729h-66l103 729h67z
M37 553l8 50h427l-8 -50h-427z" />
    <glyph glyph-name="uni0463" unicode="&#x463;" horiz-adv-x="502" 
d="M244 -9q-47 0 -84 6t-62.5 21t-36.5 40.5t-6 63.5l82 568h62l-83 -569q-3 -27 6 -42.5t26 -23t39.5 -10.5t45.5 -3q48 0 77 8.5t44 31t21 64.5q5 36 -2.5 57t-32.5 30t-75 9q-44 0 -91.5 -11.5t-94.5 -41.5l7 43q46 32 92 45t90 13q73 0 113 -14.5t53 -48t4 -90.5
q-8 -57 -29.5 -89t-61.5 -44.5t-103 -12.5zM16 441l6 44h332l-5 -44h-333z" />
    <glyph glyph-name="uni046A" unicode="&#x46a;" horiz-adv-x="851" 
d="M-34 0q46 87 80.5 150.5t66.5 106t68.5 67.5t83.5 35.5t113 10.5v3l-268 317h721l-351 -317v-3q64 0 107 -11.5t72 -37t49.5 -68.5t39 -105.5t41.5 -147.5h-69q-22 89 -39.5 148.5t-36 95t-44 53t-61.5 23t-88 5.5q-1 -21 -3.5 -41l-4.5 -36l-34 -248h-63l34 248
q3 16 6.5 36t7.5 41q-52 0 -89.5 -5.5t-67 -23t-58.5 -53t-63 -95t-81 -148.5h-69zM433 397l270 242h-479z" />
    <glyph glyph-name="uni046B" unicode="&#x46b;" horiz-adv-x="680" 
d="M-20 0q35 61 61.5 105t50 74t50 47.5t62 25.5t84.5 9l1 3l-210 221h585l-267 -221v-3q49 -1 81.5 -9t54.5 -25.5t37 -47.5t29.5 -74t31.5 -105h-67q-22 77 -38.5 121.5t-35.5 66.5t-48 28.5t-77 6.5q-1 -14 -2 -27.5t-3 -25.5l-24 -170h-61l23 170q2 12 5 25.5t5 27.5
q-47 0 -78 -6.5t-56 -28.5t-54.5 -66.5t-72.5 -121.5h-67zM345 282l193 156h-345z" />
    <glyph glyph-name="uni0472" unicode="&#x472;" horiz-adv-x="664" 
d="M115 323v52h438v-52h-438zM387 703q95 0 149.5 -35t71 -114t-2.5 -212q-13 -99 -36.5 -167.5t-59.5 -109.5t-89 -59.5t-125 -18.5q-95 0 -150.5 34.5t-72.5 113.5t1 213q14 98 37 165.5t59.5 109.5t90 61t127.5 19zM383 644q-76 0 -123.5 -28t-74.5 -94t-43 -180
q-16 -111 -7 -175.5t48 -92.5t112 -28q76 0 123 28.5t75.5 94.5t43.5 179q17 113 8 177.5t-48 91.5t-114 27z" />
    <glyph glyph-name="uni0473" unicode="&#x473;" horiz-adv-x="565" 
d="M244 -13q-81 0 -126.5 25t-59.5 81t-1 149t42.5 149t81.5 81t134 25t127 -25t59 -81t1 -149t-42.5 -149t-81.5 -81t-134 -25zM251 42q59 0 95.5 18t57.5 62t32 120q11 77 2 120.5t-40.5 61.5t-90.5 18q-58 0 -94.5 -18t-57.5 -61.5t-32 -120.5q-10 -76 -1.5 -120t40 -62
t89.5 -18zM93 229l5 40h372l-6 -40h-371z" />
    <glyph glyph-name="uni0474" unicode="&#x474;" horiz-adv-x="645" 
d="M220 0q-9 0 -15.5 5.5t-8.5 13.5l-124 671h68l98 -564q4 -19 7 -37t5 -37h27q4 9 7 16t6.5 14t8 17.5t10.5 27.5l194 473q14 34 34 57.5t48.5 35t65.5 11.5q8 0 18 -1t21 -2l-8 -49q-5 0 -11.5 0.5t-10.5 0.5q-36 0 -57 -14t-40 -57l-242 -563q-3 -8 -11 -13.5t-17 -5.5
h-73z" />
    <glyph glyph-name="uni0475" unicode="&#x475;" horiz-adv-x="539" 
d="M188 0q-8 0 -14 4.5t-8 12.5l-115 469h66l88 -386q3 -13 6 -26.5t5 -26.5h23q5 9 7.5 14.5t6.5 14.5t12 24l145 314q8 19 18.5 33.5t25 25.5t34 17t45.5 6q8 0 18 -0.5t18 -2.5l-6 -47q-4 1 -9.5 1h-9.5q-30 0 -47.5 -10.5t-32.5 -41.5l-183 -378q-3 -8 -10.5 -12.5
t-15.5 -4.5h-67z" />
    <glyph glyph-name="uni048A" unicode="&#x48a;" horiz-adv-x="686" 
d="M499 54h139l-7 -52l-64 -153h-46l57 151h-87zM649 690l-97 -690h-63l71 505q4 26 8 50.5t9 48.5h-3q-11 -17 -22.5 -35.5t-22.5 -33.5l-408 -535h-70l97 690h64l-71 -503q-4 -25 -7.5 -49t-10.5 -52h3q13 20 26 39t24 35l403 530h70zM517 880h50q-4 -37 -25.5 -67
t-56.5 -47.5t-81 -17.5t-77 17.5t-44 47.5t-6 67h51q-7 -45 15 -70t66 -25t72.5 25t35.5 70z" />
    <glyph glyph-name="uni048B" unicode="&#x48b;" horiz-adv-x="565" 
d="M401 51h108l-6 -51l-63 -144h-46l55 144h-55zM170 485l-49 -349q-7 -49 10 -71t61 -22q49 0 97.5 32t116.5 95l5 -48q-65 -67 -124 -101t-115 -34q-66 0 -95.5 36t-20.5 99l51 363h63zM509 485l-68 -485h-49l11 133l-4 15l47 337h63zM432 699h51q-4 -37 -25.5 -67
t-56.5 -47.5t-81 -17.5t-77.5 17.5t-44 47.5t-5.5 67h50q-7 -45 15.5 -70t66.5 -25q43 0 71.5 25t35.5 70z" />
    <glyph glyph-name="uni048C" unicode="&#x48c;" horiz-adv-x="617" 
d="M54 520l8 50h427l-8 -50h-427zM376 402q82 0 127.5 -20.5t60.5 -66.5t5 -123q-11 -78 -38 -122t-74.5 -61t-123.5 -17q-56 0 -96 0.5t-73 2.5t-71 5l21 53q21 -1 77 -2t134 -1q60 0 96 12.5t54.5 45t27.5 92.5q8 54 0 86t-38.5 46.5t-92.5 14.5h-216l8 55h212zM256 690
l-97 -690h-66l97 690h66z" />
    <glyph glyph-name="uni048D" unicode="&#x48d;" horiz-adv-x="502" 
d="M244 -9q-47 0 -84 6t-62.5 21t-36.5 40.5t-6 63.5l82 568h62l-83 -569q-3 -27 6 -42.5t26 -23t39.5 -10.5t45.5 -3q48 0 77 8.5t44 31t21 64.5q5 36 -2.5 57t-32.5 30t-75 9q-44 0 -91.5 -11.5t-94.5 -41.5l7 43q46 32 92 45t90 13q73 0 113 -14.5t53 -48t4 -90.5
q-8 -57 -29.5 -89t-61.5 -44.5t-103 -12.5zM16 441l6 44h332l-5 -44h-333z" />
    <glyph glyph-name="uni048E" unicode="&#x48e;" horiz-adv-x="577" 
d="M377 699q78 0 123 -20t60.5 -66.5t3.5 -127.5q-11 -85 -38 -130t-74.5 -62t-124.5 -17q-39 0 -75.5 1.5t-66.5 4.5t-51 5.5t-30 4.5l5 41h107.5h108.5q58 0 92.5 14t53.5 47.5t28 96.5q9 60 -0.5 93t-39.5 45t-84 12q-80 0 -138.5 -0.5t-79.5 -2.5l-9 52q37 4 69.5 6
t69.5 2.5t90 0.5zM214 690l-97 -690h-66l97 690h66zM341 433l28 29l212 -212l-28 -29z" />
    <glyph glyph-name="uni048F" unicode="&#x48f;" horiz-adv-x="612" 
d="M292 152l32 23l173 -245l-33 -24zM378 497q59 0 90 -25t37.5 -81.5t-6.5 -152.5q-12 -80 -30.5 -129t-46.5 -75.5t-69 -36.5t-96 -10q-23 0 -49.5 2t-53 4.5t-52.5 6t-50 7.5l18 39q56 -2 97 -4t69 -2q54 0 88.5 7.5t55.5 29t33 61.5t22 105q11 76 9 119t-20.5 61
t-57.5 18q-27 0 -66 -16.5t-82 -47t-85 -75.5l-10 36q23 31 54.5 59.5t66.5 50.5t70 35.5t64 13.5zM160 485l-10 -119l6 -6l-47 -338l-8 -17q-1 -26 -2.5 -48.5t-5.5 -49.5l-18 -116h-64l99 694h50z" />
    <glyph glyph-name="uni0490" unicode="&#x490;" horiz-adv-x="518" 
d="M260 691q49 0 98.5 -0.5t97.5 -3t93 -7.5l-7 -46h-264q-36 0 -57.5 -16t-27.5 -60l-78 -558h-66l80 572q9 60 44.5 89.5t86.5 29.5zM575 841l-26 -161l-55 -16l36 177h45z" />
    <glyph glyph-name="uni0491" unicode="&#x491;" horiz-adv-x="446" 
d="M206 486q61 0 122 -1t120 -5l-8 -46h-211q-33 0 -51 -14.5t-24 -52.5l-51 -367h-64l55 386q8 53 36 76.5t76 23.5zM471 630l-23 -150l-55 -20l33 170h45z" />
    <glyph glyph-name="uni0492" unicode="&#x492;" horiz-adv-x="536" 
d="M9 312l7 50h399l-8 -50h-398zM295 691q50 0 98 -0.5t96 -1.5t93 -4l-9 -51h-260q-38 0 -58.5 -16.5t-26.5 -59.5l-78 -558h-66l81 572q8 61 44 90t86 29z" />
    <glyph glyph-name="uni0493" unicode="&#x493;" horiz-adv-x="453" 
d="M-8 199l5 43h315l-6 -43h-314zM219 486q41 0 82 -0.5t81.5 -1.5t79.5 -4l-8 -46h-218q-33 0 -51 -15.5t-22 -49.5l-53 -369h-62l54 384q7 49 37 75.5t80 26.5z" />
    <glyph glyph-name="uni0494" unicode="&#x494;" horiz-adv-x="581" 
d="M226 -160l-6 46q49 7 87.5 21.5t67 43.5t48.5 80.5t31 132.5q10 71 7 114t-17 65t-37 30t-54 8q-35 0 -67.5 -8t-66.5 -23.5t-74 -38.5l3 49q64 43 121.5 60.5t111.5 17.5q36 0 67 -11t51 -40t26.5 -83t-5.5 -140q-13 -92 -39.5 -152.5t-64.5 -96.5t-86 -53t-104 -22z
M263 691q69 0 138.5 -1t134.5 -5l-10 -51h-250q-35 0 -56.5 -18.5t-26.5 -55.5l-79 -560h-65l80 571q5 35 24 62t48 42.5t62 15.5z" />
    <glyph glyph-name="uni0495" unicode="&#x495;" horiz-adv-x="528" 
d="M234 486q37 0 74 -0.5t73 -1.5t71 -4l-9 -46h-193q-33 0 -50.5 -15.5t-21.5 -49.5l-53 -369h-62l54 384q7 49 37 75.5t80 26.5zM194 -209l-5 46q65 9 110.5 33t73 72t38.5 129q10 70 -1 105t-36.5 46.5t-61.5 11.5q-46 0 -83 -14.5t-86 -42.5l2 45q53 36 100 51.5
t92 15.5q34 0 62.5 -9t49 -32t28.5 -65.5t-2 -109.5q-14 -102 -52 -161.5t-96.5 -86.5t-132.5 -34z" />
    <glyph glyph-name="uni0496" unicode="&#x496;" horiz-adv-x="947" 
d="M784 0l8 54h118l-8 -54h-118zM836 -151l14 158h53l-22 -158h-45zM171 690q14 -61 27 -115.5t30.5 -97t44 -67t67.5 -24.5l-1 -53q-45 0 -80 -22t-65.5 -65t-62 -105t-69.5 -141h-70q29 64 55.5 118.5t51.5 98t51.5 74.5t56.5 48.5t67 20.5v3q-30 4 -53 23t-39.5 49.5
t-29.5 71t-23.5 87t-21.5 96.5h64zM447 386l-7 -53h-134l7 53h134zM536 690l-32 -224q-4 -29 -9 -54t-15 -54q1 -27 0 -53t-5 -51l-36 -254h-63l36 256q5 27 11 53t14 55q-1 27 0 51.5t5 53.5l31 221h63zM610 386l-7 -53h-131l7 53h131zM898 690q-24 -50 -46 -98t-45 -88
t-48 -71.5t-53.5 -50t-61.5 -22.5l-1 -2q33 -4 56 -22.5t40 -50t29.5 -74.5t24 -96t24.5 -115h-65q-16 77 -30 138.5t-31.5 105t-45 66.5t-71.5 23l5 53q41 0 74 24.5t62.5 67t57.5 97t57 115.5h68z" />
    <glyph glyph-name="uni0497" unicode="&#x497;" horiz-adv-x="797" 
d="M732 51l-28 -195h-42l12 144h-48l7 51h99zM140 485q11 -45 22.5 -83t27 -66t38 -44t56.5 -16l-2 -48q-37 0 -64.5 -14.5t-51.5 -43.5t-48.5 -72t-56.5 -98h-65q25 46 46.5 84.5t41.5 68.5t40.5 51.5t45 33.5t56.5 16v1q-27 4 -47.5 16.5t-35 32.5t-25.5 47.5t-20 61
t-19 72.5h61zM365 276l-7 -48h-102l7 48h102zM438 485l-21 -153q-3 -21 -7.5 -40.5t-13.5 -41.5q1 -18 1 -37.5t-2 -37.5l-25 -175h-58l26 178q2 18 7.5 37.5t12.5 40.5q-3 20 -2.5 39t3.5 40l22 150h57zM493 276l-7 -48h-96l7 48h96zM737 485q-21 -39 -40 -73t-38 -62
t-39 -49t-43.5 -33t-52.5 -15v-2q29 -3 49.5 -15.5t35.5 -33.5t26.5 -50.5t22 -67.5t23.5 -84h-61q-16 55 -28 98t-27 72t-39 43.5t-61 14.5l2 48q33 0 60.5 16t51 44t46.5 66t48 83h64z" />
    <glyph glyph-name="uni0498" unicode="&#x498;" horiz-adv-x="545" 
d="M290 698q78 0 126.5 -16t67.5 -55.5t9 -111.5q-10 -73 -42.5 -111.5t-95.5 -44.5l-2 -4q74 -7 98.5 -55t12.5 -131q-9 -69 -34.5 -107.5t-73.5 -54t-128 -15.5q-45 0 -84.5 2t-75 6.5t-68.5 11.5l10 47q32 -3 86 -7.5t123 -4.5q59 0 95.5 11t56.5 41t28 85q8 59 -3 90.5
t-44.5 44.5t-94.5 13h-113l6 51h110q54 0 88.5 11.5t53 40t25.5 79.5q8 54 -3 82t-44 37.5t-94 9.5q-40 0 -73.5 -2t-59.5 -4t-44 -4l-3 50q46 8 90 11.5t94 3.5zM180 -45q34 3 56.5 -2.5t31.5 -21t4 -44.5q-5 -39 -29 -66t-61 -39.5t-82 -6.5l12 34q46 -1 77 22.5t36 57.5
q3 20 -7.5 27t-45.5 8z" />
    <glyph glyph-name="uni0499" unicode="&#x499;" horiz-adv-x="492" 
d="M228 492q76 0 122.5 -11t65 -39.5t11.5 -80.5q-7 -51 -32.5 -78.5t-85.5 -32.5l-2 -3q64 -5 88 -36.5t15 -93.5q-7 -52 -30.5 -79t-69 -36.5t-119.5 -9.5q-46 0 -97 3t-94 10l10 49q18 -2 47 -3.5t63.5 -3t66.5 -1.5q59 0 92 7t48.5 26t19.5 56q7 52 -21 70t-107 19
l-110 1l6 46l106 1q50 0 79.5 7.5t44.5 26.5t20 52q4 34 -6 51t-41.5 23t-91.5 6q-40 0 -80.5 -2t-65.5 -5l-3 48q42 9 81.5 11t69.5 2zM155 -45q34 3 56.5 -2.5t31.5 -21t4 -44.5q-5 -39 -29 -66t-61 -39.5t-82 -6.5l12 34q46 -1 77 22.5t36 57.5q3 20 -7.5 27t-45.5 8z
" />
    </font>
</defs>
</svg>
