<?xml version="1.0" standalone="no"?>
<!DOCTYPE svg PUBLIC "-//W3C//DTD SVG 1.1//EN" "http://www.w3.org/Graphics/SVG/1.1/DTD/svg11.dtd" >
<svg xmlns="http://www.w3.org/2000/svg" xmlns:xlink="http://www.w3.org/1999/xlink" version="1.1">
<metadata>
Created by FontForge 20170731 at Tue Aug 10 21:38:44 2021
 By Aleksey,,,
Copyright 2013 The Exo 2 Project Authors (https://github.com/NDISCOVER/Exo-2.0)
</metadata>
<defs>
<font id="Exo2-BlackItalic" horiz-adv-x="700" >
  <font-face 
    font-family="Exo 2 Black"
    font-weight="900"
    font-style="italic"
    font-stretch="normal"
    units-per-em="1000"
    panose-1="0 0 0 0 0 0 0 0 0 0"
    ascent="800"
    descent="-200"
    x-height="500"
    cap-height="690"
    bbox="-481 -311 1388 1142"
    underline-thickness="50"
    underline-position="-175"
    slope="-8"
    unicode-range="U+000D-FB02"
  />
<missing-glyph horiz-adv-x="556" 
d="M166 690l-98 -690h-41l98 690h41zM555 690l-98 -690h-41l98 690h41zM125 690h430l-5 -41h-430zM33 41h430l-6 -41h-430z" />
    <glyph glyph-name="fi" unicode="fi" horiz-adv-x="721" 
d="M321 724q21 0 51 -1.5t60.5 -5t51.5 -8.5l-31 -125h-59q-30 0 -43 -12t-18 -44l-84 -560q-10 -70 -52.5 -114.5t-137.5 -44.5q-29 0 -65.5 4t-88.5 11l32 125h49q30 0 43.5 12.5t17.5 43.5l84 560q7 47 27.5 83t60 56t102.5 20zM493 500l-18 -126h-454l16 121l85 5h371z
M703 500l-70 -500h-210l69 500h211zM670 739q32 0 47.5 -17t10.5 -49l-7 -51q-4 -31 -18 -44.5t-45 -13.5h-88q-31 0 -47 17.5t-12 48.5l8 51q4 32 18.5 45t45.5 13h87z" />
    <glyph glyph-name="fl" unicode="fl" horiz-adv-x="762" 
d="M314 724h48t79.5 -1t96 -4t99.5 -7.5t89 -12.5l-68 -521q-3 -19 2.5 -25.5t26.5 -6.5h32l10 -136q-15 -9 -41.5 -14t-53 -7.5t-42.5 -2.5q-79 0 -119.5 39t-31.5 105l65 457h-119q-27 0 -41.5 -13.5t-19.5 -45.5l-78 -560q-10 -70 -52.5 -114.5t-136.5 -44.5
q-29 0 -65.5 4t-88.5 11l31 125h49q30 0 43.5 12.5t17.5 43.5l78 560q10 71 52.5 115t137.5 44zM432 500l-18 -126h-399l15 121l85 5h317z" />
    <glyph glyph-name="f_f" unicode="ff" horiz-adv-x="808" 
d="M320 714q21 0 51.5 -1.5t61.5 -5t52 -8.5l-32 -125h-60q-30 0 -43 -12t-18 -44l-82 -550q-10 -70 -52.5 -114.5t-137.5 -44.5q-29 0 -65.5 4t-89.5 11l32 125h49q32 0 46 12.5t18 43.5l80 550q11 71 53.5 115t136.5 44zM706 724q23 0 57 -1.5t69 -5t59 -8.5l-32 -125h-80
q-30 0 -43 -12t-18 -44l-84 -545q-10 -70 -52.5 -114.5t-137.5 -44.5q-29 0 -65.5 4t-89.5 11l32 125h49q32 0 46 12.5t18 43.5l82 545q11 71 53.5 115t136.5 44zM831 500l-17 -126h-792l15 121l86 5h708z" />
    <glyph glyph-name="f_f_i" unicode="ffi" horiz-adv-x="1101" 
d="M320 714q21 0 51.5 -1.5t61.5 -5t52 -8.5l-32 -125h-60q-30 0 -43 -12t-18 -44l-82 -550q-10 -70 -52.5 -114.5t-137.5 -44.5q-29 0 -65.5 4t-89.5 11l32 125h49q32 0 46 12.5t18 43.5l80 550q11 71 53.5 115t136.5 44zM706 724q20 0 48.5 -1.5t57.5 -5t49 -8.5l-32 -125
h-50q-30 0 -43 -12t-18 -44l-84 -545q-10 -70 -52.5 -114.5t-137.5 -44.5q-29 0 -65.5 4t-89.5 11l32 125h49q32 0 46 12.5t18 43.5l82 545q11 71 53.5 115t136.5 44zM911 500l-17 -126h-872l15 121l86 5h788zM1084 500l-70 -500h-210l69 500h211zM1050 739q32 0 47.5 -17
t10.5 -49l-7 -51q-4 -31 -18 -44.5t-45 -13.5h-88q-31 0 -47 17.5t-12 48.5l8 51q4 32 18.5 45t45.5 13h87z" />
    <glyph glyph-name="f_f_l" unicode="ffl" horiz-adv-x="1151" 
d="M320 714q21 0 51.5 -1.5t61.5 -5t52 -8.5l-32 -125h-60q-30 0 -43 -12t-18 -44l-82 -550q-10 -70 -52.5 -114.5t-137.5 -44.5q-29 0 -65.5 4t-89.5 11l32 125h49q32 0 46 12.5t18 43.5l80 550q11 71 53.5 115t136.5 44zM821 500l-17 -126h-782l15 121l86 5h698zM703 724
h48t79.5 -1t96 -4t99.5 -7.5t89 -12.5l-68 -521q-3 -19 2.5 -25.5t26.5 -6.5h32l10 -136q-15 -9 -41.5 -14t-53 -7.5t-42.5 -2.5q-79 0 -119.5 39t-31.5 105l65 457h-119q-27 0 -41.5 -13.5t-19.5 -45.5l-78 -545q-10 -70 -52.5 -114.5t-136.5 -44.5q-29 0 -65.5 4t-88.5 11
l31 125h49q30 0 43.5 12.5t17.5 43.5l78 545q10 71 52.5 115t137.5 44z" />
    <glyph glyph-name=".notdef" horiz-adv-x="556" 
d="M166 690l-98 -690h-41l98 690h41zM555 690l-98 -690h-41l98 690h41zM125 690h430l-5 -41h-430zM33 41h430l-6 -41h-430z" />
    <glyph glyph-name=".null" horiz-adv-x="0" 
 />
    <glyph glyph-name="nonmarkingreturn" horiz-adv-x="333" 
 />
    <glyph glyph-name="CR" unicode="&#xd;" horiz-adv-x="210" 
 />
    <glyph glyph-name="space" unicode=" " horiz-adv-x="210" 
 />
    <glyph glyph-name="exclam" unicode="!" horiz-adv-x="328" 
d="M324 695l-32 -234l-55 -234h-164l11 234l32 234h208zM164 185q35 0 54.5 -19t14.5 -57l-6 -41q-4 -35 -23 -51.5t-57 -16.5h-40q-78 0 -69 76l5 41q10 68 81 68h40z" />
    <glyph glyph-name="quotedbl" unicode="&#x22;" horiz-adv-x="394" 
d="M414 690l-44 -228h-120l20 228h144zM235 690l-44 -228h-120l20 228h144z" />
    <glyph glyph-name="numbersign" unicode="#" horiz-adv-x="743" 
d="M692 690l-217 -690h-157l217 690h157zM681 304l-42 -122h-633l42 122h633zM441 690l-217 -690h-157l217 690h157zM754 526l-41 -122h-633l41 122h633z" />
    <glyph glyph-name="dollar" unicode="$" horiz-adv-x="583" 
d="M348 704q56 0 120.5 -8t120.5 -28l-20 -138q-29 1 -68.5 1t-83 0.5t-85.5 0.5q-15 0 -26 -1.5t-18 -4.5t-10.5 -8.5t-5.5 -13.5q-1 -7 1 -14t11.5 -14t28.5 -17l110 -55q55 -28 83 -58t36.5 -68t2.5 -89q-9 -79 -38 -123.5t-87.5 -62t-155.5 -17.5q-43 0 -115 7.5
t-149 27.5l21 151q56 -1 104 -2.5t82.5 -2t46.5 -0.5q28 0 43.5 3t23 9.5t9.5 16.5q2 9 0 15.5t-9 12t-20 11.5l-121 62q-56 30 -84 62.5t-35.5 70t-2.5 79.5q6 57 26.5 95t55.5 59.5t87 31t121 9.5zM265 362h55l-111 -472h-55zM455 789l-113 -427h-55l113 427h55z" />
    <glyph glyph-name="percent" unicode="%" horiz-adv-x="919" 
d="M769 690l-477 -690h-130l477 690h130zM243 595q-13 0 -20 -6.5t-11.5 -29t-10.5 -69.5q-5 -40 -6 -59t4.5 -24.5t18.5 -5.5q14 0 21.5 6.5t11.5 29t10 69.5q4 40 4.5 59t-4.5 24.5t-18 5.5zM247 704q66 0 106.5 -19.5t55.5 -66t3 -128.5q-11 -77 -33 -120.5t-61.5 -60.5
t-104.5 -17t-105 19.5t-54.5 66.5t-3.5 128q11 78 32.5 121t61 60t103.5 17zM714 289q-13 0 -20 -6.5t-11.5 -29t-10.5 -69.5q-5 -40 -6 -59t4.5 -24.5t18.5 -5.5q14 0 21.5 6.5t12 29t9.5 69.5q4 40 4.5 59t-4.5 24.5t-18 5.5zM718 398q66 0 106.5 -19.5t55.5 -66t3 -128.5
q-11 -77 -33 -120.5t-61.5 -60.5t-104.5 -17t-105 19.5t-54.5 66t-3.5 128.5q11 78 32.5 121t61 60t103.5 17z" />
    <glyph glyph-name="ampersand" unicode="&#x26;" horiz-adv-x="759" 
d="M373 704q37 0 82.5 -4.5t88.5 -19.5l-33 -139q-29 5 -63.5 8.5t-67.5 3.5q-28 0 -45 -4.5t-25.5 -18.5t-12.5 -42q-3 -27 0.5 -42t15.5 -21t32 -6h417l-19 -131h-417q-21 0 -37.5 -6t-26.5 -22t-14 -47q-2 -18 1.5 -30.5t12 -19.5t22.5 -10t32 -3q47 0 87.5 18t68.5 79
q19 40 30 102t14 153h172q-1 -87 -12 -167.5t-41 -147.5q-27 -61 -73.5 -106t-119 -70t-177.5 -25q-95 0 -153 22t-81 66t-15 110q6 46 24 83.5t51 61.5t83 26l1 6q-33 3 -56 27t-32 61.5t-2 78.5q14 78 54 115.5t100 49t134 11.5z" />
    <glyph glyph-name="quotesingle" unicode="'" horiz-adv-x="215" 
d="M235 690l-44 -228h-120l20 228h144z" />
    <glyph glyph-name="parenleft" unicode="(" horiz-adv-x="373" 
d="M404 791l25 -91q-82 -31 -129.5 -135t-69.5 -260q-14 -96 -13.5 -173.5t22.5 -130.5t71 -76l-26 -85q-158 43 -221 160.5t-34 319.5q29 201 117.5 315t257.5 156z" />
    <glyph glyph-name="parenright" unicode=")" horiz-adv-x="373" 
d="M95 786q158 -42 221 -159.5t34 -322.5q-28 -199 -117 -313t-258 -157l-25 91q83 35 130 139t69 257q14 99 13.5 176.5t-21.5 129.5t-71 73z" />
    <glyph glyph-name="asterisk" unicode="*" horiz-adv-x="457" 
d="M343 692l-42 -175l95 -129l-94 -66l-47 119l-80 -119l-85 66l132 128l7 176h114zM100 624l108 -52l-3 -49l-31 -29l-118 23zM444 623l22 -107l-122 -26l-25 32l11 49z" />
    <glyph glyph-name="plus" unicode="+" horiz-adv-x="520" 
d="M372 539l-67 -471h-153l67 471h153zM508 381l-23 -155h-469l23 155h469z" />
    <glyph glyph-name="comma" unicode="," horiz-adv-x="257" 
d="M129 185q40 0 56 -17.5t11 -58.5l-9 -64q-5 -35 -18 -74t-31.5 -74.5t-40.5 -61.5l-85 32q15 34 24.5 68.5t18.5 68.5q-33 -1 -44.5 15t-7.5 49l7 46q6 41 26 56t57 15h36z" />
    <glyph glyph-name="hyphen" unicode="-" horiz-adv-x="382" 
d="M341 318l-18 -122h-291l18 122h291z" />
    <glyph glyph-name="period" unicode="." horiz-adv-x="255" 
d="M129 185q35 0 54.5 -19t14.5 -57l-6 -41q-4 -35 -23 -51.5t-57 -16.5h-40q-78 0 -69 76l5 41q10 68 81 68h40z" />
    <glyph glyph-name="slash" unicode="/" horiz-adv-x="597" 
d="M635 690l-501 -769h-169l501 769h169z" />
    <glyph glyph-name="zero" unicode="0" horiz-adv-x="656" 
d="M301 -13q-80 0 -140.5 19.5t-94 68t-32.5 136.5q1 86 8.5 161t27 136t56.5 104.5t96 67t147 23.5q82 0 141.5 -19.5t92.5 -67.5t33 -135q0 -83 -7 -157.5t-26.5 -136t-57 -106.5t-97 -69.5t-147.5 -24.5zM321 147q25 0 42.5 15t29 42.5t17.5 66t9.5 85.5t4.5 100
q2 47 -16.5 67t-60.5 20q-25 0 -42 -15t-28 -43t-17 -66.5t-9 -86t-5 -101.5q-1 -44 16.5 -64t58.5 -20z" />
    <glyph glyph-name="one" unicode="1" horiz-adv-x="469" 
d="M453 690l-97 -690h-216l64 436q3 23 7.5 45t11.5 44l-162 -35l-18 129l201 71h209z" />
    <glyph glyph-name="two" unicode="2" horiz-adv-x="590" 
d="M330 702q80 0 134.5 -12t82 -44t27.5 -92q0 -49 -14 -88t-41 -72.5t-67 -67.5l-185 -159q26 9 49 12t47 3h182l-24 -182h-532l16 112q4 26 10.5 46.5t24.5 39.5l165 141q38 35 72.5 65t56.5 56t22 45q0 7 -5 11t-15 5.5t-26 1.5h-72.5t-70 -0.5t-85.5 -1.5l4 160
q54 10 100 14t82.5 5.5t61.5 1.5z" />
    <glyph glyph-name="three" unicode="3" horiz-adv-x="571" 
d="M321 704q113 0 172 -30.5t59 -115.5q0 -52 -15 -93t-45.5 -66t-77.5 -31l-1 -4q64 -8 90 -40t26 -84q0 -91 -36.5 -147t-105 -81.5t-164.5 -25.5q-52 0 -113 6t-116 14l14 151q46 -3 76.5 -4t55.5 -1h53q61 0 93.5 25t32.5 80q0 13 -6 20t-18 10.5t-31 3.5h-145l17 130
h141q43 0 57 18t14 63q0 19 -10.5 28t-47.5 9h-108.5h-90.5v147q63 10 124 14t106 4z" />
    <glyph glyph-name="four" unicode="4" horiz-adv-x="653" 
d="M443 690l-196 -391q-6 -11 -5.5 -16t11.5 -5h380l-16 -118l-69 -20h-468q-34 0 -55 15.5t-25.5 40.5t8.5 51l230 443h205zM603 554l-78 -554h-197l61 448l49 106h165z" />
    <glyph glyph-name="five" unicode="5" horiz-adv-x="559" 
d="M564 690l-28 -155h-264l-18 -79l83 -10q76 -10 117 -39.5t57 -67.5t16 -76q0 -128 -80 -198t-220 -77q-56 -3 -115.5 3.5t-121.5 14.5l27 161q50 -4 93.5 -6t77.5 0q53 3 88.5 22t35.5 70q0 14 -8 21t-25 11.5t-45 7.5l-112 17q-31 5 -48.5 27.5t-11.5 52.5l59 300h443z
" />
    <glyph glyph-name="six" unicode="6" horiz-adv-x="604" 
d="M401 702q19 0 45.5 -1t59 -5.5t68.5 -15.5l-26 -129h-51.5h-47.5h-69q-35 0 -57 -9t-35.5 -32.5t-23 -67.5t-18.5 -115q-8 -61 -13.5 -98t-3.5 -56.5t15.5 -26.5t42.5 -7q38 0 55 21t22 51t7 56q2 18 -14 32t-47 14q-35 0 -68 -23.5t-80 -57.5l-4 73q30 52 65.5 85t79 49
t98.5 16q92 0 135 -40t41 -103q-4 -106 -30.5 -178.5t-89 -109t-173.5 -36.5q-78 0 -131.5 16t-83 55t-36.5 107t8 173q17 116 46.5 187.5t74 109.5t104 52t135.5 14z" />
    <glyph glyph-name="seven" unicode="7" horiz-adv-x="548" 
d="M505 690q57 0 75.5 -29.5t-2.5 -75.5l-293 -585h-213l222 442q9 20 22 39t30 38h-292l13 171h438z" />
    <glyph glyph-name="eight" unicode="8" horiz-adv-x="634" 
d="M356 704q107 0 164.5 -22t77 -65t9.5 -107q-5 -36 -19.5 -68t-41.5 -54t-72 -28l-1 -4q53 -5 77 -33.5t29 -70.5t-2 -88q-9 -64 -35.5 -103.5t-85 -57.5t-162.5 -18q-116 0 -179 22t-84.5 65.5t-14.5 107.5q5 43 21 82t48.5 65t85.5 29l1 4q-58 10 -77.5 56t-11.5 110
q8 62 35 101.5t84 58t154 18.5zM313 292q-20 0 -35.5 -2.5t-26 -11.5t-17.5 -26.5t-10 -47.5q-3 -26 1 -41t20.5 -20.5t48.5 -5.5q28 0 45.5 5.5t27 23.5t14.5 54q3 23 1.5 37t-9 21.5t-22 10.5t-38.5 3zM356 564q-27 0 -44 -5.5t-25.5 -23.5t-13.5 -54q-2 -22 0.5 -34.5
t16 -17.5t43.5 -5q21 0 35 3t22.5 10.5t14 22t8.5 37.5q4 29 0.5 43t-17 19t-40.5 5z" />
    <glyph glyph-name="nine" unicode="9" horiz-adv-x="605" 
d="M345 700q82 0 134 -17t78.5 -57t30.5 -110t-11 -175q-14 -105 -38.5 -173.5t-64 -108.5t-97.5 -56.5t-140 -16.5q-35 0 -95.5 4.5t-123.5 18.5l14 131h59.5h59.5h75q40 0 65.5 11.5t41.5 38t25 70.5t16 109q7 61 10.5 97t0 54t-17.5 23.5t-42 5.5q-27 0 -42.5 -6
t-22.5 -23t-11 -51q-4 -39 -2 -59.5t12.5 -28t31.5 -7.5q29 0 51.5 6.5t49 24.5t65.5 52l2 -77q-36 -59 -74 -91.5t-78 -44.5t-82 -12q-64 0 -101.5 21.5t-54.5 56.5t-20 74.5t2 75.5q9 65 25 111t47 74.5t84.5 41.5t137.5 13z" />
    <glyph glyph-name="colon" unicode=":" horiz-adv-x="275" 
d="M162 462q35 0 54.5 -19t14.5 -57l-6 -41q-4 -35 -23 -51.5t-57 -16.5h-40q-78 0 -69 76l5 41q10 68 81 68h40zM123 186q35 0 54.5 -19t14.5 -57l-6 -41q-4 -35 -23 -51.5t-57 -16.5h-40q-78 0 -69 76l5 41q10 68 81 68h40z" />
    <glyph glyph-name="semicolon" unicode=";" horiz-adv-x="273" 
d="M177 462q35 0 54.5 -19t14.5 -57l-6 -41q-4 -35 -23 -51.5t-57 -16.5h-40q-78 0 -69 76l5 41q10 68 81 68h40zM138 185q40 0 56 -17.5t11 -58.5l-9 -64q-5 -35 -18 -74t-31.5 -74.5t-40.5 -61.5l-85 32q15 34 24.5 68.5t18.5 68.5q-33 -1 -44.5 15t-7.5 49l7 46
q6 41 26 56t57 15h36z" />
    <glyph glyph-name="less" unicode="&#x3c;" horiz-adv-x="503" 
d="M494 542l-22 -168l-268 -69l246 -77l-21 -162l-413 157l22 161z" />
    <glyph glyph-name="equal" unicode="=" horiz-adv-x="571" 
d="M552 483l-22 -154h-478l22 154h478zM523 271l-24 -154h-478l24 154h478z" />
    <glyph glyph-name="greater" unicode="&#x3e;" horiz-adv-x="500" 
d="M77 541l410 -157l-22 -161l-453 -159l23 167l265 79l-242 79z" />
    <glyph glyph-name="question" unicode="?" horiz-adv-x="540" 
d="M337 712q120 0 173.5 -40t42.5 -123q-6 -42 -26.5 -72.5t-48.5 -55.5t-57.5 -51t-55 -60t-39.5 -82h-164q4 46 19 84t35.5 68.5t41.5 54.5t37.5 43t23.5 33q11 23 2.5 29t-34.5 6h-88h-62h-63l1 139q32 6 58 11t54 8.5t63.5 5.5t86.5 2zM257 185q36 0 55.5 -19t14.5 -57
l-6 -41q-4 -35 -22.5 -51.5t-56.5 -16.5h-41q-78 0 -70 76l6 41q9 68 80 68h40z" />
    <glyph glyph-name="at" unicode="@" horiz-adv-x="822" 
d="M427 655q125 1 203 -10.5t118 -45.5t47.5 -101t-8.5 -178q-14 -94 -29.5 -158t-45 -103t-82 -56t-140.5 -17q-60 0 -97.5 17.5t-56.5 44.5t-24.5 57.5t-1.5 55.5l44 266h186l-44 -271q-3 -19 2.5 -27t18.5 -8q23 0 35.5 8t20.5 29.5t15.5 62.5t19.5 107q10 55 11.5 90.5
t-7 55t-31 28.5t-60.5 11t-96 2h-347l9 130q55 3 113 5t116 3.5t111 1.5zM274 455q66 0 130.5 -8t135.5 -20l-83 -102q-68 2 -105 2.5t-58 0.5q-13 0 -24.5 -2.5t-21.5 -12t-18.5 -30.5t-15.5 -59q-7 -40 -5.5 -58t10.5 -22.5t23 -4.5q32 0 57 37t62 116l29 -56
q-20 -63 -48 -120t-69.5 -92.5t-102.5 -35.5q-42 0 -73 14.5t-49.5 44.5t-23.5 76t5 108q12 74 34 119t53 67.5t70.5 30t87.5 7.5z" />
    <glyph glyph-name="A" unicode="A" horiz-adv-x="678" 
d="M489 690q26 0 46 -17t23 -43l89 -630h-217l-36 453q-2 20 -2 39t1 38h-28q-3 -16 -7.5 -35.5t-12.5 -39.5l-169 -455h-225l266 638q10 26 30 39t46 13h196zM522 304l-18 -158h-363l19 158h362z" />
    <glyph glyph-name="B" unicode="B" horiz-adv-x="657" 
d="M391 698q92 0 147.5 -16.5t78 -57.5t12.5 -114q-10 -71 -40 -107t-102 -42l-1 -6q82 -7 111 -56t17 -135q-9 -69 -39 -106.5t-85.5 -51.5t-141.5 -14q-78 0 -135.5 0.5t-105 2.5t-96.5 5l29 145q26 -1 99 -2t167 -1q32 0 50 6.5t27 24t14 51.5q4 28 1 42.5t-15.5 20
t-37.5 5.5h-278l17 131h265q26 0 40 5.5t21.5 21t11.5 45.5q3 20 0.5 31.5t-11.5 16.5t-27 5h-112.5t-85.5 -0.5t-76 -2.5l-2 145q43 4 85 5.5t90 2t108 0.5zM320 690l-97 -690h-212l97 690h212z" />
    <glyph glyph-name="C" unicode="C" horiz-adv-x="603" 
d="M391 702q52 0 90.5 -3t71 -9t65.5 -16l-25 -157q-36 1 -67.5 1t-65.5 0.5t-80 0.5q-27 0 -45 -6t-30.5 -24t-21 -54.5t-16.5 -97.5q-9 -68 -9.5 -104t14.5 -49t52 -13q75 0 124 2t97 6l8 -159q-55 -17 -109 -24.5t-130 -7.5q-115 0 -181.5 34.5t-88.5 114.5t-3 216
q15 104 39.5 172t64 106.5t100 54.5t146.5 16z" />
    <glyph glyph-name="D" unicode="D" 
d="M389 700q112 0 182 -31.5t96.5 -110.5t6.5 -221q-15 -103 -39 -171t-64 -106t-101 -54t-149 -16q-91 0 -166 3t-144 7l103 154q34 -4 90 -5.5t114 -1.5q26 0 46 8t35.5 30t27 62.5t19.5 105.5q8 58 9.5 95t-5 58t-23 29t-45.5 8h-71t-62.5 0.5t-56.5 0.5l-84 146
q39 3 84 5.5t95 3.5t102 1zM325 690l-97 -690h-217l97 690h217z" />
    <glyph glyph-name="E" unicode="E" horiz-adv-x="587" 
d="M259 694q61 0 123.5 -1t120.5 -3.5t104 -9.5l-24 -152h-240q-25 0 -36.5 -8.5t-14.5 -31.5l-40 -287q-3 -19 6 -29t31 -10h240l-4 -154q-48 -7 -106 -9t-118 -2.5t-114 -0.5q-85 0 -125 53t-30 135l50 357q10 70 55.5 111.5t121.5 41.5zM85 425h447l-18 -144h-452z" />
    <glyph glyph-name="F" unicode="F" horiz-adv-x="567" 
d="M261 694q89 0 181 -2t161 -13l-24 -151h-230q-27 0 -39 -8.5t-15 -31.5l-68 -488h-218l76 541q10 71 58 112t118 41zM85 411h440l-18 -144h-443z" />
    <glyph glyph-name="G" unicode="G" horiz-adv-x="670" 
d="M420 704q41 0 80.5 -3t77.5 -9.5t73 -17.5l-24 -155q-37 1 -71.5 1t-70.5 0.5t-80 0.5q-33 0 -55.5 -9t-37.5 -30t-25.5 -56.5t-18.5 -88.5q-10 -68 -9 -104t16.5 -49t48.5 -13q31 0 50 8t32 18t23 15l36 -86q-12 -14 -32.5 -37t-50.5 -47t-69.5 -40t-89.5 -16
q-68 0 -115.5 34t-66 114.5t0.5 218.5q15 107 43 175.5t73 107t109.5 53.5t152.5 15zM648 397l-56 -397h-159l-11 107l-16 37l35 253h207z" />
    <glyph glyph-name="H" unicode="H" horiz-adv-x="705" 
d="M326 690l-97 -690h-217l97 690h217zM467 443l-22 -154h-183l21 154h184zM708 690l-97 -690h-217l97 690h217z" />
    <glyph glyph-name="I" unicode="I" horiz-adv-x="322" 
d="M325 690l-97 -690h-216l97 690h216z" />
    <glyph glyph-name="J" unicode="J" horiz-adv-x="395" 
d="M400 690l-78 -567q-10 -67 -59 -102t-125 -35q-25 0 -57 3.5t-60.5 9.5t-44.5 15l34 134h37q32 0 47 10t17 29l73 503h216z" />
    <glyph glyph-name="K" unicode="K" horiz-adv-x="668" 
d="M725 690l-193 -288q-16 -25 -36 -39t-36 -20l-1 -4q14 -6 30 -27t25 -43l120 -269h-234l-131 353l216 337h240zM327 690l-27 -191q-4 -35 -16.5 -72.5t-34.5 -72.5q11 -31 14 -67t-2 -66l-31 -221h-218l97 690h218zM340 428l-19 -140h-113l19 140h113z" />
    <glyph glyph-name="L" unicode="L" horiz-adv-x="552" 
d="M323 690l-71 -478q-2 -22 5.5 -31t30.5 -9h228l-4 -163q-69 -9 -157 -11t-174 -2q-50 0 -86 21t-53.5 57.5t-10.5 82.5l74 533h218z" />
    <glyph glyph-name="M" unicode="M" horiz-adv-x="947" 
d="M857 690q37 0 56 -21t15 -58l-62 -611h-195l54 528h-14l-116 -356q-10 -33 -31 -47.5t-56 -14.5h-110q-34 0 -54.5 18.5t-22.5 51.5l-19 348h-16l-91 -528h-195l111 619q7 37 24.5 54t54.5 17h184q34 0 54 -18.5t21 -52.5l12 -274q2 -25 1 -50.5t-3 -52.5h10
q6 29 12 52.5t13 48.5l84 284q9 34 30.5 48.5t55.5 14.5h193z" />
    <glyph glyph-name="N" unicode="N" horiz-adv-x="730" 
d="M734 690l-87 -619q-5 -37 -23.5 -54t-55.5 -17h-72q-34 0 -48.5 18t-28.5 49l-118 237q-12 24 -20 53.5t-15 60.5h-7q1 -32 0 -63.5t-6 -64.5l-43 -290h-199l87 619q5 37 23.5 54t55.5 17h72q34 0 48 -18.5t28 -48.5l116 -225q12 -25 22.5 -53.5t19.5 -65.5h8
q-3 34 -2.5 61t4.5 56l42 294h199z" />
    <glyph glyph-name="O" unicode="O" 
d="M389 704q114 0 184 -32t95.5 -111.5t6.5 -223.5q-14 -106 -40.5 -175t-68.5 -107t-102.5 -53.5t-141.5 -15.5q-119 0 -187.5 32.5t-90.5 112.5t-3 222q15 105 41 173.5t67 107.5t100 54.5t140 15.5zM387 543q-36 0 -57.5 -16t-34.5 -60t-27 -130q-12 -79 -11 -120
t18 -55.5t52 -14.5q38 0 59 16t34.5 60.5t26.5 129.5q12 79 11 119.5t-18 55.5t-53 15z" />
    <glyph glyph-name="P" unicode="P" horiz-adv-x="638" 
d="M386 700q106 0 167 -21.5t83 -74.5t9 -147q-12 -89 -41.5 -138t-85 -68t-146.5 -19q-51 0 -100.5 5.5t-92 14.5t-72.5 19t-41 18l6 96h141h140q26 0 41 5t23.5 24t13.5 59q4 28 1.5 44t-14.5 23t-37 7q-103 0 -174.5 -1.5t-96.5 -4.5l-2 149q45 5 84 7t84.5 2.5
t109.5 0.5zM324 690l-97 -690h-216l97 690h216z" />
    <glyph glyph-name="Q" unicode="Q" 
d="M389 704q114 0 184 -32t95.5 -111.5t6.5 -223.5q-14 -106 -40.5 -175t-68.5 -107t-102.5 -53.5t-141.5 -15.5q-119 0 -187.5 32.5t-90.5 112.5t-3 222q15 105 41 173.5t67 107.5t100 54.5t140 15.5zM241 -27q71 -28 148 -44t171 -30l-78 -175q-98 29 -173 66.5t-128 79.5
zM387 543q-36 0 -57.5 -16t-34.5 -60t-27 -130q-12 -79 -11 -120t18 -55.5t52 -14.5q38 0 59 16t34.5 60.5t26.5 129.5q12 79 11 119.5t-18 55.5t-53 15z" />
    <glyph glyph-name="R" unicode="R" horiz-adv-x="669" 
d="M387 700q96 0 160 -20t92 -67.5t17 -130.5q-5 -39 -20.5 -72.5t-47.5 -55.5t-88 -28l-1 -7q17 -2 36.5 -12.5t35 -33.5t19.5 -65l26 -208h-224l-18 209q-1 29 -9 36t-31 7q-77 1 -125 1t-80.5 1t-63.5 3l16 148h274q30 0 46.5 6t25 23.5t13.5 49.5q4 24 0 38t-17 19.5
t-38 5.5q-107 0 -178.5 -1.5t-96.5 -4.5l-2 149q45 5 84.5 7t85.5 2.5t109 0.5zM320 690l-97 -690h-212l97 690h212z" />
    <glyph glyph-name="S" unicode="S" horiz-adv-x="602" 
d="M357 704q58 0 123.5 -8t123.5 -28l-19 -138q-30 1 -70.5 1t-84.5 0.5t-87 0.5q-17 0 -29 -1.5t-20 -4.5t-12.5 -8.5t-6.5 -13.5q-1 -7 1.5 -14t12.5 -14t30 -17l116 -55q57 -27 86 -57t37.5 -68.5t2.5 -89.5q-9 -79 -39 -123.5t-89.5 -62t-159.5 -17.5q-43 0 -116.5 7.5
t-152.5 27.5l20 151q58 -1 107.5 -2.5t83.5 -2t47 -0.5q31 0 48.5 3t26 9.5t10.5 16.5q2 9 -0.5 15t-10.5 11.5t-22 12.5l-126 62q-58 29 -87 61.5t-37 70.5t-3 80q7 57 27.5 95t56.5 59.5t89 31t123 9.5z" />
    <glyph glyph-name="T" unicode="T" horiz-adv-x="618" 
d="M473 690l-97 -690h-217l97 690h217zM664 690l-23 -162h-598l23 162h598z" />
    <glyph glyph-name="U" unicode="U" 
d="M710 690l-59 -409q-15 -110 -50.5 -174.5t-102 -92.5t-176.5 -28q-105 0 -171.5 30t-93 96.5t-12.5 176.5l58 401h216l-58 -409q-8 -52 -6 -81.5t19 -41t53 -11.5q38 0 58.5 12.5t31 43.5t19.5 86l57 401h217z" />
    <glyph glyph-name="V" unicode="V" horiz-adv-x="665" 
d="M723 690l-257 -636q-21 -54 -76 -54h-189q-28 0 -47 18t-22 44l-78 628h218l24 -441q2 -22 1.5 -45t-1.5 -45h26q4 23 10 44t13 42l150 445h228z" />
    <glyph glyph-name="W" unicode="W" horiz-adv-x="995" 
d="M1030 690l-174 -636q-7 -26 -27 -40t-49 -14h-182q-28 0 -49 18t-20 44l7 369q1 29 2.5 53t2.5 52h-18q-4 -25 -9 -51t-11 -51l-99 -380q-7 -26 -27.5 -40t-48.5 -14h-187q-28 0 -49 18t-20 44l2 628h213l-27 -427q-1 -25 -3.5 -53.5t-4.5 -61.5h17q6 32 13.5 64.5
t14.5 59.5l96 358q16 60 77 60h151q29 0 48 -19.5t19 -48.5v-360q0 -27 -0.5 -57t-1.5 -57h18q3 28 9 62t12 59l92 421h213z" />
    <glyph glyph-name="X" unicode="X" horiz-adv-x="672" 
d="M277 690l95 -358l-188 -332h-230l218 352l-104 338h209zM448 414l-17 -120h-207l17 120h207zM720 690l-204 -338l117 -352h-213l-99 374l178 316h221z" />
    <glyph glyph-name="Y" unicode="Y" horiz-adv-x="649" 
d="M715 690l-298 -485l-208 1l-163 484h216l53 -221q7 -30 7.5 -54t-0.5 -47h15q2 21 10 47.5t20 51.5l117 223h231zM436 328l-45 -328h-218l46 328h217z" />
    <glyph glyph-name="Z" unicode="Z" horiz-adv-x="598" 
d="M344 539l250 -1l-334 -387l-251 1zM549 152l-21 -152h-539l20 152h540zM615 690l-21 -152h-519l21 152h519z" />
    <glyph glyph-name="bracketleft" unicode="[" horiz-adv-x="364" 
d="M407 768l-18 -128h-54q-16 0 -23 -5.5t-9 -20.5l-89 -628q-3 -23 19 -23h61l-18 -128h-171q-45 0 -73 22.5t-20 82.5l103 731q7 45 35.5 71t73.5 26h183z" />
    <glyph glyph-name="backslash" unicode="\" horiz-adv-x="581" 
d="M226 690l290 -769h-156l-290 769h156z" />
    <glyph glyph-name="bracketright" unicode="]" horiz-adv-x="364" 
d="M263 768q45 0 71.5 -30t20.5 -75l-103 -731q-6 -45 -34.5 -71t-73.5 -26h-183l18 128h54q15 0 22 5.5t9 20.5l89 628q3 23 -18 23h-61l18 128h171z" />
    <glyph glyph-name="asciicircum" unicode="^" horiz-adv-x="497" 
d="M376 653l113 -239l-83 -42l-111 157h-8l-157 -157l-78 42l172 239h152z" />
    <glyph glyph-name="underscore" unicode="_" horiz-adv-x="451" 
d="M416 0l-17 -122h-451l17 122h451z" />
    <glyph glyph-name="grave" unicode="`" horiz-adv-x="392" 
d="M167 747l235 -150l-67 -86l-248 106z" />
    <glyph glyph-name="a" unicode="a" horiz-adv-x="613" 
d="M354 514q26 0 61.5 -3t72 -8t66 -10.5t43.5 -10.5l-163 -106q-25 1 -48 1h-58q-16 0 -30 -3.5t-25 -14t-20 -32t-14 -57.5q-7 -51 -9.5 -77.5t4.5 -35.5t26 -8q19 2 42 20.5t44 47t34 60.5l34 -56q-15 -73 -48.5 -123.5t-82.5 -77.5t-113 -32q-72 -5 -108 28t-43 97
t6 151q14 89 41.5 139.5t69 74t96.5 30t122 6.5zM392 500l205 -18l-68 -482h-162l-2 109l-27 16z" />
    <glyph glyph-name="b" unicode="b" horiz-adv-x="616" 
d="M439 514q62 0 98.5 -29t48 -88t-2.5 -149q-7 -49 -23.5 -95.5t-48.5 -83.5t-85.5 -59t-135.5 -22q-28 0 -67.5 2.5t-81.5 7.5t-78 13t-57 19l174 111q9 -4 27 -7t38.5 -4.5t34.5 -0.5q20 1 34 7.5t24.5 21t18 40.5t13.5 65q6 36 5.5 55t-7.5 26t-23 7q-34 0 -60.5 -15.5
t-55.5 -35.5l-27 67q19 31 43.5 57.5t54 46.5t64.5 31.5t75 11.5zM311 700l-16 -123q-4 -37 -12.5 -72.5t-25.5 -74.5l18 -8l-59 -402l-210 10l94 670h211z" />
    <glyph glyph-name="c" unicode="c" horiz-adv-x="536" 
d="M303 514q58 0 120 -9.5t109 -29.5l-28 -128h-100h-76q-30 0 -47.5 -9t-26.5 -29.5t-14 -55.5q-6 -41 -2.5 -62.5t19 -29t45.5 -7.5q20 0 47 0.5t58.5 2t62.5 4.5l15 -133q-49 -23 -107.5 -31.5t-112.5 -8.5q-88 0 -147.5 27t-84.5 87t-12 157q13 90 43 146t87.5 82.5
t151.5 26.5z" />
    <glyph glyph-name="d" unicode="d" horiz-adv-x="617" 
d="M236 514q82 0 151 -11.5t105 -37.5l-19 -78h-65.5h-80.5q-22 0 -37 -4.5t-24.5 -16.5t-16 -35t-11.5 -61q-4 -36 -6 -60.5t5 -36.5t27 -11q32 2 57.5 18t46.5 32l38 -86q-12 -14 -34.5 -37t-53 -46t-66.5 -39t-77 -16q-62 0 -99.5 30.5t-50.5 92t-1 153.5q10 75 29.5 124
t47 76.5t62 38.5t73.5 11zM631 700l-99 -700h-166l-6 134l-19 11l46 339l9 16q0 25 1.5 51t5.5 54l18 95h210z" />
    <glyph glyph-name="e" unicode="e" horiz-adv-x="590" 
d="M326 514q104 0 161 -21.5t76.5 -62.5t10.5 -102q-6 -45 -31 -70t-69.5 -37t-112.5 -17l-266 -20l13 99l198 20q21 2 35 5.5t22.5 12.5t10.5 28q1 11 -2 18t-13 10t-31 2q-21 0 -35 -5.5t-23 -18t-15.5 -35.5t-12.5 -59q-8 -49 -5.5 -73t19.5 -31.5t51 -7.5q21 0 57.5 1.5
t77 4t70.5 5.5l14 -128q-35 -16 -75 -26t-81 -14t-81 -4q-114 0 -175 31t-81 90.5t-12 144.5q8 80 32 131t62 79t91 39t120 11z" />
    <glyph glyph-name="f" unicode="f" horiz-adv-x="423" 
d="M321 724q23 0 57 -1.5t69 -5t59 -8.5l-32 -125h-80q-30 0 -43 -12t-18 -44l-83 -560q-10 -70 -52.5 -114.5t-137.5 -44.5q-29 0 -65.5 4t-89.5 11l32 125h49q32 0 45.5 12.5t18.5 43.5l81 560q11 71 53.5 115t136.5 44zM446 500l-17 -126h-407l15 121l86 5h323z" />
    <glyph glyph-name="g" unicode="g" horiz-adv-x="618" 
d="M397 500l205 -18l-55 -392q-13 -98 -44 -157t-75 -88.5t-95.5 -39t-104.5 -9.5q-20 0 -59.5 2t-84 9.5t-79.5 23.5l10 113h29.5h37h59.5q71 0 121 13.5t74 50.5q17 26 22 53t18 52l-33 12zM299 514q67 0 127.5 -5t106.5 -12.5t69 -14.5l-162 -106q-26 1 -50 1h-59
q-25 0 -40.5 -5.5t-24.5 -17.5t-15 -32.5t-11 -51.5q-9 -51 -10 -78.5t7.5 -36.5t25.5 -6q21 4 43.5 21.5t43.5 45.5t35 61l34 -56q-15 -70 -50 -119t-84.5 -75t-111.5 -29q-72 -3 -108.5 29t-44 93.5t5.5 143.5q14 89 38 139.5t58 74t78.5 30t98.5 6.5z" />
    <glyph glyph-name="h" unicode="h" horiz-adv-x="619" 
d="M451 514q77 0 112.5 -37.5t25.5 -106.5l-52 -370h-210l44 311q3 17 -1 21.5t-18 4.5q-24 0 -48 -10t-62 -40l-35 87q65 73 128 106.5t116 33.5zM311 700l-21 -153q-7 -54 -23.5 -103.5t-29.5 -78.5l25 -9l-49 -356h-210l98 700h210z" />
    <glyph glyph-name="i" unicode="i" horiz-adv-x="304" 
d="M285 500l-69 -500h-209l69 500h209zM250 729q34 0 49 -16t11 -50l-7 -51q-7 -58 -69 -58h-82q-66 0 -59 66l7 51q6 58 69 58h81z" />
    <glyph glyph-name="j" unicode="j" horiz-adv-x="306" 
d="M289 500l-65 -446q-6 -52 -30 -100.5t-62.5 -86.5t-89.5 -59l-115 97q43 40 63 77t26 80l63 438h210zM250 729q35 0 49.5 -16t9.5 -50l-7 -51q-7 -58 -71 -58h-79q-67 0 -60 66l7 51q7 58 72 58h79z" />
    <glyph glyph-name="k" unicode="k" horiz-adv-x="609" 
d="M311 700l-38 -272q-5 -31 -15.5 -61t-27.5 -61q2 -36 4.5 -83.5t-1.5 -83.5l-20 -139h-210l98 700h210zM604 500q-19 -82 -61.5 -139.5t-99 -95.5t-119 -63t-121.5 -42l-20 124q48 18 91 50.5t73.5 75.5t40.5 90h216zM393 279q39 -15 61.5 -39t34.5 -51l91 -189h-215
l-106 230z" />
    <glyph glyph-name="l" unicode="l" horiz-adv-x="360" 
d="M311 700l-75 -522q-4 -19 4 -25.5t35 -6.5h40l12 -136q-16 -9 -43.5 -14t-55 -7.5t-44.5 -2.5q-84 0 -127.5 39t-35.5 105l81 570h209z" />
    <glyph glyph-name="m" unicode="m" horiz-adv-x="884" 
d="M236 500l9 -102l20 -12l-53 -386h-209l70 500h163zM424 514q73 0 107.5 -37.5t24.5 -106.5l-52 -370h-201l43 311q3 17 -2.5 21.5t-16.5 4.5q-10 0 -24 -4t-32.5 -14.5t-43.5 -29.5l-36 85q63 74 116 107t117 33zM721 514q75 0 109.5 -38t24.5 -106l-52 -370h-208l43 311
q2 17 -4 21.5t-15 4.5t-22.5 -4t-31.5 -14.5t-41 -29.5l-37 85q63 74 116.5 107t117.5 33z" />
    <glyph glyph-name="n" unicode="n" horiz-adv-x="619" 
d="M460 514q41 0 73 -16t48 -48t9 -80l-52 -370h-211l43 302q3 20 -2 28.5t-25 6.5q-18 -1 -42 -11t-59 -39l-35 87q50 64 118.5 102t134.5 38zM236 500l7 -134l20 -12l-50 -354h-210l69 500h164z" />
    <glyph glyph-name="o" unicode="o" horiz-adv-x="615" 
d="M327 514q100 0 161.5 -27t84.5 -86.5t9 -159.5q-13 -94 -46.5 -149.5t-95.5 -79.5t-162 -24q-99 0 -161 26.5t-86 85.5t-10 157q14 96 47 152t96 80.5t163 24.5zM323 372q-27 0 -42 -10t-24 -38t-17 -83q-6 -46 -5.5 -70t13 -32.5t38.5 -8.5t40 10t22.5 37.5t16.5 79.5
q7 48 6 72.5t-12 33.5t-36 9z" />
    <glyph glyph-name="p" unicode="p" horiz-adv-x="615" 
d="M440 512q57 0 92 -31.5t47.5 -92.5t0.5 -152q-10 -78 -31 -127t-51 -75.5t-68 -37t-83 -10.5q-24 0 -56.5 2.5t-67 8t-64 15t-47.5 23.5l20 78h65.5h79.5q25 0 40 5t23.5 17.5t14 35.5t10.5 59q7 49 7.5 75t-6.5 36t-23 10t-35.5 -9t-37.5 -23.5t-30 -31.5l-38 80
q10 15 31.5 39t53 48.5t70.5 41t83 16.5zM239 500v-126l22 -16l-41 -331l-11 -16q1 -25 -0.5 -50.5t-6.5 -54.5l-14 -86h-210l94 680h167z" />
    <glyph glyph-name="q" unicode="q" horiz-adv-x="617" 
d="M313 514q30 0 70.5 -2.5t82 -7.5t77.5 -13t57 -19l-174 -111q-9 5 -29.5 7.5t-40.5 4t-31 0.5q-19 -1 -33.5 -6.5t-24.5 -17.5t-17.5 -33.5t-12.5 -56.5q-5 -34 -5.5 -55.5t7.5 -31.5t28 -10t37.5 8.5t33.5 20t31 19.5l39 -81q-29 -43 -68.5 -74.5t-80.5 -49t-76 -17.5
q-67 0 -107 27.5t-53 86.5t0 152q8 57 23 104.5t45.5 82.5t84 54t137.5 19zM390 482l210 -10l-93 -652h-210l14 105q5 43 15 88.5t27 84.5l-18 8z" />
    <glyph glyph-name="r" unicode="r" horiz-adv-x="452" 
d="M237 500l10 -102l19 -12l-52 -386h-211l70 500h164zM479 514l-43 -192h-47q-27 0 -60 -3t-87 -12l-8 117q55 47 108 68.5t101 21.5h36z" />
    <glyph glyph-name="s" unicode="s" horiz-adv-x="548" 
d="M278 514q40 0 87 -3t91.5 -8t73.5 -12l-17 -121h-98h-93q-35 0 -53.5 -0.5t-25.5 -2.5t-8 -7q-1 -7 8.5 -13t40.5 -14l109 -29q41 -11 68 -32t39 -52.5t7 -73.5q-8 -66 -40 -99.5t-85.5 -45.5t-128.5 -12q-31 0 -70.5 1.5t-86 6.5t-99.5 14l17 121h41h62h65q52 0 78 1.5
t35.5 5t10.5 9.5q1 5 -3 8.5t-16 8t-35 10.5l-105 30q-47 14 -73.5 38.5t-35 58.5t-2.5 74q7 44 30 74.5t73.5 47t138.5 16.5z" />
    <glyph glyph-name="t" unicode="t" horiz-adv-x="439" 
d="M354 631l-65 -453q-3 -19 2.5 -25.5t28.5 -6.5h59l11 -136q-23 -9 -54 -14t-61.5 -7.5t-51.5 -2.5q-76 0 -118 39t-32 105l74 501h207zM455 500l-17 -126h-415l15 121l97 5h320z" />
    <glyph glyph-name="u" unicode="u" horiz-adv-x="613" 
d="M280 500l-45 -311q-2 -16 5 -21.5t18 -5.5q24 0 47 11t60 39l36 -86q-66 -73 -125 -106.5t-119 -33.5q-78 0 -113.5 37.5t-25.5 106.5l51 370h211zM598 500l-69 -500h-164l-6 134l-19 12l50 354h208z" />
    <glyph glyph-name="v" unicode="v" horiz-adv-x="607" 
d="M613 500q-5 -37 -13 -75.5t-17 -74t-19 -64.5q-21 -65 -43 -112.5t-34 -69.5q-25 -45 -52.5 -67t-61.5 -29.5t-81 -7.5h-148q-24 0 -40.5 15.5t-18.5 37.5l-53 447h230l-3 -374h9q21 0 30 12.5t25 51.5q11 28 19.5 58t16.5 70q11 51 16.5 101t8.5 81h229z" />
    <glyph glyph-name="w" unicode="w" horiz-adv-x="925" 
d="M254 501l-8 -371h6q15 0 24.5 16t17.5 50q5 18 9.5 40.5t8.5 50.5q4 22 7.5 47t7.5 53.5t9 60.5q2 17 16.5 34.5t45.5 17.5h172q24 0 40 -15t17 -38l3 -317h7q19 0 25 22t13 56q7 31 11.5 58.5t8.5 55.5q6 39 10.5 81.5t8.5 96.5h208q-4 -35 -9 -70t-11 -69t-14 -67
q-10 -46 -22.5 -88.5t-26.5 -77.5q-18 -45 -42.5 -73.5t-65.5 -41.5t-112 -13h-77q-25 0 -42 16.5t-17 39.5l2 320h-12q-1 -8 -3.5 -27t-6.5 -43.5t-9 -52.5q-3 -19 -7 -39t-8 -38t-8 -34q-18 -68 -47 -98t-68 -37t-90 -7h-110q-25 0 -41 16.5t-18 39.5l-16 445h213z" />
    <glyph glyph-name="x" unicode="x" horiz-adv-x="604" 
d="M233 500l98 -262l-160 -238h-216l181 255l-97 245h194zM409 316l-16 -118h-205l15 118h206zM627 500l-169 -245l106 -255h-197l-104 273l154 227h210z" />
    <glyph glyph-name="y" unicode="y" horiz-adv-x="622" 
d="M629 500q-7 -55 -23.5 -115.5t-37.5 -119.5t-42.5 -110.5t-40 -90t-30.5 -56.5q-47 -74 -105.5 -123.5t-128.5 -72t-155 -18.5l-13 113q36 13 67.5 23t60 26.5t55.5 47t54 84.5q29 57 49.5 117.5t36 132.5t28.5 162h225zM260 500l8 -358q0 -16 16 -16h56l-41 -126h-145
q-25 0 -42 15.5t-20 37.5l-62 447h230z" />
    <glyph glyph-name="z" unicode="z" horiz-adv-x="538" 
d="M265 366l250 -1l-258 -231l-251 1zM486 135l-18 -135h-478l17 135h479zM531 500l-17 -135h-467l18 135h466z" />
    <glyph glyph-name="braceleft" unicode="{" horiz-adv-x="366" 
d="M396 767l-16 -127q-31 0 -46.5 -6.5t-18.5 -35.5l-18 -125q-5 -42 -17.5 -72.5t-40 -49t-78.5 -25.5q42 -12 65.5 -33t31 -50t2.5 -64l-24 -174q-3 -20 8.5 -31t45.5 -11l-6 -129q-97 -15 -155 2.5t-80.5 57.5t-15.5 91l31 222q3 22 -1.5 31.5t-15.5 14t-28 11.5l16 130
q20 6 31.5 11.5t18.5 17.5t11 38l23 165q7 52 38 89t89.5 52t149.5 0z" />
    <glyph glyph-name="bar" unicode="|" horiz-adv-x="276" 
d="M280 781l-134 -950h-146l134 950h146z" />
    <glyph glyph-name="braceright" unicode="}" horiz-adv-x="365" 
d="M88 769q97 15 155 -2.5t81 -57t16 -91.5l-24 -165q-4 -26 -0.5 -36.5t14 -14.5t27.5 -10l-17 -130q-18 -7 -31.5 -13t-21.5 -17t-11 -33l-31 -222q-7 -51 -38 -88.5t-89.5 -52.5t-149.5 0l16 127q32 0 46.5 5t17.5 34l26 185q6 35 19 62.5t41.5 47.5t79.5 33
q-43 6 -66 25.5t-29 51.5t0 74l19 125q3 20 -9 27t-47 7z" />
    <glyph glyph-name="asciitilde" unicode="~" horiz-adv-x="500" 
d="M131 376q18 0 47.5 -6t61 -14t57 -15t35.5 -9q28 -6 36 7.5t12 35.5l84 -8q3 -85 -23 -125t-72 -40q-19 0 -48.5 6t-61 14t-57 15t-36.5 9q-26 5 -34.5 -7t-12.5 -36l-84 8q-2 60 11 96t36 52.5t49 16.5z" />
    <glyph glyph-name="uni00A0" unicode="&#xa0;" horiz-adv-x="210" 
 />
    <glyph glyph-name="exclamdown" unicode="&#xa1;" horiz-adv-x="312" 
d="M238 293l-11 -234l-32 -234h-208l32 234l55 234h164zM202 520q35 0 54.5 -19t14.5 -57l-6 -41q-4 -35 -23 -51.5t-57 -16.5h-40q-78 0 -69 76l5 41q10 68 81 68h40z" />
    <glyph glyph-name="cent" unicode="&#xa2;" horiz-adv-x="538" 
d="M312 611q58 0 119.5 -9.5t107.5 -29.5l-29 -128h-98.5h-74.5q-28 0 -44 -9t-24.5 -29.5t-13.5 -55.5q-6 -41 -2.5 -62.5t18 -29t41.5 -7.5q20 0 46.5 0.5t57 2t61.5 4.5l14 -133q-48 -23 -105.5 -31.5t-110.5 -8.5q-85 0 -143.5 27t-83.5 87t-12 157q13 90 42.5 146
t86 82.5t147.5 26.5zM315 175l-45 -175h-55l45 175h55zM409 490l-86 -315h-55l86 315h55zM459 690l-52 -200h-55l51 200h56z" />
    <glyph glyph-name="sterling" unicode="&#xa3;" horiz-adv-x="596" 
d="M362 703q38 0 103.5 -2.5t132.5 -7.5l-19 -155h-23.5h-26.5h-47.5h-88.5q-30 0 -42 -9t-14 -34l-7 -195q-1 -42 -14.5 -68.5t-34.5 -44t-45 -33.5q18 7 39.5 10t42.5 3h232l-22 -167h-529l18 169q55 25 76.5 60.5t23.5 78.5l11 205q5 58 20.5 95t43.5 58t70 29t100 8z
M481 414l-19 -100h-420l12 100h427z" />
    <glyph glyph-name="currency" unicode="&#xa4;" horiz-adv-x="570" 
d="M309 561q61 0 107 -29.5t69 -78.5t14 -109q-7 -55 -40 -101t-81.5 -73t-103.5 -27q-60 0 -106.5 29.5t-69.5 79t-15 108.5q8 56 41 101.5t82 72.5t103 27zM126 295l82 -91l-104 -95l-83 91zM438 276l88 -95l-92 -83l-87 95zM303 445q-44 0 -70.5 -24.5t-32.5 -65.5
q-6 -43 19 -68.5t62 -25.5q27 0 48.5 11t35.5 31.5t18 47.5q4 29 -5.5 50t-29 32.5t-45.5 11.5zM152 608l87 -97l-92 -83l-88 97zM483 602l83 -91l-93 -85l-83 91z" />
    <glyph glyph-name="yen" unicode="&#xa5;" horiz-adv-x="705" 
d="M741 690l-297 -485l-208 1l-162 484h216l53 -221q6 -30 6.5 -54t-0.5 -47h15q2 21 10 47.5t20 51.5l116 223h231zM463 328l-45 -328h-218l46 328h217zM594 228l-14 -100h-505l12 100h507zM612 358l-14 -100h-505l12 100h507z" />
    <glyph glyph-name="brokenbar" unicode="&#xa6;" horiz-adv-x="279" 
d="M282 781l-57 -400h-146l57 400h146zM204 231l-56 -400h-146l56 400h146z" />
    <glyph glyph-name="section" unicode="&#xa7;" horiz-adv-x="540" 
d="M61 334l145 -8q-4 -36 -2 -54.5t15.5 -30.5t42.5 -31l122 -76q11 -7 26 -18t29 -29.5t21 -49t0 -76.5q-9 -64 -39 -98.5t-81 -47t-123 -12.5q-26 0 -68.5 1.5t-86.5 4.5t-77 7l22 141q29 0 63 -1t71 -1q30 0 50 2t31.5 8.5t13.5 19.5q2 12 -4 20.5t-20 16.5l-94 55
q-56 30 -78.5 66.5t-16 83.5t37.5 107zM314 704q25 0 66 -1.5t85.5 -4t78.5 -6.5l-22 -142q-14 1 -27.5 1.5t-42 0.5t-86.5 -1q-25 0 -41 -2.5t-23.5 -8.5t-8.5 -18q-1 -9 5.5 -19.5t29.5 -24.5l83 -48q56 -29 78.5 -66t16.5 -83.5t-38 -107.5l-145 8q5 36 2.5 54t-16 30.5
t-42.5 31.5l-122 82q-21 16 -41 36.5t-31 51.5t-5 78q9 69 45 103t89 45t112 11z" />
    <glyph glyph-name="dieresis" unicode="&#xa8;" horiz-adv-x="436" 
d="M228 720q18 0 25 -8t5 -25l-11 -76q-2 -17 -10 -24.5t-25 -7.5h-81q-34 0 -30 33l11 73q3 19 11.5 27t27.5 8h77zM417 720q17 0 24.5 -8t5.5 -25l-11 -75q-3 -18 -10.5 -25.5t-24.5 -7.5h-81q-34 0 -30 33l11 74q3 19 11.5 26.5t24.5 7.5h80z" />
    <glyph glyph-name="copyright" unicode="&#xa9;" horiz-adv-x="787" 
d="M430 704q112 0 191 -45.5t117 -127.5t26 -194q-11 -106 -61.5 -185t-134 -122.5t-194.5 -43.5q-82 0 -148 24.5t-111.5 71.5t-65.5 115t-11 156q12 110 64 188.5t136.5 120.5t191.5 42zM432 541q40 0 71 -4.5t61 -12.5l-15 -108q-35 -1 -63 -0.5t-69 0.5q-16 0 -25.5 -5
t-14.5 -19.5t-8 -43.5q-3 -30 -1.5 -45.5t9.5 -20.5t23 -6q16 -1 39 -1t46.5 1.5t40.5 2.5l9 -109q-34 -11 -67.5 -15.5t-68.5 -4.5q-76 0 -120 19.5t-59.5 64.5t-6.5 120q9 71 33 112t69 58t117 17zM433 611q-84 0 -147.5 -32.5t-101.5 -94t-46 -147.5q-6 -78 17 -136
t76.5 -90t137.5 -32q82 0 145.5 31.5t102.5 93t47 149.5q7 80 -17 137.5t-77.5 89t-136.5 31.5z" />
    <glyph glyph-name="ordfeminine" unicode="&#xaa;" horiz-adv-x="449" 
d="M281 618q57 1 102 -6t62 -15l-119 -73q-15 1 -28.5 1h-36.5q-11 0 -21 -4.5t-18.5 -18.5t-13.5 -45q-4 -31 -5.5 -48t2.5 -22.5t15 -4.5q16 2 38.5 26t32.5 54l22 -37q-10 -48 -31 -81t-51.5 -51t-71.5 -21q-54 -3 -80 18.5t-30.5 64t3.5 99.5q9 58 28 91.5t47.5 49
t67 19.5t86.5 4zM300 609l145 -12l-45 -317h-116l-2 71l-18 11z" />
    <glyph glyph-name="guillemotleft" unicode="&#xab;" horiz-adv-x="554" 
d="M417 470l113 -70l-88 -149l62 -154l-110 -72l-142 202l3 45zM183 470l113 -70l-88 -149l62 -154l-110 -72l-142 202l3 45z" />
    <glyph glyph-name="logicalnot" unicode="&#xac;" horiz-adv-x="569" 
d="M534 387l-23 -154h-480l23 154h480zM534 387l-36 -249h-166l36 241z" />
    <glyph glyph-name="uni00AD" unicode="&#xad;" horiz-adv-x="384" 
d="M341 318l-18 -122h-291l18 122h291z" />
    <glyph glyph-name="registered" unicode="&#xae;" horiz-adv-x="494" 
d="M303 704q61 0 107.5 -29t70 -81t13.5 -120q-9 -63 -42 -111.5t-85.5 -76t-122.5 -27.5q-61 0 -108 29t-70 81.5t-14 120.5q10 64 42.5 112t85.5 75t123 27zM275 591l-29 -208h-85l29 208h85zM299 653q-82 0 -131.5 -48.5t-60.5 -130.5q-6 -50 11.5 -87t52 -57t77.5 -20
q55 0 95.5 22.5t65 63t30.5 94.5q7 50 -11 86.5t-52 56.5t-77 20zM281 594q39 0 64 -6.5t35.5 -21.5t6.5 -39q-1 -13 -11 -27.5t-39 -17.5l-1 -2q13 -1 22.5 -8t11.5 -30l6 -59h-88l-1 61q0 6 -2 8t-8 2h-44.5t-27.5 0.5t-23 0.5l1 50h99q9 0 14 2t6 12q2 8 0 12t-12 4
h-43.5h-32.5h-19l-5 56q23 2 41.5 2.5t49.5 0.5z" />
    <glyph glyph-name="macron" unicode="&#xaf;" horiz-adv-x="400" 
d="M425 713l-17 -123h-320l17 123h320z" />
    <glyph glyph-name="degree" unicode="&#xb0;" horiz-adv-x="332" 
d="M210 698q39 0 72.5 -18t52 -50t12.5 -76q-7 -59 -48 -94t-105 -35q-40 0 -73 18t-50 50.5t-11 76.5q8 56 46.5 92t103.5 36zM206 610q-23 0 -35.5 -13t-14.5 -33q-3 -24 9.5 -37.5t34.5 -13.5q21 0 35 12.5t16 34.5t-9.5 36t-35.5 14z" />
    <glyph glyph-name="plusminus" unicode="&#xb1;" horiz-adv-x="555" 
d="M395 573l-53 -369h-152l52 369h153zM496 174l-22 -155h-469l23 155h468zM538 465l-23 -154h-468l22 154h469z" />
    <glyph glyph-name="uni00B2" unicode="&#xb2;" horiz-adv-x="431" 
d="M276 781q85 0 127.5 -17t42.5 -76q0 -28 -11 -50.5t-29 -41.5t-40 -35l-102 -75q16 5 29 7t29 1l108 -3l-19 -131h-359l12 79q2 20 8.5 35.5t22.5 28.5l83 63q21 16 42 32.5t35 29.5t14 17q0 3 -7.5 4t-21.5 1q-34 0 -63.5 0.5t-75.5 1.5l13 117q50 8 95 10t67 2z" />
    <glyph glyph-name="uni00B3" unicode="&#xb3;" horiz-adv-x="411" 
d="M278 783q80 0 118.5 -15.5t38.5 -56.5q0 -62 -23 -93.5t-73 -36.5v-2q41 -5 60 -21.5t19 -48.5q0 -62 -21.5 -96.5t-64 -48t-106.5 -13.5q-44 0 -90.5 3.5t-87.5 8.5l20 113q32 -1 52.5 -1h37h35.5q35 0 49 3.5t14 28.5q0 9 -7.5 11.5t-30.5 3.5l-87 3l13 93l88 4
q26 1 33.5 5t7.5 21q0 8 -7 10t-30 2q-37 0 -71.5 0.5t-60.5 1.5l12 109q43 6 83.5 9t78.5 3z" />
    <glyph glyph-name="acute" unicode="&#xb4;" horiz-adv-x="392" 
d="M337 753l66 -146l-266 -96l-47 86z" />
    <glyph glyph-name="uni00B5" unicode="&#xb5;" horiz-adv-x="644" 
d="M299 500l-44 -304q-2 -17 3 -25.5t19 -8.5q16 0 35.5 13t37 47.5t26.5 99.5l-23 -230q-26 -40 -53.5 -63.5t-57.5 -33t-65 -9.5q-52 0 -85 17t-47.5 49t-7.5 78l51 370h211zM611 500l-48 -338q-4 -24 -0.5 -34.5t19.5 -10.5h40l-7 -102q-30 -10 -74.5 -19t-86.5 -9
q-49 0 -78.5 21.5t-29.5 72.5v3v16l54 400h211zM237 61l-18 -126l-43 -115h-183l56 397z" />
    <glyph glyph-name="paragraph" unicode="&#xb6;" horiz-adv-x="595" 
d="M382 702q44 0 97.5 -4t96.5 -13l-16 -117q-24 5 -55.5 7t-61.5 3t-51 1l-150 -379q-82 7 -130 41t-65 90t-7 127q14 91 51.5 144t108.5 76.5t182 23.5zM419 685l-126 -895h-125l126 895h125zM576 685l-96 -685h-125l96 685h125z" />
    <glyph glyph-name="periodcentered" unicode="&#xb7;" horiz-adv-x="262" 
d="M155 351q35 0 54.5 -19t14.5 -57l-6 -41q-4 -35 -23 -51.5t-57 -16.5h-40q-78 0 -69 76l5 41q10 68 81 68h40z" />
    <glyph glyph-name="cedilla" unicode="&#xb8;" horiz-adv-x="263" 
d="M26 -33q54 7 95 5.5t62.5 -19t14.5 -59.5q-9 -55 -45 -88.5t-88.5 -45.5t-114.5 -4l21 77q33 0 62.5 7.5t36.5 38.5q2 10 -7.5 13t-54.5 3z" />
    <glyph glyph-name="uni00B9" unicode="&#xb9;" horiz-adv-x="321" 
d="M348 774l-58 -414h-160l32 231q2 15 5.5 29.5t9.5 30.5l-99 -14l-4 98l114 39h160z" />
    <glyph glyph-name="ordmasculine" unicode="&#xba;" horiz-adv-x="434" 
d="M251 623q104 0 147 -43t29 -144q-8 -62 -30 -99t-63 -52.5t-108 -15.5q-103 0 -147 41.5t-31 141.5q14 95 60.5 133t142.5 38zM249 521q-13 0 -21.5 -7t-13.5 -25t-10 -53q-4 -28 -1.5 -47t24.5 -19q21 0 29 17t15 65q7 47 1 58t-23 11z" />
    <glyph glyph-name="guillemotright" unicode="&#xbb;" horiz-adv-x="555" 
d="M125 27l-113 70l88 149l-62 154l110 72l142 -202l-3 -45zM359 27l-113 70l88 149l-62 154l110 72l142 -202l-3 -45z" />
    <glyph glyph-name="onequarter" unicode="&#xbc;" horiz-adv-x="957" 
d="M744 690l-483 -690h-133l483 690h133zM337 690l-59 -414h-159l33 235q2 15 5 29.5t9 30.5l-90 -18l-6 98l107 39h160zM778 414l-108 -224q-4 -8 -1 -11t8 -3h238l-11 -86l-47 -13h-311q-24 0 -37 13t-14.5 31.5t7.5 34.5l133 258h143zM892 331l-47 -331h-140l36 262
l34 69h117z" />
    <glyph glyph-name="onehalf" unicode="&#xbd;" horiz-adv-x="945" 
d="M742 690l-482 -690h-133l483 690h132zM337 690l-59 -414h-160l33 235q2 15 5 29.5t9 30.5l-90 -18l-5 98l106 39h161zM729 421q55 0 98.5 -8.5t66 -35.5t12.5 -82q-4 -22 -18.5 -44t-51.5 -48l-110 -76q16 5 28.5 6.5t27.5 0.5l110 -3l-18 -131h-354l12 83q3 20 7.5 35
t17.5 28l83 63q34 24 56.5 40t32.5 26q10 8 6.5 14.5t-14.5 6.5h-48t-42.5 0.5t-53.5 1.5v112q50 8 93 9.5t59 1.5z" />
    <glyph glyph-name="threequarters" unicode="&#xbe;" horiz-adv-x="1006" 
d="M813 690l-482 -690h-132l481 690h133zM245 699q97 0 131.5 -23.5t26.5 -81.5q-2 -20 -11 -41.5t-28.5 -36.5t-54.5 -19l-1 -3q52 -6 68.5 -36.5t11.5 -74.5q-4 -33 -22 -59.5t-57 -41.5t-108 -15q-37 0 -82 4t-84 9l8 112q36 -1 59.5 -1h40.5h35q31 0 41 10t11 21
q1 8 -0.5 12t-5.5 5.5t-13 1.5l-100 2l13 93l98 -1q9 0 14.5 2.5t8 8.5t2.5 16q0 6 -3.5 10t-17.5 4q-20 0 -53.5 0.5t-80.5 1.5l-2 110q42 6 83 8.5t72 2.5zM832 416l-109 -224q-4 -8 -1 -11t8 -3h238l-11 -86l-46 -13h-310q-24 0 -37 13t-14.5 31.5t6.5 34.5l133 258h143z
M945 333l-47 -331h-139l36 260l33 71h117z" />
    <glyph glyph-name="questiondown" unicode="&#xbf;" horiz-adv-x="535" 
d="M365 290q-4 -52 -19 -91.5t-35 -69t-41.5 -52t-38.5 -39.5t-25 -31q-9 -16 -2.5 -25.5t37.5 -9.5h88.5h62.5h62l-2 -139q-32 -6 -58 -11t-53.5 -8.5t-63.5 -5.5t-87 -2q-120 0 -173.5 40.5t-42.5 122.5q6 42 26.5 71.5t49 53.5t58.5 50t55 60.5t38 85.5h164zM330 518
q35 0 54.5 -19t14.5 -57l-6 -41q-4 -35 -22.5 -51.5t-56.5 -16.5h-41q-78 0 -69 76l5 41q10 68 80 68h41z" />
    <glyph glyph-name="Agrave" unicode="&#xc0;" horiz-adv-x="678" 
d="M489 690q26 0 46 -17t23 -43l89 -630h-217l-36 453q-2 20 -2 39t1 38h-28q-3 -16 -7.5 -35.5t-12.5 -39.5l-169 -455h-225l266 638q10 26 30 39t46 13h196zM522 304l-18 -158h-363l19 158h362zM274 956l235 -150l-67 -86l-248 106z" />
    <glyph glyph-name="Aacute" unicode="&#xc1;" horiz-adv-x="678" 
d="M489 690q26 0 46 -17t23 -43l89 -630h-217l-36 453q-2 20 -2 39t1 38h-28q-3 -16 -7.5 -35.5t-12.5 -39.5l-169 -455h-225l266 638q10 26 30 39t46 13h196zM522 304l-18 -158h-363l19 158h362zM554 962l66 -146l-266 -96l-47 86z" />
    <glyph glyph-name="Acircumflex" unicode="&#xc2;" horiz-adv-x="678" 
d="M489 690q26 0 46 -17t23 -43l89 -630h-217l-36 453q-2 20 -2 39t1 38h-28q-3 -16 -7.5 -35.5t-12.5 -39.5l-169 -455h-225l266 638q10 26 30 39t46 13h196zM522 304l-18 -158h-363l19 158h362zM479 927l131 -140l-55 -68l-147 94h-8l-164 -94l-48 72l150 136h141z" />
    <glyph glyph-name="Atilde" unicode="&#xc3;" horiz-adv-x="678" 
d="M489 690q26 0 46 -17t23 -43l89 -630h-217l-36 453q-2 20 -2 39t1 38h-28q-3 -16 -7.5 -35.5t-12.5 -39.5l-169 -455h-225l266 638q10 26 30 39t46 13h196zM522 304l-18 -158h-363l19 158h362zM308 920q19 0 41.5 -5.5t44.5 -13.5t41.5 -15t32.5 -10q26 -6 35 6.5
t12 36.5l85 -8q4 -87 -23.5 -126t-71.5 -39q-19 0 -42 5.5t-46 13.5t-42.5 15t-33.5 10q-25 5 -33.5 -7t-12.5 -36l-85 8q-2 86 25.5 125.5t72.5 39.5z" />
    <glyph glyph-name="Adieresis" unicode="&#xc4;" horiz-adv-x="678" 
d="M489 690q26 0 46 -17t23 -43l89 -630h-217l-36 453q-2 20 -2 39t1 38h-28q-3 -16 -7.5 -35.5t-12.5 -39.5l-169 -455h-225l266 638q10 26 30 39t46 13h196zM522 304l-18 -158h-363l19 158h362zM364 904q18 0 25 -8t5 -25l-11 -76q-2 -17 -10 -24.5t-25 -7.5h-81
q-34 0 -30 33l11 73q3 19 11.5 27t27.5 8h77zM553 904q17 0 24.5 -8t5.5 -25l-11 -75q-3 -18 -10.5 -25.5t-24.5 -7.5h-81q-34 0 -30 33l11 74q3 19 11.5 26.5t24.5 7.5h80z" />
    <glyph glyph-name="Aring" unicode="&#xc5;" horiz-adv-x="678" 
d="M489 690q26 0 46 -17t23 -43l89 -630h-217l-36 453q-2 20 -2 39t1 38h-28q-3 -16 -7.5 -35.5t-12.5 -39.5l-169 -455h-225l266 638q10 26 30 39t46 13h196zM522 304l-18 -158h-363l19 158h362zM418 959q52 0 88 -30.5t36 -80.5q0 -58 -37.5 -94.5t-96.5 -36.5
q-51 0 -87.5 31t-36.5 80q0 58 38 94.5t96 36.5zM414 884q-20 0 -33 -12.5t-13 -35.5q0 -19 12.5 -31.5t30.5 -12.5q22 0 34.5 13.5t12.5 35.5q0 20 -12 31.5t-32 11.5z" />
    <glyph glyph-name="AE" unicode="&#xc6;" horiz-adv-x="956" 
d="M623 692q100 0 182 -1.5t172 -9.5l-26 -150h-230q-25 0 -35.5 -8.5t-13.5 -31.5l-43 -292q-2 -19 5.5 -29.5t30.5 -10.5h232l-3 -151q-79 -10 -167 -11t-168 -1q-73 0 -109.5 45.5t-26.5 115.5l48 345q2 14 8 31.5t13 30.5h-11q-6 -11 -14 -27.5t-13 -24.5l-287 -512
h-225l315 538q24 42 52 71.5t68 47.5t99.5 26.5t146.5 8.5zM493 314l-20 -158h-357l20 158h357zM468 420h432l-16 -134h-436z" />
    <glyph glyph-name="Ccedilla" unicode="&#xc7;" horiz-adv-x="603" 
d="M391 702q52 0 90.5 -3t71 -9t65.5 -16l-25 -157q-36 1 -67.5 1t-65.5 0.5t-80 0.5q-27 0 -45 -6t-30.5 -24t-21 -54.5t-16.5 -97.5q-9 -68 -9.5 -104t14.5 -49t52 -13q75 0 124 2t97 6l8 -159q-55 -17 -109 -24.5t-130 -7.5q-115 0 -181.5 34.5t-88.5 114.5t-3 216
q15 104 39.5 172t64 106.5t100 54.5t146.5 16zM200 -57q54 7 95 5.5t62.5 -19t14.5 -59.5q-9 -55 -45 -88.5t-88.5 -45.5t-114.5 -4l21 77q33 0 62.5 7.5t36.5 38.5q2 10 -7.5 13t-54.5 3z" />
    <glyph glyph-name="Egrave" unicode="&#xc8;" horiz-adv-x="587" 
d="M259 694q61 0 123.5 -1t120.5 -3.5t104 -9.5l-24 -152h-240q-25 0 -36.5 -8.5t-14.5 -31.5l-40 -287q-3 -19 6 -29t31 -10h240l-4 -154q-48 -7 -106 -9t-118 -2.5t-114 -0.5q-85 0 -125 53t-30 135l50 357q10 70 55.5 111.5t121.5 41.5zM85 425h447l-18 -144h-452z
M256 956l235 -150l-67 -86l-248 106z" />
    <glyph glyph-name="Eacute" unicode="&#xc9;" horiz-adv-x="587" 
d="M259 694q61 0 123.5 -1t120.5 -3.5t104 -9.5l-24 -152h-240q-25 0 -36.5 -8.5t-14.5 -31.5l-40 -287q-3 -19 6 -29t31 -10h240l-4 -154q-48 -7 -106 -9t-118 -2.5t-114 -0.5q-85 0 -125 53t-30 135l50 357q10 70 55.5 111.5t121.5 41.5zM85 425h447l-18 -144h-452z
M536 962l66 -146l-266 -96l-47 86z" />
    <glyph glyph-name="Ecircumflex" unicode="&#xca;" horiz-adv-x="587" 
d="M259 694q61 0 123.5 -1t120.5 -3.5t104 -9.5l-24 -152h-240q-25 0 -36.5 -8.5t-14.5 -31.5l-40 -287q-3 -19 6 -29t31 -10h240l-4 -154q-48 -7 -106 -9t-118 -2.5t-114 -0.5q-85 0 -125 53t-30 135l50 357q10 70 55.5 111.5t121.5 41.5zM85 425h447l-18 -144h-452z
M461 927l131 -140l-55 -68l-147 94h-8l-164 -94l-48 72l150 136h141z" />
    <glyph glyph-name="Edieresis" unicode="&#xcb;" horiz-adv-x="587" 
d="M259 694q61 0 123.5 -1t120.5 -3.5t104 -9.5l-24 -152h-240q-25 0 -36.5 -8.5t-14.5 -31.5l-40 -287q-3 -19 6 -29t31 -10h240l-4 -154q-48 -7 -106 -9t-118 -2.5t-114 -0.5q-85 0 -125 53t-30 135l50 357q10 70 55.5 111.5t121.5 41.5zM85 425h447l-18 -144h-452z
M346 904q18 0 25 -8t5 -25l-11 -76q-2 -17 -10 -24.5t-25 -7.5h-81q-34 0 -30 33l11 73q3 19 11.5 27t27.5 8h77zM535 904q17 0 24.5 -8t5.5 -25l-11 -75q-3 -18 -10.5 -25.5t-24.5 -7.5h-81q-34 0 -30 33l11 74q3 19 11.5 26.5t24.5 7.5h80z" />
    <glyph glyph-name="Igrave" unicode="&#xcc;" horiz-adv-x="322" 
d="M325 690l-97 -690h-216l97 690h216zM101 956l235 -150l-67 -86l-248 106z" />
    <glyph glyph-name="Iacute" unicode="&#xcd;" horiz-adv-x="322" 
d="M325 690l-97 -690h-216l97 690h216zM381 962l66 -146l-266 -96l-47 86z" />
    <glyph glyph-name="Icircumflex" unicode="&#xce;" horiz-adv-x="322" 
d="M325 690l-97 -690h-216l97 690h216zM306 927l131 -140l-55 -68l-147 94h-8l-164 -94l-48 72l150 136h141z" />
    <glyph glyph-name="Idieresis" unicode="&#xcf;" horiz-adv-x="322" 
d="M325 690l-97 -690h-216l97 690h216zM191 904q18 0 25 -8t5 -25l-11 -76q-2 -17 -10 -24.5t-25 -7.5h-81q-34 0 -30 33l11 73q3 19 11.5 27t27.5 8h77zM380 904q17 0 24.5 -8t5.5 -25l-11 -75q-3 -18 -10.5 -25.5t-24.5 -7.5h-81q-34 0 -30 33l11 74q3 19 11.5 26.5
t24.5 7.5h80z" />
    <glyph glyph-name="Eth" unicode="&#xd0;" 
d="M373 413l-14 -100h-351l14 100h351zM389 700q112 0 182 -31.5t96.5 -110.5t6.5 -221q-15 -103 -39 -171t-64 -106t-101 -54t-149 -16q-91 0 -166 3t-144 7l103 154q34 -4 90 -5.5t114 -1.5q26 0 46 8t35.5 30t27 62.5t19.5 105.5q8 58 9.5 95t-5 58t-23 29t-45.5 8h-71
t-62.5 0.5t-56.5 0.5l-84 146q39 3 84 5.5t95 3.5t102 1zM325 690l-97 -690h-217l97 690h217z" />
    <glyph glyph-name="Ntilde" unicode="&#xd1;" horiz-adv-x="730" 
d="M734 690l-87 -619q-5 -37 -23.5 -54t-55.5 -17h-72q-34 0 -48.5 18t-28.5 49l-118 237q-12 24 -20 53.5t-15 60.5h-7q1 -32 0 -63.5t-6 -64.5l-43 -290h-199l87 619q5 37 23.5 54t55.5 17h72q34 0 48 -18.5t28 -48.5l116 -225q12 -25 22.5 -53.5t19.5 -65.5h8
q-3 34 -2.5 61t4.5 56l42 294h199zM333 920q19 0 41.5 -5.5t44.5 -13.5t41.5 -15t32.5 -10q26 -6 35 6.5t12 36.5l85 -8q4 -87 -23.5 -126t-71.5 -39q-19 0 -42 5.5t-46 13.5t-42.5 15t-33.5 10q-25 5 -33.5 -7t-12.5 -36l-85 8q-2 86 25.5 125.5t72.5 39.5z" />
    <glyph glyph-name="Ograve" unicode="&#xd2;" 
d="M389 704q114 0 184 -32t95.5 -111.5t6.5 -223.5q-14 -106 -40.5 -175t-68.5 -107t-102.5 -53.5t-141.5 -15.5q-119 0 -187.5 32.5t-90.5 112.5t-3 222q15 105 41 173.5t67 107.5t100 54.5t140 15.5zM387 543q-36 0 -57.5 -16t-34.5 -60t-27 -130q-12 -79 -11 -120
t18 -55.5t52 -14.5q38 0 59 16t34.5 60.5t26.5 129.5q12 79 11 119.5t-18 55.5t-53 15zM288 956l235 -150l-67 -86l-248 106z" />
    <glyph glyph-name="Oacute" unicode="&#xd3;" 
d="M389 704q114 0 184 -32t95.5 -111.5t6.5 -223.5q-14 -106 -40.5 -175t-68.5 -107t-102.5 -53.5t-141.5 -15.5q-119 0 -187.5 32.5t-90.5 112.5t-3 222q15 105 41 173.5t67 107.5t100 54.5t140 15.5zM387 543q-36 0 -57.5 -16t-34.5 -60t-27 -130q-12 -79 -11 -120
t18 -55.5t52 -14.5q38 0 59 16t34.5 60.5t26.5 129.5q12 79 11 119.5t-18 55.5t-53 15zM568 962l66 -146l-266 -96l-47 86z" />
    <glyph glyph-name="Ocircumflex" unicode="&#xd4;" 
d="M389 704q114 0 184 -32t95.5 -111.5t6.5 -223.5q-14 -106 -40.5 -175t-68.5 -107t-102.5 -53.5t-141.5 -15.5q-119 0 -187.5 32.5t-90.5 112.5t-3 222q15 105 41 173.5t67 107.5t100 54.5t140 15.5zM387 543q-36 0 -57.5 -16t-34.5 -60t-27 -130q-12 -79 -11 -120
t18 -55.5t52 -14.5q38 0 59 16t34.5 60.5t26.5 129.5q12 79 11 119.5t-18 55.5t-53 15zM493 927l131 -140l-55 -68l-147 94h-8l-164 -94l-48 72l150 136h141z" />
    <glyph glyph-name="Otilde" unicode="&#xd5;" 
d="M389 704q114 0 184 -32t95.5 -111.5t6.5 -223.5q-14 -106 -40.5 -175t-68.5 -107t-102.5 -53.5t-141.5 -15.5q-119 0 -187.5 32.5t-90.5 112.5t-3 222q15 105 41 173.5t67 107.5t100 54.5t140 15.5zM387 543q-36 0 -57.5 -16t-34.5 -60t-27 -130q-12 -79 -11 -120
t18 -55.5t52 -14.5q38 0 59 16t34.5 60.5t26.5 129.5q12 79 11 119.5t-18 55.5t-53 15zM322 920q19 0 41.5 -5.5t44.5 -13.5t41.5 -15t32.5 -10q26 -6 35 6.5t12 36.5l85 -8q4 -87 -23.5 -126t-71.5 -39q-19 0 -42 5.5t-46 13.5t-42.5 15t-33.5 10q-25 5 -33.5 -7t-12.5 -36
l-85 8q-2 86 25.5 125.5t72.5 39.5z" />
    <glyph glyph-name="Odieresis" unicode="&#xd6;" 
d="M389 704q114 0 184 -32t95.5 -111.5t6.5 -223.5q-14 -106 -40.5 -175t-68.5 -107t-102.5 -53.5t-141.5 -15.5q-119 0 -187.5 32.5t-90.5 112.5t-3 222q15 105 41 173.5t67 107.5t100 54.5t140 15.5zM387 543q-36 0 -57.5 -16t-34.5 -60t-27 -130q-12 -79 -11 -120
t18 -55.5t52 -14.5q38 0 59 16t34.5 60.5t26.5 129.5q12 79 11 119.5t-18 55.5t-53 15zM378 904q18 0 25 -8t5 -25l-11 -76q-2 -17 -10 -24.5t-25 -7.5h-81q-34 0 -30 33l11 73q3 19 11.5 27t27.5 8h77zM567 904q17 0 24.5 -8t5.5 -25l-11 -75q-3 -18 -10.5 -25.5
t-24.5 -7.5h-81q-34 0 -30 33l11 74q3 19 11.5 26.5t24.5 7.5h80z" />
    <glyph glyph-name="multiply" unicode="&#xd7;" horiz-adv-x="526" 
d="M436 524l77 -124l-426 -335l-77 125zM152 514l336 -326l-111 -125l-335 336z" />
    <glyph glyph-name="Oslash" unicode="&#xd8;" 
d="M571 757l58 -27l-484 -801l-58 27zM389 704q114 0 184 -32t95.5 -111.5t6.5 -223.5q-14 -106 -40.5 -175t-68.5 -107t-102.5 -53.5t-141.5 -15.5q-119 0 -187.5 32.5t-90.5 112.5t-3 222q15 105 41 173.5t67 107.5t100 54.5t140 15.5zM387 543q-36 0 -57.5 -16t-34.5 -60
t-27 -130q-12 -79 -11 -120t18 -55.5t52 -14.5q38 0 59 16t34.5 60.5t26.5 129.5q12 79 11 119.5t-18 55.5t-53 15z" />
    <glyph glyph-name="Ugrave" unicode="&#xd9;" 
d="M710 690l-59 -409q-15 -110 -50.5 -174.5t-102 -92.5t-176.5 -28q-105 0 -171.5 30t-93 96.5t-12.5 176.5l58 401h216l-58 -409q-8 -52 -6 -81.5t19 -41t53 -11.5q38 0 58.5 12.5t31 43.5t19.5 86l57 401h217zM288 956l235 -150l-67 -86l-248 106z" />
    <glyph glyph-name="Uacute" unicode="&#xda;" 
d="M710 690l-59 -409q-15 -110 -50.5 -174.5t-102 -92.5t-176.5 -28q-105 0 -171.5 30t-93 96.5t-12.5 176.5l58 401h216l-58 -409q-8 -52 -6 -81.5t19 -41t53 -11.5q38 0 58.5 12.5t31 43.5t19.5 86l57 401h217zM568 962l66 -146l-266 -96l-47 86z" />
    <glyph glyph-name="Ucircumflex" unicode="&#xdb;" 
d="M710 690l-59 -409q-15 -110 -50.5 -174.5t-102 -92.5t-176.5 -28q-105 0 -171.5 30t-93 96.5t-12.5 176.5l58 401h216l-58 -409q-8 -52 -6 -81.5t19 -41t53 -11.5q38 0 58.5 12.5t31 43.5t19.5 86l57 401h217zM493 927l131 -140l-55 -68l-147 94h-8l-164 -94l-48 72
l150 136h141z" />
    <glyph glyph-name="Udieresis" unicode="&#xdc;" 
d="M710 690l-59 -409q-15 -110 -50.5 -174.5t-102 -92.5t-176.5 -28q-105 0 -171.5 30t-93 96.5t-12.5 176.5l58 401h216l-58 -409q-8 -52 -6 -81.5t19 -41t53 -11.5q38 0 58.5 12.5t31 43.5t19.5 86l57 401h217zM378 904q18 0 25 -8t5 -25l-11 -76q-2 -17 -10 -24.5
t-25 -7.5h-81q-34 0 -30 33l11 73q3 19 11.5 27t27.5 8h77zM567 904q17 0 24.5 -8t5.5 -25l-11 -75q-3 -18 -10.5 -25.5t-24.5 -7.5h-81q-34 0 -30 33l11 74q3 19 11.5 26.5t24.5 7.5h80z" />
    <glyph glyph-name="Yacute" unicode="&#xdd;" horiz-adv-x="649" 
d="M715 690l-298 -485l-208 1l-163 484h216l53 -221q7 -30 7.5 -54t-0.5 -47h15q2 21 10 47.5t20 51.5l117 223h231zM436 328l-45 -328h-218l46 328h217zM539 962l66 -146l-266 -96l-47 86z" />
    <glyph glyph-name="Thorn" unicode="&#xde;" horiz-adv-x="636" 
d="M367 578q104 0 165.5 -21.5t84 -74.5t9.5 -147q-12 -89 -41.5 -138t-84.5 -68t-145 -19q-68 0 -132.5 9.5t-111 23t-61.5 24.5l6 96h140.5h139.5q25 0 39 5t22.5 24t13.5 59q4 28 2 44t-13.5 23t-35.5 7q-102 0 -173.5 -1.5t-96.5 -4.5l3 149q44 5 81.5 7t81.5 2.5
t107 0.5zM326 690l-97 -690h-217l97 690h217z" />
    <glyph glyph-name="germandbls" unicode="&#xdf;" horiz-adv-x="731" 
d="M413 742q111 0 168 -18.5t74.5 -57.5t6.5 -100q-2 -14 -7 -31.5t-16 -37.5t-31 -43q-14 -16 -26.5 -29t-20.5 -24t-10 -23q-1 -14 10 -27t33 -35l46 -43q41 -41 55 -76.5t7 -73.5q-7 -45 -28.5 -74.5t-67 -44.5t-124.5 -15q-36 0 -76.5 3t-96.5 8l18 128h51.5h58.5
q17 0 30 2t20.5 8t7.5 19q0 7 -4 15.5t-17 22.5t-40 39l-26 20q-31 29 -46 55.5t-10 68.5q3 20 10.5 35.5t22 33.5t37.5 44q19 21 29 33.5t14.5 22.5t5.5 21q2 15 -2 22.5t-14.5 9.5t-29.5 2q-33 0 -52 -5.5t-27.5 -19.5t-12.5 -40l-79 -569q-7 -45 -27 -81t-59 -57
t-105 -21q-27 0 -63.5 4t-88.5 11l31 125h49q30 0 43 12.5t18 43.5l79 565q7 49 25 82t51.5 53t84 28.5t121.5 8.5zM221 500l-18 -126h-182l15 121l85 5h100z" />
    <glyph glyph-name="agrave" unicode="&#xe0;" horiz-adv-x="613" 
d="M354 514q26 0 61.5 -3t72 -8t66 -10.5t43.5 -10.5l-163 -106q-25 1 -48 1h-58q-16 0 -30 -3.5t-25 -14t-20 -32t-14 -57.5q-7 -51 -9.5 -77.5t4.5 -35.5t26 -8q19 2 42 20.5t44 47t34 60.5l34 -56q-15 -73 -48.5 -123.5t-82.5 -77.5t-113 -32q-72 -5 -108 28t-43 97
t6 151q14 89 41.5 139.5t69 74t96.5 30t122 6.5zM392 500l205 -18l-68 -482h-162l-2 109l-27 16zM231 768l235 -150l-67 -86l-248 106z" />
    <glyph glyph-name="aacute" unicode="&#xe1;" horiz-adv-x="613" 
d="M354 514q26 0 61.5 -3t72 -8t66 -10.5t43.5 -10.5l-163 -106q-25 1 -48 1h-58q-16 0 -30 -3.5t-25 -14t-20 -32t-14 -57.5q-7 -51 -9.5 -77.5t4.5 -35.5t26 -8q19 2 42 20.5t44 47t34 60.5l34 -56q-15 -73 -48.5 -123.5t-82.5 -77.5t-113 -32q-72 -5 -108 28t-43 97
t6 151q14 89 41.5 139.5t69 74t96.5 30t122 6.5zM392 500l205 -18l-68 -482h-162l-2 109l-27 16zM511 774l66 -146l-266 -96l-47 86z" />
    <glyph glyph-name="acircumflex" unicode="&#xe2;" horiz-adv-x="613" 
d="M354 514q26 0 61.5 -3t72 -8t66 -10.5t43.5 -10.5l-163 -106q-25 1 -48 1h-58q-16 0 -30 -3.5t-25 -14t-20 -32t-14 -57.5q-7 -51 -9.5 -77.5t4.5 -35.5t26 -8q19 2 42 20.5t44 47t34 60.5l34 -56q-15 -73 -48.5 -123.5t-82.5 -77.5t-113 -32q-72 -5 -108 28t-43 97
t6 151q14 89 41.5 139.5t69 74t96.5 30t122 6.5zM392 500l205 -18l-68 -482h-162l-2 109l-27 16zM436 739l131 -140l-55 -68l-147 94h-8l-164 -94l-48 72l150 136h141z" />
    <glyph glyph-name="atilde" unicode="&#xe3;" horiz-adv-x="613" 
d="M354 514q26 0 61.5 -3t72 -8t66 -10.5t43.5 -10.5l-163 -106q-25 1 -48 1h-58q-16 0 -30 -3.5t-25 -14t-20 -32t-14 -57.5q-7 -51 -9.5 -77.5t4.5 -35.5t26 -8q19 2 42 20.5t44 47t34 60.5l34 -56q-15 -73 -48.5 -123.5t-82.5 -77.5t-113 -32q-72 -5 -108 28t-43 97
t6 151q14 89 41.5 139.5t69 74t96.5 30t122 6.5zM392 500l205 -18l-68 -482h-162l-2 109l-27 16zM265 732q19 0 41.5 -5.5t44.5 -13.5t41.5 -15t32.5 -10q26 -6 35 6.5t12 36.5l85 -8q4 -87 -23.5 -126t-71.5 -39q-19 0 -42 5.5t-46 13.5t-42.5 15t-33.5 10q-25 5 -33.5 -7
t-12.5 -36l-85 8q-2 86 25.5 125.5t72.5 39.5z" />
    <glyph glyph-name="adieresis" unicode="&#xe4;" horiz-adv-x="613" 
d="M354 514q26 0 61.5 -3t72 -8t66 -10.5t43.5 -10.5l-163 -106q-25 1 -48 1h-58q-16 0 -30 -3.5t-25 -14t-20 -32t-14 -57.5q-7 -51 -9.5 -77.5t4.5 -35.5t26 -8q19 2 42 20.5t44 47t34 60.5l34 -56q-15 -73 -48.5 -123.5t-82.5 -77.5t-113 -32q-72 -5 -108 28t-43 97
t6 151q14 89 41.5 139.5t69 74t96.5 30t122 6.5zM392 500l205 -18l-68 -482h-162l-2 109l-27 16zM321 716q18 0 25 -8t5 -25l-11 -76q-2 -17 -10 -24.5t-25 -7.5h-81q-34 0 -30 33l11 73q3 19 11.5 27t27.5 8h77zM510 716q17 0 24.5 -8t5.5 -25l-11 -75q-3 -18 -10.5 -25.5
t-24.5 -7.5h-81q-34 0 -30 33l11 74q3 19 11.5 26.5t24.5 7.5h80z" />
    <glyph glyph-name="aring" unicode="&#xe5;" horiz-adv-x="613" 
d="M354 514q26 0 61.5 -3t72 -8t66 -10.5t43.5 -10.5l-163 -106q-25 1 -48 1h-58q-16 0 -30 -3.5t-25 -14t-20 -32t-14 -57.5q-7 -51 -9.5 -77.5t4.5 -35.5t26 -8q19 2 42 20.5t44 47t34 60.5l34 -56q-15 -73 -48.5 -123.5t-82.5 -77.5t-113 -32q-72 -5 -108 28t-43 97
t6 151q14 89 41.5 139.5t69 74t96.5 30t122 6.5zM392 500l205 -18l-68 -482h-162l-2 109l-27 16zM375 771q52 0 88 -30.5t36 -80.5q0 -58 -37.5 -94.5t-96.5 -36.5q-51 0 -87.5 31t-36.5 80q0 58 38 94.5t96 36.5zM371 696q-20 0 -33 -12.5t-13 -35.5q0 -19 12.5 -31.5
t30.5 -12.5q22 0 34.5 13.5t12.5 35.5q0 20 -12 31.5t-32 11.5z" />
    <glyph glyph-name="ae" unicode="&#xe6;" horiz-adv-x="916" 
d="M305 514q66 1 123.5 -4t100.5 -12.5t65 -15.5l-164 -106q-16 1 -31 1h-32h-41q-18 0 -32 -3.5t-24.5 -14t-18 -32t-12.5 -57.5q-7 -51 -9.5 -77.5t4.5 -35.5t26 -8q18 2 40.5 20.5t43.5 47t32 60.5l34 -56q-15 -73 -48 -123.5t-81 -77.5t-112 -32q-71 -5 -106.5 28
t-42.5 97t5 151q13 89 36.5 139.5t58.5 74t81 30t104 6.5zM655 514q102 0 158.5 -21.5t76 -62.5t10.5 -102q-6 -45 -30.5 -70t-69 -37t-110.5 -17l-261 -20l13 99l192 20q20 2 34 5.5t22.5 12.5t9.5 28q1 11 -2 18t-12.5 10t-28.5 2q-23 0 -38 -5.5t-24 -18t-15 -35.5
t-12 -59q-8 -49 -5.5 -73t20 -31.5t54.5 -7.5q19 0 55 1.5t76 4t70 5.5l13 -128q-35 -16 -74 -26t-79 -14t-80 -4q-112 0 -172.5 31t-80 90.5t-11.5 144.5q8 80 31.5 131t62 79t90.5 39t117 11z" />
    <glyph glyph-name="ccedilla" unicode="&#xe7;" horiz-adv-x="536" 
d="M303 514q58 0 120 -9.5t109 -29.5l-28 -128h-100h-76q-30 0 -47.5 -9t-26.5 -29.5t-14 -55.5q-6 -41 -2.5 -62.5t19 -29t45.5 -7.5q20 0 47 0.5t58.5 2t62.5 4.5l15 -133q-49 -23 -107.5 -31.5t-112.5 -8.5q-88 0 -147.5 27t-84.5 87t-12 157q13 90 43 146t87.5 82.5
t151.5 26.5zM158 -45q54 7 95 5.5t62.5 -19t14.5 -59.5q-9 -55 -45 -88.5t-88.5 -45.5t-114.5 -4l21 77q33 0 62.5 7.5t36.5 38.5q2 10 -7.5 13t-54.5 3z" />
    <glyph glyph-name="egrave" unicode="&#xe8;" horiz-adv-x="590" 
d="M326 514q104 0 161 -21.5t76.5 -62.5t10.5 -102q-6 -45 -31 -70t-69.5 -37t-112.5 -17l-266 -20l13 99l198 20q21 2 35 5.5t22.5 12.5t10.5 28q1 11 -2 18t-13 10t-31 2q-21 0 -35 -5.5t-23 -18t-15.5 -35.5t-12.5 -59q-8 -49 -5.5 -73t19.5 -31.5t51 -7.5q21 0 57.5 1.5
t77 4t70.5 5.5l14 -128q-35 -16 -75 -26t-81 -14t-81 -4q-114 0 -175 31t-81 90.5t-12 144.5q8 80 32 131t62 79t91 39t120 11zM222 768l235 -150l-67 -86l-248 106z" />
    <glyph glyph-name="eacute" unicode="&#xe9;" horiz-adv-x="590" 
d="M326 514q104 0 161 -21.5t76.5 -62.5t10.5 -102q-6 -45 -31 -70t-69.5 -37t-112.5 -17l-266 -20l13 99l198 20q21 2 35 5.5t22.5 12.5t10.5 28q1 11 -2 18t-13 10t-31 2q-21 0 -35 -5.5t-23 -18t-15.5 -35.5t-12.5 -59q-8 -49 -5.5 -73t19.5 -31.5t51 -7.5q21 0 57.5 1.5
t77 4t70.5 5.5l14 -128q-35 -16 -75 -26t-81 -14t-81 -4q-114 0 -175 31t-81 90.5t-12 144.5q8 80 32 131t62 79t91 39t120 11zM502 774l66 -146l-266 -96l-47 86z" />
    <glyph glyph-name="ecircumflex" unicode="&#xea;" horiz-adv-x="590" 
d="M326 514q104 0 161 -21.5t76.5 -62.5t10.5 -102q-6 -45 -31 -70t-69.5 -37t-112.5 -17l-266 -20l13 99l198 20q21 2 35 5.5t22.5 12.5t10.5 28q1 11 -2 18t-13 10t-31 2q-21 0 -35 -5.5t-23 -18t-15.5 -35.5t-12.5 -59q-8 -49 -5.5 -73t19.5 -31.5t51 -7.5q21 0 57.5 1.5
t77 4t70.5 5.5l14 -128q-35 -16 -75 -26t-81 -14t-81 -4q-114 0 -175 31t-81 90.5t-12 144.5q8 80 32 131t62 79t91 39t120 11zM427 739l131 -140l-55 -68l-147 94h-8l-164 -94l-48 72l150 136h141z" />
    <glyph glyph-name="edieresis" unicode="&#xeb;" horiz-adv-x="590" 
d="M326 514q104 0 161 -21.5t76.5 -62.5t10.5 -102q-6 -45 -31 -70t-69.5 -37t-112.5 -17l-266 -20l13 99l198 20q21 2 35 5.5t22.5 12.5t10.5 28q1 11 -2 18t-13 10t-31 2q-21 0 -35 -5.5t-23 -18t-15.5 -35.5t-12.5 -59q-8 -49 -5.5 -73t19.5 -31.5t51 -7.5q21 0 57.5 1.5
t77 4t70.5 5.5l14 -128q-35 -16 -75 -26t-81 -14t-81 -4q-114 0 -175 31t-81 90.5t-12 144.5q8 80 32 131t62 79t91 39t120 11zM312 716q18 0 25 -8t5 -25l-11 -76q-2 -17 -10 -24.5t-25 -7.5h-81q-34 0 -30 33l11 73q3 19 11.5 27t27.5 8h77zM501 716q17 0 24.5 -8t5.5 -25
l-11 -75q-3 -18 -10.5 -25.5t-24.5 -7.5h-81q-34 0 -30 33l11 74q3 19 11.5 26.5t24.5 7.5h80z" />
    <glyph glyph-name="igrave" unicode="&#xec;" horiz-adv-x="306" 
d="M288 500l-70 -500h-211l70 500h211zM64 768l235 -150l-67 -86l-248 106z" />
    <glyph glyph-name="iacute" unicode="&#xed;" horiz-adv-x="306" 
d="M288 500l-70 -500h-211l70 500h211zM344 774l66 -146l-266 -96l-47 86z" />
    <glyph glyph-name="icircumflex" unicode="&#xee;" horiz-adv-x="306" 
d="M288 500l-70 -500h-211l70 500h211zM269 739l131 -140l-55 -68l-147 94h-8l-164 -94l-48 72l150 136h141z" />
    <glyph glyph-name="idieresis" unicode="&#xef;" horiz-adv-x="306" 
d="M288 500l-70 -500h-211l70 500h211zM154 716q18 0 25 -8t5 -25l-11 -76q-2 -17 -10 -24.5t-25 -7.5h-81q-34 0 -30 33l11 73q3 19 11.5 27t27.5 8h77zM343 716q17 0 24.5 -8t5.5 -25l-11 -75q-3 -18 -10.5 -25.5t-24.5 -7.5h-81q-34 0 -30 33l11 74q3 19 11.5 26.5
t24.5 7.5h80z" />
    <glyph glyph-name="eth" unicode="&#xf0;" horiz-adv-x="604" 
d="M198 698q90 6 158 -7t114.5 -44.5t73 -82t33.5 -121t-4 -160.5q-10 -84 -34 -141.5t-62.5 -91.5t-92 -49t-123.5 -15q-83 0 -141.5 25t-85.5 77t-16 134q17 125 77 178t162 53q24 0 51.5 -4t53.5 -17.5t46.5 -39.5t29.5 -70l-10 -78q-12 24 -29 41t-38.5 26.5t-45.5 9.5
q-26 0 -41 -10.5t-22.5 -33t-13.5 -57.5q-8 -52 -2.5 -71t40.5 -19q26 0 39.5 15.5t22 52t17.5 100.5q9 62 12 109t-4 80t-28 52t-59.5 26.5t-100.5 2.5zM488 734l48 -61l-264 -210l-48 61z" />
    <glyph glyph-name="ntilde" unicode="&#xf1;" horiz-adv-x="619" 
d="M460 514q41 0 73 -16t48 -48t9 -80l-52 -370h-211l43 302q3 20 -2 28.5t-25 6.5q-18 -1 -42 -11t-59 -39l-35 87q50 64 118.5 102t134.5 38zM236 500l7 -134l20 -12l-50 -354h-210l69 500h164zM257 732q19 0 41.5 -5.5t44.5 -13.5t41.5 -15t32.5 -10q26 -6 35 6.5
t12 36.5l85 -8q4 -87 -23.5 -126t-71.5 -39q-19 0 -42 5.5t-46 13.5t-42.5 15t-33.5 10q-25 5 -33.5 -7t-12.5 -36l-85 8q-2 86 25.5 125.5t72.5 39.5z" />
    <glyph glyph-name="ograve" unicode="&#xf2;" horiz-adv-x="615" 
d="M327 514q100 0 161.5 -27t84.5 -86.5t9 -159.5q-13 -94 -46.5 -149.5t-95.5 -79.5t-162 -24q-99 0 -161 26.5t-86 85.5t-10 157q14 96 47 152t96 80.5t163 24.5zM323 372q-27 0 -42 -10t-24 -38t-17 -83q-6 -46 -5.5 -70t13 -32.5t38.5 -8.5t40 10t22.5 37.5t16.5 79.5
q7 48 6 72.5t-12 33.5t-36 9zM222 768l235 -150l-67 -86l-248 106z" />
    <glyph glyph-name="oacute" unicode="&#xf3;" horiz-adv-x="615" 
d="M327 514q100 0 161.5 -27t84.5 -86.5t9 -159.5q-13 -94 -46.5 -149.5t-95.5 -79.5t-162 -24q-99 0 -161 26.5t-86 85.5t-10 157q14 96 47 152t96 80.5t163 24.5zM323 372q-27 0 -42 -10t-24 -38t-17 -83q-6 -46 -5.5 -70t13 -32.5t38.5 -8.5t40 10t22.5 37.5t16.5 79.5
q7 48 6 72.5t-12 33.5t-36 9zM502 774l66 -146l-266 -96l-47 86z" />
    <glyph glyph-name="ocircumflex" unicode="&#xf4;" horiz-adv-x="615" 
d="M327 514q100 0 161.5 -27t84.5 -86.5t9 -159.5q-13 -94 -46.5 -149.5t-95.5 -79.5t-162 -24q-99 0 -161 26.5t-86 85.5t-10 157q14 96 47 152t96 80.5t163 24.5zM323 372q-27 0 -42 -10t-24 -38t-17 -83q-6 -46 -5.5 -70t13 -32.5t38.5 -8.5t40 10t22.5 37.5t16.5 79.5
q7 48 6 72.5t-12 33.5t-36 9zM427 739l131 -140l-55 -68l-147 94h-8l-164 -94l-48 72l150 136h141z" />
    <glyph glyph-name="otilde" unicode="&#xf5;" horiz-adv-x="615" 
d="M327 514q100 0 161.5 -27t84.5 -86.5t9 -159.5q-13 -94 -46.5 -149.5t-95.5 -79.5t-162 -24q-99 0 -161 26.5t-86 85.5t-10 157q14 96 47 152t96 80.5t163 24.5zM323 372q-27 0 -42 -10t-24 -38t-17 -83q-6 -46 -5.5 -70t13 -32.5t38.5 -8.5t40 10t22.5 37.5t16.5 79.5
q7 48 6 72.5t-12 33.5t-36 9zM256 732q19 0 41.5 -5.5t44.5 -13.5t41.5 -15t32.5 -10q26 -6 35 6.5t12 36.5l85 -8q4 -87 -23.5 -126t-71.5 -39q-19 0 -42 5.5t-46 13.5t-42.5 15t-33.5 10q-25 5 -33.5 -7t-12.5 -36l-85 8q-2 86 25.5 125.5t72.5 39.5z" />
    <glyph glyph-name="odieresis" unicode="&#xf6;" horiz-adv-x="615" 
d="M327 514q100 0 161.5 -27t84.5 -86.5t9 -159.5q-13 -94 -46.5 -149.5t-95.5 -79.5t-162 -24q-99 0 -161 26.5t-86 85.5t-10 157q14 96 47 152t96 80.5t163 24.5zM323 372q-27 0 -42 -10t-24 -38t-17 -83q-6 -46 -5.5 -70t13 -32.5t38.5 -8.5t40 10t22.5 37.5t16.5 79.5
q7 48 6 72.5t-12 33.5t-36 9zM312 716q18 0 25 -8t5 -25l-11 -76q-2 -17 -10 -24.5t-25 -7.5h-81q-34 0 -30 33l11 73q3 19 11.5 27t27.5 8h77zM501 716q17 0 24.5 -8t5.5 -25l-11 -75q-3 -18 -10.5 -25.5t-24.5 -7.5h-81q-34 0 -30 33l11 74q3 19 11.5 26.5t24.5 7.5h80z
" />
    <glyph glyph-name="divide" unicode="&#xf7;" horiz-adv-x="528" 
d="M514 369l-23 -154h-477l23 154h477zM264 176q47 0 65 -17.5t11 -65.5l-2 -14q-6 -48 -25.5 -64.5t-66.5 -16.5h-46q-49 0 -66 18.5t-10 65.5l2 14q6 48 28 64t70 16h40zM324 582q47 0 65 -17.5t10 -64.5l-1 -14q-7 -48 -26.5 -65t-66.5 -17h-46q-49 0 -66 18.5t-10 65.5
l2 14q7 48 29 64t69 16h41z" />
    <glyph glyph-name="oslash" unicode="&#xf8;" horiz-adv-x="615" 
d="M486 597l47 -22l-402 -668l-47 22zM327 514q100 0 161.5 -27t84.5 -86.5t9 -159.5q-13 -94 -46.5 -149.5t-95.5 -79.5t-162 -24q-99 0 -161 26.5t-86 85.5t-10 157q14 96 47 152t96 80.5t163 24.5zM323 372q-27 0 -42 -10t-24 -38t-17 -83q-6 -46 -5.5 -70t13 -32.5
t38.5 -8.5t40 10t22.5 37.5t16.5 79.5q7 48 6 72.5t-12 33.5t-36 9z" />
    <glyph glyph-name="ugrave" unicode="&#xf9;" horiz-adv-x="613" 
d="M280 500l-45 -311q-2 -16 5 -21.5t18 -5.5q24 0 47 11t60 39l36 -86q-66 -73 -125 -106.5t-119 -33.5q-78 0 -113.5 37.5t-25.5 106.5l51 370h211zM598 500l-69 -500h-164l-6 134l-19 12l50 354h208zM219 779l235 -150l-67 -86l-248 106z" />
    <glyph glyph-name="uacute" unicode="&#xfa;" horiz-adv-x="613" 
d="M280 500l-45 -311q-2 -16 5 -21.5t18 -5.5q24 0 47 11t60 39l36 -86q-66 -73 -125 -106.5t-119 -33.5q-78 0 -113.5 37.5t-25.5 106.5l51 370h211zM598 500l-69 -500h-164l-6 134l-19 12l50 354h208zM499 785l66 -146l-266 -96l-47 86z" />
    <glyph glyph-name="ucircumflex" unicode="&#xfb;" horiz-adv-x="613" 
d="M280 500l-45 -311q-2 -16 5 -21.5t18 -5.5q24 0 47 11t60 39l36 -86q-66 -73 -125 -106.5t-119 -33.5q-78 0 -113.5 37.5t-25.5 106.5l51 370h211zM598 500l-69 -500h-164l-6 134l-19 12l50 354h208zM424 750l131 -140l-55 -68l-147 94h-8l-164 -94l-48 72l150 136h141z
" />
    <glyph glyph-name="udieresis" unicode="&#xfc;" horiz-adv-x="613" 
d="M280 500l-45 -311q-2 -16 5 -21.5t18 -5.5q24 0 47 11t60 39l36 -86q-66 -73 -125 -106.5t-119 -33.5q-78 0 -113.5 37.5t-25.5 106.5l51 370h211zM598 500l-69 -500h-164l-6 134l-19 12l50 354h208zM309 727q18 0 25 -8t5 -25l-11 -76q-2 -17 -10 -24.5t-25 -7.5h-81
q-34 0 -30 33l11 73q3 19 11.5 27t27.5 8h77zM498 727q17 0 24.5 -8t5.5 -25l-11 -75q-3 -18 -10.5 -25.5t-24.5 -7.5h-81q-34 0 -30 33l11 74q3 19 11.5 26.5t24.5 7.5h80z" />
    <glyph glyph-name="yacute" unicode="&#xfd;" horiz-adv-x="622" 
d="M629 500q-7 -55 -23.5 -115.5t-37.5 -119.5t-42.5 -110.5t-40 -90t-30.5 -56.5q-47 -74 -105.5 -123.5t-128.5 -72t-155 -18.5l-13 113q36 13 67.5 23t60 26.5t55.5 47t54 84.5q29 57 49.5 117.5t36 132.5t28.5 162h225zM260 500l8 -358q0 -16 16 -16h56l-41 -126h-145
q-25 0 -42 15.5t-20 37.5l-62 447h230zM494 774l66 -146l-266 -96l-47 86z" />
    <glyph glyph-name="thorn" unicode="&#xfe;" horiz-adv-x="616" 
d="M429 512q67 0 104 -31t48 -92t0 -153q-8 -68 -27.5 -116t-47.5 -77.5t-63 -43t-74 -13.5q-81 0 -150.5 11.5t-105.5 37.5l19 78h66h80q22 0 37 4.5t24.5 16.5t16 35t10.5 61q5 41 7 68t-4.5 40t-27.5 13q-27 0 -46.5 -16.5t-34.5 -42t-27 -54.5l-29 85q8 44 38.5 87.5
t78.5 72.5t108 29zM311 700l-14 -104q-4 -35 -11.5 -73t-15.5 -70l3 -8l-48 -371l-10 -16q-2 -32 -4.5 -70t-8.5 -73l-14 -95h-210l123 880h210z" />
    <glyph glyph-name="ydieresis" unicode="&#xff;" horiz-adv-x="622" 
d="M629 500q-7 -55 -23.5 -115.5t-37.5 -119.5t-42.5 -110.5t-40 -90t-30.5 -56.5q-47 -74 -105.5 -123.5t-128.5 -72t-155 -18.5l-13 113q36 13 67.5 23t60 26.5t55.5 47t54 84.5q29 57 49.5 117.5t36 132.5t28.5 162h225zM260 500l8 -358q0 -16 16 -16h56l-41 -126h-145
q-25 0 -42 15.5t-20 37.5l-62 447h230zM304 716q18 0 25 -8t5 -25l-11 -76q-2 -17 -10 -24.5t-25 -7.5h-81q-34 0 -30 33l11 73q3 19 11.5 27t27.5 8h77zM493 716q17 0 24.5 -8t5.5 -25l-11 -75q-3 -18 -10.5 -25.5t-24.5 -7.5h-81q-34 0 -30 33l11 74q3 19 11.5 26.5
t24.5 7.5h80z" />
    <glyph glyph-name="Amacron" unicode="&#x100;" horiz-adv-x="678" 
d="M489 690q26 0 46 -17t23 -43l89 -630h-217l-36 453q-2 20 -2 39t1 38h-28q-3 -16 -7.5 -35.5t-12.5 -39.5l-169 -455h-225l266 638q10 26 30 39t46 13h196zM522 304l-18 -158h-363l19 158h362zM577 895l-17 -123h-320l17 123h320z" />
    <glyph glyph-name="amacron" unicode="&#x101;" horiz-adv-x="613" 
d="M354 514q26 0 61.5 -3t72 -8t66 -10.5t43.5 -10.5l-163 -106q-25 1 -48 1h-58q-16 0 -30 -3.5t-25 -14t-20 -32t-14 -57.5q-7 -51 -9.5 -77.5t4.5 -35.5t26 -8q19 2 42 20.5t44 47t34 60.5l34 -56q-15 -73 -48.5 -123.5t-82.5 -77.5t-113 -32q-72 -5 -108 28t-43 97
t6 151q14 89 41.5 139.5t69 74t96.5 30t122 6.5zM392 500l205 -18l-68 -482h-162l-2 109l-27 16zM534 707l-17 -123h-320l17 123h320z" />
    <glyph glyph-name="Abreve" unicode="&#x102;" horiz-adv-x="678" 
d="M489 690q26 0 46 -17t23 -43l89 -630h-217l-36 453q-2 20 -2 39t1 38h-28q-3 -16 -7.5 -35.5t-12.5 -39.5l-169 -455h-225l266 638q10 26 30 39t46 13h196zM522 304l-18 -158h-363l19 158h362zM505 920l94 -15q2 -44 -21 -82.5t-66.5 -62t-106.5 -23.5q-62 0 -103.5 25.5
t-57 66t-1.5 84.5l98 5q-5 -31 12.5 -43t60.5 -12q45 0 66.5 15t24.5 42z" />
    <glyph glyph-name="abreve" unicode="&#x103;" horiz-adv-x="613" 
d="M354 514q26 0 61.5 -3t72 -8t66 -10.5t43.5 -10.5l-163 -106q-25 1 -48 1h-58q-16 0 -30 -3.5t-25 -14t-20 -32t-14 -57.5q-7 -51 -9.5 -77.5t4.5 -35.5t26 -8q19 2 42 20.5t44 47t34 60.5l34 -56q-15 -73 -48.5 -123.5t-82.5 -77.5t-113 -32q-72 -5 -108 28t-43 97
t6 151q14 89 41.5 139.5t69 74t96.5 30t122 6.5zM392 500l205 -18l-68 -482h-162l-2 109l-27 16zM462 732l94 -15q2 -44 -21 -82.5t-66.5 -62t-106.5 -23.5q-62 0 -103.5 25.5t-57 66t-1.5 84.5l98 5q-5 -31 12.5 -43t60.5 -12q45 0 66.5 15t24.5 42z" />
    <glyph glyph-name="Aogonek" unicode="&#x104;" horiz-adv-x="678" 
d="M489 690q26 0 46 -17t23 -43l89 -630h-217l-36 453q-2 20 -2 39t1 38h-28q-3 -16 -7.5 -35.5t-12.5 -39.5l-169 -455h-225l266 638q10 26 30 39t46 13h196zM522 304l-18 -158h-363l19 158h362zM561 8l87 -8q-18 -19 -34 -45t-23 -46q-5 -16 2 -22t30 -2l15 -74
q-64 -23 -107.5 -21.5t-67.5 19t-28.5 44.5t9.5 54q12 23 40 48.5t77 52.5z" />
    <glyph glyph-name="aogonek" unicode="&#x105;" horiz-adv-x="613" 
d="M354 514q26 0 61.5 -3t72 -8t66 -10.5t43.5 -10.5l-163 -106q-25 1 -48 1h-58q-16 0 -30 -3.5t-25 -14t-20 -32t-14 -57.5q-7 -51 -9.5 -77.5t4.5 -35.5t26 -8q19 2 42 20.5t44 47t34 60.5l34 -56q-15 -73 -48.5 -123.5t-82.5 -77.5t-113 -32q-72 -5 -108 28t-43 97
t6 151q14 89 41.5 139.5t69 74t96.5 30t122 6.5zM392 500l205 -18l-68 -482h-162l-2 109l-27 16zM442 8l87 -8q-18 -19 -34 -45t-23 -46q-5 -16 2 -22t30 -2l15 -74q-64 -23 -107.5 -21.5t-67.5 19t-28.5 44.5t9.5 54q12 23 40 48.5t77 52.5z" />
    <glyph glyph-name="Cacute" unicode="&#x106;" horiz-adv-x="603" 
d="M391 702q52 0 90.5 -3t71 -9t65.5 -16l-25 -157q-36 1 -67.5 1t-65.5 0.5t-80 0.5q-27 0 -45 -6t-30.5 -24t-21 -54.5t-16.5 -97.5q-9 -68 -9.5 -104t14.5 -49t52 -13q75 0 124 2t97 6l8 -159q-55 -17 -109 -24.5t-130 -7.5q-115 0 -181.5 34.5t-88.5 114.5t-3 216
q15 104 39.5 172t64 106.5t100 54.5t146.5 16zM560 963l66 -146l-266 -96l-47 86z" />
    <glyph glyph-name="cacute" unicode="&#x107;" horiz-adv-x="536" 
d="M303 514q58 0 120 -9.5t109 -29.5l-28 -128h-100h-76q-30 0 -47.5 -9t-26.5 -29.5t-14 -55.5q-6 -41 -2.5 -62.5t19 -29t45.5 -7.5q20 0 47 0.5t58.5 2t62.5 4.5l15 -133q-49 -23 -107.5 -31.5t-112.5 -8.5q-88 0 -147.5 27t-84.5 87t-12 157q13 90 43 146t87.5 82.5
t151.5 26.5zM481 774l66 -146l-266 -96l-47 86z" />
    <glyph glyph-name="Ccircumflex" unicode="&#x108;" horiz-adv-x="603" 
d="M391 702q52 0 90.5 -3t71 -9t65.5 -16l-25 -157q-36 1 -67.5 1t-65.5 0.5t-80 0.5q-27 0 -45 -6t-30.5 -24t-21 -54.5t-16.5 -97.5q-9 -68 -9.5 -104t14.5 -49t52 -13q75 0 124 2t97 6l8 -159q-55 -17 -109 -24.5t-130 -7.5q-115 0 -181.5 34.5t-88.5 114.5t-3 216
q15 104 39.5 172t64 106.5t100 54.5t146.5 16zM485 928l131 -140l-55 -68l-147 94h-8l-164 -94l-48 72l150 136h141z" />
    <glyph glyph-name="ccircumflex" unicode="&#x109;" horiz-adv-x="536" 
d="M303 514q58 0 120 -9.5t109 -29.5l-28 -128h-100h-76q-30 0 -47.5 -9t-26.5 -29.5t-14 -55.5q-6 -41 -2.5 -62.5t19 -29t45.5 -7.5q20 0 47 0.5t58.5 2t62.5 4.5l15 -133q-49 -23 -107.5 -31.5t-112.5 -8.5q-88 0 -147.5 27t-84.5 87t-12 157q13 90 43 146t87.5 82.5
t151.5 26.5zM406 739l131 -140l-55 -68l-147 94h-8l-164 -94l-48 72l150 136h141z" />
    <glyph glyph-name="Cdotaccent" unicode="&#x10a;" horiz-adv-x="603" 
d="M391 702q52 0 90.5 -3t71 -9t65.5 -16l-25 -157q-36 1 -67.5 1t-65.5 0.5t-80 0.5q-27 0 -45 -6t-30.5 -24t-21 -54.5t-16.5 -97.5q-9 -68 -9.5 -104t14.5 -49t52 -13q75 0 124 2t97 6l8 -159q-55 -17 -109 -24.5t-130 -7.5q-115 0 -181.5 34.5t-88.5 114.5t-3 216
q15 104 39.5 172t64 106.5t100 54.5t146.5 16zM452 914q27 0 43.5 -14.5t13.5 -44.5l-5 -49q-6 -53 -60 -53h-63q-32 0 -46 15.5t-10 45.5l6 47q4 26 20.5 39.5t41.5 13.5h59z" />
    <glyph glyph-name="cdotaccent" unicode="&#x10b;" horiz-adv-x="536" 
d="M303 514q58 0 120 -9.5t109 -29.5l-28 -128h-100h-76q-30 0 -47.5 -9t-26.5 -29.5t-14 -55.5q-6 -41 -2.5 -62.5t19 -29t45.5 -7.5q20 0 47 0.5t58.5 2t62.5 4.5l15 -133q-49 -23 -107.5 -31.5t-112.5 -8.5q-88 0 -147.5 27t-84.5 87t-12 157q13 90 43 146t87.5 82.5
t151.5 26.5zM373 725q27 0 43.5 -14.5t13.5 -44.5l-5 -49q-6 -53 -60 -53h-63q-32 0 -46 15.5t-10 45.5l6 47q4 26 20.5 39.5t41.5 13.5h59z" />
    <glyph glyph-name="Ccaron" unicode="&#x10c;" horiz-adv-x="603" 
d="M391 702q52 0 90.5 -3t71 -9t65.5 -16l-25 -157q-36 1 -67.5 1t-65.5 0.5t-80 0.5q-27 0 -45 -6t-30.5 -24t-21 -54.5t-16.5 -97.5q-9 -68 -9.5 -104t14.5 -49t52 -13q75 0 124 2t97 6l8 -159q-55 -17 -109 -24.5t-130 -7.5q-115 0 -181.5 34.5t-88.5 114.5t-3 216
q15 104 39.5 172t64 106.5t100 54.5t146.5 16zM586 944l40 -75l-179 -131h-82l-163 144l58 66l147 -81h8z" />
    <glyph glyph-name="ccaron" unicode="&#x10d;" horiz-adv-x="536" 
d="M303 514q58 0 120 -9.5t109 -29.5l-28 -128h-100h-76q-30 0 -47.5 -9t-26.5 -29.5t-14 -55.5q-6 -41 -2.5 -62.5t19 -29t45.5 -7.5q20 0 47 0.5t58.5 2t62.5 4.5l15 -133q-49 -23 -107.5 -31.5t-112.5 -8.5q-88 0 -147.5 27t-84.5 87t-12 157q13 90 43 146t87.5 82.5
t151.5 26.5zM507 755l40 -75l-179 -131h-82l-163 144l58 66l147 -81h8z" />
    <glyph glyph-name="Dcaron" unicode="&#x10e;" 
d="M389 700q112 0 182 -31.5t96.5 -110.5t6.5 -221q-15 -103 -39 -171t-64 -106t-101 -54t-149 -16q-91 0 -166 3t-144 7l103 154q34 -4 90 -5.5t114 -1.5q26 0 46 8t35.5 30t27 62.5t19.5 105.5q8 58 9.5 95t-5 58t-23 29t-45.5 8h-71t-62.5 0.5t-56.5 0.5l-84 146
q39 3 84 5.5t95 3.5t102 1zM325 690l-97 -690h-217l97 690h217zM580 943l40 -75l-179 -131h-82l-163 144l58 66l147 -81h8z" />
    <glyph glyph-name="dcaron" unicode="&#x10f;" horiz-adv-x="617" 
d="M236 514q82 0 151 -11.5t105 -37.5l-19 -78h-65.5h-80.5q-22 0 -37 -4.5t-24.5 -16.5t-16 -35t-11.5 -61q-4 -36 -6 -60.5t5 -36.5t27 -11q32 2 57.5 18t46.5 32l38 -86q-12 -14 -34.5 -37t-53 -46t-66.5 -39t-77 -16q-62 0 -99.5 30.5t-50.5 92t-1 153.5q10 75 29.5 124
t47 76.5t62 38.5t73.5 11zM631 700l-99 -700h-166l-6 134l-19 11l46 339l9 16q0 25 1.5 51t5.5 54l18 95h210zM772 699q33 0 47 -14.5t9 -49.5l-7 -48q-6 -43 -26.5 -90.5t-45.5 -79.5l-71 27q12 28 20 54.5t13 54.5q-28 -1 -38 12.5t-6 40.5l6 34q6 34 22 46.5t47 12.5h30z
" />
    <glyph glyph-name="Dcroat" unicode="&#x110;" 
d="M373 413l-14 -100h-351l14 100h351zM389 700q112 0 182 -31.5t96.5 -110.5t6.5 -221q-15 -103 -39 -171t-64 -106t-101 -54t-149 -16q-91 0 -166 3t-144 7l103 154q34 -4 90 -5.5t114 -1.5q26 0 46 8t35.5 30t27 62.5t19.5 105.5q8 58 9.5 95t-5 58t-23 29t-45.5 8h-71
t-62.5 0.5t-56.5 0.5l-84 146q39 3 84 5.5t95 3.5t102 1zM325 690l-97 -690h-217l97 690h217z" />
    <glyph glyph-name="dcroat" unicode="&#x111;" horiz-adv-x="622" 
d="M685 631l-12 -84h-371l12 84h371zM236 514q82 0 151 -11.5t105 -37.5l-19 -78h-65.5h-80.5q-22 0 -37 -4.5t-24.5 -16.5t-16 -35t-11.5 -61q-4 -36 -6 -60.5t5 -36.5t27 -11q32 2 57.5 18t46.5 32l38 -86q-12 -14 -34.5 -37t-53 -46t-66.5 -39t-77 -16q-62 0 -99.5 30.5
t-50.5 92t-1 153.5q10 75 29.5 124t47 76.5t62 38.5t73.5 11zM631 700l-99 -700h-166l-6 134l-19 11l46 339l9 16q0 25 1.5 51t5.5 54l18 95h210z" />
    <glyph glyph-name="Emacron" unicode="&#x112;" horiz-adv-x="587" 
d="M259 694q61 0 123.5 -1t120.5 -3.5t104 -9.5l-24 -152h-240q-25 0 -36.5 -8.5t-14.5 -31.5l-40 -287q-3 -19 6 -29t31 -10h240l-4 -154q-48 -7 -106 -9t-118 -2.5t-114 -0.5q-85 0 -125 53t-30 135l50 357q10 70 55.5 111.5t121.5 41.5zM85 425h447l-18 -144h-452z
M559 895l-17 -123h-320l17 123h320z" />
    <glyph glyph-name="emacron" unicode="&#x113;" horiz-adv-x="590" 
d="M326 514q104 0 161 -21.5t76.5 -62.5t10.5 -102q-6 -45 -31 -70t-69.5 -37t-112.5 -17l-266 -20l13 99l198 20q21 2 35 5.5t22.5 12.5t10.5 28q1 11 -2 18t-13 10t-31 2q-21 0 -35 -5.5t-23 -18t-15.5 -35.5t-12.5 -59q-8 -49 -5.5 -73t19.5 -31.5t51 -7.5q21 0 57.5 1.5
t77 4t70.5 5.5l14 -128q-35 -16 -75 -26t-81 -14t-81 -4q-114 0 -175 31t-81 90.5t-12 144.5q8 80 32 131t62 79t91 39t120 11zM525 707l-17 -123h-320l17 123h320z" />
    <glyph glyph-name="Ebreve" unicode="&#x114;" horiz-adv-x="587" 
d="M259 694q61 0 123.5 -1t120.5 -3.5t104 -9.5l-24 -152h-240q-25 0 -36.5 -8.5t-14.5 -31.5l-40 -287q-3 -19 6 -29t31 -10h240l-4 -154q-48 -7 -106 -9t-118 -2.5t-114 -0.5q-85 0 -125 53t-30 135l50 357q10 70 55.5 111.5t121.5 41.5zM85 425h447l-18 -144h-452z
M487 920l94 -15q2 -44 -21 -82.5t-66.5 -62t-106.5 -23.5q-62 0 -103.5 25.5t-57 66t-1.5 84.5l98 5q-5 -31 12.5 -43t60.5 -12q45 0 66.5 15t24.5 42z" />
    <glyph glyph-name="ebreve" unicode="&#x115;" horiz-adv-x="590" 
d="M326 514q104 0 161 -21.5t76.5 -62.5t10.5 -102q-6 -45 -31 -70t-69.5 -37t-112.5 -17l-266 -20l13 99l198 20q21 2 35 5.5t22.5 12.5t10.5 28q1 11 -2 18t-13 10t-31 2q-21 0 -35 -5.5t-23 -18t-15.5 -35.5t-12.5 -59q-8 -49 -5.5 -73t19.5 -31.5t51 -7.5q21 0 57.5 1.5
t77 4t70.5 5.5l14 -128q-35 -16 -75 -26t-81 -14t-81 -4q-114 0 -175 31t-81 90.5t-12 144.5q8 80 32 131t62 79t91 39t120 11zM453 732l94 -15q2 -44 -21 -82.5t-66.5 -62t-106.5 -23.5q-62 0 -103.5 25.5t-57 66t-1.5 84.5l98 5q-5 -31 12.5 -43t60.5 -12q45 0 66.5 15
t24.5 42z" />
    <glyph glyph-name="Edotaccent" unicode="&#x116;" horiz-adv-x="587" 
d="M259 694q61 0 123.5 -1t120.5 -3.5t104 -9.5l-24 -152h-240q-25 0 -36.5 -8.5t-14.5 -31.5l-40 -287q-3 -19 6 -29t31 -10h240l-4 -154q-48 -7 -106 -9t-118 -2.5t-114 -0.5q-85 0 -125 53t-30 135l50 357q10 70 55.5 111.5t121.5 41.5zM85 425h447l-18 -144h-452z
M428 913q27 0 43.5 -14.5t13.5 -44.5l-5 -49q-6 -53 -60 -53h-63q-32 0 -46 15.5t-10 45.5l6 47q4 26 20.5 39.5t41.5 13.5h59z" />
    <glyph glyph-name="edotaccent" unicode="&#x117;" horiz-adv-x="590" 
d="M326 514q104 0 161 -21.5t76.5 -62.5t10.5 -102q-6 -45 -31 -70t-69.5 -37t-112.5 -17l-266 -20l13 99l198 20q21 2 35 5.5t22.5 12.5t10.5 28q1 11 -2 18t-13 10t-31 2q-21 0 -35 -5.5t-23 -18t-15.5 -35.5t-12.5 -59q-8 -49 -5.5 -73t19.5 -31.5t51 -7.5q21 0 57.5 1.5
t77 4t70.5 5.5l14 -128q-35 -16 -75 -26t-81 -14t-81 -4q-114 0 -175 31t-81 90.5t-12 144.5q8 80 32 131t62 79t91 39t120 11zM394 725q27 0 43.5 -14.5t13.5 -44.5l-5 -49q-6 -53 -60 -53h-63q-32 0 -46 15.5t-10 45.5l6 47q4 26 20.5 39.5t41.5 13.5h59z" />
    <glyph glyph-name="Eogonek" unicode="&#x118;" horiz-adv-x="587" 
d="M259 694q61 0 123.5 -1t120.5 -3.5t104 -9.5l-24 -152h-240q-25 0 -36.5 -8.5t-14.5 -31.5l-40 -287q-3 -19 6 -29t31 -10h240l-4 -154q-48 -7 -106 -9t-118 -2.5t-114 -0.5q-85 0 -125 53t-30 135l50 357q10 70 55.5 111.5t121.5 41.5zM85 425h447l-18 -144h-452z
M438 16l87 -8q-18 -19 -34 -45t-23 -46q-5 -16 2 -22t30 -2l15 -74q-64 -23 -107.5 -21.5t-67.5 19t-28.5 44.5t9.5 54q12 23 40 48.5t77 52.5z" />
    <glyph glyph-name="eogonek" unicode="&#x119;" horiz-adv-x="590" 
d="M326 514q104 0 161 -21.5t76.5 -62.5t10.5 -102q-6 -45 -31 -70t-69.5 -37t-112.5 -17l-266 -20l13 99l198 20q21 2 35 5.5t22.5 12.5t10.5 28q1 11 -2 18t-13 10t-31 2q-21 0 -35 -5.5t-23 -18t-15.5 -35.5t-12.5 -59q-8 -49 -5.5 -73t19.5 -31.5t51 -7.5q21 0 57.5 1.5
t77 4t70.5 5.5l14 -128q-35 -16 -75 -26t-81 -14t-81 -4q-114 0 -175 31t-81 90.5t-12 144.5q8 80 32 131t62 79t91 39t120 11zM438 41l87 -8q-18 -19 -34 -45t-23 -46q-5 -16 2 -22t30 -2l15 -74q-64 -23 -107.5 -21.5t-67.5 19t-28.5 44.5t9.5 54q12 23 40 48.5t77 52.5z
" />
    <glyph glyph-name="Ecaron" unicode="&#x11a;" horiz-adv-x="587" 
d="M259 694q61 0 123.5 -1t120.5 -3.5t104 -9.5l-24 -152h-240q-25 0 -36.5 -8.5t-14.5 -31.5l-40 -287q-3 -19 6 -29t31 -10h240l-4 -154q-48 -7 -106 -9t-118 -2.5t-114 -0.5q-85 0 -125 53t-30 135l50 357q10 70 55.5 111.5t121.5 41.5zM85 425h447l-18 -144h-452z
M562 943l40 -75l-179 -131h-82l-163 144l58 66l147 -81h8z" />
    <glyph glyph-name="ecaron" unicode="&#x11b;" horiz-adv-x="590" 
d="M326 514q104 0 161 -21.5t76.5 -62.5t10.5 -102q-6 -45 -31 -70t-69.5 -37t-112.5 -17l-266 -20l13 99l198 20q21 2 35 5.5t22.5 12.5t10.5 28q1 11 -2 18t-13 10t-31 2q-21 0 -35 -5.5t-23 -18t-15.5 -35.5t-12.5 -59q-8 -49 -5.5 -73t19.5 -31.5t51 -7.5q21 0 57.5 1.5
t77 4t70.5 5.5l14 -128q-35 -16 -75 -26t-81 -14t-81 -4q-114 0 -175 31t-81 90.5t-12 144.5q8 80 32 131t62 79t91 39t120 11zM528 755l40 -75l-179 -131h-82l-163 144l58 66l147 -81h8z" />
    <glyph glyph-name="Gcircumflex" unicode="&#x11c;" horiz-adv-x="670" 
d="M420 704q41 0 80.5 -3t77.5 -9.5t73 -17.5l-24 -155q-37 1 -71.5 1t-70.5 0.5t-80 0.5q-33 0 -55.5 -9t-37.5 -30t-25.5 -56.5t-18.5 -88.5q-10 -68 -9 -104t16.5 -49t48.5 -13q31 0 50 8t32 18t23 15l36 -86q-12 -14 -32.5 -37t-50.5 -47t-69.5 -40t-89.5 -16
q-68 0 -115.5 34t-66 114.5t0.5 218.5q15 107 43 175.5t73 107t109.5 53.5t152.5 15zM648 397l-56 -397h-159l-11 107l-16 37l35 253h207zM494 927l131 -140l-55 -68l-147 94h-8l-164 -94l-48 72l150 136h141z" />
    <glyph glyph-name="gcircumflex" unicode="&#x11d;" horiz-adv-x="618" 
d="M397 500l205 -18l-55 -392q-13 -98 -44 -157t-75 -88.5t-95.5 -39t-104.5 -9.5q-20 0 -59.5 2t-84 9.5t-79.5 23.5l10 113h29.5h37h59.5q71 0 121 13.5t74 50.5q17 26 22 53t18 52l-33 12zM299 514q67 0 127.5 -5t106.5 -12.5t69 -14.5l-162 -106q-26 1 -50 1h-59
q-25 0 -40.5 -5.5t-24.5 -17.5t-15 -32.5t-11 -51.5q-9 -51 -10 -78.5t7.5 -36.5t25.5 -6q21 4 43.5 21.5t43.5 45.5t35 61l34 -56q-15 -70 -50 -119t-84.5 -75t-111.5 -29q-72 -3 -108.5 29t-44 93.5t5.5 143.5q14 89 38 139.5t58 74t78.5 30t98.5 6.5zM446 745l131 -140
l-55 -68l-147 94h-8l-164 -94l-48 72l150 136h141z" />
    <glyph glyph-name="Gbreve" unicode="&#x11e;" horiz-adv-x="670" 
d="M420 704q41 0 80.5 -3t77.5 -9.5t73 -17.5l-24 -155q-37 1 -71.5 1t-70.5 0.5t-80 0.5q-33 0 -55.5 -9t-37.5 -30t-25.5 -56.5t-18.5 -88.5q-10 -68 -9 -104t16.5 -49t48.5 -13q31 0 50 8t32 18t23 15l36 -86q-12 -14 -32.5 -37t-50.5 -47t-69.5 -40t-89.5 -16
q-68 0 -115.5 34t-66 114.5t0.5 218.5q15 107 43 175.5t73 107t109.5 53.5t152.5 15zM648 397l-56 -397h-159l-11 107l-16 37l35 253h207zM520 920l94 -15q2 -44 -21 -82.5t-66.5 -62t-106.5 -23.5q-62 0 -103.5 25.5t-57 66t-1.5 84.5l98 5q-5 -31 12.5 -43t60.5 -12
q45 0 66.5 15t24.5 42z" />
    <glyph glyph-name="gbreve" unicode="&#x11f;" horiz-adv-x="618" 
d="M397 500l205 -18l-55 -392q-13 -98 -44 -157t-75 -88.5t-95.5 -39t-104.5 -9.5q-20 0 -59.5 2t-84 9.5t-79.5 23.5l10 113h29.5h37h59.5q71 0 121 13.5t74 50.5q17 26 22 53t18 52l-33 12zM299 514q67 0 127.5 -5t106.5 -12.5t69 -14.5l-162 -106q-26 1 -50 1h-59
q-25 0 -40.5 -5.5t-24.5 -17.5t-15 -32.5t-11 -51.5q-9 -51 -10 -78.5t7.5 -36.5t25.5 -6q21 4 43.5 21.5t43.5 45.5t35 61l34 -56q-15 -70 -50 -119t-84.5 -75t-111.5 -29q-72 -3 -108.5 29t-44 93.5t5.5 143.5q14 89 38 139.5t58 74t78.5 30t98.5 6.5zM472 738l94 -15
q2 -44 -21 -82.5t-66.5 -62t-106.5 -23.5q-62 0 -103.5 25.5t-57 66t-1.5 84.5l98 5q-5 -31 12.5 -43t60.5 -12q45 0 66.5 15t24.5 42z" />
    <glyph glyph-name="Gdotaccent" unicode="&#x120;" horiz-adv-x="670" 
d="M420 704q41 0 80.5 -3t77.5 -9.5t73 -17.5l-24 -155q-37 1 -71.5 1t-70.5 0.5t-80 0.5q-33 0 -55.5 -9t-37.5 -30t-25.5 -56.5t-18.5 -88.5q-10 -68 -9 -104t16.5 -49t48.5 -13q31 0 50 8t32 18t23 15l36 -86q-12 -14 -32.5 -37t-50.5 -47t-69.5 -40t-89.5 -16
q-68 0 -115.5 34t-66 114.5t0.5 218.5q15 107 43 175.5t73 107t109.5 53.5t152.5 15zM648 397l-56 -397h-159l-11 107l-16 37l35 253h207zM461 913q27 0 43.5 -14.5t13.5 -44.5l-5 -49q-6 -53 -60 -53h-63q-32 0 -46 15.5t-10 45.5l6 47q4 26 20.5 39.5t41.5 13.5h59z" />
    <glyph glyph-name="gdotaccent" unicode="&#x121;" horiz-adv-x="618" 
d="M397 500l205 -18l-55 -392q-13 -98 -44 -157t-75 -88.5t-95.5 -39t-104.5 -9.5q-20 0 -59.5 2t-84 9.5t-79.5 23.5l10 113h29.5h37h59.5q71 0 121 13.5t74 50.5q17 26 22 53t18 52l-33 12zM299 514q67 0 127.5 -5t106.5 -12.5t69 -14.5l-162 -106q-26 1 -50 1h-59
q-25 0 -40.5 -5.5t-24.5 -17.5t-15 -32.5t-11 -51.5q-9 -51 -10 -78.5t7.5 -36.5t25.5 -6q21 4 43.5 21.5t43.5 45.5t35 61l34 -56q-15 -70 -50 -119t-84.5 -75t-111.5 -29q-72 -3 -108.5 29t-44 93.5t5.5 143.5q14 89 38 139.5t58 74t78.5 30t98.5 6.5zM413 731
q27 0 43.5 -14.5t13.5 -44.5l-5 -49q-6 -53 -60 -53h-63q-32 0 -46 15.5t-10 45.5l6 47q4 26 20.5 39.5t41.5 13.5h59z" />
    <glyph glyph-name="uni0122" unicode="&#x122;" horiz-adv-x="670" 
d="M339 -48q36 0 51 -13t10 -44l-8 -48q-5 -26 -16.5 -55.5t-28.5 -56.5t-37 -46l-77 24q14 25 22.5 51.5t16.5 51.5q-30 -1 -40.5 11t-6.5 37l6 35q6 31 23.5 42t52.5 11h32zM420 704q41 0 80.5 -3t77.5 -9.5t73 -17.5l-24 -155q-37 1 -71.5 1t-70.5 0.5t-80 0.5
q-33 0 -55.5 -9t-37.5 -30t-25.5 -56.5t-18.5 -88.5q-10 -68 -9 -104t16.5 -49t48.5 -13q31 0 50 8t32 18t23 15l36 -86q-12 -14 -32.5 -37t-50.5 -47t-69.5 -40t-89.5 -16q-68 0 -115.5 34t-66 114.5t0.5 218.5q15 107 43 175.5t73 107t109.5 53.5t152.5 15zM648 397
l-56 -397h-159l-11 107l-16 37l35 253h207z" />
    <glyph glyph-name="uni0123" unicode="&#x123;" horiz-adv-x="618" 
d="M341 548q-36 0 -51 13t-10 44l8 48q5 26 16.5 55.5t28.5 56.5t37 46l77 -24q-14 -25 -22.5 -51.5t-16.5 -51.5q30 1 40.5 -11t6.5 -37l-6 -35q-6 -31 -23.5 -42t-52.5 -11h-32zM397 500l205 -18l-55 -392q-13 -98 -44 -157t-75 -88.5t-95.5 -39t-104.5 -9.5
q-20 0 -59.5 2t-84 9.5t-79.5 23.5l10 113h29.5h37h59.5q71 0 121 13.5t74 50.5q17 26 22 53t18 52l-33 12zM299 514q67 0 127.5 -5t106.5 -12.5t69 -14.5l-162 -106q-26 1 -50 1h-59q-25 0 -40.5 -5.5t-24.5 -17.5t-15 -32.5t-11 -51.5q-9 -51 -10 -78.5t7.5 -36.5t25.5 -6
q21 4 43.5 21.5t43.5 45.5t35 61l34 -56q-15 -70 -50 -119t-84.5 -75t-111.5 -29q-72 -3 -108.5 29t-44 93.5t5.5 143.5q14 89 38 139.5t58 74t78.5 30t98.5 6.5z" />
    <glyph glyph-name="Hcircumflex" unicode="&#x124;" horiz-adv-x="705" 
d="M326 690l-97 -690h-217l97 690h217zM467 443l-22 -154h-183l21 154h184zM708 690l-97 -690h-217l97 690h217zM490 927l131 -140l-55 -68l-147 94h-8l-164 -94l-48 72l150 136h141z" />
    <glyph glyph-name="hcircumflex" unicode="&#x125;" horiz-adv-x="619" 
d="M451 514q77 0 112.5 -37.5t25.5 -106.5l-52 -370h-210l44 311q3 17 -1 21.5t-18 4.5q-24 0 -48 -10t-62 -40l-35 87q65 73 128 106.5t116 33.5zM311 700l-21 -153q-7 -54 -23.5 -103.5t-29.5 -78.5l25 -9l-49 -356h-210l98 700h210zM289 912l131 -140l-55 -68l-147 94h-8
l-164 -94l-48 72l150 136h141z" />
    <glyph glyph-name="Hbar" unicode="&#x126;" horiz-adv-x="705" 
d="M748 601l-14 -92h-703l14 92h703zM326 690l-97 -690h-217l97 690h217zM467 443l-22 -154h-183l21 154h184zM708 690l-97 -690h-217l97 690h217z" />
    <glyph glyph-name="hbar" unicode="&#x127;" horiz-adv-x="615" 
d="M409 631l-12 -84h-371l12 84h371zM447 514q77 0 112.5 -37.5t25.5 -106.5l-52 -370h-210l44 311q3 17 -1 21.5t-18 4.5q-24 0 -48 -10t-62 -40l-35 87q65 73 128 106.5t116 33.5zM307 700l-21 -153q-7 -54 -23.5 -103.5t-29.5 -78.5l25 -9l-49 -356h-210l98 700h210z" />
    <glyph glyph-name="Itilde" unicode="&#x128;" horiz-adv-x="322" 
d="M325 690l-97 -690h-216l97 690h216zM135 920q19 0 41.5 -5.5t44.5 -13.5t41.5 -15t32.5 -10q26 -6 35 6.5t12 36.5l85 -8q4 -87 -23.5 -126t-71.5 -39q-19 0 -42 5.5t-46 13.5t-42.5 15t-33.5 10q-25 5 -33.5 -7t-12.5 -36l-85 8q-2 86 25.5 125.5t72.5 39.5z" />
    <glyph glyph-name="itilde" unicode="&#x129;" horiz-adv-x="306" 
d="M288 500l-70 -500h-211l70 500h211zM98 732q19 0 41.5 -5.5t44.5 -13.5t41.5 -15t32.5 -10q26 -6 35 6.5t12 36.5l85 -8q4 -87 -23.5 -126t-71.5 -39q-19 0 -42 5.5t-46 13.5t-42.5 15t-33.5 10q-25 5 -33.5 -7t-12.5 -36l-85 8q-2 86 25.5 125.5t72.5 39.5z" />
    <glyph glyph-name="Imacron" unicode="&#x12a;" horiz-adv-x="322" 
d="M325 690l-97 -690h-216l97 690h216zM404 895l-17 -123h-320l17 123h320z" />
    <glyph glyph-name="imacron" unicode="&#x12b;" horiz-adv-x="306" 
d="M288 500l-70 -500h-211l70 500h211zM367 707l-17 -123h-320l17 123h320z" />
    <glyph glyph-name="Ibreve" unicode="&#x12c;" horiz-adv-x="322" 
d="M325 690l-97 -690h-216l97 690h216zM332 920l94 -15q2 -44 -21 -82.5t-66.5 -62t-106.5 -23.5q-62 0 -103.5 25.5t-57 66t-1.5 84.5l98 5q-5 -31 12.5 -43t60.5 -12q45 0 66.5 15t24.5 42z" />
    <glyph glyph-name="ibreve" unicode="&#x12d;" horiz-adv-x="306" 
d="M288 500l-70 -500h-211l70 500h211zM295 732l94 -15q2 -44 -21 -82.5t-66.5 -62t-106.5 -23.5q-62 0 -103.5 25.5t-57 66t-1.5 84.5l98 5q-5 -31 12.5 -43t60.5 -12q45 0 66.5 15t24.5 42z" />
    <glyph glyph-name="Iogonek" unicode="&#x12e;" horiz-adv-x="322" 
d="M325 690l-97 -690h-216l97 690h216zM112 8l87 -8q-18 -19 -34 -45t-23 -46q-5 -16 2 -22t30 -2l15 -74q-64 -23 -107.5 -21.5t-67.5 19t-28.5 44.5t9.5 54q12 23 40 48.5t77 52.5z" />
    <glyph glyph-name="iogonek" unicode="&#x12f;" horiz-adv-x="306" 
d="M288 500l-70 -500h-211l70 500h211zM236 725q27 0 43.5 -14.5t13.5 -44.5l-5 -49q-6 -53 -60 -53h-63q-32 0 -46 15.5t-10 45.5l6 47q4 26 20.5 39.5t41.5 13.5h59zM111 8l87 -8q-18 -19 -34 -45t-23 -46q-5 -16 2 -22t30 -2l15 -74q-64 -23 -107.5 -21.5t-67.5 19
t-28.5 44.5t9.5 54q12 23 40 48.5t77 52.5z" />
    <glyph glyph-name="Idotaccent" unicode="&#x130;" horiz-adv-x="322" 
d="M325 690l-97 -690h-216l97 690h216zM273 913q27 0 43.5 -14.5t13.5 -44.5l-5 -49q-6 -53 -60 -53h-63q-32 0 -46 15.5t-10 45.5l6 47q4 26 20.5 39.5t41.5 13.5h59z" />
    <glyph glyph-name="dotlessi" unicode="&#x131;" horiz-adv-x="306" 
d="M288 500l-70 -500h-211l70 500h211z" />
    <glyph glyph-name="IJ" unicode="&#x132;" horiz-adv-x="717" 
d="M325 690l-97 -690h-216l97 690h216zM722 690l-78 -567q-10 -67 -59 -102t-125 -35q-25 0 -57 3.5t-60.5 9.5t-44.5 15l34 134h37q32 0 47 10t17 29l73 503h216z" />
    <glyph glyph-name="ij" unicode="&#x133;" horiz-adv-x="610" 
d="M285 500l-69 -500h-209l69 500h209zM250 729q34 0 49 -16t11 -50l-7 -51q-7 -58 -69 -58h-82q-66 0 -59 66l7 51q6 58 69 58h81zM593 500l-65 -446q-6 -52 -30 -100.5t-62.5 -86.5t-89.5 -59l-115 97q43 40 63 77t26 80l63 438h210zM554 729q35 0 49.5 -16t9.5 -50
l-7 -51q-7 -58 -71 -58h-79q-67 0 -60 66l7 51q7 58 72 58h79z" />
    <glyph glyph-name="Jcircumflex" unicode="&#x134;" horiz-adv-x="395" 
d="M400 690l-78 -567q-10 -67 -59 -102t-125 -35q-25 0 -57 3.5t-60.5 9.5t-44.5 15l34 134h37q32 0 47 10t17 29l73 503h216zM375 927l131 -140l-55 -68l-147 94h-8l-164 -94l-48 72l150 136h141z" />
    <glyph glyph-name="jcircumflex" unicode="&#x135;" horiz-adv-x="306" 
d="M289 500l-65 -446q-6 -52 -30 -100.5t-62.5 -86.5t-89.5 -59l-115 97q43 40 63 77t26 80l63 438h210zM275 739l131 -140l-55 -68l-147 94h-8l-164 -94l-48 72l150 136h141z" />
    <glyph glyph-name="uni0136" unicode="&#x136;" horiz-adv-x="668" 
d="M324 -48q36 0 51 -13t10 -44l-8 -48q-5 -26 -16.5 -55.5t-28.5 -56.5t-37 -46l-77 24q14 25 22.5 51.5t16.5 51.5q-30 -1 -40.5 11t-6.5 37l6 35q6 31 23.5 42t52.5 11h32zM725 690l-193 -288q-16 -25 -36 -39t-36 -20l-1 -4q14 -6 30 -27t25 -43l120 -269h-234l-131 353
l216 337h240zM327 690l-27 -191q-4 -35 -16.5 -72.5t-34.5 -72.5q11 -31 14 -67t-2 -66l-31 -221h-218l97 690h218zM340 428l-19 -140h-113l19 140h113z" />
    <glyph glyph-name="uni0137" unicode="&#x137;" horiz-adv-x="609" 
d="M296 -38q36 0 51 -13t10 -44l-8 -48q-5 -26 -16.5 -55.5t-28.5 -56.5t-37 -46l-77 24q14 25 22.5 51.5t16.5 51.5q-30 -1 -40.5 11t-6.5 37l6 35q6 31 23.5 42t52.5 11h32zM311 700l-38 -272q-5 -31 -15.5 -61t-27.5 -61q2 -36 4.5 -83.5t-1.5 -83.5l-20 -139h-210
l98 700h210zM604 500q-19 -82 -61.5 -139.5t-99 -95.5t-119 -63t-121.5 -42l-20 124q48 18 91 50.5t73.5 75.5t40.5 90h216zM393 279q39 -15 61.5 -39t34.5 -51l91 -189h-215l-106 230z" />
    <glyph glyph-name="kgreenlandic" unicode="&#x138;" horiz-adv-x="609" 
d="M283 500l-11 -83q-4 -31 -15 -61t-28 -61q2 -36 5 -83.5t-2 -83.5l-19 -128h-210l70 500h210zM609 500q-19 -82 -62 -141t-101 -99.5t-121.5 -67t-122.5 -43.5l-20 124q48 18 92 51.5t76 78.5t43 97h216zM392 268q39 -15 61 -39.5t35 -50.5l87 -178h-215l-102 219z" />
    <glyph glyph-name="Lacute" unicode="&#x139;" horiz-adv-x="552" 
d="M323 690l-71 -478q-2 -22 5.5 -31t30.5 -9h228l-4 -163q-69 -9 -157 -11t-174 -2q-50 0 -86 21t-53.5 57.5t-10.5 82.5l74 533h218zM381 962l66 -146l-266 -96l-47 86z" />
    <glyph glyph-name="lacute" unicode="&#x13a;" horiz-adv-x="360" 
d="M311 700l-75 -522q-4 -19 4 -25.5t35 -6.5h40l12 -136q-16 -9 -43.5 -14t-55 -7.5t-44.5 -2.5q-84 0 -127.5 39t-35.5 105l81 570h209zM375 967l66 -146l-266 -96l-47 86z" />
    <glyph glyph-name="uni013B" unicode="&#x13b;" horiz-adv-x="552" 
d="M273 -48q36 0 51 -13t10 -44l-8 -48q-5 -26 -16.5 -55.5t-28.5 -56.5t-37 -46l-77 24q14 25 22.5 51.5t16.5 51.5q-30 -1 -40.5 11t-6.5 37l6 35q6 31 23.5 42t52.5 11h32zM323 690l-71 -478q-2 -22 5.5 -31t30.5 -9h228l-4 -163q-69 -9 -157 -11t-174 -2q-50 0 -86 21
t-53.5 57.5t-10.5 82.5l74 533h218z" />
    <glyph glyph-name="uni013C" unicode="&#x13c;" horiz-adv-x="360" 
d="M173 -43q36 0 51 -13t10 -44l-8 -48q-5 -26 -16.5 -55.5t-28.5 -56.5t-37 -46l-77 24q14 25 22.5 51.5t16.5 51.5q-30 -1 -40.5 11t-6.5 37l6 35q6 31 23.5 42t52.5 11h32zM311 700l-75 -522q-4 -19 4 -25.5t35 -6.5h40l12 -136q-16 -9 -43.5 -14t-55 -7.5t-44.5 -2.5
q-84 0 -127.5 39t-35.5 105l81 570h209z" />
    <glyph glyph-name="Lcaron" unicode="&#x13d;" horiz-adv-x="552" 
d="M323 690l-71 -478q-2 -22 5.5 -31t30.5 -9h228l-4 -163q-69 -9 -157 -11t-174 -2q-50 0 -86 21t-53.5 57.5t-10.5 82.5l74 533h218zM476 689q33 0 47 -14.5t9 -49.5l-7 -48q-6 -43 -26.5 -90.5t-45.5 -79.5l-71 27q12 28 20 54.5t13 54.5q-28 -1 -38 12.5t-6 40.5l6 34
q6 34 22 46.5t47 12.5h30z" />
    <glyph glyph-name="lcaron" unicode="&#x13e;" horiz-adv-x="360" 
d="M443 699q36 0 51 -13t10 -44l-8 -48q-5 -26 -16.5 -55.5t-28.5 -56.5t-37 -46l-77 24q14 25 22.5 51.5t16.5 51.5q-30 -1 -40.5 11t-6.5 37l6 35q6 31 23.5 42t52.5 11h32zM311 700l-75 -522q-4 -19 4 -25.5t35 -6.5h40l12 -136q-16 -9 -43.5 -14t-55 -7.5t-44.5 -2.5
q-84 0 -127.5 39t-35.5 105l81 570h209z" />
    <glyph glyph-name="Ldot" unicode="&#x13f;" horiz-adv-x="552" 
d="M390 330q-27 0 -43.5 14.5t-13.5 44.5l5 49q6 53 60 53h63q32 0 46.5 -15.5t9.5 -45.5l-6 -47q-4 -26 -20 -39.5t-42 -13.5h-59zM323 690l-71 -478q-2 -22 5.5 -31t30.5 -9h228l-4 -163q-69 -9 -157 -11t-174 -2q-50 0 -86 21t-53.5 57.5t-10.5 82.5l74 533h218z" />
    <glyph glyph-name="ldot" unicode="&#x140;" horiz-adv-x="504" 
d="M383 291q-27 0 -43.5 14.5t-13.5 44.5l5 49q6 53 60 53h63q32 0 46.5 -15.5t9.5 -45.5l-6 -47q-4 -26 -20 -39.5t-42 -13.5h-59zM311 700l-75 -522q-4 -19 4 -25.5t35 -6.5h40l12 -136q-16 -9 -43.5 -14t-55 -7.5t-44.5 -2.5q-84 0 -127.5 39t-35.5 105l81 570h209z" />
    <glyph glyph-name="Lslash" unicode="&#x141;" horiz-adv-x="556" 
d="M399 513l-15 -104l-380 -140l14 104zM327 690l-71 -478q-2 -22 5.5 -31t30.5 -9h228l-4 -163q-69 -9 -157 -11t-174 -2q-50 0 -86 21t-53.5 57.5t-10.5 82.5l74 533h218z" />
    <glyph glyph-name="lslash" unicode="&#x142;" horiz-adv-x="376" 
d="M395 513l-15 -104l-380 -140l14 104zM323 700l-75 -522q-4 -19 4 -25.5t35 -6.5h40l12 -136q-16 -9 -43.5 -14t-55 -7.5t-44.5 -2.5q-84 0 -127.5 39t-35.5 105l81 570h209z" />
    <glyph glyph-name="Nacute" unicode="&#x143;" horiz-adv-x="730" 
d="M734 690l-87 -619q-5 -37 -23.5 -54t-55.5 -17h-72q-34 0 -48.5 18t-28.5 49l-118 237q-12 24 -20 53.5t-15 60.5h-7q1 -32 0 -63.5t-6 -64.5l-43 -290h-199l87 619q5 37 23.5 54t55.5 17h72q34 0 48 -18.5t28 -48.5l116 -225q12 -25 22.5 -53.5t19.5 -65.5h8
q-3 34 -2.5 61t4.5 56l42 294h199zM579 962l66 -146l-266 -96l-47 86z" />
    <glyph glyph-name="nacute" unicode="&#x144;" horiz-adv-x="619" 
d="M460 514q41 0 73 -16t48 -48t9 -80l-52 -370h-211l43 302q3 20 -2 28.5t-25 6.5q-18 -1 -42 -11t-59 -39l-35 87q50 64 118.5 102t134.5 38zM236 500l7 -134l20 -12l-50 -354h-210l69 500h164zM503 774l66 -146l-266 -96l-47 86z" />
    <glyph glyph-name="uni0145" unicode="&#x145;" horiz-adv-x="730" 
d="M361 -48q36 0 51 -13t10 -44l-8 -48q-5 -26 -16.5 -55.5t-28.5 -56.5t-37 -46l-77 24q14 25 22.5 51.5t16.5 51.5q-30 -1 -40.5 11t-6.5 37l6 35q6 31 23.5 42t52.5 11h32zM734 690l-87 -619q-5 -37 -23.5 -54t-55.5 -17h-72q-34 0 -48.5 18t-28.5 49l-118 237
q-12 24 -20 53.5t-15 60.5h-7q1 -32 0 -63.5t-6 -64.5l-43 -290h-199l87 619q5 37 23.5 54t55.5 17h72q34 0 48 -18.5t28 -48.5l116 -225q12 -25 22.5 -53.5t19.5 -65.5h8q-3 34 -2.5 61t4.5 56l42 294h199z" />
    <glyph glyph-name="uni0146" unicode="&#x146;" horiz-adv-x="619" 
d="M275 -38q36 0 51 -13t10 -44l-8 -48q-5 -26 -16.5 -55.5t-28.5 -56.5t-37 -46l-77 24q14 25 22.5 51.5t16.5 51.5q-30 -1 -40.5 11t-6.5 37l6 35q6 31 23.5 42t52.5 11h32zM460 514q41 0 73 -16t48 -48t9 -80l-52 -370h-211l43 302q3 20 -2 28.5t-25 6.5q-18 -1 -42 -11
t-59 -39l-35 87q50 64 118.5 102t134.5 38zM236 500l7 -134l20 -12l-50 -354h-210l69 500h164z" />
    <glyph glyph-name="Ncaron" unicode="&#x147;" horiz-adv-x="730" 
d="M734 690l-87 -619q-5 -37 -23.5 -54t-55.5 -17h-72q-34 0 -48.5 18t-28.5 49l-118 237q-12 24 -20 53.5t-15 60.5h-7q1 -32 0 -63.5t-6 -64.5l-43 -290h-199l87 619q5 37 23.5 54t55.5 17h72q34 0 48 -18.5t28 -48.5l116 -225q12 -25 22.5 -53.5t19.5 -65.5h8
q-3 34 -2.5 61t4.5 56l42 294h199zM605 943l40 -75l-179 -131h-82l-163 144l58 66l147 -81h8z" />
    <glyph glyph-name="ncaron" unicode="&#x148;" horiz-adv-x="619" 
d="M460 514q41 0 73 -16t48 -48t9 -80l-52 -370h-211l43 302q3 20 -2 28.5t-25 6.5q-18 -1 -42 -11t-59 -39l-35 87q50 64 118.5 102t134.5 38zM236 500l7 -134l20 -12l-50 -354h-210l69 500h164zM529 755l40 -75l-179 -131h-82l-163 144l58 66l147 -81h8z" />
    <glyph glyph-name="Eng" unicode="&#x14a;" horiz-adv-x="735" 
d="M739 690l-103 -727q-11 -81 -53 -124t-102 -43q-34 0 -76.5 7.5t-71.5 20.5l37 134h30q20 0 34 8.5t17 22.5l5 24h-3q-10 0 -18 20t-15 34l-119 236q-13 29 -19.5 56t-13.5 59h-6q0 -34 -1.5 -63.5t-6.5 -61.5l-43 -293h-200l87 619q5 37 23.5 54t55.5 17h82q34 0 49 -18
t26 -49l110 -226q9 -20 20 -47t20 -71h6q-1 40 1.5 68.5t6.5 60.5l41 282h200z" />
    <glyph glyph-name="eng" unicode="&#x14b;" horiz-adv-x="619" 
d="M451 514q77 0 112.5 -37.5t26.5 -106.5l-57 -398q-11 -81 -54 -124t-114 -43q-23 0 -54 3.5t-58.5 9.5t-43.5 15l36 134h30q19 0 34 8.5t17 22.5l45 313q3 17 -3.5 22.5t-23.5 3.5q-11 -1 -25.5 -5.5t-33 -14.5t-43.5 -30l-37 90q66 73 130 105t116 32zM236 500l6 -87
l19 -72l-48 -341h-210l69 500h164z" />
    <glyph glyph-name="Omacron" unicode="&#x14c;" 
d="M389 704q114 0 184 -32t95.5 -111.5t6.5 -223.5q-14 -106 -40.5 -175t-68.5 -107t-102.5 -53.5t-141.5 -15.5q-119 0 -187.5 32.5t-90.5 112.5t-3 222q15 105 41 173.5t67 107.5t100 54.5t140 15.5zM387 543q-36 0 -57.5 -16t-34.5 -60t-27 -130q-12 -79 -11 -120
t18 -55.5t52 -14.5q38 0 59 16t34.5 60.5t26.5 129.5q12 79 11 119.5t-18 55.5t-53 15zM591 895l-17 -123h-320l17 123h320z" />
    <glyph glyph-name="omacron" unicode="&#x14d;" horiz-adv-x="615" 
d="M327 514q100 0 161.5 -27t84.5 -86.5t9 -159.5q-13 -94 -46.5 -149.5t-95.5 -79.5t-162 -24q-99 0 -161 26.5t-86 85.5t-10 157q14 96 47 152t96 80.5t163 24.5zM323 372q-27 0 -42 -10t-24 -38t-17 -83q-6 -46 -5.5 -70t13 -32.5t38.5 -8.5t40 10t22.5 37.5t16.5 79.5
q7 48 6 72.5t-12 33.5t-36 9zM525 707l-17 -123h-320l17 123h320z" />
    <glyph glyph-name="Obreve" unicode="&#x14e;" 
d="M389 704q114 0 184 -32t95.5 -111.5t6.5 -223.5q-14 -106 -40.5 -175t-68.5 -107t-102.5 -53.5t-141.5 -15.5q-119 0 -187.5 32.5t-90.5 112.5t-3 222q15 105 41 173.5t67 107.5t100 54.5t140 15.5zM387 543q-36 0 -57.5 -16t-34.5 -60t-27 -130q-12 -79 -11 -120
t18 -55.5t52 -14.5q38 0 59 16t34.5 60.5t26.5 129.5q12 79 11 119.5t-18 55.5t-53 15zM519 920l94 -15q2 -44 -21 -82.5t-66.5 -62t-106.5 -23.5q-62 0 -103.5 25.5t-57 66t-1.5 84.5l98 5q-5 -31 12.5 -43t60.5 -12q45 0 66.5 15t24.5 42z" />
    <glyph glyph-name="obreve" unicode="&#x14f;" horiz-adv-x="615" 
d="M327 514q100 0 161.5 -27t84.5 -86.5t9 -159.5q-13 -94 -46.5 -149.5t-95.5 -79.5t-162 -24q-99 0 -161 26.5t-86 85.5t-10 157q14 96 47 152t96 80.5t163 24.5zM323 372q-27 0 -42 -10t-24 -38t-17 -83q-6 -46 -5.5 -70t13 -32.5t38.5 -8.5t40 10t22.5 37.5t16.5 79.5
q7 48 6 72.5t-12 33.5t-36 9zM453 732l94 -15q2 -44 -21 -82.5t-66.5 -62t-106.5 -23.5q-62 0 -103.5 25.5t-57 66t-1.5 84.5l98 5q-5 -31 12.5 -43t60.5 -12q45 0 66.5 15t24.5 42z" />
    <glyph glyph-name="Ohungarumlaut" unicode="&#x150;" 
d="M389 704q114 0 184 -32t95.5 -111.5t6.5 -223.5q-14 -106 -40.5 -175t-68.5 -107t-102.5 -53.5t-141.5 -15.5q-119 0 -187.5 32.5t-90.5 112.5t-3 222q15 105 41 173.5t67 107.5t100 54.5t140 15.5zM387 543q-36 0 -57.5 -16t-34.5 -60t-27 -130q-12 -79 -11 -120
t18 -55.5t52 -14.5q38 0 59 16t34.5 60.5t26.5 129.5q12 79 11 119.5t-18 55.5t-53 15zM362 968l121 -84l-183 -161l-85 52zM577 968l121 -84l-184 -161l-84 51z" />
    <glyph glyph-name="ohungarumlaut" unicode="&#x151;" horiz-adv-x="615" 
d="M327 514q100 0 161.5 -27t84.5 -86.5t9 -159.5q-13 -94 -46.5 -149.5t-95.5 -79.5t-162 -24q-99 0 -161 26.5t-86 85.5t-10 157q14 96 47 152t96 80.5t163 24.5zM323 372q-27 0 -42 -10t-24 -38t-17 -83q-6 -46 -5.5 -70t13 -32.5t38.5 -8.5t40 10t22.5 37.5t16.5 79.5
q7 48 6 72.5t-12 33.5t-36 9zM296 780l121 -84l-183 -161l-85 52zM511 780l121 -84l-184 -161l-84 51z" />
    <glyph glyph-name="OE" unicode="&#x152;" horiz-adv-x="975" 
d="M393 704q61 0 107.5 -8t87.5 -25l-93 -139q-16 7 -41.5 9t-59.5 2q-37 0 -60.5 -17.5t-38.5 -62t-27 -126.5q-11 -78 -11.5 -119t13 -56t44.5 -15q30 0 52.5 2.5t39 6.5t27.5 10l68 -139q-29 -15 -59 -24t-61 -13t-65 -4q-89 0 -148.5 17t-92.5 58.5t-41 112.5t7 179
q15 105 40 173.5t66 107t101.5 54.5t144.5 16zM478 420h442l-17 -134h-445zM642 694q61 0 124.5 -1t122.5 -3.5t106 -9.5l-25 -152h-233q-17 0 -32.5 -12t-17.5 -28l-42 -294q-2 -16 5 -24t23 -8h244l-4 -154q-49 -7 -108 -9t-120 -2.5t-116 -0.5q-49 0 -84 21t-51.5 57.5
t-10.5 82.5l54 384q10 70 55.5 111.5t109.5 41.5z" />
    <glyph glyph-name="oe" unicode="&#x153;" horiz-adv-x="910" 
d="M319 514q51 0 100 -15t86 -47t55 -84t7 -127q-13 -94 -58 -149.5t-108 -79.5t-131 -24q-96 0 -156.5 26.5t-83.5 85.5t-9 157q14 96 46.5 152t93.5 80.5t158 24.5zM314 372q-24 0 -38 -10t-21.5 -38t-15.5 -83q-6 -46 -5.5 -70t11 -32.5t34.5 -8.5q23 0 35 10t20 37.5
t15 79.5q7 48 7 72.5t-10 33.5t-32 9zM649 514q102 0 158.5 -21.5t76 -62.5t10.5 -102q-6 -45 -30.5 -70t-68.5 -37t-110 -17l-262 -20l13 99l192 20q20 2 34 5.5t22.5 12.5t9.5 28q1 11 -2 18t-12.5 10t-28.5 2q-20 0 -33 -5.5t-21.5 -18t-14.5 -35.5t-12 -59
q-8 -49 -6 -73t18 -31.5t49 -7.5q20 0 56 1.5t75.5 4t69.5 5.5l13 -128q-35 -16 -74 -26t-79 -14t-80 -4q-83 0 -145.5 31t-94 90.5t-23.5 144.5q8 80 38 131t73.5 79t93 39t95.5 11z" />
    <glyph glyph-name="Racute" unicode="&#x154;" horiz-adv-x="669" 
d="M387 700q96 0 160 -20t92 -67.5t17 -130.5q-5 -39 -20.5 -72.5t-47.5 -55.5t-88 -28l-1 -7q17 -2 36.5 -12.5t35 -33.5t19.5 -65l26 -208h-224l-18 209q-1 29 -9 36t-31 7q-77 1 -125 1t-80.5 1t-63.5 3l16 148h274q30 0 46.5 6t25 23.5t13.5 49.5q4 24 0 38t-17 19.5
t-38 5.5q-107 0 -178.5 -1.5t-96.5 -4.5l-2 149q45 5 84.5 7t85.5 2.5t109 0.5zM320 690l-97 -690h-212l97 690h212zM549 962l66 -146l-266 -96l-47 86z" />
    <glyph glyph-name="racute" unicode="&#x155;" horiz-adv-x="452" 
d="M237 500l10 -102l19 -12l-52 -386h-211l70 500h164zM479 514l-43 -192h-47q-27 0 -60 -3t-87 -12l-8 117q55 47 108 68.5t101 21.5h36zM441 774l66 -146l-266 -96l-47 86z" />
    <glyph glyph-name="uni0156" unicode="&#x156;" horiz-adv-x="669" 
d="M323 -48q36 0 51 -13t10 -44l-8 -48q-5 -26 -16.5 -55.5t-28.5 -56.5t-37 -46l-77 24q14 25 22.5 51.5t16.5 51.5q-30 -1 -40.5 11t-6.5 37l6 35q6 31 23.5 42t52.5 11h32zM387 700q96 0 160 -20t92 -67.5t17 -130.5q-5 -39 -20.5 -72.5t-47.5 -55.5t-88 -28l-1 -7
q17 -2 36.5 -12.5t35 -33.5t19.5 -65l26 -208h-224l-18 209q-1 29 -9 36t-31 7q-77 1 -125 1t-80.5 1t-63.5 3l16 148h274q30 0 46.5 6t25 23.5t13.5 49.5q4 24 0 38t-17 19.5t-38 5.5q-107 0 -178.5 -1.5t-96.5 -4.5l-2 149q45 5 84.5 7t85.5 2.5t109 0.5zM320 690
l-97 -690h-212l97 690h212z" />
    <glyph glyph-name="uni0157" unicode="&#x157;" horiz-adv-x="452" 
d="M114 -38q36 0 51 -13t10 -44l-8 -48q-5 -26 -16.5 -55.5t-28.5 -56.5t-37 -46l-77 24q14 25 22.5 51.5t16.5 51.5q-30 -1 -40.5 11t-6.5 37l6 35q6 31 23.5 42t52.5 11h32zM237 500l10 -102l19 -12l-52 -386h-211l70 500h164zM479 514l-43 -192h-47q-27 0 -60 -3t-87 -12
l-8 117q55 47 108 68.5t101 21.5h36z" />
    <glyph glyph-name="Rcaron" unicode="&#x158;" horiz-adv-x="669" 
d="M387 700q96 0 160 -20t92 -67.5t17 -130.5q-5 -39 -20.5 -72.5t-47.5 -55.5t-88 -28l-1 -7q17 -2 36.5 -12.5t35 -33.5t19.5 -65l26 -208h-224l-18 209q-1 29 -9 36t-31 7q-77 1 -125 1t-80.5 1t-63.5 3l16 148h274q30 0 46.5 6t25 23.5t13.5 49.5q4 24 0 38t-17 19.5
t-38 5.5q-107 0 -178.5 -1.5t-96.5 -4.5l-2 149q45 5 84.5 7t85.5 2.5t109 0.5zM320 690l-97 -690h-212l97 690h212zM575 943l40 -75l-179 -131h-82l-163 144l58 66l147 -81h8z" />
    <glyph glyph-name="rcaron" unicode="&#x159;" horiz-adv-x="452" 
d="M237 500l10 -102l19 -12l-52 -386h-211l70 500h164zM479 514l-43 -192h-47q-27 0 -60 -3t-87 -12l-8 117q55 47 108 68.5t101 21.5h36zM467 755l40 -75l-179 -131h-82l-163 144l58 66l147 -81h8z" />
    <glyph glyph-name="Sacute" unicode="&#x15a;" horiz-adv-x="602" 
d="M357 704q58 0 123.5 -8t123.5 -28l-19 -138q-30 1 -70.5 1t-84.5 0.5t-87 0.5q-17 0 -29 -1.5t-20 -4.5t-12.5 -8.5t-6.5 -13.5q-1 -7 1.5 -14t12.5 -14t30 -17l116 -55q57 -27 86 -57t37.5 -68.5t2.5 -89.5q-9 -79 -39 -123.5t-89.5 -62t-159.5 -17.5q-43 0 -116.5 7.5
t-152.5 27.5l20 151q58 -1 107.5 -2.5t83.5 -2t47 -0.5q31 0 48.5 3t26 9.5t10.5 16.5q2 9 -0.5 15t-10.5 11.5t-22 12.5l-126 62q-58 29 -87 61.5t-37 70.5t-3 80q7 57 27.5 95t56.5 59.5t89 31t123 9.5zM519 962l66 -146l-266 -96l-47 86z" />
    <glyph glyph-name="sacute" unicode="&#x15b;" horiz-adv-x="548" 
d="M278 514q40 0 87 -3t91.5 -8t73.5 -12l-17 -121h-98h-93q-35 0 -53.5 -0.5t-25.5 -2.5t-8 -7q-1 -7 8.5 -13t40.5 -14l109 -29q41 -11 68 -32t39 -52.5t7 -73.5q-8 -66 -40 -99.5t-85.5 -45.5t-128.5 -12q-31 0 -70.5 1.5t-86 6.5t-99.5 14l17 121h41h62h65q52 0 78 1.5
t35.5 5t10.5 9.5q1 5 -3 8.5t-16 8t-35 10.5l-105 30q-47 14 -73.5 38.5t-35 58.5t-2.5 74q7 44 30 74.5t73.5 47t138.5 16.5zM469 774l66 -146l-266 -96l-47 86z" />
    <glyph glyph-name="Scircumflex" unicode="&#x15c;" horiz-adv-x="602" 
d="M357 704q58 0 123.5 -8t123.5 -28l-19 -138q-30 1 -70.5 1t-84.5 0.5t-87 0.5q-17 0 -29 -1.5t-20 -4.5t-12.5 -8.5t-6.5 -13.5q-1 -7 1.5 -14t12.5 -14t30 -17l116 -55q57 -27 86 -57t37.5 -68.5t2.5 -89.5q-9 -79 -39 -123.5t-89.5 -62t-159.5 -17.5q-43 0 -116.5 7.5
t-152.5 27.5l20 151q58 -1 107.5 -2.5t83.5 -2t47 -0.5q31 0 48.5 3t26 9.5t10.5 16.5q2 9 -0.5 15t-10.5 11.5t-22 12.5l-126 62q-58 29 -87 61.5t-37 70.5t-3 80q7 57 27.5 95t56.5 59.5t89 31t123 9.5zM444 927l131 -140l-55 -68l-147 94h-8l-164 -94l-48 72l150 136h141
z" />
    <glyph glyph-name="scircumflex" unicode="&#x15d;" horiz-adv-x="548" 
d="M278 514q40 0 87 -3t91.5 -8t73.5 -12l-17 -121h-98h-93q-35 0 -53.5 -0.5t-25.5 -2.5t-8 -7q-1 -7 8.5 -13t40.5 -14l109 -29q41 -11 68 -32t39 -52.5t7 -73.5q-8 -66 -40 -99.5t-85.5 -45.5t-128.5 -12q-31 0 -70.5 1.5t-86 6.5t-99.5 14l17 121h41h62h65q52 0 78 1.5
t35.5 5t10.5 9.5q1 5 -3 8.5t-16 8t-35 10.5l-105 30q-47 14 -73.5 38.5t-35 58.5t-2.5 74q7 44 30 74.5t73.5 47t138.5 16.5zM394 739l131 -140l-55 -68l-147 94h-8l-164 -94l-48 72l150 136h141z" />
    <glyph glyph-name="Scedilla" unicode="&#x15e;" horiz-adv-x="602" 
d="M357 704q58 0 123.5 -8t123.5 -28l-19 -138q-30 1 -70.5 1t-84.5 0.5t-87 0.5q-17 0 -29 -1.5t-20 -4.5t-12.5 -8.5t-6.5 -13.5q-1 -7 1.5 -14t12.5 -14t30 -17l116 -55q57 -27 86 -57t37.5 -68.5t2.5 -89.5q-9 -79 -39 -123.5t-89.5 -62t-159.5 -17.5q-43 0 -116.5 7.5
t-152.5 27.5l20 151q58 -1 107.5 -2.5t83.5 -2t47 -0.5q31 0 48.5 3t26 9.5t10.5 16.5q2 9 -0.5 15t-10.5 11.5t-22 12.5l-126 62q-58 29 -87 61.5t-37 70.5t-3 80q7 57 27.5 95t56.5 59.5t89 31t123 9.5zM175 -53q54 7 95 5.5t62.5 -19t14.5 -59.5q-9 -55 -45 -88.5
t-88.5 -45.5t-114.5 -4l21 77q33 0 62.5 7.5t36.5 38.5q2 10 -7.5 13t-54.5 3z" />
    <glyph glyph-name="scedilla" unicode="&#x15f;" horiz-adv-x="548" 
d="M278 514q40 0 87 -3t91.5 -8t73.5 -12l-17 -121h-98h-93q-35 0 -53.5 -0.5t-25.5 -2.5t-8 -7q-1 -7 8.5 -13t40.5 -14l109 -29q41 -11 68 -32t39 -52.5t7 -73.5q-8 -66 -40 -99.5t-85.5 -45.5t-128.5 -12q-31 0 -70.5 1.5t-86 6.5t-99.5 14l17 121h41h62h65q52 0 78 1.5
t35.5 5t10.5 9.5q1 5 -3 8.5t-16 8t-35 10.5l-105 30q-47 14 -73.5 38.5t-35 58.5t-2.5 74q7 44 30 74.5t73.5 47t138.5 16.5zM146 -49q54 7 95 5.5t62.5 -19t14.5 -59.5q-9 -55 -45 -88.5t-88.5 -45.5t-114.5 -4l21 77q33 0 62.5 7.5t36.5 38.5q2 10 -7.5 13t-54.5 3z" />
    <glyph glyph-name="Scaron" unicode="&#x160;" horiz-adv-x="602" 
d="M357 704q58 0 123.5 -8t123.5 -28l-19 -138q-30 1 -70.5 1t-84.5 0.5t-87 0.5q-17 0 -29 -1.5t-20 -4.5t-12.5 -8.5t-6.5 -13.5q-1 -7 1.5 -14t12.5 -14t30 -17l116 -55q57 -27 86 -57t37.5 -68.5t2.5 -89.5q-9 -79 -39 -123.5t-89.5 -62t-159.5 -17.5q-43 0 -116.5 7.5
t-152.5 27.5l20 151q58 -1 107.5 -2.5t83.5 -2t47 -0.5q31 0 48.5 3t26 9.5t10.5 16.5q2 9 -0.5 15t-10.5 11.5t-22 12.5l-126 62q-58 29 -87 61.5t-37 70.5t-3 80q7 57 27.5 95t56.5 59.5t89 31t123 9.5zM545 943l40 -75l-179 -131h-82l-163 144l58 66l147 -81h8z" />
    <glyph glyph-name="scaron" unicode="&#x161;" horiz-adv-x="548" 
d="M278 514q40 0 87 -3t91.5 -8t73.5 -12l-17 -121h-98h-93q-35 0 -53.5 -0.5t-25.5 -2.5t-8 -7q-1 -7 8.5 -13t40.5 -14l109 -29q41 -11 68 -32t39 -52.5t7 -73.5q-8 -66 -40 -99.5t-85.5 -45.5t-128.5 -12q-31 0 -70.5 1.5t-86 6.5t-99.5 14l17 121h41h62h65q52 0 78 1.5
t35.5 5t10.5 9.5q1 5 -3 8.5t-16 8t-35 10.5l-105 30q-47 14 -73.5 38.5t-35 58.5t-2.5 74q7 44 30 74.5t73.5 47t138.5 16.5zM495 755l40 -75l-179 -131h-82l-163 144l58 66l147 -81h8z" />
    <glyph glyph-name="uni0162" unicode="&#x162;" horiz-adv-x="618" 
d="M473 690l-97 -690h-217l97 690h217zM664 690l-23 -162h-598l23 162h598zM184 -43q54 7 95 5.5t62.5 -19t14.5 -59.5q-9 -55 -45 -88.5t-88.5 -45.5t-114.5 -4l21 77q33 0 62.5 7.5t36.5 38.5q2 10 -7.5 13t-54.5 3z" />
    <glyph glyph-name="uni0163" unicode="&#x163;" horiz-adv-x="439" 
d="M354 631l-65 -453q-3 -19 2.5 -25.5t28.5 -6.5h59l11 -136q-23 -9 -54 -14t-61.5 -7.5t-51.5 -2.5q-76 0 -118 39t-32 105l74 501h207zM455 500l-17 -126h-415l15 121l97 5h320zM140 -52q54 7 95 5.5t62.5 -19t14.5 -59.5q-9 -55 -45 -88.5t-88.5 -45.5t-114.5 -4l21 77
q33 0 62.5 7.5t36.5 38.5q2 10 -7.5 13t-54.5 3z" />
    <glyph glyph-name="Tcaron" unicode="&#x164;" horiz-adv-x="618" 
d="M473 690l-97 -690h-217l97 690h217zM664 690l-23 -162h-598l23 162h598zM550 943l40 -75l-179 -131h-82l-163 144l58 66l147 -81h8z" />
    <glyph glyph-name="tcaron" unicode="&#x165;" horiz-adv-x="439" 
d="M354 631l-65 -453q-3 -19 2.5 -25.5t28.5 -6.5h59l11 -136q-23 -9 -54 -14t-61.5 -7.5t-51.5 -2.5q-76 0 -118 39t-32 105l74 501h207zM455 500l-17 -126h-415l15 121l97 5h320zM481 817q33 0 47 -14.5t9 -49.5l-7 -48q-6 -43 -26.5 -90.5t-45.5 -79.5l-71 27
q12 28 20 54.5t13 54.5q-28 -1 -38 12.5t-6 40.5l6 34q6 34 22 46.5t47 12.5h30z" />
    <glyph glyph-name="Tbar" unicode="&#x166;" horiz-adv-x="618" 
d="M550 381l-13 -94h-450l13 94h450zM473 690l-97 -690h-217l97 690h217zM664 690l-23 -162h-598l23 162h598z" />
    <glyph glyph-name="tbar" unicode="&#x167;" horiz-adv-x="439" 
d="M388 316l-13 -94h-343l13 94h343zM354 631l-65 -453q-3 -19 2.5 -25.5t28.5 -6.5h59l11 -136q-23 -9 -54 -14t-61.5 -7.5t-51.5 -2.5q-76 0 -118 39t-32 105l74 501h207zM455 500l-17 -126h-415l15 121l97 5h320z" />
    <glyph glyph-name="Utilde" unicode="&#x168;" 
d="M710 690l-59 -409q-15 -110 -50.5 -174.5t-102 -92.5t-176.5 -28q-105 0 -171.5 30t-93 96.5t-12.5 176.5l58 401h216l-58 -409q-8 -52 -6 -81.5t19 -41t53 -11.5q38 0 58.5 12.5t31 43.5t19.5 86l57 401h217zM322 920q19 0 41.5 -5.5t44.5 -13.5t41.5 -15t32.5 -10
q26 -6 35 6.5t12 36.5l85 -8q4 -87 -23.5 -126t-71.5 -39q-19 0 -42 5.5t-46 13.5t-42.5 15t-33.5 10q-25 5 -33.5 -7t-12.5 -36l-85 8q-2 86 25.5 125.5t72.5 39.5z" />
    <glyph glyph-name="utilde" unicode="&#x169;" horiz-adv-x="613" 
d="M280 500l-45 -311q-2 -16 5 -21.5t18 -5.5q24 0 47 11t60 39l36 -86q-66 -73 -125 -106.5t-119 -33.5q-78 0 -113.5 37.5t-25.5 106.5l51 370h211zM598 500l-69 -500h-164l-6 134l-19 12l50 354h208zM253 743q19 0 41.5 -5.5t44.5 -13.5t41.5 -15t32.5 -10q26 -6 35 6.5
t12 36.5l85 -8q4 -87 -23.5 -126t-71.5 -39q-19 0 -42 5.5t-46 13.5t-42.5 15t-33.5 10q-25 5 -33.5 -7t-12.5 -36l-85 8q-2 86 25.5 125.5t72.5 39.5z" />
    <glyph glyph-name="Umacron" unicode="&#x16a;" 
d="M710 690l-59 -409q-15 -110 -50.5 -174.5t-102 -92.5t-176.5 -28q-105 0 -171.5 30t-93 96.5t-12.5 176.5l58 401h216l-58 -409q-8 -52 -6 -81.5t19 -41t53 -11.5q38 0 58.5 12.5t31 43.5t19.5 86l57 401h217zM591 895l-17 -123h-320l17 123h320z" />
    <glyph glyph-name="umacron" unicode="&#x16b;" horiz-adv-x="613" 
d="M280 500l-45 -311q-2 -16 5 -21.5t18 -5.5q24 0 47 11t60 39l36 -86q-66 -73 -125 -106.5t-119 -33.5q-78 0 -113.5 37.5t-25.5 106.5l51 370h211zM598 500l-69 -500h-164l-6 134l-19 12l50 354h208zM522 718l-17 -123h-320l17 123h320z" />
    <glyph glyph-name="Ubreve" unicode="&#x16c;" 
d="M710 690l-59 -409q-15 -110 -50.5 -174.5t-102 -92.5t-176.5 -28q-105 0 -171.5 30t-93 96.5t-12.5 176.5l58 401h216l-58 -409q-8 -52 -6 -81.5t19 -41t53 -11.5q38 0 58.5 12.5t31 43.5t19.5 86l57 401h217zM519 920l94 -15q2 -44 -21 -82.5t-66.5 -62t-106.5 -23.5
q-62 0 -103.5 25.5t-57 66t-1.5 84.5l98 5q-5 -31 12.5 -43t60.5 -12q45 0 66.5 15t24.5 42z" />
    <glyph glyph-name="ubreve" unicode="&#x16d;" horiz-adv-x="613" 
d="M280 500l-45 -311q-2 -16 5 -21.5t18 -5.5q24 0 47 11t60 39l36 -86q-66 -73 -125 -106.5t-119 -33.5q-78 0 -113.5 37.5t-25.5 106.5l51 370h211zM598 500l-69 -500h-164l-6 134l-19 12l50 354h208zM450 743l94 -15q2 -44 -21 -82.5t-66.5 -62t-106.5 -23.5
q-62 0 -103.5 25.5t-57 66t-1.5 84.5l98 5q-5 -31 12.5 -43t60.5 -12q45 0 66.5 15t24.5 42z" />
    <glyph glyph-name="Uring" unicode="&#x16e;" 
d="M710 690l-59 -409q-15 -110 -50.5 -174.5t-102 -92.5t-176.5 -28q-105 0 -171.5 30t-93 96.5t-12.5 176.5l58 401h216l-58 -409q-8 -52 -6 -81.5t19 -41t53 -11.5q38 0 58.5 12.5t31 43.5t19.5 86l57 401h217zM432 959q52 0 88 -30.5t36 -80.5q0 -58 -37.5 -94.5
t-96.5 -36.5q-51 0 -87.5 31t-36.5 80q0 58 38 94.5t96 36.5zM428 884q-20 0 -33 -12.5t-13 -35.5q0 -19 12.5 -31.5t30.5 -12.5q22 0 34.5 13.5t12.5 35.5q0 20 -12 31.5t-32 11.5z" />
    <glyph glyph-name="uring" unicode="&#x16f;" horiz-adv-x="613" 
d="M280 500l-45 -311q-2 -16 5 -21.5t18 -5.5q24 0 47 11t60 39l36 -86q-66 -73 -125 -106.5t-119 -33.5q-78 0 -113.5 37.5t-25.5 106.5l51 370h211zM598 500l-69 -500h-164l-6 134l-19 12l50 354h208zM363 782q52 0 88 -30.5t36 -80.5q0 -58 -37.5 -94.5t-96.5 -36.5
q-51 0 -87.5 31t-36.5 80q0 58 38 94.5t96 36.5zM359 707q-20 0 -33 -12.5t-13 -35.5q0 -19 12.5 -31.5t30.5 -12.5q22 0 34.5 13.5t12.5 35.5q0 20 -12 31.5t-32 11.5z" />
    <glyph glyph-name="Uhungarumlaut" unicode="&#x170;" 
d="M710 690l-59 -409q-15 -110 -50.5 -174.5t-102 -92.5t-176.5 -28q-105 0 -171.5 30t-93 96.5t-12.5 176.5l58 401h216l-58 -409q-8 -52 -6 -81.5t19 -41t53 -11.5q38 0 58.5 12.5t31 43.5t19.5 86l57 401h217zM362 968l121 -84l-183 -161l-85 52zM577 968l121 -84
l-184 -161l-84 51z" />
    <glyph glyph-name="uhungarumlaut" unicode="&#x171;" horiz-adv-x="613" 
d="M280 500l-45 -311q-2 -16 5 -21.5t18 -5.5q24 0 47 11t60 39l36 -86q-66 -73 -125 -106.5t-119 -33.5q-78 0 -113.5 37.5t-25.5 106.5l51 370h211zM598 500l-69 -500h-164l-6 134l-19 12l50 354h208zM293 791l121 -84l-183 -161l-85 52zM508 791l121 -84l-184 -161
l-84 51z" />
    <glyph glyph-name="Uogonek" unicode="&#x172;" 
d="M710 690l-59 -409q-15 -110 -50.5 -174.5t-102 -92.5t-176.5 -28q-105 0 -171.5 30t-93 96.5t-12.5 176.5l58 401h216l-58 -409q-8 -52 -6 -81.5t19 -41t53 -11.5q38 0 58.5 12.5t31 43.5t19.5 86l57 401h217zM267 -1l87 -8q-18 -19 -34 -45t-23 -46q-5 -16 2 -22t30 -2
l15 -74q-64 -23 -107.5 -21.5t-67.5 19t-28.5 44.5t9.5 54q12 23 40 48.5t77 52.5z" />
    <glyph glyph-name="uogonek" unicode="&#x173;" horiz-adv-x="613" 
d="M280 500l-45 -311q-2 -16 5 -21.5t18 -5.5q24 0 47 11t60 39l36 -86q-66 -73 -125 -106.5t-119 -33.5q-78 0 -113.5 37.5t-25.5 106.5l51 370h211zM598 500l-69 -500h-164l-6 134l-19 12l50 354h208zM442 8l87 -8q-18 -19 -34 -45t-23 -46q-5 -16 2 -22t30 -2l15 -74
q-64 -23 -107.5 -21.5t-67.5 19t-28.5 44.5t9.5 54q12 23 40 48.5t77 52.5z" />
    <glyph glyph-name="Wcircumflex" unicode="&#x174;" horiz-adv-x="995" 
d="M1030 690l-174 -636q-7 -26 -27 -40t-49 -14h-182q-28 0 -49 18t-20 44l7 369q1 29 2.5 53t2.5 52h-18q-4 -25 -9 -51t-11 -51l-99 -380q-7 -26 -27.5 -40t-48.5 -14h-187q-28 0 -49 18t-20 44l2 628h213l-27 -427q-1 -25 -3.5 -53.5t-4.5 -61.5h17q6 32 13.5 64.5
t14.5 59.5l96 358q16 60 77 60h151q29 0 48 -19.5t19 -48.5v-360q0 -27 -0.5 -57t-1.5 -57h18q3 28 9 62t12 59l92 421h213zM635 927l131 -140l-55 -68l-147 94h-8l-164 -94l-48 72l150 136h141z" />
    <glyph glyph-name="wcircumflex" unicode="&#x175;" horiz-adv-x="925" 
d="M254 501l-8 -371h6q15 0 24.5 16t17.5 50q5 18 9.5 40.5t8.5 50.5q4 22 7.5 47t7.5 53.5t9 60.5q2 17 16.5 34.5t45.5 17.5h172q24 0 40 -15t17 -38l3 -317h7q19 0 25 22t13 56q7 31 11.5 58.5t8.5 55.5q6 39 10.5 81.5t8.5 96.5h208q-4 -35 -9 -70t-11 -69t-14 -67
q-10 -46 -22.5 -88.5t-26.5 -77.5q-18 -45 -42.5 -73.5t-65.5 -41.5t-112 -13h-77q-25 0 -42 16.5t-17 39.5l2 320h-12q-1 -8 -3.5 -27t-6.5 -43.5t-9 -52.5q-3 -19 -7 -39t-8 -38t-8 -34q-18 -68 -47 -98t-68 -37t-90 -7h-110q-25 0 -41 16.5t-18 39.5l-16 445h213z
M572 738l131 -140l-55 -68l-147 94h-8l-164 -94l-48 72l150 136h141z" />
    <glyph glyph-name="Ycircumflex" unicode="&#x176;" horiz-adv-x="649" 
d="M715 690l-298 -485l-208 1l-163 484h216l53 -221q7 -30 7.5 -54t-0.5 -47h15q2 21 10 47.5t20 51.5l117 223h231zM436 328l-45 -328h-218l46 328h217zM464 927l131 -140l-55 -68l-147 94h-8l-164 -94l-48 72l150 136h141z" />
    <glyph glyph-name="ycircumflex" unicode="&#x177;" horiz-adv-x="622" 
d="M629 500q-7 -55 -23.5 -115.5t-37.5 -119.5t-42.5 -110.5t-40 -90t-30.5 -56.5q-47 -74 -105.5 -123.5t-128.5 -72t-155 -18.5l-13 113q36 13 67.5 23t60 26.5t55.5 47t54 84.5q29 57 49.5 117.5t36 132.5t28.5 162h225zM260 500l8 -358q0 -16 16 -16h56l-41 -126h-145
q-25 0 -42 15.5t-20 37.5l-62 447h230zM419 739l131 -140l-55 -68l-147 94h-8l-164 -94l-48 72l150 136h141z" />
    <glyph glyph-name="Ydieresis" unicode="&#x178;" horiz-adv-x="649" 
d="M715 690l-298 -485l-208 1l-163 484h216l53 -221q7 -30 7.5 -54t-0.5 -47h15q2 21 10 47.5t20 51.5l117 223h231zM436 328l-45 -328h-218l46 328h217zM349 904q18 0 25 -8t5 -25l-11 -76q-2 -17 -10 -24.5t-25 -7.5h-81q-34 0 -30 33l11 73q3 19 11.5 27t27.5 8h77z
M538 904q17 0 24.5 -8t5.5 -25l-11 -75q-3 -18 -10.5 -25.5t-24.5 -7.5h-81q-34 0 -30 33l11 74q3 19 11.5 26.5t24.5 7.5h80z" />
    <glyph glyph-name="Zacute" unicode="&#x179;" horiz-adv-x="598" 
d="M344 539l250 -1l-334 -387l-251 1zM549 152l-21 -152h-539l20 152h540zM615 690l-21 -152h-519l21 152h519zM511 962l66 -146l-266 -96l-47 86z" />
    <glyph glyph-name="zacute" unicode="&#x17a;" horiz-adv-x="538" 
d="M265 366l250 -1l-258 -231l-251 1zM486 135l-18 -135h-478l17 135h479zM531 500l-17 -135h-467l18 135h466zM465 774l66 -146l-266 -96l-47 86z" />
    <glyph glyph-name="Zdotaccent" unicode="&#x17b;" horiz-adv-x="598" 
d="M344 539l250 -1l-334 -387l-251 1zM549 152l-21 -152h-539l20 152h540zM615 690l-21 -152h-519l21 152h519zM403 913q27 0 43.5 -14.5t13.5 -44.5l-5 -49q-6 -53 -60 -53h-63q-32 0 -46 15.5t-10 45.5l6 47q4 26 20.5 39.5t41.5 13.5h59z" />
    <glyph glyph-name="zdotaccent" unicode="&#x17c;" horiz-adv-x="538" 
d="M265 366l250 -1l-258 -231l-251 1zM486 135l-18 -135h-478l17 135h479zM531 500l-17 -135h-467l18 135h466zM357 725q27 0 43.5 -14.5t13.5 -44.5l-5 -49q-6 -53 -60 -53h-63q-32 0 -46 15.5t-10 45.5l6 47q4 26 20.5 39.5t41.5 13.5h59z" />
    <glyph glyph-name="Zcaron" unicode="&#x17d;" horiz-adv-x="598" 
d="M344 539l250 -1l-334 -387l-251 1zM549 152l-21 -152h-539l20 152h540zM615 690l-21 -152h-519l21 152h519zM537 943l40 -75l-179 -131h-82l-163 144l58 66l147 -81h8z" />
    <glyph glyph-name="zcaron" unicode="&#x17e;" horiz-adv-x="538" 
d="M265 366l250 -1l-258 -231l-251 1zM486 135l-18 -135h-478l17 135h479zM531 500l-17 -135h-467l18 135h466zM491 755l40 -75l-179 -131h-82l-163 144l58 66l147 -81h8z" />
    <glyph glyph-name="uni018F" unicode="&#x18f;" horiz-adv-x="689" 
d="M305 -14q-116 0 -180 32.5t-85 90t-9 133.5q10 61 38 96.5t72.5 52t101.5 20.5l351 28l-18 -124l-270 -27q-25 -2 -41.5 -10.5t-24.5 -24t-11 -41.5q-1 -16 2.5 -28t13 -20.5t24 -12.5t35.5 -4q44 0 68 16t38 60.5t27 129.5q13 79 11 119.5t-26.5 55.5t-79.5 15
q-27 0 -65.5 -2t-81.5 -5t-83 -8l-19 116q48 23 95 36t94.5 18.5t95.5 5.5q114 0 184 -32t95.5 -111.5t6.5 -223.5q-14 -106 -41 -175t-69.5 -107t-103.5 -53.5t-145 -15.5z" />
    <glyph glyph-name="florin" unicode="&#x192;" horiz-adv-x="501" 
d="M386 704q20 0 49.5 -1.5t59.5 -5t50 -8.5l-43 -125h-56q-23 0 -37.5 -13.5t-21.5 -42.5l-119 -529q-16 -70 -62 -114.5t-141 -44.5q-20 0 -49.5 1.5t-59.5 5t-50 8.5l42 125h56q23 0 38 13.5t21 42.5l119 529q17 71 63.5 115t140.5 44zM458 410l-27 -126h-397l24 111
l101 15h299z" />
    <glyph glyph-name="Ohorn" unicode="&#x1a0;" horiz-adv-x="746" 
d="M389 704q114 0 184 -32t95.5 -111.5t6.5 -223.5q-14 -106 -40.5 -175t-68.5 -107t-102.5 -53.5t-141.5 -15.5q-119 0 -187.5 32.5t-90.5 112.5t-3 222q15 105 41 173.5t67 107.5t100 54.5t140 15.5zM387 543q-36 0 -57.5 -16t-34.5 -60t-27 -130q-12 -79 -11 -120
t18 -55.5t52 -14.5q38 0 59 16t34.5 60.5t26.5 129.5q12 79 11 119.5t-18 55.5t-53 15zM612 539l11 83q39 2 65.5 31t34.5 63l122 -16q-11 -56 -44 -94.5t-82 -55.5t-107 -11z" />
    <glyph glyph-name="ohorn" unicode="&#x1a1;" horiz-adv-x="668" 
d="M327 514q100 0 161.5 -27t84.5 -86.5t9 -159.5q-13 -94 -46.5 -149.5t-95.5 -79.5t-162 -24q-99 0 -161 26.5t-86 85.5t-10 157q14 96 47 152t96 80.5t163 24.5zM323 372q-27 0 -42 -10t-24 -38t-17 -83q-6 -46 -5.5 -70t13 -32.5t38.5 -8.5t40 10t22.5 37.5t16.5 79.5
q7 48 6 72.5t-12 33.5t-36 9zM505 362l11 83q39 2 65.5 31t34.5 63l122 -16q-11 -56 -44 -94.5t-82 -55.5t-107 -11z" />
    <glyph glyph-name="Uhorn" unicode="&#x1af;" horiz-adv-x="801" 
d="M710 690l-59 -409q-15 -110 -50.5 -174.5t-102 -92.5t-176.5 -28q-105 0 -171.5 30t-93 96.5t-12.5 176.5l58 401h216l-58 -409q-8 -52 -6 -81.5t19 -41t53 -11.5q38 0 58.5 12.5t31 43.5t19.5 86l57 401h217zM682 561l11 83q39 2 65.5 31t34.5 63l122 -16
q-11 -56 -44 -94.5t-82 -55.5t-107 -11z" />
    <glyph glyph-name="uhorn" unicode="&#x1b0;" horiz-adv-x="712" 
d="M280 500l-45 -311q-2 -16 5 -21.5t18 -5.5q24 0 47 11t60 39l36 -86q-66 -73 -125 -106.5t-119 -33.5q-78 0 -113.5 37.5t-25.5 106.5l51 370h211zM598 500l-69 -500h-164l-6 134l-19 12l50 354h208zM562 383l11 83q39 2 65.5 31t34.5 63l122 -16q-11 -56 -44 -94.5
t-82 -55.5t-107 -11z" />
    <glyph glyph-name="uni01C4" unicode="&#x1c4;" horiz-adv-x="1292" 
d="M389 700q112 0 182 -31.5t96.5 -110.5t6.5 -221q-15 -103 -39 -171t-64 -106t-101 -54t-149 -16q-91 0 -166 3t-144 7l103 154q34 -4 90 -5.5t114 -1.5q26 0 46 8t35.5 30t27 62.5t19.5 105.5q8 58 9.5 95t-5 58t-23 29t-45.5 8h-71t-62.5 0.5t-56.5 0.5l-84 146
q39 3 84 5.5t95 3.5t102 1zM325 690l-97 -690h-217l97 690h217zM1038 539l250 -1l-334 -387l-251 1zM1243 152l-21 -152h-539l20 152h540zM1309 690l-21 -152h-519l21 152h519zM1231 943l40 -75l-179 -131h-82l-163 144l58 66l147 -81h8z" />
    <glyph glyph-name="uni01C5" unicode="&#x1c5;" horiz-adv-x="1238" 
d="M389 700q112 0 182 -31.5t96.5 -110.5t6.5 -221q-15 -103 -39 -171t-64 -106t-101 -54t-149 -16q-91 0 -166 3t-144 7l103 154q34 -4 90 -5.5t114 -1.5q26 0 46 8t35.5 30t27 62.5t19.5 105.5q8 58 9.5 95t-5 58t-23 29t-45.5 8h-71t-62.5 0.5t-56.5 0.5l-84 146
q39 3 84 5.5t95 3.5t102 1zM325 690l-97 -690h-217l97 690h217zM965 366l250 -1l-258 -231l-251 1zM1186 135l-18 -135h-478l17 135h479zM1231 500l-17 -135h-467l18 135h466zM1191 755l40 -75l-179 -131h-82l-163 144l58 66l147 -81h8z" />
    <glyph glyph-name="uni01C6" unicode="&#x1c6;" horiz-adv-x="1155" 
d="M236 514q82 0 151 -11.5t105 -37.5l-19 -78h-65.5h-80.5q-22 0 -37 -4.5t-24.5 -16.5t-16 -35t-11.5 -61q-4 -36 -6 -60.5t5 -36.5t27 -11q32 2 57.5 18t46.5 32l38 -86q-12 -14 -34.5 -37t-53 -46t-66.5 -39t-77 -16q-62 0 -99.5 30.5t-50.5 92t-1 153.5q10 75 29.5 124
t47 76.5t62 38.5t73.5 11zM631 700l-99 -700h-166l-6 134l-19 11l46 339l9 16q0 25 1.5 51t5.5 54l18 95h210zM882 366l250 -1l-258 -231l-251 1zM1103 135l-18 -135h-478l17 135h479zM1148 500l-17 -135h-467l18 135h466zM1108 755l40 -75l-179 -131h-82l-163 144l58 66
l147 -81h8z" />
    <glyph glyph-name="uni01C7" unicode="&#x1c7;" horiz-adv-x="947" 
d="M323 690l-71 -478q-2 -22 5.5 -31t30.5 -9h228l-4 -163q-69 -9 -157 -11t-174 -2q-50 0 -86 21t-53.5 57.5t-10.5 82.5l74 533h218zM952 690l-78 -567q-10 -67 -59 -102t-125 -35q-25 0 -57 3.5t-60.5 9.5t-44.5 15l34 134h37q32 0 47 10t17 29l73 503h216z" />
    <glyph glyph-name="uni01C8" unicode="&#x1c8;" horiz-adv-x="858" 
d="M323 690l-71 -478q-2 -22 5.5 -31t30.5 -9h228l-4 -163q-69 -9 -157 -11t-174 -2q-50 0 -86 21t-53.5 57.5t-10.5 82.5l74 533h218zM841 500l-65 -446q-6 -52 -30 -100.5t-62.5 -86.5t-89.5 -59l-115 97q43 40 63 77t26 80l63 438h210zM802 729q35 0 49.5 -16t9.5 -50
l-7 -51q-7 -58 -71 -58h-79q-67 0 -60 66l7 51q7 58 72 58h79z" />
    <glyph glyph-name="uni01C9" unicode="&#x1c9;" horiz-adv-x="666" 
d="M311 700l-75 -522q-4 -19 4 -25.5t35 -6.5h40l12 -136q-16 -9 -43.5 -14t-55 -7.5t-44.5 -2.5q-84 0 -127.5 39t-35.5 105l81 570h209zM649 500l-65 -446q-6 -52 -30 -100.5t-62.5 -86.5t-89.5 -59l-115 97q43 40 63 77t26 80l63 438h210zM610 729q35 0 49.5 -16t9.5 -50
l-7 -51q-7 -58 -71 -58h-79q-67 0 -60 66l7 51q7 58 72 58h79z" />
    <glyph glyph-name="uni01CA" unicode="&#x1ca;" horiz-adv-x="1125" 
d="M734 690l-87 -619q-5 -37 -23.5 -54t-55.5 -17h-72q-34 0 -48.5 18t-28.5 49l-118 237q-12 24 -20 53.5t-15 60.5h-7q1 -32 0 -63.5t-6 -64.5l-43 -290h-199l87 619q5 37 23.5 54t55.5 17h72q34 0 48 -18.5t28 -48.5l116 -225q12 -25 22.5 -53.5t19.5 -65.5h8
q-3 34 -2.5 61t4.5 56l42 294h199zM1130 690l-78 -567q-10 -67 -59 -102t-125 -35q-25 0 -57 3.5t-60.5 9.5t-44.5 15l34 134h37q32 0 47 10t17 29l73 503h216z" />
    <glyph glyph-name="uni01CB" unicode="&#x1cb;" horiz-adv-x="1036" 
d="M734 690l-87 -619q-5 -37 -23.5 -54t-55.5 -17h-72q-34 0 -48.5 18t-28.5 49l-118 237q-12 24 -20 53.5t-15 60.5h-7q1 -32 0 -63.5t-6 -64.5l-43 -290h-199l87 619q5 37 23.5 54t55.5 17h72q34 0 48 -18.5t28 -48.5l116 -225q12 -25 22.5 -53.5t19.5 -65.5h8
q-3 34 -2.5 61t4.5 56l42 294h199zM1019 500l-65 -446q-6 -52 -30 -100.5t-62.5 -86.5t-89.5 -59l-115 97q43 40 63 77t26 80l63 438h210zM980 729q35 0 49.5 -16t9.5 -50l-7 -51q-7 -58 -71 -58h-79q-67 0 -60 66l7 51q7 58 72 58h79z" />
    <glyph glyph-name="uni01CC" unicode="&#x1cc;" horiz-adv-x="925" 
d="M460 514q41 0 73 -16t48 -48t9 -80l-52 -370h-211l43 302q3 20 -2 28.5t-25 6.5q-18 -1 -42 -11t-59 -39l-35 87q50 64 118.5 102t134.5 38zM236 500l7 -134l20 -12l-50 -354h-210l69 500h164zM908 500l-65 -446q-6 -52 -30 -100.5t-62.5 -86.5t-89.5 -59l-115 97
q43 40 63 77t26 80l63 438h210zM869 729q35 0 49.5 -16t9.5 -50l-7 -51q-7 -58 -71 -58h-79q-67 0 -60 66l7 51q7 58 72 58h79z" />
    <glyph glyph-name="Gcaron" unicode="&#x1e6;" horiz-adv-x="670" 
d="M420 704q41 0 80.5 -3t77.5 -9.5t73 -17.5l-24 -155q-37 1 -71.5 1t-70.5 0.5t-80 0.5q-33 0 -55.5 -9t-37.5 -30t-25.5 -56.5t-18.5 -88.5q-10 -68 -9 -104t16.5 -49t48.5 -13q31 0 50 8t32 18t23 15l36 -86q-12 -14 -32.5 -37t-50.5 -47t-69.5 -40t-89.5 -16
q-68 0 -115.5 34t-66 114.5t0.5 218.5q15 107 43 175.5t73 107t109.5 53.5t152.5 15zM648 397l-56 -397h-159l-11 107l-16 37l35 253h207zM595 943l40 -75l-179 -131h-82l-163 144l58 66l147 -81h8z" />
    <glyph glyph-name="gcaron" unicode="&#x1e7;" horiz-adv-x="618" 
d="M397 500l205 -18l-55 -392q-13 -98 -44 -157t-75 -88.5t-95.5 -39t-104.5 -9.5q-20 0 -59.5 2t-84 9.5t-79.5 23.5l10 113h29.5h37h59.5q71 0 121 13.5t74 50.5q17 26 22 53t18 52l-33 12zM299 514q67 0 127.5 -5t106.5 -12.5t69 -14.5l-162 -106q-26 1 -50 1h-59
q-25 0 -40.5 -5.5t-24.5 -17.5t-15 -32.5t-11 -51.5q-9 -51 -10 -78.5t7.5 -36.5t25.5 -6q21 4 43.5 21.5t43.5 45.5t35 61l34 -56q-15 -70 -50 -119t-84.5 -75t-111.5 -29q-72 -3 -108.5 29t-44 93.5t5.5 143.5q14 89 38 139.5t58 74t78.5 30t98.5 6.5zM547 761l40 -75
l-179 -131h-82l-163 144l58 66l147 -81h8z" />
    <glyph glyph-name="uni01EA" unicode="&#x1ea;" 
d="M389 704q114 0 184 -32t95.5 -111.5t6.5 -223.5q-14 -106 -40.5 -175t-68.5 -107t-102.5 -53.5t-141.5 -15.5q-119 0 -187.5 32.5t-90.5 112.5t-3 222q15 105 41 173.5t67 107.5t100 54.5t140 15.5zM387 543q-36 0 -57.5 -16t-34.5 -60t-27 -130q-12 -79 -11 -120
t18 -55.5t52 -14.5q38 0 59 16t34.5 60.5t26.5 129.5q12 79 11 119.5t-18 55.5t-53 15zM251 6l87 -8q-18 -19 -34 -45t-23 -46q-5 -16 2 -22t30 -2l15 -74q-64 -23 -107.5 -21.5t-67.5 19t-28.5 44.5t9.5 54q12 23 40 48.5t77 52.5z" />
    <glyph glyph-name="uni01EB" unicode="&#x1eb;" horiz-adv-x="615" 
d="M327 514q100 0 161.5 -27t84.5 -86.5t9 -159.5q-13 -94 -46.5 -149.5t-95.5 -79.5t-162 -24q-99 0 -161 26.5t-86 85.5t-10 157q14 96 47 152t96 80.5t163 24.5zM323 372q-27 0 -42 -10t-24 -38t-17 -83q-6 -46 -5.5 -70t13 -32.5t38.5 -8.5t40 10t22.5 37.5t16.5 79.5
q7 48 6 72.5t-12 33.5t-36 9zM223 8l87 -8q-18 -19 -34 -45t-23 -46q-5 -16 2 -22t30 -2l15 -74q-64 -23 -107.5 -21.5t-67.5 19t-28.5 44.5t9.5 54q12 23 40 48.5t77 52.5z" />
    <glyph glyph-name="Aringacute" unicode="&#x1fa;" horiz-adv-x="678" 
d="M477 630q26 0 45.5 -17t23.5 -43l101 -570h-217l-48 393q-2 20 -2 39t1 38h-28q-3 -16 -7.5 -35.5t-12.5 -39.5l-157 -395h-225l254 578q23 52 76 52h196zM522 254l-18 -158h-363l19 158h362zM398 902q52 0 88 -30.5t36 -80.5q0 -58 -37.5 -94.5t-96.5 -36.5
q-51 0 -87.5 31t-36.5 80q0 58 38 94.5t96 36.5zM394 827q-20 0 -33 -12.5t-13 -35.5q0 -19 12.5 -31.5t30.5 -12.5q22 0 34.5 13.5t12.5 35.5q0 20 -12 31.5t-32 11.5zM467 1122l63 -132l-198 -73l-45 77z" />
    <glyph glyph-name="aringacute" unicode="&#x1fb;" horiz-adv-x="613" 
d="M484 1011l66 -146l-266 -96l-47 86zM354 514q26 0 61.5 -3t72 -8t66 -10.5t43.5 -10.5l-163 -106q-25 1 -48 1h-58q-16 0 -30 -3.5t-25 -14t-20 -32t-14 -57.5q-7 -51 -9.5 -77.5t4.5 -35.5t26 -8q19 2 42 20.5t44 47t34 60.5l34 -56q-15 -73 -48.5 -123.5t-82.5 -77.5
t-113 -32q-72 -5 -108 28t-43 97t6 151q14 89 41.5 139.5t69 74t96.5 30t122 6.5zM392 500l205 -18l-68 -482h-162l-2 109l-27 16zM375 771q52 0 88 -30.5t36 -80.5q0 -58 -37.5 -94.5t-96.5 -36.5q-51 0 -87.5 31t-36.5 80q0 58 38 94.5t96 36.5zM371 696q-20 0 -33 -12.5
t-13 -35.5q0 -19 12.5 -31.5t30.5 -12.5q22 0 34.5 13.5t12.5 35.5q0 20 -12 31.5t-32 11.5z" />
    <glyph glyph-name="AEacute" unicode="&#x1fc;" horiz-adv-x="956" 
d="M623 692q100 0 182 -1.5t172 -9.5l-26 -150h-230q-25 0 -35.5 -8.5t-13.5 -31.5l-43 -292q-2 -19 5.5 -29.5t30.5 -10.5h232l-3 -151q-79 -10 -167 -11t-168 -1q-73 0 -109.5 45.5t-26.5 115.5l48 345q2 14 8 31.5t13 30.5h-11q-6 -11 -14 -27.5t-13 -24.5l-287 -512
h-225l315 538q24 42 52 71.5t68 47.5t99.5 26.5t146.5 8.5zM493 314l-20 -158h-357l20 158h357zM468 420h432l-16 -134h-436zM754 962l66 -146l-266 -96l-47 86z" />
    <glyph glyph-name="aeacute" unicode="&#x1fd;" horiz-adv-x="916" 
d="M305 514q66 1 123.5 -4t100.5 -12.5t65 -15.5l-164 -106q-16 1 -31 1h-32h-41q-18 0 -32 -3.5t-24.5 -14t-18 -32t-12.5 -57.5q-7 -51 -9.5 -77.5t4.5 -35.5t26 -8q18 2 40.5 20.5t43.5 47t32 60.5l34 -56q-15 -73 -48 -123.5t-81 -77.5t-112 -32q-71 -5 -106.5 28
t-42.5 97t5 151q13 89 36.5 139.5t58.5 74t81 30t104 6.5zM655 514q102 0 158.5 -21.5t76 -62.5t10.5 -102q-6 -45 -30.5 -70t-69 -37t-110.5 -17l-261 -20l13 99l192 20q20 2 34 5.5t22.5 12.5t9.5 28q1 11 -2 18t-12.5 10t-28.5 2q-23 0 -38 -5.5t-24 -18t-15 -35.5
t-12 -59q-8 -49 -5.5 -73t20 -31.5t54.5 -7.5q19 0 55 1.5t76 4t70 5.5l13 -128q-35 -16 -74 -26t-79 -14t-80 -4q-112 0 -172.5 31t-80 90.5t-11.5 144.5q8 80 31.5 131t62 79t90.5 39t117 11zM681 774l66 -146l-266 -96l-47 86z" />
    <glyph glyph-name="Oslashacute" unicode="&#x1fe;" 
d="M571 757l58 -27l-484 -801l-58 27zM389 704q114 0 184 -32t95.5 -111.5t6.5 -223.5q-14 -106 -40.5 -175t-68.5 -107t-102.5 -53.5t-141.5 -15.5q-119 0 -187.5 32.5t-90.5 112.5t-3 222q15 105 41 173.5t67 107.5t100 54.5t140 15.5zM387 543q-36 0 -57.5 -16t-34.5 -60
t-27 -130q-12 -79 -11 -120t18 -55.5t52 -14.5q38 0 59 16t34.5 60.5t26.5 129.5q12 79 11 119.5t-18 55.5t-53 15zM568 962l66 -146l-266 -96l-47 86z" />
    <glyph glyph-name="oslashacute" unicode="&#x1ff;" horiz-adv-x="615" 
d="M486 597l47 -22l-402 -668l-47 22zM327 514q100 0 161.5 -27t84.5 -86.5t9 -159.5q-13 -94 -46.5 -149.5t-95.5 -79.5t-162 -24q-99 0 -161 26.5t-86 85.5t-10 157q14 96 47 152t96 80.5t163 24.5zM323 372q-27 0 -42 -10t-24 -38t-17 -83q-6 -46 -5.5 -70t13 -32.5
t38.5 -8.5t40 10t22.5 37.5t16.5 79.5q7 48 6 72.5t-12 33.5t-36 9zM502 774l66 -146l-266 -96l-47 86z" />
    <glyph glyph-name="uni0200" unicode="&#x200;" horiz-adv-x="678" 
d="M489 690q26 0 46 -17t23 -43l89 -630h-217l-36 453q-2 20 -2 39t1 38h-28q-3 -16 -7.5 -35.5t-12.5 -39.5l-169 -455h-225l266 638q10 26 30 39t46 13h196zM522 304l-18 -158h-363l19 158h362zM448 968l147 -193l-85 -52l-183 161zM233 968l147 -194l-84 -51l-184 161z
" />
    <glyph glyph-name="uni0201" unicode="&#x201;" horiz-adv-x="613" 
d="M354 514q26 0 61.5 -3t72 -8t66 -10.5t43.5 -10.5l-163 -106q-25 1 -48 1h-58q-16 0 -30 -3.5t-25 -14t-20 -32t-14 -57.5q-7 -51 -9.5 -77.5t4.5 -35.5t26 -8q19 2 42 20.5t44 47t34 60.5l34 -56q-15 -73 -48.5 -123.5t-82.5 -77.5t-113 -32q-72 -5 -108 28t-43 97
t6 151q14 89 41.5 139.5t69 74t96.5 30t122 6.5zM392 500l205 -18l-68 -482h-162l-2 109l-27 16zM405 780l147 -193l-85 -52l-183 161zM190 780l147 -194l-84 -51l-184 161z" />
    <glyph glyph-name="uni0202" unicode="&#x202;" horiz-adv-x="678" 
d="M489 690q26 0 46 -17t23 -43l89 -630h-217l-36 453q-2 20 -2 39t1 38h-28q-3 -16 -7.5 -35.5t-12.5 -39.5l-169 -455h-225l266 638q10 26 30 39t46 13h196zM522 304l-18 -158h-363l19 158h362zM313 737l-94 15q-1 45 21.5 83t66.5 61.5t106 23.5t103.5 -25.5t57.5 -65.5
t1 -85l-98 -5q5 32 -12.5 43.5t-60.5 11.5q-45 0 -66.5 -15t-24.5 -42z" />
    <glyph glyph-name="uni0203" unicode="&#x203;" horiz-adv-x="613" 
d="M354 514q26 0 61.5 -3t72 -8t66 -10.5t43.5 -10.5l-163 -106q-25 1 -48 1h-58q-16 0 -30 -3.5t-25 -14t-20 -32t-14 -57.5q-7 -51 -9.5 -77.5t4.5 -35.5t26 -8q19 2 42 20.5t44 47t34 60.5l34 -56q-15 -73 -48.5 -123.5t-82.5 -77.5t-113 -32q-72 -5 -108 28t-43 97
t6 151q14 89 41.5 139.5t69 74t96.5 30t122 6.5zM392 500l205 -18l-68 -482h-162l-2 109l-27 16zM270 549l-94 15q-1 45 21.5 83t66.5 61.5t106 23.5t103.5 -25.5t57.5 -65.5t1 -85l-98 -5q5 32 -12.5 43.5t-60.5 11.5q-45 0 -66.5 -15t-24.5 -42z" />
    <glyph glyph-name="uni0204" unicode="&#x204;" horiz-adv-x="587" 
d="M259 694q61 0 123.5 -1t120.5 -3.5t104 -9.5l-24 -152h-240q-25 0 -36.5 -8.5t-14.5 -31.5l-40 -287q-3 -19 6 -29t31 -10h240l-4 -154q-48 -7 -106 -9t-118 -2.5t-114 -0.5q-85 0 -125 53t-30 135l50 357q10 70 55.5 111.5t121.5 41.5zM85 425h447l-18 -144h-452z
M430 968l147 -193l-85 -52l-183 161zM215 968l147 -194l-84 -51l-184 161z" />
    <glyph glyph-name="uni0205" unicode="&#x205;" horiz-adv-x="590" 
d="M326 514q104 0 161 -21.5t76.5 -62.5t10.5 -102q-6 -45 -31 -70t-69.5 -37t-112.5 -17l-266 -20l13 99l198 20q21 2 35 5.5t22.5 12.5t10.5 28q1 11 -2 18t-13 10t-31 2q-21 0 -35 -5.5t-23 -18t-15.5 -35.5t-12.5 -59q-8 -49 -5.5 -73t19.5 -31.5t51 -7.5q21 0 57.5 1.5
t77 4t70.5 5.5l14 -128q-35 -16 -75 -26t-81 -14t-81 -4q-114 0 -175 31t-81 90.5t-12 144.5q8 80 32 131t62 79t91 39t120 11zM396 780l147 -193l-85 -52l-183 161zM181 780l147 -194l-84 -51l-184 161z" />
    <glyph glyph-name="uni0206" unicode="&#x206;" horiz-adv-x="587" 
d="M259 694q61 0 123.5 -1t120.5 -3.5t104 -9.5l-24 -152h-240q-25 0 -36.5 -8.5t-14.5 -31.5l-40 -287q-3 -19 6 -29t31 -10h240l-4 -154q-48 -7 -106 -9t-118 -2.5t-114 -0.5q-85 0 -125 53t-30 135l50 357q10 70 55.5 111.5t121.5 41.5zM85 425h447l-18 -144h-452z
M295 737l-94 15q-1 45 21.5 83t66.5 61.5t106 23.5t103.5 -25.5t57.5 -65.5t1 -85l-98 -5q5 32 -12.5 43.5t-60.5 11.5q-45 0 -66.5 -15t-24.5 -42z" />
    <glyph glyph-name="uni0207" unicode="&#x207;" horiz-adv-x="590" 
d="M326 514q104 0 161 -21.5t76.5 -62.5t10.5 -102q-6 -45 -31 -70t-69.5 -37t-112.5 -17l-266 -20l13 99l198 20q21 2 35 5.5t22.5 12.5t10.5 28q1 11 -2 18t-13 10t-31 2q-21 0 -35 -5.5t-23 -18t-15.5 -35.5t-12.5 -59q-8 -49 -5.5 -73t19.5 -31.5t51 -7.5q21 0 57.5 1.5
t77 4t70.5 5.5l14 -128q-35 -16 -75 -26t-81 -14t-81 -4q-114 0 -175 31t-81 90.5t-12 144.5q8 80 32 131t62 79t91 39t120 11zM261 549l-94 15q-1 45 21.5 83t66.5 61.5t106 23.5t103.5 -25.5t57.5 -65.5t1 -85l-98 -5q5 32 -12.5 43.5t-60.5 11.5q-45 0 -66.5 -15
t-24.5 -42z" />
    <glyph glyph-name="uni0208" unicode="&#x208;" horiz-adv-x="322" 
d="M325 690l-97 -690h-216l97 690h216zM275 968l147 -193l-85 -52l-183 161zM60 968l147 -194l-84 -51l-184 161z" />
    <glyph glyph-name="uni0209" unicode="&#x209;" horiz-adv-x="306" 
d="M288 500l-70 -500h-211l70 500h211zM238 780l147 -193l-85 -52l-183 161zM23 780l147 -194l-84 -51l-184 161z" />
    <glyph glyph-name="uni020A" unicode="&#x20a;" horiz-adv-x="322" 
d="M325 690l-97 -690h-216l97 690h216zM140 737l-94 15q-1 45 21.5 83t66.5 61.5t106 23.5t103.5 -25.5t57.5 -65.5t1 -85l-98 -5q5 32 -12.5 43.5t-60.5 11.5q-45 0 -66.5 -15t-24.5 -42z" />
    <glyph glyph-name="uni020B" unicode="&#x20b;" horiz-adv-x="306" 
d="M288 500l-70 -500h-211l70 500h211zM103 549l-94 15q-1 45 21.5 83t66.5 61.5t106 23.5t103.5 -25.5t57.5 -65.5t1 -85l-98 -5q5 32 -12.5 43.5t-60.5 11.5q-45 0 -66.5 -15t-24.5 -42z" />
    <glyph glyph-name="uni020C" unicode="&#x20c;" 
d="M389 704q114 0 184 -32t95.5 -111.5t6.5 -223.5q-14 -106 -40.5 -175t-68.5 -107t-102.5 -53.5t-141.5 -15.5q-119 0 -187.5 32.5t-90.5 112.5t-3 222q15 105 41 173.5t67 107.5t100 54.5t140 15.5zM387 543q-36 0 -57.5 -16t-34.5 -60t-27 -130q-12 -79 -11 -120
t18 -55.5t52 -14.5q38 0 59 16t34.5 60.5t26.5 129.5q12 79 11 119.5t-18 55.5t-53 15zM462 968l147 -193l-85 -52l-183 161zM247 968l147 -194l-84 -51l-184 161z" />
    <glyph glyph-name="uni020D" unicode="&#x20d;" horiz-adv-x="615" 
d="M327 514q100 0 161.5 -27t84.5 -86.5t9 -159.5q-13 -94 -46.5 -149.5t-95.5 -79.5t-162 -24q-99 0 -161 26.5t-86 85.5t-10 157q14 96 47 152t96 80.5t163 24.5zM323 372q-27 0 -42 -10t-24 -38t-17 -83q-6 -46 -5.5 -70t13 -32.5t38.5 -8.5t40 10t22.5 37.5t16.5 79.5
q7 48 6 72.5t-12 33.5t-36 9zM396 780l147 -193l-85 -52l-183 161zM181 780l147 -194l-84 -51l-184 161z" />
    <glyph glyph-name="uni020E" unicode="&#x20e;" 
d="M389 704q114 0 184 -32t95.5 -111.5t6.5 -223.5q-14 -106 -40.5 -175t-68.5 -107t-102.5 -53.5t-141.5 -15.5q-119 0 -187.5 32.5t-90.5 112.5t-3 222q15 105 41 173.5t67 107.5t100 54.5t140 15.5zM387 543q-36 0 -57.5 -16t-34.5 -60t-27 -130q-12 -79 -11 -120
t18 -55.5t52 -14.5q38 0 59 16t34.5 60.5t26.5 129.5q12 79 11 119.5t-18 55.5t-53 15zM327 737l-94 15q-1 45 21.5 83t66.5 61.5t106 23.5t103.5 -25.5t57.5 -65.5t1 -85l-98 -5q5 32 -12.5 43.5t-60.5 11.5q-45 0 -66.5 -15t-24.5 -42z" />
    <glyph glyph-name="uni020F" unicode="&#x20f;" horiz-adv-x="615" 
d="M327 514q100 0 161.5 -27t84.5 -86.5t9 -159.5q-13 -94 -46.5 -149.5t-95.5 -79.5t-162 -24q-99 0 -161 26.5t-86 85.5t-10 157q14 96 47 152t96 80.5t163 24.5zM323 372q-27 0 -42 -10t-24 -38t-17 -83q-6 -46 -5.5 -70t13 -32.5t38.5 -8.5t40 10t22.5 37.5t16.5 79.5
q7 48 6 72.5t-12 33.5t-36 9zM261 549l-94 15q-1 45 21.5 83t66.5 61.5t106 23.5t103.5 -25.5t57.5 -65.5t1 -85l-98 -5q5 32 -12.5 43.5t-60.5 11.5q-45 0 -66.5 -15t-24.5 -42z" />
    <glyph glyph-name="uni0210" unicode="&#x210;" horiz-adv-x="669" 
d="M387 700q96 0 160 -20t92 -67.5t17 -130.5q-5 -39 -20.5 -72.5t-47.5 -55.5t-88 -28l-1 -7q17 -2 36.5 -12.5t35 -33.5t19.5 -65l26 -208h-224l-18 209q-1 29 -9 36t-31 7q-77 1 -125 1t-80.5 1t-63.5 3l16 148h274q30 0 46.5 6t25 23.5t13.5 49.5q4 24 0 38t-17 19.5
t-38 5.5q-107 0 -178.5 -1.5t-96.5 -4.5l-2 149q45 5 84.5 7t85.5 2.5t109 0.5zM320 690l-97 -690h-212l97 690h212zM443 968l147 -193l-85 -52l-183 161zM228 968l147 -194l-84 -51l-184 161z" />
    <glyph glyph-name="uni0211" unicode="&#x211;" horiz-adv-x="452" 
d="M237 500l10 -102l19 -12l-52 -386h-211l70 500h164zM479 514l-43 -192h-47q-27 0 -60 -3t-87 -12l-8 117q55 47 108 68.5t101 21.5h36zM335 780l147 -193l-85 -52l-183 161zM120 780l147 -194l-84 -51l-184 161z" />
    <glyph glyph-name="uni0212" unicode="&#x212;" horiz-adv-x="669" 
d="M387 700q96 0 160 -20t92 -67.5t17 -130.5q-5 -39 -20.5 -72.5t-47.5 -55.5t-88 -28l-1 -7q17 -2 36.5 -12.5t35 -33.5t19.5 -65l26 -208h-224l-18 209q-1 29 -9 36t-31 7q-77 1 -125 1t-80.5 1t-63.5 3l16 148h274q30 0 46.5 6t25 23.5t13.5 49.5q4 24 0 38t-17 19.5
t-38 5.5q-107 0 -178.5 -1.5t-96.5 -4.5l-2 149q45 5 84.5 7t85.5 2.5t109 0.5zM320 690l-97 -690h-212l97 690h212zM308 737l-94 15q-1 45 21.5 83t66.5 61.5t106 23.5t103.5 -25.5t57.5 -65.5t1 -85l-98 -5q5 32 -12.5 43.5t-60.5 11.5q-45 0 -66.5 -15t-24.5 -42z" />
    <glyph glyph-name="uni0213" unicode="&#x213;" horiz-adv-x="452" 
d="M237 500l10 -102l19 -12l-52 -386h-211l70 500h164zM479 514l-43 -192h-47q-27 0 -60 -3t-87 -12l-8 117q55 47 108 68.5t101 21.5h36zM200 549l-94 15q-1 45 21.5 83t66.5 61.5t106 23.5t103.5 -25.5t57.5 -65.5t1 -85l-98 -5q5 32 -12.5 43.5t-60.5 11.5
q-45 0 -66.5 -15t-24.5 -42z" />
    <glyph glyph-name="uni0214" unicode="&#x214;" 
d="M710 690l-59 -409q-15 -110 -50.5 -174.5t-102 -92.5t-176.5 -28q-105 0 -171.5 30t-93 96.5t-12.5 176.5l58 401h216l-58 -409q-8 -52 -6 -81.5t19 -41t53 -11.5q38 0 58.5 12.5t31 43.5t19.5 86l57 401h217zM462 968l147 -193l-85 -52l-183 161zM247 968l147 -194
l-84 -51l-184 161z" />
    <glyph glyph-name="uni0215" unicode="&#x215;" horiz-adv-x="613" 
d="M280 500l-45 -311q-2 -16 5 -21.5t18 -5.5q24 0 47 11t60 39l36 -86q-66 -73 -125 -106.5t-119 -33.5q-78 0 -113.5 37.5t-25.5 106.5l51 370h211zM598 500l-69 -500h-164l-6 134l-19 12l50 354h208zM393 791l147 -193l-85 -52l-183 161zM178 791l147 -194l-84 -51
l-184 161z" />
    <glyph glyph-name="uni0216" unicode="&#x216;" 
d="M710 690l-59 -409q-15 -110 -50.5 -174.5t-102 -92.5t-176.5 -28q-105 0 -171.5 30t-93 96.5t-12.5 176.5l58 401h216l-58 -409q-8 -52 -6 -81.5t19 -41t53 -11.5q38 0 58.5 12.5t31 43.5t19.5 86l57 401h217zM327 737l-94 15q-1 45 21.5 83t66.5 61.5t106 23.5
t103.5 -25.5t57.5 -65.5t1 -85l-98 -5q5 32 -12.5 43.5t-60.5 11.5q-45 0 -66.5 -15t-24.5 -42z" />
    <glyph glyph-name="uni0217" unicode="&#x217;" horiz-adv-x="613" 
d="M280 500l-45 -311q-2 -16 5 -21.5t18 -5.5q24 0 47 11t60 39l36 -86q-66 -73 -125 -106.5t-119 -33.5q-78 0 -113.5 37.5t-25.5 106.5l51 370h211zM598 500l-69 -500h-164l-6 134l-19 12l50 354h208zM258 560l-94 15q-1 45 21.5 83t66.5 61.5t106 23.5t103.5 -25.5
t57.5 -65.5t1 -85l-98 -5q5 32 -12.5 43.5t-60.5 11.5q-45 0 -66.5 -15t-24.5 -42z" />
    <glyph glyph-name="uni0218" unicode="&#x218;" horiz-adv-x="602" 
d="M279 -48q36 0 51 -13t10 -44l-8 -48q-5 -26 -16.5 -55.5t-28.5 -56.5t-37 -46l-77 24q14 25 22.5 51.5t16.5 51.5q-30 -1 -40.5 11t-6.5 37l6 35q6 31 23.5 42t52.5 11h32zM357 704q58 0 123.5 -8t123.5 -28l-19 -138q-30 1 -70.5 1t-84.5 0.5t-87 0.5q-17 0 -29 -1.5
t-20 -4.5t-12.5 -8.5t-6.5 -13.5q-1 -7 1.5 -14t12.5 -14t30 -17l116 -55q57 -27 86 -57t37.5 -68.5t2.5 -89.5q-9 -79 -39 -123.5t-89.5 -62t-159.5 -17.5q-43 0 -116.5 7.5t-152.5 27.5l20 151q58 -1 107.5 -2.5t83.5 -2t47 -0.5q31 0 48.5 3t26 9.5t10.5 16.5
q2 9 -0.5 15t-10.5 11.5t-22 12.5l-126 62q-58 29 -87 61.5t-37 70.5t-3 80q7 57 27.5 95t56.5 59.5t89 31t123 9.5z" />
    <glyph glyph-name="uni0219" unicode="&#x219;" horiz-adv-x="548" 
d="M245 -43q36 0 51 -13t10 -44l-8 -48q-5 -26 -16.5 -55.5t-28.5 -56.5t-37 -46l-77 24q14 25 22.5 51.5t16.5 51.5q-30 -1 -40.5 11t-6.5 37l6 35q6 31 23.5 42t52.5 11h32zM278 514q40 0 87 -3t91.5 -8t73.5 -12l-17 -121h-98h-93q-35 0 -53.5 -0.5t-25.5 -2.5t-8 -7
q-1 -7 8.5 -13t40.5 -14l109 -29q41 -11 68 -32t39 -52.5t7 -73.5q-8 -66 -40 -99.5t-85.5 -45.5t-128.5 -12q-31 0 -70.5 1.5t-86 6.5t-99.5 14l17 121h41h62h65q52 0 78 1.5t35.5 5t10.5 9.5q1 5 -3 8.5t-16 8t-35 10.5l-105 30q-47 14 -73.5 38.5t-35 58.5t-2.5 74
q7 44 30 74.5t73.5 47t138.5 16.5z" />
    <glyph glyph-name="uni021A" unicode="&#x21a;" horiz-adv-x="618" 
d="M265 -38q36 0 51 -13t10 -44l-8 -48q-5 -26 -16.5 -55.5t-28.5 -56.5t-37 -46l-77 24q14 25 22.5 51.5t16.5 51.5q-30 -1 -40.5 11t-6.5 37l6 35q6 31 23.5 42t52.5 11h32zM473 690l-97 -690h-217l97 690h217zM664 690l-23 -162h-598l23 162h598z" />
    <glyph glyph-name="uni021B" unicode="&#x21b;" horiz-adv-x="439" 
d="M212 -43q36 0 51 -13t10 -44l-8 -48q-5 -26 -16.5 -55.5t-28.5 -56.5t-37 -46l-77 24q14 25 22.5 51.5t16.5 51.5q-30 -1 -40.5 11t-6.5 37l6 35q6 31 23.5 42t52.5 11h32zM354 631l-65 -453q-3 -19 2.5 -25.5t28.5 -6.5h59l11 -136q-23 -9 -54 -14t-61.5 -7.5
t-51.5 -2.5q-76 0 -118 39t-32 105l74 501h207zM455 500l-17 -126h-415l15 121l97 5h320z" />
    <glyph glyph-name="uni022A" unicode="&#x22a;" 
d="M389 704q114 0 184 -32t95.5 -111.5t6.5 -223.5q-14 -106 -40.5 -175t-68.5 -107t-102.5 -53.5t-141.5 -15.5q-119 0 -187.5 32.5t-90.5 112.5t-3 222q15 105 41 173.5t67 107.5t100 54.5t140 15.5zM387 543q-36 0 -57.5 -16t-34.5 -60t-27 -130q-12 -79 -11 -120
t18 -55.5t52 -14.5q38 0 59 16t34.5 60.5t26.5 129.5q12 79 11 119.5t-18 55.5t-53 15zM376 879q32 0 27 -30l-10 -69q-2 -16 -8.5 -23t-22.5 -7h-74q-31 0 -27 30l10 67q2 17 10 24.5t25 7.5h70zM548 879q16 0 22.5 -7.5t4.5 -22.5l-10 -69q-2 -16 -9 -23t-23 -7h-73
q-31 0 -27 30l10 68q4 31 32 31h73zM592 1034l-16 -111h-291l16 111h291z" />
    <glyph glyph-name="uni022B" unicode="&#x22b;" horiz-adv-x="615" 
d="M327 514q100 0 161.5 -27t84.5 -86.5t9 -159.5q-13 -94 -46.5 -149.5t-95.5 -79.5t-162 -24q-99 0 -161 26.5t-86 85.5t-10 157q14 96 47 152t96 80.5t163 24.5zM323 372q-27 0 -42 -10t-24 -38t-17 -83q-6 -46 -5.5 -70t13 -32.5t38.5 -8.5t40 10t22.5 37.5t16.5 79.5
q7 48 6 72.5t-12 33.5t-36 9zM310 691q32 0 27 -30l-10 -69q-2 -16 -8.5 -23t-22.5 -7h-74q-31 0 -27 30l10 67q2 17 10 24.5t25 7.5h70zM482 691q16 0 22.5 -7.5t4.5 -22.5l-10 -69q-2 -16 -9 -23t-23 -7h-73q-31 0 -27 30l10 68q4 31 32 31h73zM526 846l-16 -111h-291
l16 111h291z" />
    <glyph glyph-name="uni022C" unicode="&#x22c;" 
d="M389 704q114 0 184 -32t95.5 -111.5t6.5 -223.5q-14 -106 -40.5 -175t-68.5 -107t-102.5 -53.5t-141.5 -15.5q-119 0 -187.5 32.5t-90.5 112.5t-3 222q15 105 41 173.5t67 107.5t100 54.5t140 15.5zM387 543q-36 0 -57.5 -16t-34.5 -60t-27 -130q-12 -79 -11 -120
t18 -55.5t52 -14.5q38 0 59 16t34.5 60.5t26.5 129.5q12 79 11 119.5t-18 55.5t-53 15zM319 900q19 0 41.5 -5.5t44.5 -13.5t41.5 -15t32.5 -10q26 -6 35 6.5t12 36.5l85 -8q4 -87 -23.5 -126t-71.5 -39q-19 0 -42 5.5t-46 13.5t-42.5 15t-33.5 10q-25 5 -33.5 -7t-12.5 -36
l-85 8q-2 86 25.5 125.5t72.5 39.5zM589 1060l-16 -111h-291l16 111h291z" />
    <glyph glyph-name="uni022D" unicode="&#x22d;" horiz-adv-x="615" 
d="M327 514q100 0 161.5 -27t84.5 -86.5t9 -159.5q-13 -94 -46.5 -149.5t-95.5 -79.5t-162 -24q-99 0 -161 26.5t-86 85.5t-10 157q14 96 47 152t96 80.5t163 24.5zM323 372q-27 0 -42 -10t-24 -38t-17 -83q-6 -46 -5.5 -70t13 -32.5t38.5 -8.5t40 10t22.5 37.5t16.5 79.5
q7 48 6 72.5t-12 33.5t-36 9zM253 712q19 0 41.5 -5.5t44.5 -13.5t41.5 -15t32.5 -10q26 -6 35 6.5t12 36.5l85 -8q4 -87 -23.5 -126t-71.5 -39q-19 0 -42 5.5t-46 13.5t-42.5 15t-33.5 10q-25 5 -33.5 -7t-12.5 -36l-85 8q-2 86 25.5 125.5t72.5 39.5zM523 872l-16 -111
h-291l16 111h291z" />
    <glyph glyph-name="uni0230" unicode="&#x230;" 
d="M389 704q114 0 184 -32t95.5 -111.5t6.5 -223.5q-14 -106 -40.5 -175t-68.5 -107t-102.5 -53.5t-141.5 -15.5q-119 0 -187.5 32.5t-90.5 112.5t-3 222q15 105 41 173.5t67 107.5t100 54.5t140 15.5zM387 543q-36 0 -57.5 -16t-34.5 -60t-27 -130q-12 -79 -11 -120
t18 -55.5t52 -14.5q38 0 59 16t34.5 60.5t26.5 129.5q12 79 11 119.5t-18 55.5t-53 15zM598 1043l-16 -111h-291l16 111h291zM455 891q25 0 40 -13.5t12 -40.5l-5 -44q-6 -49 -54 -49h-58q-59 0 -51 56l6 43q6 48 56 48h54z" />
    <glyph glyph-name="uni0231" unicode="&#x231;" horiz-adv-x="615" 
d="M327 514q100 0 161.5 -27t84.5 -86.5t9 -159.5q-13 -94 -46.5 -149.5t-95.5 -79.5t-162 -24q-99 0 -161 26.5t-86 85.5t-10 157q14 96 47 152t96 80.5t163 24.5zM323 372q-27 0 -42 -10t-24 -38t-17 -83q-6 -46 -5.5 -70t13 -32.5t38.5 -8.5t40 10t22.5 37.5t16.5 79.5
q7 48 6 72.5t-12 33.5t-36 9zM532 855l-16 -111h-291l16 111h291zM389 703q25 0 40 -13.5t12 -40.5l-5 -44q-6 -49 -54 -49h-58q-59 0 -51 56l6 43q6 48 56 48h54z" />
    <glyph glyph-name="uni0232" unicode="&#x232;" horiz-adv-x="649" 
d="M715 690l-298 -485l-208 1l-163 484h216l53 -221q7 -30 7.5 -54t-0.5 -47h15q2 21 10 47.5t20 51.5l117 223h231zM436 328l-45 -328h-218l46 328h217zM562 895l-17 -123h-320l17 123h320z" />
    <glyph glyph-name="uni0233" unicode="&#x233;" horiz-adv-x="622" 
d="M629 500q-7 -55 -23.5 -115.5t-37.5 -119.5t-42.5 -110.5t-40 -90t-30.5 -56.5q-47 -74 -105.5 -123.5t-128.5 -72t-155 -18.5l-13 113q36 13 67.5 23t60 26.5t55.5 47t54 84.5q29 57 49.5 117.5t36 132.5t28.5 162h225zM260 500l8 -358q0 -16 16 -16h56l-41 -126h-145
q-25 0 -42 15.5t-20 37.5l-62 447h230zM517 707l-17 -123h-320l17 123h320z" />
    <glyph glyph-name="uni0237" unicode="&#x237;" horiz-adv-x="306" 
d="M289 500l-65 -446q-6 -52 -30 -100.5t-62.5 -86.5t-89.5 -59l-115 97q43 40 63 77t26 80l63 438h210z" />
    <glyph glyph-name="uni0259" unicode="&#x259;" horiz-adv-x="590" 
d="M264 -12q-103 0 -160.5 21.5t-77 62.5t-10.5 102q7 45 31.5 70t69.5 37t112 17l266 20l-13 -99l-198 -20q-20 -2 -34.5 -5.5t-23 -12.5t-10.5 -28q-1 -11 2 -18t13.5 -9.5t30.5 -2.5q21 0 35 5.5t23 18t15.5 35.5t12.5 59q8 50 5.5 73.5t-19 31t-51.5 7.5q-20 0 -57 -1.5
t-77 -3.5t-71 -6l-14 128q36 17 75.5 26.5t81 13.5t80.5 4q114 0 175 -31t81.5 -90t11.5 -145q-8 -80 -32 -131t-62 -79t-91 -39t-120 -11z" />
    <glyph glyph-name="uni02B9" unicode="&#x2b9;" horiz-adv-x="300" 
d="M321 750l-113 -228h-120l89 228h144z" />
    <glyph glyph-name="uni02BA" unicode="&#x2ba;" horiz-adv-x="479" 
d="M500 750l-113 -228h-120l89 228h144zM321 750l-113 -228h-120l89 228h144z" />
    <glyph glyph-name="uni02BB" unicode="&#x2bb;" horiz-adv-x="257" 
d="M150 474q-40 0 -56.5 17.5t-10.5 58.5l9 64q5 35 18 74t32 75t40 61l85 -32q-15 -34 -24.5 -68.5t-18.5 -68.5q33 1 45 -15t7 -49l-7 -46q-6 -41 -25.5 -56t-57.5 -15h-36z" />
    <glyph glyph-name="uni02BE" unicode="&#x2be;" horiz-adv-x="175" 
d="M72 610q20 0 33 13t13 35q0 17 -9.5 28.5t-24.5 14.5l11 75q45 -5 76 -35t31 -75q0 -58 -39 -95t-103 -36z" />
    <glyph glyph-name="uni02BF" unicode="&#x2bf;" horiz-adv-x="175" 
d="M217 701q-20 0 -33 -12.5t-13 -35.5q0 -17 9.5 -28.5t24.5 -14.5l-11 -75q-45 5 -76 35t-31 75q0 58 39 95.5t103 35.5z" />
    <glyph glyph-name="circumflex" unicode="&#x2c6;" horiz-adv-x="477" 
d="M363 742l131 -140l-55 -68l-147 94h-8l-164 -94l-48 72l150 136h141z" />
    <glyph glyph-name="caron" unicode="&#x2c7;" horiz-adv-x="477" 
d="M463 753l40 -75l-179 -131h-82l-163 144l58 66l147 -81h8z" />
    <glyph glyph-name="uni02C8" unicode="&#x2c8;" horiz-adv-x="199" 
d="M201 559l-122 1l32 183h122z" />
    <glyph glyph-name="uni02C9" unicode="&#x2c9;" horiz-adv-x="400" 
d="M425 713l-17 -123h-320l17 123h320z" />
    <glyph glyph-name="uni02CA" unicode="&#x2ca;" horiz-adv-x="392" 
d="M337 753l66 -146l-266 -96l-47 86z" />
    <glyph glyph-name="uni02CB" unicode="&#x2cb;" horiz-adv-x="392" 
d="M167 747l235 -150l-67 -86l-248 106z" />
    <glyph glyph-name="uni02CC" unicode="&#x2cc;" horiz-adv-x="187" 
d="M86 -211l-122 1l32 183h122z" />
    <glyph glyph-name="breve" unicode="&#x2d8;" horiz-adv-x="411" 
d="M352 717l94 -15q2 -44 -21 -82.5t-66.5 -62t-106.5 -23.5q-62 0 -103.5 25.5t-57 66t-1.5 84.5l98 5q-5 -31 12.5 -43t60.5 -12q45 0 66.5 15t24.5 42z" />
    <glyph glyph-name="dotaccent" unicode="&#x2d9;" horiz-adv-x="251" 
d="M215 724q27 0 43.5 -14.5t13.5 -44.5l-5 -49q-6 -53 -60 -53h-63q-32 0 -46 15.5t-10 45.5l6 47q4 26 20.5 39.5t41.5 13.5h59z" />
    <glyph glyph-name="ring" unicode="&#x2da;" horiz-adv-x="318" 
d="M221 776q52 0 88 -30.5t36 -80.5q0 -58 -37.5 -94.5t-96.5 -36.5q-51 0 -87.5 31t-36.5 80q0 58 38 94.5t96 36.5zM217 701q-20 0 -33 -12.5t-13 -35.5q0 -19 12.5 -31.5t30.5 -12.5q22 0 34.5 13.5t12.5 35.5q0 20 -12 31.5t-32 11.5z" />
    <glyph glyph-name="ogonek" unicode="&#x2db;" horiz-adv-x="250" 
d="M99 8l87 -8q-18 -19 -34 -45t-23 -46q-5 -16 2 -22t30 -2l15 -74q-64 -23 -107.5 -21.5t-67.5 19t-28.5 44.5t9.5 54q12 23 40 48.5t77 52.5z" />
    <glyph glyph-name="tilde" unicode="&#x2dc;" horiz-adv-x="460" 
d="M187 724q19 0 41.5 -5.5t44.5 -13.5t41.5 -15t32.5 -10q26 -6 35 6.5t12 36.5l85 -8q4 -87 -23.5 -126t-71.5 -39q-19 0 -42 5.5t-46 13.5t-42.5 15t-33.5 10q-25 5 -33.5 -7t-12.5 -36l-85 8q-2 86 25.5 125.5t72.5 39.5z" />
    <glyph glyph-name="hungarumlaut" unicode="&#x2dd;" horiz-adv-x="547" 
d="M231 756l121 -84l-183 -161l-85 52zM446 756l121 -84l-184 -161l-84 51z" />
    <glyph glyph-name="acutecomb" unicode="&#x301;" horiz-adv-x="0" 
d="M-64 753l66 -146l-266 -96l-47 86z" />
    <glyph glyph-name="uni0302" unicode="&#x302;" horiz-adv-x="0" 
d="M-119 742l131 -140l-55 -68l-147 94h-8l-164 -94l-48 72l150 136h141z" />
    <glyph glyph-name="tildecomb" unicode="&#x303;" horiz-adv-x="0" 
d="M-273 724q19 0 41.5 -5.5t44.5 -13.5t41.5 -15t32.5 -10q26 -6 35 6.5t12 36.5l85 -8q4 -87 -23.5 -126t-71.5 -39q-19 0 -42 5.5t-46 13.5t-42.5 15t-33.5 10q-25 5 -33.5 -7t-12.5 -36l-85 8q-2 86 25.5 125.5t72.5 39.5z" />
    <glyph glyph-name="uni0304" unicode="&#x304;" horiz-adv-x="0" 
d="M25 713l-17 -123h-320l17 123h320z" />
    <glyph glyph-name="uni0306" unicode="&#x306;" horiz-adv-x="0" 
d="M-101 717l94 -15q2 -44 -21 -82.5t-66.5 -62t-106.5 -23.5q-62 0 -103.5 25.5t-57 66t-1.5 84.5l98 5q-5 -31 12.5 -43t60.5 -12q45 0 66.5 15t24.5 42z" />
    <glyph glyph-name="uni0307" unicode="&#x307;" horiz-adv-x="0" 
d="M-60 724q27 0 43.5 -14.5t13.5 -44.5l-5 -49q-6 -53 -60 -53h-63q-32 0 -46 15.5t-10 45.5l6 47q4 26 20.5 39.5t41.5 13.5h59z" />
    <glyph glyph-name="uni0308" unicode="&#x308;" horiz-adv-x="0" 
d="M-212 720q18 0 25 -8t5 -25l-11 -76q-2 -17 -10 -24.5t-25 -7.5h-81q-34 0 -30 33l11 73q3 19 11.5 27t27.5 8h77zM-23 720q17 0 24.5 -8t5.5 -25l-11 -75q-3 -18 -10.5 -25.5t-24.5 -7.5h-81q-34 0 -30 33l11 74q3 19 11.5 26.5t24.5 7.5h80z" />
    <glyph glyph-name="hookabovecomb" unicode="&#x309;" horiz-adv-x="0" 
d="M-174 604q35 5 49.5 19.5t14.5 36.5q0 18 -15.5 20.5t-36.5 -6.5l-5 93q82 28 127.5 5t45.5 -82q0 -74 -47 -121t-127 -52z" />
    <glyph glyph-name="uni030A" unicode="&#x30a;" horiz-adv-x="0" 
d="M-139 776q52 0 88 -30.5t36 -80.5q0 -58 -37.5 -94.5t-96.5 -36.5q-51 0 -87.5 31t-36.5 80q0 58 38 94.5t96 36.5zM-143 701q-20 0 -33 -12.5t-13 -35.5q0 -19 12.5 -31.5t30.5 -12.5q22 0 34.5 13.5t12.5 35.5q0 20 -12 31.5t-32 11.5z" />
    <glyph glyph-name="uni030B" unicode="&#x30b;" horiz-adv-x="0" 
d="M-329 756l121 -84l-183 -161l-85 52zM-114 756l121 -84l-184 -161l-84 51z" />
    <glyph glyph-name="uni030C" unicode="&#x30c;" horiz-adv-x="0" 
d="M-14 753l40 -75l-179 -131h-82l-163 144l58 66l147 -81h8z" />
    <glyph glyph-name="uni030F" unicode="&#x30f;" horiz-adv-x="0" 
d="M-145 756l147 -193l-85 -52l-183 161zM-360 756l147 -194l-84 -51l-184 161z" />
    <glyph glyph-name="uni0311" unicode="&#x311;" horiz-adv-x="0" 
d="M-242 534l-94 15q-1 45 21.5 83t66.5 61.5t106 23.5t103.5 -25.5t57.5 -65.5t1 -85l-98 -5q5 32 -12.5 43.5t-60.5 11.5q-45 0 -66.5 -15t-24.5 -42z" />
    <glyph glyph-name="uni0312" unicode="&#x312;" horiz-adv-x="0" 
d="M-156 498q-30 0 -42.5 13.5t-8.5 44.5l6 39q6 39 22.5 79.5t38.5 69.5l65 -24q-10 -25 -15.5 -46.5t-10.5 -47.5q49 0 40 -49l-5 -26q-6 -30 -20 -41.5t-43 -11.5h-27z" />
    <glyph glyph-name="uni031B" unicode="&#x31b;" horiz-adv-x="0" 
d="M-251 379l11 83q39 2 65.5 31t34.5 63l122 -16q-11 -56 -44 -94.5t-82 -55.5t-107 -11z" />
    <glyph glyph-name="dotbelowcomb" unicode="&#x323;" horiz-adv-x="0" 
d="M-165 -27q27 0 43.5 -14.5t13.5 -44.5l-5 -49q-6 -53 -60 -53h-63q-32 0 -46 15.5t-10 45.5l6 47q3 26 20 39.5t42 13.5h59z" />
    <glyph glyph-name="uni0324" unicode="&#x324;" horiz-adv-x="0" 
d="M-319 -37q18 0 25 -8t5 -25l-11 -76q-2 -17 -10 -24.5t-25 -7.5h-81q-34 0 -30 33l11 73q3 19 11.5 27t27.5 8h77zM-130 -37q17 0 24.5 -8t5.5 -25l-11 -75q-3 -18 -10.5 -25.5t-24.5 -7.5h-81q-34 0 -30 33l11 74q3 19 11.5 26.5t24.5 7.5h80z" />
    <glyph glyph-name="uni0327" unicode="&#x327;" horiz-adv-x="0" 
d="M-243 -33q54 7 95 5.5t62.5 -19t14.5 -59.5q-9 -55 -45 -88.5t-88.5 -45.5t-114.5 -4l21 77q33 0 62.5 7.5t36.5 38.5q2 10 -7.5 13t-54.5 3z" />
    <glyph glyph-name="uni0328" unicode="&#x328;" horiz-adv-x="0" 
d="M-156 8l87 -8q-18 -19 -34 -45t-23 -46q-5 -16 2 -22t30 -2l15 -74q-64 -23 -107.5 -21.5t-67.5 19t-28.5 44.5t9.5 54q12 23 40 48.5t77 52.5z" />
    <glyph glyph-name="uni032E" unicode="&#x32e;" horiz-adv-x="0" 
d="M-168 -41l94 -15q2 -44 -21 -82.5t-66.5 -62t-106.5 -23.5q-62 0 -103.5 25.5t-57 66t-1.5 84.5l98 5q-5 -31 12.5 -43t60.5 -12q45 0 66.5 15t24.5 42z" />
    <glyph glyph-name="uni0331" unicode="&#x331;" horiz-adv-x="0" 
d="M-82 -49l-17 -123h-320l17 123h320z" />
    <glyph glyph-name="uni0394" unicode="&#x394;" horiz-adv-x="708" 
d="M518 690l140 -622l-7 -68h-670l7 68l316 622h214zM388 485q-7 -28 -13.5 -51t-17.5 -46l-114 -236h191l-40 235q-3 23 -4.5 46.5t-1.5 51.5z" />
    <glyph glyph-name="uni03A9" unicode="&#x3a9;" horiz-adv-x="719" 
d="M407 704q164 0 235.5 -75.5t48.5 -235.5q-8 -61 -27 -101.5t-52.5 -74t-88.5 -75.5q23 12 41.5 16t39.5 4h60l-22 -162h-305l18 148q35 30 55.5 59.5t32.5 68t20 94.5q11 72 8 109.5t-20.5 51t-53.5 13.5q-38 0 -60.5 -13t-34.5 -48t-22 -100q-8 -54 -8 -95t10.5 -74.5
t33.5 -65.5l-16 -148h-305l23 162h62q18 0 35 -3t42 -15q-40 42 -65 79t-33 81.5t0 108.5q13 97 51 161.5t110.5 97t186.5 32.5z" />
    <glyph glyph-name="uni03BC" unicode="&#x3bc;" horiz-adv-x="649" 
d="M299 500l-44 -304q-2 -17 3 -25.5t19 -8.5q16 0 36.5 13t39.5 47.5t28 99.5l-23 -230q-26 -40 -55 -63.5t-60 -33t-66 -9.5q-52 0 -85 17t-47.5 49t-7.5 78l51 370h211zM616 500l-48 -338q-4 -24 -0.5 -34.5t19.5 -10.5h40l-7 -102q-30 -10 -74.5 -19t-86.5 -9
q-49 0 -78.5 21.5t-29.5 72.5v3v16l54 400h211zM237 61l-18 -126l-43 -115h-183l56 397z" />
    <glyph glyph-name="pi" unicode="&#x3c0;" horiz-adv-x="658" 
d="M609 501l-70 -501h-210l70 501h210zM318 501l-70 -501h-210l70 501h210zM673 501l-19 -136h-629l19 136h629z" />
    <glyph glyph-name="uni0400" unicode="&#x400;" horiz-adv-x="590" 
d="M262 694q61 0 123.5 -1t120.5 -3.5t104 -9.5l-24 -152h-240q-25 0 -36.5 -8.5t-14.5 -31.5l-40 -287q-3 -19 6 -29t31 -10h240l-4 -154q-48 -7 -106 -9t-118 -2.5t-114 -0.5q-85 0 -125 53t-30 135l50 357q10 70 55.5 111.5t121.5 41.5zM88 425h447l-18 -144h-452z
M230 953l235 -150l-67 -86l-248 106z" />
    <glyph glyph-name="uni0401" unicode="&#x401;" horiz-adv-x="587" 
d="M259 694q61 0 123.5 -1t120.5 -3.5t104 -9.5l-24 -152h-240q-25 0 -36.5 -8.5t-14.5 -31.5l-40 -287q-3 -19 6 -29t31 -10h240l-4 -154q-48 -7 -106 -9t-118 -2.5t-114 -0.5q-85 0 -125 53t-30 135l50 357q10 70 55.5 111.5t121.5 41.5zM85 425h447l-18 -144h-452z
M346 904q18 0 25 -8t5 -25l-11 -76q-2 -17 -10 -24.5t-25 -7.5h-81q-34 0 -30 33l11 73q3 19 11.5 27t27.5 8h77zM535 904q17 0 24.5 -8t5.5 -25l-11 -75q-3 -18 -10.5 -25.5t-24.5 -7.5h-81q-34 0 -30 33l11 74q3 19 11.5 26.5t24.5 7.5h80z" />
    <glyph glyph-name="uni0402" unicode="&#x402;" horiz-adv-x="775" 
d="M663 690l-22 -162h-598l22 162h598zM473 690l-97 -690h-218l97 690h218zM607 454q57 0 94 -21.5t51 -70t1 -130.5q-15 -96 -56.5 -150t-104.5 -76t-144 -22l-12 151q31 7 51.5 20.5t32.5 34t17 49.5q4 21 -0.5 31t-16 13.5t-27.5 3.5q-23 0 -42 -5t-38 -16.5t-41 -30.5
l5 135q34 29 73 47.5t79 27.5t78 9z" />
    <glyph glyph-name="uni0403" unicode="&#x403;" horiz-adv-x="543" 
d="M255 694q57 0 117.5 -1t117 -4t99.5 -10l-24 -151h-215q-24 0 -36 -8.5t-15 -31.5l-69 -488h-217l76 541q10 70 56 111.5t110 41.5zM513 962l66 -146l-266 -96l-47 86z" />
    <glyph glyph-name="uni0404" unicode="&#x404;" horiz-adv-x="604" 
d="M394 702q54 0 117.5 -7t112.5 -21l-25 -157q-37 1 -69 1t-66.5 0.5t-78.5 0.5q-35 0 -56.5 -8.5t-33.5 -29t-19.5 -55.5t-14.5 -89q-9 -68 -7 -104t21 -49t60 -13q68 0 115 1.5t90 6.5l8 -159q-52 -18 -105.5 -25t-127.5 -7q-118 0 -184.5 35.5t-87.5 116t-3 213.5
q18 130 58 206t112 109.5t184 33.5zM92 425h449l-16 -144h-453z" />
    <glyph glyph-name="uni0405" unicode="&#x405;" horiz-adv-x="602" 
d="M357 704q58 0 123.5 -8t123.5 -28l-19 -138q-30 1 -70.5 1t-84.5 0.5t-87 0.5q-17 0 -29 -1.5t-20 -4.5t-12.5 -8.5t-6.5 -13.5q-1 -7 1.5 -14t12.5 -14t30 -17l116 -55q57 -27 86 -57t37.5 -68.5t2.5 -89.5q-9 -79 -39 -123.5t-89.5 -62t-159.5 -17.5q-43 0 -116.5 7.5
t-152.5 27.5l20 151q58 -1 107.5 -2.5t83.5 -2t47 -0.5q31 0 48.5 3t26 9.5t10.5 16.5q2 9 -0.5 15t-10.5 11.5t-22 12.5l-126 62q-58 29 -87 61.5t-37 70.5t-3 80q7 57 27.5 95t56.5 59.5t89 31t123 9.5z" />
    <glyph glyph-name="uni0406" unicode="&#x406;" horiz-adv-x="329" 
d="M328 690l-97 -690h-215l97 690h215z" />
    <glyph glyph-name="uni0407" unicode="&#x407;" horiz-adv-x="322" 
d="M325 690l-97 -690h-216l97 690h216zM191 904q18 0 25 -8t5 -25l-11 -76q-2 -17 -10 -24.5t-25 -7.5h-81q-34 0 -30 33l11 73q3 19 11.5 27t27.5 8h77zM380 904q17 0 24.5 -8t5.5 -25l-11 -75q-3 -18 -10.5 -25.5t-24.5 -7.5h-81q-34 0 -30 33l11 74q3 19 11.5 26.5
t24.5 7.5h80z" />
    <glyph glyph-name="uni0408" unicode="&#x408;" horiz-adv-x="399" 
d="M400 690l-78 -567q-10 -67 -59 -102t-125 -35q-25 0 -57 3.5t-60.5 9.5t-44.5 15l34 134h37q32 0 47 10t17 29l73 503h216z" />
    <glyph glyph-name="uni0409" unicode="&#x409;" horiz-adv-x="996" 
d="M693 690l-19 -142h-226q-27 0 -40 -11.5t-20 -42.5q-7 -34 -15.5 -70.5t-17.5 -73.5t-19 -72t-20 -66t-21 -56q-32 -78 -78.5 -116.5t-102 -47t-117.5 3.5l-8 168q21 3 41 6t38 16t32 44q9 18 17.5 41.5t17.5 53t17.5 64t17.5 74t18 82.5q15 72 60 108.5t123 36.5h322z
M708 690l-97 -690h-214l97 690h214zM720 453q103 0 161 -21.5t77.5 -73.5t6.5 -143q-12 -88 -38 -136.5t-76.5 -67.5t-138.5 -19q-74 0 -127.5 0.5t-97.5 2.5t-90 5l34 145q12 -1 34 -1.5t53.5 -1t70 -0.5h81.5q20 0 33 1.5t22 9t15 25.5t10 51q5 37 4.5 57t-11 28t-39.5 8
h-243l19 131h240z" />
    <glyph glyph-name="uni040A" unicode="&#x40a;" horiz-adv-x="976" 
d="M712 437q83 0 139.5 -18t81.5 -69.5t11 -150.5q-11 -81 -35.5 -126t-73 -63t-131.5 -18q-74 0 -129 0.5t-100 2.5t-91 5l33 145q24 -1 91 -2t154 -1q22 0 35 4t21 20t12 52q4 28 3.5 45t-10.5 25t-37 8h-238l19 141h245zM331 690l-97 -690h-218l97 690h218zM452 437
l-20 -142h-165l19 142h166zM693 690l-97 -690h-213l97 690h213z" />
    <glyph glyph-name="uni040B" unicode="&#x40b;" horiz-adv-x="798" 
d="M663 690l-22 -162h-598l22 162h598zM473 690l-97 -690h-218l97 690h218zM619 464q95 0 128.5 -45.5t22.5 -138.5l-39 -280h-217l34 241q5 30 -6 38t-42 8q-12 0 -26 -1t-30 -5t-37 -14l-17 133q58 33 110 48.5t119 15.5z" />
    <glyph glyph-name="uni040C" unicode="&#x40c;" horiz-adv-x="676" 
d="M708 690l-54 -135t-40.5 -90.5t-39.5 -56t-50.5 -31t-74.5 -16.5l-1 -6q41 -7 67 -17t42.5 -31t27 -58.5t20 -98t22.5 -150.5h-222q-12 99 -19.5 157t-16.5 86t-26 36.5t-50 8.5l13 140q32 0 53 10.5t38.5 38.5t37.5 79.5t48 133.5h225zM330 690l-26 -178
q-5 -40 -18.5 -84.5t-33.5 -73.5q8 -29 12.5 -66t-0.5 -67l-31 -221h-217l97 690h217zM355 428l-19 -140h-115l19 140h115zM563 962l66 -146l-266 -96l-47 86z" />
    <glyph glyph-name="uni040D" unicode="&#x40d;" horiz-adv-x="735" 
d="M734 690l-97 -690h-206l45 309q5 29 12 58.5t17 58.5h-7q-12 -26 -25.5 -54t-30.5 -52l-217 -320h-209l97 690h208l-41 -293q-4 -32 -13 -64.5t-20 -66.5h8q14 31 29 60.5t31 52.5l213 311h206zM297 956l235 -150l-67 -86l-248 106z" />
    <glyph glyph-name="uni040E" unicode="&#x40e;" horiz-adv-x="622" 
d="M682 690l-219 -507q-28 -65 -55.5 -107t-63 -63.5t-88.5 -26.5q-33 -3 -74.5 -1t-80 7t-64.5 9l32 147q40 -1 69 -1t49 2.5t33 10t20 20.5l39 84l38 79l138 347h227zM264 690l31 -329q1 -17 15 -17h34l42 -152h-174q-48 0 -70 28t-27 70l-68 400h217zM476 920l94 -15
q2 -44 -21 -82.5t-66.5 -62t-106.5 -23.5q-62 0 -103.5 25.5t-57 66t-1.5 84.5l98 5q-5 -31 12.5 -43t60.5 -12q45 0 66.5 15t24.5 42z" />
    <glyph glyph-name="uni040F" unicode="&#x40f;" horiz-adv-x="717" 
d="M331 690l-97 -690h-218l97 690h218zM503 142l-19 -142h-338l19 142h338zM716 690l-97 -690h-218l97 690h218zM404 7l-30 -158h-148l14 158h164z" />
    <glyph glyph-name="uni0410" unicode="&#x410;" horiz-adv-x="678" 
d="M489 690q26 0 46 -17t23 -43l89 -630h-217l-36 453q-2 20 -2 39t1 38h-28q-3 -16 -7.5 -35.5t-12.5 -39.5l-169 -455h-225l266 638q10 26 30 39t46 13h196zM522 304l-18 -158h-363l19 158h362z" />
    <glyph glyph-name="uni0411" unicode="&#x411;" horiz-adv-x="643" 
d="M632 690l-38 -155h-286l-76 -535h-217l97 690q65 5 131.5 6.5t132.5 1.5q64 0 127.5 -2t128.5 -6zM351 423q104 0 165 -21t83.5 -69.5t10.5 -132.5q-11 -82 -40.5 -127t-83 -63t-139.5 -18q-77 0 -133.5 0.5t-103 2.5t-95.5 5l34 145q25 -1 95 -2t161 -1q33 0 51 5
t27 22.5t13 54.5q4 29 0.5 43.5t-17 19.5t-42.5 5h-260l16 131h258z" />
    <glyph glyph-name="uni0412" unicode="&#x412;" horiz-adv-x="661" 
d="M395 698q92 0 147.5 -16.5t78 -57.5t12.5 -114q-10 -71 -40 -107t-102 -42l-1 -6q82 -7 111 -56t17 -135q-9 -69 -39 -106.5t-85.5 -51.5t-141.5 -14q-78 0 -135.5 0.5t-105 2.5t-96.5 5l29 145q26 -1 99 -2t167 -1q32 0 50 6.5t27 24t14 51.5q4 28 1 42.5t-15.5 20
t-37.5 5.5h-278l17 131h265q26 0 40 5.5t21.5 21t11.5 45.5q3 20 0.5 31.5t-11.5 16.5t-27 5h-112.5t-85.5 -0.5t-76 -2.5l-2 145q43 4 85 5.5t90 2t108 0.5zM324 690l-97 -690h-212l97 690h212z" />
    <glyph glyph-name="uni0413" unicode="&#x413;" horiz-adv-x="543" 
d="M255 694q57 0 117.5 -1t117 -4t99.5 -10l-24 -151h-215q-24 0 -36 -8.5t-15 -31.5l-69 -488h-217l76 541q10 70 56 111.5t110 41.5z" />
    <glyph glyph-name="uni0414" unicode="&#x414;" horiz-adv-x="790" 
d="M739 690l-97 -690h-216l78 548h-31q-25 0 -41 -11.5t-24 -44.5q-21 -85 -44 -165.5t-55.5 -157t-83.5 -150.5l-239 -15q60 101 98.5 188.5t66 173.5t53.5 179q20 73 68 109t125 36h342zM146 7l-37 -158h-159l22 158h174zM757 142l-18 -142h-768l18 142h768zM740 7
l-22 -158h-157l6 158h173z" />
    <glyph glyph-name="uni0415" unicode="&#x415;" horiz-adv-x="590" 
d="M262 694q61 0 123.5 -1t120.5 -3.5t104 -9.5l-24 -152h-240q-25 0 -36.5 -8.5t-14.5 -31.5l-40 -287q-3 -19 6 -29t31 -10h240l-4 -154q-48 -7 -106 -9t-118 -2.5t-114 -0.5q-85 0 -125 53t-30 135l50 357q10 70 55.5 111.5t121.5 41.5zM88 425h447l-18 -144h-452z" />
    <glyph glyph-name="uni0416" unicode="&#x416;" horiz-adv-x="961" 
d="M301 690q12 -82 18 -133.5t12.5 -79.5t17 -38.5t30.5 -10.5l-10 -140q-19 0 -33.5 -8.5t-31 -36.5t-42.5 -86t-69 -157h-230q40 96 67.5 158.5t49 99.5t43 56.5t49 28t67.5 15.5l1 6q-38 8 -61 19t-36.5 31t-22 54t-16 88t-19.5 134h216zM446 428l-20 -140h-91l20 140h91
zM645 690l-26 -178q-5 -38 -16 -79t-35 -79q11 -29 14 -64t-3 -69l-31 -221h-208l32 229q5 30 19 68t33 73q-10 32 -12.5 72t2.5 78l24 170h207zM649 428l-19 -140h-91l20 140h90zM998 690q-34 -80 -56.5 -134.5t-40.5 -90t-37.5 -56t-47.5 -31t-72 -16.5l-1 -6
q37 -6 59.5 -16t36 -31t23 -59t20 -98.5t26.5 -151.5h-219q-15 99 -22.5 157t-13.5 86t-16.5 36.5t-31.5 8.5l4 140q26 0 42.5 10.5t31.5 38.5t36 79.5t55 133.5h224z" />
    <glyph glyph-name="uni0417" unicode="&#x417;" horiz-adv-x="583" 
d="M327 698q94 0 149.5 -16.5t76 -57.5t9.5 -114q-10 -71 -40 -107t-100 -42l-1 -6q72 -7 99 -56t15 -135q-9 -69 -38 -106.5t-81 -51.5t-132 -14q-68 0 -119 4.5t-93 13t-83 21.5l23 139q74 -12 129.5 -17t95.5 -5q28 0 44.5 7t25.5 23.5t13 45.5q4 28 0.5 41.5t-16 18.5
t-35.5 5h-150l17 137h140q27 0 41 6.5t20 21.5t9 41q3 20 -1.5 30t-16.5 13.5t-32 3.5q-37 0 -69 -1.5t-64.5 -5t-74.5 -8.5l-9 149q56 11 113.5 16.5t134.5 5.5z" />
    <glyph glyph-name="uni0418" unicode="&#x418;" horiz-adv-x="735" 
d="M734 690l-97 -690h-206l45 309q5 29 12 58.5t17 58.5h-7q-12 -26 -25.5 -54t-30.5 -52l-217 -320h-209l97 690h208l-41 -293q-4 -32 -13 -64.5t-20 -66.5h8q14 31 29 60.5t31 52.5l213 311h206z" />
    <glyph glyph-name="uni0419" unicode="&#x419;" horiz-adv-x="735" 
d="M734 690l-97 -690h-206l45 309q5 29 12 58.5t17 58.5h-7q-12 -26 -25.5 -54t-30.5 -52l-217 -320h-209l97 690h208l-41 -293q-4 -32 -13 -64.5t-20 -66.5h8q14 31 29 60.5t31 52.5l213 311h206zM497 910h127q2 -43 -23 -82.5t-71 -65t-108 -25.5q-61 0 -100.5 25.5
t-54 65t-0.5 82.5h127q-13 -46 -0.5 -61.5t41.5 -15.5t45 15.5t17 61.5z" />
    <glyph glyph-name="uni041A" unicode="&#x41a;" horiz-adv-x="676" 
d="M708 690l-54 -135t-40.5 -90.5t-39.5 -56t-50.5 -31t-74.5 -16.5l-1 -6q41 -7 67 -17t42.5 -31t27 -58.5t20 -98t22.5 -150.5h-222q-12 99 -19.5 157t-16.5 86t-26 36.5t-50 8.5l13 140q32 0 53 10.5t38.5 38.5t37.5 79.5t48 133.5h225zM330 690l-26 -178
q-5 -40 -18.5 -84.5t-33.5 -73.5q8 -29 12.5 -66t-0.5 -67l-31 -221h-217l97 690h217zM355 428l-19 -140h-115l19 140h115z" />
    <glyph glyph-name="uni041B" unicode="&#x41b;" horiz-adv-x="711" 
d="M696 690l-19 -142h-233q-31 0 -45 -11.5t-21 -42.5q-7 -34 -15.5 -70.5t-18 -73.5t-19.5 -72t-21 -66t-23 -56q-37 -78 -82 -116.5t-99.5 -47t-117.5 3.5l-8 168q20 3 40 5.5t38.5 15.5t33.5 45q8 17 17 41t17.5 53.5t17.5 64t18.5 74t18.5 82.5q16 72 61.5 108.5
t124.5 36.5h335zM710 690l-97 -690h-217l97 690h217z" />
    <glyph glyph-name="uni041C" unicode="&#x41c;" horiz-adv-x="954" 
d="M860 690q37 0 56 -21t15 -58l-62 -611h-195l54 528h-14l-116 -356q-10 -33 -31 -47.5t-56 -14.5h-110q-34 0 -54.5 18.5t-22.5 51.5l-19 348h-16l-91 -528h-195l111 619q7 37 24.5 54t54.5 17h184q34 0 54 -18.5t21 -52.5l12 -274q2 -25 1 -50.5t-3 -52.5h10
q6 29 12 52.5t13 48.5l84 284q9 34 30.5 48.5t55.5 14.5h193z" />
    <glyph glyph-name="uni041D" unicode="&#x41d;" horiz-adv-x="713" 
d="M330 690l-97 -690h-217l97 690h217zM471 443l-22 -154h-183l21 154h184zM712 690l-97 -690h-217l97 690h217z" />
    <glyph glyph-name="uni041E" unicode="&#x41e;" 
d="M389 704q114 0 184 -32t95.5 -111.5t6.5 -223.5q-14 -106 -40.5 -175t-68.5 -107t-102.5 -53.5t-141.5 -15.5q-119 0 -187.5 32.5t-90.5 112.5t-3 222q15 105 41 173.5t67 107.5t100 54.5t140 15.5zM387 543q-36 0 -57.5 -16t-34.5 -60t-27 -130q-12 -79 -11 -120
t18 -55.5t52 -14.5q38 0 59 16t34.5 60.5t26.5 129.5q12 79 11 119.5t-18 55.5t-53 15z" />
    <glyph glyph-name="uni041F" unicode="&#x41f;" horiz-adv-x="714" 
d="M713 690l-97 -690h-218l97 690h218zM331 690l-97 -690h-218l97 690h218zM507 690l-19 -142h-185l19 142h185z" />
    <glyph glyph-name="uni0420" unicode="&#x420;" horiz-adv-x="642" 
d="M390 700q106 0 167 -21.5t83 -74.5t9 -147q-12 -89 -41.5 -138t-85 -68t-146.5 -19q-51 0 -100.5 5.5t-92 14.5t-72.5 19t-41 18l6 96h141h140q26 0 41 5t23.5 24t13.5 59q4 28 1.5 44t-14.5 23t-37 7q-103 0 -174.5 -1.5t-96.5 -4.5l-2 149q45 5 84 7t84.5 2.5
t109.5 0.5zM328 690l-97 -690h-216l97 690h216z" />
    <glyph glyph-name="uni0421" unicode="&#x421;" horiz-adv-x="603" 
d="M391 702q52 0 90.5 -3t71 -9t65.5 -16l-25 -157q-36 1 -67.5 1t-65.5 0.5t-80 0.5q-27 0 -45 -6t-30.5 -24t-21 -54.5t-16.5 -97.5q-9 -68 -9.5 -104t14.5 -49t52 -13q75 0 124 2t97 6l8 -159q-55 -17 -109 -24.5t-130 -7.5q-115 0 -181.5 34.5t-88.5 114.5t-3 216
q15 104 39.5 172t64 106.5t100 54.5t146.5 16z" />
    <glyph glyph-name="uni0422" unicode="&#x422;" horiz-adv-x="618" 
d="M473 690l-97 -690h-217l97 690h217zM664 690l-23 -162h-598l23 162h598z" />
    <glyph glyph-name="uni0423" unicode="&#x423;" horiz-adv-x="622" 
d="M682 690l-219 -507q-28 -65 -55.5 -107t-63 -63.5t-88.5 -26.5q-33 -3 -74.5 -1t-80 7t-64.5 9l32 147q40 -1 69 -1t49 2.5t33 10t20 20.5l39 84l38 79l138 347h227zM264 690l31 -329q1 -17 15 -17h34l42 -152h-174q-48 0 -70 28t-27 70l-68 400h217z" />
    <glyph glyph-name="uni0424" unicode="&#x424;" horiz-adv-x="876" 
d="M474 634q158 0 249 -26.5t125 -91t18 -179.5q-11 -83 -39.5 -137.5t-80 -86t-132 -44.5t-196.5 -13q-159 0 -250.5 26.5t-124.5 91.5t-18 179q11 83 39.5 137.5t80.5 86t133 44.5t196 13zM476 483q-72 0 -115.5 -5t-66 -19.5t-32.5 -43.5t-16 -78q-6 -43 -3 -69t20 -39.5
t53.5 -17.5t98.5 -4q72 0 115 4.5t66 19t33 44t16 78.5q8 58 -2.5 85.5t-49 36t-117.5 8.5zM606 704l-18 -134l-15 -38l-52 -346l3 -48l-20 -152h-218l20 152l17 48l52 346l-5 38l18 134h218z" />
    <glyph glyph-name="uni0425" unicode="&#x425;" horiz-adv-x="672" 
d="M277 690l95 -358l-188 -332h-230l218 352l-104 338h209zM448 414l-17 -120h-207l17 120h207zM720 690l-204 -338l117 -352h-213l-99 374l178 316h221z" />
    <glyph glyph-name="uni0426" unicode="&#x426;" horiz-adv-x="753" 
d="M331 690l-97 -690h-218l97 690h218zM720 142l-20 -142h-474l19 142h475zM702 690l-97 -690h-217l97 690h217zM528 7l172 -7l-21 -151h-157z" />
    <glyph glyph-name="uni0427" unicode="&#x427;" horiz-adv-x="690" 
d="M308 690l-36 -251q-4 -31 9.5 -39t38.5 -8q17 0 34.5 1t38.5 5t47 14l16 -133q-33 -18 -75.5 -32.5t-82 -22.5t-67.5 -8q-106 0 -150 45.5t-32 138.5l41 290h218zM689 690l-97 -690h-217l97 690h217z" />
    <glyph glyph-name="uni0428" unicode="&#x428;" horiz-adv-x="1015" 
d="M324 690l-97 -690h-211l97 690h211zM772 142l-19 -142h-534l19 142h534zM669 690l-97 -690h-211l97 690h211zM1014 690l-97 -690h-211l97 690h211z" />
    <glyph glyph-name="uni0429" unicode="&#x429;" horiz-adv-x="1066" 
d="M325 690l-97 -690h-212l97 690h212zM1033 142l-20 -142h-793l19 142h794zM670 690l-97 -690h-211l97 690h211zM1016 690l-97 -690h-212l97 690h212zM841 7l172 -7l-21 -151h-157z" />
    <glyph glyph-name="uni042A" unicode="&#x42a;" horiz-adv-x="786" 
d="M507 453q104 0 162.5 -21.5t78.5 -73.5t7 -143q-12 -88 -38.5 -136.5t-77.5 -67.5t-140 -19q-75 0 -130 0.5t-100.5 2.5t-92.5 5l33 145q24 -1 92 -2t156 -1q27 0 43 3t25.5 21.5t14.5 62.5q5 37 4.5 57t-12 28t-41.5 8h-251l18 131h249zM490 690l-97 -690h-217l97 690
h217zM390 690l-22 -162h-327l22 162h327z" />
    <glyph glyph-name="uni042B" unicode="&#x42b;" horiz-adv-x="951" 
d="M346 453q103 0 161.5 -21.5t78.5 -73.5t7 -143q-12 -88 -38 -136.5t-77 -67.5t-139 -19q-75 0 -130.5 0.5t-101 2.5t-91.5 5l34 145q24 -1 91.5 -2t154.5 -1q27 0 43 3t25 21.5t14 62.5q5 37 4.5 57t-11.5 28t-41 8h-250l19 131h247zM330 690l-97 -690h-217l97 690h217z
M950 690l-97 -690h-217l97 690h217z" />
    <glyph glyph-name="uni042C" unicode="&#x42c;" horiz-adv-x="631" 
d="M350 453q104 0 163 -21.5t79.5 -73.5t7.5 -143q-12 -88 -38.5 -136.5t-78.5 -67.5t-141 -19q-76 0 -132 0.5t-101.5 2.5t-92.5 5l33 145q25 -1 93.5 -2t156.5 -1q29 0 45.5 3t26 21.5t14.5 62.5q5 37 4.5 57t-12.5 28t-43 8h-254l19 131h251zM331 690l-98 -690h-217
l98 690h217z" />
    <glyph glyph-name="uni042D" unicode="&#x42d;" horiz-adv-x="602" 
d="M301 702q114 0 181 -35.5t90.5 -115.5t4.5 -214q-17 -129 -55.5 -205.5t-107.5 -110t-178 -33.5q-86 0 -140.5 8t-104.5 26l25 157q47 -5 95.5 -6.5t114.5 -1.5q45 0 69 15.5t37 55t24 111.5q8 51 9.5 83.5t-4.5 50.5t-21 25t-41 7q-48 0 -83.5 -0.5t-66 -0.5t-65.5 -1
l-8 159q53 14 109 20t116 6zM548 425l-20 -144h-449l16 144h453z" />
    <glyph glyph-name="uni042E" unicode="&#x42e;" horiz-adv-x="1017" 
d="M715 704q108 0 176 -35.5t94 -116t7 -215.5q-15 -105 -40.5 -173.5t-66 -107t-101.5 -54.5t-146 -16q-82 0 -138 17t-87.5 58.5t-39 112.5t7.5 179q15 105 39 173.5t63 107t96 54.5t136 16zM331 690l-97 -690h-218l97 690h218zM469 427l-19 -142h-184l20 142h183z
M708 543q-39 0 -60 -16t-33 -60t-24 -130q-11 -78 -9.5 -119t17.5 -56t49 -15q38 0 59 16t34 60.5t24 129.5q11 79 10 119.5t-16.5 55.5t-50.5 15z" />
    <glyph glyph-name="uni042F" unicode="&#x42f;" horiz-adv-x="675" 
d="M375 700q72 0 122 -0.5t91 -2.5t86 -7l-29 -148q-26 3 -100.5 4t-178.5 1q-38 0 -54 -12t-22 -52q-7 -49 5.5 -63.5t52.5 -14.5h253l-11 -151q-24 -1 -45 -1.5t-46 -0.5h-60h-88q-31 0 -46.5 -11.5t-25.5 -39.5l-71 -201h-236l84 216q16 43 40.5 64t50.5 29.5t45 10.5
l1 5q-51 7 -79 34.5t-37 69t-2 89.5q11 76 46.5 115t99 53t154.5 14zM674 690l-97 -690h-218l97 690h218z" />
    <glyph glyph-name="uni0430" unicode="&#x430;" horiz-adv-x="616" 
d="M354 514q26 0 61.5 -3t72 -8t66 -10.5t43.5 -10.5l-163 -106q-25 1 -48 1h-58q-16 0 -30 -3.5t-25 -14t-20 -32t-14 -57.5q-7 -51 -9.5 -77.5t4.5 -35.5t26 -8q19 2 42 20.5t44 47t34 60.5l34 -56q-15 -73 -48.5 -123.5t-82.5 -77.5t-113 -32q-72 -5 -108 28t-43 97
t6 151q14 89 41.5 139.5t69 74t96.5 30t122 6.5zM392 500l205 -18l-68 -482h-162l-2 109l-27 16z" />
    <glyph glyph-name="uni0431" unicode="&#x431;" horiz-adv-x="612" 
d="M584 732l18 -164q-61 -13 -105.5 -14.5t-81.5 -2t-77 -11.5q-23 -6 -40.5 -13t-29.5 -15.5t-21 -17.5q-15 -16 -24 -32.5t-17 -41.5v7q26 21 52 33t55 17t62 5q88 0 136 -25t63 -78.5t3 -139.5t-44 -142t-90.5 -82.5t-151.5 -26.5q-85 0 -138.5 17t-81 47.5t-36.5 72.5
t-6 93t11 108q10 71 24.5 130.5t38.5 106.5t62.5 79.5t96.5 49.5q54 17 104 21.5t103 7t115 11.5zM331 362q-27 0 -44 -9.5t-27 -35.5t-17 -76q-7 -48 -7.5 -72t8 -31.5t29.5 -7.5q26 0 42 10t26.5 37.5t17.5 79.5q7 46 7.5 68t-7.5 29.5t-28 7.5z" />
    <glyph glyph-name="uni0432" unicode="&#x432;" horiz-adv-x="599" 
d="M348 514q62 -3 106 -13.5t71 -29.5t37.5 -45.5t6.5 -60.5q-3 -24 -18 -47t-46 -39t-82 -19l-1 -5q83 -4 115.5 -40.5t21.5 -98.5q-8 -53 -39.5 -81t-86.5 -38.5t-136 -10.5q-91 0 -149 17.5t-89 53t-39 89.5t2 127q9 68 32 115t61.5 76t96 41t136.5 9zM323 378
q-31 0 -47.5 -9.5t-24 -25.5t-10.5 -36.5t-6 -42.5q-6 -43 -9 -70.5t0.5 -43t16.5 -22t39 -6.5t41 3t22.5 12.5t10.5 27.5q3 17 -2 26.5t-18 12.5t-37 2l-89 -5l13 103l82 5q21 1 35 4t22.5 9.5t11.5 18.5q3 14 -0.5 22t-15.5 11.5t-35 3.5z" />
    <glyph glyph-name="uni0433" unicode="&#x433;" horiz-adv-x="552" 
d="M310 514q51 0 93 -7.5t72.5 -25t46.5 -45.5t14 -70q-1 -46 -21 -76.5t-48.5 -48t-55 -26t-41.5 -11.5l-111 -25q-37 -8 -47.5 -13.5t-10.5 -13.5t7.5 -12t28.5 -4t60 2q40 3 72.5 5.5t60.5 5.5t51 6l17 -125q-32 -10 -65 -19.5t-75 -15.5t-100 -6q-89 0 -148.5 17
t-87 53.5t-21.5 96.5q7 66 46 99t102 48l118 28q29 7 48.5 11.5t17.5 17.5q0 6 -6.5 8.5t-22 2.5t-43.5 -1q-15 0 -28 -1l-32.5 -2.5t-52 -4.5t-85.5 -8l-4 117q47 19 114 31t137 12z" />
    <glyph glyph-name="uni0434" unicode="&#x434;" horiz-adv-x="606" 
d="M146 729q103 -8 179.5 -32.5t129.5 -63.5t83.5 -91.5t39.5 -117.5t-1 -141q-11 -85 -35 -142t-62.5 -91t-92 -49t-123.5 -15q-83 0 -141 25t-85 77t-16 134q17 125 77 178t162 53q23 0 50.5 -4t53.5 -17.5t46.5 -39.5t30.5 -70l-11 -78q-12 24 -29 41t-38 26.5t-45 9.5
q-26 0 -41 -10.5t-22.5 -33t-13.5 -57.5q-8 -52 -2.5 -71t40.5 -19q25 0 38.5 15t22 51.5t18.5 101.5q8 51 8.5 92t-11 73.5t-39.5 58t-76.5 44t-122.5 32.5z" />
    <glyph glyph-name="uni0435" unicode="&#x435;" horiz-adv-x="590" 
d="M326 514q104 0 161 -21.5t76.5 -62.5t10.5 -102q-6 -45 -31 -70t-69.5 -37t-112.5 -17l-266 -20l13 99l198 20q21 2 35 5.5t22.5 12.5t10.5 28q1 11 -2 18t-13 10t-31 2q-21 0 -35 -5.5t-23 -18t-15.5 -35.5t-12.5 -59q-8 -49 -5.5 -73t19.5 -31.5t51 -7.5q21 0 57.5 1.5
t77 4t70.5 5.5l14 -128q-35 -16 -75 -26t-81 -14t-81 -4q-114 0 -175 31t-81 90.5t-12 144.5q8 80 32 131t62 79t91 39t120 11z" />
    <glyph glyph-name="uni0436" unicode="&#x436;" horiz-adv-x="853" 
d="M255 500q11 -64 17 -100t12 -52.5t15.5 -20t27.5 -3.5l-7 -130q-19 0 -31 -2.5t-25 -19t-33 -56.5t-55 -116h-213q36 75 58 121.5t38.5 72.5t34 37.5t42.5 16.5t66 11l1 6q-35 5 -56.5 9.5t-34 16t-20.5 35t-16 65.5t-20 109h199zM385 324l-16 -130h-80l17 130h79z
M550 500l-17 -110q-4 -31 -14.5 -68t-30.5 -67q8 -22 12 -50.5t1 -54.5l-18 -150h-184l21 151q3 24 15.5 57.5t28.5 62.5q-10 24 -13.5 54t1.5 68l15 107h183zM559 324l-17 -130h-79l18 130h78zM866 500q-32 -67 -53.5 -110t-37.5 -68t-32.5 -37t-38 -16t-55.5 -6l-1 -6
q30 -6 50.5 -11.5t34.5 -17t24.5 -37t22 -71.5t26.5 -120h-200q-15 74 -23.5 114.5t-15.5 57t-16.5 19.5t-27.5 3l2 130q20 0 32.5 3t24 19t28.5 52t46 102h210z" />
    <glyph glyph-name="uni0437" unicode="&#x437;" horiz-adv-x="532" 
d="M264 514q88 0 143.5 -10.5t79 -41.5t14.5 -94q-6 -46 -31.5 -74.5t-92.5 -33.5l-1 -5q65 -4 91.5 -39t17.5 -99q-8 -60 -38 -87.5t-81.5 -35.5t-125.5 -8q-66 0 -129.5 5t-125.5 20l20 133q43 -4 82 -7t71.5 -4t55.5 -1q22 0 36 2t21 8.5t8 21.5q2 20 -8.5 25t-30.5 5
l-171 1l14 115l162 1q16 0 26 3t15.5 9.5t7.5 15.5q2 12 -1.5 17.5t-14.5 7t-33 1.5q-42 0 -92 -3t-95 -7l-7 135q62 17 121.5 20.5t91.5 3.5z" />
    <glyph glyph-name="uni0438" unicode="&#x438;" horiz-adv-x="618" 
d="M282 500l-45 -311q-2 -16 5 -21.5t18 -5.5q24 0 47 11t60 39l36 -86q-66 -73 -125 -106.5t-119 -33.5q-78 0 -113.5 37.5t-25.5 106.5l51 370h211zM600 500l-69 -500h-164l-6 134l-19 12l50 354h208z" />
    <glyph glyph-name="uni0439" unicode="&#x439;" horiz-adv-x="618" 
d="M282 500l-45 -311q-2 -16 5 -21.5t18 -5.5q24 0 47 11t60 39l36 -86q-66 -73 -125 -106.5t-119 -33.5q-78 0 -113.5 37.5t-25.5 106.5l51 370h211zM600 500l-69 -500h-164l-6 134l-19 12l50 354h208zM422 722h127q2 -43 -23 -82.5t-71 -65t-108 -25.5q-61 0 -100.5 25.5
t-54 65t-0.5 82.5h127q-13 -46 -0.5 -61.5t41.5 -15.5t45 15.5t17 61.5z" />
    <glyph glyph-name="uni043A" unicode="&#x43a;" horiz-adv-x="592" 
d="M603 500q-29 -68 -47.5 -111t-32 -67t-29 -35.5t-38.5 -16.5t-60 -10l-1 -6q34 -6 54.5 -10t33 -14.5t21 -35.5t16.5 -71.5t21 -122.5h-213q-10 74 -16 113.5t-12.5 56t-17 19t-29.5 2.5l3 134q24 0 38.5 3t25.5 18t25.5 51t38.5 103h219zM285 500l-16 -113
q-4 -31 -15.5 -66.5t-31.5 -66.5q5 -22 11.5 -52.5t3.5 -53.5l-22 -148h-209l70 500h209zM301 325l-18 -134h-90l18 134h90z" />
    <glyph glyph-name="uni043B" unicode="&#x43b;" horiz-adv-x="625" 
d="M594 500l-18 -136h-215q-21 0 -30.5 -8.5t-16.5 -34.5q-10 -34 -20 -71t-19 -70t-15 -56q-17 -66 -59.5 -97t-98 -36.5t-111.5 5.5l-10 157q25 1 50 6.5t36 36.5q3 10 8 25t11.5 37t14 51.5t16.5 68.5q14 62 52.5 92t108.5 30h316zM607 500l-70 -500h-209l69 500h210z
" />
    <glyph glyph-name="uni043C" unicode="&#x43c;" horiz-adv-x="822" 
d="M723 500q38 0 54.5 -18.5t12.5 -56.5l-49 -425h-190l39 348h-10l-72 -215q-10 -32 -29.5 -46t-52.5 -14h-80q-33 0 -52 18t-21 50l-18 207h-9l-57 -348h-190l70 421q5 41 23.5 60t58.5 19h165q36 0 53.5 -17t18.5 -52l6 -147q0 -22 -1 -41t-3 -44h10q5 24 8 43t9 41
l49 156q16 61 81 61h176z" />
    <glyph glyph-name="uni043D" unicode="&#x43d;" horiz-adv-x="626" 
d="M283 500l-70 -500h-207l70 500h207zM387 330l-18 -135h-136l19 135h135zM608 500l-70 -500h-206l70 500h206z" />
    <glyph glyph-name="uni043E" unicode="&#x43e;" horiz-adv-x="615" 
d="M327 514q100 0 161.5 -27t84.5 -86.5t9 -159.5q-13 -94 -46.5 -149.5t-95.5 -79.5t-162 -24q-99 0 -161 26.5t-86 85.5t-10 157q14 96 47 152t96 80.5t163 24.5zM323 372q-27 0 -42 -10t-24 -38t-17 -83q-6 -46 -5.5 -70t13 -32.5t38.5 -8.5t40 10t22.5 37.5t16.5 79.5
q7 48 6 72.5t-12 33.5t-36 9z" />
    <glyph glyph-name="uni043F" unicode="&#x43f;" horiz-adv-x="625" 
d="M463 514q41 0 73 -16t48 -48t9 -80l-52 -370h-211l43 302q3 20 -2 28.5t-25 6.5q-18 -1 -42 -11t-59 -39l-35 87q50 64 118.5 102t134.5 38zM239 500l7 -134l20 -12l-50 -354h-210l69 500h164z" />
    <glyph glyph-name="uni0440" unicode="&#x440;" horiz-adv-x="618" 
d="M443 512q57 0 92 -31.5t47.5 -92.5t0.5 -152q-10 -78 -31 -127t-51 -75.5t-68 -37t-83 -10.5q-24 0 -56.5 2.5t-67 8t-64 15t-47.5 23.5l20 78h65.5h79.5q25 0 40 5t23.5 17.5t14 35.5t10.5 59q7 49 7.5 75t-6.5 36t-23 10t-35.5 -9t-37.5 -23.5t-30 -31.5l-38 80
q10 15 31.5 39t53 48.5t70.5 41t83 16.5zM242 500v-126l22 -16l-41 -331l-11 -16q1 -25 -0.5 -50.5t-6.5 -54.5l-14 -86h-210l94 680h167z" />
    <glyph glyph-name="uni0441" unicode="&#x441;" horiz-adv-x="536" 
d="M303 514q58 0 120 -9.5t109 -29.5l-28 -128h-100h-76q-30 0 -47.5 -9t-26.5 -29.5t-14 -55.5q-6 -41 -2.5 -62.5t19 -29t45.5 -7.5q20 0 47 0.5t58.5 2t62.5 4.5l15 -133q-49 -23 -107.5 -31.5t-112.5 -8.5q-88 0 -147.5 27t-84.5 87t-12 157q13 90 43 146t87.5 82.5
t151.5 26.5z" />
    <glyph glyph-name="uni0442" unicode="&#x442;" horiz-adv-x="890" 
d="M239 500l9 -102l20 -12l-53 -386h-209l70 500h163zM427 514q73 0 107.5 -37.5t24.5 -106.5l-52 -370h-201l43 311q3 17 -2.5 21.5t-16.5 4.5q-10 0 -24 -4t-32.5 -14.5t-43.5 -29.5l-36 85q63 74 116 107t117 33zM724 514q75 0 109.5 -38t24.5 -106l-52 -370h-208l43 311
q2 17 -4 21.5t-15 4.5t-22.5 -4t-31.5 -14.5t-41 -29.5l-37 85q63 74 116.5 107t117.5 33z" />
    <glyph glyph-name="uni0443" unicode="&#x443;" horiz-adv-x="621" 
d="M628 500q-14 -72 -28 -132t-32.5 -116t-46.5 -114.5t-70 -126.5q-21 -34 -49 -71t-65.5 -71t-87.5 -57t-115 -29.5t-147 11.5l15 133q41 -6 75.5 -3t64 15t54 33t47 50.5t43.5 66.5q25 44 42.5 88t30.5 92.5t23.5 105t20.5 125.5h225zM260 500l7 -358q0 -16 16 -16h56
l-41 -126h-145q-25 0 -42 15.5t-20 37.5l-61 447h230z" />
    <glyph glyph-name="uni0444" unicode="&#x444;" horiz-adv-x="779" 
d="M409 514q129 0 208.5 -27t111 -86.5t17.5 -159.5q-13 -94 -55 -149.5t-122 -79.5t-210 -24q-132 0 -211.5 26.5t-110 85.5t-16.5 157q14 96 55.5 152t122 80.5t210.5 24.5zM397 382q-66 0 -102 -10t-52.5 -38.5t-23.5 -82.5t2 -82t42.5 -38.5t100.5 -10.5q69 0 106 10
t54 38t24 81q7 55 -2.5 83.5t-44 39t-104.5 10.5zM539 700l-29 -217l-16 -38l-52 -361l2 -52l-28 -212h-185l28 212l18 51l52 361l-4 39l29 217h185z" />
    <glyph glyph-name="uni0445" unicode="&#x445;" horiz-adv-x="604" 
d="M233 500l98 -262l-160 -238h-216l181 255l-97 245h194zM409 316l-16 -118h-205l15 118h206zM627 500l-169 -245l106 -255h-197l-104 273l154 227h210z" />
    <glyph glyph-name="uni0446" unicode="&#x446;" horiz-adv-x="660" 
d="M280 500l-45 -311q-2 -16 4.5 -21.5t18.5 -5.5q23 0 46.5 11t59.5 39l36 -86q-66 -73 -125 -106.5t-119 -33.5q-77 0 -113 37.5t-26 106.5l52 370h211zM465 5l143 -5l-22 -149h-172zM598 500l-51 -359q-1 -10 5 -16.5t16 -6.5h57l-17 -118h-158q-37 0 -62.5 25.5
t-27.5 65.5l-2 43l-19 12l50 354h209z" />
    <glyph glyph-name="uni0447" unicode="&#x447;" horiz-adv-x="605" 
d="M269 500l-24 -177q-3 -16 4 -24t26 -8q18 0 40 4.5t50 14.5l18 -120q-21 -16 -53 -27t-67 -16.5t-67 -5.5q-94 0 -137 33t-31 117l33 209h208zM587 500l-70 -500h-209l70 500h209z" />
    <glyph glyph-name="uni0448" unicode="&#x448;" horiz-adv-x="887" 
d="M278 500l-44 -311q-2 -16 4 -21t15 -5q10 0 23 4t31 14.5t41 29.5l37 -85q-63 -74 -116 -107t-118 -33q-75 0 -109.5 38.5t-24.5 105.5l52 370h209zM567 500l-43 -311q-3 -16 3 -21t16 -5q11 0 25 4t32.5 14.5t42.5 29.5l36 -85q-62 -73 -115 -106.5t-118 -33.5
q-70 0 -104 37.5t-24 106.5l52 370h197zM869 500l-70 -500h-163l-9 102l-20 12l53 386h209z" />
    <glyph glyph-name="uni0449" unicode="&#x449;" horiz-adv-x="929" 
d="M278 500l-43 -311q-3 -16 3 -21t15 -5q10 0 23 4t31 14.5t41 29.5l37 -85q-63 -74 -116 -107t-118 -33q-75 0 -109.5 38.5t-24.5 105.5l52 370h209zM567 500l-43 -311q-2 -16 3.5 -21t15.5 -5q11 0 25 4t32.5 14.5t42.5 29.5l36 -85q-63 -73 -115.5 -106.5t-116.5 -33.5
q-70 0 -104.5 37.5t-24.5 106.5l52 370h197zM868 500l-50 -359q-1 -10 4.5 -16.5t15.5 -6.5h56l-17 -118h-159q-36 0 -61 25.5t-27 65.5l-2 43l-18 12l49 354h209zM734 5l143 -5l-21 -149h-172z" />
    <glyph glyph-name="uni044A" unicode="&#x44a;" horiz-adv-x="662" 
d="M433 500l-88 -340q-3 -9 -2 -15t5 -9.5t11 -5.5t16 -2q16 0 24.5 4.5t12.5 15t8 28.5q5 23 4.5 34t-7.5 14t-22 3q-21 0 -56.5 -8.5t-94.5 -51.5l18 116q53 35 104 48t90 12q71 -2 112 -16.5t55 -52.5t4 -113q-9 -69 -38.5 -106.5t-81.5 -51.5t-131 -14q-49 0 -96.5 7.5
t-83 27.5t-50 58.5t2.5 100.5l81 288zM433 500l-149 -150h-266l20 150h395z" />
    <glyph glyph-name="uni044B" unicode="&#x44b;" horiz-adv-x="829" 
d="M273 500l-48 -340q-1 -9 0.5 -15t6 -9.5t11 -5.5t15.5 -2q15 0 23.5 4.5t13 15t6.5 28.5q4 23 3 34t-7.5 14t-21.5 3q-21 0 -56.5 -8.5t-93.5 -51.5l17 116q53 35 104 48t90 12q71 -2 112 -16.5t55 -52.5t4 -113q-9 -69 -38.5 -106.5t-81.5 -51.5t-131 -14q-53 0 -98 6
t-77.5 24t-47.5 52t-9 91l47 338h202zM811 500l-70 -500h-211l70 500h211z" />
    <glyph glyph-name="uni044C" unicode="&#x44c;" horiz-adv-x="547" 
d="M273 500l-49 -340q-1 -9 1 -15t6.5 -9.5t12 -5.5t16.5 -2q16 0 24.5 4.5t13.5 15t8 28.5q4 23 3 34t-8 14t-23 3q-22 0 -59 -8.5t-96 -51.5l18 116q53 35 104.5 47.5t91.5 12.5q73 0 114.5 -14.5t56 -53.5t4.5 -114q-9 -69 -38.5 -106.5t-82 -52t-132.5 -14.5
q-53 0 -98.5 6t-78.5 24t-48.5 52.5t-9.5 91.5l47 338h202z" />
    <glyph glyph-name="uni044D" unicode="&#x44d;" horiz-adv-x="561" 
d="M281 514q97 0 154.5 -27.5t80 -88t11.5 -158.5q-11 -102 -46.5 -157t-100 -76t-162.5 -21q-75 0 -131.5 9.5t-98.5 25.5l21 127q48 -2 98 -3t86 -1q40 0 63 2.5t35 13t17.5 33.5t9.5 63q5 46 3.5 67.5t-16 28t-47.5 6.5q-54 0 -86 -0.5t-57 -0.5h-59l-10 127
q28 9 68 15.5t84 10.5t83 4zM498 313l-18 -120h-420l14 120h424z" />
    <glyph glyph-name="uni044E" unicode="&#x44e;" horiz-adv-x="869" 
d="M593 514q96 0 155 -22t81 -81.5t6 -170.5q-11 -77 -31.5 -126.5t-54.5 -76.5t-84 -37.5t-121 -10.5q-93 0 -148 22t-73.5 80t-3.5 165q11 80 31 131t52 78.5t79 38t112 10.5zM286 500l-70 -500h-210l70 500h210zM398 323l-18 -136h-145l18 136h145zM580 359q-23 0 -36 -8
t-20.5 -31t-14.5 -69q-6 -48 -5 -70.5t12 -29.5t33 -7q23 0 35.5 8t19.5 30.5t13 66.5q7 48 5.5 71.5t-11.5 31t-31 7.5z" />
    <glyph glyph-name="uni044F" unicode="&#x44f;" horiz-adv-x="593" 
d="M352 514q36 0 77 -0.5t80.5 -2t67.5 -5.5l-26 -138q-3 2 -22 2.5t-52 0t-79.5 -0.5h-105.5q-17 0 -27 -3t-14.5 -11.5t-7.5 -24.5q-3 -17 -1 -28.5t12 -17t32 -5.5h247l-8 -120q-20 -1 -46 -2t-71 -1h-125q-22 0 -35 -8.5t-18 -24.5l-38 -124h-216l49 155q12 39 45 52
t64 13l1 6q-45 13 -66.5 35.5t-26 50.5t-0.5 55q8 50 28 79t55.5 44t91 19.5t135.5 4.5zM577 506l-71 -506h-204l71 506h204z" />
    <glyph glyph-name="uni0450" unicode="&#x450;" horiz-adv-x="590" 
d="M326 514q104 0 161 -21.5t76.5 -62.5t10.5 -102q-6 -45 -31 -70t-69.5 -37t-112.5 -17l-266 -20l13 99l198 20q21 2 35 5.5t22.5 12.5t10.5 28q1 11 -2 18t-13 10t-31 2q-21 0 -35 -5.5t-23 -18t-15.5 -35.5t-12.5 -59q-8 -49 -5.5 -73t19.5 -31.5t51 -7.5q21 0 57.5 1.5
t77 4t70.5 5.5l14 -128q-35 -16 -75 -26t-81 -14t-81 -4q-114 0 -175 31t-81 90.5t-12 144.5q8 80 32 131t62 79t91 39t120 11zM206 768l235 -150l-67 -86l-248 106z" />
    <glyph glyph-name="uni0451" unicode="&#x451;" horiz-adv-x="590" 
d="M326 514q104 0 161 -21.5t76.5 -62.5t10.5 -102q-6 -45 -31 -70t-69.5 -37t-112.5 -17l-266 -20l13 99l198 20q21 2 35 5.5t22.5 12.5t10.5 28q1 11 -2 18t-13 10t-31 2q-21 0 -35 -5.5t-23 -18t-15.5 -35.5t-12.5 -59q-8 -49 -5.5 -73t19.5 -31.5t51 -7.5q21 0 57.5 1.5
t77 4t70.5 5.5l14 -128q-35 -16 -75 -26t-81 -14t-81 -4q-114 0 -175 31t-81 90.5t-12 144.5q8 80 32 131t62 79t91 39t120 11zM312 716q18 0 25 -8t5 -25l-11 -76q-2 -17 -10 -24.5t-25 -7.5h-81q-34 0 -30 33l11 73q3 19 11.5 27t27.5 8h77zM501 716q17 0 24.5 -8t5.5 -25
l-11 -75q-3 -18 -10.5 -25.5t-24.5 -7.5h-81q-34 0 -30 33l11 74q3 19 11.5 26.5t24.5 7.5h80z" />
    <glyph glyph-name="uni0452" unicode="&#x452;" horiz-adv-x="650" 
d="M463 424q77 0 113 -37.5t26 -106.5l-33 -226q-7 -52 -30.5 -100.5t-61 -86.5t-88.5 -59l-114 97q41 40 60.5 77t25.5 80l23 159q2 17 -5.5 21.5t-24.5 4.5q-21 0 -42.5 -8t-55.5 -33l-22 96q60 64 120 93t109 29zM336 700l-36 -250q-6 -45 -17 -86.5t-23 -66.5l16 -8
l-38 -289h-211l98 700h211zM484 557l-13 -100h-440l12 100h441z" />
    <glyph glyph-name="uni0453" unicode="&#x453;" horiz-adv-x="552" 
d="M310 514q51 0 93 -7.5t72.5 -25t46.5 -45.5t14 -70q-1 -46 -21 -76.5t-48.5 -48t-55 -26t-41.5 -11.5l-111 -25q-37 -8 -47.5 -13.5t-10.5 -13.5t7.5 -12t28.5 -4t60 2q40 3 72.5 5.5t60.5 5.5t51 6l17 -125q-32 -10 -65 -19.5t-75 -15.5t-100 -6q-89 0 -148.5 17
t-87 53.5t-21.5 96.5q7 66 46 99t102 48l118 28q29 7 48.5 11.5t17.5 17.5q0 6 -6.5 8.5t-22 2.5t-43.5 -1q-15 0 -28 -1l-32.5 -2.5t-52 -4.5t-85.5 -8l-4 117q47 19 114 31t137 12zM452 774l66 -146l-266 -96l-47 86z" />
    <glyph glyph-name="uni0454" unicode="&#x454;" horiz-adv-x="561" 
d="M317 514q35 0 77.5 -3t85 -9.5t77.5 -19.5l-22 -126h-101h-109q-34 0 -52.5 -6t-27.5 -27.5t-15 -68.5q-5 -44 -2 -68t19.5 -33t48.5 -9q68 0 112 1t89 3l10 -131q-49 -19 -106 -25t-101 -6q-119 0 -182 32.5t-84 93t-13 144.5q8 85 34.5 136.5t66.5 77.5t90 35t105 9z
M69 313h421l-14 -120h-425z" />
    <glyph glyph-name="uni0455" unicode="&#x455;" horiz-adv-x="548" 
d="M278 514q40 0 87 -3t91.5 -8t73.5 -12l-17 -121h-98h-93q-35 0 -53.5 -0.5t-25.5 -2.5t-8 -7q-1 -7 8.5 -13t40.5 -14l109 -29q41 -11 68 -32t39 -52.5t7 -73.5q-8 -66 -40 -99.5t-85.5 -45.5t-128.5 -12q-31 0 -70.5 1.5t-86 6.5t-99.5 14l17 121h41h62h65q52 0 78 1.5
t35.5 5t10.5 9.5q1 5 -3 8.5t-16 8t-35 10.5l-105 30q-47 14 -73.5 38.5t-35 58.5t-2.5 74q7 44 30 74.5t73.5 47t138.5 16.5z" />
    <glyph glyph-name="uni0456" unicode="&#x456;" horiz-adv-x="310" 
d="M288 500l-69 -500h-209l69 500h209zM253 729q34 0 49 -16t11 -50l-7 -51q-7 -58 -69 -58h-82q-66 0 -59 66l7 51q6 58 69 58h81z" />
    <glyph glyph-name="uni0457" unicode="&#x457;" horiz-adv-x="306" 
d="M288 500l-70 -500h-211l70 500h211zM154 716q18 0 25 -8t5 -25l-11 -76q-2 -17 -10 -24.5t-25 -7.5h-81q-34 0 -30 33l11 73q3 19 11.5 27t27.5 8h77zM343 716q17 0 24.5 -8t5.5 -25l-11 -75q-3 -18 -10.5 -25.5t-24.5 -7.5h-81q-34 0 -30 33l11 74q3 19 11.5 26.5
t24.5 7.5h80z" />
    <glyph glyph-name="uni0458" unicode="&#x458;" horiz-adv-x="311" 
d="M291 500l-65 -446q-6 -52 -30 -100.5t-62.5 -86.5t-89.5 -59l-115 97q43 40 63 77t26 80l63 438h210zM252 729q35 0 49.5 -16t9.5 -50l-7 -51q-7 -58 -71 -58h-79q-67 0 -60 66l7 51q7 58 72 58h79z" />
    <glyph glyph-name="uni0459" unicode="&#x459;" horiz-adv-x="842" 
d="M559 500l-16 -124h-195q-21 0 -30.5 -7t-14.5 -27q-5 -19 -12 -48t-15.5 -61.5t-18 -62.5t-18.5 -51q-28 -64 -67.5 -92t-86.5 -32.5t-98 2.5l-9 143q26 2 49 11.5t37 34.5q7 12 15 34.5t16 51t15.5 59t13.5 58.5q13 56 48 83.5t100 27.5h287zM575 500l-48 -340
q-1 -9 0.5 -15t6 -9.5t11 -5.5t14.5 -2q14 0 22 4.5t12 15t6 28.5q4 23 3.5 34t-6.5 14t-20 3q-13 0 -33 -3t-48 -15.5t-67 -41.5l18 116q36 23 70 36.5t65.5 19t57.5 4.5q70 -2 110 -16.5t53.5 -52.5t3.5 -113q-9 -66 -38 -102.5t-81.5 -50.5t-130.5 -14q-52 0 -96 6
t-75 23.5t-45.5 50.5t-8.5 88l47 338h197z" />
    <glyph glyph-name="uni045A" unicode="&#x45a;" horiz-adv-x="839" 
d="M572 500l-48 -340q-1 -9 0.5 -15t6 -9.5t11 -5.5t14.5 -2q14 0 22 4.5t12.5 15t6.5 28.5q4 23 3.5 34t-7 14t-20.5 3q-20 0 -55 -8.5t-93 -51.5l18 116q53 35 103.5 48t88.5 12q70 -2 110.5 -16.5t54.5 -52.5t4 -113q-9 -66 -38 -102.5t-81.5 -50.5t-130.5 -14
q-52 0 -96 6t-75.5 23.5t-46 50.5t-8.5 88l47 338h197zM266 500l-70 -500h-190l70 500h190zM357 325l-18 -124h-121l17 124h122z" />
    <glyph glyph-name="uni045B" unicode="&#x45b;" horiz-adv-x="632" 
d="M336 700l-36 -250q-6 -45 -18 -86.5t-24 -66.5l18 -8l-38 -289h-211l98 700h211zM484 557l-13 -100h-440l12 100h441zM462 424q78 0 114 -37.5t26 -106.5l-39 -280h-211l32 215q2 18 -4 25t-26 7q-21 0 -42.5 -8t-55.5 -33l-22 96q60 64 119.5 93t108.5 29z" />
    <glyph glyph-name="uni045C" unicode="&#x45c;" horiz-adv-x="592" 
d="M603 500q-29 -68 -47.5 -111t-32 -67t-29 -35.5t-38.5 -16.5t-60 -10l-1 -6q34 -6 54.5 -10t33 -14.5t21 -35.5t16.5 -71.5t21 -122.5h-213q-10 74 -16 113.5t-12.5 56t-17 19t-29.5 2.5l3 134q24 0 38.5 3t25.5 18t25.5 51t38.5 103h219zM285 500l-16 -113
q-4 -31 -15.5 -66.5t-31.5 -66.5q5 -22 11.5 -52.5t3.5 -53.5l-22 -148h-209l70 500h209zM301 325l-18 -134h-90l18 134h90zM502 774l66 -146l-266 -96l-47 86z" />
    <glyph glyph-name="uni045D" unicode="&#x45d;" horiz-adv-x="618" 
d="M282 500l-45 -311q-2 -16 5 -21.5t18 -5.5q24 0 47 11t60 39l36 -86q-66 -73 -125 -106.5t-119 -33.5q-78 0 -113.5 37.5t-25.5 106.5l51 370h211zM600 500l-69 -500h-164l-6 134l-19 12l50 354h208zM222 768l235 -150l-67 -86l-248 106z" />
    <glyph glyph-name="uni045E" unicode="&#x45e;" horiz-adv-x="621" 
d="M628 500q-14 -72 -28 -132t-32.5 -116t-46.5 -114.5t-70 -126.5q-21 -34 -49 -71t-65.5 -71t-87.5 -57t-115 -29.5t-147 11.5l15 133q41 -6 75.5 -3t64 15t54 33t47 50.5t43.5 66.5q25 44 42.5 88t30.5 92.5t23.5 105t20.5 125.5h225zM260 500l7 -358q0 -16 16 -16h56
l-41 -126h-145q-25 0 -42 15.5t-20 37.5l-61 447h230zM415 722h127q2 -43 -23 -82.5t-71 -65t-108 -25.5q-61 0 -100.5 25.5t-54 65t-0.5 82.5h127q-13 -46 -0.5 -61.5t41.5 -15.5t45 15.5t17 61.5z" />
    <glyph glyph-name="uni045F" unicode="&#x45f;" horiz-adv-x="618" 
d="M344 -39l-17 -212h-158l44 212h131zM282 500l-45 -311q-2 -16 5 -21.5t18 -5.5q24 0 47 11t60 39l36 -86q-66 -73 -125 -106.5t-119 -33.5q-78 0 -113.5 37.5t-25.5 106.5l51 370h211zM600 500l-69 -500h-164l-6 134l-19 12l50 354h208z" />
    <glyph glyph-name="uni0462" unicode="&#x462;" horiz-adv-x="678" 
d="M397 453q104 0 163 -21.5t79.5 -73.5t7.5 -143q-12 -88 -38.5 -136.5t-78.5 -67.5t-141 -19q-76 0 -132 0.5t-101.5 2.5t-92.5 5l33 145q25 -1 93.5 -2t156.5 -1q29 0 45.5 3t26 21.5t14.5 62.5q5 37 4.5 57t-12.5 28t-43 8h-254l19 131h251zM383 734l-103 -734h-217
l103 734h217zM19 522l16 120h541l-16 -120h-541z" />
    <glyph glyph-name="uni0463" unicode="&#x463;" horiz-adv-x="566" 
d="M278 -12q-53 0 -99 6t-79.5 24t-49 52.5t-7.5 91.5l75 528h202l-77 -530q-1 -9 1 -15t6.5 -9.5t12 -5.5t16.5 -2q16 0 24.5 4.5t13.5 15t8 28.5q4 23 3 34t-8 14t-23 3q-22 0 -59 -8.5t-96 -51.5l18 116q53 35 104.5 47.5t91.5 12.5q73 0 114.5 -14.5t56 -53.5t4.5 -114
q-9 -69 -38.5 -106.5t-82 -52t-132.5 -14.5zM-2 400l16 100h441l-16 -100h-441z" />
    <glyph glyph-name="uni046A" unicode="&#x46a;" horiz-adv-x="924" 
d="M-63 0q44 93 74 156.5t54.5 103.5t51 62t62.5 32t90 13l1 6l-197 317h874l-285 -317l-1 -6q46 -5 78 -16t54 -34t37.5 -62.5t30 -102t30.5 -152.5h-227q-13 83 -20.5 137t-13.5 84.5t-15 45t-23.5 18t-38.5 3.5q-1 -19 -2 -35.5t-3 -27.5l-31 -225h-207l31 225
q2 11 5.5 27.5t8.5 35.5q-24 0 -39.5 -4t-28 -18.5t-27.5 -45.5t-37.5 -84t-58.5 -136h-227zM465 385l151 167h-253z" />
    <glyph glyph-name="uni046B" unicode="&#x46b;" horiz-adv-x="799" 
d="M-44 0q35 70 58.5 115.5t42 72t38.5 40.5t48.5 21.5t71.5 15.5l1 4l-161 231h761l-226 -231l-1 -4q41 -8 67 -15.5t42.5 -21.5t27.5 -40.5t21.5 -71.5t25.5 -116h-214q-13 72 -18.5 112.5t-10 59t-14 23t-30.5 4.5q-1 -14 -1.5 -25t-1.5 -19l-22 -155h-193l22 155
q1 8 3.5 19t6.5 25q-20 0 -31 -5t-21 -23.5t-27.5 -59t-49.5 -111.5h-215zM402 265l113 113h-194z" />
    <glyph glyph-name="uni0472" unicode="&#x472;" 
d="M202 287v124h290v-124h-290zM389 704q114 0 184 -32t95.5 -111.5t6.5 -223.5q-14 -106 -40.5 -175t-68.5 -107t-102.5 -53.5t-141.5 -15.5q-119 0 -187.5 32.5t-90.5 112.5t-3 222q15 105 41 173.5t67 107.5t100 54.5t140 15.5zM387 543q-36 0 -57.5 -16t-34.5 -60
t-27 -130q-12 -79 -11 -120t18 -55.5t52 -14.5q38 0 59 16t34.5 60.5t26.5 129.5q12 79 11 119.5t-18 55.5t-53 15z" />
    <glyph glyph-name="uni0473" unicode="&#x473;" horiz-adv-x="611" 
d="M269 -12q-102 0 -160 25.5t-77 82.5t-6 153q14 98 49 156t100.5 83.5t167.5 25.5t159.5 -25.5t77 -83.5t5.5 -156q-13 -96 -48.5 -153t-100.5 -82.5t-167 -25.5zM289 130q28 0 44.5 9t25.5 34.5t16 75.5q7 52 5 78t-15.5 35.5t-41.5 9.5t-44.5 -9.5t-26 -35.5t-16.5 -78
q-7 -50 -5 -75.5t16 -34.5t42 -9zM186 208l13 92h222l-13 -92h-222z" />
    <glyph glyph-name="uni0474" unicode="&#x474;" horiz-adv-x="717" 
d="M199 0q-28 0 -46 16t-20 42l-79 632h223l25 -449q2 -19 2 -39.5v-39.5h24q3 9 6 19t6 20.5t6 20.5t6 19l85 290q12 41 34.5 80.5t63 66t107.5 26.5q23 0 56.5 -1.5t66.5 -8.5l-23 -163q-9 2 -20.5 2.5t-19.5 0.5q-31 0 -52 -13.5t-35 -51.5l-144 -411q-9 -26 -31.5 -42
t-50.5 -16h-190z" />
    <glyph glyph-name="uni0475" unicode="&#x475;" horiz-adv-x="582" 
d="M158 0q-25 0 -40 14t-18 36l-68 447h194l22 -298q2 -13 2 -28.5v-29.5h19q3 9 6 19t6.5 20t5.5 18l51 165q6 21 17.5 46t31 47t49.5 36.5t73 14.5q20 0 49 -1.5t58 -7.5l-20 -143q-7 2 -17 2.5t-16 0.5q-25 0 -42 -11t-28 -40l-99 -257q-8 -22 -28 -36t-44 -14h-164z" />
    <glyph glyph-name="uni048A" unicode="&#x48a;" horiz-adv-x="774" 
d="M454 142h293l-20 -142l-52 -151h-157l36 151h-120zM734 690l-97 -690h-206l45 309q5 29 12 58.5t17 58.5h-7q-12 -26 -25.5 -54t-30.5 -52l-217 -320h-209l97 690h208l-41 -293q-4 -32 -13 -64.5t-20 -66.5h8q14 31 29 60.5t31 52.5l213 311h206zM497 910h127
q2 -43 -23 -82.5t-71 -65t-108 -25.5q-61 0 -100.5 25.5t-54 65t-0.5 82.5h127q-13 -46 -0.5 -61.5t41.5 -15.5t45 15.5t17 61.5z" />
    <glyph glyph-name="uni048B" unicode="&#x48b;" horiz-adv-x="639" 
d="M392 142h230l-20 -142l-50 -141h-147l34 141h-67zM282 500l-45 -311q-2 -16 5 -21.5t18 -5.5q24 0 47 11t60 39l36 -86q-66 -73 -125 -106.5t-119 -33.5q-78 0 -113.5 37.5t-25.5 106.5l51 370h211zM600 500l-69 -500h-164l-6 134l-19 12l50 354h208zM422 722h127
q2 -43 -23 -82.5t-71 -65t-108 -25.5q-61 0 -100.5 25.5t-54 65t-0.5 82.5h127q-13 -46 -0.5 -61.5t41.5 -15.5t45 15.5t17 61.5z" />
    <glyph glyph-name="uni048C" unicode="&#x48c;" horiz-adv-x="677" 
d="M17 507l16 120h541l-16 -120h-541zM396 453q104 0 163 -21.5t79.5 -73.5t7.5 -143q-12 -88 -38.5 -136.5t-78.5 -67.5t-141 -19q-76 0 -132 0.5t-101.5 2.5t-92.5 5l33 145q25 -1 93.5 -2t156.5 -1q29 0 45.5 3t26 21.5t14.5 62.5q5 37 4.5 57t-12.5 28t-43 8h-254
l19 131h251zM377 690l-98 -690h-217l98 690h217z" />
    <glyph glyph-name="uni048D" unicode="&#x48d;" horiz-adv-x="566" 
d="M278 -12q-53 0 -99 6t-79.5 24t-49 52.5t-7.5 91.5l75 528h202l-77 -530q-1 -9 1 -15t6.5 -9.5t12 -5.5t16.5 -2q16 0 24.5 4.5t13.5 15t8 28.5q4 23 3 34t-8 14t-23 3q-22 0 -59 -8.5t-96 -51.5l18 116q53 35 104.5 47.5t91.5 12.5q73 0 114.5 -14.5t56 -53.5t4.5 -114
q-9 -69 -38.5 -106.5t-82 -52t-132.5 -14.5zM-2 400l16 100h441l-16 -100h-441z" />
    <glyph glyph-name="uni048E" unicode="&#x48e;" horiz-adv-x="641" 
d="M386 700q106 0 167 -21.5t83 -74.5t9 -147q-12 -89 -41.5 -138t-85 -68t-146.5 -19q-51 0 -100.5 5.5t-92 14.5t-72.5 19t-41 18l6 96h141h140q26 0 41 5t23.5 24t13.5 59q4 28 1.5 44t-14.5 23t-37 7q-103 0 -174.5 -1.5t-96.5 -4.5l-2 149q45 5 84 7t84.5 2.5
t109.5 0.5zM324 690l-97 -690h-216l97 690h216zM335 424l42 43l239 -237l-42 -43z" />
    <glyph glyph-name="uni048F" unicode="&#x48f;" horiz-adv-x="619" 
d="M263 197l61 43l217 -308l-61 -43zM440 512q57 0 92.5 -31.5t47.5 -92.5t0 -152q-10 -78 -31 -127t-51 -75.5t-68 -37t-83 -10.5q-24 0 -56.5 2.5t-67 8t-64 15t-47.5 23.5l20 78h65.5h79.5q25 0 40 5t23.5 17.5t14 35.5t10.5 59q7 49 7.5 75t-6.5 36t-23 10t-35.5 -9
t-37.5 -23.5t-30 -31.5l-38 80q10 15 31.5 39t53 48.5t70.5 41t83 16.5zM239 500v-126l22 -16l-41 -331l-11 -16q1 -25 -0.5 -50.5t-6.5 -54.5l-14 -86h-210l94 680h167z" />
    <glyph glyph-name="uni0490" unicode="&#x490;" horiz-adv-x="559" 
d="M254 694q60 0 128 -1t127.5 -4t95.5 -10l-24 -151h-231q-18 0 -33 -12t-18 -28l-69 -488h-217l76 541q10 70 55.5 111.5t109.5 41.5zM630 843l-25 -164l-163 -34l43 198h145z" />
    <glyph glyph-name="uni0491" unicode="&#x491;" horiz-adv-x="489" 
d="M207 508q79 0 160 -2.5t140 -15.5l-24 -145h-184q-18 0 -29.5 -8.5t-13.5 -25.5l-44 -311h-209l53 380q10 69 45.5 98.5t105.5 29.5zM530 641l-23 -151l-164 -34l42 185h145z" />
    <glyph glyph-name="uni0492" unicode="&#x492;" horiz-adv-x="589" 
d="M-24 253l14 120h529l-14 -120h-529zM290 694q57 0 117.5 -1t117 -4t99.5 -10l-24 -151h-215q-24 0 -36 -8.5t-15 -31.5l-69 -488h-217l76 541q10 70 56 111.5t110 41.5z" />
    <glyph glyph-name="uni0493" unicode="&#x493;" horiz-adv-x="502" 
d="M389 251l-12 -100h-389l12 100h389zM255 508q47 0 96.5 -0.5t96.5 -4t83 -12.5l-30 -146h-173q-19 0 -27.5 -6.5t-10.5 -23.5l-45 -315h-208l53 376q10 69 50 100.5t115 31.5z" />
    <glyph glyph-name="uni0494" unicode="&#x494;" horiz-adv-x="628" 
d="M280 -163l-31 133q36 15 58 32.5t35 39.5t20 51t13 69q5 34 5 56t-5 35t-16 18.5t-28 5.5q-10 0 -28 -2t-40.5 -8.5t-47.5 -19.5l15 131q41 31 99 48.5t106 17.5q51 0 86.5 -16t54.5 -50t23.5 -86.5t-6.5 -125.5q-13 -93 -41.5 -154t-69.5 -97t-92 -53.5t-110 -24.5z
M267 694q86 0 177 -1.5t161 -12.5l-31 -152h-232q-19 0 -32 -10t-15 -26l-69 -492h-217l75 537q7 47 32.5 82t64.5 55t86 20z" />
    </font>
</defs>
</svg>
