<?xml version="1.0" standalone="no"?>
<!DOCTYPE svg PUBLIC "-//W3C//DTD SVG 1.1//EN" "http://www.w3.org/Graphics/SVG/1.1/DTD/svg11.dtd" >
<svg xmlns="http://www.w3.org/2000/svg" xmlns:xlink="http://www.w3.org/1999/xlink" version="1.1">
<metadata>
Created by FontForge 20170731 at Tue Aug 10 21:38:44 2021
 By Aleksey,,,
Copyright 2013 The Exo 2 Project Authors (https://github.com/NDISCOVER/Exo-2.0)
</metadata>
<defs>
<font id="Exo2-Black" horiz-adv-x="590" >
  <font-face 
    font-family="Exo 2 Black"
    font-weight="900"
    font-stretch="normal"
    units-per-em="1000"
    panose-1="0 0 0 0 0 0 0 0 0 0"
    ascent="800"
    descent="-200"
    x-height="500"
    cap-height="690"
    bbox="-520 -309 1346 1158"
    underline-thickness="50"
    underline-position="-150"
    unicode-range="U+000D-FB02"
  />
<missing-glyph horiz-adv-x="556" 
d="M104 690v-690h-41v690h41zM493 690v-690h-41v690h41zM63 690h430v-41h-430v41zM63 41h430v-41h-430v41z" />
    <glyph glyph-name="fi" unicode="fi" horiz-adv-x="727" 
d="M274 724q29 0 73 -3t78 -11v-126h-76q-27 0 -37 -11.5t-10 -40.5v-532h-211v561q0 47 17.5 84t57.5 58t108 21zM470 500v-126h-462v121l84 5h378zM680 500v-500h-211v500h211zM619 739q62 0 62 -62v-51q0 -62 -62 -62h-87q-62 0 -62 62v51q0 62 62 62h87z" />
    <glyph glyph-name="fl" unicode="fl" horiz-adv-x="773" 
d="M271 724h46t78 -1t96 -3.5t100.5 -7t90.5 -12.5v-518q0 -19 10 -27.5t31 -8.5h27l23 -134q-14 -9 -40.5 -14.5t-54.5 -8.5t-47 -3q-74 0 -116.5 37t-42.5 103v461h-126q-26 0 -36 -11.5t-10 -43.5v-532h-210v561q0 47 17 84t57 58t107 21zM405 500v-126h-397v121l82 5
h315z" />
    <glyph glyph-name="f_f" unicode="ff" horiz-adv-x="802" 
d="M273 714q18 0 48 -1.5t61.5 -4.5t53.5 -8l-20 -126h-73q-28 0 -38 -11.5t-10 -40.5v-522h-203v551q2 47 19 84t56 58t106 21zM651 724q20 0 53.5 -1.5t69 -4.5t60.5 -8l-20 -126h-93q-28 0 -38 -11.5t-10 -40.5v-532h-203v561q0 47 17.5 84t57 58t106.5 21zM797 500v-126
h-789v121l85 5h704z" />
    <glyph glyph-name="f_f_i" unicode="ffi" horiz-adv-x="1100" 
d="M273 714q18 0 48 -1.5t61.5 -4.5t53.5 -8l-20 -126h-73q-28 0 -38 -11.5t-10 -40.5v-522h-203v551q2 47 19 84t56 58t106 21zM843 500v-126h-835v121l85 5h750zM654 724q29 0 69.5 -3t74.5 -11v-126h-69q-34 0 -45 -11.5t-11 -40.5v-532h-202v561q0 47 17.5 84t57.5 58
t108 21zM1053 500v-500h-211v500h211zM992 739q62 0 62 -62v-51q0 -62 -62 -62h-87q-62 0 -62 62v51q0 62 62 62h87z" />
    <glyph glyph-name="f_f_l" unicode="ffl" horiz-adv-x="1151" 
d="M273 714q18 0 48 -1.5t61.5 -4.5t53.5 -8l-20 -126h-73q-28 0 -38 -11.5t-10 -40.5v-522h-203v551q2 47 19 84t56 58t106 21zM651 724h46t78 -1t96 -3.5t100.5 -7t90.5 -12.5v-518q0 -19 10 -27.5t31 -8.5h27l23 -134q-14 -9 -40.5 -14.5t-54.5 -8.5t-47 -3
q-74 0 -116.5 37t-42.5 103v461h-133q-21 0 -33.5 -11.5t-12.5 -43.5v-532h-203v561q0 47 17 84t57 58t107 21zM785 500v-126h-777v121l85 5h692z" />
    <glyph glyph-name=".notdef" horiz-adv-x="556" 
d="M104 690v-690h-41v690h41zM493 690v-690h-41v690h41zM63 690h430v-41h-430v41zM63 41h430v-41h-430v41z" />
    <glyph glyph-name=".null" horiz-adv-x="0" 
 />
    <glyph glyph-name="nonmarkingreturn" horiz-adv-x="333" 
 />
    <glyph glyph-name="CR" unicode="&#xd;" horiz-adv-x="210" 
 />
    <glyph glyph-name="space" unicode=" " horiz-adv-x="210" 
 />
    <glyph glyph-name="exclam" unicode="!" horiz-adv-x="329" 
d="M268 695v-234l-22 -234h-164l-22 234v234h208zM188 185q41 0 56.5 -15.5t15.5 -56.5v-41q0 -41 -15.5 -56.5t-56.5 -15.5h-47q-41 0 -56.5 15.5t-15.5 56.5v41q0 41 15.5 56.5t56.5 15.5h47z" />
    <glyph glyph-name="quotedbl" unicode="&#x22;" horiz-adv-x="393" 
d="M358 690l-12 -228h-120l-12 228h144zM179 690l-12 -228h-120l-12 228h144z" />
    <glyph glyph-name="numbersign" unicode="#" horiz-adv-x="740" 
d="M383 690l-120 -690h-155l120 690h155zM634 690l-120 -690h-155l120 690h155zM719 526l-24 -122h-631l24 122h631zM677 304l-24 -122h-631l24 122h631z" />
    <glyph glyph-name="dollar" unicode="$" horiz-adv-x="595" 
d="M309 704q53 0 118.5 -6.5t125.5 -28.5l-13 -139q-43 1 -108 1.5t-129 0.5q-18 0 -29.5 -1t-18.5 -4t-9.5 -8t-2.5 -13q0 -14 12 -23.5t48 -23.5l119 -52q83 -37 116.5 -85.5t33.5 -124.5q0 -58 -13.5 -98.5t-45 -65t-84 -36t-131.5 -11.5q-34 0 -103 5.5t-158 28.5
l13 152q57 -1 106 -2.5t85 -2t53 -0.5q26 0 40 2t19.5 7.5t5.5 14.5q0 10 -4 16.5t-14 12.5t-29 13l-131 60q-81 38 -115 85t-34 123q0 59 14.5 98t47.5 62t86 33t129 10zM263 362h52l-46 -472h-53zM392 789l-53 -427h-54l53 427h54z" />
    <glyph glyph-name="percent" unicode="%" horiz-adv-x="921" 
d="M203 704q68 0 108 -18.5t57.5 -63t17.5 -124.5q0 -79 -17.5 -124t-57.5 -63.5t-108 -18.5q-67 0 -106.5 18.5t-57 63.5t-17.5 124q0 80 17.5 124.5t57 63t106.5 18.5zM203 595q-12 0 -18 -5t-8 -25.5t-2 -66.5t2 -66.5t8 -25.5t18 -5q13 0 19 5t8.5 25.5t2.5 66.5
t-2.5 66.5t-8.5 25.5t-19 5zM713 690l-380 -690h-126l380 690h126zM717 398q68 0 108 -18.5t57.5 -63t17.5 -124.5q0 -79 -17.5 -124t-57.5 -63.5t-108 -18.5q-67 0 -106.5 18.5t-57 63.5t-17.5 124q0 80 17.5 124.5t57 63t106.5 18.5zM717 289q-12 0 -18 -5t-8 -25t-2 -67
q0 -46 2 -66.5t8 -25.5t18 -5q13 0 19 5t8.5 25.5t2.5 66.5q0 47 -2.5 67t-8.5 25t-19 5z" />
    <glyph glyph-name="ampersand" unicode="&#x26;" horiz-adv-x="761" 
d="M335 704q32 0 76.5 -2t89.5 -12l-25 -140q-15 0 -31 0.5t-33.5 1t-37.5 1t-45 0.5q-22 0 -33.5 -5t-16 -19.5t-4.5 -42.5q0 -26 4.5 -41t16 -20.5t33.5 -5.5h394v-131h-406q-23 0 -34.5 -5.5t-15 -19.5t-3.5 -42q0 -29 3.5 -44.5t15 -21t34.5 -5.5q31 1 72.5 7t67.5 13
l15 -110q-27 -25 -56.5 -41.5t-68.5 -24.5t-96 -8q-76 0 -124 18.5t-70 60t-22 111.5q0 79 30.5 125.5t106.5 53.5v6q-62 6 -88.5 44.5t-26.5 114.5q0 61 15 97.5t48 55t86 25t129 6.5zM636 508v-326q0 -19 7.5 -27.5t25.5 -8.5h50l23 -134q-19 -9 -47 -14.5t-56 -8.5
t-47 -3q-72 0 -112.5 37t-40.5 103v232l19 150h178z" />
    <glyph glyph-name="quotesingle" unicode="'" horiz-adv-x="214" 
d="M179 690l-12 -228h-120l-12 228h144z" />
    <glyph glyph-name="parenleft" unicode="(" horiz-adv-x="372" 
d="M342 790l24 -88q-78 -31 -108 -133.5t-30 -255.5q0 -100 13 -179.5t43 -133.5t82 -77l-24 -88q-164 43 -240.5 159t-76.5 318q0 204 76.5 320t240.5 158z" />
    <glyph glyph-name="parenright" unicode=")" horiz-adv-x="372" 
d="M30 790q164 -42 240.5 -158t76.5 -320q0 -202 -76.5 -318t-240.5 -159l-24 88q52 23 82 77t43 133.5t13 179.5q0 153 -30 255.5t-108 133.5z" />
    <glyph glyph-name="asterisk" unicode="*" horiz-adv-x="456" 
d="M284 692l-16 -175l113 -129l-89 -66l-64 119l-63 -119l-90 66l115 128l-18 176h112zM57 622l113 -51v-49l-25 -30l-122 24zM399 623l34 -107l-120 -24l-25 30l-2 49z" />
    <glyph glyph-name="plus" unicode="+" horiz-adv-x="523" 
d="M497 381v-155h-471v155h471zM338 539v-471h-153v471h153z" />
    <glyph glyph-name="comma" unicode="," horiz-adv-x="255" 
d="M147 185q40 0 55.5 -15.5t16.5 -56.5v-64q0 -50 -8 -86.5t-23 -66t-36 -58.5l-78 25q11 34 14.5 68.5t4.5 68.5q-59 0 -61 64l3 49q1 41 16 56.5t55 15.5h41z" />
    <glyph glyph-name="hyphen" unicode="-" horiz-adv-x="379" 
d="M335 318v-122h-291v122h291z" />
    <glyph glyph-name="period" unicode="." horiz-adv-x="259" 
d="M153 185q41 0 56.5 -15.5t15.5 -56.5v-41q0 -40 -15.5 -56t-56.5 -16h-47q-41 0 -56.5 16t-15.5 56v41q0 41 15.5 56.5t56.5 15.5h47z" />
    <glyph glyph-name="slash" unicode="/" horiz-adv-x="588" 
d="M573 690l-393 -769h-165l393 769h165z" />
    <glyph glyph-name="zero" unicode="0" horiz-adv-x="658" 
d="M328 704q110 0 175 -32.5t93 -111t28 -215.5t-28 -215.5t-93 -111t-175 -32.5q-109 0 -173.5 32.5t-92.5 111t-28 215.5t28 215.5t92.5 111t173.5 32.5zM327 543q-24 0 -39 -6.5t-23.5 -26t-12 -59t-3.5 -106.5t3.5 -106.5t12 -59t23.5 -26t39 -6.5q25 0 41 6.5t25 26
t12.5 59t3.5 106.5t-3.5 106.5t-12.5 59t-25 26t-41 6.5z" />
    <glyph glyph-name="one" unicode="1" horiz-adv-x="466" 
d="M394 690v-690h-216v432q0 23 1.5 45t6.5 44l-159 -31l-25 133l176 67h216z" />
    <glyph glyph-name="two" unicode="2" horiz-adv-x="600" 
d="M297 702q77 0 134 -14t89 -51.5t32 -106.5q0 -36 -7 -65t-29.5 -61t-68.5 -78l-163 -154q23 7 45 9t47 1h192v-182h-535v108q0 26 7 47t23 40l144 141q56 56 89.5 99.5t33.5 66.5q0 10 -6 14t-19 5.5t-36 1.5h-69t-68.5 -0.5t-85.5 -1.5l-7 159q52 10 95.5 14.5t83.5 6
t79 1.5z" />
    <glyph glyph-name="three" unicode="3" horiz-adv-x="578" 
d="M285 704q89 0 141.5 -14.5t75.5 -49.5t23 -97q0 -51 -9 -87.5t-33.5 -58t-71.5 -28.5v-4q75 -11 103 -51.5t29 -121.5q1 -74 -24 -119.5t-81.5 -66t-151.5 -20.5q-64 0 -130.5 5.5t-127.5 13.5l6 152q47 -2 78.5 -3t58 -1.5t55.5 -0.5q41 0 63.5 4.5t31 19.5t8.5 46
q0 27 -6 42t-22.5 21.5t-48.5 5.5l-133 -2v132h133q25 0 39 4t21 11.5t9 19.5t2 27q0 23 -6.5 35t-23 16.5t-47.5 4.5h-106.5h-90.5l-6 146q61 10 122 14.5t120 4.5z" />
    <glyph glyph-name="four" unicode="4" horiz-adv-x="659" 
d="M382 690l-140 -387q-4 -11 1 -18t16 -7h383v-118l-77 -20h-476q-28 0 -48.5 14.5t-28 38.5t2.5 50l167 447h200zM563 554v-554h-197v448l35 106h162z" />
    <glyph glyph-name="five" unicode="5" horiz-adv-x="568" 
d="M520 690l-7 -155h-284l-6 -72l128 -17q59 -7 96 -29.5t57.5 -55.5t28.5 -70.5t8 -75.5q0 -48 -13 -89.5t-43 -72.5t-80 -48t-125 -17q-55 0 -121 5t-135 13l18 161q51 -2 97.5 -4t83.5 -2q40 0 61.5 6t30.5 19.5t11 36.5q2 18 -3 30t-16 20t-29 12t-44 6l-126 16
q-27 4 -43.5 23t-15.5 45l19 315h452z" />
    <glyph glyph-name="six" unicode="6" horiz-adv-x="608" 
d="M347 702q29 0 81 -2.5t108 -19.5l-8 -129h-55h-54h-72q-37 0 -58.5 -8t-31.5 -31t-12.5 -67.5t-2.5 -117.5q0 -63 2 -100.5t9 -56.5t21.5 -25t40.5 -6q32 0 46 9.5t17 31.5t3 61q0 32 -5.5 47.5t-20 20.5t-43.5 5q-23 0 -41.5 -6t-42.5 -19t-65 -36l-4 72q34 52 64 80.5
t66.5 39.5t87.5 11q81 0 125.5 -22t62.5 -68t18 -120q0 -69 -11.5 -118t-41 -80t-82 -45.5t-135.5 -14.5q-78 0 -131.5 15.5t-85.5 53.5t-46.5 107t-14.5 175q0 118 19.5 190t58.5 109.5t97.5 50.5t136.5 13z" />
    <glyph glyph-name="seven" unicode="7" horiz-adv-x="543" 
d="M457 690q29 0 50 -14t29 -37t-2 -50l-207 -589h-211l159 438q7 20 15.5 40t22.5 39h-290l-9 173h443z" />
    <glyph glyph-name="eight" unicode="8" horiz-adv-x="639" 
d="M320 704q83 0 135 -11t80.5 -33.5t39 -57.5t10.5 -84q0 -35 -11 -70t-34.5 -59.5t-62.5 -28.5v-4q52 -4 79 -31.5t37 -68t10 -84.5q0 -69 -23 -110t-84.5 -58.5t-175.5 -17.5q-112 0 -173.5 17.5t-85.5 58.5t-24 110q0 44 10 84.5t37 68t79 31.5v4q-38 4 -62 28.5
t-35 59.5t-11 70q0 49 11 84t39.5 57.5t80.5 33.5t134 11zM322 292q-25 0 -41.5 -3.5t-25 -12t-12 -24t-3.5 -40.5q0 -31 6.5 -47t24 -22t50.5 -6q32 0 49 6t23 22t6 47q0 25 -3.5 40.5t-11.5 24t-23 12t-39 3.5zM321 564q-29 0 -44.5 -5.5t-21.5 -21.5t-6 -48q0 -27 6 -41
t22.5 -19t45.5 -5t43.5 5t19.5 19t5 41q0 32 -5.5 48t-20.5 21.5t-44 5.5z" />
    <glyph glyph-name="nine" unicode="9" horiz-adv-x="608" 
d="M296 702q84 0 138 -15.5t84 -53.5t42 -106.5t12 -175.5q0 -118 -17 -190t-53.5 -109.5t-96 -50.5t-145.5 -13q-31 0 -86 3t-119 19l9 130q33 0 59 -0.5t57.5 -0.5h79.5q38 0 59.5 10.5t31 36t12 69t2.5 109.5q0 62 -2 99.5t-8.5 56.5t-21 25t-39.5 6q-30 0 -43.5 -9
t-17 -31.5t-3.5 -61.5q0 -31 5.5 -47t19.5 -21t41 -5q23 0 41 6t42 19.5t64 35.5l4 -72q-34 -52 -64 -80.5t-65.5 -39.5t-87.5 -11q-79 0 -123 26t-62 73.5t-18 110.5q0 92 22.5 148.5t81 83t165.5 26.5z" />
    <glyph glyph-name="colon" unicode=":" horiz-adv-x="277" 
d="M154 462q41 0 56.5 -15.5t15.5 -56.5v-41q0 -40 -15.5 -56t-56.5 -16h-47q-41 0 -56.5 16t-15.5 56v41q0 41 15.5 56.5t56.5 15.5h47zM154 186q41 0 56.5 -15.5t15.5 -56.5v-41q0 -40 -15.5 -56t-56.5 -16h-47q-41 0 -56.5 16t-15.5 56v41q0 41 15.5 56.5t56.5 15.5h47z
" />
    <glyph glyph-name="semicolon" unicode=";" horiz-adv-x="277" 
d="M163 462q41 0 56.5 -15.5t15.5 -56.5v-41q0 -40 -15.5 -56t-56.5 -16h-47q-41 0 -56.5 16t-15.5 56v41q0 41 15.5 56.5t56.5 15.5h47zM157 185q40 0 55.5 -15.5t16.5 -56.5v-64q0 -50 -8 -86.5t-23 -66t-36 -58.5l-78 25q11 34 14.5 68.5t4.5 68.5q-59 0 -61 64l3 49
q1 41 16 56.5t55 15.5h41z" />
    <glyph glyph-name="less" unicode="&#x3c;" horiz-adv-x="505" 
d="M461 541v-163l-259 -75l259 -75v-163l-435 158v161z" />
    <glyph glyph-name="equal" unicode="=" horiz-adv-x="571" 
d="M526 483v-146h-481v146h481zM526 267v-146h-481v146h481z" />
    <glyph glyph-name="greater" unicode="&#x3e;" horiz-adv-x="502" 
d="M44 541l432 -157v-161l-432 -158v163l256 75l-256 75v163z" />
    <glyph glyph-name="question" unicode="?" horiz-adv-x="536" 
d="M288 712q116 0 171.5 -37.5t55.5 -117.5q0 -43 -16.5 -74.5t-41.5 -57.5t-51.5 -53t-46.5 -61.5t-26 -83.5h-164q-3 50 7.5 89t28.5 69.5t37 54t33 41.5t17 32q5 19 -8 26t-48 7h-84h-60.5h-62.5l-5 138q31 6 56.5 11t53.5 9t64.5 6t89.5 2zM274 185q41 0 56.5 -15.5
t15.5 -56.5v-41q0 -41 -15.5 -56.5t-56.5 -15.5h-47q-41 0 -56.5 15.5t-15.5 56.5v41q0 41 15.5 56.5t56.5 15.5h47z" />
    <glyph glyph-name="at" unicode="@" horiz-adv-x="801" 
d="M561 617q96 0 147 -41t51 -148v-290h-153l-16 63q-15 -19 -37 -36.5t-51.5 -28.5t-67.5 -11q-41 0 -76.5 14.5t-57 43t-21.5 70.5v45q0 55 39.5 86.5t107.5 31.5h141v13q0 24 -10.5 34.5t-39.5 10.5h-118q-57 0 -90.5 -4t-50.5 -22t-22.5 -60t-5.5 -118q0 -64 4 -103.5
t16.5 -60.5t37 -29.5t64.5 -9.5t99 -1h309v-128q-76 -7 -154 -12t-155 -5q-111 0 -185.5 7.5t-120 28t-68.5 59t-30.5 101t-7.5 153.5t6.5 152.5t27 100t60 59t104.5 28t162 7.5h162zM567 329l-69 -5q-16 -1 -25 -8.5t-9 -19.5v-14q0 -12 9.5 -20t27.5 -8q10 0 21.5 2.5
t23 7.5t21.5 11v54z" />
    <glyph glyph-name="A" unicode="A" horiz-adv-x="683" 
d="M440 690q26 0 46 -15t27 -41l179 -634h-221l-104 449q-4 19 -7 39.5t-5 39.5h-27q-2 -19 -5 -39.5t-7 -39.5l-104 -449h-221l179 634q7 26 27 41t46 15h197zM525 301v-152h-367v152h367z" />
    <glyph glyph-name="B" unicode="B" horiz-adv-x="660" 
d="M350 698q96 0 153 -15.5t82 -54.5t25 -110q0 -74 -29 -112.5t-97 -44.5v-6q83 -7 116 -53.5t33 -129.5q0 -71 -26.5 -110t-81.5 -54.5t-142 -15.5q-74 0 -130.5 0.5t-104 2.5t-96.5 5l16 142q26 -1 101 -2t175 -1q30 0 46 6t21.5 23t5.5 48q0 32 -6 49t-21.5 23t-46.5 6
h-276v127h274q25 0 38.5 5t18.5 19.5t5 41.5t-5 40.5t-19 18.5t-40 5q-63 0 -110 0.5t-85 0t-76 -3.5l-16 142q45 4 88 5.5t93.5 2t116.5 0.5zM264 690v-690h-212v690h212z" />
    <glyph glyph-name="C" unicode="C" horiz-adv-x="605" 
d="M345 702q54 0 92 -3t69.5 -8.5t65.5 -15.5l-16 -158q-35 1 -65 1t-64 0.5t-82 0.5q-34 0 -52.5 -14.5t-25.5 -52t-7 -107.5t7 -107.5t25.5 -52t52.5 -14.5q75 0 125.5 1.5t100.5 6.5l16 -158q-52 -18 -106.5 -25.5t-135.5 -7.5q-114 0 -183 34.5t-99.5 112.5t-30.5 210
t30.5 210t99.5 112.5t183 34.5z" />
    <glyph glyph-name="D" unicode="D" horiz-adv-x="701" 
d="M347 700q89 0 150.5 -16.5t99.5 -56t55 -108.5t17 -174t-17 -174t-55 -108.5t-99.5 -56t-150.5 -16.5q-86 0 -158 3t-137 7l88 154q35 -4 88.5 -5.5t118.5 -1.5q37 0 57 16t28 59t8 123t-8 123t-28 59t-57 16h-107.5t-90.5 1l-97 146q66 4 136.5 7t158.5 3zM269 690v-690
h-217v690h217z" />
    <glyph glyph-name="E" unicode="E" horiz-adv-x="596" 
d="M209 694q60 0 123.5 -0.5t124.5 -3t111 -9.5l-10 -153h-253q-19 0 -30 -10t-11 -26v-294q0 -16 11 -26t30 -10h253l10 -153q-50 -6 -111 -9t-124.5 -3.5t-123.5 -0.5q-71 0 -116.5 43.5t-45.5 113.5v384q0 70 45.5 113.5t116.5 43.5zM65 425h457v-144h-457v144z" />
    <glyph glyph-name="F" unicode="F" horiz-adv-x="574" 
d="M214 694q58 0 120 -0.5t121 -3.5t106 -10l-10 -152h-241q-20 0 -31.5 -10t-11.5 -26v-492h-217v537q0 70 46 113.5t118 43.5zM68 411h446v-144h-446v144z" />
    <glyph glyph-name="G" unicode="G" horiz-adv-x="668" 
d="M357 704q55 0 96.5 -3t77 -9t71.5 -17l-16 -156q-38 1 -72.5 1t-71.5 0.5t-84 0.5q-29 0 -48 -7.5t-30 -27t-15.5 -54t-4.5 -87.5q0 -70 8 -107.5t27 -52t53 -14.5q22 0 40.5 1.5t33.5 4.5t24 5l21 -91q-12 -20 -39.5 -45t-69.5 -42.5t-97 -17.5q-79 0 -130 35.5
t-75 114.5t-24 209q0 133 31.5 211.5t103 113t190.5 34.5zM631 397v-397h-160l-28 107l-20 37v253h208z" />
    <glyph glyph-name="H" unicode="H" horiz-adv-x="714" 
d="M270 690v-690h-217v690h217zM455 442v-152h-193v152h193zM661 690v-690h-217v690h217z" />
    <glyph glyph-name="I" unicode="I" horiz-adv-x="321" 
d="M268 690v-690h-215v690h215z" />
    <glyph glyph-name="J" unicode="J" horiz-adv-x="404" 
d="M354 690v-563q0 -67 -49 -104t-134 -37q-22 0 -53.5 3t-61 8.5t-46.5 14.5l23 136h47q59 0 59 35v507h215z" />
    <glyph glyph-name="K" unicode="K" horiz-adv-x="676" 
d="M675 690l-159 -270q-13 -23 -30 -39t-31 -22v-4q14 -6 35.5 -25.5t33.5 -42.5l161 -287h-241l-183 361l181 329h233zM270 690v-174q0 -38 -7.5 -78.5t-23.5 -75.5q12 -32 21.5 -69.5t9.5 -67.5v-225h-217v690h217zM324 428v-140h-116v140h116z" />
    <glyph glyph-name="L" unicode="L" horiz-adv-x="557" 
d="M267 690v-482q0 -16 11.5 -26t30.5 -10h232l10 -162q-77 -10 -164.5 -12t-172.5 -2q-75 0 -119.5 43.5t-44.5 113.5v537h217z" />
    <glyph glyph-name="M" unicode="M" horiz-adv-x="952" 
d="M812 690q73 0 76 -75l24 -615h-195l-21 528h-15l-68 -352q-10 -66 -82 -66h-112q-71 0 -83 66l-69 352h-15l-17 -528h-195l24 615q3 75 76 75h187q70 0 82 -67l50 -274q4 -25 6.5 -51t4.5 -52h9q3 26 5.5 52t6.5 51l47 274q12 67 83 67h191z" />
    <glyph glyph-name="N" unicode="N" horiz-adv-x="738" 
d="M687 690v-615q0 -75 -75 -75h-83q-34 0 -50.5 16t-33.5 47l-150 237q-14 26 -25.5 56.5t-20.5 61.5h-7q5 -31 7.5 -63.5t2.5 -62.5v-292h-200v615q0 75 75 75h83q34 0 50 -16t34 -47l144 -226q14 -25 27.5 -55t25.5 -63h7q-4 32 -6.5 63t-2.5 62l-1 282h199z" />
    <glyph glyph-name="O" unicode="O" horiz-adv-x="707" 
d="M353 704q89 0 150.5 -16.5t99.5 -56.5t55 -109.5t17 -176.5q0 -106 -17 -176t-55 -110t-99.5 -56.5t-150.5 -16.5q-88 0 -149.5 16.5t-99.5 56.5t-55 110t-17 176q0 107 17 176.5t55 109.5t99.5 56.5t149.5 16.5zM353 543q-37 0 -57 -16t-28 -59t-8 -123t8 -123t28 -59
t57 -16t57 16t28 59t8 123t-8 123t-28 59t-57 16z" />
    <glyph glyph-name="P" unicode="P" horiz-adv-x="646" 
d="M344 700q110 0 172 -20.5t88 -71.5t26 -143q0 -91 -24.5 -141.5t-80.5 -71t-151 -20.5q-50 0 -100 5.5t-93.5 14t-74.5 18t-43 17.5l3 98h135h138q30 0 46 6.5t22 24t6 49.5q0 33 -6 51t-22 24.5t-46 6.5q-102 0 -174 -1t-98 -4l-15 148q46 5 86.5 7t88.5 2.5t117 0.5z
M269 690v-690h-217v690h217z" />
    <glyph glyph-name="Q" unicode="Q" horiz-adv-x="707" 
d="M353 704q89 0 150.5 -16.5t99.5 -56.5t55 -109.5t17 -176.5q0 -106 -17 -176t-55 -110t-99.5 -56.5t-150.5 -16.5q-88 0 -149.5 16.5t-99.5 56.5t-55 110t-17 176q0 107 17 176.5t55 109.5t99.5 56.5t149.5 16.5zM294 -26q75 -28 154.5 -44t174.5 -30l-53 -175
q-102 29 -182.5 66.5t-139.5 79.5zM353 543q-37 0 -57 -16t-28 -59t-8 -123t8 -123t28 -59t57 -16t57 16t28 59t8 123t-8 123t-28 59t-57 16z" />
    <glyph glyph-name="R" unicode="R" horiz-adv-x="676" 
d="M345 700q102 0 166 -19t94.5 -64.5t30.5 -126.5q0 -41 -12.5 -76.5t-43 -58.5t-84.5 -29v-6q19 -2 42 -11.5t43 -32t28 -64.5l54 -212h-227l-45 205q-6 29 -18.5 38t-40.5 9q-75 1 -122.5 1t-80.5 1t-66 3l3 148h274q31 0 48 6t23.5 21.5t6.5 43.5q0 29 -6.5 44t-23.5 21
t-48 6q-104 0 -175 -1t-97 -4l-16 148q46 5 86.5 7t89 2.5t117.5 0.5zM265 690v-690h-213v690h213z" />
    <glyph glyph-name="S" unicode="S" horiz-adv-x="610" 
d="M314 704q54 0 121.5 -6.5t129.5 -28.5l-13 -139q-45 1 -111.5 1.5t-131.5 0.5q-19 0 -31.5 -1t-19.5 -4t-10 -8t-3 -13q0 -14 12.5 -23.5t47.5 -23.5l125 -52q86 -37 120.5 -85.5t34.5 -124.5q0 -58 -14 -98.5t-46.5 -65t-86.5 -36t-135 -11.5q-35 0 -106 5.5t-161 28.5
l13 152q60 -1 110 -2.5t86.5 -2t54.5 -0.5q28 0 42.5 2t20 7.5t5.5 14.5q0 10 -4 16.5t-14 12.5t-29 13l-137 60q-84 38 -119 85t-35 123q0 59 15.5 98t48.5 62t87.5 33t132.5 10z" />
    <glyph glyph-name="T" unicode="T" horiz-adv-x="623" 
d="M420 690v-690h-217v690h217zM613 690v-162h-603v162h603z" />
    <glyph glyph-name="U" unicode="U" horiz-adv-x="705" 
d="M658 690v-405q0 -110 -28.5 -175.5t-93 -94.5t-172.5 -29q-117 0 -186.5 29t-100 94.5t-30.5 175.5v405h217v-405q0 -55 7.5 -85t27 -41.5t54.5 -11.5t54 11.5t26.5 41.5t7.5 85v405h217z" />
    <glyph glyph-name="V" unicode="V" horiz-adv-x="670" 
d="M672 690l-168 -632q-6 -26 -26 -42t-48 -16h-190q-28 0 -48 16t-26 42l-168 632h223l89 -449q4 -19 7 -39.5t6 -39.5h24q2 19 5.5 39.5t7.5 39.5l89 449h223z" />
    <glyph glyph-name="W" unicode="W" horiz-adv-x="1003" 
d="M983 690l-86 -632q-4 -26 -25 -42t-49 -16h-184q-28 0 -49.5 16t-24.5 42l-47 381q-3 25 -4.5 50.5t-3.5 50.5h-17q-1 -25 -3 -51t-5 -51l-46 -380q-3 -26 -24.5 -42t-49.5 -16h-185q-28 0 -49 16t-25 42l-86 632h214l35 -423q2 -25 3 -53.5t1 -61.5h16q4 26 8.5 57.5
t7.5 58.5l46 358q3 29 23.5 46.5t49.5 17.5h155q29 0 49 -17.5t24 -46.5l47 -360q3 -27 7 -57t8 -57h16q0 28 2 58t3 55l34 425h214z" />
    <glyph glyph-name="X" unicode="X" horiz-adv-x="677" 
d="M668 690l-157 -338l171 -352h-215l-156 352l143 338h214zM223 690l143 -338l-156 -352h-215l171 352l-157 338h214zM434 414v-120h-208v120h208z" />
    <glyph glyph-name="Y" unicode="Y" horiz-adv-x="654" 
d="M664 690l-233 -485h-208l-233 485h223l87 -217q9 -22 13 -48t8 -49h13q4 23 8.5 49.5t12.5 48.5l86 216h223zM436 328v-328h-217v328h217z" />
    <glyph glyph-name="Z" unicode="Z" horiz-adv-x="605" 
d="M328 539l239 -1l-299 -387l-239 1zM577 152v-152h-548v152h548zM567 690v-152h-528v152h528z" />
    <glyph glyph-name="bracketleft" unicode="[" horiz-adv-x="363" 
d="M339 768v-128h-60q-22 0 -22 -22v-633q0 -22 22 -22h60v-128h-177q-45 0 -73 20.5t-28 80.5v731q0 45 28 73t73 28h177z" />
    <glyph glyph-name="backslash" unicode="\" horiz-adv-x="588" 
d="M180 690l393 -769h-165l-393 769h165z" />
    <glyph glyph-name="bracketright" unicode="]" horiz-adv-x="363" 
d="M201 768q45 0 73 -28t28 -73v-731q0 -45 -28 -73t-73 -28h-177v128h60q22 0 22 22v633q0 22 -22 22h-60v128h177z" />
    <glyph glyph-name="asciicircum" unicode="^" horiz-adv-x="497" 
d="M326 653l141 -239l-81 -42l-132 157h-8l-136 -157l-80 42l144 239h152z" />
    <glyph glyph-name="underscore" unicode="_" horiz-adv-x="451" 
d="M451 0v-122h-451v122h451z" />
    <glyph glyph-name="grave" unicode="`" horiz-adv-x="392" 
d="M119 767l233 -150l-57 -86l-255 103z" />
    <glyph glyph-name="a" unicode="a" 
d="M333 514q71 0 119.5 -18.5t74 -63t25.5 -122.5v-310h-167l-29 107l-14 20v184q-1 26 -13.5 38t-45.5 12q-39 0 -95.5 -1t-120.5 -4l-19 133q38 7 90.5 12.5t104.5 9t90 3.5zM471 307l-1 -101h-207q-19 0 -28.5 -8.5t-9.5 -22.5v-16q0 -13 10.5 -22t31.5 -9q24 0 50 11.5
t50 29.5t41 37v-64q-7 -17 -22 -43t-40.5 -52t-63 -43.5t-89.5 -17.5q-46 0 -85.5 16t-63 47.5t-23.5 78.5v50q0 60 44.5 94.5t120.5 34.5h285z" />
    <glyph glyph-name="b" unicode="b" horiz-adv-x="618" 
d="M402 514q105 0 147 -60.5t42 -197.5q0 -51 -10.5 -98.5t-38.5 -86t-81 -61t-139 -22.5q-27 0 -66 2.5t-80 7.5t-76.5 13t-57.5 19l168 113q10 -4 30 -8t42 -5.5t36 -0.5q22 2 34 12t17.5 36.5t5.5 77.5q0 43 -5 64.5t-18.5 29.5t-37.5 8q-26 0 -44 -6.5t-38 -14.5l-15 82
q21 24 49.5 46t63 36t72.5 14zM252 700l2 -139q1 -36 -4.5 -73.5t-18.5 -69.5l21 -12v-386l-210 10v670h210z" />
    <glyph glyph-name="c" unicode="c" horiz-adv-x="528" 
d="M294 514q31 0 68 -3t74 -11t67 -23l-21 -130h-84h-68t-50.5 -8t-26 -28.5t-7.5 -59.5t7.5 -60t26 -29t50.5 -8q17 0 42.5 0.5t56.5 2t62 4.5l19 -131q-44 -23 -102 -32.5t-116 -9.5q-98 0 -156.5 25.5t-84 83.5t-25.5 154q0 97 26 154.5t85 83t157 25.5z" />
    <glyph glyph-name="d" unicode="d" horiz-adv-x="620" 
d="M218 514q57 0 106.5 -17t80.5 -59l-15 -82q-20 6 -38.5 13.5t-49.5 7.5q-21 0 -33.5 -7.5t-18.5 -32.5t-6 -79q0 -46 5.5 -67.5t18 -28t31.5 -6.5q22 0 37 3.5t26.5 9.5t24.5 13l13 -86q-20 -46 -65.5 -77t-125.5 -31q-98 0 -139.5 70.5t-41.5 197.5q0 103 21.5 158.5
t64 77.5t104.5 22zM577 700v-700h-167l-20 96l-23 16v314l6 12q-2 32 -4 69.5t-2 73.5v119h210z" />
    <glyph glyph-name="e" unicode="e" 
d="M309 514q141 0 200 -45t60 -133q1 -70 -41.5 -101t-152.5 -31h-269v99h210q34 0 43 6.5t9 31.5q0 24 -12 31t-41 7q-29 1 -44 -6t-20.5 -30.5t-5.5 -73.5q0 -46 6.5 -72t25.5 -37t56 -11q30 0 84.5 2t118.5 9l19 -126q-35 -18 -75 -28t-82.5 -14t-87.5 -4q-104 0 -167 29
t-90.5 86.5t-27.5 142.5q0 99 28 157.5t90.5 84.5t165.5 26z" />
    <glyph glyph-name="f" unicode="f" horiz-adv-x="427" 
d="M276 724q20 0 53.5 -1.5t69 -4.5t60.5 -8l-20 -126h-88q-28 0 -38 -11.5t-10 -40.5v-532h-211v561q0 47 17.5 84t58 58t108.5 21zM422 500v-126h-414v121l85 5h329z" />
    <glyph glyph-name="g" unicode="g" horiz-adv-x="604" 
d="M288 514q94 0 150 -15.5t81 -50t25 -92.5t-24.5 -92.5t-81 -50t-151.5 -15.5q-94 0 -151 15.5t-82 50t-25 92.5t25.5 92.5t82.5 50t151 15.5zM287 399q-37 0 -50 -8.5t-13 -34.5t13 -35t50 -9t49.5 9t12.5 35t-12.5 34.5t-49.5 8.5zM601 500l-10 -77l-140 -24l-37 101
h187zM128 226l97 -17q-11 -2 -16 -14.5t2 -24.5t30 -14l182 -12q86 -6 123 -44.5t37 -112.5q0 -71 -30 -107t-93.5 -48.5t-165.5 -12.5q-90 0 -146 8t-87 24.5t-42.5 43.5t-11.5 66q0 31 12.5 54.5t45.5 42t94 32.5l86 19l68 -26l-32 -17q-30 -21 -47 -31.5t-24 -18
t-7 -23.5q0 -13 7.5 -20t27 -9.5t53.5 -2.5q38 0 59 2t29 8t8 17q0 13 -8 18.5t-25.5 8t-44.5 4.5l-136 10q-45 4 -71 22.5t-35.5 45t-5 53.5t22 48t44.5 28z" />
    <glyph glyph-name="h" unicode="h" horiz-adv-x="621" 
d="M433 514q148 0 148 -140v-374h-210v307q0 17 -8 23.5t-28 6.5q-19 0 -42.5 -3t-61.5 -16l-22 91q53 53 111.5 79t112.5 26zM253 700l1 -149q0 -45 -6.5 -86.5t-14.5 -66.5l20 -12v-386h-210v700h210z" />
    <glyph glyph-name="i" unicode="i" horiz-adv-x="303" 
d="M256 500v-500h-209v500h209zM196 729q61 0 61 -62v-51q0 -62 -61 -62h-89q-61 0 -61 62v51q0 62 61 62h89z" />
    <glyph glyph-name="j" unicode="j" horiz-adv-x="304" 
d="M257 500v-442q0 -52 -19.5 -101t-55.5 -87.5t-87 -59.5l-116 92q40 40 54.5 76.5t14.5 79.5v442h209zM194 739q61 0 61 -62v-51q0 -62 -61 -62h-89q-61 0 -61 62v51q0 62 61 62h89z" />
    <glyph glyph-name="k" unicode="k" horiz-adv-x="609" 
d="M599 500l-105 -164q-11 -20 -29 -36.5t-29 -23.5v-4q11 -6 29 -26t29 -41l124 -205h-231l-146 277l128 223h230zM253 700v-268q0 -38 -5 -78t-16 -75q8 -32 14.5 -69.5t6.5 -66.5v-143h-210v700h210zM308 334v-118h-117v118h117z" />
    <glyph glyph-name="l" unicode="l" horiz-adv-x="358" 
d="M253 700v-518q0 -19 12.5 -27.5t37.5 -8.5h34l23 -134q-15 -9 -42.5 -14.5t-56 -8.5t-48.5 -3q-79 0 -124 37t-45 103v574h209z" />
    <glyph glyph-name="m" unicode="m" horiz-adv-x="885" 
d="M701 514q71 0 107.5 -35.5t36.5 -104.5v-374h-209v307q0 17 -7 23.5t-26 6.5q-9 0 -18.5 -1t-23 -5t-34.5 -13l-11 103q44 47 86.5 70t98.5 23zM207 500l25 -102l20 -12v-386h-209v500h164zM404 514q69 0 105 -35.5t36 -104.5v-374h-202v307q0 17 -8 23.5t-26 6.5
q-9 0 -19 -1t-24 -5t-36 -13l-11 103q44 47 86 70t99 23z" />
    <glyph glyph-name="n" unicode="n" horiz-adv-x="621" 
d="M433 514q148 0 148 -140v-374h-210v307q0 17 -8 23.5t-28 6.5q-19 0 -42.5 -3t-61.5 -16l-10 103q50 47 105 70t107 23zM208 500l26 -102l19 -12v-386h-210v500h165z" />
    <glyph glyph-name="o" unicode="o" horiz-adv-x="611" 
d="M306 514q102 0 163.5 -25.5t88.5 -83.5t27 -156q0 -96 -27 -153t-88.5 -82.5t-163.5 -25.5t-163.5 25.5t-89 82.5t-27.5 153q0 98 27.5 156t89 83.5t163.5 25.5zM306 372q-24 0 -37 -9.5t-18 -35.5t-5 -78q0 -50 5 -75.5t18 -34.5t37 -9t37 9t17.5 34.5t4.5 75.5
q0 52 -4.5 78t-17.5 35.5t-37 9.5z" />
    <glyph glyph-name="p" unicode="p" horiz-adv-x="620" 
d="M412 512q98 0 139 -70t41 -198q0 -103 -21.5 -159t-63.5 -77.5t-104 -21.5q-57 0 -106.5 17t-79.5 59l14 82q20 -7 38.5 -14t49.5 -7q21 0 33.5 7.5t18 33t5.5 78.5q0 54 -5.5 79.5t-17.5 32.5t-31 7q-26 0 -41 -5.5t-31 -13.5l-29 79q13 25 41.5 45.5t67.5 33t82 12.5z
M211 500l20 -79l22 -16v-331l-6 -12q3 -32 5 -70t1 -73v-99h-210v680h168z" />
    <glyph glyph-name="q" unicode="q" horiz-adv-x="618" 
d="M296 514q27 0 66 -2.5t80 -7.5t76.5 -13t57.5 -19l-168 -114q-9 5 -29.5 9t-42.5 5.5t-36 0.5q-22 -1 -34.5 -11.5t-17.5 -37t-5 -77.5q0 -58 12.5 -75t47.5 -17q27 0 46.5 7t39.5 14l15 -73q-15 -23 -43 -50t-65.5 -46t-80.5 -19q-104 0 -146 68t-42 190q0 58 10.5 107
t38.5 85t81.5 56t138.5 20zM366 482l210 -10v-652h-210v130q-1 36 4.5 74t16.5 70l-21 12v376z" />
    <glyph glyph-name="r" unicode="r" horiz-adv-x="452" 
d="M207 500l26 -102l20 -12v-386h-210v500h164zM450 514l-18 -192h-53q-27 0 -60.5 -2.5t-87.5 -11.5l-12 113q49 47 101 70t101 23h29z" />
    <glyph glyph-name="s" unicode="s" horiz-adv-x="553" 
d="M256 514q40 0 87.5 -3t92.5 -7.5t76 -11.5l-13 -122h-100.5h-96.5q-33 0 -49 -0.5t-21 -2.5t-5 -9q0 -8 11.5 -11t47.5 -13l115 -29q67 -19 99.5 -52.5t32.5 -98.5q0 -63 -24 -99t-77.5 -51t-140.5 -15q-36 0 -106.5 3.5t-153.5 17.5l13 122h41.5h65h71.5q48 0 71 0.5
t30 4t7 10.5q0 9 -13 12.5t-52 14.5l-110 30q-55 16 -83 39.5t-38 54.5t-10 70q0 46 21.5 78.5t72 50t138.5 17.5z" />
    <glyph glyph-name="t" unicode="t" horiz-adv-x="438" 
d="M305 631v-449q0 -19 10 -27.5t33 -8.5h53l23 -134q-21 -9 -52 -14.5t-62.5 -8.5t-55.5 -3q-73 0 -116 37t-43 103l-1 505h211zM426 500v-126h-416v121l96 5h320z" />
    <glyph glyph-name="u" unicode="u" horiz-adv-x="615" 
d="M250 500v-307q0 -16 9 -23.5t28 -7.5q20 0 41 3.5t55 16.5l12 -103q-51 -47 -101 -70t-106 -23q-148 0 -148 140v374h210zM572 500v-500h-165l-26 102l-20 12v386h211z" />
    <glyph glyph-name="v" unicode="v" horiz-adv-x="601" 
d="M604 500l-148 -451q-7 -22 -24.5 -35.5t-41.5 -13.5h-179q-24 0 -41.5 13.5t-24.5 35.5l-148 451h222l61 -276q5 -23 8 -47t6 -47h13q3 23 7 47t8 47l60 276h222z" />
    <glyph glyph-name="w" unicode="w" horiz-adv-x="876" 
d="M868 500l-102 -447q-5 -24 -23.5 -38.5t-44.5 -14.5h-147q-28 0 -48.5 17t-23.5 45l-29 227q-2 23 -3 44.5t-3 43.5h-13q-1 -22 -3 -43.5t-4 -44.5l-29 -227q-3 -28 -23.5 -45t-48.5 -17h-145q-25 0 -44 14.5t-24 38.5l-102 447h208l36 -281q2 -22 4.5 -44t3.5 -45h12
q2 23 4.5 45t4.5 44l28 220q3 27 23 44t48 17h115q28 0 48 -17t23 -45l27 -219q2 -22 5.5 -44t4.5 -45h12q2 23 4 45t5 44l35 281h209z" />
    <glyph glyph-name="x" unicode="x" horiz-adv-x="606" 
d="M598 500l-134 -245l145 -255h-208l-133 255l123 245h207zM215 500l123 -245l-133 -255h-208l145 255l-134 245h207zM407 316v-118h-206v118h206z" />
    <glyph glyph-name="y" unicode="y" horiz-adv-x="602" 
d="M604 500l-159 -486q-13 -41 -37.5 -85t-64 -78.5t-96.5 -49t-135 1.5l-14 113q62 13 98.5 34.5t55.5 63.5l37 80q11 25 19.5 64t13.5 66l59 276h223zM220 500l59 -276q4 -23 7 -47t6 -47h30l-65 -130h-46q-24 0 -41.5 13.5t-24.5 35.5l-148 451h223z" />
    <glyph glyph-name="z" unicode="z" horiz-adv-x="541" 
d="M262 366l244 -1l-233 -231l-244 1zM512 135v-135h-483v135h483zM506 500v-135h-471v135h471z" />
    <glyph glyph-name="braceleft" unicode="{" horiz-adv-x="359" 
d="M330 768v-128q-36 0 -49.5 -4.5t-13.5 -33.5v-125q1 -42 -8.5 -73t-35 -50t-72.5 -26q47 -12 73 -33t36.5 -49t10.5 -63v-185q0 -29 13.5 -32t49.5 -3v-128q-93 -15 -151 1.5t-85 55t-27 89.5v222q0 22 -5 32t-15.5 15.5t-28.5 12.5v130q19 6 28.5 10.5t13 16t3.5 37.5
v165q0 52 27 90t85 54.5t151 1.5z" />
    <glyph glyph-name="bar" unicode="|" horiz-adv-x="276" 
d="M211 781v-950h-146v950h146z" />
    <glyph glyph-name="braceright" unicode="}" horiz-adv-x="359" 
d="M29 768q93 15 151 -1.5t85 -54.5t27 -90v-165q0 -26 3.5 -37.5t13.5 -16t28 -10.5v-130q-17 -7 -28 -12.5t-16 -15.5t-5 -32v-222q0 -51 -27 -89.5t-85 -55t-151 -1.5v128q36 0 49.5 3t13.5 32v185q1 35 11 63t36 49t73 33q-47 7 -72.5 26t-35 50t-8.5 73v125
q0 29 -13.5 33.5t-49.5 4.5v128z" />
    <glyph glyph-name="asciitilde" unicode="~" horiz-adv-x="500" 
d="M130 376q18 0 48.5 -6t63.5 -14t60 -14.5t37 -8.5q23 -4 26 5t3 33h87q16 -87 -11 -128.5t-74 -40.5q-18 0 -48 6t-62.5 13.5t-60 14.5t-39.5 9q-22 4 -25 -5t-3 -33h-87q-10 60 0 97.5t33.5 55t51.5 16.5z" />
    <glyph glyph-name="uni00A0" unicode="&#xa0;" horiz-adv-x="210" 
 />
    <glyph glyph-name="exclamdown" unicode="&#xa1;" horiz-adv-x="312" 
d="M238 293l22 -234v-234h-208v234l22 234h164zM180 520q41 0 56.5 -15.5t15.5 -56.5v-41q0 -41 -15.5 -56.5t-56.5 -15.5h-47q-41 0 -56.5 15.5t-15.5 56.5v41q0 41 15.5 56.5t56.5 15.5h47z" />
    <glyph glyph-name="cent" unicode="&#xa2;" horiz-adv-x="541" 
d="M296 610q31 0 68.5 -3t75 -11t67.5 -23l-21 -120h-85h-69q-39 0 -61 -8.5t-30.5 -31t-8.5 -66.5t8.5 -67t30.5 -31.5t61 -8.5q17 0 43 0.5t57 2t63 4.5l19 -121q-45 -23 -103 -32.5t-117 -9.5q-99 0 -158 25.5t-85 83.5t-26 154q0 97 26.5 154.5t86 83t158.5 25.5z
M327 175l-21 -175h-55l21 175h55zM370 490l-40 -315h-55l40 315h55zM398 690l-25 -200h-55l24 200h56z" />
    <glyph glyph-name="sterling" unicode="&#xa3;" horiz-adv-x="603" 
d="M319 703q23 0 60 -1t82.5 -3t91.5 -6l-10 -155h-23h-26.5h-48h-87.5q-28 0 -39.5 -9.5t-9.5 -29.5l21 -195q4 -45 -6.5 -72t-29 -43.5t-38.5 -31.5q21 8 42.5 9t43.5 1h233v-167h-537v167q53 25 67 59.5t9 77.5l-17 205q-4 58 7.5 95.5t39 59t71 30.5t104.5 9zM489 414
l-5 -100h-447l-2 100h454z" />
    <glyph glyph-name="currency" unicode="&#xa4;" horiz-adv-x="575" 
d="M287 445q-24 0 -44.5 -12.5t-33 -33t-12.5 -45.5q0 -26 12.5 -47t33 -33.5t44.5 -12.5t44.5 12.5t33 33.5t12.5 46q0 26 -12.5 46.5t-33 33t-44.5 12.5zM122 604l87 -88l-85 -85l-88 88zM457 604l85 -85l-85 -85l-85 85zM126 287l91 -92l-95 -95l-92 92zM448 276l94 -92
l-86 -85l-93 92zM287 561q58 0 105 -28.5t75.5 -75.5t28.5 -105q0 -57 -28.5 -104.5t-75.5 -76t-105 -28.5q-57 0 -104.5 28.5t-76 76t-28.5 104.5q0 58 28.5 105t76 75.5t104.5 28.5z" />
    <glyph glyph-name="yen" unicode="&#xa5;" horiz-adv-x="710" 
d="M692 690l-233 -485h-208l-233 485h223l87 -217q9 -22 13 -48t8 -49h13q4 23 8.5 49.5t12.5 48.5l86 216h223zM464 328v-328h-217v328h217zM611 228v-100h-510l-2 100h512zM611 358v-100h-510l-2 100h512z" />
    <glyph glyph-name="brokenbar" unicode="&#xa6;" horiz-adv-x="278" 
d="M212 781v-400h-146v400h146zM212 231v-400h-146v400h146z" />
    <glyph glyph-name="section" unicode="&#xa7;" horiz-adv-x="565" 
d="M201 330q0 -36 6.5 -55t24.5 -31.5t52 -31.5l145 -76q19 -10 43 -26t42 -48.5t18 -92.5q0 -65 -28 -101.5t-83.5 -50.5t-138.5 -14q-22 0 -64 1t-89 4t-83 7l14 142q24 -1 44 -1.5t46 -0.5h67q32 0 51 2t28 6.5t11 13.5q4 16 -10 25.5t-33 17.5l-115 55q-62 30 -89.5 66
t-26.5 82.5t24 106.5h144zM283 704q22 0 63.5 -1.5t88.5 -4t84 -6.5l-14 -142q-24 2 -45.5 2t-47 -0.5t-64.5 -0.5q-31 0 -50.5 -1.5t-28.5 -5.5t-11 -14q-4 -16 10 -26t33 -18l115 -54q63 -29 90 -65.5t26 -82.5t-24 -107h-144q0 36 -6 54.5t-24 31.5t-53 32l-145 76
q-18 10 -42 26t-42.5 48.5t-18.5 91.5q0 66 28 102.5t83.5 50.5t138.5 14z" />
    <glyph glyph-name="dieresis" unicode="&#xa8;" horiz-adv-x="436" 
d="M347 720q39 0 39 -39v-63q0 -39 -39 -39h-69q-39 0 -39 39v63q0 39 39 39h69zM158 720q39 0 39 -39v-63q0 -39 -39 -39h-69q-39 0 -39 39v63q0 39 39 39h69z" />
    <glyph glyph-name="copyright" unicode="&#xa9;" horiz-adv-x="782" 
d="M391 704q77 0 143 -26.5t115.5 -74.5t77.5 -114t28 -144t-28 -144t-77.5 -114t-115.5 -74.5t-143 -26.5q-76 0 -142.5 26.5t-116 74.5t-77.5 114t-28 144t28 144t77.5 114t116 74.5t142.5 26.5zM395 541q50 0 78.5 -4t60.5 -12l-11 -109q-32 -1 -58.5 -0.5t-69.5 0.5
q-16 0 -23.5 -5t-9.5 -20t-2 -45t2 -45t9.5 -20t23.5 -5q45 0 75.5 0.5t61.5 2.5l11 -108q-33 -11 -65.5 -16t-82.5 -5q-71 0 -113.5 19t-61.5 62t-19 115t19 115t61.5 61.5t113.5 18.5zM391 607q-54 0 -101 -19.5t-83.5 -54.5t-57 -83t-20.5 -105t20.5 -105t57 -83
t83.5 -54.5t101 -19.5t101.5 19.5t83.5 54.5t56.5 83t20.5 105t-20.5 105t-56.5 83t-83.5 54.5t-101.5 19.5z" />
    <glyph glyph-name="ordfeminine" unicode="&#xaa;" horiz-adv-x="433" 
d="M243 623q73 0 111.5 -30t38.5 -111v-205h-121l-20 72l-10 14v120q0 17 -8 23.5t-27 6.5q-26 0 -64 -0.5t-80 -2.5l-14 96q25 5 61 8.5t72 6t61 2.5zM336 484l-1 -59l-135 -13q-12 -1 -18 -5.5t-6 -12.5v-8q0 -7 6 -12t19 -5q16 0 32.5 7.5t31.5 19t25 23.5v-45
q-4 -11 -14 -29t-26.5 -36t-42 -30t-61.5 -12q-46 0 -81 24.5t-35 71.5v33q0 41 30 64.5t82 23.5h194z" />
    <glyph glyph-name="guillemotleft" unicode="&#xab;" horiz-adv-x="552" 
d="M414 470l110 -69l-86 -150l86 -156l-110 -69l-158 203v44zM179 470l110 -69l-86 -150l86 -156l-110 -69l-158 203v44z" />
    <glyph glyph-name="logicalnot" unicode="&#xac;" horiz-adv-x="571" 
d="M523 381v-144h-482v144h482zM523 370v-232l-155 -1v222z" />
    <glyph glyph-name="uni00AD" unicode="&#xad;" horiz-adv-x="380" 
d="M335 318v-122h-291v122h291z" />
    <glyph glyph-name="registered" unicode="&#xae;" horiz-adv-x="493" 
d="M247 704q62 0 112 -30t80 -80t30 -112t-30 -112.5t-80 -80.5t-112 -30t-112.5 30t-80.5 80.5t-30 112.5t30 112t80.5 80t112.5 30zM233 591v-208h-85v208h85zM247 647q-45 0 -82.5 -22.5t-60 -59.5t-22.5 -83t22.5 -83.5t60 -60t82.5 -22.5t82 22.5t59.5 60t22.5 83.5
t-22.5 83t-59.5 59.5t-82 22.5zM251 594q54 0 79 -13.5t25 -50.5q0 -16 -10 -30.5t-39 -17.5v-2q11 -1 23.5 -6t17.5 -28l17 -63h-90l-11 60q-3 8 -6.5 9.5t-11.5 1.5h-57t-35 1v50h95q14 0 17.5 3.5t3.5 12.5t-3.5 11.5t-17.5 2.5h-60t-34 -2l-6 58q24 2 45 2.5t58 0.5z
" />
    <glyph glyph-name="macron" unicode="&#xaf;" horiz-adv-x="400" 
d="M360 713v-123h-320v123h320z" />
    <glyph glyph-name="degree" unicode="&#xb0;" horiz-adv-x="325" 
d="M163 704q39 0 71 -18.5t51.5 -50t19.5 -70.5t-19.5 -71t-51.5 -50.5t-71 -18.5t-71.5 18.5t-52 50.5t-19.5 71t19.5 70.5t52 50t71.5 18.5zM163 614q-19 0 -33 -14t-14 -35q0 -14 6.5 -25.5t17 -18t23.5 -6.5t23 6.5t16.5 18t6.5 25.5q0 21 -13.5 35t-32.5 14z" />
    <glyph glyph-name="plusminus" unicode="&#xb1;" horiz-adv-x="558" 
d="M514 465v-154h-470v154h470zM514 174v-155h-470v155h470zM355 573l1 -369h-153v369h152z" />
    <glyph glyph-name="uni00B2" unicode="&#xb2;" horiz-adv-x="431" 
d="M201 781q63 0 104 -9t61 -34.5t20 -74.5q0 -19 -16 -47.5t-48 -54.5l-91 -75q15 5 28 7t29 1l108 -3v-131h-359v79q0 20 4.5 35.5t17.5 28.5l75 63q21 18 37 32.5t26.5 25t14.5 16.5q5 7 -3 8.5t-25 1.5q-34 0 -63.5 0.5t-75.5 1.5l-4 117q50 8 94 10t66 2z" />
    <glyph glyph-name="uni00B3" unicode="&#xb3;" horiz-adv-x="411" 
d="M207 783q93 0 129 -20.5t36 -76.5q0 -48 -15 -73.5t-65 -31.5v-2q53 -7 72 -30t20 -74q1 -68 -39 -96t-138 -28q-44 0 -89 3.5t-86 8.5l4 113q32 -1 52.5 -1h37h35.5q40 0 49.5 3.5t9.5 19.5q0 10 -2.5 15t-11.5 7t-27 2l-87 3v93l87 4q17 1 25 2t10.5 5.5t2.5 12.5
q0 12 -6.5 15t-32.5 3q-37 0 -71.5 0.5t-60.5 1.5l-4 109q42 6 83.5 9t81.5 3z" />
    <glyph glyph-name="acute" unicode="&#xb4;" horiz-adv-x="392" 
d="M273 747l79 -133l-255 -103l-57 86z" />
    <glyph glyph-name="uni00B5" unicode="&#xb5;" horiz-adv-x="636" 
d="M253 500v-292q0 -31 8.5 -38.5t21.5 -7.5q16 0 33.5 15.5t30 49.5t12.5 87l3 -230q-12 -27 -32.5 -49t-47.5 -35.5t-59 -13.5q-49 0 -90 12.5t-65.5 44t-24.5 86.5v371h210zM252 118v-183l-26 -115h-183v366zM568 500v-338q0 -16 2 -26t7.5 -14.5t15.5 -4.5h30l7 -102
q-28 -10 -66.5 -19t-80.5 -9q-49 0 -85 22t-36 72v3l-3 16v400h209z" />
    <glyph glyph-name="paragraph" unicode="&#xb6;" horiz-adv-x="621" 
d="M357 702q40 0 94 -3.5t98 -13.5l-6 -118q-26 5 -60 7.5t-67 3.5t-58 1l-92 -379q-132 10 -189 68t-57 182q0 93 34 148t108 79.5t195 24.5zM383 685v-895h-127v895h127zM549 685v-685h-127v685h127z" />
    <glyph glyph-name="periodcentered" unicode="&#xb7;" horiz-adv-x="265" 
d="M156 351q41 0 56.5 -15.5t15.5 -56.5v-41q0 -40 -15.5 -56t-56.5 -16h-47q-41 0 -56.5 16t-15.5 56v41q0 41 15.5 56.5t56.5 15.5h47z" />
    <glyph glyph-name="cedilla" unicode="&#xb8;" horiz-adv-x="263" 
d="M72 -33q63 7 102.5 7t57.5 -16t16 -56q-2 -57 -34.5 -92.5t-84.5 -49t-115 -5.5l22 78q33 0 58.5 8t28.5 43q2 11 -10.5 11h-59.5z" />
    <glyph glyph-name="uni00B9" unicode="&#xb9;" horiz-adv-x="321" 
d="M275 774v-414h-160v231q0 15 1 29.5t5 30.5l-97 -14l-18 98l109 39h160z" />
    <glyph glyph-name="ordmasculine" unicode="&#xba;" horiz-adv-x="435" 
d="M218 623q105 0 147.5 -40.5t42.5 -138.5q0 -64 -18.5 -102.5t-60 -55.5t-111.5 -17q-105 0 -148 39t-43 136q0 98 43 138.5t148 40.5zM218 521q-21 0 -27 -13.5t-6 -63.5q0 -47 6 -60.5t27 -13.5q20 0 26 13.5t6 60.5q0 50 -6 63.5t-26 13.5z" />
    <glyph glyph-name="guillemotright" unicode="&#xbb;" horiz-adv-x="552" 
d="M138 470l158 -197v-44l-158 -203l-110 69l86 156l-86 150zM373 470l158 -197v-44l-158 -203l-110 69l86 156l-86 150z" />
    <glyph glyph-name="onequarter" unicode="&#xbc;" horiz-adv-x="944" 
d="M683 690l-387 -690h-126l387 690h126zM280 690v-414h-160v231q0 15 1 29.5t5 30.5l-89 -14l-18 98l101 39h160zM751 414l-83 -227q-2 -6 0.5 -8t9.5 -2h242v-87l-44 -14h-320q-28 0 -43.5 20t-5.5 45l103 273h141zM875 331v-331h-147v270l25 61h122z" />
    <glyph glyph-name="onehalf" unicode="&#xbd;" horiz-adv-x="943" 
d="M683 690l-387 -690h-126l386 690h127zM280 690v-414h-160v231q0 15 1 29.5t5 30.5l-89 -14l-18 98l101 39h160zM721 421q63 0 103.5 -9t60 -34.5t19.5 -74.5q0 -19 -16 -47.5t-47 -54.5l-87 -75q15 5 27.5 7t27.5 1l104 -3v-131h-353v79q0 20 4.5 35.5t17.5 28.5l72 63
q29 26 49.5 45.5t26.5 28.5q5 7 -2 8.5t-24 1.5q-34 0 -62.5 0.5t-73.5 1.5l-4 117q49 8 92 10t65 2z" />
    <glyph glyph-name="threequarters" unicode="&#xbe;" horiz-adv-x="1017" 
d="M759 690l-387 -690h-126l386 690h127zM203 696q91 0 125.5 -20.5t34.5 -76.5q0 -48 -14 -73.5t-64 -31.5v-2q53 -7 71 -30t19 -74q1 -68 -38 -96t-135 -28q-43 0 -87 3.5t-85 8.5l4 113q32 -1 52 -1h36h34q38 0 46.5 3.5t8.5 19.5q0 12 -2.5 17.5t-10 7.5t-24.5 2l-85 -1
v95h85q16 0 23 1.5t9 6.5t2 15q0 12 -5.5 14.5t-29.5 3.5q-36 1 -69.5 1.5t-59.5 0.5l-4 109q41 6 82 9t81 3zM826 414l-83 -227q-2 -6 1 -8t10 -2h241v-87l-44 -14h-319q-29 0 -44.5 20t-5.5 45l103 273h141zM950 331v-331h-147v270l25 61h122z" />
    <glyph glyph-name="questiondown" unicode="&#xbf;" horiz-adv-x="531" 
d="M365 291q3 -50 -7.5 -89t-28.5 -69.5t-37 -54t-33 -41.5t-17 -32q-4 -19 9 -26t47 -7h84.5h60h62.5l5 -138q-31 -6 -56.5 -11t-53.5 -9t-64.5 -6t-89.5 -2q-115 0 -171 38t-56 117q0 44 16.5 75t41.5 57t51.5 53t46.5 61.5t26 83.5h164zM307 518q41 0 56.5 -15.5
t15.5 -56.5v-41q0 -41 -15.5 -56.5t-56.5 -15.5h-47q-41 0 -56.5 15.5t-15.5 56.5v41q0 41 15.5 56.5t56.5 15.5h47z" />
    <glyph glyph-name="Agrave" unicode="&#xc0;" horiz-adv-x="683" 
d="M440 690q26 0 46 -15t27 -41l179 -634h-221l-104 449q-4 19 -7 39.5t-5 39.5h-27q-2 -19 -5 -39.5t-7 -39.5l-104 -449h-221l179 634q7 26 27 41t46 15h197zM525 301v-152h-367v152h367zM210 976l233 -150l-57 -86l-255 103z" />
    <glyph glyph-name="Aacute" unicode="&#xc1;" horiz-adv-x="683" 
d="M440 690q26 0 46 -15t27 -41l179 -634h-221l-104 449q-4 19 -7 39.5t-5 39.5h-27q-2 -19 -5 -39.5t-7 -39.5l-104 -449h-221l179 634q7 26 27 41t46 15h197zM525 301v-152h-367v152h367zM474 956l79 -133l-255 -103l-57 86z" />
    <glyph glyph-name="Acircumflex" unicode="&#xc2;" horiz-adv-x="683" 
d="M440 690q26 0 46 -15t27 -41l179 -634h-221l-104 449q-4 19 -7 39.5t-5 39.5h-27q-2 -19 -5 -39.5t-7 -39.5l-104 -449h-221l179 634q7 26 27 41t46 15h197zM525 301v-152h-367v152h367zM420 930l135 -141l-48 -69l-159 93h-8l-162 -93l-50 77l140 133h152z" />
    <glyph glyph-name="Atilde" unicode="&#xc3;" horiz-adv-x="683" 
d="M440 690q26 0 46 -15t27 -41l179 -634h-221l-104 449q-4 19 -7 39.5t-5 39.5h-27q-2 -19 -5 -39.5t-7 -39.5l-104 -449h-221l179 634q7 26 27 41t46 15h197zM525 301v-152h-367v152h367zM237 920q26 -2 48 -7t42.5 -12t40 -13.5t38.5 -10.5q23 -4 26 5t3 33h87
q16 -84 -11 -128t-74 -41q-34 3 -64.5 11.5t-56.5 18t-49 13.5q-22 4 -25 -5t-3 -33h-87q-11 60 0 98t35 55.5t50 15.5z" />
    <glyph glyph-name="Adieresis" unicode="&#xc4;" horiz-adv-x="683" 
d="M440 690q26 0 46 -15t27 -41l179 -634h-221l-104 449q-4 19 -7 39.5t-5 39.5h-27q-2 -19 -5 -39.5t-7 -39.5l-104 -449h-221l179 634q7 26 27 41t46 15h197zM525 301v-152h-367v152h367zM470 904q39 0 39 -39v-63q0 -39 -39 -39h-69q-39 0 -39 39v63q0 39 39 39h69z
M281 904q39 0 39 -39v-63q0 -39 -39 -39h-69q-39 0 -39 39v63q0 39 39 39h69z" />
    <glyph glyph-name="Aring" unicode="&#xc5;" horiz-adv-x="683" 
d="M440 690q26 0 46 -15t27 -41l179 -634h-221l-104 449q-4 19 -7 39.5t-5 39.5h-27q-2 -19 -5 -39.5t-7 -39.5l-104 -449h-221l179 634q7 26 27 41t46 15h197zM525 301v-152h-367v152h367zM343 963q35 0 64.5 -17t47 -45t17.5 -63t-17.5 -63.5t-47 -45t-64.5 -16.5
t-64.5 16.5t-47 45t-17.5 63.5t17.5 63t47 45t64.5 17zM343 883q-18 0 -31 -13.5t-13 -31.5q0 -19 13 -32t31 -13t31 13t13 32q0 18 -13 31.5t-31 13.5z" />
    <glyph glyph-name="AE" unicode="&#xc6;" horiz-adv-x="954" 
d="M576 692q96 0 177.5 -1.5t172.5 -9.5l-10 -150h-236q-17 0 -28 -10t-11 -26v-300q0 -16 10.5 -26t28.5 -10h236l10 -150q-78 -10 -166.5 -11.5t-174.5 -1.5q-68 0 -107 43.5t-39 113.5v345q0 16 4 32.5t11 29.5h-14q-7 -10 -12.5 -22.5t-10.5 -21.5l-215 -516h-221
l241 534q19 42 43.5 72t63 49t98.5 28t149 9zM488 309v-148h-358l1 148h357zM447 420h435v-134h-435v134z" />
    <glyph glyph-name="Ccedilla" unicode="&#xc7;" horiz-adv-x="605" 
d="M345 702q54 0 92 -3t69.5 -8.5t65.5 -15.5l-16 -158q-35 1 -65 1t-64 0.5t-82 0.5q-34 0 -52.5 -14.5t-25.5 -52t-7 -107.5t7 -107.5t25.5 -52t52.5 -14.5q75 0 125.5 1.5t100.5 6.5l16 -158q-52 -18 -106.5 -25.5t-135.5 -7.5q-114 0 -183 34.5t-99.5 112.5t-30.5 210
t30.5 210t99.5 112.5t183 34.5zM255 -65q63 7 102.5 7t57.5 -16t16 -56q-2 -57 -34.5 -92.5t-84.5 -49t-115 -5.5l22 78q33 0 58.5 8t28.5 43q2 11 -10.5 11h-59.5z" />
    <glyph glyph-name="Egrave" unicode="&#xc8;" horiz-adv-x="596" 
d="M209 694q60 0 123.5 -0.5t124.5 -3t111 -9.5l-10 -153h-253q-19 0 -30 -10t-11 -26v-294q0 -16 11 -26t30 -10h253l10 -153q-50 -6 -111 -9t-124.5 -3.5t-123.5 -0.5q-71 0 -116.5 43.5t-45.5 113.5v384q0 70 45.5 113.5t116.5 43.5zM65 425h457v-144h-457v144zM190 976
l233 -150l-57 -86l-255 103z" />
    <glyph glyph-name="Eacute" unicode="&#xc9;" horiz-adv-x="596" 
d="M209 694q60 0 123.5 -0.5t124.5 -3t111 -9.5l-10 -153h-253q-19 0 -30 -10t-11 -26v-294q0 -16 11 -26t30 -10h253l10 -153q-50 -6 -111 -9t-124.5 -3.5t-123.5 -0.5q-71 0 -116.5 43.5t-45.5 113.5v384q0 70 45.5 113.5t116.5 43.5zM65 425h457v-144h-457v144zM454 956
l79 -133l-255 -103l-57 86z" />
    <glyph glyph-name="Ecircumflex" unicode="&#xca;" horiz-adv-x="596" 
d="M209 694q60 0 123.5 -0.5t124.5 -3t111 -9.5l-10 -153h-253q-19 0 -30 -10t-11 -26v-294q0 -16 11 -26t30 -10h253l10 -153q-50 -6 -111 -9t-124.5 -3.5t-123.5 -0.5q-71 0 -116.5 43.5t-45.5 113.5v384q0 70 45.5 113.5t116.5 43.5zM65 425h457v-144h-457v144zM400 930
l135 -141l-48 -69l-159 93h-8l-162 -93l-50 77l140 133h152z" />
    <glyph glyph-name="Edieresis" unicode="&#xcb;" horiz-adv-x="596" 
d="M209 694q60 0 123.5 -0.5t124.5 -3t111 -9.5l-10 -153h-253q-19 0 -30 -10t-11 -26v-294q0 -16 11 -26t30 -10h253l10 -153q-50 -6 -111 -9t-124.5 -3.5t-123.5 -0.5q-71 0 -116.5 43.5t-45.5 113.5v384q0 70 45.5 113.5t116.5 43.5zM65 425h457v-144h-457v144zM450 904
q39 0 39 -39v-63q0 -39 -39 -39h-69q-39 0 -39 39v63q0 39 39 39h69zM261 904q39 0 39 -39v-63q0 -39 -39 -39h-69q-39 0 -39 39v63q0 39 39 39h69z" />
    <glyph glyph-name="Igrave" unicode="&#xcc;" horiz-adv-x="321" 
d="M268 690v-690h-215v690h215zM28 976l233 -150l-57 -86l-255 103z" />
    <glyph glyph-name="Iacute" unicode="&#xcd;" horiz-adv-x="321" 
d="M268 690v-690h-215v690h215zM292 956l79 -133l-255 -103l-57 86z" />
    <glyph glyph-name="Icircumflex" unicode="&#xce;" horiz-adv-x="321" 
d="M268 690v-690h-215v690h215zM238 930l135 -141l-48 -69l-159 93h-8l-162 -93l-50 77l140 133h152z" />
    <glyph glyph-name="Idieresis" unicode="&#xcf;" horiz-adv-x="321" 
d="M268 690v-690h-215v690h215zM288 904q39 0 39 -39v-63q0 -39 -39 -39h-69q-39 0 -39 39v63q0 39 39 39h69zM99 904q39 0 39 -39v-63q0 -39 -39 -39h-69q-39 0 -39 39v63q0 39 39 39h69z" />
    <glyph glyph-name="Eth" unicode="&#xd0;" horiz-adv-x="701" 
d="M368 409v-104h-361v104h361zM347 700q89 0 150.5 -16.5t99.5 -56t55 -108.5t17 -174t-17 -174t-55 -108.5t-99.5 -56t-150.5 -16.5q-86 0 -158 3t-137 7l88 154q35 -4 88.5 -5.5t118.5 -1.5q37 0 57 16t28 59t8 123t-8 123t-28 59t-57 16h-107.5t-90.5 1l-97 146
q66 4 136.5 7t158.5 3zM269 690v-690h-217v690h217z" />
    <glyph glyph-name="Ntilde" unicode="&#xd1;" horiz-adv-x="738" 
d="M687 690v-615q0 -75 -75 -75h-83q-34 0 -50.5 16t-33.5 47l-150 237q-14 26 -25.5 56.5t-20.5 61.5h-7q5 -31 7.5 -63.5t2.5 -62.5v-292h-200v615q0 75 75 75h83q34 0 50 -16t34 -47l144 -226q14 -25 27.5 -55t25.5 -63h7q-4 32 -6.5 63t-2.5 62l-1 282h199zM275 920
q26 -2 48 -7t42.5 -12t40 -13.5t38.5 -10.5q23 -4 26 5t3 33h87q16 -84 -11 -128t-74 -41q-34 3 -64.5 11.5t-56.5 18t-49 13.5q-22 4 -25 -5t-3 -33h-87q-11 60 0 98t35 55.5t50 15.5z" />
    <glyph glyph-name="Ograve" unicode="&#xd2;" horiz-adv-x="707" 
d="M353 704q89 0 150.5 -16.5t99.5 -56.5t55 -109.5t17 -176.5q0 -106 -17 -176t-55 -110t-99.5 -56.5t-150.5 -16.5q-88 0 -149.5 16.5t-99.5 56.5t-55 110t-17 176q0 107 17 176.5t55 109.5t99.5 56.5t149.5 16.5zM353 543q-37 0 -57 -16t-28 -59t-8 -123t8 -123t28 -59
t57 -16t57 16t28 59t8 123t-8 123t-28 59t-57 16zM219 976l233 -150l-57 -86l-255 103z" />
    <glyph glyph-name="Oacute" unicode="&#xd3;" horiz-adv-x="707" 
d="M353 704q89 0 150.5 -16.5t99.5 -56.5t55 -109.5t17 -176.5q0 -106 -17 -176t-55 -110t-99.5 -56.5t-150.5 -16.5q-88 0 -149.5 16.5t-99.5 56.5t-55 110t-17 176q0 107 17 176.5t55 109.5t99.5 56.5t149.5 16.5zM353 543q-37 0 -57 -16t-28 -59t-8 -123t8 -123t28 -59
t57 -16t57 16t28 59t8 123t-8 123t-28 59t-57 16zM483 976l79 -133l-255 -103l-57 86z" />
    <glyph glyph-name="Ocircumflex" unicode="&#xd4;" horiz-adv-x="707" 
d="M353 704q89 0 150.5 -16.5t99.5 -56.5t55 -109.5t17 -176.5q0 -106 -17 -176t-55 -110t-99.5 -56.5t-150.5 -16.5q-88 0 -149.5 16.5t-99.5 56.5t-55 110t-17 176q0 107 17 176.5t55 109.5t99.5 56.5t149.5 16.5zM353 543q-37 0 -57 -16t-28 -59t-8 -123t8 -123t28 -59
t57 -16t57 16t28 59t8 123t-8 123t-28 59t-57 16zM429 930l135 -141l-48 -69l-159 93h-8l-162 -93l-50 77l140 133h152z" />
    <glyph glyph-name="Otilde" unicode="&#xd5;" horiz-adv-x="707" 
d="M353 704q89 0 150.5 -16.5t99.5 -56.5t55 -109.5t17 -176.5q0 -106 -17 -176t-55 -110t-99.5 -56.5t-150.5 -16.5q-88 0 -149.5 16.5t-99.5 56.5t-55 110t-17 176q0 107 17 176.5t55 109.5t99.5 56.5t149.5 16.5zM353 543q-37 0 -57 -16t-28 -59t-8 -123t8 -123t28 -59
t57 -16t57 16t28 59t8 123t-8 123t-28 59t-57 16zM246 920q26 -2 48 -7t42.5 -12t40 -13.5t38.5 -10.5q23 -4 26 5t3 33h87q16 -84 -11 -128t-74 -41q-34 3 -64.5 11.5t-56.5 18t-49 13.5q-22 4 -25 -5t-3 -33h-87q-11 60 0 98t35 55.5t50 15.5z" />
    <glyph glyph-name="Odieresis" unicode="&#xd6;" horiz-adv-x="707" 
d="M353 704q89 0 150.5 -16.5t99.5 -56.5t55 -109.5t17 -176.5q0 -106 -17 -176t-55 -110t-99.5 -56.5t-150.5 -16.5q-88 0 -149.5 16.5t-99.5 56.5t-55 110t-17 176q0 107 17 176.5t55 109.5t99.5 56.5t149.5 16.5zM353 543q-37 0 -57 -16t-28 -59t-8 -123t8 -123t28 -59
t57 -16t57 16t28 59t8 123t-8 123t-28 59t-57 16zM479 904q39 0 39 -39v-63q0 -39 -39 -39h-69q-39 0 -39 39v63q0 39 39 39h69zM290 904q39 0 39 -39v-63q0 -39 -39 -39h-69q-39 0 -39 39v63q0 39 39 39h69z" />
    <glyph glyph-name="multiply" unicode="&#xd7;" horiz-adv-x="506" 
d="M392 516l-373 -331l96 -115l374 330zM115 516l-96 -116l373 -330l97 115z" />
    <glyph glyph-name="Oslash" unicode="&#xd8;" horiz-adv-x="707" 
d="M507 757l58 -27l-374 -801l-58 27zM353 704q89 0 150.5 -16.5t99.5 -56.5t55 -109.5t17 -176.5q0 -106 -17 -176t-55 -110t-99.5 -56.5t-150.5 -16.5q-88 0 -149.5 16.5t-99.5 56.5t-55 110t-17 176q0 107 17 176.5t55 109.5t99.5 56.5t149.5 16.5zM353 543
q-37 0 -57 -16t-28 -59t-8 -123t8 -123t28 -59t57 -16t57 16t28 59t8 123t-8 123t-28 59t-57 16z" />
    <glyph glyph-name="Ugrave" unicode="&#xd9;" horiz-adv-x="705" 
d="M658 690v-405q0 -110 -28.5 -175.5t-93 -94.5t-172.5 -29q-117 0 -186.5 29t-100 94.5t-30.5 175.5v405h217v-405q0 -55 7.5 -85t27 -41.5t54.5 -11.5t54 11.5t26.5 41.5t7.5 85v405h217zM221 976l233 -150l-57 -86l-255 103z" />
    <glyph glyph-name="Uacute" unicode="&#xda;" horiz-adv-x="705" 
d="M658 690v-405q0 -110 -28.5 -175.5t-93 -94.5t-172.5 -29q-117 0 -186.5 29t-100 94.5t-30.5 175.5v405h217v-405q0 -55 7.5 -85t27 -41.5t54.5 -11.5t54 11.5t26.5 41.5t7.5 85v405h217zM485 956l79 -133l-255 -103l-57 86z" />
    <glyph glyph-name="Ucircumflex" unicode="&#xdb;" horiz-adv-x="705" 
d="M658 690v-405q0 -110 -28.5 -175.5t-93 -94.5t-172.5 -29q-117 0 -186.5 29t-100 94.5t-30.5 175.5v405h217v-405q0 -55 7.5 -85t27 -41.5t54.5 -11.5t54 11.5t26.5 41.5t7.5 85v405h217zM431 930l135 -141l-48 -69l-159 93h-8l-162 -93l-50 77l140 133h152z" />
    <glyph glyph-name="Udieresis" unicode="&#xdc;" horiz-adv-x="705" 
d="M658 690v-405q0 -110 -28.5 -175.5t-93 -94.5t-172.5 -29q-117 0 -186.5 29t-100 94.5t-30.5 175.5v405h217v-405q0 -55 7.5 -85t27 -41.5t54.5 -11.5t54 11.5t26.5 41.5t7.5 85v405h217zM481 904q39 0 39 -39v-63q0 -39 -39 -39h-69q-39 0 -39 39v63q0 39 39 39h69z
M292 904q39 0 39 -39v-63q0 -39 -39 -39h-69q-39 0 -39 39v63q0 39 39 39h69z" />
    <glyph glyph-name="Yacute" unicode="&#xdd;" horiz-adv-x="654" 
d="M664 690l-233 -485h-208l-233 485h223l87 -217q9 -22 13 -48t8 -49h13q4 23 8.5 49.5t12.5 48.5l86 216h223zM436 328v-328h-217v328h217zM459 956l79 -133l-255 -103l-57 86z" />
    <glyph glyph-name="Thorn" unicode="&#xde;" horiz-adv-x="633" 
d="M337 578q107 0 168 -20.5t86 -71.5t25 -143q0 -91 -24 -141.5t-78.5 -71t-146.5 -20.5q-49 0 -97.5 5.5t-91 14t-72.5 18t-42 17.5l3 98h130.5h134.5q27 0 41.5 6.5t20 24t5.5 49.5q0 33 -5.5 50.5t-20 24.5t-41.5 7q-99 0 -169 -1t-95 -4l-15 148q45 5 84 7t86 2.5
t114 0.5zM270 690v-690h-217v690h217z" />
    <glyph glyph-name="germandbls" unicode="&#xdf;" horiz-adv-x="738" 
d="M368 742q107 0 163 -17t76 -54t20 -97q0 -20 -3.5 -35.5t-13 -33.5t-29.5 -44q-10 -13 -19.5 -26.5t-16 -25.5t-6.5 -23q0 -16 18.5 -31.5t40.5 -35.5l52 -42q31 -27 49 -45.5t25.5 -38.5t7.5 -52q0 -48 -17.5 -82t-62.5 -52t-126 -18q-43 0 -83.5 3t-97.5 8l13 128h53
h64q18 0 27.5 0.5t13 5t3.5 14.5q0 11 -11 23.5t-29 27t-39 32.5l-30 20q-32 26 -50.5 53t-18.5 66q0 22 7.5 37.5t21.5 32.5t32 44q20 29 27 43.5t7 32.5q0 17 -5 26t-19 12.5t-42 3.5q-29 0 -44.5 -4.5t-20.5 -17.5t-5 -39v-541h-210v566q0 49 15 83t47.5 54.5t86 29.5
t129.5 9zM192 500v-126h-184v121l82 5h102z" />
    <glyph glyph-name="agrave" unicode="&#xe0;" 
d="M333 514q71 0 119.5 -18.5t74 -63t25.5 -122.5v-310h-167l-29 107l-14 20v184q-1 26 -13.5 38t-45.5 12q-39 0 -95.5 -1t-120.5 -4l-19 133q38 7 90.5 12.5t104.5 9t90 3.5zM471 307l-1 -101h-207q-19 0 -28.5 -8.5t-9.5 -22.5v-16q0 -13 10.5 -22t31.5 -9q24 0 50 11.5
t50 29.5t41 37v-64q-7 -17 -22 -43t-40.5 -52t-63 -43.5t-89.5 -17.5q-46 0 -85.5 16t-63 47.5t-23.5 78.5v50q0 60 44.5 94.5t120.5 34.5h285zM170 806l233 -150l-57 -86l-255 103z" />
    <glyph glyph-name="aacute" unicode="&#xe1;" 
d="M333 514q71 0 119.5 -18.5t74 -63t25.5 -122.5v-310h-167l-29 107l-14 20v184q-1 26 -13.5 38t-45.5 12q-39 0 -95.5 -1t-120.5 -4l-19 133q38 7 90.5 12.5t104.5 9t90 3.5zM471 307l-1 -101h-207q-19 0 -28.5 -8.5t-9.5 -22.5v-16q0 -13 10.5 -22t31.5 -9q24 0 50 11.5
t50 29.5t41 37v-64q-7 -17 -22 -43t-40.5 -52t-63 -43.5t-89.5 -17.5q-46 0 -85.5 16t-63 47.5t-23.5 78.5v50q0 60 44.5 94.5t120.5 34.5h285zM434 786l79 -133l-255 -103l-57 86z" />
    <glyph glyph-name="acircumflex" unicode="&#xe2;" 
d="M333 514q71 0 119.5 -18.5t74 -63t25.5 -122.5v-310h-167l-29 107l-14 20v184q-1 26 -13.5 38t-45.5 12q-39 0 -95.5 -1t-120.5 -4l-19 133q38 7 90.5 12.5t104.5 9t90 3.5zM471 307l-1 -101h-207q-19 0 -28.5 -8.5t-9.5 -22.5v-16q0 -13 10.5 -22t31.5 -9q24 0 50 11.5
t50 29.5t41 37v-64q-7 -17 -22 -43t-40.5 -52t-63 -43.5t-89.5 -17.5q-46 0 -85.5 16t-63 47.5t-23.5 78.5v50q0 60 44.5 94.5t120.5 34.5h285zM380 760l135 -141l-48 -69l-159 93h-8l-162 -93l-50 77l140 133h152z" />
    <glyph glyph-name="atilde" unicode="&#xe3;" 
d="M333 514q71 0 119.5 -18.5t74 -63t25.5 -122.5v-310h-167l-29 107l-14 20v184q-1 26 -13.5 38t-45.5 12q-39 0 -95.5 -1t-120.5 -4l-19 133q38 7 90.5 12.5t104.5 9t90 3.5zM471 307l-1 -101h-207q-19 0 -28.5 -8.5t-9.5 -22.5v-16q0 -13 10.5 -22t31.5 -9q24 0 50 11.5
t50 29.5t41 37v-64q-7 -17 -22 -43t-40.5 -52t-63 -43.5t-89.5 -17.5q-46 0 -85.5 16t-63 47.5t-23.5 78.5v50q0 60 44.5 94.5t120.5 34.5h285zM197 750q26 -2 48 -7t42.5 -12t40 -13.5t38.5 -10.5q23 -4 26 5t3 33h87q16 -84 -11 -128t-74 -41q-34 3 -64.5 11.5t-56.5 18
t-49 13.5q-22 4 -25 -5t-3 -33h-87q-11 60 0 98t35 55.5t50 15.5z" />
    <glyph glyph-name="adieresis" unicode="&#xe4;" 
d="M333 514q71 0 119.5 -18.5t74 -63t25.5 -122.5v-310h-167l-29 107l-14 20v184q-1 26 -13.5 38t-45.5 12q-39 0 -95.5 -1t-120.5 -4l-19 133q38 7 90.5 12.5t104.5 9t90 3.5zM471 307l-1 -101h-207q-19 0 -28.5 -8.5t-9.5 -22.5v-16q0 -13 10.5 -22t31.5 -9q24 0 50 11.5
t50 29.5t41 37v-64q-7 -17 -22 -43t-40.5 -52t-63 -43.5t-89.5 -17.5q-46 0 -85.5 16t-63 47.5t-23.5 78.5v50q0 60 44.5 94.5t120.5 34.5h285zM430 734q39 0 39 -39v-63q0 -39 -39 -39h-69q-39 0 -39 39v63q0 39 39 39h69zM241 734q39 0 39 -39v-63q0 -39 -39 -39h-69
q-39 0 -39 39v63q0 39 39 39h69z" />
    <glyph glyph-name="aring" unicode="&#xe5;" 
d="M333 514q71 0 119.5 -18.5t74 -63t25.5 -122.5v-310h-167l-29 107l-14 20v184q-1 26 -13.5 38t-45.5 12q-39 0 -95.5 -1t-120.5 -4l-19 133q38 7 90.5 12.5t104.5 9t90 3.5zM471 307l-1 -101h-207q-19 0 -28.5 -8.5t-9.5 -22.5v-16q0 -13 10.5 -22t31.5 -9q24 0 50 11.5
t50 29.5t41 37v-64q-7 -17 -22 -43t-40.5 -52t-63 -43.5t-89.5 -17.5q-46 0 -85.5 16t-63 47.5t-23.5 78.5v50q0 60 44.5 94.5t120.5 34.5h285zM303 793q35 0 64.5 -17t47 -45t17.5 -63t-17.5 -63.5t-47 -45t-64.5 -16.5t-64.5 16.5t-47 45t-17.5 63.5t17.5 63t47 45
t64.5 17zM303 713q-18 0 -31 -13.5t-13 -31.5q0 -19 13 -32t31 -13t31 13t13 32q0 18 -13 31.5t-31 13.5z" />
    <glyph glyph-name="ae" unicode="&#xe6;" horiz-adv-x="886" 
d="M610 514q139 0 196.5 -45t58.5 -133q1 -46 -17 -75.5t-60 -43t-116 -13.5h-259v99h200q33 0 42 6.5t9 31.5q0 24 -11 31t-37 7q-31 1 -47 -6t-21.5 -30.5t-5.5 -73.5q0 -46 6.5 -72t26 -37t59.5 -11q28 0 81 2t117 9l19 -126q-35 -18 -73.5 -28t-80 -14t-86.5 -4
q-103 0 -164 29t-88.5 86.5t-27.5 142.5q0 99 27.5 157.5t88.5 84.5t163 26zM462 304l-1 -100l-200 2q-18 0 -27 -8.5t-9 -22.5v-16q0 -13 10 -22t29 -9q23 0 47.5 11.5t47.5 29.5t39 37l10 -74q-7 -16 -22 -40t-40.5 -48.5t-64 -41t-92.5 -16.5q-45 0 -83.5 16t-61.5 47.5
t-23 78.5v50q0 58 43.5 92t117.5 34h280zM327 514q70 0 117.5 -18.5t72.5 -63t25 -122.5v-86h-211v87q0 26 -12 38t-42 12q-38 0 -93.5 -1t-117.5 -4l-19 133q37 7 88.5 12.5t103 9t88.5 3.5z" />
    <glyph glyph-name="ccedilla" unicode="&#xe7;" horiz-adv-x="528" 
d="M294 514q31 0 68 -3t74 -11t67 -23l-21 -130h-84h-68t-50.5 -8t-26 -28.5t-7.5 -59.5t7.5 -60t26 -29t50.5 -8q17 0 42.5 0.5t56.5 2t62 4.5l19 -131q-44 -23 -102 -32.5t-116 -9.5q-98 0 -156.5 25.5t-84 83.5t-25.5 154q0 97 26 154.5t85 83t157 25.5zM208 -50
q63 7 102.5 7t57.5 -16t16 -56q-2 -57 -34.5 -92.5t-84.5 -49t-115 -5.5l22 78q33 0 58.5 8t28.5 43q2 11 -10.5 11h-59.5z" />
    <glyph glyph-name="egrave" unicode="&#xe8;" 
d="M309 514q141 0 200 -45t60 -133q1 -70 -41.5 -101t-152.5 -31h-269v99h210q34 0 43 6.5t9 31.5q0 24 -12 31t-41 7q-29 1 -44 -6t-20.5 -30.5t-5.5 -73.5q0 -46 6.5 -72t25.5 -37t56 -11q30 0 84.5 2t118.5 9l19 -126q-35 -18 -75 -28t-82.5 -14t-87.5 -4q-104 0 -167 29
t-90.5 86.5t-27.5 142.5q0 99 28 157.5t90.5 84.5t165.5 26zM179 798l233 -150l-57 -86l-255 103z" />
    <glyph glyph-name="eacute" unicode="&#xe9;" 
d="M309 514q141 0 200 -45t60 -133q1 -70 -41.5 -101t-152.5 -31h-269v99h210q34 0 43 6.5t9 31.5q0 24 -12 31t-41 7q-29 1 -44 -6t-20.5 -30.5t-5.5 -73.5q0 -46 6.5 -72t25.5 -37t56 -11q30 0 84.5 2t118.5 9l19 -126q-35 -18 -75 -28t-82.5 -14t-87.5 -4q-104 0 -167 29
t-90.5 86.5t-27.5 142.5q0 99 28 157.5t90.5 84.5t165.5 26zM443 778l79 -133l-255 -103l-57 86z" />
    <glyph glyph-name="ecircumflex" unicode="&#xea;" 
d="M309 514q141 0 200 -45t60 -133q1 -70 -41.5 -101t-152.5 -31h-269v99h210q34 0 43 6.5t9 31.5q0 24 -12 31t-41 7q-29 1 -44 -6t-20.5 -30.5t-5.5 -73.5q0 -46 6.5 -72t25.5 -37t56 -11q30 0 84.5 2t118.5 9l19 -126q-35 -18 -75 -28t-82.5 -14t-87.5 -4q-104 0 -167 29
t-90.5 86.5t-27.5 142.5q0 99 28 157.5t90.5 84.5t165.5 26zM389 752l135 -141l-48 -69l-159 93h-8l-162 -93l-50 77l140 133h152z" />
    <glyph glyph-name="edieresis" unicode="&#xeb;" 
d="M309 514q141 0 200 -45t60 -133q1 -70 -41.5 -101t-152.5 -31h-269v99h210q34 0 43 6.5t9 31.5q0 24 -12 31t-41 7q-29 1 -44 -6t-20.5 -30.5t-5.5 -73.5q0 -46 6.5 -72t25.5 -37t56 -11q30 0 84.5 2t118.5 9l19 -126q-35 -18 -75 -28t-82.5 -14t-87.5 -4q-104 0 -167 29
t-90.5 86.5t-27.5 142.5q0 99 28 157.5t90.5 84.5t165.5 26zM439 726q39 0 39 -39v-63q0 -39 -39 -39h-69q-39 0 -39 39v63q0 39 39 39h69zM250 726q39 0 39 -39v-63q0 -39 -39 -39h-69q-39 0 -39 39v63q0 39 39 39h69z" />
    <glyph glyph-name="igrave" unicode="&#xec;" horiz-adv-x="305" 
d="M258 500v-500h-211v500h211zM17 798l233 -150l-57 -86l-255 103z" />
    <glyph glyph-name="iacute" unicode="&#xed;" horiz-adv-x="305" 
d="M258 500v-500h-211v500h211zM281 778l79 -133l-255 -103l-57 86z" />
    <glyph glyph-name="icircumflex" unicode="&#xee;" horiz-adv-x="305" 
d="M258 500v-500h-211v500h211zM227 752l135 -141l-48 -69l-159 93h-8l-162 -93l-50 77l140 133h152z" />
    <glyph glyph-name="idieresis" unicode="&#xef;" horiz-adv-x="305" 
d="M258 500v-500h-211v500h211zM277 726q39 0 39 -39v-63q0 -39 -39 -39h-69q-39 0 -39 39v63q0 39 39 39h69zM88 726q39 0 39 -39v-63q0 -39 -39 -39h-69q-39 0 -39 39v63q0 39 39 39h69z" />
    <glyph glyph-name="eth" unicode="&#xf0;" horiz-adv-x="604" 
d="M146 698q90 6 160 -11t121 -53.5t84 -89t49 -116.5t16 -137q0 -87 -16.5 -145.5t-51 -93.5t-87 -50.5t-124.5 -15.5q-139 0 -204.5 55.5t-65.5 172.5q0 82 22 135t71.5 78.5t131.5 25.5q26 0 61.5 -4.5t68 -21t49.5 -51.5l-8 -84q-19 8 -51 13.5t-70 5.5q-18 0 -30.5 -5
t-18.5 -24.5t-6 -63.5q0 -53 10 -70.5t42 -17.5q25 0 37 12t16 46.5t4 101.5q0 63 -4.5 111t-17 82t-37.5 54t-66 28t-102 3zM432 734l53 -61l-241 -210l-54 61z" />
    <glyph glyph-name="ntilde" unicode="&#xf1;" horiz-adv-x="621" 
d="M433 514q148 0 148 -140v-374h-210v307q0 17 -8 23.5t-28 6.5q-19 0 -42.5 -3t-61.5 -16l-10 103q50 47 105 70t107 23zM208 500l26 -102l19 -12v-386h-210v500h165zM206 742q26 -2 48 -7t42.5 -12t40 -13.5t38.5 -10.5q23 -4 26 5t3 33h87q16 -84 -11 -128t-74 -41
q-34 3 -64.5 11.5t-56.5 18t-49 13.5q-22 4 -25 -5t-3 -33h-87q-11 60 0 98t35 55.5t50 15.5z" />
    <glyph glyph-name="ograve" unicode="&#xf2;" horiz-adv-x="611" 
d="M306 514q102 0 163.5 -25.5t88.5 -83.5t27 -156q0 -96 -27 -153t-88.5 -82.5t-163.5 -25.5t-163.5 25.5t-89 82.5t-27.5 153q0 98 27.5 156t89 83.5t163.5 25.5zM306 372q-24 0 -37 -9.5t-18 -35.5t-5 -78q0 -50 5 -75.5t18 -34.5t37 -9t37 9t17.5 34.5t4.5 75.5
q0 52 -4.5 78t-17.5 35.5t-37 9.5zM173 788l233 -150l-57 -86l-255 103z" />
    <glyph glyph-name="oacute" unicode="&#xf3;" horiz-adv-x="611" 
d="M306 514q102 0 163.5 -25.5t88.5 -83.5t27 -156q0 -96 -27 -153t-88.5 -82.5t-163.5 -25.5t-163.5 25.5t-89 82.5t-27.5 153q0 98 27.5 156t89 83.5t163.5 25.5zM306 372q-24 0 -37 -9.5t-18 -35.5t-5 -78q0 -50 5 -75.5t18 -34.5t37 -9t37 9t17.5 34.5t4.5 75.5
q0 52 -4.5 78t-17.5 35.5t-37 9.5zM437 768l79 -133l-255 -103l-57 86z" />
    <glyph glyph-name="ocircumflex" unicode="&#xf4;" horiz-adv-x="611" 
d="M306 514q102 0 163.5 -25.5t88.5 -83.5t27 -156q0 -96 -27 -153t-88.5 -82.5t-163.5 -25.5t-163.5 25.5t-89 82.5t-27.5 153q0 98 27.5 156t89 83.5t163.5 25.5zM306 372q-24 0 -37 -9.5t-18 -35.5t-5 -78q0 -50 5 -75.5t18 -34.5t37 -9t37 9t17.5 34.5t4.5 75.5
q0 52 -4.5 78t-17.5 35.5t-37 9.5zM383 742l135 -141l-48 -69l-159 93h-8l-162 -93l-50 77l140 133h152z" />
    <glyph glyph-name="otilde" unicode="&#xf5;" horiz-adv-x="611" 
d="M306 514q102 0 163.5 -25.5t88.5 -83.5t27 -156q0 -96 -27 -153t-88.5 -82.5t-163.5 -25.5t-163.5 25.5t-89 82.5t-27.5 153q0 98 27.5 156t89 83.5t163.5 25.5zM306 372q-24 0 -37 -9.5t-18 -35.5t-5 -78q0 -50 5 -75.5t18 -34.5t37 -9t37 9t17.5 34.5t4.5 75.5
q0 52 -4.5 78t-17.5 35.5t-37 9.5zM200 732q26 -2 48 -7t42.5 -12t40 -13.5t38.5 -10.5q23 -4 26 5t3 33h87q16 -84 -11 -128t-74 -41q-34 3 -64.5 11.5t-56.5 18t-49 13.5q-22 4 -25 -5t-3 -33h-87q-11 60 0 98t35 55.5t50 15.5z" />
    <glyph glyph-name="odieresis" unicode="&#xf6;" horiz-adv-x="611" 
d="M306 514q102 0 163.5 -25.5t88.5 -83.5t27 -156q0 -96 -27 -153t-88.5 -82.5t-163.5 -25.5t-163.5 25.5t-89 82.5t-27.5 153q0 98 27.5 156t89 83.5t163.5 25.5zM306 372q-24 0 -37 -9.5t-18 -35.5t-5 -78q0 -50 5 -75.5t18 -34.5t37 -9t37 9t17.5 34.5t4.5 75.5
q0 52 -4.5 78t-17.5 35.5t-37 9.5zM433 716q39 0 39 -39v-63q0 -39 -39 -39h-69q-39 0 -39 39v63q0 39 39 39h69zM244 716q39 0 39 -39v-63q0 -39 -39 -39h-69q-39 0 -39 39v63q0 39 39 39h69z" />
    <glyph glyph-name="divide" unicode="&#xf7;" horiz-adv-x="535" 
d="M508 365v-146h-481v146h481zM292 176q44 0 60.5 -16.5t16.5 -60.5v-18q0 -43 -16.5 -60t-60.5 -17h-50q-44 0 -60.5 17t-16.5 60v18q0 44 16.5 60.5t60.5 16.5h50zM292 577q44 0 60.5 -16.5t16.5 -60.5v-18q0 -44 -16.5 -60.5t-60.5 -16.5h-50q-44 0 -60.5 16.5
t-16.5 60.5v18q0 44 16.5 60.5t60.5 16.5h50z" />
    <glyph glyph-name="oslash" unicode="&#xf8;" horiz-adv-x="611" 
d="M437 597l46 -22l-310 -668l-46 22zM306 514q102 0 163.5 -25.5t88.5 -83.5t27 -156q0 -96 -27 -153t-88.5 -82.5t-163.5 -25.5t-163.5 25.5t-89 82.5t-27.5 153q0 98 27.5 156t89 83.5t163.5 25.5zM306 372q-24 0 -37 -9.5t-18 -35.5t-5 -78q0 -50 5 -75.5t18 -34.5
t37 -9t37 9t17.5 34.5t4.5 75.5q0 52 -4.5 78t-17.5 35.5t-37 9.5z" />
    <glyph glyph-name="ugrave" unicode="&#xf9;" horiz-adv-x="615" 
d="M250 500v-307q0 -16 9 -23.5t28 -7.5q20 0 41 3.5t55 16.5l12 -103q-51 -47 -101 -70t-106 -23q-148 0 -148 140v374h210zM572 500v-500h-165l-26 102l-20 12v386h211zM173 798l233 -150l-57 -86l-255 103z" />
    <glyph glyph-name="uacute" unicode="&#xfa;" horiz-adv-x="615" 
d="M250 500v-307q0 -16 9 -23.5t28 -7.5q20 0 41 3.5t55 16.5l12 -103q-51 -47 -101 -70t-106 -23q-148 0 -148 140v374h210zM572 500v-500h-165l-26 102l-20 12v386h211zM437 778l79 -133l-255 -103l-57 86z" />
    <glyph glyph-name="ucircumflex" unicode="&#xfb;" horiz-adv-x="615" 
d="M250 500v-307q0 -16 9 -23.5t28 -7.5q20 0 41 3.5t55 16.5l12 -103q-51 -47 -101 -70t-106 -23q-148 0 -148 140v374h210zM572 500v-500h-165l-26 102l-20 12v386h211zM383 752l135 -141l-48 -69l-159 93h-8l-162 -93l-50 77l140 133h152z" />
    <glyph glyph-name="udieresis" unicode="&#xfc;" horiz-adv-x="615" 
d="M250 500v-307q0 -16 9 -23.5t28 -7.5q20 0 41 3.5t55 16.5l12 -103q-51 -47 -101 -70t-106 -23q-148 0 -148 140v374h210zM572 500v-500h-165l-26 102l-20 12v386h211zM433 726q39 0 39 -39v-63q0 -39 -39 -39h-69q-39 0 -39 39v63q0 39 39 39h69zM244 726q39 0 39 -39
v-63q0 -39 -39 -39h-69q-39 0 -39 39v63q0 39 39 39h69z" />
    <glyph glyph-name="yacute" unicode="&#xfd;" horiz-adv-x="602" 
d="M604 500l-159 -486q-13 -41 -37.5 -85t-64 -78.5t-96.5 -49t-135 1.5l-14 113q62 13 98.5 34.5t55.5 63.5l37 80q11 25 19.5 64t13.5 66l59 276h223zM220 500l59 -276q4 -23 7 -47t6 -47h30l-65 -130h-46q-24 0 -41.5 13.5t-24.5 35.5l-148 451h223zM437 778l79 -133
l-255 -103l-57 86z" />
    <glyph glyph-name="thorn" unicode="&#xfe;" horiz-adv-x="620" 
d="M410 512q99 0 140.5 -70t41.5 -198q0 -103 -21.5 -159t-63.5 -77.5t-104 -21.5q-57 0 -107.5 17t-81.5 59l16 82q20 -7 39 -14t49 -7q21 0 34 7.5t18.5 33t5.5 78.5q0 54 -5.5 79.5t-17.5 32.5t-32 7q-25 0 -40.5 -5.5t-30.5 -13.5l-31 79q21 37 66 64t125 27zM253 700
v-100q1 -35 -1.5 -73t-4.5 -70l6 -12v-371l-6 -12q2 -32 4.5 -70t1.5 -73v-99h-210v880h210z" />
    <glyph glyph-name="ydieresis" unicode="&#xff;" horiz-adv-x="602" 
d="M604 500l-159 -486q-13 -41 -37.5 -85t-64 -78.5t-96.5 -49t-135 1.5l-14 113q62 13 98.5 34.5t55.5 63.5l37 80q11 25 19.5 64t13.5 66l59 276h223zM220 500l59 -276q4 -23 7 -47t6 -47h30l-65 -130h-46q-24 0 -41.5 13.5t-24.5 35.5l-148 451h223zM433 726q39 0 39 -39
v-63q0 -39 -39 -39h-69q-39 0 -39 39v63q0 39 39 39h69zM244 726q39 0 39 -39v-63q0 -39 -39 -39h-69q-39 0 -39 39v63q0 39 39 39h69z" />
    <glyph glyph-name="Amacron" unicode="&#x100;" horiz-adv-x="683" 
d="M440 690q26 0 46 -15t27 -41l179 -634h-221l-104 449q-4 19 -7 39.5t-5 39.5h-27q-2 -19 -5 -39.5t-7 -39.5l-104 -449h-221l179 634q7 26 27 41t46 15h197zM525 301v-152h-367v152h367zM504 895v-123h-320v123h320z" />
    <glyph glyph-name="amacron" unicode="&#x101;" 
d="M333 514q71 0 119.5 -18.5t74 -63t25.5 -122.5v-310h-167l-29 107l-14 20v184q-1 26 -13.5 38t-45.5 12q-39 0 -95.5 -1t-120.5 -4l-19 133q38 7 90.5 12.5t104.5 9t90 3.5zM471 307l-1 -101h-207q-19 0 -28.5 -8.5t-9.5 -22.5v-16q0 -13 10.5 -22t31.5 -9q24 0 50 11.5
t50 29.5t41 37v-64q-7 -17 -22 -43t-40.5 -52t-63 -43.5t-89.5 -17.5q-46 0 -85.5 16t-63 47.5t-23.5 78.5v50q0 60 44.5 94.5t120.5 34.5h285zM464 725v-123h-320v123h320z" />
    <glyph glyph-name="Abreve" unicode="&#x102;" horiz-adv-x="683" 
d="M440 690q26 0 46 -15t27 -41l179 -634h-221l-104 449q-4 19 -7 39.5t-5 39.5h-27q-2 -19 -5 -39.5t-7 -39.5l-104 -449h-221l179 634q7 26 27 41t46 15h197zM525 301v-152h-367v152h367zM424 922l97 -13q8 -44 -11.5 -83.5t-62 -64t-104.5 -24.5q-61 0 -104 24.5t-63 64
t-12 83.5l97 13q0 -31 18.5 -45t63.5 -14q44 0 62.5 14t18.5 45z" />
    <glyph glyph-name="abreve" unicode="&#x103;" 
d="M333 514q71 0 119.5 -18.5t74 -63t25.5 -122.5v-310h-167l-29 107l-14 20v184q-1 26 -13.5 38t-45.5 12q-39 0 -95.5 -1t-120.5 -4l-19 133q38 7 90.5 12.5t104.5 9t90 3.5zM471 307l-1 -101h-207q-19 0 -28.5 -8.5t-9.5 -22.5v-16q0 -13 10.5 -22t31.5 -9q24 0 50 11.5
t50 29.5t41 37v-64q-7 -17 -22 -43t-40.5 -52t-63 -43.5t-89.5 -17.5q-46 0 -85.5 16t-63 47.5t-23.5 78.5v50q0 60 44.5 94.5t120.5 34.5h285zM384 752l97 -13q8 -44 -11.5 -83.5t-62 -64t-104.5 -24.5q-61 0 -104 24.5t-63 64t-12 83.5l97 13q0 -31 18.5 -45t63.5 -14
q44 0 62.5 14t18.5 45z" />
    <glyph glyph-name="Aogonek" unicode="&#x104;" horiz-adv-x="683" 
d="M440 690q26 0 46 -15t27 -41l179 -634h-221l-104 449q-4 19 -7 39.5t-5 39.5h-27q-2 -19 -5 -39.5t-7 -39.5l-104 -449h-221l179 634q7 26 27 41t46 15h197zM525 301v-152h-367v152h367zM612 2l80 -2q-12 -22 -23.5 -42t-23.5 -45q-13 -27 3.5 -32t44.5 -1l12 -72
q-61 -23 -103 -23t-66 16t-31 41.5t2 52.5q8 24 33.5 52t71.5 55z" />
    <glyph glyph-name="aogonek" unicode="&#x105;" 
d="M333 514q71 0 119.5 -18.5t74 -63t25.5 -122.5v-310h-167l-29 107l-14 20v184q-1 26 -13.5 38t-45.5 12q-39 0 -95.5 -1t-120.5 -4l-19 133q38 7 90.5 12.5t104.5 9t90 3.5zM471 307l-1 -101h-207q-19 0 -28.5 -8.5t-9.5 -22.5v-16q0 -13 10.5 -22t31.5 -9q24 0 50 11.5
t50 29.5t41 37v-64q-7 -17 -22 -43t-40.5 -52t-63 -43.5t-89.5 -17.5q-46 0 -85.5 16t-63 47.5t-23.5 78.5v50q0 60 44.5 94.5t120.5 34.5h285zM472 2l80 -2q-12 -22 -23.5 -42t-23.5 -45q-13 -27 3.5 -32t44.5 -1l12 -72q-61 -23 -103 -23t-66 16t-31 41.5t2 52.5
q8 24 33.5 52t71.5 55z" />
    <glyph glyph-name="Cacute" unicode="&#x106;" horiz-adv-x="605" 
d="M345 702q54 0 92 -3t69.5 -8.5t65.5 -15.5l-16 -158q-35 1 -65 1t-64 0.5t-82 0.5q-34 0 -52.5 -14.5t-25.5 -52t-7 -107.5t7 -107.5t25.5 -52t52.5 -14.5q75 0 125.5 1.5t100.5 6.5l16 -158q-52 -18 -106.5 -25.5t-135.5 -7.5q-114 0 -183 34.5t-99.5 112.5t-30.5 210
t30.5 210t99.5 112.5t183 34.5zM475 956l79 -133l-255 -103l-57 86z" />
    <glyph glyph-name="cacute" unicode="&#x107;" horiz-adv-x="528" 
d="M294 514q31 0 68 -3t74 -11t67 -23l-21 -130h-84h-68t-50.5 -8t-26 -28.5t-7.5 -59.5t7.5 -60t26 -29t50.5 -8q17 0 42.5 0.5t56.5 2t62 4.5l19 -131q-44 -23 -102 -32.5t-116 -9.5q-98 0 -156.5 25.5t-84 83.5t-25.5 154q0 97 26 154.5t85 83t157 25.5zM423 778l79 -133
l-255 -103l-57 86z" />
    <glyph glyph-name="Ccircumflex" unicode="&#x108;" horiz-adv-x="605" 
d="M345 702q54 0 92 -3t69.5 -8.5t65.5 -15.5l-16 -158q-35 1 -65 1t-64 0.5t-82 0.5q-34 0 -52.5 -14.5t-25.5 -52t-7 -107.5t7 -107.5t25.5 -52t52.5 -14.5q75 0 125.5 1.5t100.5 6.5l16 -158q-52 -18 -106.5 -25.5t-135.5 -7.5q-114 0 -183 34.5t-99.5 112.5t-30.5 210
t30.5 210t99.5 112.5t183 34.5zM421 930l135 -141l-48 -69l-159 93h-8l-162 -93l-50 77l140 133h152z" />
    <glyph glyph-name="ccircumflex" unicode="&#x109;" horiz-adv-x="528" 
d="M294 514q31 0 68 -3t74 -11t67 -23l-21 -130h-84h-68t-50.5 -8t-26 -28.5t-7.5 -59.5t7.5 -60t26 -29t50.5 -8q17 0 42.5 0.5t56.5 2t62 4.5l19 -131q-44 -23 -102 -32.5t-116 -9.5q-98 0 -156.5 25.5t-84 83.5t-25.5 154q0 97 26 154.5t85 83t157 25.5zM369 752
l135 -141l-48 -69l-159 93h-8l-162 -93l-50 77l140 133h152z" />
    <glyph glyph-name="Cdotaccent" unicode="&#x10a;" horiz-adv-x="605" 
d="M345 702q54 0 92 -3t69.5 -8.5t65.5 -15.5l-16 -158q-35 1 -65 1t-64 0.5t-82 0.5q-34 0 -52.5 -14.5t-25.5 -52t-7 -107.5t7 -107.5t25.5 -52t52.5 -14.5q75 0 125.5 1.5t100.5 6.5l16 -158q-52 -18 -106.5 -25.5t-135.5 -7.5q-114 0 -183 34.5t-99.5 112.5t-30.5 210
t30.5 210t99.5 112.5t183 34.5zM376 913q59 0 59 -57v-47q0 -57 -59 -57h-63q-59 0 -59 57v47q0 57 59 57h63z" />
    <glyph glyph-name="cdotaccent" unicode="&#x10b;" horiz-adv-x="528" 
d="M294 514q31 0 68 -3t74 -11t67 -23l-21 -130h-84h-68t-50.5 -8t-26 -28.5t-7.5 -59.5t7.5 -60t26 -29t50.5 -8q17 0 42.5 0.5t56.5 2t62 4.5l19 -131q-44 -23 -102 -32.5t-116 -9.5q-98 0 -156.5 25.5t-84 83.5t-25.5 154q0 97 26 154.5t85 83t157 25.5zM324 735
q59 0 59 -57v-47q0 -57 -59 -57h-63q-59 0 -59 57v47q0 57 59 57h63z" />
    <glyph glyph-name="Ccaron" unicode="&#x10c;" horiz-adv-x="605" 
d="M345 702q54 0 92 -3t69.5 -8.5t65.5 -15.5l-16 -158q-35 1 -65 1t-64 0.5t-82 0.5q-34 0 -52.5 -14.5t-25.5 -52t-7 -107.5t7 -107.5t25.5 -52t52.5 -14.5q75 0 125.5 1.5t100.5 6.5l16 -158q-52 -18 -106.5 -25.5t-135.5 -7.5q-114 0 -183 34.5t-99.5 112.5t-30.5 210
t30.5 210t99.5 112.5t183 34.5zM500 944l48 -77l-163 -131h-82l-164 131l50 77l151 -76h8z" />
    <glyph glyph-name="ccaron" unicode="&#x10d;" horiz-adv-x="528" 
d="M294 514q31 0 68 -3t74 -11t67 -23l-21 -130h-84h-68t-50.5 -8t-26 -28.5t-7.5 -59.5t7.5 -60t26 -29t50.5 -8q17 0 42.5 0.5t56.5 2t62 4.5l19 -131q-44 -23 -102 -32.5t-116 -9.5q-98 0 -156.5 25.5t-84 83.5t-25.5 154q0 97 26 154.5t85 83t157 25.5zM448 766l48 -77
l-163 -131h-82l-164 131l50 77l151 -76h8z" />
    <glyph glyph-name="Dcaron" unicode="&#x10e;" horiz-adv-x="701" 
d="M347 700q89 0 150.5 -16.5t99.5 -56t55 -108.5t17 -174t-17 -174t-55 -108.5t-99.5 -56t-150.5 -16.5q-86 0 -158 3t-137 7l88 154q35 -4 88.5 -5.5t118.5 -1.5q37 0 57 16t28 59t8 123t-8 123t-28 59t-57 16h-107.5t-90.5 1l-97 146q66 4 136.5 7t158.5 3zM269 690v-690
h-217v690h217zM504 944l48 -77l-163 -131h-82l-164 131l50 77l151 -76h8z" />
    <glyph glyph-name="dcaron" unicode="&#x10f;" horiz-adv-x="620" 
d="M218 514q57 0 106.5 -17t80.5 -59l-15 -82q-20 6 -38.5 13.5t-49.5 7.5q-21 0 -33.5 -7.5t-18.5 -32.5t-6 -79q0 -46 5.5 -67.5t18 -28t31.5 -6.5q22 0 37 3.5t26.5 9.5t24.5 13l13 -86q-20 -46 -65.5 -77t-125.5 -31q-98 0 -139.5 70.5t-41.5 197.5q0 103 21.5 158.5
t64 77.5t104.5 22zM577 700v-700h-167l-20 96l-23 16v314l6 12q-2 32 -4 69.5t-2 73.5v119h210zM708 705q31 0 43.5 -12.5t12.5 -47.5v-53q0 -62 -13.5 -100t-38.5 -74l-62 21q9 28 11.5 56.5t3.5 56.5q-51 0 -48 53l2 40q2 35 13.5 47.5t42.5 12.5h33z" />
    <glyph glyph-name="Dcroat" unicode="&#x110;" horiz-adv-x="701" 
d="M368 409v-104h-361v104h361zM347 700q89 0 150.5 -16.5t99.5 -56t55 -108.5t17 -174t-17 -174t-55 -108.5t-99.5 -56t-150.5 -16.5q-86 0 -158 3t-137 7l88 154q35 -4 88.5 -5.5t118.5 -1.5q37 0 57 16t28 59t8 123t-8 123t-28 59t-57 16h-107.5t-90.5 1l-97 146
q66 4 136.5 7t158.5 3zM269 690v-690h-217v690h217z" />
    <glyph glyph-name="dcroat" unicode="&#x111;" horiz-adv-x="617" 
d="M631 631v-84h-371v84h371zM218 514q57 0 106.5 -17t80.5 -59l-15 -82q-20 6 -38.5 13.5t-49.5 7.5q-21 0 -33.5 -7.5t-18.5 -32.5t-6 -79q0 -46 5.5 -67.5t18 -28t31.5 -6.5q22 0 37 3.5t26.5 9.5t24.5 13l13 -86q-20 -46 -65.5 -77t-125.5 -31q-98 0 -139.5 70.5
t-41.5 197.5q0 103 21.5 158.5t64 77.5t104.5 22zM577 700v-700h-167l-20 96l-23 16v314l6 12q-2 32 -4 69.5t-2 73.5v119h210z" />
    <glyph glyph-name="Emacron" unicode="&#x112;" horiz-adv-x="596" 
d="M209 694q60 0 123.5 -0.5t124.5 -3t111 -9.5l-10 -153h-253q-19 0 -30 -10t-11 -26v-294q0 -16 11 -26t30 -10h253l10 -153q-50 -6 -111 -9t-124.5 -3.5t-123.5 -0.5q-71 0 -116.5 43.5t-45.5 113.5v384q0 70 45.5 113.5t116.5 43.5zM65 425h457v-144h-457v144zM484 895
v-123h-320v123h320z" />
    <glyph glyph-name="emacron" unicode="&#x113;" 
d="M309 514q141 0 200 -45t60 -133q1 -70 -41.5 -101t-152.5 -31h-269v99h210q34 0 43 6.5t9 31.5q0 24 -12 31t-41 7q-29 1 -44 -6t-20.5 -30.5t-5.5 -73.5q0 -46 6.5 -72t25.5 -37t56 -11q30 0 84.5 2t118.5 9l19 -126q-35 -18 -75 -28t-82.5 -14t-87.5 -4q-104 0 -167 29
t-90.5 86.5t-27.5 142.5q0 99 28 157.5t90.5 84.5t165.5 26zM473 717v-123h-320v123h320z" />
    <glyph glyph-name="Ebreve" unicode="&#x114;" horiz-adv-x="596" 
d="M209 694q60 0 123.5 -0.5t124.5 -3t111 -9.5l-10 -153h-253q-19 0 -30 -10t-11 -26v-294q0 -16 11 -26t30 -10h253l10 -153q-50 -6 -111 -9t-124.5 -3.5t-123.5 -0.5q-71 0 -116.5 43.5t-45.5 113.5v384q0 70 45.5 113.5t116.5 43.5zM65 425h457v-144h-457v144zM404 922
l97 -13q8 -44 -11.5 -83.5t-62 -64t-104.5 -24.5q-61 0 -104 24.5t-63 64t-12 83.5l97 13q0 -31 18.5 -45t63.5 -14q44 0 62.5 14t18.5 45z" />
    <glyph glyph-name="ebreve" unicode="&#x115;" 
d="M309 514q141 0 200 -45t60 -133q1 -70 -41.5 -101t-152.5 -31h-269v99h210q34 0 43 6.5t9 31.5q0 24 -12 31t-41 7q-29 1 -44 -6t-20.5 -30.5t-5.5 -73.5q0 -46 6.5 -72t25.5 -37t56 -11q30 0 84.5 2t118.5 9l19 -126q-35 -18 -75 -28t-82.5 -14t-87.5 -4q-104 0 -167 29
t-90.5 86.5t-27.5 142.5q0 99 28 157.5t90.5 84.5t165.5 26zM393 744l97 -13q8 -44 -11.5 -83.5t-62 -64t-104.5 -24.5q-61 0 -104 24.5t-63 64t-12 83.5l97 13q0 -31 18.5 -45t63.5 -14q44 0 62.5 14t18.5 45z" />
    <glyph glyph-name="Edotaccent" unicode="&#x116;" horiz-adv-x="596" 
d="M209 694q60 0 123.5 -0.5t124.5 -3t111 -9.5l-10 -153h-253q-19 0 -30 -10t-11 -26v-294q0 -16 11 -26t30 -10h253l10 -153q-50 -6 -111 -9t-124.5 -3.5t-123.5 -0.5q-71 0 -116.5 43.5t-45.5 113.5v384q0 70 45.5 113.5t116.5 43.5zM65 425h457v-144h-457v144zM355 913
q59 0 59 -57v-47q0 -57 -59 -57h-63q-59 0 -59 57v47q0 57 59 57h63z" />
    <glyph glyph-name="edotaccent" unicode="&#x117;" 
d="M309 514q141 0 200 -45t60 -133q1 -70 -41.5 -101t-152.5 -31h-269v99h210q34 0 43 6.5t9 31.5q0 24 -12 31t-41 7q-29 1 -44 -6t-20.5 -30.5t-5.5 -73.5q0 -46 6.5 -72t25.5 -37t56 -11q30 0 84.5 2t118.5 9l19 -126q-35 -18 -75 -28t-82.5 -14t-87.5 -4q-104 0 -167 29
t-90.5 86.5t-27.5 142.5q0 99 28 157.5t90.5 84.5t165.5 26zM344 735q59 0 59 -57v-47q0 -57 -59 -57h-63q-59 0 -59 57v47q0 57 59 57h63z" />
    <glyph glyph-name="Eogonek" unicode="&#x118;" horiz-adv-x="596" 
d="M209 694q60 0 123.5 -0.5t124.5 -3t111 -9.5l-10 -153h-253q-19 0 -30 -10t-11 -26v-294q0 -16 11 -26t30 -10h253l10 -153q-50 -6 -111 -9t-124.5 -3.5t-123.5 -0.5q-71 0 -116.5 43.5t-45.5 113.5v384q0 70 45.5 113.5t116.5 43.5zM65 425h457v-144h-457v144zM488 11
l80 -2q-12 -22 -23.5 -42t-23.5 -45q-13 -27 3.5 -32t44.5 -1l12 -72q-61 -23 -103 -23t-66 16t-31 41.5t2 52.5q8 24 33.5 52t71.5 55z" />
    <glyph glyph-name="eogonek" unicode="&#x119;" 
d="M309 514q141 0 200 -45t60 -133q1 -70 -41.5 -101t-152.5 -31h-269v99h210q34 0 43 6.5t9 31.5q0 24 -12 31t-41 7q-29 1 -44 -6t-20.5 -30.5t-5.5 -73.5q0 -46 6.5 -72t25.5 -37t56 -11q30 0 84.5 2t118.5 9l19 -126q-35 -18 -75 -28t-82.5 -14t-87.5 -4q-104 0 -167 29
t-90.5 86.5t-27.5 142.5q0 99 28 157.5t90.5 84.5t165.5 26zM475 36l80 -2q-12 -22 -23.5 -42t-23.5 -45q-13 -27 3.5 -32t44.5 -1l12 -72q-61 -23 -103 -23t-66 16t-31 41.5t2 52.5q8 24 33.5 52t71.5 55z" />
    <glyph glyph-name="Ecaron" unicode="&#x11a;" horiz-adv-x="596" 
d="M209 694q60 0 123.5 -0.5t124.5 -3t111 -9.5l-10 -153h-253q-19 0 -30 -10t-11 -26v-294q0 -16 11 -26t30 -10h253l10 -153q-50 -6 -111 -9t-124.5 -3.5t-123.5 -0.5q-71 0 -116.5 43.5t-45.5 113.5v384q0 70 45.5 113.5t116.5 43.5zM65 425h457v-144h-457v144zM479 944
l48 -77l-163 -131h-82l-164 131l50 77l151 -76h8z" />
    <glyph glyph-name="ecaron" unicode="&#x11b;" 
d="M309 514q141 0 200 -45t60 -133q1 -70 -41.5 -101t-152.5 -31h-269v99h210q34 0 43 6.5t9 31.5q0 24 -12 31t-41 7q-29 1 -44 -6t-20.5 -30.5t-5.5 -73.5q0 -46 6.5 -72t25.5 -37t56 -11q30 0 84.5 2t118.5 9l19 -126q-35 -18 -75 -28t-82.5 -14t-87.5 -4q-104 0 -167 29
t-90.5 86.5t-27.5 142.5q0 99 28 157.5t90.5 84.5t165.5 26zM468 766l48 -77l-163 -131h-82l-164 131l50 77l151 -76h8z" />
    <glyph glyph-name="Gcircumflex" unicode="&#x11c;" horiz-adv-x="668" 
d="M357 704q55 0 96.5 -3t77 -9t71.5 -17l-16 -156q-38 1 -72.5 1t-71.5 0.5t-84 0.5q-29 0 -48 -7.5t-30 -27t-15.5 -54t-4.5 -87.5q0 -70 8 -107.5t27 -52t53 -14.5q22 0 40.5 1.5t33.5 4.5t24 5l21 -91q-12 -20 -39.5 -45t-69.5 -42.5t-97 -17.5q-79 0 -130 35.5
t-75 114.5t-24 209q0 133 31.5 211.5t103 113t190.5 34.5zM631 397v-397h-160l-28 107l-20 37v253h208zM429 930l135 -141l-48 -69l-159 93h-8l-162 -93l-50 77l140 133h152z" />
    <glyph glyph-name="gcircumflex" unicode="&#x11d;" horiz-adv-x="604" 
d="M288 514q94 0 150 -15.5t81 -50t25 -92.5t-24.5 -92.5t-81 -50t-151.5 -15.5q-94 0 -151 15.5t-82 50t-25 92.5t25.5 92.5t82.5 50t151 15.5zM287 399q-37 0 -50 -8.5t-13 -34.5t13 -35t50 -9t49.5 9t12.5 35t-12.5 34.5t-49.5 8.5zM601 500l-10 -77l-140 -24l-37 101
h187zM128 226l97 -17q-11 -2 -16 -14.5t2 -24.5t30 -14l182 -12q86 -6 123 -44.5t37 -112.5q0 -71 -30 -107t-93.5 -48.5t-165.5 -12.5q-90 0 -146 8t-87 24.5t-42.5 43.5t-11.5 66q0 31 12.5 54.5t45.5 42t94 32.5l86 19l68 -26l-32 -17q-30 -21 -47 -31.5t-24 -18
t-7 -23.5q0 -13 7.5 -20t27 -9.5t53.5 -2.5q38 0 59 2t29 8t8 17q0 13 -8 18.5t-25.5 8t-44.5 4.5l-136 10q-45 4 -71 22.5t-35.5 45t-5 53.5t22 48t44.5 28zM369 742l135 -141l-48 -69l-159 93h-8l-162 -93l-50 77l140 133h152z" />
    <glyph glyph-name="Gbreve" unicode="&#x11e;" horiz-adv-x="668" 
d="M357 704q55 0 96.5 -3t77 -9t71.5 -17l-16 -156q-38 1 -72.5 1t-71.5 0.5t-84 0.5q-29 0 -48 -7.5t-30 -27t-15.5 -54t-4.5 -87.5q0 -70 8 -107.5t27 -52t53 -14.5q22 0 40.5 1.5t33.5 4.5t24 5l21 -91q-12 -20 -39.5 -45t-69.5 -42.5t-97 -17.5q-79 0 -130 35.5
t-75 114.5t-24 209q0 133 31.5 211.5t103 113t190.5 34.5zM631 397v-397h-160l-28 107l-20 37v253h208zM433 922l97 -13q8 -44 -11.5 -83.5t-62 -64t-104.5 -24.5q-61 0 -104 24.5t-63 64t-12 83.5l97 13q0 -31 18.5 -45t63.5 -14q44 0 62.5 14t18.5 45z" />
    <glyph glyph-name="gbreve" unicode="&#x11f;" horiz-adv-x="604" 
d="M288 514q94 0 150 -15.5t81 -50t25 -92.5t-24.5 -92.5t-81 -50t-151.5 -15.5q-94 0 -151 15.5t-82 50t-25 92.5t25.5 92.5t82.5 50t151 15.5zM287 399q-37 0 -50 -8.5t-13 -34.5t13 -35t50 -9t49.5 9t12.5 35t-12.5 34.5t-49.5 8.5zM601 500l-10 -77l-140 -24l-37 101
h187zM128 226l97 -17q-11 -2 -16 -14.5t2 -24.5t30 -14l182 -12q86 -6 123 -44.5t37 -112.5q0 -71 -30 -107t-93.5 -48.5t-165.5 -12.5q-90 0 -146 8t-87 24.5t-42.5 43.5t-11.5 66q0 31 12.5 54.5t45.5 42t94 32.5l86 19l68 -26l-32 -17q-30 -21 -47 -31.5t-24 -18
t-7 -23.5q0 -13 7.5 -20t27 -9.5t53.5 -2.5q38 0 59 2t29 8t8 17q0 13 -8 18.5t-25.5 8t-44.5 4.5l-136 10q-45 4 -71 22.5t-35.5 45t-5 53.5t22 48t44.5 28zM373 734l97 -13q8 -44 -11.5 -83.5t-62 -64t-104.5 -24.5q-61 0 -104 24.5t-63 64t-12 83.5l97 13q0 -31 18.5 -45
t63.5 -14q44 0 62.5 14t18.5 45z" />
    <glyph glyph-name="Gdotaccent" unicode="&#x120;" horiz-adv-x="668" 
d="M357 704q55 0 96.5 -3t77 -9t71.5 -17l-16 -156q-38 1 -72.5 1t-71.5 0.5t-84 0.5q-29 0 -48 -7.5t-30 -27t-15.5 -54t-4.5 -87.5q0 -70 8 -107.5t27 -52t53 -14.5q22 0 40.5 1.5t33.5 4.5t24 5l21 -91q-12 -20 -39.5 -45t-69.5 -42.5t-97 -17.5q-79 0 -130 35.5
t-75 114.5t-24 209q0 133 31.5 211.5t103 113t190.5 34.5zM631 397v-397h-160l-28 107l-20 37v253h208zM384 913q59 0 59 -57v-47q0 -57 -59 -57h-63q-59 0 -59 57v47q0 57 59 57h63z" />
    <glyph glyph-name="gdotaccent" unicode="&#x121;" horiz-adv-x="604" 
d="M288 514q94 0 150 -15.5t81 -50t25 -92.5t-24.5 -92.5t-81 -50t-151.5 -15.5q-94 0 -151 15.5t-82 50t-25 92.5t25.5 92.5t82.5 50t151 15.5zM287 399q-37 0 -50 -8.5t-13 -34.5t13 -35t50 -9t49.5 9t12.5 35t-12.5 34.5t-49.5 8.5zM601 500l-10 -77l-140 -24l-37 101
h187zM128 226l97 -17q-11 -2 -16 -14.5t2 -24.5t30 -14l182 -12q86 -6 123 -44.5t37 -112.5q0 -71 -30 -107t-93.5 -48.5t-165.5 -12.5q-90 0 -146 8t-87 24.5t-42.5 43.5t-11.5 66q0 31 12.5 54.5t45.5 42t94 32.5l86 19l68 -26l-32 -17q-30 -21 -47 -31.5t-24 -18
t-7 -23.5q0 -13 7.5 -20t27 -9.5t53.5 -2.5q38 0 59 2t29 8t8 17q0 13 -8 18.5t-25.5 8t-44.5 4.5l-136 10q-45 4 -71 22.5t-35.5 45t-5 53.5t22 48t44.5 28zM324 725q59 0 59 -57v-47q0 -57 -59 -57h-63q-59 0 -59 57v47q0 57 59 57h63z" />
    <glyph glyph-name="uni0122" unicode="&#x122;" horiz-adv-x="668" 
d="M369 -48q36 0 50 -11.5t15 -42.5v-48q0 -38 -7 -65.5t-21 -49.5t-33 -44l-71 19q10 25 13.5 51.5t4.5 51.5q-54 0 -56 48l3 37q0 31 14 42.5t50 11.5h38zM357 704q55 0 96.5 -3t77 -9t71.5 -17l-16 -156q-38 1 -72.5 1t-71.5 0.5t-84 0.5q-29 0 -48 -7.5t-30 -27
t-15.5 -54t-4.5 -87.5q0 -70 8 -107.5t27 -52t53 -14.5q22 0 40.5 1.5t33.5 4.5t24 5l21 -91q-12 -20 -39.5 -45t-69.5 -42.5t-97 -17.5q-79 0 -130 35.5t-75 114.5t-24 209q0 133 31.5 211.5t103 113t190.5 34.5zM631 397v-397h-160l-28 107l-20 37v253h208z" />
    <glyph glyph-name="uni0123" unicode="&#x123;" horiz-adv-x="604" 
d="M284 548q-36 0 -50 11.5t-15 42.5v48q0 38 7 65.5t21 49.5t33 44l71 -19q-10 -25 -13.5 -51.5t-4.5 -51.5q54 0 56 -48l-3 -37q0 -31 -14 -42.5t-50 -11.5h-38zM288 514q94 0 150 -15.5t81 -50t25 -92.5t-24.5 -92.5t-81 -50t-151.5 -15.5q-94 0 -151 15.5t-82 50
t-25 92.5t25.5 92.5t82.5 50t151 15.5zM287 399q-37 0 -50 -8.5t-13 -34.5t13 -35t50 -9t49.5 9t12.5 35t-12.5 34.5t-49.5 8.5zM601 500l-10 -77l-140 -24l-37 101h187zM128 226l97 -17q-11 -2 -16 -14.5t2 -24.5t30 -14l182 -12q86 -6 123 -44.5t37 -112.5q0 -71 -30 -107
t-93.5 -48.5t-165.5 -12.5q-90 0 -146 8t-87 24.5t-42.5 43.5t-11.5 66q0 31 12.5 54.5t45.5 42t94 32.5l86 19l68 -26l-32 -17q-30 -21 -47 -31.5t-24 -18t-7 -23.5q0 -13 7.5 -20t27 -9.5t53.5 -2.5q38 0 59 2t29 8t8 17q0 13 -8 18.5t-25.5 8t-44.5 4.5l-136 10
q-45 4 -71 22.5t-35.5 45t-5 53.5t22 48t44.5 28z" />
    <glyph glyph-name="Hcircumflex" unicode="&#x124;" horiz-adv-x="714" 
d="M270 690v-690h-217v690h217zM455 442v-152h-193v152h193zM661 690v-690h-217v690h217zM432 930l135 -141l-48 -69l-159 93h-8l-162 -93l-50 77l140 133h152z" />
    <glyph glyph-name="hcircumflex" unicode="&#x125;" horiz-adv-x="621" 
d="M433 514q148 0 148 -140v-374h-210v307q0 17 -8 23.5t-28 6.5q-19 0 -42.5 -3t-61.5 -16l-22 91q53 53 111.5 79t112.5 26zM253 700l1 -149q0 -45 -6.5 -86.5t-14.5 -66.5l20 -12v-386h-210v700h210zM225 910l135 -141l-48 -69l-159 93h-8l-162 -93l-50 77l140 133h152z
" />
    <glyph glyph-name="Hbar" unicode="&#x126;" horiz-adv-x="714" 
d="M712 601v-94h-708v94h708zM270 690v-690h-217v690h217zM455 442v-152h-193v152h193zM661 690v-690h-217v690h217z" />
    <glyph glyph-name="hbar" unicode="&#x127;" horiz-adv-x="624" 
d="M362 631v-84h-371v84h371zM436 514q148 0 148 -140v-374h-210v307q0 17 -8 23.5t-28 6.5q-19 0 -42.5 -3t-61.5 -16l-22 91q53 53 111.5 79t112.5 26zM256 700l1 -149q0 -45 -6.5 -86.5t-14.5 -66.5l20 -12v-386h-210v700h210z" />
    <glyph glyph-name="Itilde" unicode="&#x128;" horiz-adv-x="321" 
d="M268 690v-690h-215v690h215zM55 920q26 -2 48 -7t42.5 -12t40 -13.5t38.5 -10.5q23 -4 26 5t3 33h87q16 -84 -11 -128t-74 -41q-34 3 -64.5 11.5t-56.5 18t-49 13.5q-22 4 -25 -5t-3 -33h-87q-11 60 0 98t35 55.5t50 15.5z" />
    <glyph glyph-name="itilde" unicode="&#x129;" horiz-adv-x="305" 
d="M258 500v-500h-211v500h211zM44 742q26 -2 48 -7t42.5 -12t40 -13.5t38.5 -10.5q23 -4 26 5t3 33h87q16 -84 -11 -128t-74 -41q-34 3 -64.5 11.5t-56.5 18t-49 13.5q-22 4 -25 -5t-3 -33h-87q-11 60 0 98t35 55.5t50 15.5z" />
    <glyph glyph-name="Imacron" unicode="&#x12a;" horiz-adv-x="321" 
d="M268 690v-690h-215v690h215zM322 895v-123h-320v123h320z" />
    <glyph glyph-name="imacron" unicode="&#x12b;" horiz-adv-x="305" 
d="M258 500v-500h-211v500h211zM311 717v-123h-320v123h320z" />
    <glyph glyph-name="Ibreve" unicode="&#x12c;" horiz-adv-x="321" 
d="M268 690v-690h-215v690h215zM242 922l97 -13q8 -44 -11.5 -83.5t-62 -64t-104.5 -24.5q-61 0 -104 24.5t-63 64t-12 83.5l97 13q0 -31 18.5 -45t63.5 -14q44 0 62.5 14t18.5 45z" />
    <glyph glyph-name="ibreve" unicode="&#x12d;" horiz-adv-x="305" 
d="M258 500v-500h-211v500h211zM231 744l97 -13q8 -44 -11.5 -83.5t-62 -64t-104.5 -24.5q-61 0 -104 24.5t-63 64t-12 83.5l97 13q0 -31 18.5 -45t63.5 -14q44 0 62.5 14t18.5 45z" />
    <glyph glyph-name="Iogonek" unicode="&#x12e;" horiz-adv-x="321" 
d="M268 690v-690h-215v690h215zM160 2l80 -2q-12 -22 -23.5 -42t-23.5 -45q-13 -27 3.5 -32t44.5 -1l12 -72q-61 -23 -103 -23t-66 16t-31 41.5t2 52.5q8 24 33.5 52t71.5 55z" />
    <glyph glyph-name="iogonek" unicode="&#x12f;" horiz-adv-x="305" 
d="M258 500v-500h-211v500h211zM182 735q59 0 59 -57v-47q0 -57 -59 -57h-63q-59 0 -59 57v47q0 57 59 57h63zM158 2l80 -2q-12 -22 -23.5 -42t-23.5 -45q-13 -27 3.5 -32t44.5 -1l12 -72q-61 -23 -103 -23t-66 16t-31 41.5t2 52.5q8 24 33.5 52t71.5 55z" />
    <glyph glyph-name="Idotaccent" unicode="&#x130;" horiz-adv-x="321" 
d="M268 690v-690h-215v690h215zM193 913q59 0 59 -57v-47q0 -57 -59 -57h-63q-59 0 -59 57v47q0 57 59 57h63z" />
    <glyph glyph-name="dotlessi" unicode="&#x131;" horiz-adv-x="305" 
d="M258 500v-500h-211v500h211z" />
    <glyph glyph-name="IJ" unicode="&#x132;" horiz-adv-x="725" 
d="M268 690v-690h-215v690h215zM675 690v-563q0 -67 -49 -104t-134 -37q-22 0 -53.5 3t-61 8.5t-46.5 14.5l23 136h47q59 0 59 35v507h215z" />
    <glyph glyph-name="ij" unicode="&#x133;" horiz-adv-x="607" 
d="M256 500v-500h-209v500h209zM196 729q61 0 61 -62v-51q0 -62 -61 -62h-89q-61 0 -61 62v51q0 62 61 62h89zM560 500v-442q0 -52 -19.5 -101t-55.5 -87.5t-87 -59.5l-116 92q40 40 54.5 76.5t14.5 79.5v442h209zM497 739q61 0 61 -62v-51q0 -62 -61 -62h-89q-61 0 -61 62
v51q0 62 61 62h89z" />
    <glyph glyph-name="Jcircumflex" unicode="&#x134;" horiz-adv-x="404" 
d="M354 690v-563q0 -67 -49 -104t-134 -37q-22 0 -53.5 3t-61 8.5t-46.5 14.5l23 136h47q59 0 59 35v507h215zM327 930l135 -141l-48 -69l-159 93h-8l-162 -93l-50 77l140 133h152z" />
    <glyph glyph-name="jcircumflex" unicode="&#x135;" horiz-adv-x="304" 
d="M257 500v-442q0 -52 -19.5 -101t-55.5 -87.5t-87 -59.5l-116 92q40 40 54.5 76.5t14.5 79.5v442h209zM228 752l135 -141l-48 -69l-159 93h-8l-162 -93l-50 77l140 133h152z" />
    <glyph glyph-name="uni0136" unicode="&#x136;" horiz-adv-x="676" 
d="M367 -48q36 0 50 -11.5t15 -42.5v-48q0 -38 -7 -65.5t-21 -49.5t-33 -44l-71 19q10 25 13.5 51.5t4.5 51.5q-54 0 -56 48l3 37q0 31 14 42.5t50 11.5h38zM675 690l-159 -270q-13 -23 -30 -39t-31 -22v-4q14 -6 35.5 -25.5t33.5 -42.5l161 -287h-241l-183 361l181 329h233
zM270 690v-174q0 -38 -7.5 -78.5t-23.5 -75.5q12 -32 21.5 -69.5t9.5 -67.5v-225h-217v690h217zM324 428v-140h-116v140h116z" />
    <glyph glyph-name="uni0137" unicode="&#x137;" horiz-adv-x="609" 
d="M325 -38q36 0 50 -11.5t15 -42.5v-48q0 -38 -7 -65.5t-21 -49.5t-33 -44l-71 19q10 25 13.5 51.5t4.5 51.5q-54 0 -56 48l3 37q0 31 14 42.5t50 11.5h38zM599 500l-105 -164q-11 -20 -29 -36.5t-29 -23.5v-4q11 -6 29 -26t29 -41l124 -205h-231l-146 277l128 223h230z
M253 700v-268q0 -38 -5 -78t-16 -75q8 -32 14.5 -69.5t6.5 -66.5v-143h-210v700h210zM308 334v-118h-117v118h117z" />
    <glyph glyph-name="kgreenlandic" unicode="&#x138;" horiz-adv-x="609" 
d="M599 500l-105 -179q-12 -20 -29.5 -36.5t-28.5 -23.5v-4q11 -6 28 -26.5t30 -40.5l124 -190h-231l-146 255l128 245h230zM253 500v-90q0 -38 -5 -78t-16 -75q8 -32 14.5 -69.5t6.5 -66.5v-121h-210v500h210zM308 312v-118h-117v118h117z" />
    <glyph glyph-name="Lacute" unicode="&#x139;" horiz-adv-x="557" 
d="M267 690v-482q0 -16 11.5 -26t30.5 -10h232l10 -162q-77 -10 -164.5 -12t-172.5 -2q-75 0 -119.5 43.5t-44.5 113.5v537h217zM282 956l79 -133l-255 -103l-57 86z" />
    <glyph glyph-name="lacute" unicode="&#x13a;" horiz-adv-x="358" 
d="M253 700v-518q0 -19 12.5 -27.5t37.5 -8.5h34l23 -134q-15 -9 -42.5 -14.5t-56 -8.5t-48.5 -3q-79 0 -124 37t-45 103v574h209zM280 954l79 -133l-255 -103l-57 86z" />
    <glyph glyph-name="uni013B" unicode="&#x13b;" horiz-adv-x="557" 
d="M313 -48q36 0 50 -11.5t15 -42.5v-48q0 -38 -7 -65.5t-21 -49.5t-33 -44l-71 19q10 25 13.5 51.5t4.5 51.5q-54 0 -56 48l3 37q0 31 14 42.5t50 11.5h38zM267 690v-482q0 -16 11.5 -26t30.5 -10h232l10 -162q-77 -10 -164.5 -12t-172.5 -2q-75 0 -119.5 43.5t-44.5 113.5
v537h217z" />
    <glyph glyph-name="uni013C" unicode="&#x13c;" horiz-adv-x="358" 
d="M210 -48q36 0 50 -11.5t15 -42.5v-48q0 -38 -7 -65.5t-21 -49.5t-33 -44l-71 19q10 25 13.5 51.5t4.5 51.5q-54 0 -56 48l3 37q0 31 14 42.5t50 11.5h38zM253 700v-518q0 -19 12.5 -27.5t37.5 -8.5h34l23 -134q-15 -9 -42.5 -14.5t-56 -8.5t-48.5 -3q-79 0 -124 37
t-45 103v574h209z" />
    <glyph glyph-name="Lcaron" unicode="&#x13d;" horiz-adv-x="557" 
d="M267 690v-482q0 -16 11.5 -26t30.5 -10h232l10 -162q-77 -10 -164.5 -12t-172.5 -2q-75 0 -119.5 43.5t-44.5 113.5v537h217zM451 690q31 0 43.5 -12.5t12.5 -47.5v-53q0 -62 -13.5 -100t-38.5 -74l-62 21q9 28 11.5 56.5t3.5 56.5q-51 0 -48 53l2 40q2 35 13.5 47.5
t42.5 12.5h33z" />
    <glyph glyph-name="lcaron" unicode="&#x13e;" horiz-adv-x="358" 
d="M253 700v-518q0 -19 12.5 -27.5t37.5 -8.5h34l23 -134q-15 -9 -42.5 -14.5t-56 -8.5t-48.5 -3q-79 0 -124 37t-45 103v574h209zM385 704q31 0 43.5 -12.5t12.5 -47.5v-53q0 -62 -13.5 -100t-38.5 -74l-62 21q9 28 11.5 56.5t3.5 56.5q-51 0 -48 53l2 40q2 35 13.5 47.5
t42.5 12.5h33z" />
    <glyph glyph-name="Ldot" unicode="&#x13f;" horiz-adv-x="557" 
d="M389 330q-59 0 -59 57v47q0 57 59 57h63q59 0 59 -57v-47q0 -57 -59 -57h-63zM267 690v-482q0 -16 11.5 -26t30.5 -10h232l10 -162q-77 -10 -164.5 -12t-172.5 -2q-75 0 -119.5 43.5t-44.5 113.5v537h217z" />
    <glyph glyph-name="ldot" unicode="&#x140;" horiz-adv-x="478" 
d="M354 311q-59 0 -59 57v47q0 57 59 57h63q59 0 59 -57v-47q0 -57 -59 -57h-63zM253 700v-518q0 -19 12.5 -27.5t37.5 -8.5h34l23 -134q-15 -9 -42.5 -14.5t-56 -8.5t-48.5 -3q-79 0 -124 37t-45 103v574h209z" />
    <glyph glyph-name="Lslash" unicode="&#x141;" horiz-adv-x="557" 
d="M371 513v-104l-364 -140v104zM267 690v-482q0 -16 11.5 -26t30.5 -10h232l10 -162q-77 -10 -164.5 -12t-172.5 -2q-75 0 -119.5 43.5t-44.5 113.5v537h217z" />
    <glyph glyph-name="lslash" unicode="&#x142;" horiz-adv-x="390" 
d="M365 503v-104l-361 -140v104zM282 700v-518q0 -19 12.5 -27.5t37.5 -8.5h34l23 -134q-15 -9 -42.5 -14.5t-56 -8.5t-48.5 -3q-79 0 -124 37t-45 103v574h209z" />
    <glyph glyph-name="Nacute" unicode="&#x143;" horiz-adv-x="738" 
d="M687 690v-615q0 -75 -75 -75h-83q-34 0 -50.5 16t-33.5 47l-150 237q-14 26 -25.5 56.5t-20.5 61.5h-7q5 -31 7.5 -63.5t2.5 -62.5v-292h-200v615q0 75 75 75h83q34 0 50 -16t34 -47l144 -226q14 -25 27.5 -55t25.5 -63h7q-4 32 -6.5 63t-2.5 62l-1 282h199zM512 956
l79 -133l-255 -103l-57 86z" />
    <glyph glyph-name="nacute" unicode="&#x144;" horiz-adv-x="621" 
d="M433 514q148 0 148 -140v-374h-210v307q0 17 -8 23.5t-28 6.5q-19 0 -42.5 -3t-61.5 -16l-10 103q50 47 105 70t107 23zM208 500l26 -102l19 -12v-386h-210v500h165zM443 778l79 -133l-255 -103l-57 86z" />
    <glyph glyph-name="uni0145" unicode="&#x145;" horiz-adv-x="738" 
d="M398 -48q36 0 50 -11.5t15 -42.5v-48q0 -38 -7 -65.5t-21 -49.5t-33 -44l-71 19q10 25 13.5 51.5t4.5 51.5q-54 0 -56 48l3 37q0 31 14 42.5t50 11.5h38zM687 690v-615q0 -75 -75 -75h-83q-34 0 -50.5 16t-33.5 47l-150 237q-14 26 -25.5 56.5t-20.5 61.5h-7
q5 -31 7.5 -63.5t2.5 -62.5v-292h-200v615q0 75 75 75h83q34 0 50 -16t34 -47l144 -226q14 -25 27.5 -55t25.5 -63h7q-4 32 -6.5 63t-2.5 62l-1 282h199z" />
    <glyph glyph-name="uni0146" unicode="&#x146;" horiz-adv-x="621" 
d="M318 -38q36 0 50 -11.5t15 -42.5v-48q0 -38 -7 -65.5t-21 -49.5t-33 -44l-71 19q10 25 13.5 51.5t4.5 51.5q-54 0 -56 48l3 37q0 31 14 42.5t50 11.5h38zM433 514q148 0 148 -140v-374h-210v307q0 17 -8 23.5t-28 6.5q-19 0 -42.5 -3t-61.5 -16l-10 103q50 47 105 70
t107 23zM208 500l26 -102l19 -12v-386h-210v500h165z" />
    <glyph glyph-name="Ncaron" unicode="&#x147;" horiz-adv-x="738" 
d="M687 690v-615q0 -75 -75 -75h-83q-34 0 -50.5 16t-33.5 47l-150 237q-14 26 -25.5 56.5t-20.5 61.5h-7q5 -31 7.5 -63.5t2.5 -62.5v-292h-200v615q0 75 75 75h83q34 0 50 -16t34 -47l144 -226q14 -25 27.5 -55t25.5 -63h7q-4 32 -6.5 63t-2.5 62l-1 282h199zM537 944
l48 -77l-163 -131h-82l-164 131l50 77l151 -76h8z" />
    <glyph glyph-name="ncaron" unicode="&#x148;" horiz-adv-x="621" 
d="M433 514q148 0 148 -140v-374h-210v307q0 17 -8 23.5t-28 6.5q-19 0 -42.5 -3t-61.5 -16l-10 103q50 47 105 70t107 23zM208 500l26 -102l19 -12v-386h-210v500h165zM468 766l48 -77l-163 -131h-82l-164 131l50 77l151 -76h8z" />
    <glyph glyph-name="Eng" unicode="&#x14a;" horiz-adv-x="740" 
d="M687 690v-723q0 -81 -40 -126t-105 -45q-29 0 -71.5 6.5t-72.5 19.5l23 136h36q43 0 43 27v24h-5q-7 0 -20 17t-25 37l-155 237q-15 26 -26 57t-21 61h-6q4 -29 6.5 -58t2.5 -58v-302h-199v615q0 75 75 75h82q34 0 51 -16t34 -47l144 -226q12 -20 26 -51t26 -67h7
q-4 31 -7 61.5t-3 61.5v284h200z" />
    <glyph glyph-name="eng" unicode="&#x14b;" horiz-adv-x="621" 
d="M433 514q148 0 148 -140v-398q0 -81 -41 -126t-116 -45q-20 0 -50 3t-58 8.5t-45 14.5l23 136h36q41 0 41 27v313q0 17 -8 23.5t-28 6.5q-16 0 -35.5 -1.5t-46.5 -9.5v-326h-210v500h164l19 -73q50 44 104 65.5t103 21.5z" />
    <glyph glyph-name="Omacron" unicode="&#x14c;" horiz-adv-x="707" 
d="M353 704q89 0 150.5 -16.5t99.5 -56.5t55 -109.5t17 -176.5q0 -106 -17 -176t-55 -110t-99.5 -56.5t-150.5 -16.5q-88 0 -149.5 16.5t-99.5 56.5t-55 110t-17 176q0 107 17 176.5t55 109.5t99.5 56.5t149.5 16.5zM353 543q-37 0 -57 -16t-28 -59t-8 -123t8 -123t28 -59
t57 -16t57 16t28 59t8 123t-8 123t-28 59t-57 16zM513 895v-123h-320v123h320z" />
    <glyph glyph-name="omacron" unicode="&#x14d;" horiz-adv-x="611" 
d="M306 514q102 0 163.5 -25.5t88.5 -83.5t27 -156q0 -96 -27 -153t-88.5 -82.5t-163.5 -25.5t-163.5 25.5t-89 82.5t-27.5 153q0 98 27.5 156t89 83.5t163.5 25.5zM306 372q-24 0 -37 -9.5t-18 -35.5t-5 -78q0 -50 5 -75.5t18 -34.5t37 -9t37 9t17.5 34.5t4.5 75.5
q0 52 -4.5 78t-17.5 35.5t-37 9.5zM467 707v-123h-320v123h320z" />
    <glyph glyph-name="Obreve" unicode="&#x14e;" horiz-adv-x="707" 
d="M353 704q89 0 150.5 -16.5t99.5 -56.5t55 -109.5t17 -176.5q0 -106 -17 -176t-55 -110t-99.5 -56.5t-150.5 -16.5q-88 0 -149.5 16.5t-99.5 56.5t-55 110t-17 176q0 107 17 176.5t55 109.5t99.5 56.5t149.5 16.5zM353 543q-37 0 -57 -16t-28 -59t-8 -123t8 -123t28 -59
t57 -16t57 16t28 59t8 123t-8 123t-28 59t-57 16zM433 922l97 -13q8 -44 -11.5 -83.5t-62 -64t-104.5 -24.5q-61 0 -104 24.5t-63 64t-12 83.5l97 13q0 -31 18.5 -45t63.5 -14q44 0 62.5 14t18.5 45z" />
    <glyph glyph-name="obreve" unicode="&#x14f;" horiz-adv-x="611" 
d="M306 514q102 0 163.5 -25.5t88.5 -83.5t27 -156q0 -96 -27 -153t-88.5 -82.5t-163.5 -25.5t-163.5 25.5t-89 82.5t-27.5 153q0 98 27.5 156t89 83.5t163.5 25.5zM306 372q-24 0 -37 -9.5t-18 -35.5t-5 -78q0 -50 5 -75.5t18 -34.5t37 -9t37 9t17.5 34.5t4.5 75.5
q0 52 -4.5 78t-17.5 35.5t-37 9.5zM387 734l97 -13q8 -44 -11.5 -83.5t-62 -64t-104.5 -24.5q-61 0 -104 24.5t-63 64t-12 83.5l97 13q0 -31 18.5 -45t63.5 -14q44 0 62.5 14t18.5 45z" />
    <glyph glyph-name="Ohungarumlaut" unicode="&#x150;" horiz-adv-x="707" 
d="M353 704q89 0 150.5 -16.5t99.5 -56.5t55 -109.5t17 -176.5q0 -106 -17 -176t-55 -110t-99.5 -56.5t-150.5 -16.5q-88 0 -149.5 16.5t-99.5 56.5t-55 110t-17 176q0 107 17 176.5t55 109.5t99.5 56.5t149.5 16.5zM353 543q-37 0 -57 -16t-28 -59t-8 -123t8 -123t28 -59
t57 -16t57 16t28 59t8 123t-8 123t-28 59t-57 16zM272 968l129 -84l-169 -176l-83 67zM487 968l129 -84l-170 -176l-82 66z" />
    <glyph glyph-name="ohungarumlaut" unicode="&#x151;" horiz-adv-x="611" 
d="M306 514q102 0 163.5 -25.5t88.5 -83.5t27 -156q0 -96 -27 -153t-88.5 -82.5t-163.5 -25.5t-163.5 25.5t-89 82.5t-27.5 153q0 98 27.5 156t89 83.5t163.5 25.5zM306 372q-24 0 -37 -9.5t-18 -35.5t-5 -78q0 -50 5 -75.5t18 -34.5t37 -9t37 9t17.5 34.5t4.5 75.5
q0 52 -4.5 78t-17.5 35.5t-37 9.5zM226 780l129 -84l-169 -176l-83 67zM441 780l129 -84l-170 -176l-82 66z" />
    <glyph glyph-name="OE" unicode="&#x152;" horiz-adv-x="982" 
d="M349 704q38 0 71.5 -3.5t64 -10.5t58.5 -18l-84 -142q-12 5 -27.5 7.5t-36 4t-46.5 1.5q-35 0 -54 -16t-26 -59t-7 -123t7 -123t26 -59t54 -16q28 0 48.5 2t36.5 5.5t28 9.5l75 -135q-27 -15 -56.5 -24.5t-62 -14t-69.5 -4.5q-87 0 -147.5 16.5t-97.5 56.5t-54 110
t-17 176q0 107 17 176.5t54 109.5t97.5 56.5t147.5 16.5zM603 694q59 0 121.5 -0.5t122 -3t107.5 -9.5l-10 -153h-241q-18 0 -28.5 -10t-10.5 -26v-294q0 -16 10.5 -26t28.5 -10h241l10 -153q-48 -6 -108 -9t-122.5 -3.5t-121.5 -0.5q-68 0 -112 43.5t-44 113.5v384
q0 70 44.5 113.5t112.5 43.5zM463 420h447v-134h-447v134z" />
    <glyph glyph-name="oe" unicode="&#x153;" horiz-adv-x="909" 
d="M301 -12q-101 0 -161.5 25.5t-87 82.5t-26.5 153q0 98 26.5 156t87 83.5t161.5 25.5q98 0 157 -25.5t85.5 -83.5t26.5 -156q0 -96 -26.5 -153t-85.5 -82.5t-157 -25.5zM301 130q25 0 38 9t17.5 34.5t4.5 75.5q0 52 -4.5 78t-16.5 35.5t-36 9.5t-36.5 -9.5t-16.5 -35.5
t-4 -78q0 -50 4 -75.5t16 -34.5t34 -9zM634 -14q-99 0 -159.5 29t-87.5 86.5t-27 142.5q0 99 27 157.5t87 84.5t159 26q139 0 196.5 -45t58.5 -133q1 -46 -17 -75.5t-60.5 -43t-117.5 -13.5h-257v99h199q34 0 43 6.5t9 31.5q0 24 -12 31t-39 7q-28 1 -42.5 -6t-19.5 -30.5
t-5 -73.5q0 -46 6 -72t25 -37t57 -11q28 0 81 2t117 9l19 -126q-35 -18 -73.5 -28t-80 -14t-86.5 -4z" />
    <glyph glyph-name="Racute" unicode="&#x154;" horiz-adv-x="676" 
d="M345 700q102 0 166 -19t94.5 -64.5t30.5 -126.5q0 -41 -12.5 -76.5t-43 -58.5t-84.5 -29v-6q19 -2 42 -11.5t43 -32t28 -64.5l54 -212h-227l-45 205q-6 29 -18.5 38t-40.5 9q-75 1 -122.5 1t-80.5 1t-66 3l3 148h274q31 0 48 6t23.5 21.5t6.5 43.5q0 29 -6.5 44t-23.5 21
t-48 6q-104 0 -175 -1t-97 -4l-16 148q46 5 86.5 7t89 2.5t117.5 0.5zM265 690v-690h-213v690h213zM461 956l79 -133l-255 -103l-57 86z" />
    <glyph glyph-name="racute" unicode="&#x155;" horiz-adv-x="452" 
d="M207 500l26 -102l20 -12v-386h-210v500h164zM450 514l-18 -192h-53q-27 0 -60.5 -2.5t-87.5 -11.5l-12 113q49 47 101 70t101 23h29zM362 778l79 -133l-255 -103l-57 86z" />
    <glyph glyph-name="uni0156" unicode="&#x156;" horiz-adv-x="676" 
d="M366 -48q36 0 50 -11.5t15 -42.5v-48q0 -38 -7 -65.5t-21 -49.5t-33 -44l-71 19q10 25 13.5 51.5t4.5 51.5q-54 0 -56 48l3 37q0 31 14 42.5t50 11.5h38zM345 700q102 0 166 -19t94.5 -64.5t30.5 -126.5q0 -41 -12.5 -76.5t-43 -58.5t-84.5 -29v-6q19 -2 42 -11.5t43 -32
t28 -64.5l54 -212h-227l-45 205q-6 29 -18.5 38t-40.5 9q-75 1 -122.5 1t-80.5 1t-66 3l3 148h274q31 0 48 6t23.5 21.5t6.5 43.5q0 29 -6.5 44t-23.5 21t-48 6q-104 0 -175 -1t-97 -4l-16 148q46 5 86.5 7t89 2.5t117.5 0.5zM265 690v-690h-213v690h213z" />
    <glyph glyph-name="uni0157" unicode="&#x157;" horiz-adv-x="452" 
d="M155 -38q36 0 50 -11.5t15 -42.5v-48q0 -38 -7 -65.5t-21 -49.5t-33 -44l-71 19q10 25 13.5 51.5t4.5 51.5q-54 0 -56 48l3 37q0 31 14 42.5t50 11.5h38zM207 500l26 -102l20 -12v-386h-210v500h164zM450 514l-18 -192h-53q-27 0 -60.5 -2.5t-87.5 -11.5l-12 113
q49 47 101 70t101 23h29z" />
    <glyph glyph-name="Rcaron" unicode="&#x158;" horiz-adv-x="676" 
d="M345 700q102 0 166 -19t94.5 -64.5t30.5 -126.5q0 -41 -12.5 -76.5t-43 -58.5t-84.5 -29v-6q19 -2 42 -11.5t43 -32t28 -64.5l54 -212h-227l-45 205q-6 29 -18.5 38t-40.5 9q-75 1 -122.5 1t-80.5 1t-66 3l3 148h274q31 0 48 6t23.5 21.5t6.5 43.5q0 29 -6.5 44t-23.5 21
t-48 6q-104 0 -175 -1t-97 -4l-16 148q46 5 86.5 7t89 2.5t117.5 0.5zM265 690v-690h-213v690h213zM486 944l48 -77l-163 -131h-82l-164 131l50 77l151 -76h8z" />
    <glyph glyph-name="rcaron" unicode="&#x159;" horiz-adv-x="452" 
d="M207 500l26 -102l20 -12v-386h-210v500h164zM450 514l-18 -192h-53q-27 0 -60.5 -2.5t-87.5 -11.5l-12 113q49 47 101 70t101 23h29zM387 766l48 -77l-163 -131h-82l-164 131l50 77l151 -76h8z" />
    <glyph glyph-name="Sacute" unicode="&#x15a;" horiz-adv-x="610" 
d="M314 704q54 0 121.5 -6.5t129.5 -28.5l-13 -139q-45 1 -111.5 1.5t-131.5 0.5q-19 0 -31.5 -1t-19.5 -4t-10 -8t-3 -13q0 -14 12.5 -23.5t47.5 -23.5l125 -52q86 -37 120.5 -85.5t34.5 -124.5q0 -58 -14 -98.5t-46.5 -65t-86.5 -36t-135 -11.5q-35 0 -106 5.5t-161 28.5
l13 152q60 -1 110 -2.5t86.5 -2t54.5 -0.5q28 0 42.5 2t20 7.5t5.5 14.5q0 10 -4 16.5t-14 12.5t-29 13l-137 60q-84 38 -119 85t-35 123q0 59 15.5 98t48.5 62t87.5 33t132.5 10zM439 956l79 -133l-255 -103l-57 86z" />
    <glyph glyph-name="sacute" unicode="&#x15b;" horiz-adv-x="553" 
d="M256 514q40 0 87.5 -3t92.5 -7.5t76 -11.5l-13 -122h-100.5h-96.5q-33 0 -49 -0.5t-21 -2.5t-5 -9q0 -8 11.5 -11t47.5 -13l115 -29q67 -19 99.5 -52.5t32.5 -98.5q0 -63 -24 -99t-77.5 -51t-140.5 -15q-36 0 -106.5 3.5t-153.5 17.5l13 122h41.5h65h71.5q48 0 71 0.5
t30 4t7 10.5q0 9 -13 12.5t-52 14.5l-110 30q-55 16 -83 39.5t-38 54.5t-10 70q0 46 21.5 78.5t72 50t138.5 17.5zM412 768l79 -133l-255 -103l-57 86z" />
    <glyph glyph-name="Scircumflex" unicode="&#x15c;" horiz-adv-x="610" 
d="M314 704q54 0 121.5 -6.5t129.5 -28.5l-13 -139q-45 1 -111.5 1.5t-131.5 0.5q-19 0 -31.5 -1t-19.5 -4t-10 -8t-3 -13q0 -14 12.5 -23.5t47.5 -23.5l125 -52q86 -37 120.5 -85.5t34.5 -124.5q0 -58 -14 -98.5t-46.5 -65t-86.5 -36t-135 -11.5q-35 0 -106 5.5t-161 28.5
l13 152q60 -1 110 -2.5t86.5 -2t54.5 -0.5q28 0 42.5 2t20 7.5t5.5 14.5q0 10 -4 16.5t-14 12.5t-29 13l-137 60q-84 38 -119 85t-35 123q0 59 15.5 98t48.5 62t87.5 33t132.5 10zM385 930l135 -141l-48 -69l-159 93h-8l-162 -93l-50 77l140 133h152z" />
    <glyph glyph-name="scircumflex" unicode="&#x15d;" horiz-adv-x="553" 
d="M256 514q40 0 87.5 -3t92.5 -7.5t76 -11.5l-13 -122h-100.5h-96.5q-33 0 -49 -0.5t-21 -2.5t-5 -9q0 -8 11.5 -11t47.5 -13l115 -29q67 -19 99.5 -52.5t32.5 -98.5q0 -63 -24 -99t-77.5 -51t-140.5 -15q-36 0 -106.5 3.5t-153.5 17.5l13 122h41.5h65h71.5q48 0 71 0.5
t30 4t7 10.5q0 9 -13 12.5t-52 14.5l-110 30q-55 16 -83 39.5t-38 54.5t-10 70q0 46 21.5 78.5t72 50t138.5 17.5zM358 742l135 -141l-48 -69l-159 93h-8l-162 -93l-50 77l140 133h152z" />
    <glyph glyph-name="Scedilla" unicode="&#x15e;" horiz-adv-x="610" 
d="M314 704q54 0 121.5 -6.5t129.5 -28.5l-13 -139q-45 1 -111.5 1.5t-131.5 0.5q-19 0 -31.5 -1t-19.5 -4t-10 -8t-3 -13q0 -14 12.5 -23.5t47.5 -23.5l125 -52q86 -37 120.5 -85.5t34.5 -124.5q0 -58 -14 -98.5t-46.5 -65t-86.5 -36t-135 -11.5q-35 0 -106 5.5t-161 28.5
l13 152q60 -1 110 -2.5t86.5 -2t54.5 -0.5q28 0 42.5 2t20 7.5t5.5 14.5q0 10 -4 16.5t-14 12.5t-29 13l-137 60q-84 38 -119 85t-35 123q0 59 15.5 98t48.5 62t87.5 33t132.5 10zM240 -45q63 7 102.5 7t57.5 -16t16 -56q-2 -57 -34.5 -92.5t-84.5 -49t-115 -5.5l22 78
q33 0 58.5 8t28.5 43q2 11 -10.5 11h-59.5z" />
    <glyph glyph-name="scedilla" unicode="&#x15f;" horiz-adv-x="553" 
d="M256 514q40 0 87.5 -3t92.5 -7.5t76 -11.5l-13 -122h-100.5h-96.5q-33 0 -49 -0.5t-21 -2.5t-5 -9q0 -8 11.5 -11t47.5 -13l115 -29q67 -19 99.5 -52.5t32.5 -98.5q0 -63 -24 -99t-77.5 -51t-140.5 -15q-36 0 -106.5 3.5t-153.5 17.5l13 122h41.5h65h71.5q48 0 71 0.5
t30 4t7 10.5q0 9 -13 12.5t-52 14.5l-110 30q-55 16 -83 39.5t-38 54.5t-10 70q0 46 21.5 78.5t72 50t138.5 17.5zM195 -49q63 7 102.5 7t57.5 -16t16 -56q-2 -57 -34.5 -92.5t-84.5 -49t-115 -5.5l22 78q33 0 58.5 8t28.5 43q2 11 -10.5 11h-59.5z" />
    <glyph glyph-name="Scaron" unicode="&#x160;" horiz-adv-x="610" 
d="M314 704q54 0 121.5 -6.5t129.5 -28.5l-13 -139q-45 1 -111.5 1.5t-131.5 0.5q-19 0 -31.5 -1t-19.5 -4t-10 -8t-3 -13q0 -14 12.5 -23.5t47.5 -23.5l125 -52q86 -37 120.5 -85.5t34.5 -124.5q0 -58 -14 -98.5t-46.5 -65t-86.5 -36t-135 -11.5q-35 0 -106 5.5t-161 28.5
l13 152q60 -1 110 -2.5t86.5 -2t54.5 -0.5q28 0 42.5 2t20 7.5t5.5 14.5q0 10 -4 16.5t-14 12.5t-29 13l-137 60q-84 38 -119 85t-35 123q0 59 15.5 98t48.5 62t87.5 33t132.5 10zM464 944l48 -77l-163 -131h-82l-164 131l50 77l151 -76h8z" />
    <glyph glyph-name="scaron" unicode="&#x161;" horiz-adv-x="553" 
d="M256 514q40 0 87.5 -3t92.5 -7.5t76 -11.5l-13 -122h-100.5h-96.5q-33 0 -49 -0.5t-21 -2.5t-5 -9q0 -8 11.5 -11t47.5 -13l115 -29q67 -19 99.5 -52.5t32.5 -98.5q0 -63 -24 -99t-77.5 -51t-140.5 -15q-36 0 -106.5 3.5t-153.5 17.5l13 122h41.5h65h71.5q48 0 71 0.5
t30 4t7 10.5q0 9 -13 12.5t-52 14.5l-110 30q-55 16 -83 39.5t-38 54.5t-10 70q0 46 21.5 78.5t72 50t138.5 17.5zM437 756l48 -77l-163 -131h-82l-164 131l50 77l151 -76h8z" />
    <glyph glyph-name="uni0162" unicode="&#x162;" horiz-adv-x="623" 
d="M420 690v-690h-217v690h217zM613 690v-162h-603v162h603zM235 -53q63 7 102.5 7t57.5 -16t16 -56q-2 -57 -34.5 -92.5t-84.5 -49t-115 -5.5l22 78q33 0 58.5 8t28.5 43q2 11 -10.5 11h-59.5z" />
    <glyph glyph-name="uni0163" unicode="&#x163;" horiz-adv-x="438" 
d="M305 631v-449q0 -19 10 -27.5t33 -8.5h53l23 -134q-21 -9 -52 -14.5t-62.5 -8.5t-55.5 -3q-73 0 -116 37t-43 103l-1 505h211zM426 500v-126h-416v121l96 5h320zM197 -45q63 7 102.5 7t57.5 -16t16 -56q-2 -57 -34.5 -92.5t-84.5 -49t-115 -5.5l22 78q33 0 58.5 8
t28.5 43q2 11 -10.5 11h-59.5z" />
    <glyph glyph-name="Tcaron" unicode="&#x164;" horiz-adv-x="623" 
d="M420 690v-690h-217v690h217zM613 690v-162h-603v162h603zM467 944l48 -77l-163 -131h-82l-164 131l50 77l151 -76h8z" />
    <glyph glyph-name="tcaron" unicode="&#x165;" horiz-adv-x="438" 
d="M305 631v-449q0 -19 10 -27.5t33 -8.5h53l23 -134q-21 -9 -52 -14.5t-62.5 -8.5t-55.5 -3q-73 0 -116 37t-43 103l-1 505h211zM426 500v-126h-416v121l96 5h320zM414 818q31 0 43.5 -12.5t12.5 -47.5v-53q0 -62 -13.5 -100t-38.5 -74l-62 21q9 28 11.5 56.5t3.5 56.5
q-51 0 -48 53l2 40q2 35 13.5 47.5t42.5 12.5h33z" />
    <glyph glyph-name="Tbar" unicode="&#x166;" horiz-adv-x="627" 
d="M537 401v-94h-449v94h449zM422 690v-690h-217v690h217zM615 690v-162h-603v162h603z" />
    <glyph glyph-name="tbar" unicode="&#x167;" horiz-adv-x="438" 
d="M387 315v-94h-348v94h348zM305 631v-449q0 -19 10 -27.5t33 -8.5h53l23 -134q-21 -9 -52 -14.5t-62.5 -8.5t-55.5 -3q-73 0 -116 37t-43 103l-1 505h211zM426 500v-126h-416v121l96 5h320z" />
    <glyph glyph-name="Utilde" unicode="&#x168;" horiz-adv-x="705" 
d="M658 690v-405q0 -110 -28.5 -175.5t-93 -94.5t-172.5 -29q-117 0 -186.5 29t-100 94.5t-30.5 175.5v405h217v-405q0 -55 7.5 -85t27 -41.5t54.5 -11.5t54 11.5t26.5 41.5t7.5 85v405h217zM248 920q26 -2 48 -7t42.5 -12t40 -13.5t38.5 -10.5q23 -4 26 5t3 33h87
q16 -84 -11 -128t-74 -41q-34 3 -64.5 11.5t-56.5 18t-49 13.5q-22 4 -25 -5t-3 -33h-87q-11 60 0 98t35 55.5t50 15.5z" />
    <glyph glyph-name="utilde" unicode="&#x169;" horiz-adv-x="615" 
d="M250 500v-307q0 -16 9 -23.5t28 -7.5q20 0 41 3.5t55 16.5l12 -103q-51 -47 -101 -70t-106 -23q-148 0 -148 140v374h210zM572 500v-500h-165l-26 102l-20 12v386h211zM200 742q26 -2 48 -7t42.5 -12t40 -13.5t38.5 -10.5q23 -4 26 5t3 33h87q16 -84 -11 -128t-74 -41
q-34 3 -64.5 11.5t-56.5 18t-49 13.5q-22 4 -25 -5t-3 -33h-87q-11 60 0 98t35 55.5t50 15.5z" />
    <glyph glyph-name="Umacron" unicode="&#x16a;" horiz-adv-x="705" 
d="M658 690v-405q0 -110 -28.5 -175.5t-93 -94.5t-172.5 -29q-117 0 -186.5 29t-100 94.5t-30.5 175.5v405h217v-405q0 -55 7.5 -85t27 -41.5t54.5 -11.5t54 11.5t26.5 41.5t7.5 85v405h217zM515 895v-123h-320v123h320z" />
    <glyph glyph-name="umacron" unicode="&#x16b;" horiz-adv-x="615" 
d="M250 500v-307q0 -16 9 -23.5t28 -7.5q20 0 41 3.5t55 16.5l12 -103q-51 -47 -101 -70t-106 -23q-148 0 -148 140v374h210zM572 500v-500h-165l-26 102l-20 12v386h211zM467 717v-123h-320v123h320z" />
    <glyph glyph-name="Ubreve" unicode="&#x16c;" horiz-adv-x="705" 
d="M658 690v-405q0 -110 -28.5 -175.5t-93 -94.5t-172.5 -29q-117 0 -186.5 29t-100 94.5t-30.5 175.5v405h217v-405q0 -55 7.5 -85t27 -41.5t54.5 -11.5t54 11.5t26.5 41.5t7.5 85v405h217zM435 922l97 -13q8 -44 -11.5 -83.5t-62 -64t-104.5 -24.5q-61 0 -104 24.5t-63 64
t-12 83.5l97 13q0 -31 18.5 -45t63.5 -14q44 0 62.5 14t18.5 45z" />
    <glyph glyph-name="ubreve" unicode="&#x16d;" horiz-adv-x="615" 
d="M250 500v-307q0 -16 9 -23.5t28 -7.5q20 0 41 3.5t55 16.5l12 -103q-51 -47 -101 -70t-106 -23q-148 0 -148 140v374h210zM572 500v-500h-165l-26 102l-20 12v386h211zM387 744l97 -13q8 -44 -11.5 -83.5t-62 -64t-104.5 -24.5q-61 0 -104 24.5t-63 64t-12 83.5l97 13
q0 -31 18.5 -45t63.5 -14q44 0 62.5 14t18.5 45z" />
    <glyph glyph-name="Uring" unicode="&#x16e;" horiz-adv-x="705" 
d="M658 690v-405q0 -110 -28.5 -175.5t-93 -94.5t-172.5 -29q-117 0 -186.5 29t-100 94.5t-30.5 175.5v405h217v-405q0 -55 7.5 -85t27 -41.5t54.5 -11.5t54 11.5t26.5 41.5t7.5 85v405h217zM354 963q35 0 64.5 -17t47 -45t17.5 -63t-17.5 -63.5t-47 -45t-64.5 -16.5
t-64.5 16.5t-47 45t-17.5 63.5t17.5 63t47 45t64.5 17zM354 883q-18 0 -31 -13.5t-13 -31.5q0 -19 13 -32t31 -13t31 13t13 32q0 18 -13 31.5t-31 13.5z" />
    <glyph glyph-name="uring" unicode="&#x16f;" horiz-adv-x="615" 
d="M250 500v-307q0 -16 9 -23.5t28 -7.5q20 0 41 3.5t55 16.5l12 -103q-51 -47 -101 -70t-106 -23q-148 0 -148 140v374h210zM572 500v-500h-165l-26 102l-20 12v386h211zM306 785q35 0 64.5 -17t47 -45t17.5 -63t-17.5 -63.5t-47 -45t-64.5 -16.5t-64.5 16.5t-47 45
t-17.5 63.5t17.5 63t47 45t64.5 17zM306 705q-18 0 -31 -13.5t-13 -31.5q0 -19 13 -32t31 -13t31 13t13 32q0 18 -13 31.5t-31 13.5z" />
    <glyph glyph-name="Uhungarumlaut" unicode="&#x170;" horiz-adv-x="705" 
d="M658 690v-405q0 -110 -28.5 -175.5t-93 -94.5t-172.5 -29q-117 0 -186.5 29t-100 94.5t-30.5 175.5v405h217v-405q0 -55 7.5 -85t27 -41.5t54.5 -11.5t54 11.5t26.5 41.5t7.5 85v405h217zM274 968l129 -84l-169 -176l-83 67zM489 968l129 -84l-170 -176l-82 66z" />
    <glyph glyph-name="uhungarumlaut" unicode="&#x171;" horiz-adv-x="615" 
d="M250 500v-307q0 -16 9 -23.5t28 -7.5q20 0 41 3.5t55 16.5l12 -103q-51 -47 -101 -70t-106 -23q-148 0 -148 140v374h210zM572 500v-500h-165l-26 102l-20 12v386h211zM226 790l129 -84l-169 -176l-83 67zM441 790l129 -84l-170 -176l-82 66z" />
    <glyph glyph-name="Uogonek" unicode="&#x172;" horiz-adv-x="705" 
d="M658 690v-405q0 -110 -28.5 -175.5t-93 -94.5t-172.5 -29q-117 0 -186.5 29t-100 94.5t-30.5 175.5v405h217v-405q0 -55 7.5 -85t27 -41.5t54.5 -11.5t54 11.5t26.5 41.5t7.5 85v405h217zM331 2l80 -2q-12 -22 -23.5 -42t-23.5 -45q-13 -27 3.5 -32t44.5 -1l12 -72
q-61 -23 -103 -23t-66 16t-31 41.5t2 52.5q8 24 33.5 52t71.5 55z" />
    <glyph glyph-name="uogonek" unicode="&#x173;" horiz-adv-x="615" 
d="M250 500v-307q0 -16 9 -23.5t28 -7.5q20 0 41 3.5t55 16.5l12 -103q-51 -47 -101 -70t-106 -23q-148 0 -148 140v374h210zM572 500v-500h-165l-26 102l-20 12v386h211zM492 2l80 -2q-12 -22 -23.5 -42t-23.5 -45q-13 -27 3.5 -32t44.5 -1l12 -72q-61 -23 -103 -23t-66 16
t-31 41.5t2 52.5q8 24 33.5 52t71.5 55z" />
    <glyph glyph-name="Wcircumflex" unicode="&#x174;" horiz-adv-x="1003" 
d="M983 690l-86 -632q-4 -26 -25 -42t-49 -16h-184q-28 0 -49.5 16t-24.5 42l-47 381q-3 25 -4.5 50.5t-3.5 50.5h-17q-1 -25 -3 -51t-5 -51l-46 -380q-3 -26 -24.5 -42t-49.5 -16h-185q-28 0 -49 16t-25 42l-86 632h214l35 -423q2 -25 3 -53.5t1 -61.5h16q4 26 8.5 57.5
t7.5 58.5l46 358q3 29 23.5 46.5t49.5 17.5h155q29 0 49 -17.5t24 -46.5l47 -360q3 -27 7 -57t8 -57h16q0 28 2 58t3 55l34 425h214zM579 930l135 -141l-48 -69l-159 93h-8l-162 -93l-50 77l140 133h152z" />
    <glyph glyph-name="wcircumflex" unicode="&#x175;" horiz-adv-x="876" 
d="M868 500l-102 -447q-5 -24 -23.5 -38.5t-44.5 -14.5h-147q-28 0 -48.5 17t-23.5 45l-29 227q-2 23 -3 44.5t-3 43.5h-13q-1 -22 -3 -43.5t-4 -44.5l-29 -227q-3 -28 -23.5 -45t-48.5 -17h-145q-25 0 -44 14.5t-24 38.5l-102 447h208l36 -281q2 -22 4.5 -44t3.5 -45h12
q2 23 4.5 45t4.5 44l28 220q3 27 23 44t48 17h115q28 0 48 -17t23 -45l27 -219q2 -22 5.5 -44t4.5 -45h12q2 23 4 45t5 44l35 281h209zM517 742l135 -141l-48 -69l-159 93h-8l-162 -93l-50 77l140 133h152z" />
    <glyph glyph-name="Ycircumflex" unicode="&#x176;" horiz-adv-x="654" 
d="M664 690l-233 -485h-208l-233 485h223l87 -217q9 -22 13 -48t8 -49h13q4 23 8.5 49.5t12.5 48.5l86 216h223zM436 328v-328h-217v328h217zM405 930l135 -141l-48 -69l-159 93h-8l-162 -93l-50 77l140 133h152z" />
    <glyph glyph-name="ycircumflex" unicode="&#x177;" horiz-adv-x="602" 
d="M604 500l-159 -486q-13 -41 -37.5 -85t-64 -78.5t-96.5 -49t-135 1.5l-14 113q62 13 98.5 34.5t55.5 63.5l37 80q11 25 19.5 64t13.5 66l59 276h223zM220 500l59 -276q4 -23 7 -47t6 -47h30l-65 -130h-46q-24 0 -41.5 13.5t-24.5 35.5l-148 451h223zM383 752l135 -141
l-48 -69l-159 93h-8l-162 -93l-50 77l140 133h152z" />
    <glyph glyph-name="Ydieresis" unicode="&#x178;" horiz-adv-x="654" 
d="M664 690l-233 -485h-208l-233 485h223l87 -217q9 -22 13 -48t8 -49h13q4 23 8.5 49.5t12.5 48.5l86 216h223zM436 328v-328h-217v328h217zM455 904q39 0 39 -39v-63q0 -39 -39 -39h-69q-39 0 -39 39v63q0 39 39 39h69zM266 904q39 0 39 -39v-63q0 -39 -39 -39h-69
q-39 0 -39 39v63q0 39 39 39h69z" />
    <glyph glyph-name="Zacute" unicode="&#x179;" horiz-adv-x="605" 
d="M328 539l239 -1l-299 -387l-239 1zM577 152v-152h-548v152h548zM567 690v-152h-528v152h528zM435 956l79 -133l-255 -103l-57 86z" />
    <glyph glyph-name="zacute" unicode="&#x17a;" horiz-adv-x="541" 
d="M262 366l244 -1l-233 -231l-244 1zM512 135v-135h-483v135h483zM506 500v-135h-471v135h471zM413 778l79 -133l-255 -103l-57 86z" />
    <glyph glyph-name="Zdotaccent" unicode="&#x17b;" horiz-adv-x="605" 
d="M328 539l239 -1l-299 -387l-239 1zM577 152v-152h-548v152h548zM567 690v-152h-528v152h528zM336 913q59 0 59 -57v-47q0 -57 -59 -57h-63q-59 0 -59 57v47q0 57 59 57h63z" />
    <glyph glyph-name="zdotaccent" unicode="&#x17c;" horiz-adv-x="541" 
d="M262 366l244 -1l-233 -231l-244 1zM512 135v-135h-483v135h483zM506 500v-135h-471v135h471zM314 735q59 0 59 -57v-47q0 -57 -59 -57h-63q-59 0 -59 57v47q0 57 59 57h63z" />
    <glyph glyph-name="Zcaron" unicode="&#x17d;" horiz-adv-x="605" 
d="M328 539l239 -1l-299 -387l-239 1zM577 152v-152h-548v152h548zM567 690v-152h-528v152h528zM460 944l48 -77l-163 -131h-82l-164 131l50 77l151 -76h8z" />
    <glyph glyph-name="zcaron" unicode="&#x17e;" horiz-adv-x="541" 
d="M262 366l244 -1l-233 -231l-244 1zM512 135v-135h-483v135h483zM506 500v-135h-471v135h471zM438 766l48 -77l-163 -131h-82l-164 131l50 77l151 -76h8z" />
    <glyph glyph-name="uni018F" unicode="&#x18f;" horiz-adv-x="673" 
d="M338 -12q-105 0 -173 27t-101.5 78t-33.5 124q0 91 47.5 143t132.5 52h357v-140h-264q-38 0 -52 -16.5t-14 -42.5q0 -35 20 -50.5t73 -15.5q51 0 72.5 17t26.5 58t5 114v96.5t-10 66t-37 37.5t-81 12q-51 0 -114.5 -4t-120.5 -12l-14 133q35 14 79 22t90.5 12t86.5 4
q118 0 190 -36t105 -115t33 -208q0 -131 -31 -209t-98 -112.5t-174 -34.5z" />
    <glyph glyph-name="florin" unicode="&#x192;" horiz-adv-x="513" 
d="M348 704q17 0 45.5 -1.5t58.5 -4.5t50 -8l-31 -126h-61q-23 0 -33 -11.5t-12 -40.5l-46 -529q-4 -47 -24.5 -84t-61 -58t-106.5 -21q-17 0 -45.5 1.5t-58 4.5t-50.5 8l31 126h61q23 0 33 11.5t12 40.5l46 529q5 47 25 84t60.5 58t106.5 21zM450 410l-10 -126h-397l9 121
l99 5h299z" />
    <glyph glyph-name="Ohorn" unicode="&#x1a0;" horiz-adv-x="736" 
d="M353 704q89 0 150.5 -16.5t99.5 -56.5t55 -109.5t17 -176.5q0 -106 -17 -176t-55 -110t-99.5 -56.5t-150.5 -16.5q-88 0 -149.5 16.5t-99.5 56.5t-55 110t-17 176q0 107 17 176.5t55 109.5t99.5 56.5t149.5 16.5zM353 543q-37 0 -57 -16t-28 -59t-8 -123t8 -123t28 -59
t57 -16t57 16t28 59t8 123t-8 123t-28 59t-57 16zM580 564l-4 83q33 6 50.5 27.5t19.5 55.5l124 -5q-1 -56 -25.5 -93t-67 -54t-97.5 -14z" />
    <glyph glyph-name="ohorn" unicode="&#x1a1;" horiz-adv-x="654" 
d="M306 514q102 0 163.5 -25.5t88.5 -83.5t27 -156q0 -96 -27 -153t-88.5 -82.5t-163.5 -25.5t-163.5 25.5t-89 82.5t-27.5 153q0 98 27.5 156t89 83.5t163.5 25.5zM306 372q-24 0 -37 -9.5t-18 -35.5t-5 -78q0 -50 5 -75.5t18 -34.5t37 -9t37 9t17.5 34.5t4.5 75.5
q0 52 -4.5 78t-17.5 35.5t-37 9.5zM496 381l-4 83q33 6 50.5 27.5t19.5 55.5l124 -5q-1 -56 -25.5 -93t-67 -54t-97.5 -14z" />
    <glyph glyph-name="Uhorn" unicode="&#x1af;" horiz-adv-x="785" 
d="M658 690v-405q0 -110 -28.5 -175.5t-93 -94.5t-172.5 -29q-117 0 -186.5 29t-100 94.5t-30.5 175.5v405h217v-405q0 -55 7.5 -85t27 -41.5t54.5 -11.5t54 11.5t26.5 41.5t7.5 85v405h217zM642 564l-4 83q33 6 50.5 27.5t19.5 55.5l124 -5q-1 -56 -25.5 -93t-67 -54
t-97.5 -14z" />
    <glyph glyph-name="uhorn" unicode="&#x1b0;" horiz-adv-x="705" 
d="M250 500v-307q0 -16 9 -23.5t28 -7.5q20 0 41 3.5t55 16.5l12 -103q-51 -47 -101 -70t-106 -23q-148 0 -148 140v374h210zM572 500v-500h-165l-26 102l-20 12v386h211zM555 381l-4 83q33 6 50.5 27.5t19.5 55.5l124 -5q-1 -56 -25.5 -93t-67 -54t-97.5 -14z" />
    <glyph glyph-name="uni01C4" unicode="&#x1c4;" horiz-adv-x="1300" 
d="M347 700q89 0 150.5 -16.5t99.5 -56t55 -108.5t17 -174t-17 -174t-55 -108.5t-99.5 -56t-150.5 -16.5q-86 0 -158 3t-137 7l88 154q35 -4 88.5 -5.5t118.5 -1.5q37 0 57 16t28 59t8 123t-8 123t-28 59t-57 16h-107.5t-90.5 1l-97 146q66 4 136.5 7t158.5 3zM269 690v-690
h-217v690h217zM1023 539l239 -1l-299 -387l-239 1zM1272 152v-152h-548v152h548zM1262 690v-152h-528v152h528zM1155 944l48 -77l-163 -131h-82l-164 131l50 77l151 -76h8z" />
    <glyph glyph-name="uni01C5" unicode="&#x1c5;" horiz-adv-x="1242" 
d="M347 700q89 0 150.5 -16.5t99.5 -56t55 -108.5t17 -174t-17 -174t-55 -108.5t-99.5 -56t-150.5 -16.5q-86 0 -158 3t-137 7l88 154q35 -4 88.5 -5.5t118.5 -1.5q37 0 57 16t28 59t8 123t-8 123t-28 59t-57 16h-107.5t-90.5 1l-97 146q66 4 136.5 7t158.5 3zM269 690v-690
h-217v690h217zM963 366l244 -1l-233 -231l-244 1zM1213 135v-135h-483v135h483zM1207 500v-135h-471v135h471zM1139 766l48 -77l-163 -131h-82l-164 131l50 77l151 -76h8z" />
    <glyph glyph-name="uni01C6" unicode="&#x1c6;" horiz-adv-x="1161" 
d="M218 514q57 0 106.5 -17t80.5 -59l-15 -82q-20 6 -38.5 13.5t-49.5 7.5q-21 0 -33.5 -7.5t-18.5 -32.5t-6 -79q0 -46 5.5 -67.5t18 -28t31.5 -6.5q22 0 37 3.5t26.5 9.5t24.5 13l13 -86q-20 -46 -65.5 -77t-125.5 -31q-98 0 -139.5 70.5t-41.5 197.5q0 103 21.5 158.5
t64 77.5t104.5 22zM577 700v-700h-167l-20 96l-23 16v314l6 12q-2 32 -4 69.5t-2 73.5v119h210zM882 366l244 -1l-233 -231l-244 1zM1132 135v-135h-483v135h483zM1126 500v-135h-471v135h471zM1058 766l48 -77l-163 -131h-82l-164 131l50 77l151 -76h8z" />
    <glyph glyph-name="uni01C7" unicode="&#x1c7;" horiz-adv-x="961" 
d="M267 690v-482q0 -16 11.5 -26t30.5 -10h232l10 -162q-77 -10 -164.5 -12t-172.5 -2q-75 0 -119.5 43.5t-44.5 113.5v537h217zM911 690v-563q0 -67 -49 -104t-134 -37q-22 0 -53.5 3t-61 8.5t-46.5 14.5l23 136h47q59 0 59 35v507h215z" />
    <glyph glyph-name="uni01C8" unicode="&#x1c8;" horiz-adv-x="861" 
d="M267 690v-482q0 -16 11.5 -26t30.5 -10h232l10 -162q-77 -10 -164.5 -12t-172.5 -2q-75 0 -119.5 43.5t-44.5 113.5v537h217zM814 500v-442q0 -52 -19.5 -101t-55.5 -87.5t-87 -59.5l-116 92q40 40 54.5 76.5t14.5 79.5v442h209zM751 739q61 0 61 -62v-51q0 -62 -61 -62
h-89q-61 0 -61 62v51q0 62 61 62h89z" />
    <glyph glyph-name="uni01C9" unicode="&#x1c9;" horiz-adv-x="662" 
d="M253 700v-518q0 -19 12.5 -27.5t37.5 -8.5h34l23 -134q-15 -9 -42.5 -14.5t-56 -8.5t-48.5 -3q-79 0 -124 37t-45 103v574h209zM615 500v-442q0 -52 -19.5 -101t-55.5 -87.5t-87 -59.5l-116 92q40 40 54.5 76.5t14.5 79.5v442h209zM552 739q61 0 61 -62v-51
q0 -62 -61 -62h-89q-61 0 -61 62v51q0 62 61 62h89z" />
    <glyph glyph-name="uni01CA" unicode="&#x1ca;" horiz-adv-x="1142" 
d="M687 690v-615q0 -75 -75 -75h-83q-34 0 -50.5 16t-33.5 47l-150 237q-14 26 -25.5 56.5t-20.5 61.5h-7q5 -31 7.5 -63.5t2.5 -62.5v-292h-200v615q0 75 75 75h83q34 0 50 -16t34 -47l144 -226q14 -25 27.5 -55t25.5 -63h7q-4 32 -6.5 63t-2.5 62l-1 282h199zM1092 690
v-563q0 -67 -49 -104t-134 -37q-22 0 -53.5 3t-61 8.5t-46.5 14.5l23 136h47q59 0 59 35v507h215z" />
    <glyph glyph-name="uni01CB" unicode="&#x1cb;" horiz-adv-x="1042" 
d="M687 690v-615q0 -75 -75 -75h-83q-34 0 -50.5 16t-33.5 47l-150 237q-14 26 -25.5 56.5t-20.5 61.5h-7q5 -31 7.5 -63.5t2.5 -62.5v-292h-200v615q0 75 75 75h83q34 0 50 -16t34 -47l144 -226q14 -25 27.5 -55t25.5 -63h7q-4 32 -6.5 63t-2.5 62l-1 282h199zM995 500
v-442q0 -52 -19.5 -101t-55.5 -87.5t-87 -59.5l-116 92q40 40 54.5 76.5t14.5 79.5v442h209zM932 739q61 0 61 -62v-51q0 -62 -61 -62h-89q-61 0 -61 62v51q0 62 61 62h89z" />
    <glyph glyph-name="uni01CC" unicode="&#x1cc;" horiz-adv-x="925" 
d="M433 514q148 0 148 -140v-374h-210v307q0 17 -8 23.5t-28 6.5q-19 0 -42.5 -3t-61.5 -16l-10 103q50 47 105 70t107 23zM208 500l26 -102l19 -12v-386h-210v500h165zM878 500v-442q0 -52 -19.5 -101t-55.5 -87.5t-87 -59.5l-116 92q40 40 54.5 76.5t14.5 79.5v442h209z
M815 739q61 0 61 -62v-51q0 -62 -61 -62h-89q-61 0 -61 62v51q0 62 61 62h89z" />
    <glyph glyph-name="Gcaron" unicode="&#x1e6;" horiz-adv-x="668" 
d="M357 704q55 0 96.5 -3t77 -9t71.5 -17l-16 -156q-38 1 -72.5 1t-71.5 0.5t-84 0.5q-29 0 -48 -7.5t-30 -27t-15.5 -54t-4.5 -87.5q0 -70 8 -107.5t27 -52t53 -14.5q22 0 40.5 1.5t33.5 4.5t24 5l21 -91q-12 -20 -39.5 -45t-69.5 -42.5t-97 -17.5q-79 0 -130 35.5
t-75 114.5t-24 209q0 133 31.5 211.5t103 113t190.5 34.5zM631 397v-397h-160l-28 107l-20 37v253h208zM508 944l48 -77l-163 -131h-82l-164 131l50 77l151 -76h8z" />
    <glyph glyph-name="gcaron" unicode="&#x1e7;" horiz-adv-x="604" 
d="M288 514q94 0 150 -15.5t81 -50t25 -92.5t-24.5 -92.5t-81 -50t-151.5 -15.5q-94 0 -151 15.5t-82 50t-25 92.5t25.5 92.5t82.5 50t151 15.5zM287 399q-37 0 -50 -8.5t-13 -34.5t13 -35t50 -9t49.5 9t12.5 35t-12.5 34.5t-49.5 8.5zM601 500l-10 -77l-140 -24l-37 101
h187zM128 226l97 -17q-11 -2 -16 -14.5t2 -24.5t30 -14l182 -12q86 -6 123 -44.5t37 -112.5q0 -71 -30 -107t-93.5 -48.5t-165.5 -12.5q-90 0 -146 8t-87 24.5t-42.5 43.5t-11.5 66q0 31 12.5 54.5t45.5 42t94 32.5l86 19l68 -26l-32 -17q-30 -21 -47 -31.5t-24 -18
t-7 -23.5q0 -13 7.5 -20t27 -9.5t53.5 -2.5q38 0 59 2t29 8t8 17q0 13 -8 18.5t-25.5 8t-44.5 4.5l-136 10q-45 4 -71 22.5t-35.5 45t-5 53.5t22 48t44.5 28zM448 756l48 -77l-163 -131h-82l-164 131l50 77l151 -76h8z" />
    <glyph glyph-name="uni01EA" unicode="&#x1ea;" horiz-adv-x="707" 
d="M353 704q89 0 150.5 -16.5t99.5 -56.5t55 -109.5t17 -176.5q0 -106 -17 -176t-55 -110t-99.5 -56.5t-150.5 -16.5q-88 0 -149.5 16.5t-99.5 56.5t-55 110t-17 176q0 107 17 176.5t55 109.5t99.5 56.5t149.5 16.5zM353 543q-37 0 -57 -16t-28 -59t-8 -123t8 -123t28 -59
t57 -16t57 16t28 59t8 123t-8 123t-28 59t-57 16zM329 2l80 -2q-12 -22 -23.5 -42t-23.5 -45q-13 -27 3.5 -32t44.5 -1l12 -72q-61 -23 -103 -23t-66 16t-31 41.5t2 52.5q8 24 33.5 52t71.5 55z" />
    <glyph glyph-name="uni01EB" unicode="&#x1eb;" horiz-adv-x="611" 
d="M306 514q102 0 163.5 -25.5t88.5 -83.5t27 -156q0 -96 -27 -153t-88.5 -82.5t-163.5 -25.5t-163.5 25.5t-89 82.5t-27.5 153q0 98 27.5 156t89 83.5t163.5 25.5zM306 372q-24 0 -37 -9.5t-18 -35.5t-5 -78q0 -50 5 -75.5t18 -34.5t37 -9t37 9t17.5 34.5t4.5 75.5
q0 52 -4.5 78t-17.5 35.5t-37 9.5zM270 2l80 -2q-12 -22 -23.5 -42t-23.5 -45q-13 -27 3.5 -32t44.5 -1l12 -72q-61 -23 -103 -23t-66 16t-31 41.5t2 52.5q8 24 33.5 52t71.5 55z" />
    <glyph glyph-name="Aringacute" unicode="&#x1fa;" horiz-adv-x="683" 
d="M440 630q26 0 45.5 -15t27.5 -41l179 -574h-221l-104 389q-5 19 -7.5 39.5t-4.5 39.5h-27q-2 -19 -4.5 -39.5t-7.5 -39.5l-104 -389h-221l179 574q8 26 27.5 41t45.5 15h197zM525 301v-152h-367v152h367zM408 1139l79 -133l-255 -103l-57 86zM343 909q35 0 64.5 -17
t47 -45t17.5 -63t-17.5 -63.5t-47 -45t-64.5 -16.5t-64.5 16.5t-47 45t-17.5 63.5t17.5 63t47 45t64.5 17zM343 829q-18 0 -31 -13.5t-13 -31.5q0 -19 13 -32t31 -13t31 13t13 32q0 18 -13 31.5t-31 13.5z" />
    <glyph glyph-name="aringacute" unicode="&#x1fb;" 
d="M353 1021l79 -133l-255 -103l-57 86zM333 514q71 0 119.5 -18.5t74 -63t25.5 -122.5v-310h-167l-29 107l-14 20v184q-1 26 -13.5 38t-45.5 12q-39 0 -95.5 -1t-120.5 -4l-19 133q38 7 90.5 12.5t104.5 9t90 3.5zM471 307l-1 -101h-207q-19 0 -28.5 -8.5t-9.5 -22.5v-16
q0 -13 10.5 -22t31.5 -9q24 0 50 11.5t50 29.5t41 37v-64q-7 -17 -22 -43t-40.5 -52t-63 -43.5t-89.5 -17.5q-46 0 -85.5 16t-63 47.5t-23.5 78.5v50q0 60 44.5 94.5t120.5 34.5h285zM303 793q35 0 64.5 -17t47 -45t17.5 -63t-17.5 -63.5t-47 -45t-64.5 -16.5t-64.5 16.5
t-47 45t-17.5 63.5t17.5 63t47 45t64.5 17zM303 713q-18 0 -31 -13.5t-13 -31.5q0 -19 13 -32t31 -13t31 13t13 32q0 18 -13 31.5t-31 13.5z" />
    <glyph glyph-name="AEacute" unicode="&#x1fc;" horiz-adv-x="954" 
d="M576 692q96 0 177.5 -1.5t172.5 -9.5l-10 -150h-236q-17 0 -28 -10t-11 -26v-300q0 -16 10.5 -26t28.5 -10h236l10 -150q-78 -10 -166.5 -11.5t-174.5 -1.5q-68 0 -107 43.5t-39 113.5v345q0 16 4 32.5t11 29.5h-14q-7 -10 -12.5 -22.5t-10.5 -21.5l-215 -516h-221
l241 534q19 42 43.5 72t63 49t98.5 28t149 9zM488 309v-148h-358l1 148h357zM447 420h435v-134h-435v134zM695 976l79 -133l-255 -103l-57 86z" />
    <glyph glyph-name="aeacute" unicode="&#x1fd;" horiz-adv-x="886" 
d="M610 514q139 0 196.5 -45t58.5 -133q1 -46 -17 -75.5t-60 -43t-116 -13.5h-259v99h200q33 0 42 6.5t9 31.5q0 24 -11 31t-37 7q-31 1 -47 -6t-21.5 -30.5t-5.5 -73.5q0 -46 6.5 -72t26 -37t59.5 -11q28 0 81 2t117 9l19 -126q-35 -18 -73.5 -28t-80 -14t-86.5 -4
q-103 0 -164 29t-88.5 86.5t-27.5 142.5q0 99 27.5 157.5t88.5 84.5t163 26zM462 304l-1 -100l-200 2q-18 0 -27 -8.5t-9 -22.5v-16q0 -13 10 -22t29 -9q23 0 47.5 11.5t47.5 29.5t39 37l10 -74q-7 -16 -22 -40t-40.5 -48.5t-64 -41t-92.5 -16.5q-45 0 -83.5 16t-61.5 47.5
t-23 78.5v50q0 58 43.5 92t117.5 34h280zM327 514q70 0 117.5 -18.5t72.5 -63t25 -122.5v-86h-211v87q0 26 -12 38t-42 12q-38 0 -93.5 -1t-117.5 -4l-19 133q37 7 88.5 12.5t103 9t88.5 3.5zM593 806l79 -133l-255 -103l-57 86z" />
    <glyph glyph-name="Oslashacute" unicode="&#x1fe;" horiz-adv-x="707" 
d="M507 757l58 -27l-374 -801l-58 27zM353 704q89 0 150.5 -16.5t99.5 -56.5t55 -109.5t17 -176.5q0 -106 -17 -176t-55 -110t-99.5 -56.5t-150.5 -16.5q-88 0 -149.5 16.5t-99.5 56.5t-55 110t-17 176q0 107 17 176.5t55 109.5t99.5 56.5t149.5 16.5zM353 543
q-37 0 -57 -16t-28 -59t-8 -123t8 -123t28 -59t57 -16t57 16t28 59t8 123t-8 123t-28 59t-57 16zM483 976l79 -133l-255 -103l-57 86z" />
    <glyph glyph-name="oslashacute" unicode="&#x1ff;" horiz-adv-x="611" 
d="M437 597l46 -22l-310 -668l-46 22zM306 514q102 0 163.5 -25.5t88.5 -83.5t27 -156q0 -96 -27 -153t-88.5 -82.5t-163.5 -25.5t-163.5 25.5t-89 82.5t-27.5 153q0 98 27.5 156t89 83.5t163.5 25.5zM306 372q-24 0 -37 -9.5t-18 -35.5t-5 -78q0 -50 5 -75.5t18 -34.5
t37 -9t37 9t17.5 34.5t4.5 75.5q0 52 -4.5 78t-17.5 35.5t-37 9.5zM436 798l79 -133l-255 -103l-57 86z" />
    <glyph glyph-name="uni0200" unicode="&#x200;" horiz-adv-x="683" 
d="M440 690q26 0 46 -15t27 -41l179 -634h-221l-104 449q-4 19 -7 39.5t-5 39.5h-27q-2 -19 -5 -39.5t-7 -39.5l-104 -449h-221l179 634q7 26 27 41t46 15h197zM525 301v-152h-367v152h367zM413 988l123 -193l-83 -67l-169 176zM198 988l123 -194l-82 -66l-170 176z" />
    <glyph glyph-name="uni0201" unicode="&#x201;" 
d="M333 514q71 0 119.5 -18.5t74 -63t25.5 -122.5v-310h-167l-29 107l-14 20v184q-1 26 -13.5 38t-45.5 12q-39 0 -95.5 -1t-120.5 -4l-19 133q38 7 90.5 12.5t104.5 9t90 3.5zM471 307l-1 -101h-207q-19 0 -28.5 -8.5t-9.5 -22.5v-16q0 -13 10.5 -22t31.5 -9q24 0 50 11.5
t50 29.5t41 37v-64q-7 -17 -22 -43t-40.5 -52t-63 -43.5t-89.5 -17.5q-46 0 -85.5 16t-63 47.5t-23.5 78.5v50q0 60 44.5 94.5t120.5 34.5h285zM373 818l123 -193l-83 -67l-169 176zM158 818l123 -194l-82 -66l-170 176z" />
    <glyph glyph-name="uni0202" unicode="&#x202;" horiz-adv-x="683" 
d="M440 690q26 0 46 -15t27 -41l179 -634h-221l-104 449q-4 19 -7 39.5t-5 39.5h-27q-2 -19 -5 -39.5t-7 -39.5l-104 -449h-221l179 634q7 26 27 41t46 15h197zM525 301v-152h-367v152h367zM261 737l-97 13q-8 45 11.5 84t62.5 63.5t104 24.5q62 0 104.5 -24.5t62.5 -63.5
t12 -84l-97 -13q0 32 -18.5 45.5t-63.5 13.5q-44 0 -62.5 -13.5t-18.5 -45.5z" />
    <glyph glyph-name="uni0203" unicode="&#x203;" 
d="M333 514q71 0 119.5 -18.5t74 -63t25.5 -122.5v-310h-167l-29 107l-14 20v184q-1 26 -13.5 38t-45.5 12q-39 0 -95.5 -1t-120.5 -4l-19 133q38 7 90.5 12.5t104.5 9t90 3.5zM471 307l-1 -101h-207q-19 0 -28.5 -8.5t-9.5 -22.5v-16q0 -13 10.5 -22t31.5 -9q24 0 50 11.5
t50 29.5t41 37v-64q-7 -17 -22 -43t-40.5 -52t-63 -43.5t-89.5 -17.5q-46 0 -85.5 16t-63 47.5t-23.5 78.5v50q0 60 44.5 94.5t120.5 34.5h285zM221 567l-97 13q-8 45 11.5 84t62.5 63.5t104 24.5q62 0 104.5 -24.5t62.5 -63.5t12 -84l-97 -13q0 32 -18.5 45.5t-63.5 13.5
q-44 0 -62.5 -13.5t-18.5 -45.5z" />
    <glyph glyph-name="uni0204" unicode="&#x204;" horiz-adv-x="596" 
d="M209 694q60 0 123.5 -0.5t124.5 -3t111 -9.5l-10 -153h-253q-19 0 -30 -10t-11 -26v-294q0 -16 11 -26t30 -10h253l10 -153q-50 -6 -111 -9t-124.5 -3.5t-123.5 -0.5q-71 0 -116.5 43.5t-45.5 113.5v384q0 70 45.5 113.5t116.5 43.5zM65 425h457v-144h-457v144zM393 988
l123 -193l-83 -67l-169 176zM178 988l123 -194l-82 -66l-170 176z" />
    <glyph glyph-name="uni0205" unicode="&#x205;" 
d="M309 514q141 0 200 -45t60 -133q1 -70 -41.5 -101t-152.5 -31h-269v99h210q34 0 43 6.5t9 31.5q0 24 -12 31t-41 7q-29 1 -44 -6t-20.5 -30.5t-5.5 -73.5q0 -46 6.5 -72t25.5 -37t56 -11q30 0 84.5 2t118.5 9l19 -126q-35 -18 -75 -28t-82.5 -14t-87.5 -4q-104 0 -167 29
t-90.5 86.5t-27.5 142.5q0 99 28 157.5t90.5 84.5t165.5 26zM382 810l123 -193l-83 -67l-169 176zM167 810l123 -194l-82 -66l-170 176z" />
    <glyph glyph-name="uni0206" unicode="&#x206;" horiz-adv-x="596" 
d="M209 694q60 0 123.5 -0.5t124.5 -3t111 -9.5l-10 -153h-253q-19 0 -30 -10t-11 -26v-294q0 -16 11 -26t30 -10h253l10 -153q-50 -6 -111 -9t-124.5 -3.5t-123.5 -0.5q-71 0 -116.5 43.5t-45.5 113.5v384q0 70 45.5 113.5t116.5 43.5zM65 425h457v-144h-457v144zM241 737
l-97 13q-8 45 11.5 84t62.5 63.5t104 24.5q62 0 104.5 -24.5t62.5 -63.5t12 -84l-97 -13q0 32 -18.5 45.5t-63.5 13.5q-44 0 -62.5 -13.5t-18.5 -45.5z" />
    <glyph glyph-name="uni0207" unicode="&#x207;" 
d="M309 514q141 0 200 -45t60 -133q1 -70 -41.5 -101t-152.5 -31h-269v99h210q34 0 43 6.5t9 31.5q0 24 -12 31t-41 7q-29 1 -44 -6t-20.5 -30.5t-5.5 -73.5q0 -46 6.5 -72t25.5 -37t56 -11q30 0 84.5 2t118.5 9l19 -126q-35 -18 -75 -28t-82.5 -14t-87.5 -4q-104 0 -167 29
t-90.5 86.5t-27.5 142.5q0 99 28 157.5t90.5 84.5t165.5 26zM230 559l-97 13q-8 45 11.5 84t62.5 63.5t104 24.5q62 0 104.5 -24.5t62.5 -63.5t12 -84l-97 -13q0 32 -18.5 45.5t-63.5 13.5q-44 0 -62.5 -13.5t-18.5 -45.5z" />
    <glyph glyph-name="uni0208" unicode="&#x208;" horiz-adv-x="321" 
d="M268 690v-690h-215v690h215zM231 988l123 -193l-83 -67l-169 176zM16 988l123 -194l-82 -66l-170 176z" />
    <glyph glyph-name="uni0209" unicode="&#x209;" horiz-adv-x="305" 
d="M258 500v-500h-211v500h211zM220 810l123 -193l-83 -67l-169 176zM5 810l123 -194l-82 -66l-170 176z" />
    <glyph glyph-name="uni020A" unicode="&#x20a;" horiz-adv-x="321" 
d="M268 690v-690h-215v690h215zM79 737l-97 13q-8 45 11.5 84t62.5 63.5t104 24.5q62 0 104.5 -24.5t62.5 -63.5t12 -84l-97 -13q0 32 -18.5 45.5t-63.5 13.5q-44 0 -62.5 -13.5t-18.5 -45.5z" />
    <glyph glyph-name="uni020B" unicode="&#x20b;" horiz-adv-x="305" 
d="M258 500v-500h-211v500h211zM68 559l-97 13q-8 45 11.5 84t62.5 63.5t104 24.5q62 0 104.5 -24.5t62.5 -63.5t12 -84l-97 -13q0 32 -18.5 45.5t-63.5 13.5q-44 0 -62.5 -13.5t-18.5 -45.5z" />
    <glyph glyph-name="uni020C" unicode="&#x20c;" horiz-adv-x="707" 
d="M353 704q89 0 150.5 -16.5t99.5 -56.5t55 -109.5t17 -176.5q0 -106 -17 -176t-55 -110t-99.5 -56.5t-150.5 -16.5q-88 0 -149.5 16.5t-99.5 56.5t-55 110t-17 176q0 107 17 176.5t55 109.5t99.5 56.5t149.5 16.5zM353 543q-37 0 -57 -16t-28 -59t-8 -123t8 -123t28 -59
t57 -16t57 16t28 59t8 123t-8 123t-28 59t-57 16zM422 988l123 -193l-83 -67l-169 176zM207 988l123 -194l-82 -66l-170 176z" />
    <glyph glyph-name="uni020D" unicode="&#x20d;" horiz-adv-x="611" 
d="M306 514q102 0 163.5 -25.5t88.5 -83.5t27 -156q0 -96 -27 -153t-88.5 -82.5t-163.5 -25.5t-163.5 25.5t-89 82.5t-27.5 153q0 98 27.5 156t89 83.5t163.5 25.5zM306 372q-24 0 -37 -9.5t-18 -35.5t-5 -78q0 -50 5 -75.5t18 -34.5t37 -9t37 9t17.5 34.5t4.5 75.5
q0 52 -4.5 78t-17.5 35.5t-37 9.5zM376 800l123 -193l-83 -67l-169 176zM161 800l123 -194l-82 -66l-170 176z" />
    <glyph glyph-name="uni020E" unicode="&#x20e;" horiz-adv-x="707" 
d="M353 704q89 0 150.5 -16.5t99.5 -56.5t55 -109.5t17 -176.5q0 -106 -17 -176t-55 -110t-99.5 -56.5t-150.5 -16.5q-88 0 -149.5 16.5t-99.5 56.5t-55 110t-17 176q0 107 17 176.5t55 109.5t99.5 56.5t149.5 16.5zM353 543q-37 0 -57 -16t-28 -59t-8 -123t8 -123t28 -59
t57 -16t57 16t28 59t8 123t-8 123t-28 59t-57 16zM270 737l-97 13q-8 45 11.5 84t62.5 63.5t104 24.5q62 0 104.5 -24.5t62.5 -63.5t12 -84l-97 -13q0 32 -18.5 45.5t-63.5 13.5q-44 0 -62.5 -13.5t-18.5 -45.5z" />
    <glyph glyph-name="uni020F" unicode="&#x20f;" horiz-adv-x="611" 
d="M306 514q102 0 163.5 -25.5t88.5 -83.5t27 -156q0 -96 -27 -153t-88.5 -82.5t-163.5 -25.5t-163.5 25.5t-89 82.5t-27.5 153q0 98 27.5 156t89 83.5t163.5 25.5zM306 372q-24 0 -37 -9.5t-18 -35.5t-5 -78q0 -50 5 -75.5t18 -34.5t37 -9t37 9t17.5 34.5t4.5 75.5
q0 52 -4.5 78t-17.5 35.5t-37 9.5zM224 549l-97 13q-8 45 11.5 84t62.5 63.5t104 24.5q62 0 104.5 -24.5t62.5 -63.5t12 -84l-97 -13q0 32 -18.5 45.5t-63.5 13.5q-44 0 -62.5 -13.5t-18.5 -45.5z" />
    <glyph glyph-name="uni0210" unicode="&#x210;" horiz-adv-x="676" 
d="M345 700q102 0 166 -19t94.5 -64.5t30.5 -126.5q0 -41 -12.5 -76.5t-43 -58.5t-84.5 -29v-6q19 -2 42 -11.5t43 -32t28 -64.5l54 -212h-227l-45 205q-6 29 -18.5 38t-40.5 9q-75 1 -122.5 1t-80.5 1t-66 3l3 148h274q31 0 48 6t23.5 21.5t6.5 43.5q0 29 -6.5 44t-23.5 21
t-48 6q-104 0 -175 -1t-97 -4l-16 148q46 5 86.5 7t89 2.5t117.5 0.5zM265 690v-690h-213v690h213zM400 988l123 -193l-83 -67l-169 176zM185 988l123 -194l-82 -66l-170 176z" />
    <glyph glyph-name="uni0211" unicode="&#x211;" horiz-adv-x="452" 
d="M207 500l26 -102l20 -12v-386h-210v500h164zM450 514l-18 -192h-53q-27 0 -60.5 -2.5t-87.5 -11.5l-12 113q49 47 101 70t101 23h29zM301 810l123 -193l-83 -67l-169 176zM86 810l123 -194l-82 -66l-170 176z" />
    <glyph glyph-name="uni0212" unicode="&#x212;" horiz-adv-x="676" 
d="M345 700q102 0 166 -19t94.5 -64.5t30.5 -126.5q0 -41 -12.5 -76.5t-43 -58.5t-84.5 -29v-6q19 -2 42 -11.5t43 -32t28 -64.5l54 -212h-227l-45 205q-6 29 -18.5 38t-40.5 9q-75 1 -122.5 1t-80.5 1t-66 3l3 148h274q31 0 48 6t23.5 21.5t6.5 43.5q0 29 -6.5 44t-23.5 21
t-48 6q-104 0 -175 -1t-97 -4l-16 148q46 5 86.5 7t89 2.5t117.5 0.5zM265 690v-690h-213v690h213zM248 737l-97 13q-8 45 11.5 84t62.5 63.5t104 24.5q62 0 104.5 -24.5t62.5 -63.5t12 -84l-97 -13q0 32 -18.5 45.5t-63.5 13.5q-44 0 -62.5 -13.5t-18.5 -45.5z" />
    <glyph glyph-name="uni0213" unicode="&#x213;" horiz-adv-x="452" 
d="M207 500l26 -102l20 -12v-386h-210v500h164zM450 514l-18 -192h-53q-27 0 -60.5 -2.5t-87.5 -11.5l-12 113q49 47 101 70t101 23h29zM149 559l-97 13q-8 45 11.5 84t62.5 63.5t104 24.5q62 0 104.5 -24.5t62.5 -63.5t12 -84l-97 -13q0 32 -18.5 45.5t-63.5 13.5
q-44 0 -62.5 -13.5t-18.5 -45.5z" />
    <glyph glyph-name="uni0214" unicode="&#x214;" horiz-adv-x="705" 
d="M658 690v-405q0 -110 -28.5 -175.5t-93 -94.5t-172.5 -29q-117 0 -186.5 29t-100 94.5t-30.5 175.5v405h217v-405q0 -55 7.5 -85t27 -41.5t54.5 -11.5t54 11.5t26.5 41.5t7.5 85v405h217zM434 968l123 -193l-83 -67l-169 176zM219 968l123 -194l-82 -66l-170 176z" />
    <glyph glyph-name="uni0215" unicode="&#x215;" horiz-adv-x="615" 
d="M250 500v-307q0 -16 9 -23.5t28 -7.5q20 0 41 3.5t55 16.5l12 -103q-51 -47 -101 -70t-106 -23q-148 0 -148 140v374h210zM572 500v-500h-165l-26 102l-20 12v386h211zM376 810l123 -193l-83 -67l-169 176zM161 810l123 -194l-82 -66l-170 176z" />
    <glyph glyph-name="uni0216" unicode="&#x216;" horiz-adv-x="705" 
d="M658 690v-405q0 -110 -28.5 -175.5t-93 -94.5t-172.5 -29q-117 0 -186.5 29t-100 94.5t-30.5 175.5v405h217v-405q0 -55 7.5 -85t27 -41.5t54.5 -11.5t54 11.5t26.5 41.5t7.5 85v405h217zM272 737l-97 13q-8 45 11.5 84t62.5 63.5t104 24.5q62 0 104.5 -24.5t62.5 -63.5
t12 -84l-97 -13q0 32 -18.5 45.5t-63.5 13.5q-44 0 -62.5 -13.5t-18.5 -45.5z" />
    <glyph glyph-name="uni0217" unicode="&#x217;" horiz-adv-x="615" 
d="M250 500v-307q0 -16 9 -23.5t28 -7.5q20 0 41 3.5t55 16.5l12 -103q-51 -47 -101 -70t-106 -23q-148 0 -148 140v374h210zM572 500v-500h-165l-26 102l-20 12v386h211zM224 559l-97 13q-8 45 11.5 84t62.5 63.5t104 24.5q62 0 104.5 -24.5t62.5 -63.5t12 -84l-97 -13
q0 32 -18.5 45.5t-63.5 13.5q-44 0 -62.5 -13.5t-18.5 -45.5z" />
    <glyph glyph-name="uni0218" unicode="&#x218;" horiz-adv-x="610" 
d="M293 -48q36 0 50 -11.5t15 -42.5v-48q0 -38 -7 -65.5t-21 -49.5t-33 -44l-71 19q10 25 13.5 51.5t4.5 51.5q-54 0 -56 48l3 37q0 31 14 42.5t50 11.5h38zM314 704q54 0 121.5 -6.5t129.5 -28.5l-13 -139q-45 1 -111.5 1.5t-131.5 0.5q-19 0 -31.5 -1t-19.5 -4t-10 -8
t-3 -13q0 -14 12.5 -23.5t47.5 -23.5l125 -52q86 -37 120.5 -85.5t34.5 -124.5q0 -58 -14 -98.5t-46.5 -65t-86.5 -36t-135 -11.5q-35 0 -106 5.5t-161 28.5l13 152q60 -1 110 -2.5t86.5 -2t54.5 -0.5q28 0 42.5 2t20 7.5t5.5 14.5q0 10 -4 16.5t-14 12.5t-29 13l-137 60
q-84 38 -119 85t-35 123q0 59 15.5 98t48.5 62t87.5 33t132.5 10z" />
    <glyph glyph-name="uni0219" unicode="&#x219;" horiz-adv-x="553" 
d="M284 -38q36 0 50 -11.5t15 -42.5v-48q0 -38 -7 -65.5t-21 -49.5t-33 -44l-71 19q10 25 13.5 51.5t4.5 51.5q-54 0 -56 48l3 37q0 31 14 42.5t50 11.5h38zM256 514q40 0 87.5 -3t92.5 -7.5t76 -11.5l-13 -122h-100.5h-96.5q-33 0 -49 -0.5t-21 -2.5t-5 -9q0 -8 11.5 -11
t47.5 -13l115 -29q67 -19 99.5 -52.5t32.5 -98.5q0 -63 -24 -99t-77.5 -51t-140.5 -15q-36 0 -106.5 3.5t-153.5 17.5l13 122h41.5h65h71.5q48 0 71 0.5t30 4t7 10.5q0 9 -13 12.5t-52 14.5l-110 30q-55 16 -83 39.5t-38 54.5t-10 70q0 46 21.5 78.5t72 50t138.5 17.5z" />
    <glyph glyph-name="uni021A" unicode="&#x21a;" horiz-adv-x="623" 
d="M324 -48q36 0 50 -11.5t15 -42.5v-48q0 -38 -7 -65.5t-21 -49.5t-33 -44l-71 19q10 25 13.5 51.5t4.5 51.5q-54 0 -56 48l3 37q0 31 14 42.5t50 11.5h38zM420 690v-690h-217v690h217zM613 690v-162h-603v162h603z" />
    <glyph glyph-name="uni021B" unicode="&#x21b;" horiz-adv-x="438" 
d="M259 -48q36 0 50 -11.5t15 -42.5v-48q0 -38 -7 -65.5t-21 -49.5t-33 -44l-71 19q10 25 13.5 51.5t4.5 51.5q-54 0 -56 48l3 37q0 31 14 42.5t50 11.5h38zM305 631v-449q0 -19 10 -27.5t33 -8.5h53l23 -134q-21 -9 -52 -14.5t-62.5 -8.5t-55.5 -3q-73 0 -116 37t-43 103
l-1 505h211zM426 500v-126h-416v121l96 5h320z" />
    <glyph glyph-name="uni022A" unicode="&#x22a;" horiz-adv-x="707" 
d="M353 704q89 0 150.5 -16.5t99.5 -56.5t55 -109.5t17 -176.5q0 -106 -17 -176t-55 -110t-99.5 -56.5t-150.5 -16.5q-88 0 -149.5 16.5t-99.5 56.5t-55 110t-17 176q0 107 17 176.5t55 109.5t99.5 56.5t149.5 16.5zM353 543q-37 0 -57 -16t-28 -59t-8 -123t8 -123t28 -59
t57 -16t57 16t28 59t8 123t-8 123t-28 59t-57 16zM469 867q36 0 36 -36v-57q0 -36 -36 -36h-62q-36 0 -36 36v57q0 36 36 36h62zM297 867q36 0 36 -36v-57q0 -36 -36 -36h-62q-36 0 -36 36v57q0 36 36 36h62zM191 1020h322v-111h-322v111z" />
    <glyph glyph-name="uni022B" unicode="&#x22b;" horiz-adv-x="611" 
d="M306 514q102 0 163.5 -25.5t88.5 -83.5t27 -156q0 -96 -27 -153t-88.5 -82.5t-163.5 -25.5t-163.5 25.5t-89 82.5t-27.5 153q0 98 27.5 156t89 83.5t163.5 25.5zM306 372q-24 0 -37 -9.5t-18 -35.5t-5 -78q0 -50 5 -75.5t18 -34.5t37 -9t37 9t17.5 34.5t4.5 75.5
q0 52 -4.5 78t-17.5 35.5t-37 9.5zM423 679q36 0 36 -36v-57q0 -36 -36 -36h-62q-36 0 -36 36v57q0 36 36 36h62zM251 679q36 0 36 -36v-57q0 -36 -36 -36h-62q-36 0 -36 36v57q0 36 36 36h62zM145 832h322v-111h-322v111z" />
    <glyph glyph-name="uni022C" unicode="&#x22c;" horiz-adv-x="707" 
d="M353 704q89 0 150.5 -16.5t99.5 -56.5t55 -109.5t17 -176.5q0 -106 -17 -176t-55 -110t-99.5 -56.5t-150.5 -16.5q-88 0 -149.5 16.5t-99.5 56.5t-55 110t-17 176q0 107 17 176.5t55 109.5t99.5 56.5t149.5 16.5zM353 543q-37 0 -57 -16t-28 -59t-8 -123t8 -123t28 -59
t57 -16t57 16t28 59t8 123t-8 123t-28 59t-57 16zM246 920q26 -2 48 -7t42.5 -12t40 -13.5t38.5 -10.5q23 -4 26 5t3 33h87q16 -84 -11 -128t-74 -41q-34 3 -64.5 11.5t-56.5 18t-49 13.5q-22 4 -25 -5t-3 -33h-87q-11 60 0 98t35 55.5t50 15.5zM487 964h-290v111h290v-111z
" />
    <glyph glyph-name="uni022D" unicode="&#x22d;" horiz-adv-x="611" 
d="M306 514q102 0 163.5 -25.5t88.5 -83.5t27 -156q0 -96 -27 -153t-88.5 -82.5t-163.5 -25.5t-163.5 25.5t-89 82.5t-27.5 153q0 98 27.5 156t89 83.5t163.5 25.5zM306 372q-24 0 -37 -9.5t-18 -35.5t-5 -78q0 -50 5 -75.5t18 -34.5t37 -9t37 9t17.5 34.5t4.5 75.5
q0 52 -4.5 78t-17.5 35.5t-37 9.5zM200 732q26 -2 48 -7t42.5 -12t40 -13.5t38.5 -10.5q23 -4 26 5t3 33h87q16 -84 -11 -128t-74 -41q-34 3 -64.5 11.5t-56.5 18t-49 13.5q-22 4 -25 -5t-3 -33h-87q-11 60 0 98t35 55.5t50 15.5zM441 776h-290v111h290v-111z" />
    <glyph glyph-name="uni0230" unicode="&#x230;" horiz-adv-x="707" 
d="M353 704q89 0 150.5 -16.5t99.5 -56.5t55 -109.5t17 -176.5q0 -106 -17 -176t-55 -110t-99.5 -56.5t-150.5 -16.5q-88 0 -149.5 16.5t-99.5 56.5t-55 110t-17 176q0 107 17 176.5t55 109.5t99.5 56.5t149.5 16.5zM353 543q-37 0 -57 -16t-28 -59t-8 -123t8 -123t28 -59
t57 -16t57 16t28 59t8 123t-8 123t-28 59t-57 16zM207 1020h290v-111h-290v111zM380 877q54 0 54 -52v-43q0 -24 -13 -38t-41 -14h-57q-54 0 -54 52v43q0 52 54 52h57z" />
    <glyph glyph-name="uni0231" unicode="&#x231;" horiz-adv-x="611" 
d="M306 514q102 0 163.5 -25.5t88.5 -83.5t27 -156q0 -96 -27 -153t-88.5 -82.5t-163.5 -25.5t-163.5 25.5t-89 82.5t-27.5 153q0 98 27.5 156t89 83.5t163.5 25.5zM306 372q-24 0 -37 -9.5t-18 -35.5t-5 -78q0 -50 5 -75.5t18 -34.5t37 -9t37 9t17.5 34.5t4.5 75.5
q0 52 -4.5 78t-17.5 35.5t-37 9.5zM161 832h290v-111h-290v111zM334 689q54 0 54 -52v-43q0 -24 -13 -38t-41 -14h-57q-54 0 -54 52v43q0 52 54 52h57z" />
    <glyph glyph-name="uni0232" unicode="&#x232;" horiz-adv-x="654" 
d="M664 690l-233 -485h-208l-233 485h223l87 -217q9 -22 13 -48t8 -49h13q4 23 8.5 49.5t12.5 48.5l86 216h223zM436 328v-328h-217v328h217zM489 895v-123h-320v123h320z" />
    <glyph glyph-name="uni0233" unicode="&#x233;" horiz-adv-x="602" 
d="M604 500l-159 -486q-13 -41 -37.5 -85t-64 -78.5t-96.5 -49t-135 1.5l-14 113q62 13 98.5 34.5t55.5 63.5l37 80q11 25 19.5 64t13.5 66l59 276h223zM220 500l59 -276q4 -23 7 -47t6 -47h30l-65 -130h-46q-24 0 -41.5 13.5t-24.5 35.5l-148 451h223zM467 717v-123h-320
v123h320z" />
    <glyph glyph-name="uni0237" unicode="&#x237;" horiz-adv-x="304" 
d="M257 500v-442q0 -52 -19.5 -101t-55.5 -87.5t-87 -59.5l-116 92q40 40 54.5 76.5t14.5 79.5v442h209z" />
    <glyph glyph-name="uni0259" unicode="&#x259;" 
d="M281 -12q-141 0 -200 45t-60 133q-1 70 41.5 101t152.5 31h269v-99h-210q-34 0 -43 -6t-9 -32q0 -24 12.5 -31t40.5 -7q29 0 44 6.5t20.5 30.5t5.5 73q0 46 -6.5 72t-25 37t-56.5 11q-30 0 -84 -2t-119 -9l-19 126q36 18 75.5 28t82 14t87.5 4q105 0 167.5 -29t90 -86.5
t27.5 -142.5q0 -98 -28 -157t-90 -85t-166 -26z" />
    <glyph glyph-name="uni02B9" unicode="&#x2b9;" horiz-adv-x="293" 
d="M243 750l-73 -228h-120l49 228h144z" />
    <glyph glyph-name="uni02BA" unicode="&#x2ba;" horiz-adv-x="472" 
d="M422 750l-73 -228h-120l49 228h144zM243 750l-73 -228h-120l49 228h144z" />
    <glyph glyph-name="uni02BB" unicode="&#x2bb;" horiz-adv-x="255" 
d="M108 505q-40 0 -56 15.5t-16 56.5v64q0 51 8 87t23 65.5t36 58.5l78 -25q-11 -34 -14.5 -68.5t-4.5 -68.5q31 0 47 -16.5t14 -47.5l-3 -49q-2 -41 -16.5 -56.5t-54.5 -15.5h-41z" />
    <glyph glyph-name="uni02BE" unicode="&#x2be;" horiz-adv-x="179" 
d="M64 655q0 18 -13 31.5t-31 13.5v80q35 0 64.5 -17t47 -45t17.5 -63t-17.5 -63.5t-47 -45t-64.5 -16.5v80q18 0 31 13t13 32z" />
    <glyph glyph-name="uni02BF" unicode="&#x2bf;" horiz-adv-x="179" 
d="M159 700q-18 0 -31 -13.5t-13 -31.5q0 -19 13 -32t31 -13v-80q-35 0 -64.5 16.5t-47 45t-17.5 63.5t17.5 63t47 45t64.5 17v-80z" />
    <glyph glyph-name="circumflex" unicode="&#x2c6;" horiz-adv-x="477" 
d="M316 745l135 -141l-48 -69l-159 93h-8l-162 -93l-50 77l140 133h152z" />
    <glyph glyph-name="caron" unicode="&#x2c7;" horiz-adv-x="477" 
d="M396 754l48 -77l-163 -131h-82l-164 131l50 77l151 -76h8z" />
    <glyph glyph-name="uni02C8" unicode="&#x2c8;" horiz-adv-x="192" 
d="M157 559l-122 1v183h122v-184z" />
    <glyph glyph-name="uni02C9" unicode="&#x2c9;" horiz-adv-x="400" 
d="M360 713v-123h-320v123h320z" />
    <glyph glyph-name="uni02CA" unicode="&#x2ca;" horiz-adv-x="392" 
d="M273 747l79 -133l-255 -103l-57 86z" />
    <glyph glyph-name="uni02CB" unicode="&#x2cb;" horiz-adv-x="392" 
d="M119 767l233 -150l-57 -86l-255 103z" />
    <glyph glyph-name="uni02CC" unicode="&#x2cc;" horiz-adv-x="172" 
d="M147 -211l-122 1v183h122v-184z" />
    <glyph glyph-name="breve" unicode="&#x2d8;" horiz-adv-x="411" 
d="M287 719l97 -13q8 -44 -11.5 -83.5t-62 -64t-104.5 -24.5q-61 0 -104 24.5t-63 64t-12 83.5l97 13q0 -31 18.5 -45t63.5 -14q44 0 62.5 14t18.5 45z" />
    <glyph glyph-name="dotaccent" unicode="&#x2d9;" horiz-adv-x="251" 
d="M157 724q59 0 59 -57v-47q0 -57 -59 -57h-63q-59 0 -59 57v47q0 57 59 57h63z" />
    <glyph glyph-name="ring" unicode="&#x2da;" horiz-adv-x="318" 
d="M159 780q35 0 64.5 -17t47 -45t17.5 -63t-17.5 -63.5t-47 -45t-64.5 -16.5t-64.5 16.5t-47 45t-17.5 63.5t17.5 63t47 45t64.5 17zM159 700q-18 0 -31 -13.5t-13 -31.5q0 -19 13 -32t31 -13t31 13t13 32q0 18 -13 31.5t-31 13.5z" />
    <glyph glyph-name="ogonek" unicode="&#x2db;" horiz-adv-x="250" 
d="M139 2l80 -2q-12 -22 -23.5 -42t-23.5 -45q-13 -27 3.5 -32t44.5 -1l12 -72q-61 -23 -103 -23t-66 16t-31 41.5t2 52.5q8 24 33.5 52t71.5 55z" />
    <glyph glyph-name="tilde" unicode="&#x2dc;" horiz-adv-x="460" 
d="M130 724q26 -2 48 -7t42.5 -12t40 -13.5t38.5 -10.5q23 -4 26 5t3 33h87q16 -84 -11 -128t-74 -41q-34 3 -64.5 11.5t-56.5 18t-49 13.5q-22 4 -25 -5t-3 -33h-87q-11 60 0 98t35 55.5t50 15.5z" />
    <glyph glyph-name="hungarumlaut" unicode="&#x2dd;" horiz-adv-x="547" 
d="M163 756l129 -84l-169 -176l-83 67zM378 756l129 -84l-170 -176l-82 66z" />
    <glyph glyph-name="acutecomb" unicode="&#x301;" horiz-adv-x="0" 
d="M-127 767l79 -133l-255 -103l-57 86z" />
    <glyph glyph-name="uni0302" unicode="&#x302;" horiz-adv-x="0" 
d="M-158 735l135 -141l-48 -69l-159 93h-8l-162 -93l-50 77l140 133h152z" />
    <glyph glyph-name="tildecomb" unicode="&#x303;" horiz-adv-x="0" 
d="M-330 724q26 -2 48 -7t42.5 -12t40 -13.5t38.5 -10.5q23 -4 26 5t3 33h87q16 -84 -11 -128t-74 -41q-34 3 -64.5 11.5t-56.5 18t-49 13.5q-22 4 -25 -5t-3 -33h-87q-11 60 0 98t35 55.5t50 15.5z" />
    <glyph glyph-name="uni0304" unicode="&#x304;" horiz-adv-x="0" 
d="M-40 713v-123h-320v123h320z" />
    <glyph glyph-name="uni0306" unicode="&#x306;" horiz-adv-x="0" 
d="M-128 719l97 -13q8 -44 -11.5 -83.5t-62 -64t-104.5 -24.5q-61 0 -104 24.5t-63 64t-12 83.5l97 13q0 -31 18.5 -45t63.5 -14q44 0 62.5 14t18.5 45z" />
    <glyph glyph-name="uni0307" unicode="&#x307;" horiz-adv-x="0" 
d="M-98 724q59 0 59 -57v-47q0 -57 -59 -57h-63q-59 0 -59 57v47q0 57 59 57h63z" />
    <glyph glyph-name="uni0308" unicode="&#x308;" horiz-adv-x="0" 
d="M-93 720q39 0 39 -39v-63q0 -39 -39 -39h-69q-39 0 -39 39v63q0 39 39 39h69zM-282 720q39 0 39 -39v-63q0 -39 -39 -39h-69q-39 0 -39 39v63q0 39 39 39h69z" />
    <glyph glyph-name="hookabovecomb" unicode="&#x309;" horiz-adv-x="0" 
d="M-204 606q22 8 34 16.5t12 30.5q0 23 -20 26t-41 -8l-21 94q57 22 101 14t69.5 -39.5t25.5 -81.5q0 -44 -19.5 -73t-51 -45t-68.5 -21z" />
    <glyph glyph-name="uni030A" unicode="&#x30a;" horiz-adv-x="0" 
d="M-161 780q35 0 64.5 -17t47 -45t17.5 -63t-17.5 -63.5t-47 -45t-64.5 -16.5t-64.5 16.5t-47 45t-17.5 63.5t17.5 63t47 45t64.5 17zM-161 700q-18 0 -31 -13.5t-13 -31.5q0 -19 13 -32t31 -13t31 13t13 32q0 18 -13 31.5t-31 13.5z" />
    <glyph glyph-name="uni030B" unicode="&#x30b;" horiz-adv-x="0" 
d="M-397 756l129 -84l-169 -176l-83 67zM-182 756l129 -84l-170 -176l-82 66z" />
    <glyph glyph-name="uni030C" unicode="&#x30c;" horiz-adv-x="0" 
d="M-89 754l48 -77l-163 -131h-82l-164 131l50 77l151 -76h8z" />
    <glyph glyph-name="uni030F" unicode="&#x30f;" horiz-adv-x="0" 
d="M-166 756l123 -193l-83 -67l-169 176zM-381 756l123 -194l-82 -66l-170 176z" />
    <glyph glyph-name="uni0311" unicode="&#x311;" horiz-adv-x="0" 
d="M-291 534l-97 13q-8 45 11.5 84t62.5 63.5t104 24.5q62 0 104.5 -24.5t62.5 -63.5t12 -84l-97 -13q0 32 -18.5 45.5t-63.5 13.5q-44 0 -62.5 -13.5t-18.5 -45.5z" />
    <glyph glyph-name="uni0312" unicode="&#x312;" horiz-adv-x="0" 
d="M-149 519q-28 0 -39.5 11t-11.5 40v46q0 54 13 86.5t35 63.5l55 -17q-7 -25 -10 -50t-3 -48q46 0 43 -46l-2 -35q-1 -29 -11.5 -40t-39.5 -11h-29z" />
    <glyph glyph-name="uni031B" unicode="&#x31b;" horiz-adv-x="0" 
d="M-246 379l-4 83q33 6 50.5 27.5t19.5 55.5l124 -5q-1 -56 -25.5 -93t-67 -54t-97.5 -14z" />
    <glyph glyph-name="dotbelowcomb" unicode="&#x323;" horiz-adv-x="0" 
d="M-98 -32q59 0 59 -57v-47q0 -57 -59 -57h-63q-59 0 -59 57v47q0 57 59 57h63z" />
    <glyph glyph-name="uni0324" unicode="&#x324;" horiz-adv-x="0" 
d="M-63 -37q39 0 39 -39v-63q0 -39 -39 -39h-69q-39 0 -39 39v63q0 39 39 39h69zM-252 -37q39 0 39 -39v-63q0 -39 -39 -39h-69q-39 0 -39 39v63q0 39 39 39h69z" />
    <glyph glyph-name="uni0327" unicode="&#x327;" horiz-adv-x="0" 
d="M-192 -33q63 7 102.5 7t57.5 -16t16 -56q-2 -57 -34.5 -92.5t-84.5 -49t-115 -5.5l22 78q33 0 58.5 8t28.5 43q2 11 -10.5 11h-59.5z" />
    <glyph glyph-name="uni0328" unicode="&#x328;" horiz-adv-x="0" 
d="M-110 2l80 -2q-12 -22 -23.5 -42t-23.5 -45q-13 -27 3.5 -32t44.5 -1l12 -72q-61 -23 -103 -23t-66 16t-31 41.5t2 52.5q8 24 33.5 52t71.5 55z" />
    <glyph glyph-name="uni032E" unicode="&#x32e;" horiz-adv-x="0" 
d="M-128 -39l97 -13q8 -44 -11.5 -83.5t-62 -64t-104.5 -24.5q-61 0 -104 24.5t-63 64t-12 83.5l97 13q0 -31 18.5 -45t63.5 -14q44 0 62.5 14t18.5 45z" />
    <glyph glyph-name="uni0331" unicode="&#x331;" horiz-adv-x="0" 
d="M-30 -49v-123h-320v123h320z" />
    <glyph glyph-name="uni0394" unicode="&#x394;" horiz-adv-x="704" 
d="M459 690l228 -622v-68h-670v68l228 622h214zM352 484q-5 -25 -9.5 -50.5t-11.5 -50.5l-73 -231h188l-74 231q-7 25 -11 50.5t-9 50.5z" />
    <glyph glyph-name="uni03A9" unicode="&#x3a9;" horiz-adv-x="720" 
d="M361 704q117 0 186.5 -33t100 -100t30.5 -170q0 -61 -13.5 -105t-43.5 -80t-80 -74q22 11 39 15.5t36 4.5h68v-162h-305v152q29 28 44.5 57.5t22 68.5t6.5 94q0 72 -7.5 109t-27 50t-57.5 13q-37 0 -57 -13.5t-27.5 -50.5t-7.5 -110q0 -61 7 -98.5t23 -64t43 -55.5v-152
h-305v162h68q19 0 36 -4t39 -16q-49 41 -79 78t-44 81t-14 104q0 101 31 167.5t101 99t187 32.5z" />
    <glyph glyph-name="uni03BC" unicode="&#x3bc;" horiz-adv-x="653" 
d="M253 500v-292q0 -31 12 -38.5t25 -7.5q12 0 25 8.5t24.5 27t19 47.5t7.5 69l3 -230q-12 -27 -34.5 -49t-51 -35.5t-60.5 -13.5q-49 0 -89.5 12.5t-64.5 44t-24 86.5v371h208zM43 500h210v-565l-27 -115h-183v680zM575 500v-338q0 -24 4.5 -34.5t20.5 -10.5h40l7 -102
q-28 -10 -71.5 -19t-85.5 -9q-49 0 -85 22t-36 72v3l-3 16v400h209z" />
    <glyph glyph-name="pi" unicode="&#x3c0;" horiz-adv-x="655" 
d="M287 501v-501h-210v501h210zM642 501v-136h-629v136h629zM578 501v-501h-210v501h210z" />
    <glyph glyph-name="uni0400" unicode="&#x400;" horiz-adv-x="598" 
d="M211 694q60 0 123.5 -0.5t124.5 -3t111 -9.5l-10 -153h-253q-19 0 -30 -10t-11 -26v-294q0 -16 11 -26t30 -10h253l10 -153q-50 -6 -111 -9t-124.5 -3.5t-123.5 -0.5q-71 0 -116.5 43.5t-45.5 113.5v384q0 70 45.5 113.5t116.5 43.5zM67 425h457v-144h-457v144zM192 976
l233 -150l-57 -86l-255 103z" />
    <glyph glyph-name="uni0401" unicode="&#x401;" horiz-adv-x="598" 
d="M211 694q60 0 123.5 -0.5t124.5 -3t111 -9.5l-10 -153h-253q-19 0 -30 -10t-11 -26v-294q0 -16 11 -26t30 -10h253l10 -153q-50 -6 -111 -9t-124.5 -3.5t-123.5 -0.5q-71 0 -116.5 43.5t-45.5 113.5v384q0 70 45.5 113.5t116.5 43.5zM67 425h457v-144h-457v144zM454 904
q39 0 39 -39v-63q0 -39 -39 -39h-69q-39 0 -39 39v63q0 39 39 39h69zM265 904q39 0 39 -39v-63q0 -39 -39 -39h-69q-39 0 -39 39v63q0 39 39 39h69z" />
    <glyph glyph-name="uni0402" unicode="&#x402;" horiz-adv-x="777" 
d="M485 -16l-20 150q32 8 49 20.5t23.5 31.5t6.5 46q0 22 -5 33.5t-17 16.5t-33 5q-11 0 -29.5 -2t-41 -8.5t-46.5 -19.5l-3 131q28 21 67 35.5t80.5 22.5t78.5 8q58 0 95 -21t54.5 -66t17.5 -117q0 -80 -20.5 -132t-57.5 -81t-87.5 -41t-111.5 -12zM200 0v690h217v-690
h-217zM10 528v162h597v-162h-597z" />
    <glyph glyph-name="uni0403" unicode="&#x403;" horiz-adv-x="554" 
d="M215 694q85 0 175 -1.5t160 -12.5l-10 -152h-227q-19 0 -30.5 -10t-11.5 -26v-492h-217v537q0 70 45.5 113.5t115.5 43.5zM435 956l79 -133l-255 -103l-57 86z" />
    <glyph glyph-name="uni0404" unicode="&#x404;" horiz-adv-x="607" 
d="M349 702q54 0 92.5 -3t71 -8.5t66.5 -15.5l-16 -158q-35 1 -66 1t-65.5 0.5t-82.5 0.5q-38 0 -58.5 -14.5t-28 -52t-7.5 -107.5t7.5 -107.5t28 -52t58.5 -14.5q72 0 121 1.5t98 6.5l16 -158q-51 -18 -103.5 -25.5t-131.5 -7.5q-116 0 -185.5 34.5t-100.5 112.5t-31 210
t31 210t100.5 112.5t185.5 34.5zM74 420h453v-134h-453v134z" />
    <glyph glyph-name="uni0405" unicode="&#x405;" horiz-adv-x="610" 
d="M314 704q54 0 121.5 -6.5t129.5 -28.5l-13 -139q-45 1 -111.5 1.5t-131.5 0.5q-19 0 -31.5 -1t-19.5 -4t-10 -8t-3 -13q0 -14 12.5 -23.5t47.5 -23.5l125 -52q86 -37 120.5 -85.5t34.5 -124.5q0 -58 -14 -98.5t-46.5 -65t-86.5 -36t-135 -11.5q-35 0 -106 5.5t-161 28.5
l13 152q60 -1 110 -2.5t86.5 -2t54.5 -0.5q28 0 42.5 2t20 7.5t5.5 14.5q0 10 -4 16.5t-14 12.5t-29 13l-137 60q-84 38 -119 85t-35 123q0 59 15.5 98t48.5 62t87.5 33t132.5 10z" />
    <glyph glyph-name="uni0406" unicode="&#x406;" horiz-adv-x="329" 
d="M272 690v-690h-215v690h215z" />
    <glyph glyph-name="uni0407" unicode="&#x407;" horiz-adv-x="321" 
d="M268 690v-690h-215v690h215zM290 904q39 0 39 -39v-63q0 -39 -39 -39h-69q-39 0 -39 39v63q0 39 39 39h69zM101 904q39 0 39 -39v-63q0 -39 -39 -39h-69q-39 0 -39 39v63q0 39 39 39h69z" />
    <glyph glyph-name="uni0408" unicode="&#x408;" horiz-adv-x="408" 
d="M354 690v-563q0 -67 -49 -104t-134 -37q-22 0 -53.5 3t-61 8.5t-46.5 14.5l23 136h47q59 0 59 35v507h215z" />
    <glyph glyph-name="uni0409" unicode="&#x409;" horiz-adv-x="983" 
d="M631 690v-142h-235q-21 0 -33 -11.5t-14 -34.5q-4 -51 -8.5 -98t-10 -89.5t-12.5 -80t-16 -70.5q-22 -78 -60.5 -119t-92.5 -51.5t-124 1.5l-15 148q33 6 56.5 19.5t39.5 59.5q6 17 11 40.5t8.5 52.5t7 62.5t6.5 71t6 78.5q6 83 50 123t120 40h316zM645 690v-690h-214
v690h214zM689 453q103 0 163 -20.5t85.5 -70t25.5 -138.5q0 -90 -24.5 -140.5t-76.5 -71t-135 -20.5q-68 0 -116 0.5t-88.5 2.5t-85.5 5l15 145q23 -1 86 -2t151 -1q24 0 36 7t16 26.5t4 55.5q0 37 -4 56.5t-16 27t-36 7.5h-242v131h242z" />
    <glyph glyph-name="uni040A" unicode="&#x40a;" horiz-adv-x="974" 
d="M692 436q99 0 156.5 -19.5t82 -65.5t24.5 -128q0 -90 -24 -140.5t-73.5 -70.5t-126.5 -20q-68 0 -119 0.5t-94 2.5t-88 5l15 145q24 -1 90 -2t157 -1q19 0 28.5 7t13 25t3.5 51q0 32 -3.5 49.5t-13 24t-28.5 6.5h-252v131h252zM275 690v-690h-218v690h218zM433 437v-142
h-167v142h167zM638 690v-690h-214v690h214z" />
    <glyph glyph-name="uni040B" unicode="&#x40b;" horiz-adv-x="810" 
d="M589 464q100 0 146.5 -43.5t46.5 -136.5v-284h-218v237q0 30 -10 40t-46 10h-28.5h-34.5h-44l-23 131q34 15 75.5 25.5t78.5 15.5t57 5zM417 690v-690h-217v690h217zM607 690v-162h-597v162h597z" />
    <glyph glyph-name="uni040C" unicode="&#x40c;" horiz-adv-x="681" 
d="M656 690q-24 -80 -39.5 -134.5t-29.5 -89.5t-31.5 -55.5t-44.5 -31t-70 -16.5v-6q44 -7 72.5 -17t48.5 -31t36 -59t34 -98.5t44 -151.5h-226q-27 99 -43 157t-30.5 86t-34.5 36.5t-53 8.5l-3 140q34 0 54.5 10.5t34.5 38.5t27.5 79.5t33.5 133.5h220zM274 690v-174
q0 -38 -7.5 -78.5t-23.5 -75.5q12 -32 21.5 -69.5t9.5 -67.5v-225h-217v690h217zM338 428v-140h-116v140h116zM486 956l79 -133l-255 -103l-57 86z" />
    <glyph glyph-name="uni040D" unicode="&#x40d;" horiz-adv-x="734" 
d="M677 690v-690h-206v317q0 27 3.5 53.5t7.5 53.5h-7q-8 -28 -18 -54t-24 -52l-169 -318h-207v690h206v-306q0 -25 -3 -54t-8 -58h7q9 28 20 55t24 51l168 312h206zM243 976l233 -150l-57 -86l-255 103z" />
    <glyph glyph-name="uni040E" unicode="&#x40e;" horiz-adv-x="623" 
d="M630 690l-150 -503q-19 -65 -42 -108t-57.5 -65t-90.5 -28q-30 -3 -70 -1t-78.5 6.5t-64.5 8.5l23 148q40 -1 69 -1.5t48 1.5t30 8.5t15 19.5l22 88l34 79l90 347h222zM215 690l78 -335q2 -11 16 -11h35l62 -152h-181q-48 0 -72 26t-36 68l-124 404h222zM367 910h127
q8 -43 -11.5 -82.5t-62 -65t-104.5 -25.5q-61 0 -104 25.5t-63 65t-12 82.5h127q-6 -46 8.5 -61.5t43.5 -15.5t43 15.5t8 61.5z" />
    <glyph glyph-name="uni040F" unicode="&#x40f;" horiz-adv-x="721" 
d="M664 690v-690h-217v690h217zM446 7l-8 -158h-148l-8 158h164zM609 142v-142h-343v142h343zM274 690v-690h-217v690h217z" />
    <glyph glyph-name="uni0410" unicode="&#x410;" horiz-adv-x="683" 
d="M440 690q26 0 46 -15t27 -41l179 -634h-221l-104 449q-4 19 -7 39.5t-5 39.5h-27q-2 -19 -5 -39.5t-7 -39.5l-104 -449h-221l179 634q7 26 27 41t46 15h197zM525 301v-152h-367v152h367z" />
    <glyph glyph-name="uni0411" unicode="&#x411;" horiz-adv-x="648" 
d="M579 690l-16 -155h-290v-535h-217v690q66 5 132 6.5t125 1.5q71 0 136.5 -2t129.5 -6zM342 423q107 0 169.5 -19t89.5 -65t27 -129q0 -63 -15.5 -105.5t-47 -67t-80 -35t-114.5 -10.5q-65 0 -117.5 0.5t-98.5 2.5t-93 5l15 145q25 -1 96.5 -2t168.5 -1q29 0 44 6t20 22.5
t5 46.5q0 31 -5 47t-20 22t-44 6h-266v131h266z" />
    <glyph glyph-name="uni0412" unicode="&#x412;" horiz-adv-x="664" 
d="M354 698q96 0 153 -15.5t82 -54.5t25 -110q0 -74 -29 -112.5t-97 -44.5v-6q83 -7 116 -53.5t33 -129.5q0 -71 -26.5 -110t-81.5 -54.5t-142 -15.5q-74 0 -130.5 0.5t-104 2.5t-96.5 5l16 142q26 -1 101 -2t175 -1q30 0 46 6t21.5 23t5.5 48q0 32 -6 49t-21.5 23t-46.5 6
h-276v127h274q25 0 38.5 5t18.5 19.5t5 41.5t-5 40.5t-19 18.5t-40 5q-63 0 -110 0.5t-85 0t-76 -3.5l-16 142q45 4 88 5.5t93.5 2t116.5 0.5zM268 690v-690h-212v690h212z" />
    <glyph glyph-name="uni0413" unicode="&#x413;" horiz-adv-x="554" 
d="M215 694q85 0 175 -1.5t160 -12.5l-10 -152h-227q-19 0 -30.5 -10t-11.5 -26v-492h-217v537q0 70 45.5 113.5t115.5 43.5z" />
    <glyph glyph-name="uni0414" unicode="&#x414;" horiz-adv-x="783" 
d="M676 690v-690h-217v548h-41q-21 0 -32.5 -12t-13.5 -36q-9 -82 -18.5 -142.5t-22.5 -107.5t-30.5 -86.5t-41.5 -78.5t-56 -85h-175q44 90 72 179t45 178.5t26 179.5q7 66 53 109.5t118 43.5h334zM184 7l-16 -158h-157v158h173zM771 142v-142h-760v142h760zM771 7v-158
h-157l-16 158h173z" />
    <glyph glyph-name="uni0415" unicode="&#x415;" horiz-adv-x="598" 
d="M211 694q60 0 123.5 -0.5t124.5 -3t111 -9.5l-10 -153h-253q-19 0 -30 -10t-11 -26v-294q0 -16 11 -26t30 -10h253l10 -153q-50 -6 -111 -9t-124.5 -3.5t-123.5 -0.5q-71 0 -116.5 43.5t-45.5 113.5v384q0 70 45.5 113.5t116.5 43.5zM67 425h457v-144h-457v144z" />
    <glyph glyph-name="uni0416" unicode="&#x416;" horiz-adv-x="968" 
d="M941 690q-23 -80 -38 -134.5t-28 -89.5t-29.5 -55.5t-43 -31t-67.5 -16.5v-6q43 -7 70.5 -17t46.5 -31t34.5 -59t32.5 -98.5t42 -151.5h-227q-29 99 -45.5 157t-28 86t-24.5 36.5t-34 8.5l-2 140q21 0 34 10.5t24 38.5t25.5 79.5t37.5 133.5h220zM247 690
q23 -82 37 -133.5t25 -79.5t24 -38.5t33 -10.5l-1 -140q-20 0 -32.5 -8.5t-24 -36.5t-28.5 -86t-46 -157h-227q25 91 42 151.5t32.5 98.5t34.5 59t46.5 31t70.5 17v6q-41 6 -67.5 16.5t-43 31t-29.5 55.5t-28 89.5t-38 134.5h220zM428 428v-140h-91v140h91zM587 690v-174
q0 -38 -7 -78.5t-23 -75.5q12 -32 21 -69.5t9 -67.5v-225h-207v225q0 30 10 67.5t22 69.5q-16 35 -23.5 75.5t-7.5 78.5v174h206zM631 428v-140h-90v140h90z" />
    <glyph glyph-name="uni0417" unicode="&#x417;" horiz-adv-x="586" 
d="M283 698q93 0 148 -15.5t79 -54.5t24 -110q0 -74 -27.5 -112.5t-92.5 -44.5v-6q79 -7 110.5 -53.5t31.5 -129.5q0 -71 -25.5 -110t-78.5 -54.5t-137 -15.5q-65 0 -115.5 3.5t-93.5 12t-86 22.5l16 141q75 -12 132.5 -17.5t103.5 -5.5q25 0 38.5 6t18.5 20.5t5 41.5
q0 29 -5 44t-18.5 21t-39.5 6l-152 3v135l150 3q21 1 32 5.5t15 17.5t4 36q0 22 -4 34t-15.5 16.5t-32.5 4.5q-55 0 -105.5 -3.5t-115.5 -11.5l-16 148q55 13 112.5 18t139.5 5z" />
    <glyph glyph-name="uni0418" unicode="&#x418;" horiz-adv-x="734" 
d="M677 690v-690h-206v317q0 27 3.5 53.5t7.5 53.5h-7q-8 -28 -18 -54t-24 -52l-169 -318h-207v690h206v-306q0 -25 -3 -54t-8 -58h7q9 28 20 55t24 51l168 312h206z" />
    <glyph glyph-name="uni0419" unicode="&#x419;" horiz-adv-x="734" 
d="M677 690v-690h-206v317q0 27 3.5 53.5t7.5 53.5h-7q-8 -28 -18 -54t-24 -52l-169 -318h-207v690h206v-306q0 -25 -3 -54t-8 -58h7q9 28 20 55t24 51l168 312h206zM427 910h127q8 -43 -11.5 -82.5t-62 -65t-104.5 -25.5q-61 0 -104 25.5t-63 65t-12 82.5h127
q-6 -46 8.5 -61.5t43.5 -15.5t43 15.5t8 61.5z" />
    <glyph glyph-name="uni041A" unicode="&#x41a;" horiz-adv-x="681" 
d="M656 690q-24 -80 -39.5 -134.5t-29.5 -89.5t-31.5 -55.5t-44.5 -31t-70 -16.5v-6q44 -7 72.5 -17t48.5 -31t36 -59t34 -98.5t44 -151.5h-226q-27 99 -43 157t-30.5 86t-34.5 36.5t-53 8.5l-3 140q34 0 54.5 10.5t34.5 38.5t27.5 79.5t33.5 133.5h220zM274 690v-174
q0 -38 -7.5 -78.5t-23.5 -75.5q12 -32 21.5 -69.5t9.5 -67.5v-225h-217v690h217zM338 428v-140h-116v140h116z" />
    <glyph glyph-name="uni041B" unicode="&#x41b;" horiz-adv-x="710" 
d="M638 690v-142h-244q-50 0 -53 -46q-3 -44 -7.5 -91t-10.5 -92t-13.5 -85t-16.5 -70q-23 -80 -64 -120.5t-96 -50.5t-122 2l-15 168q35 4 60.5 13.5t37.5 45.5q6 17 11 40t9.5 50.5t8.5 60t7 68.5t6 76q11 173 182 173h320zM653 690v-690h-217v690h217z" />
    <glyph glyph-name="uni041C" unicode="&#x41c;" horiz-adv-x="960" 
d="M816 690q73 0 76 -75l24 -615h-195l-21 528h-15l-68 -352q-10 -66 -82 -66h-112q-71 0 -83 66l-69 352h-15l-17 -528h-195l24 615q3 75 76 75h187q70 0 82 -67l50 -274q4 -25 6.5 -51t4.5 -52h9q3 26 5.5 52t6.5 51l47 274q12 67 83 67h191z" />
    <glyph glyph-name="uni041D" unicode="&#x41d;" horiz-adv-x="722" 
d="M274 690v-690h-217v690h217zM459 442v-152h-193v152h193zM665 690v-690h-217v690h217z" />
    <glyph glyph-name="uni041E" unicode="&#x41e;" horiz-adv-x="707" 
d="M353 704q89 0 150.5 -16.5t99.5 -56.5t55 -109.5t17 -176.5q0 -106 -17 -176t-55 -110t-99.5 -56.5t-150.5 -16.5q-88 0 -149.5 16.5t-99.5 56.5t-55 110t-17 176q0 107 17 176.5t55 109.5t99.5 56.5t149.5 16.5zM353 543q-37 0 -57 -16t-28 -59t-8 -123t8 -123t28 -59
t57 -16t57 16t28 59t8 123t-8 123t-28 59t-57 16z" />
    <glyph glyph-name="uni041F" unicode="&#x41f;" horiz-adv-x="718" 
d="M274 690v-690h-217v690h217zM455 690v-142h-189v142h189zM661 690v-690h-217v690h217z" />
    <glyph glyph-name="uni0420" unicode="&#x420;" horiz-adv-x="650" 
d="M348 700q110 0 172 -20.5t88 -71.5t26 -143q0 -91 -24.5 -141.5t-80.5 -71t-151 -20.5q-50 0 -100 5.5t-93.5 14t-74.5 18t-43 17.5l3 98h135h138q30 0 46 6.5t22 24t6 49.5q0 33 -6 51t-22 24.5t-46 6.5q-102 0 -174 -1t-98 -4l-15 148q46 5 86.5 7t88.5 2.5t117 0.5z
M273 690v-690h-217v690h217z" />
    <glyph glyph-name="uni0421" unicode="&#x421;" horiz-adv-x="605" 
d="M345 702q54 0 92 -3t69.5 -8.5t65.5 -15.5l-16 -158q-35 1 -65 1t-64 0.5t-82 0.5q-34 0 -52.5 -14.5t-25.5 -52t-7 -107.5t7 -107.5t25.5 -52t52.5 -14.5q75 0 125.5 1.5t100.5 6.5l16 -158q-52 -18 -106.5 -25.5t-135.5 -7.5q-114 0 -183 34.5t-99.5 112.5t-30.5 210
t30.5 210t99.5 112.5t183 34.5z" />
    <glyph glyph-name="uni0422" unicode="&#x422;" horiz-adv-x="623" 
d="M420 690v-690h-217v690h217zM613 690v-162h-603v162h603z" />
    <glyph glyph-name="uni0423" unicode="&#x423;" horiz-adv-x="623" 
d="M630 690l-150 -503q-19 -65 -42 -108t-57.5 -65t-90.5 -28q-30 -3 -70 -1t-78.5 6.5t-64.5 8.5l23 148q40 -1 69 -1.5t48 1.5t30 8.5t15 19.5l22 88l34 79l90 347h222zM215 690l78 -335q2 -11 16 -11h35l62 -152h-181q-48 0 -72 26t-36 68l-124 404h222z" />
    <glyph glyph-name="uni0424" unicode="&#x424;" horiz-adv-x="877" 
d="M438 654q118 0 199 -14t130.5 -48t71.5 -92t22 -145q0 -84 -22 -140t-71.5 -88.5t-130.5 -46.5t-199 -14t-199 14t-130 46.5t-71 88.5t-22 140q0 87 22 145t71 92t130 48t199 14zM438 503q-67 0 -107.5 -5t-61.5 -20.5t-28.5 -45t-7.5 -77.5q0 -45 7.5 -72.5t28.5 -41.5
t61.5 -19t107.5 -5t107.5 5t62 19t29 41.5t7.5 72.5q0 48 -7.5 77.5t-29 45t-62 20.5t-107.5 5zM547 734v-164l-10 -38v-346l10 -48v-152h-217v152l10 48v346l-10 38v164h217z" />
    <glyph glyph-name="uni0425" unicode="&#x425;" horiz-adv-x="677" 
d="M668 690l-157 -338l171 -352h-215l-156 352l143 338h214zM223 690l143 -338l-156 -352h-215l171 352l-157 338h214zM434 414v-120h-208v120h208z" />
    <glyph glyph-name="uni0426" unicode="&#x426;" horiz-adv-x="734" 
d="M57 0v690h217v-690h-217zM266 0v142h455v-142h-455zM428 0v690h217v-690h-217zM564 -151l-16 158h173v-158h-157z" />
    <glyph glyph-name="uni0427" unicode="&#x427;" horiz-adv-x="694" 
d="M252 690v-247q0 -27 11 -38.5t48 -11.5q16 0 34 1t40.5 5t50.5 13l23 -131q-36 -20 -77.5 -35t-80.5 -22.5t-70 -7.5q-101 0 -148.5 43.5t-47.5 136.5v294h217zM637 690v-690h-217v690h217z" />
    <glyph glyph-name="uni0428" unicode="&#x428;" horiz-adv-x="1019" 
d="M962 690v-690h-212v690h212zM269 690v-690h-212v690h212zM798 142v-142h-538v142h538zM615 690v-690h-211v690h211z" />
    <glyph glyph-name="uni0429" unicode="&#x429;" horiz-adv-x="1048" 
d="M269 690v-690h-212v690h212zM1034 142v-142h-774v142h774zM614 690v-690h-212v690h212zM959 690v-690h-212v690h212zM1034 7v-158h-157l-16 158h173z" />
    <glyph glyph-name="uni042A" unicode="&#x42a;" horiz-adv-x="786" 
d="M491 453q104 0 164 -20.5t85.5 -70.5t25.5 -139q0 -90 -25 -140.5t-77 -70.5t-134 -20q-69 0 -121 0.5t-95.5 2.5t-89.5 5l14 145q25 -1 93 -2t160 -1q24 0 36.5 7t16.5 26.5t4 55.5q0 37 -4 56.5t-16.5 27t-36.5 7.5h-254v131h254zM436 690v-690h-218v690h218zM336 690
v-162h-327v162h327z" />
    <glyph glyph-name="uni042B" unicode="&#x42b;" horiz-adv-x="955" 
d="M331 453q104 0 164.5 -20.5t86 -70.5t25.5 -139q0 -90 -25 -140.5t-77.5 -70.5t-134.5 -20q-69 0 -121 0.5t-96 2.5t-90 5l15 145q24 -1 92.5 -2t160.5 -1q25 0 37 7t16.5 26.5t4.5 55.5q0 37 -4.5 56.5t-16.5 27t-37 7.5h-255v131h255zM275 690v-690h-218v690h218z
M898 690v-690h-218v690h218z" />
    <glyph glyph-name="uni042C" unicode="&#x42c;" horiz-adv-x="634" 
d="M335 453q105 0 166 -20.5t87 -70.5t26 -139q0 -90 -25.5 -140.5t-78.5 -70.5t-136 -20q-70 0 -123 0.5t-97.5 2.5t-90.5 5l15 145q25 -1 94 -2t163 -1q26 0 39.5 7t18 26.5t4.5 55.5q0 37 -4.5 56.5t-18 27t-39.5 7.5h-258v131h258zM274 690v-690h-217v690h217z" />
    <glyph glyph-name="uni042D" unicode="&#x42d;" horiz-adv-x="607" 
d="M258 702q116 0 185.5 -34.5t100.5 -112.5t31 -210t-31 -210t-100.5 -112.5t-185.5 -34.5q-79 0 -131.5 7.5t-103.5 25.5l16 158q49 -5 98 -6.5t121 -1.5q38 0 58.5 14.5t28 52t7.5 107.5t-7.5 107.5t-28 52t-58.5 14.5q-47 0 -82 -0.5t-65.5 -0.5t-66.5 -1l-16 158
q35 10 67 15.5t70.5 8.5t92.5 3zM533 420v-134h-453v134h453z" />
    <glyph glyph-name="uni042E" unicode="&#x42e;" horiz-adv-x="1021" 
d="M670 704q88 0 149 -16.5t98.5 -56.5t54.5 -109.5t17 -176.5q0 -106 -17 -176t-54.5 -110t-98.5 -56.5t-149 -16.5q-82 0 -139 16.5t-91.5 56.5t-50.5 110t-16 176q0 107 16 176.5t50.5 109.5t91.5 56.5t139 16.5zM275 690v-690h-218v690h218zM451 427v-142h-185v142h185z
M670 543q-35 0 -53.5 -16t-25 -59t-6.5 -123t6.5 -123t25 -59t53.5 -16q36 0 55.5 16t26.5 59t7 123t-7 123t-26.5 59t-55.5 16z" />
    <glyph glyph-name="uni042F" unicode="&#x42f;" horiz-adv-x="664" 
d="M324 700q67 0 114 -0.5t86.5 -2.5t83.5 -7l-15 -148q-25 3 -94 4t-170 1q-28 0 -43.5 -6t-21 -21t-5.5 -44q0 -28 5.5 -43.5t21 -21.5t43.5 -6h247l3 -151q-24 -1 -44.5 -1.5t-45.5 -0.5h-61h-91q-26 0 -37.5 -9t-16.5 -38l-43 -205h-227l52 212q8 42 27.5 64.5t42 32
t40.5 11.5v6q-52 6 -81 29t-41 58.5t-12 76.5q0 81 29.5 126.5t92 64.5t161.5 19zM608 690v-690h-217v690h217z" />
    <glyph glyph-name="uni0430" unicode="&#x430;" horiz-adv-x="594" 
d="M334 514q71 0 119.5 -18.5t74 -63t25.5 -122.5v-310h-167l-29 107l-14 20v184q-1 26 -13.5 38t-45.5 12q-39 0 -95.5 -1t-120.5 -4l-19 133q38 7 90.5 12.5t104.5 9t90 3.5zM472 307l-1 -101h-207q-19 0 -28.5 -8.5t-9.5 -22.5v-16q0 -13 10.5 -22t31.5 -9q24 0 50 11.5
t50 29.5t41 37v-64q-7 -17 -22 -43t-40.5 -52t-63 -43.5t-89.5 -17.5q-46 0 -85.5 16t-63 47.5t-23.5 78.5v50q0 60 44.5 94.5t120.5 34.5h285z" />
    <glyph glyph-name="uni0431" unicode="&#x431;" horiz-adv-x="615" 
d="M531 741l28 -159q-37 -19 -72 -25t-68 -6t-65 -0.5t-63 -9.5q-20 -5 -35 -11.5t-25.5 -13.5t-17.5 -16q-13 -16 -17.5 -33.5t-8.5 -42.5h4q17 16 35 27t38.5 18t45 10t52.5 3q85 0 134 -24t70.5 -75.5t21.5 -135.5q0 -88 -25.5 -145.5t-84 -85.5t-156.5 -28
q-84 0 -137.5 16.5t-84 46t-44.5 71t-17.5 91t-3.5 105.5q0 69 7.5 128t27 107t55.5 82.5t94 55.5q41 14 80 18.5t78 5.5t77.5 6t76.5 20zM310 362q-25 0 -38 -8.5t-17.5 -32.5t-4.5 -72q0 -50 5 -75.5t17.5 -34.5t36.5 -9t37 9t17.5 34.5t4.5 75.5q0 48 -4.5 72t-17 32.5
t-36.5 8.5z" />
    <glyph glyph-name="uni0432" unicode="&#x432;" horiz-adv-x="593" 
d="M322 506q86 0 136 -11.5t72 -40t22 -81.5t-25.5 -80.5t-85.5 -32.5v-5q72 -4 101.5 -38t29.5 -93q0 -52 -23.5 -81t-72 -40.5t-124.5 -11.5q-68 0 -120 0.5t-96.5 2t-89.5 3.5l14 127q24 -1 92.5 -1.5t162.5 -0.5q19 0 29.5 3.5t15 13t4.5 27.5q0 25 -10.5 33t-39.5 8
h-255v101h255q18 0 27.5 3t13 11t3.5 21q0 14 -4 21.5t-14 10.5t-28 3q-58 0 -101 0.5t-79 0.5t-72 -3l-14 124q41 3 81 4t87.5 1.5t107.5 0.5zM243 500v-503h-197v503h197z" />
    <glyph glyph-name="uni0433" unicode="&#x433;" horiz-adv-x="473" 
d="M189 508q70 0 146 -2t133 -15l-10 -146h-173q-19 0 -26.5 -6.5t-7.5 -23.5v-315h-208v376q0 69 35.5 100.5t110.5 31.5z" />
    <glyph glyph-name="uni0434" unicode="&#x434;" horiz-adv-x="673" 
d="M563 500v-128h-213q-34 0 -40 -35q-15 -87 -33.5 -146.5t-44 -104t-61.5 -86.5h-157q34 66 55.5 129t35.5 124.5t24 124.5q10 60 45 91t102 31h287zM163 5l-14 -141h-139v141h153zM661 136v-136h-651v136h651zM661 5v-141h-139l-14 141h153zM575 500v-500h-197v500h197z
" />
    <glyph glyph-name="uni0435" unicode="&#x435;" 
d="M309 514q141 0 200 -45t60 -133q1 -70 -41.5 -101t-152.5 -31h-269v99h210q34 0 43 6.5t9 31.5q0 24 -12 31t-41 7q-29 1 -44 -6t-20.5 -30.5t-5.5 -73.5q0 -46 6.5 -72t25.5 -37t56 -11q30 0 84.5 2t118.5 9l19 -126q-35 -18 -75 -28t-82.5 -14t-87.5 -4q-104 0 -167 29
t-90.5 86.5t-27.5 142.5q0 99 28 157.5t90.5 84.5t165.5 26z" />
    <glyph glyph-name="uni0436" unicode="&#x436;" horiz-adv-x="856" 
d="M833 500q-21 -67 -34 -109t-23.5 -66t-24.5 -35.5t-36.5 -16t-58.5 -9.5v-6q37 -6 61 -10.5t40 -16.5t28.5 -37.5t27.5 -72t37 -121.5h-212q-25 79 -39 119.5t-22.5 56t-17.5 17t-24 1.5l-3 130q16 0 25.5 3t18 19t20 52t31.5 102h206zM229 500q20 -66 32 -102t20 -52
t17.5 -19t24.5 -3l-2 -130q-14 0 -22.5 -1.5t-17 -17t-22.5 -56t-40 -119.5h-212q22 75 37 121.5t27.5 72t28.5 37.5t40 16.5t61 10.5v6q-36 5 -58.5 9.5t-36.5 16t-25 35.5t-24 66t-34 109h206zM375 324v-130h-79v130h79zM520 500v-111q0 -31 -7.5 -65t-21.5 -61
q11 -25 20 -55.5t9 -53.5v-154h-184v154q0 23 9.5 53.5t19.5 55.5q-14 27 -21 61t-7 65v111h183zM560 324v-130h-79v130h79z" />
    <glyph glyph-name="uni0437" unicode="&#x437;" horiz-adv-x="535" 
d="M227 514q94 0 152.5 -9t86 -38.5t27.5 -90.5q0 -59 -26 -85t-84 -31v-5q70 -4 100 -36.5t30 -93.5q0 -63 -28.5 -92.5t-83.5 -38t-135 -8.5q-62 0 -122 4.5t-125 19.5l13 134q65 -7 121 -9.5t98 -2.5q29 0 38.5 4.5t9.5 27.5q0 12 -3.5 17t-14 6.5t-31.5 2.5l-168 4v117
l167 4q16 1 24.5 2.5t11.5 6.5t3 15q0 13 -3.5 18t-13.5 6.5t-30 1.5q-52 0 -103 -3.5t-96 -8.5l-13 134q55 17 109.5 22t88.5 5z" />
    <glyph glyph-name="uni0438" unicode="&#x438;" horiz-adv-x="632" 
d="M586 500v-500l-187 -2v196q0 23 2 45.5t6 48.5h-5q-7 -22 -19 -47.5t-23 -42.5l-128 -198h-186v500h186v-209q0 -20 -2 -39t-6 -42h5q7 23 17 41t22 37l132 212h186z" />
    <glyph glyph-name="uni0439" unicode="&#x439;" horiz-adv-x="632" 
d="M586 500v-500l-187 -2v196q0 23 2 45.5t6 48.5h-5q-7 -22 -19 -47.5t-23 -42.5l-128 -198h-186v500h186v-209q0 -20 -2 -39t-6 -42h5q7 23 17 41t22 37l132 212h186zM368 722h127q8 -43 -11.5 -82.5t-62 -65t-104.5 -25.5q-61 0 -104 25.5t-63 65t-12 82.5h127
q-6 -46 8.5 -61.5t43.5 -15.5t43 15.5t8 61.5z" />
    <glyph glyph-name="uni043A" unicode="&#x43a;" horiz-adv-x="594" 
d="M570 500q-20 -68 -32 -110.5t-22 -66t-23 -34.5t-34.5 -16t-57.5 -10v-6q36 -6 59 -10t38 -15.5t27.5 -36.5t26.5 -72t35 -123h-218q-17 64 -27.5 102t-17.5 57.5t-15 25.5t-19 6h-29l-4 134q24 0 37.5 3t22 18t17.5 51t24 103h212zM255 500v-109q0 -31 -7.5 -66
t-22.5 -63q12 -25 21 -56t9 -54v-152h-209v500h209zM303 325v-134h-97v134h97z" />
    <glyph glyph-name="uni043B" unicode="&#x43b;" horiz-adv-x="622" 
d="M563 500v-136h-222q-19 0 -29.5 -9t-12.5 -26q-4 -37 -8.5 -74.5t-9 -69.5t-7.5 -53q-9 -69 -47 -102.5t-91.5 -40t-111.5 5.5l-21 153q20 3 37 4t29 8t17 28q3 10 5.5 26t5.5 38.5t5.5 51.5t5.5 66q5 64 39 97t98 33h318zM576 500v-500h-209v500h209z" />
    <glyph glyph-name="uni043C" unicode="&#x43c;" horiz-adv-x="822" 
d="M701 500q69 0 71 -71l11 -429h-190l-11 348h-11l-41 -211q-5 -32 -25 -48t-53 -16h-83q-33 0 -53.5 16t-25.5 48l-42 211h-11l-7 -348h-190l10 429q2 71 72 71h172q32 0 52.5 -16t24.5 -49l29 -156q4 -19 5 -37.5t2 -38.5h6q2 20 2.5 38.5t4.5 37.5l27 156q9 65 78 65
h176z" />
    <glyph glyph-name="uni043D" unicode="&#x43d;" horiz-adv-x="628" 
d="M253 500v-500h-207v500h207zM385 330v-135h-139v135h139zM582 500v-500h-206v500h206z" />
    <glyph glyph-name="uni043E" unicode="&#x43e;" horiz-adv-x="611" 
d="M306 514q102 0 163.5 -25.5t88.5 -83.5t27 -156q0 -96 -27 -153t-88.5 -82.5t-163.5 -25.5t-163.5 25.5t-89 82.5t-27.5 153q0 98 27.5 156t89 83.5t163.5 25.5zM306 372q-24 0 -37 -9.5t-18 -35.5t-5 -78q0 -50 5 -75.5t18 -34.5t37 -9t37 9t17.5 34.5t4.5 75.5
q0 52 -4.5 78t-17.5 35.5t-37 9.5z" />
    <glyph glyph-name="uni043F" unicode="&#x43f;" horiz-adv-x="621" 
d="M575 501v-501h-204v501h204zM250 501v-501h-204v501h204zM381 501l-1 -136h-137v136h138z" />
    <glyph glyph-name="uni0440" unicode="&#x440;" horiz-adv-x="623" 
d="M415 512q98 0 139 -70t41 -198q0 -103 -21.5 -159t-63.5 -77.5t-104 -21.5q-57 0 -106.5 17t-79.5 59l14 82q20 -7 38.5 -14t49.5 -7q21 0 33.5 7.5t18 33t5.5 78.5q0 54 -5.5 79.5t-17.5 32.5t-31 7q-26 0 -41 -5.5t-31 -13.5l-29 79q13 25 41.5 45.5t67.5 33t82 12.5z
M214 500l20 -79l22 -16v-331l-6 -12q3 -32 5 -70t1 -73v-99h-210v680h168z" />
    <glyph glyph-name="uni0441" unicode="&#x441;" horiz-adv-x="528" 
d="M294 514q31 0 68 -3t74 -11t67 -23l-21 -130h-84h-68t-50.5 -8t-26 -28.5t-7.5 -59.5t7.5 -60t26 -29t50.5 -8q17 0 42.5 0.5t56.5 2t62 4.5l19 -131q-44 -23 -102 -32.5t-116 -9.5q-98 0 -156.5 25.5t-84 83.5t-25.5 154q0 97 26 154.5t85 83t157 25.5z" />
    <glyph glyph-name="uni0442" unicode="&#x442;" horiz-adv-x="537" 
d="M373 500v-500h-209v500h209zM526 500v-156h-515v156h515z" />
    <glyph glyph-name="uni0443" unicode="&#x443;" horiz-adv-x="602" 
d="M604 500l-159 -486q-21 -72 -51 -113.5t-67 -63t-81 -34.5q-46 -13 -100.5 -12t-105.5 12l16 133q53 -1 88.5 4.5t59.5 17.5q17 9 31.5 27.5t23.5 38.5l30 70q11 26 19.5 64.5t13.5 65.5l59 276h223zM220 500l59 -276q4 -23 7 -47t6 -47h30l-65 -130h-46
q-24 0 -41.5 13.5t-24.5 35.5l-148 451h223z" />
    <glyph glyph-name="uni0444" unicode="&#x444;" horiz-adv-x="780" 
d="M390 514q133 0 212.5 -25.5t115.5 -83.5t36 -156q0 -96 -36 -153t-115.5 -82.5t-212.5 -25.5t-213 25.5t-116 82.5t-36 153q0 98 36 156t116 83.5t213 25.5zM390 382q-68 0 -104 -10t-49.5 -38.5t-13.5 -84.5q0 -54 13.5 -82t49.5 -37.5t104 -9.5t103.5 9.5t49 37.5
t13.5 82q0 56 -13.5 84.5t-49 38.5t-103.5 10zM483 700v-217l-10 -38v-361l10 -52v-212h-187v212l10 51v361l-10 39v217h187z" />
    <glyph glyph-name="uni0445" unicode="&#x445;" horiz-adv-x="606" 
d="M598 500l-134 -245l145 -255h-208l-133 255l123 245h207zM215 500l123 -245l-133 -255h-208l145 255l-134 245h207zM407 316v-118h-206v118h206z" />
    <glyph glyph-name="uni0446" unicode="&#x446;" horiz-adv-x="659" 
d="M253 500v-500h-207v500h207zM646 136v-136h-405v136h405zM566 500v-500h-207v500h207zM646 5v-141h-139l-15 141h154z" />
    <glyph glyph-name="uni0447" unicode="&#x447;" horiz-adv-x="605" 
d="M240 500v-179q0 -15 8 -22.5t27 -7.5q20 0 41 4t48 15l22 -129q-40 -19 -87.5 -29.5t-95.5 -10.5q-89 0 -130.5 29t-41.5 90v240h209zM559 500v-500h-209v500h209z" />
    <glyph glyph-name="uni0448" unicode="&#x448;" horiz-adv-x="870" 
d="M248 500v-500h-202v500h202zM667 136v-136h-427v136h427zM527 500v-500h-184v500h184zM824 500v-500h-202v500h202z" />
    <glyph glyph-name="uni0449" unicode="&#x449;" horiz-adv-x="914" 
d="M248 500v-500h-202v500h202zM901 136v-136h-660l-1 136h661zM526 500v-500h-184v500h184zM822 500v-500h-202v500h202zM901 5v-141h-139l-15 141h154z" />
    <glyph glyph-name="uni044A" unicode="&#x44a;" horiz-adv-x="683" 
d="M409 343q98 0 154.5 -15t80 -52.5t23.5 -106.5q0 -68 -23.5 -106t-72.5 -53.5t-125 -15.5q-60 0 -105.5 0.5t-84 2t-77.5 3.5l12 131q20 -1 79.5 -2t138.5 -1q20 0 30 3.5t13.5 14.5t3.5 31q0 32 -8 41t-39 9h-219v116h219zM375 500v-500h-202v500h202zM11 500h272v-150
h-272v150z" />
    <glyph glyph-name="uni044B" unicode="&#x44b;" horiz-adv-x="842" 
d="M283 343q98 0 154.5 -15t80.5 -52.5t24 -106.5q0 -68 -23.5 -106t-72.5 -53.5t-126 -15.5q-60 0 -105.5 0.5t-84 2t-78.5 3.5l12 131q21 -1 80.5 -2t138.5 -1q21 0 31 3.5t13.5 14.5t3.5 31q0 32 -8 41t-40 9h-220v116h220zM248 500v-500h-202v500h202zM796 500v-500
h-211v500h211z" />
    <glyph glyph-name="uni044C" unicode="&#x44c;" horiz-adv-x="563" 
d="M286 343q99 0 156 -15t81 -52.5t24 -106.5q0 -68 -24 -106t-73.5 -53.5t-127.5 -15.5q-61 0 -107 0.5t-84.5 2t-78.5 3.5l13 131q20 -1 80.5 -2t140.5 -1q22 0 32.5 3.5t14.5 14.5t4 31q0 22 -4 32.5t-14.5 14t-32.5 3.5h-222v116h222zM247 500v-500h-201v500h201z" />
    <glyph glyph-name="uni044D" unicode="&#x44d;" horiz-adv-x="564" 
d="M241 514q109 0 174 -25t94 -83t29 -158q0 -97 -29 -154.5t-94 -82.5t-174 -25q-66 0 -119.5 8t-100.5 25l15 129q47 -2 92.5 -3t112.5 -1q36 0 54.5 5t25 27t6.5 72t-7.5 73t-26 29.5t-52.5 6.5q-62 0 -106 -0.5t-94 0.5l-16 126q50 17 106.5 24t109.5 7zM498 308v-110
h-424v110h424z" />
    <glyph glyph-name="uni044E" unicode="&#x44e;" horiz-adv-x="870" 
d="M575 514q73 0 124 -11t83 -40t46.5 -81t14.5 -134q0 -105 -26.5 -161t-85 -77t-156.5 -21q-92 0 -147.5 21t-79.5 77t-24 161q0 82 13.5 134t43 81t77.5 40t117 11zM256 500v-500h-210v500h210zM394 323v-136h-146v136h146zM572 359q-25 0 -37 -7.5t-15.5 -30.5t-3.5 -70
q0 -46 3.5 -69t15.5 -30.5t37 -7.5q24 0 35.5 7.5t15 30.5t3.5 69q0 47 -3.5 70t-15 30.5t-35.5 7.5z" />
    <glyph glyph-name="uni044F" unicode="&#x44f;" horiz-adv-x="587" 
d="M279 514q72 0 118.5 -0.5t79.5 -2t64 -5.5l-13 -140q-7 3 -71 3.5t-174 0.5q-26 0 -34.5 -7t-8.5 -27q0 -35 8.5 -45.5t34.5 -10.5h246l3 -120q-21 -1 -46.5 -2t-70 -1h-122.5q-21 0 -28.5 -4t-9.5 -19l-29 -134h-214l37 160q7 22 24.5 32.5t37.5 14t34 4.5v5
q-43 9 -66.5 30.5t-33 49t-9.5 53.5q0 51 10.5 83t37 50t74 25t121.5 7zM541 506v-506h-204v506h204z" />
    <glyph glyph-name="uni0450" unicode="&#x450;" 
d="M309 514q141 0 200 -45t60 -133q1 -70 -41.5 -101t-152.5 -31h-269v99h210q34 0 43 6.5t9 31.5q0 24 -12 31t-41 7q-29 1 -44 -6t-20.5 -30.5t-5.5 -73.5q0 -46 6.5 -72t25.5 -37t56 -11q30 0 84.5 2t118.5 9l19 -126q-35 -18 -75 -28t-82.5 -14t-87.5 -4q-104 0 -167 29
t-90.5 86.5t-27.5 142.5q0 99 28 157.5t90.5 84.5t165.5 26zM179 788l233 -150l-57 -86l-255 103z" />
    <glyph glyph-name="uni0451" unicode="&#x451;" 
d="M309 514q141 0 200 -45t60 -133q1 -70 -41.5 -101t-152.5 -31h-269v99h210q34 0 43 6.5t9 31.5q0 24 -12 31t-41 7q-29 1 -44 -6t-20.5 -30.5t-5.5 -73.5q0 -46 6.5 -72t25.5 -37t56 -11q30 0 84.5 2t118.5 9l19 -126q-35 -18 -75 -28t-82.5 -14t-87.5 -4q-104 0 -167 29
t-90.5 86.5t-27.5 142.5q0 99 28 157.5t90.5 84.5t165.5 26zM439 716q39 0 39 -39v-63q0 -39 -39 -39h-69q-39 0 -39 39v63q0 39 39 39h69zM250 716q39 0 39 -39v-63q0 -39 -39 -39h-69q-39 0 -39 39v63q0 39 39 39h69z" />
    <glyph glyph-name="uni0452" unicode="&#x452;" horiz-adv-x="628" 
d="M453 424q147 0 147 -140v-236q0 -52 -18 -101t-52.5 -87.5t-82.5 -59.5l-117 92q36 40 47.5 76.5t11.5 79.5v169q0 17 -8 23.5t-28 6.5q-19 0 -40.5 -3t-57.5 -16l-23 91q53 53 110.5 79t110.5 26zM277 700v-239q0 -45 -6 -86.5t-14 -66.5l20 -12v-296h-211v700h211z
M443 557v-100h-433v100h433z" />
    <glyph glyph-name="uni0453" unicode="&#x453;" horiz-adv-x="473" 
d="M189 508q70 0 146 -2t133 -15l-10 -146h-173q-19 0 -26.5 -6.5t-7.5 -23.5v-315h-208v376q0 69 35.5 100.5t110.5 31.5zM383 768l79 -133l-255 -103l-57 86z" />
    <glyph glyph-name="uni0454" unicode="&#x454;" horiz-adv-x="564" 
d="M323 514q61 0 114 -6t102 -25l-16 -126q-49 -1 -93.5 -1h-106.5q-34 1 -52.5 -5.5t-26 -29.5t-7.5 -73t7.5 -72t26 -27t52.5 -5q67 0 113 1t92 3l15 -129q-47 -19 -104 -26t-116 -7q-109 0 -174 25t-94 82.5t-29 154.5q0 100 29 158t94 83t174 25zM66 308h425v-110h-425
v110z" />
    <glyph glyph-name="uni0455" unicode="&#x455;" horiz-adv-x="553" 
d="M256 514q40 0 87.5 -3t92.5 -7.5t76 -11.5l-13 -122h-100.5h-96.5q-33 0 -49 -0.5t-21 -2.5t-5 -9q0 -8 11.5 -11t47.5 -13l115 -29q67 -19 99.5 -52.5t32.5 -98.5q0 -63 -24 -99t-77.5 -51t-140.5 -15q-36 0 -106.5 3.5t-153.5 17.5l13 122h41.5h65h71.5q48 0 71 0.5
t30 4t7 10.5q0 9 -13 12.5t-52 14.5l-110 30q-55 16 -83 39.5t-38 54.5t-10 70q0 46 21.5 78.5t72 50t138.5 17.5z" />
    <glyph glyph-name="uni0456" unicode="&#x456;" horiz-adv-x="309" 
d="M259 500v-500h-209v500h209zM199 729q61 0 61 -62v-51q0 -62 -61 -62h-89q-61 0 -61 62v51q0 62 61 62h89z" />
    <glyph glyph-name="uni0457" unicode="&#x457;" horiz-adv-x="311" 
d="M261 500v-500h-211v500h211zM283 716q39 0 39 -39v-63q0 -39 -39 -39h-69q-39 0 -39 39v63q0 39 39 39h69zM94 716q39 0 39 -39v-63q0 -39 -39 -39h-69q-39 0 -39 39v63q0 39 39 39h69z" />
    <glyph glyph-name="uni0458" unicode="&#x458;" horiz-adv-x="309" 
d="M259 500v-442q0 -52 -19.5 -101t-55.5 -87.5t-87 -59.5l-116 92q40 40 54.5 76.5t14.5 79.5v442h209zM196 739q61 0 61 -62v-51q0 -62 -61 -62h-89q-61 0 -61 62v51q0 62 61 62h89z" />
    <glyph glyph-name="uni0459" unicode="&#x459;" horiz-adv-x="843" 
d="M539 500v-124h-205q-19 0 -28.5 -9t-11.5 -33q-2 -19 -5.5 -45.5t-8 -56t-10 -57t-11.5 -48.5q-27 -91 -87 -119t-146 -12l-13 144q27 2 49.5 9.5t29.5 38.5q3 14 7 34t7.5 45t7 51.5t6.5 52.5q14 129 144 129h275zM551 500v-500h-193v500h193zM578 339q95 0 149 -15
t77 -52.5t23 -105.5q0 -66 -22.5 -103.5t-70 -53t-122.5 -15.5q-57 0 -98.5 1t-76.5 2.5t-73 2.5l7 127q13 -1 43.5 -1.5t72.5 -1t91 -0.5q22 0 32 4t13.5 15t3.5 31q0 32 -8.5 41t-40.5 9h-211v115h211z" />
    <glyph glyph-name="uni045A" unicode="&#x45a;" horiz-adv-x="833" 
d="M579 324q91 0 143 -14t74 -48t22 -96q0 -66 -21.5 -103.5t-67 -53t-116.5 -15.5q-57 0 -102.5 0.5t-84 2t-76.5 3.5l12 127q20 -1 80 -2t137 -1q17 0 25 3.5t11 13.5t3 27q0 26 -6.5 34t-32.5 8h-221v114h221zM237 500v-500h-191v500h191zM352 325v-124h-122v124h122z
M542 500v-500h-196v500h196z" />
    <glyph glyph-name="uni045B" unicode="&#x45b;" horiz-adv-x="628" 
d="M453 424q147 0 147 -140v-284h-211v217q0 17 -8 23.5t-28 6.5q-19 0 -40.5 -3t-57.5 -16l-23 91q53 53 110.5 79t110.5 26zM277 700v-239q0 -45 -6 -86.5t-14 -66.5l20 -12v-296h-211v700h211zM443 557v-100h-433v100h433z" />
    <glyph glyph-name="uni045C" unicode="&#x45c;" horiz-adv-x="594" 
d="M570 500q-20 -68 -32 -110.5t-22 -66t-23 -34.5t-34.5 -16t-57.5 -10v-6q36 -6 59 -10t38 -15.5t27.5 -36.5t26.5 -72t35 -123h-218q-17 64 -27.5 102t-17.5 57.5t-15 25.5t-19 6h-29l-4 134q24 0 37.5 3t22 18t17.5 51t24 103h212zM255 500v-109q0 -31 -7.5 -66
t-22.5 -63q12 -25 21 -56t9 -54v-152h-209v500h209zM303 325v-134h-97v134h97zM442 768l79 -133l-255 -103l-57 86z" />
    <glyph glyph-name="uni045D" unicode="&#x45d;" horiz-adv-x="632" 
d="M586 500v-500l-187 -2v196q0 23 2 45.5t6 48.5h-5q-7 -22 -19 -47.5t-23 -42.5l-128 -198h-186v500h186v-209q0 -20 -2 -39t-6 -42h5q7 23 17 41t22 37l132 212h186zM184 788l233 -150l-57 -86l-255 103z" />
    <glyph glyph-name="uni045E" unicode="&#x45e;" horiz-adv-x="602" 
d="M604 500l-159 -486q-21 -72 -51 -113.5t-67 -63t-81 -34.5q-46 -13 -100.5 -12t-105.5 12l16 133q53 -1 88.5 4.5t59.5 17.5q17 9 31.5 27.5t23.5 38.5l30 70q11 26 19.5 64.5t13.5 65.5l59 276h223zM220 500l59 -276q4 -23 7 -47t6 -47h30l-65 -130h-46
q-24 0 -41.5 13.5t-24.5 35.5l-148 451h223zM348 722h127q8 -43 -11.5 -82.5t-62 -65t-104.5 -25.5q-61 0 -104 25.5t-63 65t-12 82.5h127q-6 -46 8.5 -61.5t43.5 -15.5t43 15.5t8 61.5z" />
    <glyph glyph-name="uni045F" unicode="&#x45f;" horiz-adv-x="625" 
d="M252 500l3 -500h-209v500h206zM381 136l-2 -136h-131l-3 136h136zM579 500v-500h-209l3 500h206zM395 5l-12 -167h-141l-13 167h166z" />
    <glyph glyph-name="uni0462" unicode="&#x462;" horiz-adv-x="669" 
d="M409 -8q-70 0 -123 0.5t-97.5 2.5t-90.5 5l15 145q25 -1 94 -2t163 -1q26 0 39.5 7t18 26.5t4.5 55.5q0 37 -4.5 56.5t-18 27t-39.5 7.5h-258v131h258q105 0 166 -20.5t87 -70.5t26 -139q0 -90 -25.5 -140.5t-78.5 -70.5t-136 -20zM92 0v734h217v-734h-217zM-20 522v120
h541v-120h-541z" />
    <glyph glyph-name="uni0463" unicode="&#x463;" horiz-adv-x="583" 
d="M306 343q99 0 156 -15t81 -52.5t24 -106.5q0 -68 -24 -106t-73.5 -53.5t-127.5 -15.5q-61 0 -107 0.5t-84.5 2t-78.5 3.5l13 131q20 -1 80.5 -2t140.5 -1q22 0 32.5 3.5t14.5 14.5t4 31q0 22 -4 32.5t-14.5 14t-32.5 3.5h-222v116h222zM267 690v-690h-201v690h201z
M-10 447v100h441v-100h-441z" />
    <glyph glyph-name="uni046A" unicode="&#x46a;" horiz-adv-x="924" 
d="M-15 0q31 93 52.5 155.5t40.5 101t42.5 60.5t58 32.5t87.5 17.5v6l-184 242q-12 17 -10.5 34t14 29t33.5 12h686q21 0 33.5 -12t14.5 -29t-11 -34l-184 -242v-6q53 -7 87.5 -17.5t58 -32.5t42.5 -60.5t40.5 -101t52.5 -155.5h-227q-24 83 -39 137t-25.5 84.5t-21.5 45
t-26 18t-39 3.5q2 -19 3 -35.5t1 -27.5v-225h-207v225q0 11 1.5 27.5t3.5 35.5q-24 0 -39 -4t-25.5 -18.5t-21.5 -45.5t-26 -84t-39 -136h-227zM459 385l130 167h-255z" />
    <glyph glyph-name="uni046B" unicode="&#x46b;" horiz-adv-x="799" 
d="M-9 0q25 70 42 115.5t32 72t33 40.5t45.5 21.5t69.5 15.5v4l-127 152q-14 17 -13 35.5t14 31t35 12.5h556q22 0 35.5 -12.5t15 -30.5t-13.5 -36l-128 -152v-4q42 -8 69.5 -15.5t45.5 -21.5t33 -40.5t31.5 -71.5t41.5 -116h-214q-23 72 -34 112.5t-18.5 59t-17.5 23
t-31 4.5q1 -14 2 -25t1 -19v-155h-193v155q0 8 1.5 19t2.5 25q-20 0 -30 -5t-18 -23.5t-19 -59t-34 -111.5h-215zM400 265l97 113h-194z" />
    <glyph glyph-name="uni0472" unicode="&#x472;" horiz-adv-x="707" 
d="M202 287v124h290v-124h-290zM353 704q89 0 150.5 -16.5t99.5 -56.5t55 -109.5t17 -176.5q0 -106 -17 -176t-55 -110t-99.5 -56.5t-150.5 -16.5q-88 0 -149.5 16.5t-99.5 56.5t-55 110t-17 176q0 107 17 176.5t55 109.5t99.5 56.5t149.5 16.5zM353 543q-37 0 -57 -16
t-28 -59t-8 -123t8 -123t28 -59t57 -16t57 16t28 59t8 123t-8 123t-28 59t-57 16z" />
    <glyph glyph-name="uni0473" unicode="&#x473;" horiz-adv-x="611" 
d="M306 -12q-102 0 -163.5 25.5t-89 82.5t-27.5 153q0 98 27.5 156t89 83.5t163.5 25.5t163.5 -25.5t88.5 -83.5t27 -156q0 -96 -27 -153t-88.5 -82.5t-163.5 -25.5zM306 130q28 0 43 9t20.5 34.5t5.5 75.5q0 52 -5.5 78t-20.5 35.5t-43 9.5t-43.5 -9.5t-21 -35.5t-5.5 -78
q0 -50 5.5 -75.5t21 -34.5t43.5 -9zM192 208v92h222v-92h-222z" />
    <glyph glyph-name="uni0474" unicode="&#x474;" horiz-adv-x="709" 
d="M240 0q-28 0 -48 16t-26 42l-168 632h223l89 -449q4 -19 7 -39.5t6 -39.5h24q2 13 4 26.5t4.5 27t4.5 25.5l44 290q5 30 15 60.5t30 56t53 41t83 15.5q23 0 56.5 -1.5t67.5 -8.5v-163q-9 2 -21 2.5t-20 0.5q-31 0 -50 -13.5t-27 -51.5l-87 -411q-5 -26 -25.5 -42
t-48.5 -16h-190z" />
    <glyph glyph-name="uni0475" unicode="&#x475;" horiz-adv-x="581" 
d="M193 0q-25 0 -42 14t-23 36l-131 447h194l64 -298q3 -13 5.5 -28.5t4.5 -29.5h19q2 9 3.5 19t3.5 20t3 18l28 165q3 21 11 46t24 47t44 36.5t71 14.5q20 0 49.5 -1.5t59.5 -7.5v-143q-7 2 -17.5 2.5t-16.5 0.5q-25 0 -40.5 -11t-22.5 -40l-62 -257q-5 -22 -23 -36
t-42 -14h-164z" />
    <glyph glyph-name="uni048A" unicode="&#x48a;" horiz-adv-x="777" 
d="M471 142h291v-142l-30 -151h-157l14 151h-118v142zM677 690v-690h-206v317q0 27 3.5 53.5t7.5 53.5h-7q-8 -28 -18 -54t-24 -52l-169 -318h-207v690h206v-306q0 -25 -3 -54t-8 -58h7q9 28 20 55t24 51l168 312h206zM427 910h127q8 -43 -11.5 -82.5t-62 -65t-104.5 -25.5
q-61 0 -104 25.5t-63 65t-12 82.5h127q-6 -46 8.5 -61.5t43.5 -15.5t43 15.5t8 61.5z" />
    <glyph glyph-name="uni048B" unicode="&#x48b;" horiz-adv-x="678" 
d="M402 132h263v-132l-30 -136h-144l24 136h-113v132zM586 500v-500l-187 -2v196q0 23 2 45.5t6 48.5h-5q-7 -22 -19 -47.5t-23 -42.5l-128 -198h-186v500h186v-209q0 -20 -2 -39t-6 -42h5q7 23 17 41t22 37l132 212h186zM368 722h127q8 -43 -11.5 -82.5t-62 -65
t-104.5 -25.5q-61 0 -104 25.5t-63 65t-12 82.5h127q-6 -46 8.5 -61.5t43.5 -15.5t43 15.5t8 61.5z" />
    <glyph glyph-name="uni048C" unicode="&#x48c;" horiz-adv-x="657" 
d="M-20 507v120h541v-120h-541zM380 453q105 0 166 -20.5t87 -70.5t26 -139q0 -90 -25.5 -140.5t-78.5 -70.5t-136 -20q-70 0 -123 0.5t-97.5 2.5t-90.5 5l15 145q25 -1 94 -2t163 -1q26 0 39.5 7t18 26.5t4.5 55.5q0 37 -4.5 56.5t-18 27t-39.5 7.5h-258v131h258zM319 690
v-690h-217v690h217z" />
    <glyph glyph-name="uni048D" unicode="&#x48d;" horiz-adv-x="583" 
d="M306 343q99 0 156 -15t81 -52.5t24 -106.5q0 -68 -24 -106t-73.5 -53.5t-127.5 -15.5q-61 0 -107 0.5t-84.5 2t-78.5 3.5l13 131q20 -1 80.5 -2t140.5 -1q22 0 32.5 3.5t14.5 14.5t4 31q0 22 -4 32.5t-14.5 14t-32.5 3.5h-222v116h222zM267 690v-690h-201v690h201z
M-10 447v100h441v-100h-441z" />
    <glyph glyph-name="uni048E" unicode="&#x48e;" horiz-adv-x="657" 
d="M344 700q110 0 172 -20.5t88 -71.5t26 -143q0 -91 -24.5 -141.5t-80.5 -71t-151 -20.5q-50 0 -100 5.5t-93.5 14t-74.5 18t-43 17.5l3 88h135h138q38 0 58 7.5t28 27t8 55.5q0 37 -8 57t-28 27.5t-58 7.5q-102 0 -174 -1t-98 -4l-15 138q46 5 86.5 7t88.5 2.5t117 0.5z
M269 690v-690h-217v690h217zM314 439l53 53l267 -266l-53 -53z" />
    <glyph glyph-name="uni048F" unicode="&#x48f;" horiz-adv-x="620" 
d="M285 197l61 43l217 -308l-61 -43zM412 512q98 0 139 -70t41 -198q0 -103 -21.5 -159t-63.5 -77.5t-104 -21.5q-57 0 -106.5 17t-79.5 59l14 72q20 -7 38.5 -14t49.5 -7q28 0 44.5 8t24.5 35.5t8 85.5q0 54 -7.5 79.5t-24 32.5t-42.5 7t-41 -5.5t-31 -13.5l-29 79
q13 25 41.5 45.5t67.5 33t82 12.5zM211 500l20 -79l22 -16v-331l-6 -12q3 -32 5 -70t1 -73v-99h-210v680h168z" />
    <glyph glyph-name="uni0490" unicode="&#x490;" horiz-adv-x="555" 
d="M215 694q57 0 118 -0.5t118 -3.5t100 -10l-10 -152h-228q-19 0 -30.5 -10t-11.5 -26v-492h-217v537q0 70 45.5 113.5t115.5 43.5zM551 843v-163l-164 -35l20 198h144z" />
    <glyph glyph-name="uni0491" unicode="&#x491;" horiz-adv-x="493" 
d="M189 508q50 0 103.5 -0.5t104.5 -4t91 -12.5l-10 -146h-193q-19 0 -26.5 -6.5t-7.5 -23.5v-315h-208v376q0 69 35.5 100.5t110.5 31.5zM488 642v-151l-158 -35l21 186h137z" />
    <glyph glyph-name="uni0492" unicode="&#x492;" horiz-adv-x="589" 
d="M-23 244v120h529v-120h-529zM250 694q85 0 175 -1.5t160 -12.5l-10 -152h-227q-19 0 -30.5 -10t-11.5 -26v-492h-217v537q0 70 45.5 113.5t115.5 43.5z" />
    <glyph glyph-name="uni0493" unicode="&#x493;" horiz-adv-x="502" 
d="M389 251v-99h-389v99h389zM218 508q70 0 146 -2t133 -15l-10 -146h-173q-19 0 -26.5 -6.5t-7.5 -23.5v-315h-208v376q0 69 35.5 100.5t110.5 31.5z" />
    <glyph glyph-name="uni0494" unicode="&#x494;" horiz-adv-x="633" 
d="M314 -180l-20 150q34 15 54 32.5t29.5 39.5t12.5 51t3 69q0 34 -3 56t-10 35t-18.5 18.5t-28.5 5.5q-10 0 -28 -2t-39.5 -8.5t-44.5 -19.5l-3 131q37 31 92.5 48.5t103.5 17.5q51 0 88.5 -16t61.5 -50t35.5 -86.5t11.5 -125.5q0 -93 -24.5 -156.5t-66.5 -103t-95 -59.5
t-111 -27zM211 694q86 0 177 -1.5t163 -12.5l-10 -152h-232q-19 0 -30.5 -10t-11.5 -26v-492h-217v537q0 70 45.5 113.5t115.5 43.5z" />
    <glyph glyph-name="uni0495" unicode="&#x495;" horiz-adv-x="577" 
d="M189 508q49 0 102 -0.5t102.5 -4t89.5 -12.5l-10 -136h-188q-19 0 -26.5 -6.5t-7.5 -23.5v-325h-208v376q0 69 35.5 100.5t110.5 31.5zM294 -210l-20 140q34 14 51 32.5t23 43.5t6 56q0 25 -4 41.5t-15 25t-33 8.5q-13 0 -35 -5t-46 -25l-3 131q32 24 76.5 37.5
t90.5 13.5q47 0 81.5 -14t56.5 -41t33 -65.5t11 -88.5q0 -75 -22.5 -128t-61 -87t-87.5 -52t-102 -23z" />
    <glyph glyph-name="uni0496" unicode="&#x496;" horiz-adv-x="987" 
d="M992 142v-142h-248v142h248zM992 7v-158h-157l-16 158h173zM941 690q-23 -80 -38 -134.5t-28 -89.5t-29.5 -55.5t-43 -31t-67.5 -16.5v-6q43 -7 70.5 -17t46.5 -31t34.5 -59t32.5 -98.5t42 -151.5h-227q-29 99 -45.5 157t-28 86t-24.5 36.5t-34 8.5l-2 140q21 0 34 10.5
t24 38.5t25.5 79.5t37.5 133.5h220zM247 690q23 -82 37 -133.5t25 -79.5t24 -38.5t33 -10.5l-1 -140q-20 0 -32.5 -8.5t-24 -36.5t-28.5 -86t-46 -157h-227q25 91 42 151.5t32.5 98.5t34.5 59t46.5 31t70.5 17v6q-41 6 -67.5 16.5t-43 31t-29.5 55.5t-28 89.5t-38 134.5h220
zM428 428v-140h-91v140h91zM587 690v-174q0 -38 -7 -78.5t-23 -75.5q12 -32 21 -69.5t9 -67.5v-225h-207v225q0 30 10 67.5t22 69.5q-16 35 -23.5 75.5t-7.5 78.5v174h206zM631 428v-140h-90v140h90z" />
    <glyph glyph-name="uni0497" unicode="&#x497;" horiz-adv-x="886" 
d="M889 136v-136h-235v136h235zM889 5v-141h-139l-15 141h154zM833 500q-21 -67 -34 -109t-23.5 -66t-24.5 -35.5t-36.5 -16t-58.5 -9.5v-6q37 -6 61 -10.5t40 -16.5t28.5 -37.5t27.5 -72t37 -121.5h-212q-25 79 -39 119.5t-22.5 56t-17.5 17t-24 1.5l-3 130q16 0 25.5 3
t18 19t20 52t31.5 102h206zM229 500q20 -66 32 -102t20 -52t17.5 -19t24.5 -3l-2 -130q-14 0 -22.5 -1.5t-17 -17t-22.5 -56t-40 -119.5h-212q22 75 37 121.5t27.5 72t28.5 37.5t40 16.5t61 10.5v6q-36 5 -58.5 9.5t-36.5 16t-25 35.5t-24 66t-34 109h206zM375 324v-130h-79
v130h79zM520 500v-111q0 -31 -7.5 -65t-21.5 -61q11 -25 20 -55.5t9 -53.5v-154h-184v154q0 23 9.5 53.5t19.5 55.5q-14 27 -21 61t-7 65v111h183zM560 324v-130h-79v130h79z" />
    <glyph glyph-name="uni0498" unicode="&#x498;" horiz-adv-x="586" 
d="M283 698q93 0 148 -15.5t79 -54.5t24 -110q0 -74 -27.5 -112.5t-92.5 -44.5v-6q79 -7 110.5 -53.5t31.5 -129.5q0 -71 -25.5 -110t-78.5 -54.5t-137 -15.5q-65 0 -115.5 3.5t-93.5 12t-86 22.5l16 141q75 -12 132.5 -17.5t103.5 -5.5q25 0 38.5 6t18.5 20.5t5 41.5
q0 29 -5 44t-18.5 21t-39.5 6l-152 3v135l150 3q21 1 32 5.5t15 17.5t4 36q0 22 -4 34t-15.5 16.5t-32.5 4.5q-55 0 -105.5 -3.5t-115.5 -11.5l-16 148q55 13 112.5 18t139.5 5zM225 -33q63 7 102.5 7t57.5 -16t16 -56q-2 -57 -34.5 -92.5t-84.5 -49t-115 -5.5l22 78
q33 0 58.5 8t28.5 43q2 11 -10.5 11h-59.5z" />
    <glyph glyph-name="uni0499" unicode="&#x499;" horiz-adv-x="535" 
d="M352 5l-12 -167h-141l-13 167h166zM227 514q94 0 152.5 -9t86 -38.5t27.5 -90.5q0 -59 -26 -85t-84 -31v-5q70 -4 100 -36.5t30 -93.5q0 -63 -28.5 -92.5t-83.5 -38t-135 -8.5q-62 0 -122 4.5t-125 19.5l13 134q65 -7 121 -9.5t98 -2.5q29 0 38.5 4.5t9.5 27.5
q0 12 -3.5 17t-14 6.5t-31.5 2.5l-168 4v117l167 4q16 1 24.5 2.5t11.5 6.5t3 15q0 13 -3.5 18t-13.5 6.5t-30 1.5q-52 0 -103 -3.5t-96 -8.5l-13 134q55 17 109.5 22t88.5 5z" />
    <glyph glyph-name="uni049A" unicode="&#x49a;" horiz-adv-x="682" 
d="M696 142v-142h-248v142h248zM696 7v-158h-157l-16 158h173zM652 690q-24 -80 -39.5 -134.5t-29.5 -89.5t-31.5 -55.5t-44.5 -31t-70 -16.5v-6q44 -7 72.5 -17t48.5 -31t36 -59t34 -98.5t44 -151.5h-226q-27 99 -43 157t-30.5 86t-34.5 36.5t-53 8.5l-3 140
q34 0 54.5 10.5t34.5 38.5t27.5 79.5t33.5 133.5h220zM270 690v-174q0 -38 -7.5 -78.5t-23.5 -75.5q12 -32 21.5 -69.5t9.5 -67.5v-225h-217v690h217zM334 428v-140h-116v140h116z" />
    <glyph glyph-name="uni049B" unicode="&#x49b;" horiz-adv-x="619" 
d="M622 136v-136h-235v136h235zM622 5v-141h-139l-15 141h154zM570 500q-20 -68 -32 -110.5t-22 -66t-23 -34.5t-34.5 -16t-57.5 -10v-6q36 -6 59 -10t38 -15.5t27.5 -36.5t26.5 -72t35 -123h-218q-17 64 -27.5 102t-17.5 57.5t-15 25.5t-19 6h-29l-4 134q24 0 37.5 3t22 18
t17.5 51t24 103h212zM255 500v-109q0 -31 -7.5 -66t-22.5 -63q12 -25 21 -56t9 -54v-152h-209v500h209zM303 325v-134h-97v134h97z" />
    <glyph glyph-name="uni049C" unicode="&#x49c;" horiz-adv-x="701" 
d="M483 0q-27 99 -43 157t-30.5 86t-34.5 36.5t-53 8.5l-3 140q34 0 54.5 10.5t34.5 38.5t27.5 79.5t33.5 133.5h220q-24 -80 -39.5 -134.5t-29.5 -89.5t-31.5 -55.5t-44.5 -31t-70 -16.5v-6q44 -7 72.5 -17t48.5 -31t36 -59t34 -98.5t44 -151.5h-226zM53 0v690h204v-174
q0 -38 -7.5 -78.5t-23.5 -75.5q12 -32 21.5 -69.5t9.5 -67.5v-225h-204zM195 288v140h136v-140h-136zM296 166v387h80v-387h-80z" />
    <glyph glyph-name="uni049D" unicode="&#x49d;" horiz-adv-x="629" 
d="M605 500q-20 -68 -32 -110.5t-22 -66t-23 -34.5t-34.5 -16t-57.5 -10v-6q36 -6 59 -10t38 -15.5t27.5 -36.5t26.5 -72t35 -123h-218q-17 64 -27.5 102t-19 57.5t-18 25.5t-24.5 6h-39l-4 134q32 0 49.5 3t27.5 18t19.5 51t24.5 103h212zM255 500v-109q0 -31 -7.5 -66
t-22.5 -63q12 -25 21 -56t9 -54v-152h-209v500h209zM338 325v-134h-132v134h132zM278 87v337h60v-337h-60z" />
    <glyph glyph-name="uni049E" unicode="&#x49e;" horiz-adv-x="701" 
d="M-20 506v120h418v-120h-418zM689 690q-24 -80 -39.5 -134.5t-29.5 -89.5t-31.5 -55.5t-44.5 -31t-70 -16.5v-6q44 -7 72.5 -17t48.5 -31t36 -59t34 -98.5t44 -151.5h-226q-27 99 -43 157t-30.5 86t-34.5 36.5t-53 8.5l-3 140q34 0 54.5 10.5t34.5 38.5t27.5 79.5
t33.5 133.5h220zM307 690v-174q0 -38 -7.5 -78.5t-23.5 -75.5q12 -32 21.5 -69.5t9.5 -67.5v-225h-217v690h217zM371 428v-140h-116v140h116z" />
    <glyph glyph-name="uni049F" unicode="&#x49f;" horiz-adv-x="594" 
d="M570 500q-20 -68 -32 -110.5t-22 -66t-23 -34.5t-34.5 -16t-57.5 -10v-6q36 -6 59 -10t38 -15.5t27.5 -36.5t26.5 -72t35 -123h-218q-17 64 -27.5 102t-17.5 57.5t-15 25.5t-19 6h-29l-4 134q24 0 37.5 3t22 18t17.5 51t24 103h212zM255 690v-299q0 -31 -7.5 -66
t-22.5 -63q12 -25 21 -56t9 -54v-152h-209v690h209zM303 325v-134h-97v134h97zM413 632v-100h-423v100h423z" />
    <glyph glyph-name="uni04A0" unicode="&#x4a0;" horiz-adv-x="795" 
d="M400 690v-162h-410v162h410zM783 690q-24 -80 -39.5 -134.5t-29.5 -89.5t-31.5 -55.5t-44.5 -31t-70 -16.5v-6q44 -7 72.5 -17t48.5 -31t36 -59t34 -98.5t44 -151.5h-226q-27 99 -43 157t-30.5 86t-34.5 36.5t-53 8.5l-3 140q34 0 54.5 10.5t34.5 38.5t27.5 79.5
t33.5 133.5h220zM401 690v-174q0 -38 -7.5 -78.5t-23.5 -75.5q12 -32 21.5 -69.5t9.5 -67.5v-225h-217v690h217zM465 428v-140h-116v140h116z" />
    <glyph glyph-name="uni04A1" unicode="&#x4a1;" horiz-adv-x="700" 
d="M676 500q-20 -68 -32 -110.5t-22 -66t-23 -34.5t-34.5 -16t-57.5 -10v-6q36 -6 59 -10t38 -15.5t27.5 -36.5t26.5 -72t35 -123h-218q-17 64 -27.5 102t-17.5 57.5t-15 25.5t-19 6h-29l-4 134q24 0 37.5 3t22 18t17.5 51t24 103h212zM361 500v-109q0 -31 -7.5 -66
t-22.5 -63q12 -25 21 -56t9 -54v-152h-209v500h209zM409 325v-134h-97v134h97zM-10 500h272v-150h-272v150z" />
    <glyph glyph-name="uni04A2" unicode="&#x4a2;" horiz-adv-x="733" 
d="M738 142v-142h-293v142h293zM738 7v-158h-157l-16 158h173zM270 690v-690h-217v690h217zM455 442v-152h-193v152h193zM661 690v-690h-217v690h217z" />
    <glyph glyph-name="uni04A3" unicode="&#x4a3;" horiz-adv-x="662" 
d="M662 136v-136h-215v136h215zM662 5v-141h-139l-15 141h154zM253 500v-500h-207v500h207zM385 330v-135h-139v135h139zM582 500v-500h-206v500h206z" />
    <glyph glyph-name="uni04A4" unicode="&#x4a4;" horiz-adv-x="884" 
d="M424 0v537q0 70 45.5 113.5t115.5 43.5q75 0 154 -1.5t141 -12.5l-10 -152h-187q-19 0 -30.5 -10t-11.5 -26v-492h-217zM53 0v690h217v-690h-217zM262 290v152h193v-152h-193z" />
    <glyph glyph-name="uni04A5" unicode="&#x4a5;" horiz-adv-x="757" 
d="M253 500v-500h-207v500h207zM375 330v-135h-129v135h129zM511 508q62 0 126.5 -2t114.5 -15l-10 -146h-135q-19 0 -26.5 -6.5t-7.5 -23.5v-315h-208v376q0 69 35.5 100.5t110.5 31.5z" />
    <glyph glyph-name="uni04A6" unicode="&#x4a6;" horiz-adv-x="1023" 
d="M704 -180l-20 150q34 15 54 32.5t29.5 39.5t12.5 51t3 69q0 37 -3 61t-10 38t-18.5 20t-28.5 6q-10 0 -28 -2t-39.5 -8.5t-44.5 -19.5l-3 131q37 31 92.5 48.5t103.5 17.5q51 0 88.5 -16.5t61.5 -51.5t35.5 -89.5t11.5 -130.5q0 -93 -24.5 -156.5t-66.5 -103t-95 -59.5
t-111 -27zM53 0v690h217v-690h-217zM439 0v690h217v-690h-217zM262 548v142h189v-142h-189z" />
    <glyph glyph-name="uni04A7" unicode="&#x4a7;" horiz-adv-x="921" 
d="M634 -180l-20 135q38 21 55.5 46t22.5 61t5 90q0 36 -4.5 57.5t-15 31.5t-29.5 10q-15 0 -37.5 -4t-50.5 -20v121q29 28 72.5 44t86.5 16q65 0 105 -29t58.5 -85t18.5 -138q0 -90 -22 -152t-59.5 -100t-85.5 -58t-100 -26zM575 501v-501h-204v501h204zM250 501v-501h-204
v501h204zM381 501l-1 -136h-137v136h138z" />
    <glyph glyph-name="uni04A8" unicode="&#x4a8;" horiz-adv-x="977" 
d="M374 548q-37 0 -62.5 -18t-38.5 -59t-13 -111q0 -73 19 -121.5t57 -72t95 -23.5q58 0 106.5 20.5t84 60.5t55 99t19.5 135q0 30 -4 49t-13.5 27.5t-27.5 8.5q-19 0 -29.5 -10t-14 -31t-3.5 -54q0 -86 18 -146.5t49 -98.5t71.5 -56t84.5 -18q32 0 58.5 1t57.5 3l19 -124
q-22 -11 -60.5 -16t-79.5 -5q-90 0 -167.5 31.5t-135 90t-90 140.5t-32.5 184q0 97 27.5 155.5t80 84.5t126.5 26q85 0 145.5 -24t93.5 -77.5t33 -140.5q0 -89 -33.5 -173t-99 -151t-163 -106.5t-225.5 -39.5q-114 0 -192 40.5t-118 122t-40 205.5q0 127 41 202.5t118 108.5
t183 33v-152z" />
    <glyph glyph-name="uni04A9" unicode="&#x4a9;" horiz-adv-x="792" 
d="M291 386q-28 0 -46.5 -31t-18.5 -92q0 -72 30.5 -106.5t94.5 -34.5q52 0 91 9.5t65.5 32.5t40 63t13.5 101q0 22 -6 38.5t-22 16.5t-23.5 -16t-7.5 -39q0 -59 11.5 -101t34 -68t54.5 -38t73 -12q32 0 60.5 2.5t45.5 6.5l21 -93q-23 -20 -58 -27t-74 -7q-73 0 -136 24.5
t-110.5 70.5t-73.5 110t-26 143q0 63 25 102t67.5 57t96.5 18q103 0 165 -44t62 -133q0 -60 -28.5 -121.5t-83 -113t-134.5 -82.5t-183 -31q-148 0 -216.5 68t-68.5 204q0 92 31.5 147t90.5 80t143 25v-129z" />
    <glyph glyph-name="uni04AA" unicode="&#x4aa;" horiz-adv-x="605" 
d="M345 702q54 0 92 -3t69.5 -8.5t65.5 -15.5l-16 -158q-35 1 -65 1t-64 0.5t-82 0.5q-34 0 -52.5 -14.5t-25.5 -52t-7 -107.5t7 -107.5t25.5 -52t52.5 -14.5q75 0 125.5 1.5t100.5 6.5l16 -158q-52 -18 -106.5 -25.5t-135.5 -7.5q-114 0 -183 34.5t-99.5 112.5t-30.5 210
t30.5 210t99.5 112.5t183 34.5zM436 7l-8 -158h-157l-8 158h173z" />
    <glyph glyph-name="uni04AB" unicode="&#x4ab;" horiz-adv-x="528" 
d="M367 5l-12 -167h-141l-13 167h166zM294 514q31 0 68 -3t74 -11t67 -23l-21 -130h-84h-68t-50.5 -8t-26 -28.5t-7.5 -59.5t7.5 -60t26 -29t50.5 -8q17 0 42.5 0.5t56.5 2t62 4.5l19 -131q-44 -23 -102 -32.5t-116 -9.5q-98 0 -156.5 25.5t-84 83.5t-25.5 154
q0 97 26 154.5t85 83t157 25.5z" />
    <glyph glyph-name="uni04AC" unicode="&#x4ac;" horiz-adv-x="623" 
d="M497 142v-142h-293v142h293zM340 -151l-16 158h173v-158h-157zM420 690v-690h-217v690h217zM613 690v-162h-603v162h603z" />
    <glyph glyph-name="uni04AD" unicode="&#x4ad;" horiz-adv-x="553" 
d="M382 500v-500h-211v500h211zM548 500v-141h-543v141h543zM462 136v-136h-205v136h205zM462 5v-141h-139l-15 141h154z" />
    <glyph glyph-name="Ustraitcy" unicode="&#x4ae;" horiz-adv-x="654" 
d="M664 690l-233 -485h-208l-233 485h223l87 -217q9 -22 13 -48t8 -49h13q4 23 8.5 49.5t12.5 48.5l86 216h223zM436 328v-328h-217v328h217z" />
    <glyph glyph-name="ustraitcy" unicode="&#x4af;" horiz-adv-x="663" 
d="M666 500l-233 -480h-203l-233 480h223l85 -212q9 -22 13 -48t8 -49h12q5 23 8.5 49.5t12.5 48.5l84 211h223zM438 143v-323h-212v323h212z" />
    <glyph glyph-name="Ustraitstrokecy" unicode="&#x4b0;" horiz-adv-x="609" 
d="M567 302v-119h-483v119h483zM664 690l-233 -485h-208l-233 485h223l87 -217q9 -22 13 -48t8 -49h13q4 23 8.5 49.5t12.5 48.5l86 216h223zM436 328v-328h-217v328h217z" />
    <glyph glyph-name="ustraitstrokecy" unicode="&#x4b1;" horiz-adv-x="663" 
d="M666 500l-233 -480h-203l-233 480h223l85 -212q9 -22 13 -48t8 -49h12q5 23 8.5 49.5t12.5 48.5l84 211h223zM438 143v-323h-212v323h212zM572 111v-100h-480v100h480z" />
    <glyph glyph-name="uni04B2" unicode="&#x4b2;" horiz-adv-x="755" 
d="M668 690l-157 -338l171 -352h-215l-156 352l143 338h214zM223 690l143 -338l-156 -352h-215l171 352l-157 338h214zM434 414v-120h-208v120h208zM759 142v-142h-293v142h293zM759 7v-158h-157l-16 158h173z" />
    <glyph glyph-name="uni04B3" unicode="&#x4b3;" horiz-adv-x="606" 
d="M609 136v-136h-185v136h185zM609 5v-141h-139l-15 141h154zM598 500l-134 -245l145 -255h-208l-133 255l123 245h207zM215 500l123 -245l-133 -255h-208l145 255l-134 245h207zM407 316v-118h-206v118h206z" />
    <glyph glyph-name="uni04B4" unicode="&#x4b4;" horiz-adv-x="853" 
d="M564 0v690h217v-690h-217zM168 0v690h217v-690h-217zM377 0v142h480v-142h-480zM700 -151l-16 158h173v-158h-157zM10 528v162h502v-162h-502z" />
    <glyph glyph-name="uni04B5" unicode="&#x4b5;" horiz-adv-x="787" 
d="M498 0v500h211v-500h-211zM133 0v500h211v-500h-211zM339 0v142h448v-142h-448zM648 -136l-15 141h154v-141h-139zM5 359v141h440v-141h-440z" />
    <glyph glyph-name="uni04B6" unicode="&#x4b6;" horiz-adv-x="704" 
d="M230 216q-101 0 -148 43.5t-47 136.5v294h217v-247q0 -25 11 -37.5t48 -12.5q15 0 32.5 1t39 5t49.5 13l23 -131q-35 -20 -76 -35t-79.5 -22.5t-69.5 -7.5zM537 -151v158h172l-15 -158h-157zM475 0v142h234v-142h-234zM416 0v690h217v-690h-217z" />
    <glyph glyph-name="uni04B7" unicode="&#x4b7;" horiz-adv-x="646" 
d="M240 500v-179q0 -15 7.5 -22.5t25.5 -7.5q20 0 40 4t46 15l22 -129q-40 -19 -86 -29.5t-94 -10.5q-88 0 -129 29t-41 90v240h209zM554 500l-1 -500h-208v500h209zM633 136v-136h-232v136h232zM633 5v-141h-139l-15 141h154z" />
    <glyph glyph-name="uni04B8" unicode="&#x4b8;" horiz-adv-x="690" 
d="M231 216q-101 0 -148.5 43.5t-47.5 136.5v294h211v-247q0 -27 12.5 -38.5t49.5 -11.5q18 0 38 1t44.5 5t55.5 13l23 -131q-38 -20 -81 -35t-84 -22.5t-73 -7.5zM300 120v408h80v-408h-80zM430 0v690h207v-690h-207z" />
    </font>
</defs>
</svg>
