<?xml version="1.0" standalone="no"?>
<!DOCTYPE svg PUBLIC "-//W3C//DTD SVG 1.1//EN" "http://www.w3.org/Graphics/SVG/1.1/DTD/svg11.dtd" >
<svg xmlns="http://www.w3.org/2000/svg" xmlns:xlink="http://www.w3.org/1999/xlink" version="1.1">
<metadata>
Created by FontForge 20170731 at Tue Aug 10 21:38:44 2021
 By Aleksey,,,
Copyright 2013 The Exo 2 Project Authors (https://github.com/NDISCOVER/Exo-2.0)
</metadata>
<defs>
<font id="Exo2-ExtraLight" horiz-adv-x="664" >
  <font-face 
    font-family="Exo 2 ExtraLight"
    font-weight="250"
    font-stretch="normal"
    units-per-em="1000"
    panose-1="0 0 0 0 0 0 0 0 0 0"
    ascent="800"
    descent="-200"
    x-height="482"
    cap-height="690"
    bbox="-383 -263 1189 1012.33"
    underline-thickness="50"
    underline-position="-150"
    unicode-range="U+000D-FB02"
  />
<missing-glyph horiz-adv-x="648" 
d="M150 690v-690h-41v690h41zM539 690v-690h-41v690h41zM109 690h430v-41h-430v41zM109 41h430v-41h-430v41z" />
    <glyph glyph-name="fi" unicode="fi" horiz-adv-x="563" 
d="M250 715q19 0 49.5 -1t52.5 -4v-30h-88q-57 0 -80.5 -23.5t-23.5 -82.5v-574h-40v577q0 45 12.5 75.5t41 46.5t76.5 16zM443 482v-35h-410v30l93 5h317zM469 482v-482h-39v482h39zM458 683q16 0 16 -16v-60q0 -16 -16 -16h-18q-15 0 -15 16v60q0 16 15 16h18z" />
    <glyph glyph-name="fl" unicode="fl" horiz-adv-x="629" 
d="M250 715q10 0 32.5 -0.5t51.5 -1l58 -1t53.5 -2t37.5 -3.5v-604q0 -37 20 -56.5t56 -19.5h55l5 -26q-7 -2 -20 -4t-27 -3t-24 -1q-48 0 -76.5 27t-28.5 78v583h-180q-57 1 -80 -23t-23 -84v-574h-40v577q0 45 12.5 75.5t41 46.5t76.5 16zM323 482v-35h-290v30l93 5h197z
" />
    <glyph glyph-name="f_f" unicode="ff" horiz-adv-x="672" 
d="M250 697q14 0 35.5 -0.5t44 -1.5t39.5 -3l-2 -30h-103q-57 0 -80.5 -22.5t-23.5 -80.5v-559h-40v561q0 45 13 75t41.5 45.5t75.5 15.5zM561 715q14 0 36.5 -0.5t45.5 -1.5t40 -3l-1 -30h-108q-57 0 -80 -23t-23 -80v-577h-40v579q0 45 12.5 75t41 45.5t76.5 15.5z
M643 482v-34h-610v29l93 5h517z" />
    <glyph glyph-name="f_f_i" unicode="ffi" horiz-adv-x="872" 
d="M248 697q14 0 35.5 -0.5t44 -1.5t39.5 -3l-2 -30h-103q-57 0 -80.5 -22.5t-23.5 -80.5v-559h-39v561q0 45 12.5 75t41.5 45.5t75 15.5zM752 482v-35l-719 1v29l93 5h626zM559 715q21 0 57 -1t61 -4v-30h-105q-56 0 -79.5 -23.5t-23.5 -82.5v-574h-40v577q0 45 12.5 75.5
t41 46.5t76.5 16zM778 482v-482h-39v482h39zM767 683q15 0 15 -16v-60q0 -16 -15 -16h-18q-15 0 -15 16v60q0 16 15 16h18z" />
    <glyph glyph-name="f_f_l" unicode="ffl" horiz-adv-x="940" 
d="M250 697q14 0 35.5 -0.5t44 -1.5t39.5 -3l-2 -30h-103q-57 0 -80.5 -22.5t-23.5 -80.5v-559h-40v561q0 45 13 75t41.5 45.5t75.5 15.5zM561 715q10 0 32.5 -0.5t51.5 -1l58 -1t53.5 -2t37.5 -3.5v-604q0 -37 19.5 -56.5t56.5 -19.5h55l5 -26q-7 -2 -20 -4t-27 -3t-24 -1
q-48 0 -76.5 27t-28.5 78v583h-180q-57 1 -80 -23t-23 -84v-574h-40v577q0 45 12.5 75.5t41 46.5t76.5 16zM641 482v-34h-608v29l93 5h515z" />
    <glyph glyph-name=".notdef" horiz-adv-x="648" 
d="M150 690v-690h-41v690h41zM539 690v-690h-41v690h41zM109 690h430v-41h-430v41zM109 41h430v-41h-430v41z" />
    <glyph glyph-name=".null" horiz-adv-x="0" 
 />
    <glyph glyph-name="nonmarkingreturn" horiz-adv-x="333" 
 />
    <glyph glyph-name="CR" unicode="&#xd;" horiz-adv-x="228" 
 />
    <glyph glyph-name="space" unicode=" " horiz-adv-x="228" 
 />
    <glyph glyph-name="exclam" unicode="!" horiz-adv-x="258" 
d="M149 695v-332l-3 -158h-33l-4 158v332h40zM136 94q9 0 13 -4t4 -13v-60q0 -9 -4 -13t-13 -4h-13q-9 0 -13 4t-4 13v60q0 9 4 13t13 4h13z" />
    <glyph glyph-name="quotedbl" unicode="&#x22;" horiz-adv-x="334" 
d="M250 690l-2 -210h-30l-3 210h35zM119 690l-3 -210h-30l-3 210h36z" />
    <glyph glyph-name="numbersign" unicode="#" horiz-adv-x="672" 
d="M289 690l-120 -690h-36l120 690h36zM540 690l-120 -690h-36l120 690h36zM616 495l-6 -31h-512l6 31h512zM574 255l-6 -31h-512l6 31h512z" />
    <glyph glyph-name="dollar" unicode="$" horiz-adv-x="560" 
d="M278 701q48 -1 96.5 -4t95.5 -10l-4 -30q-45 2 -92.5 4.5t-94.5 2.5q-45 0 -77.5 -3t-53.5 -16t-31 -41.5t-10 -81.5q0 -71 24 -102t80 -40l149 -25q77 -11 108.5 -53.5t31.5 -130.5q0 -61 -14 -97.5t-41 -54.5t-67 -24t-94 -6q-39 0 -90 2t-117 11l4 31q44 -2 76.5 -3.5
t62.5 -2t65 -0.5q64 1 101.5 10.5t54.5 40.5t17 93q0 51 -10.5 80.5t-34 45t-62.5 20.5l-150 25q-74 11 -104.5 54.5t-30.5 126.5q0 61 13 97.5t39 54t66.5 22.5t93.5 4zM270 350l27 -3l-28 -480h-28zM325 803l-26 -456l-28 3l27 453h27z" />
    <glyph glyph-name="percent" unicode="%" horiz-adv-x="886" 
d="M210 702q57 0 90.5 -21.5t48 -66.5t14.5 -116t-14.5 -116t-48 -66.5t-90.5 -21.5t-90.5 21.5t-48 66.5t-14.5 116t14.5 116t48 66.5t90.5 21.5zM210 674q-45 0 -70.5 -18t-37 -57t-11.5 -101t11.5 -101t37 -57t70.5 -18t71 18t37 57t11 101t-11 101t-37 57t-71 18z
M694 690l-472 -690h-33l472 690h33zM676 401q57 0 90.5 -22t47.5 -66.5t14 -115.5t-14 -116t-47.5 -67t-90.5 -22t-90.5 22t-48 67t-14.5 116t14.5 115.5t48 66.5t90.5 22zM675 373q-45 0 -70.5 -18t-36.5 -57t-11 -101t11 -101t36.5 -57.5t70.5 -18.5q46 0 72 18.5
t36.5 57.5t10.5 101t-10.5 101t-36.5 57t-72 18z" />
    <glyph glyph-name="ampersand" unicode="&#x26;" horiz-adv-x="780" 
d="M355 699q32 0 72.5 -1.5t86.5 -7.5l-6 -30q-8 1 -27 1.5t-43 1t-46.5 0.5h-38.5q-80 0 -127 -10t-67 -41t-20 -95q0 -57 16 -88t52 -43t97 -12h394l-3 -33h-392q-67 0 -107 -14t-58 -49.5t-18 -99.5q0 -58 15 -90.5t50.5 -46t94.5 -13.5q90 0 147.5 28t102.5 88l14 -26
q-35 -47 -73.5 -75t-85.5 -40t-109 -12q-71 0 -115 17t-64 57t-20 109q0 80 29.5 127.5t106.5 54.5v4q-64 5 -90 46.5t-26 114.5q0 60 15 95.5t47 53t80.5 23.5t115.5 6zM561 523v-418q0 -39 19.5 -57.5t56.5 -18.5h84l5 -28q-14 -2 -31.5 -4t-33.5 -3t-26 -1
q-56 0 -84.5 27t-28.5 78v265l7 160h32z" />
    <glyph glyph-name="quotesingle" unicode="'" horiz-adv-x="202" 
d="M119 690l-3 -210h-30l-3 210h36z" />
    <glyph glyph-name="parenleft" unicode="(" horiz-adv-x="356" 
d="M309 790l6 -24q-108 -55 -158.5 -165.5t-50.5 -287.5q0 -115 22 -203.5t68.5 -150t118.5 -100.5l-6 -24q-126 57 -185 172.5t-59 304.5q0 190 59 306t185 172z" />
    <glyph glyph-name="parenright" unicode=")" horiz-adv-x="356" 
d="M47 790q126 -56 185 -172t59 -306q0 -189 -59 -304.5t-185 -172.5l-5 24q72 39 118 100.5t68 150t22 203.5q0 177 -50.5 287.5t-157.5 165.5z" />
    <glyph glyph-name="asterisk" unicode="*" horiz-adv-x="452" 
d="M242 690l-6 -155l96 -129l-24 -17l-82 124l-82 -123l-25 17l96 128l-4 155h31zM78 594l121 -44l-1 -13l-6 -9l-125 37zM376 593l10 -29l-127 -36l-6 9v13z" />
    <glyph glyph-name="plus" unicode="+" horiz-adv-x="552" 
d="M487 314v-33h-422v33h422zM293 498l-1 -401h-32l-1 401h34z" />
    <glyph glyph-name="comma" unicode="," horiz-adv-x="213" 
d="M114 94q9 0 13 -4t4 -13v-64q0 -20 -3 -43.5t-8 -46.5t-12 -44l-19 7q3 30 4 53t1 61q-12 0 -11 15l1 62q-1 9 3.5 13t13.5 4h13z" />
    <glyph glyph-name="hyphen" unicode="-" horiz-adv-x="474" 
d="M392 268v-33h-310v33h310z" />
    <glyph glyph-name="period" unicode="." horiz-adv-x="212" 
d="M113 94q9 0 13 -4t4 -13v-60q0 -9 -4 -13t-13 -4h-14q-9 0 -13.5 4t-4.5 13v60q0 9 4.5 13t13.5 4h14z" />
    <glyph glyph-name="slash" unicode="/" horiz-adv-x="500" 
d="M465 690l-393 -751h-37l393 751h37z" />
    <glyph glyph-name="zero" unicode="0" horiz-adv-x="589" 
d="M294 702q83 0 131.5 -38t69 -117t20.5 -202q0 -122 -20.5 -201.5t-69 -117.5t-131.5 -38q-82 0 -130.5 38t-69 117.5t-20.5 201.5q0 123 20.5 202t69 117t130.5 38zM294 665q-50 0 -84.5 -18.5t-55.5 -58t-30 -99.5t-9 -144q0 -83 9 -143.5t30 -100t55.5 -58t84.5 -18.5
q51 0 85.5 18.5t55.5 58t30 100t9 143.5q0 84 -9 144t-30 99.5t-55.5 58t-85.5 18.5z" />
    <glyph glyph-name="one" unicode="1" horiz-adv-x="383" 
d="M260 690v-690h-41v600q0 12 1 24.5t2 24.5l-182 -60l-7 29l186 72h41z" />
    <glyph glyph-name="two" unicode="2" horiz-adv-x="558" 
d="M266 702q64 0 110 -10.5t70 -40.5t24 -90q0 -46 -14.5 -87t-44 -84.5t-76.5 -96.5l-223 -256q29 1 58.5 1h58.5h270v-38h-439v25q0 6 2 10.5t5 9.5l230 264q69 78 100.5 138t29.5 119q-2 45 -22 66t-55 27t-82 6q-31 0 -60 -1.5t-61 -6t-75 -13.5l-6 31q48 12 81.5 17.5
t61.5 7.5t57 2z" />
    <glyph glyph-name="three" unicode="3" horiz-adv-x="553" 
d="M250 702q77 0 122 -14.5t65.5 -49t20.5 -95.5q0 -42 -10 -78.5t-33 -61.5t-64 -34v-4q71 -11 98 -58.5t28 -114.5q1 -69 -18.5 -114.5t-66 -67.5t-125.5 -22q-52 0 -105 5t-103 12l6 32q30 -3 62 -6t65.5 -4.5t67.5 -1.5q63 0 101 16.5t56.5 54t18.5 98.5q0 41 -12.5 76
t-47 56.5t-103.5 21.5l-128 1v31l128 2q50 1 79 16t43.5 38t18.5 49.5t4 51.5q-1 52 -17.5 79t-53 38t-100.5 11q-47 0 -92 -3t-79 -8l-7 31q48 8 91.5 12.5t89.5 4.5z" />
    <glyph glyph-name="four" unicode="4" horiz-adv-x="600" 
d="M314 690l-218 -419q-10 -19 -0.5 -33t28.5 -14h424v-30l-96 -5h-345q-22 0 -37.5 13t-19.5 33t6 40l216 415h42zM464 559v-559h-40v443l9 116h31z" />
    <glyph glyph-name="five" unicode="5" horiz-adv-x="529" 
d="M444 690l-4 -36h-304l-11 -245l60 -1q73 -2 125.5 -11t86.5 -30.5t50.5 -60.5t16.5 -102q0 -40 -7 -79t-29 -70t-64.5 -49t-113.5 -18q-38 0 -87 6.5t-101 20.5l7 32q46 -10 93 -16.5t81 -6.5q77 0 115.5 22.5t51.5 63t14 94.5q0 59 -16 93t-51.5 50t-92 20.5t-136.5 6.5
h-23q-8 1 -13.5 6.5t-4.5 14.5l15 295h342z" />
    <glyph glyph-name="six" unicode="6" horiz-adv-x="566" 
d="M334 702q19 0 53 -1.5t71 -11.5l-8 -30q-20 4 -36 5t-35 1.5t-45 0.5q-61 0 -102.5 -13.5t-66 -50.5t-35.5 -108.5t-11 -187.5q0 -77 5.5 -131t23.5 -87t53 -48.5t95 -15.5q73 0 108.5 22t46.5 64.5t11 102.5q0 71 -13 114t-46.5 62.5t-95.5 19.5q-37 0 -69 -9t-64 -32
t-70 -65l-4 23q33 46 64 71t67 35.5t84 10.5q72 0 112.5 -22t57.5 -73t17 -138q0 -51 -7 -92.5t-28.5 -70t-63 -44t-108.5 -15.5q-70 0 -113 17t-65.5 54.5t-31 99t-8.5 150.5q0 128 14.5 206.5t45.5 118.5t79.5 54t117.5 14z" />
    <glyph glyph-name="seven" unicode="7" horiz-adv-x="507" 
d="M426 690q18 0 27 -5t10.5 -15t-3.5 -26l-223 -644h-41l212 613q4 11 8 21t7 20h-375l-2 36h380z" />
    <glyph glyph-name="eight" unicode="8" horiz-adv-x="610" 
d="M305 699q64 0 104.5 -11t64 -33t32.5 -56t9 -81q0 -48 -10 -82t-32 -53t-57 -23v-4q43 -4 67.5 -26t35 -61t10.5 -97q0 -64 -18 -104.5t-66.5 -58.5t-139.5 -18q-88 0 -137 18t-68 58.5t-19 104.5q0 58 11 97t35.5 61t66.5 26v4q-35 4 -57 23t-32 53t-10 82q0 47 9.5 81
t33 56t64.5 33t103 11zM307 341q-57 0 -93.5 -6.5t-56.5 -23.5t-28 -49.5t-8 -84.5q0 -54 15.5 -86.5t55.5 -47t114 -14.5q75 0 114.5 14.5t54 47t14.5 86.5q0 53 -8 85.5t-28 49.5t-55.5 23t-90.5 6zM306 663q-69 0 -106 -14t-51 -46t-14 -87q0 -60 14 -90t51.5 -40.5
t106.5 -10.5q71 0 107 11t49 41t13 89q0 55 -13.5 87t-50 46t-106.5 14z" />
    <glyph glyph-name="nine" unicode="9" horiz-adv-x="567" 
d="M272 702q73 0 116.5 -17.5t64 -57.5t27 -107t6.5 -166q0 -118 -14.5 -190.5t-45.5 -110.5t-79.5 -51.5t-117.5 -13.5q-20 0 -55 1.5t-76 11.5l8 30q22 -3 38 -4.5t35.5 -1.5h49.5q59 0 100.5 12t67 45.5t37 98.5t11.5 171q0 89 -4 149.5t-20 96.5t-51.5 52t-98.5 16
q-68 0 -104 -23.5t-49.5 -67t-13.5 -105.5q0 -59 13.5 -101.5t46.5 -65t93 -22.5q37 0 68.5 9t63.5 32t70 65l4 -23q-33 -45 -64 -70.5t-66.5 -36t-83.5 -10.5q-69 0 -109.5 26.5t-58 77t-17.5 121.5q0 73 18 124.5t63 78.5t127 27z" />
    <glyph glyph-name="colon" unicode=":" horiz-adv-x="214" 
d="M113 432q9 0 13 -4t4 -13v-60q0 -9 -4 -13t-13 -4h-14q-9 0 -13.5 4t-4.5 13v60q0 9 4.5 13t13.5 4h14zM113 94q9 0 13 -4t4 -13v-60q0 -9 -4 -13t-13 -4h-14q-9 0 -13.5 4t-4.5 13v60q0 9 4.5 13t13.5 4h14z" />
    <glyph glyph-name="semicolon" unicode=";" horiz-adv-x="215" 
d="M114 432q9 0 13 -4t4 -13v-60q0 -9 -4 -13t-13 -4h-14q-9 0 -13.5 4t-4.5 13v60q0 9 4.5 13t13.5 4h14zM115 94q9 0 13 -4t4 -13v-64q0 -20 -3 -43.5t-8 -46.5t-12 -44l-19 7q3 30 4 53t1 61q-12 0 -11 15l1 62q-1 9 3.5 13t13.5 4h13z" />
    <glyph glyph-name="less" unicode="&#x3c;" horiz-adv-x="538" 
d="M458 493v-33l-359 -164l359 -159v-34l-396 176v34z" />
    <glyph glyph-name="equal" unicode="=" horiz-adv-x="588" 
d="M505 413v-33h-422v33h422zM505 201v-33h-422v33h422z" />
    <glyph glyph-name="greater" unicode="&#x3e;" horiz-adv-x="538" 
d="M80 493l396 -180v-34l-396 -176v34l359 159l-359 164v33z" />
    <glyph glyph-name="question" unicode="?" horiz-adv-x="506" 
d="M255 712q97 0 147 -37.5t50 -117.5q0 -46 -18.5 -78.5t-46.5 -60.5t-56 -57t-47 -66t-20 -90h-36q0 57 18 97t45.5 70t54.5 56t45.5 55.5t19.5 69.5q0 63 -39 93.5t-122 30.5q-50 0 -81.5 -1.5t-57 -4t-59.5 -7.5l-5 29q25 4 45 7.5t41.5 6t50.5 4t71 1.5zM252 94
q9 0 13 -4t4 -13v-60q0 -9 -4 -13t-13 -4h-13q-9 0 -13 4t-4 13v60q0 9 4 13t13 4h13z" />
    <glyph glyph-name="at" unicode="@" horiz-adv-x="699" 
d="M482 572q63 0 99.5 -28.5t36.5 -95.5v-318h-29l-6 79q-20 -18 -55.5 -38t-79 -33.5t-88.5 -13.5q-39 0 -67.5 13t-43.5 37t-15 59v53q0 47 30 73t85 26h232v62q0 40 -21.5 65.5t-82.5 24.5h-135q-71 0 -113.5 -6.5t-64.5 -32.5t-29 -81t-7 -152q0 -79 4.5 -131t18 -82
t40 -44.5t69.5 -18.5t108 -4h245v-31q-61 -1 -122 -2.5t-122 -1.5q-76 -1 -126.5 5t-81 23.5t-46 52.5t-21 92t-5.5 142q0 81 4.5 136t18.5 89t41.5 51t73.5 23.5t114 7.5h141zM581 359l-225 -4q-41 -1 -62 -19t-21 -53v-46q0 -39 23 -58.5t67 -20.5q36 0 76 10.5t77.5 28.5
t64.5 41v121z" />
    <glyph glyph-name="A" unicode="A" horiz-adv-x="608" 
d="M332 690q7 0 11.5 -3t6.5 -10l241 -677h-43l-210 600l-10 28l-10 28h-28l-10 -28l-10 -28l-210 -600h-43l241 677q2 7 7 10t11 3h56zM478 279v-36h-350v36h350z" />
    <glyph glyph-name="B" unicode="B" horiz-adv-x="614" 
d="M301 698q82 0 131 -15.5t71 -54.5t22 -110q0 -74 -27.5 -113t-89.5 -45v-4q77 -7 107 -54t30 -130q0 -71 -21 -110t-68 -54.5t-125 -15.5q-54 0 -92.5 0.5t-70.5 2.5t-69 5l14 31q21 -1 79 -2t135 -1q66 0 104 12t55 44t17 92q0 65 -18 100.5t-58.5 49.5t-108.5 15h-206
v33h206q61 1 97.5 12.5t52 42t15.5 86.5q0 60 -17.5 91.5t-58 43.5t-107.5 12q-46 0 -83 -0.5t-63.5 -1t-40.5 -1.5l-14 31q32 4 60 5.5t61.5 2t80.5 0.5zM140 690v-690h-41v690h41z" />
    <glyph glyph-name="C" unicode="C" horiz-adv-x="563" 
d="M331 702q42 0 71.5 -2t54.5 -6t52 -10l-7 -30q-28 4 -52.5 6.5t-52.5 3.5t-66 1q-80 0 -127 -30.5t-68 -100.5t-21 -189t21 -189t68 -100.5t127 -30.5q61 0 103 3t82 10l7 -31q-41 -10 -84 -14.5t-108 -4.5q-95 0 -152 34.5t-82 112.5t-25 210t25 210t82 112.5t152 34.5z
" />
    <glyph glyph-name="D" unicode="D" horiz-adv-x="660" 
d="M332 699q71 0 119.5 -18.5t78.5 -60t44 -109t14 -166.5q0 -98 -14 -166t-44 -109.5t-78.5 -60t-119.5 -18.5q-67 0 -124.5 2.5t-108.5 6.5l19 31q47 -1 99 -2t115 -1q79 0 125.5 30t67 99.5t20.5 187.5t-20.5 187.5t-67 99.5t-125.5 30q-63 0 -115 -1t-101 -2l-17 31
q51 4 109 6.5t124 2.5zM140 690v-690h-41v690h41z" />
    <glyph glyph-name="E" unicode="E" horiz-adv-x="553" 
d="M203 690h98.5t98.5 -1t97 -3l-2 -31h-285q-34 0 -55 -21.5t-21 -56.5v-464q0 -35 21 -56.5t55 -21.5h285l2 -31q-48 -2 -97 -3t-98.5 -1h-98.5t-79.5 30t-30.5 76v478q0 47 30.5 76.5t79.5 29.5zM110 386l344 -1v-33l-344 -1v35z" />
    <glyph glyph-name="F" unicode="F" horiz-adv-x="532" 
d="M206 690h96.5t96 -1t94.5 -4l-3 -30h-274q-36 0 -57.5 -21.5t-21.5 -56.5v-577h-41v583q0 47 31 77t79 30zM113 380h337v-34h-337v34z" />
    <glyph glyph-name="G" unicode="G" horiz-adv-x="624" 
d="M338 702q43 0 76 -2t61.5 -5.5t57.5 -10.5l-7 -30q-31 4 -59.5 6.5t-59 3.5t-68.5 1q-62 0 -105 -16t-69 -52.5t-37.5 -98.5t-11.5 -154q0 -113 18.5 -183.5t60 -103t110.5 -32.5q47 0 83 14.5t66 36.5t56 45l7 -28q-24 -28 -57.5 -52t-73.5 -38.5t-88 -14.5
q-81 0 -130.5 37.5t-72.5 116.5t-23 204q0 133 25.5 211t84 111.5t156.5 33.5zM546 400v-400h-29l-9 100l-3 14v286h41z" />
    <glyph glyph-name="H" unicode="H" horiz-adv-x="660" 
d="M140 690v-690h-41v690h41zM531 388v-36h-399v36h399zM561 690v-690h-41v690h41z" />
    <glyph glyph-name="I" unicode="I" horiz-adv-x="239" 
d="M140 690v-690h-41v690h41z" />
    <glyph glyph-name="J" unicode="J" horiz-adv-x="328" 
d="M232 690v-567q0 -64 -31 -97.5t-94 -32.5q-10 0 -23 1t-26 3t-22 4l5 28h56q94 0 94 94v567h41z" />
    <glyph glyph-name="K" unicode="K" horiz-adv-x="569" 
d="M524 690l-223 -300q-7 -9 -13.5 -16.5t-13.5 -12.5v-2q7 -6 14 -13.5t14 -16.5l238 -329h-48l-262 360l247 330h47zM139 690v-231q0 -27 -1 -49t-4 -49q3 -27 4 -51.5t1 -49.5v-260h-40v690h40zM262 377v-34h-142v34h142z" />
    <glyph glyph-name="L" unicode="L" horiz-adv-x="509" 
d="M137 690v-577q0 -35 21.5 -56.5t56.5 -21.5h266l1 -30q-68 -4 -137 -4.5t-137 -0.5q-52 0 -82 31t-30 78v581h41z" />
    <glyph glyph-name="M" unicode="M" horiz-adv-x="860" 
d="M726 690q20 0 20 -21l30 -669h-41l-29 655h-23l-208 -576q-4 -14 -19 -14h-52q-15 0 -20 14l-207 576h-23l-29 -655h-41l29 669q1 21 21 21h57q15 0 19 -14l175 -484q9 -23 16.5 -46.5t16.5 -46.5h24q8 24 16.5 47.5t16.5 47.5l174 482q5 14 20 14h57z" />
    <glyph glyph-name="N" unicode="N" horiz-adv-x="692" 
d="M594 690v-670q0 -20 -20 -20h-54q-8 0 -13.5 3.5t-9.5 11.5l-298 564q-9 17 -19 36t-18 38h-23q1 -19 1 -38v-37v-578h-41v670q0 20 20 20h50q9 0 14.5 -3.5t9.5 -11.5l290 -551q11 -20 22.5 -42t22.5 -44h25v47.5v46.5v558h41z" />
    <glyph glyph-name="O" unicode="O" 
d="M332 702q72 0 122 -18.5t80 -60.5t43.5 -110t13.5 -168t-13.5 -168t-43.5 -110t-80 -60.5t-122 -18.5t-122 18.5t-80 60.5t-44 110t-14 168t14 168t44 110t80 60.5t122 18.5zM332 665q-81 0 -128 -30.5t-68 -100.5t-21 -189t21 -189t68 -100.5t128 -30.5q80 0 127.5 30.5
t68 100.5t20.5 189t-20.5 189t-68 100.5t-127.5 30.5z" />
    <glyph glyph-name="P" unicode="P" horiz-adv-x="583" 
d="M324 698q76 0 120.5 -18t64.5 -63t20 -125q0 -81 -19.5 -126t-64 -62.5t-119.5 -17.5q-40 0 -75.5 0.5t-64.5 2.5t-49 3t-28 3l3 27h104.5h107.5q60 1 95.5 15t51.5 51t16 104q0 68 -16 104.5t-51.5 51t-95.5 14.5q-78 0 -134.5 -1t-76.5 -3l-14 32q36 4 67 5.5t68.5 2
t89.5 0.5zM140 690v-690h-41v690h41z" />
    <glyph glyph-name="Q" unicode="Q" 
d="M332 702q72 0 122 -18.5t80 -60.5t43.5 -110t13.5 -168t-13.5 -168t-43.5 -110t-80 -60.5t-122 -18.5t-122 18.5t-80 60.5t-44 110t-14 168t14 168t44 110t80 60.5t122 18.5zM297 -49q50 -31 107 -50.5t128 -30.5l-13 -41q-69 10 -130 36t-107 62zM332 665
q-81 0 -128 -30.5t-67.5 -100.5t-20.5 -189t20.5 -189t67.5 -100.5t128 -30.5t128 30.5t67.5 100.5t20.5 189t-20.5 189t-67.5 100.5t-128 30.5z" />
    <glyph glyph-name="R" unicode="R" horiz-adv-x="610" 
d="M324 698q75 0 120 -16.5t65 -59t20 -119.5q0 -60 -13 -98.5t-41 -58t-73 -25.5v-5q18 -4 32.5 -18t26.5 -33.5t20 -44.5l73 -220h-45l-70 217q-16 48 -42.5 67.5t-65.5 19.5q-58 0 -103.5 1t-75.5 2t-43 2l3 32h212q60 1 95.5 15t51.5 48.5t16 97.5t-16 97.5t-51.5 48.5
t-95.5 14q-78 0 -134.5 -1t-76.5 -2l-14 31q36 4 67.5 5.5t68.5 2t89 0.5zM140 690v-690h-41v690h41z" />
    <glyph glyph-name="S" unicode="S" horiz-adv-x="556" 
d="M275 701q48 -1 96.5 -4t95.5 -10l-4 -30q-44 2 -91.5 4.5t-95.5 2.5q-45 0 -77.5 -3t-53.5 -16t-30.5 -41.5t-9.5 -81.5q0 -71 23.5 -102t79.5 -40l150 -25q77 -11 108 -53.5t31 -130.5q0 -61 -14 -97.5t-41 -54.5t-67 -24t-94 -6q-39 0 -90 2t-116 11l3 31
q44 -3 76.5 -4.5t62.5 -2t66 -0.5q63 1 100.5 11t54.5 41t17 93q0 51 -10.5 80.5t-34 45t-62.5 20.5l-150 25q-74 11 -104.5 54.5t-30.5 126.5q0 61 13 97.5t39 54t66.5 22.5t93.5 4z" />
    <glyph glyph-name="T" unicode="T" horiz-adv-x="568" 
d="M304 690v-690h-41v690h41zM542 690v-36h-516v36h516z" />
    <glyph glyph-name="U" unicode="U" horiz-adv-x="667" 
d="M573 690v-433q0 -97 -23.5 -156t-75.5 -86t-139 -27q-89 0 -141.5 27t-76 86t-23.5 156v433h41v-433q0 -85 19.5 -136t63 -73.5t116.5 -22.5q72 0 115.5 22.5t63 73.5t19.5 136v433h41z" />
    <glyph glyph-name="V" unicode="V" horiz-adv-x="596" 
d="M573 690l-229 -677q-2 -5 -7 -9t-12 -4h-54q-6 0 -11 4t-7 9l-229 677h43l194 -582q6 -19 12 -37t11 -37h28q6 19 11.5 37.5t12.5 37.5l193 581h44z" />
    <glyph glyph-name="W" unicode="W" horiz-adv-x="935" 
d="M902 690l-172 -676q-1 -6 -6.5 -10t-12.5 -4h-57q-7 0 -12 4t-7 11l-137 564q-5 20 -9.5 39.5t-9.5 38.5h-23q-5 -19 -9.5 -38.5t-9.5 -39.5l-137 -564q-1 -7 -6.5 -11t-12.5 -4h-57q-8 0 -13 4t-7 10l-172 676h44l146 -583q5 -18 9 -36.5t8 -36.5h27q5 18 9 36l8 36
l139 568q2 7 7 11.5t12 4.5h53q7 0 12 -4.5t7 -11.5l139 -567q5 -19 9 -37t7 -36h27q5 18 9 36l8 36l147 584h43z" />
    <glyph glyph-name="X" unicode="X" horiz-adv-x="598" 
d="M550 690l-200 -331l213 -359h-47l-211 359l198 331h47zM94 690l199 -331l-211 -359h-47l212 359l-199 331h46zM335 377v-34h-66v34h66z" />
    <glyph glyph-name="Y" unicode="Y" horiz-adv-x="548" 
d="M528 690l-237 -444h-33l-239 444h45l171 -322q9 -17 18 -35l18 -36h6q8 18 17.5 35.5t17.5 34.5l171 323h45zM295 285v-285h-42v285h42z" />
    <glyph glyph-name="Z" unicode="Z" horiz-adv-x="560" 
d="M459 655l46 -1l-408 -619l-46 1zM510 36v-36h-459v36h459zM505 690v-36h-450v36h450z" />
    <glyph glyph-name="bracketleft" unicode="[" horiz-adv-x="316" 
d="M269 768v-31h-116q-12 0 -12 -13v-845q0 -13 12 -13h116v-31h-130q-16 0 -26.5 10t-10.5 27v859q0 16 10.5 26.5t26.5 10.5h130z" />
    <glyph glyph-name="backslash" unicode="\" horiz-adv-x="500" 
d="M72 690l393 -751h-37l-393 751h37z" />
    <glyph glyph-name="bracketright" unicode="]" horiz-adv-x="316" 
d="M177 768q16 0 26.5 -10.5t10.5 -26.5v-859q0 -16 -10.5 -26.5t-26.5 -10.5h-129v31h115q13 0 13 13v845q0 13 -13 13h-115v31h129z" />
    <glyph glyph-name="asciicircum" unicode="^" horiz-adv-x="401" 
d="M215 581l156 -200l-18 -14l-148 179h-8l-148 -179l-19 14l156 200h29z" />
    <glyph glyph-name="underscore" unicode="_" horiz-adv-x="433" 
d="M433 0v-33h-433v33h433z" />
    <glyph glyph-name="grave" unicode="`" horiz-adv-x="287" 
d="M72 712l155 -145l-18 -20l-163 135z" />
    <glyph glyph-name="a" unicode="a" horiz-adv-x="541" 
d="M312 494q45 0 77 -14t48.5 -44.5t16.5 -81.5v-354h-30l-8 106l-2 7v241q0 46 -22 75t-85 29q-50 0 -108.5 -4.5t-112.5 -10.5l-4 30q32 5 67.5 9.5t76 8t86.5 3.5zM429 293l-1 -32l-242 -3q-42 -1 -62.5 -22t-20.5 -61v-54q0 -45 23.5 -67.5t70.5 -23.5q36 -1 78 12.5
t82 37.5t68 53v-35q-14 -16 -38 -33.5t-55 -34t-66.5 -27t-72.5 -10.5q-40 0 -69.5 14.5t-45.5 42.5t-16 68v60q0 55 31.5 85t88.5 30h247z" />
    <glyph glyph-name="b" unicode="b" horiz-adv-x="561" 
d="M321 494q93 0 133.5 -58t40.5 -195q0 -66 -10.5 -114t-34 -79t-61.5 -45.5t-93 -14.5q-25 0 -51.5 2t-52 6t-52 10.5t-52.5 13.5l33 28q33 -9 62.5 -14.5t57 -7.5t54.5 -2q57 0 92 21t51 68.5t16 127.5t-13.5 127.5t-44.5 68.5t-83 21q-46 0 -89 -25t-101 -72l-2 32
q35 32 68 54.5t65.5 34.5t66.5 12zM128 700v-208q0 -29 -0.5 -51t-4.5 -46l4 -16l1 -360l-40 1v680h40z" />
    <glyph glyph-name="c" unicode="c" horiz-adv-x="481" 
d="M287 494q20 0 44 -1.5t49.5 -5.5t47.5 -12l-7 -27q-28 6 -65 8t-62 2q-68 0 -109 -19.5t-59.5 -66.5t-18.5 -131t18.5 -131.5t59.5 -66.5t109 -19q14 0 38 1t51.5 3.5t49.5 6.5l6 -28q-34 -8 -73.5 -13.5t-77.5 -5.5q-81 0 -130 24.5t-71 80.5t-22 148q0 93 22 148.5
t71 80t129 24.5z" />
    <glyph glyph-name="d" unicode="d" horiz-adv-x="564" 
d="M244 494q49 0 97.5 -13.5t99.5 -36.5l-2 -31q-57 22 -100.5 33.5t-89.5 11.5q-50 0 -81 -20t-45.5 -68t-14.5 -128q0 -81 14 -128.5t45 -68.5t81 -21q31 0 59.5 10t60.5 30.5t71 52.5l1 -35q-50 -44 -98.5 -69t-101.5 -25q-93 0 -133 60t-40 193q0 92 18 147.5t57 80.5
t102 25zM473 700v-700h-30l-6 84l-4 5v337l4 16q-3 26 -3.5 48t-0.5 49v161h40z" />
    <glyph glyph-name="e" unicode="e" horiz-adv-x="530" 
d="M276 494q98 0 145.5 -35.5t48.5 -106.5q2 -64 -22.5 -97.5t-83.5 -33.5h-280v33h274q41 0 57 26t14 70q-1 57 -38 82.5t-113 25.5q-64 0 -101.5 -20t-53.5 -67t-16 -126q0 -84 18.5 -132.5t59 -68.5t104.5 -20q47 0 90.5 4t74.5 8l5 -28q-18 -6 -49 -10.5t-65 -7
t-61 -2.5q-78 0 -126 25.5t-70.5 81.5t-22.5 148q0 93 21.5 148t68 79t121.5 24z" />
    <glyph glyph-name="f" unicode="f" horiz-adv-x="361" 
d="M250 715q14 0 36.5 -0.5t45.5 -1.5t41 -3l-2 -30h-107q-57 0 -80.5 -23t-23.5 -80v-577h-40v579q0 45 12.5 75t41 45.5t76.5 15.5zM333 482v-34h-300v29l93 5h207z" />
    <glyph glyph-name="g" unicode="g" horiz-adv-x="548" 
d="M270 494q71 0 113.5 -17t61.5 -50t19 -84q0 -50 -19 -83.5t-61.5 -49.5t-114.5 -16q-70 0 -113.5 16t-63 49.5t-19.5 83.5q0 51 19.5 84t62.5 50t115 17zM269 461q-87 0 -122.5 -29t-35.5 -89t36 -88t122 -28q88 0 122.5 28t34.5 88t-34.5 89t-122.5 29zM521 482l-3 -26
l-120 -5l-35 31h158zM135 228l28 -4q-25 -23 -33.5 -50.5t5.5 -49.5t57 -30l190 -32q65 -11 87 -41.5t22 -88.5q0 -53 -21 -83.5t-69 -44t-126 -13.5q-62 0 -104.5 7.5t-68.5 23.5t-37.5 43t-11.5 66q0 34 6 57.5t22 42t44 33.5l47 26l28 -9l-50 -32q-23 -15 -35.5 -30.5
t-17.5 -35.5t-5 -50q0 -40 17.5 -63.5t57.5 -33.5t107 -10q66 0 105 10t56 33.5t17 63.5q0 30 -6.5 49t-25.5 30.5t-55 17.5l-192 32q-31 5 -50 19.5t-27 34t-5 40t14 40t30 32.5z" />
    <glyph glyph-name="h" unicode="h" horiz-adv-x="572" 
d="M355 494q130 0 130 -132v-362h-40v354q0 55 -24 79.5t-75 24.5q-53 0 -102.5 -24t-118.5 -71l-1 33q61 46 118.5 72t112.5 26zM130 700l1 -209q0 -28 -1 -53t-5 -45l5 -16v-377h-40v700h40z" />
    <glyph glyph-name="i" unicode="i" horiz-adv-x="227" 
d="M133 482v-482h-39v482h39zM122 683q16 0 16 -16v-60q0 -16 -16 -16h-17q-16 0 -16 16v60q0 16 16 16h17z" />
    <glyph glyph-name="j" unicode="j" horiz-adv-x="228" 
d="M134 482v-519q0 -34 -9 -64.5t-25.5 -57t-38.5 -49.5l-22 17q27 34 41 69.5t14 84.5v519h40zM123 683q15 0 15 -16v-60q0 -16 -15 -16h-18q-15 0 -15 16v60q0 16 15 16h18z" />
    <glyph glyph-name="k" unicode="k" horiz-adv-x="482" 
d="M437 482l-173 -184q-5 -5 -13 -12t-13 -11v-2q5 -4 13 -12.5t13 -16.5l189 -244h-48l-213 277l196 205h49zM130 700l1 -327q0 -27 -1 -49t-5 -49q3 -27 4 -51.5t1 -49.5v-174h-40v700h40zM225 291v-32h-114v32h114z" />
    <glyph glyph-name="l" unicode="l" horiz-adv-x="277" 
d="M131 700l-1 -594q0 -38 20 -57t57 -19h55l5 -29q-7 -2 -20 -4t-27 -3t-23 -1q-48 0 -77 27.5t-29 79.5v600h40z" />
    <glyph glyph-name="m" unicode="m" horiz-adv-x="879" 
d="M667 494q60 0 92.5 -33.5t32.5 -98.5v-362h-39v354q-1 54 -25 79t-73 25q-31 0 -61 -10.5t-62.5 -31.5t-75.5 -53l-1 32q55 50 107.5 74.5t104.5 24.5zM122 482l4 -89l4 -16v-377h-39v482h31zM336 494q60 0 92.5 -33t32.5 -99v-362h-39v354q0 54 -24.5 79t-73.5 25
q-30 0 -60 -10t-63 -31.5t-75 -53.5l-2 32q55 50 107.5 74.5t104.5 24.5z" />
    <glyph glyph-name="n" unicode="n" horiz-adv-x="573" 
d="M356 494q130 0 130 -132v-362h-40v354q0 55 -24 79.5t-75 24.5q-53 0 -103 -24t-118 -71l-1 33q60 48 117.5 73t113.5 25zM123 482l4 -89l3 -16v-377h-39v482h32z" />
    <glyph glyph-name="o" unicode="o" horiz-adv-x="562" 
d="M281 494q80 0 127 -24.5t67.5 -80t20.5 -148.5q0 -92 -20.5 -148t-67.5 -80.5t-127 -24.5q-78 0 -126 24.5t-68.5 80.5t-20.5 148q0 93 20.5 148.5t68.5 80t126 24.5zM281 458q-64 0 -102 -20t-54.5 -67t-16.5 -130q0 -82 16.5 -130t54.5 -68t102 -20t102 20t55 68
t17 130q0 83 -17 130t-55 67t-102 20z" />
    <glyph glyph-name="p" unicode="p" horiz-adv-x="566" 
d="M327 494q93 0 132.5 -59.5t39.5 -194.5q0 -92 -18.5 -147.5t-57 -80t-101.5 -24.5q-49 0 -97.5 13.5t-99.5 40.5l2 27q58 -22 101 -33.5t89 -11.5q51 0 81.5 20.5t45 68t14.5 127.5t-14 128t-44.5 69t-80.5 21q-46 0 -89.5 -22.5t-103.5 -71.5v32q33 32 66.5 54t67 33
t67.5 11zM122 482l5 -91l3 -6v-329l-3 -12q3 -27 3 -49v-48v-155h-39v690h31z" />
    <glyph glyph-name="q" unicode="q" horiz-adv-x="562" 
d="M270 494q23 0 48 -2t50.5 -6t52 -10.5t52.5 -13.5l-33 -29q-32 10 -62 15.5t-56.5 7.5t-49.5 2q-60 0 -96 -20.5t-52.5 -68t-16.5 -131.5q0 -113 30.5 -163.5t103.5 -50.5q51 0 95 23t102 66l7 -28q-37 -31 -72 -53t-69 -33t-73 -11q-87 0 -126 61t-39 192q0 67 11 115
t34.5 78.5t62.5 45t96 14.5zM433 463l40 -1v-670h-40v192q0 30 0.5 51.5t4.5 45.5l-5 16v366z" />
    <glyph glyph-name="r" unicode="r" horiz-adv-x="388" 
d="M121 482l5 -89l4 -16v-377h-39v482h30zM366 494l-6 -38h-20q-50 0 -99 -24t-115 -67l-2 30q58 47 113.5 73t108.5 26h20z" />
    <glyph glyph-name="s" unicode="s" horiz-adv-x="501" 
d="M239 494q30 0 63 -1.5t66 -4.5t62 -7l-4 -29q-44 2 -91.5 4t-91.5 3q-51 1 -83 -3t-47 -24t-15 -67q0 -49 20.5 -68t57.5 -25l157 -23q54 -9 82 -38t28 -87q0 -61 -22.5 -89.5t-65.5 -37t-106 -8.5q-33 0 -77.5 2t-101.5 10l4 29q30 -2 57 -3.5t54.5 -2t59.5 -0.5
q59 1 93.5 7.5t50 28t15.5 64.5q0 48 -23.5 67t-59.5 24l-157 23q-34 5 -58 19.5t-35.5 40.5t-11.5 67q0 60 20 87.5t60 35t100 6.5z" />
    <glyph glyph-name="t" unicode="t" horiz-adv-x="356" 
d="M159 631v-525q0 -39 19.5 -57.5t57.5 -18.5h84l5 -29q-14 -2 -32 -4t-34 -3t-26 -1q-56 0 -85 28t-29 81v529h40zM331 482v-34h-299v29l94 5h205z" />
    <glyph glyph-name="u" unicode="u" horiz-adv-x="563" 
d="M127 482v-354q-1 -54 24 -79t77 -25q50 0 97 24t112 70l3 -33q-59 -48 -114 -72.5t-109 -24.5q-130 0 -130 132v362h40zM472 482v-482h-31l-4 89l-5 16v377h40z" />
    <glyph glyph-name="v" unicode="v" horiz-adv-x="513" 
d="M486 482l-192 -471q-3 -5 -7 -8t-11 -3h-40q-5 0 -9.5 3t-7.5 8l-192 471h43l144 -360q10 -22 18.5 -45t17.5 -45h13q9 23 18 45.5t19 44.5l143 360h43z" />
    <glyph glyph-name="w" unicode="w" horiz-adv-x="815" 
d="M783 482l-160 -469q-2 -6 -6.5 -9.5t-11.5 -3.5h-39q-7 0 -12 4t-7 10l-113 365q-5 18 -10 36.5t-11 36.5h-11q-5 -18 -10.5 -36.5t-11.5 -36.5l-112 -365q-2 -6 -7 -10t-12 -4h-39q-6 0 -11 3.5t-7 9.5l-160 469h42l128 -385q6 -17 10.5 -33.5t10.5 -32.5h13
q5 17 10.5 33.5t10.5 33.5l114 370q2 6 7 10t11 4h38q6 0 11 -4t6 -10l115 -370q4 -17 9.5 -33.5t10.5 -33.5h13q6 17 10.5 33.5t10.5 33.5l128 384h42z" />
    <glyph glyph-name="x" unicode="x" horiz-adv-x="511" 
d="M466 482l-165 -232l177 -250h-46l-176 250l164 232h46zM91 482l164 -232l-176 -250h-46l177 250l-165 232h46zM288 268v-33h-66v33h66z" />
    <glyph glyph-name="y" unicode="y" horiz-adv-x="512" 
d="M486 482l-215 -524q-13 -30 -27.5 -57t-34.5 -49.5t-46 -38t-62 -22.5l-6 25q59 22 90 61t50 89l21 50q7 17 14 36.5t14 35.5l158 394h44zM70 482l158 -395q5 -14 11 -27t10 -27h20l-14 -33h-19q-5 0 -10 3t-7 9l-192 470h43z" />
    <glyph glyph-name="z" unicode="z" horiz-adv-x="502" 
d="M400 448l47 -1l-348 -414l-47 1zM450 34v-34h-398v34h398zM447 482v-35h-392v35h392z" />
    <glyph glyph-name="braceleft" unicode="{" horiz-adv-x="303" 
d="M255 768v-27q-58 0 -78.5 -25.5t-20.5 -76.5v-199q0 -40 -7 -61.5t-24 -32.5t-49 -18q34 -11 51.5 -22.5t25 -31t7.5 -54.5v-256q0 -50 20.5 -76t78.5 -26v-27q-50 -1 -80.5 12t-44 42t-13.5 74v268q0 28 -7 41t-21.5 20.5t-39.5 16.5v38q27 8 40.5 14t18.5 20.5t5 47.5
v211q0 46 13.5 74.5t44 41.5t80.5 12z" />
    <glyph glyph-name="bar" unicode="|" horiz-adv-x="237" 
d="M135 781v-950h-33v950h33z" />
    <glyph glyph-name="braceright" unicode="}" horiz-adv-x="304" 
d="M48 768q51 1 81 -12t44 -41.5t14 -74.5v-211q0 -33 5 -47.5t19 -20.5t39 -14v-38q-23 -9 -38 -16.5t-22 -20.5t-7 -41v-268q0 -45 -14 -74t-44 -42t-81 -12v27q59 0 79.5 26t20.5 76v256q0 35 7.5 54.5t25.5 31t50 22.5q-31 7 -48 18t-24 32.5t-7 61.5v199
q0 51 -20.5 76.5t-79.5 25.5v27z" />
    <glyph glyph-name="asciitilde" unicode="~" horiz-adv-x="531" 
d="M160 335q31 -2 56 -11.5t49 -21.5t48.5 -21.5t55.5 -11.5q30 -2 42.5 12.5t12.5 48.5h24q3 -48 -18.5 -72.5t-57.5 -21.5q-36 2 -63 11.5t-50 21t-46 21.5t-50 12q-30 3 -42.5 -13t-12.5 -51h-24q-2 33 7.5 55.5t27 32.5t41.5 9z" />
    <glyph glyph-name="uni00A0" unicode="&#xa0;" horiz-adv-x="228" 
 />
    <glyph glyph-name="exclamdown" unicode="&#xa1;" horiz-adv-x="239" 
d="M136 278l4 -158v-323h-41v323l4 158h33zM127 483q8 0 12.5 -4t4.5 -13v-60q0 -9 -4.5 -13t-12.5 -4h-13q-9 0 -13.5 4t-4.5 13v60q0 9 4.5 13t13.5 4h13z" />
    <glyph glyph-name="cent" unicode="&#xa2;" horiz-adv-x="505" 
d="M287 603q19 0 43.5 -2t50 -6t47.5 -11l-7 -28q-28 6 -65.5 8.5t-61.5 2.5q-69 0 -110.5 -19.5t-60 -66.5t-18.5 -131t18.5 -131.5t60 -67t110.5 -19.5q14 0 38 1t51.5 4t49.5 7l5 -28q-34 -9 -73 -14t-77 -5q-81 0 -130 24.5t-71 80t-22 148.5t22 148.5t71 80t129 24.5z
M277 118l-9 -118h-27l9 118h27zM311 581l-33 -466h-28l34 466h27zM320 690l-9 -112h-27l8 112h28z" />
    <glyph glyph-name="sterling" unicode="&#xa3;" horiz-adv-x="562" 
d="M319 701q20 0 45 -1t55 -3t62 -6l-4 -31q-22 2 -42 3t-39.5 1.5t-42.5 0.5h-52q-73 0 -100.5 -32t-24.5 -106l14 -279q2 -47 -2.5 -87t-20.5 -71.5t-50 -54.5q16 0 31 0.5t31 0.5h326v-36h-436v36q53 32 69 86t12 126l-14 277q-3 59 9.5 94.5t37 53t59.5 23t77 5.5z
M424 378l-2 -30h-359v30h361z" />
    <glyph glyph-name="currency" unicode="&#xa4;" horiz-adv-x="600" 
d="M299 516q-45 0 -82 -22t-59 -59.5t-22 -82.5t22 -82.5t59 -59t82 -21.5t81.5 21.5t58.5 59t22 82.5t-22 82.5t-58.5 59.5t-81.5 22zM100 572l82 -83l-20 -20l-82 82zM499 572l20 -21l-80 -80l-20 20zM165 239l21 -20l-86 -87l-21 21zM434 237l86 -85l-21 -20l-85 85z
M299 544q54 0 97 -25.5t69 -69t26 -97.5q0 -53 -26 -96.5t-69.5 -69.5t-96.5 -26t-97 26t-69.5 69.5t-25.5 96.5q0 54 25.5 97.5t69.5 69t97 25.5z" />
    <glyph glyph-name="yen" unicode="&#xa5;" horiz-adv-x="606" 
d="M557 690l-238 -416h-33l-238 416h44l169 -296q10 -16 20 -35t19 -36h6q9 17 19 35.5t19 34.5l168 297h45zM323 313v-313h-41v313h41zM516 200v-28h-422v28h422zM516 310v-28h-422v28h422z" />
    <glyph glyph-name="brokenbar" unicode="&#xa6;" horiz-adv-x="239" 
d="M136 781v-400h-33v400h33zM136 231v-400h-33v400h33z" />
    <glyph glyph-name="section" unicode="&#xa7;" horiz-adv-x="543" 
d="M116 409q-4 -45 -0.5 -80t19.5 -60.5t47 -43.5l188 -106q36 -20 58.5 -42t33.5 -48.5t11 -60.5q0 -56 -24.5 -80.5t-65.5 -30.5t-93 -6q-33 1 -68.5 2.5t-72.5 4t-75 5.5l4 31q38 -2 72 -3.5t67.5 -2.5t67.5 -2q42 0 75 3.5t52 21t19 58.5q0 43 -21.5 69.5t-54.5 44.5
l-183 104q-44 24 -65.5 55t-25.5 72.5t3 94.5h32zM253 702q37 0 74.5 -1.5t74 -4t68.5 -6.5l-4 -30q-32 2 -59.5 3.5t-61.5 2.5t-86 1q-43 1 -76 -3t-51.5 -20.5t-18.5 -55.5q0 -43 21 -69t55 -45l184 -104q44 -25 65 -57t25 -73t-3 -95h-33q6 46 1 81.5t-21 61.5t-46 44
l-187 107q-37 22 -60 43t-33 47t-10 59q0 50 22 74.5t63 32.5t97 7z" />
    <glyph glyph-name="dieresis" unicode="&#xa8;" horiz-adv-x="402" 
d="M297 678q14 0 14 -14v-56q0 -14 -14 -14h-15q-13 0 -13 14v56q0 14 13 14h15zM120 678q13 0 13 -14v-56q0 -14 -13 -14h-15q-13 0 -13 14v56q0 14 13 14h15z" />
    <glyph glyph-name="copyright" unicode="&#xa9;" horiz-adv-x="852" 
d="M426 702q74 0 139 -26.5t114.5 -74t77 -113t27.5 -143.5t-27.5 -143.5t-77 -113t-114.5 -74t-139 -26.5t-138.5 26.5t-113.5 74t-77 113t-28 143.5t28 143t77 113t113.5 74.5t138.5 26.5zM431 577q46 0 75 -2.5t59 -10.5l-6 -23q-32 3 -58.5 4t-69.5 1q-60 0 -95.5 -18.5
t-50.5 -62t-15 -117.5t15 -117.5t50.5 -62.5t95.5 -19q47 0 78.5 1.5t61.5 5.5l4 -24q-30 -7 -62.5 -10t-81.5 -3q-72 0 -114.5 22.5t-61.5 72t-19 134.5q0 84 19 134t61.5 72.5t114.5 22.5zM426 675q-68 0 -127.5 -24.5t-105 -69.5t-71.5 -104.5t-26 -131.5q0 -71 26 -131
t71.5 -105t105 -69.5t127.5 -24.5t128 24.5t105.5 69.5t71 105t25.5 131q0 72 -25.5 131.5t-71 104.5t-105.5 69.5t-128 24.5z" />
    <glyph glyph-name="ordfeminine" unicode="&#xaa;" horiz-adv-x="443" 
d="M257 602q47 0 74 -21.5t27 -74.5v-235h-25l-7 71v6v158q0 28 -16 47.5t-58 19.5q-37 0 -78.5 -2.5t-80.5 -6.5l-4 24q24 3 49 6.5t55 5.5t64 2zM340 467l-1 -21l-171 -5q-30 -1 -45 -14.5t-15 -38.5v-34q0 -30 17 -44t50 -15q27 0 56.5 9.5t57 25.5t45.5 33v-23
q-9 -11 -26.5 -23.5t-40 -24t-48 -19t-52.5 -7.5q-43 0 -67.5 21.5t-24.5 61.5v41q0 36 22.5 56.5t63.5 20.5h179z" />
    <glyph glyph-name="guillemotleft" unicode="&#xab;" horiz-adv-x="461" 
d="M375 455l21 -15l-143 -189l144 -192l-21 -15l-163 201v12zM211 455l21 -15l-143 -189l144 -192l-21 -15l-163 201v12z" />
    <glyph glyph-name="logicalnot" unicode="&#xac;" horiz-adv-x="592" 
d="M505 313v-33h-422v33h422zM505 301v-171h-34v171h34z" />
    <glyph glyph-name="uni00AD" unicode="&#xad;" horiz-adv-x="474" 
d="M392 268v-33h-310v33h310z" />
    <glyph glyph-name="registered" unicode="&#xae;" horiz-adv-x="574" 
d="M287 701q62 0 112 -30t80 -80t30 -112t-30 -112.5t-80 -80.5t-112 -30t-112.5 30t-80.5 80.5t-30 112.5t30 112t80.5 80t112.5 30zM210 617v-277h-23v277h23zM287 682q-55 0 -101 -27.5t-73 -73.5t-27 -102q0 -55 27 -101.5t73 -74t101 -27.5q56 0 101.5 27.5t72.5 74
t27 101.5q0 56 -27 102t-72.5 73.5t-101.5 27.5zM298 620q56 0 79 -16.5t23 -62.5q0 -35 -14.5 -51.5t-48.5 -20.5v-2q13 -2 23.5 -12.5t15.5 -26.5l36 -88h-26l-34 86q-7 19 -20 26.5t-31 7.5q-44 0 -72 0.5t-37 1.5l1 16h105q43 1 60.5 13.5t17.5 47.5q0 37 -17.5 49
t-60.5 12h-66t-38 -1l-7 18q26 2 49 2.5t62 0.5z" />
    <glyph glyph-name="macron" unicode="&#xaf;" horiz-adv-x="400" 
d="M332 654v-33h-264v33h264z" />
    <glyph glyph-name="degree" unicode="&#xb0;" horiz-adv-x="378" 
d="M190 702q34 0 62 -17t45 -45t17 -62t-17 -62.5t-45 -45.5t-63 -17q-34 0 -62.5 17t-45.5 45.5t-17 62.5t17 62t45.5 45t63.5 17zM189 674q-39 0 -67.5 -27.5t-28.5 -68.5q0 -25 13 -47.5t34.5 -36t48.5 -13.5t48.5 13.5t34.5 36t13 47.5q0 41 -28 68.5t-68 27.5z" />
    <glyph glyph-name="plusminus" unicode="&#xb1;" horiz-adv-x="596" 
d="M509 367v-33h-422v33h422zM509 121v-33h-422v33h422zM315 510l-1 -320h-32l-1 320h34z" />
    <glyph glyph-name="uni00B2" unicode="&#xb2;" horiz-adv-x="377" 
d="M193 758q39 0 66.5 -8t42.5 -27.5t15 -53.5q0 -41 -22.5 -75t-64.5 -79l-124 -131q18 1 32.5 1h32.5l165 -1v-28h-279v15q0 4 2 7l4 6l140 149q28 29 44.5 50t24 40.5t7.5 42.5q-1 38 -23.5 50.5t-60.5 12.5q-29 0 -59 -3.5t-68 -11.5l-4 26q41 11 73 14.5t56 3.5z" />
    <glyph glyph-name="uni00B3" unicode="&#xb3;" horiz-adv-x="392" 
d="M179 758q69 0 99.5 -20t30.5 -71q0 -38 -14.5 -64t-47.5 -36v-2q39 -8 55 -33t17 -67q1 -59 -30 -88t-100 -29q-35 0 -69.5 4.5t-62.5 11.5l7 25q18 -3 38 -5.5t41 -4t41 -1.5q53 0 75.5 20t22.5 69q0 23 -6 41.5t-25.5 29.5t-58.5 11l-84 1v26l84 2q38 0 55 14t22 33.5
t4 37.5q-1 40 -21.5 53t-74.5 13q-28 0 -58 -4t-51 -9l-5 26q29 7 59 11.5t57 4.5z" />
    <glyph glyph-name="acute" unicode="&#xb4;" horiz-adv-x="287" 
d="M212 714l26 -30l-163 -135l-18 19z" />
    <glyph glyph-name="uni00B5" unicode="&#xb5;" horiz-adv-x="573" 
d="M129 482v-352q0 -55 26 -80t78 -25q53 0 99.5 26.5t76.5 71t31 97.5l3 -89q-20 -47 -55 -79t-76.5 -48t-81.5 -16q-44 0 -75 14.5t-47.5 44.5t-16.5 76v359h38zM129 83v-181l-7 -110h-31v353zM480 482v-387q0 -18 1 -34t8 -26t24 -10h37l4 -24q-12 -4 -25.5 -6t-28.5 -2
q-35 0 -46 25t-11 64v49l-3 16v335h40z" />
    <glyph glyph-name="paragraph" unicode="&#xb6;" horiz-adv-x="596" 
d="M351 702q28 0 67.5 -3.5t71.5 -13.5l-6 -27q-25 5 -57.5 7.5t-63.5 3.5t-54 1l-17 -470q-130 10 -186 68t-56 182q0 93 30.5 148t96.5 79.5t174 24.5zM317 685v-895h-35v895h35zM490 685v-685h-35v685h35z" />
    <glyph glyph-name="periodcentered" unicode="&#xb7;" horiz-adv-x="214" 
d="M114 304q9 0 13 -4t4 -13v-60q0 -9 -4 -13t-13 -4h-14q-9 0 -13.5 4t-4.5 13v60q0 9 4.5 13t13.5 4h14z" />
    <glyph glyph-name="cedilla" unicode="&#xb8;" horiz-adv-x="223" 
d="M100 -47q29 2 48.5 -4t29 -21t8.5 -40q0 -36 -18.5 -63t-51 -39.5t-76.5 -7.5l6 23q50 -2 79 23.5t29 61.5q0 25 -12.5 35t-46.5 11z" />
    <glyph glyph-name="uni00B9" unicode="&#xb9;" horiz-adv-x="289" 
d="M178 752v-396h-33v336q0 7 0.5 14t1.5 15l-110 -34l-5 23l113 42h33z" />
    <glyph glyph-name="ordmasculine" unicode="&#xba;" horiz-adv-x="448" 
d="M224 602q84 0 118.5 -38t34.5 -132q0 -62 -15 -99t-48 -53.5t-91 -16.5q-84 0 -118 38t-34 131q0 94 34 132t119 38zM223 574q-65 0 -91.5 -30t-26.5 -112q0 -81 26.5 -111t91.5 -30q66 0 92 30t26 111q0 82 -26 112t-92 30z" />
    <glyph glyph-name="guillemotright" unicode="&#xbb;" horiz-adv-x="461" 
d="M85 455l162 -198v-12l-163 -201l-21 15l144 192l-143 189zM249 455l162 -198v-12l-163 -201l-20 15l143 192l-142 189z" />
    <glyph glyph-name="onequarter" unicode="&#xbc;" horiz-adv-x="846" 
d="M634 690l-472 -690h-33l471 690h34zM206 690v-414h-32v351q0 8 0.5 16t1.5 16l-121 -35l-5 22l124 44h32zM642 414l-142 -249q-6 -10 0 -19t19 -9h278v-23l-63 -4h-235q-22 0 -33.5 16t0.5 37l142 251h34zM751 336v-336h-32v266l7 70h25z" />
    <glyph glyph-name="onehalf" unicode="&#xbd;" horiz-adv-x="875" 
d="M632 690l-471 -690h-34l472 690h33zM206 690v-414h-32v351q0 8 0.5 16t1.5 16l-121 -35l-5 22l124 44h32zM660 421q44 0 75 -6.5t47 -25t16 -55.5q0 -39 -21.5 -74.5t-67.5 -82.5l-146 -148q20 1 38.5 1h38.5l179 -1l-1 -29h-297v19q0 5 1.5 8.5t3.5 6.5l151 152
q45 46 66 80.5t20 68.5q-1 39 -29.5 48t-73.5 9q-31 0 -59.5 -2t-71.5 -10l-4 25q48 11 77.5 13.5t57.5 2.5z" />
    <glyph glyph-name="threequarters" unicode="&#xbe;" horiz-adv-x="936" 
d="M737 690l-471 -690h-34l472 690h33zM195 695q80 0 111 -20.5t31 -74.5q0 -38 -15.5 -67.5t-59.5 -37.5v-2q49 -7 67 -34.5t19 -69.5q2 -62 -30 -92t-112 -30q-36 0 -72 3t-69 7l4 25q21 -2 42.5 -3.5t43.5 -2.5t45 -1q61 0 87.5 22t26.5 75q0 23 -8 42.5t-30.5 32
t-66.5 12.5l-86 1v23l86 2q44 1 64.5 15.5t26 34.5t5.5 38q-1 44 -25 59t-88 15q-32 0 -62.5 -2t-53.5 -5l-4 25q33 5 62.5 7.5t60.5 2.5zM731 414l-142 -249q-5 -10 1 -19t19 -9h277v-23l-62 -4h-235q-22 0 -33.5 16t-0.5 37l143 251h33zM832 336v-336h-32v266l7 70h25z
" />
    <glyph glyph-name="questiondown" unicode="&#xbf;" horiz-adv-x="503" 
d="M277 287q0 -57 -18 -97t-45.5 -69.5t-55 -55.5t-46 -55.5t-18.5 -70.5q-1 -63 38 -93.5t122 -30.5q51 0 82 1.5t57 4.5t59 7l5 -29q-24 -4 -44 -7t-41.5 -6t-50.5 -4.5t-71 -1.5q-97 0 -147.5 38t-50.5 117q0 46 19 79t47 61t56 56.5t47 66t19 89.5h37zM266 492
q9 0 13 -4t4 -13v-60q0 -9 -4 -13t-13 -4h-13q-9 0 -13 4t-4 13v60q0 9 4 13t13 4h13z" />
    <glyph glyph-name="Agrave" unicode="&#xc0;" horiz-adv-x="608" 
d="M332 690q7 0 11.5 -3t6.5 -10l241 -677h-43l-210 600l-10 28l-10 28h-28l-10 -28l-10 -28l-210 -600h-43l241 677q2 7 7 10t11 3h56zM478 279v-36h-350v36h350zM193 897l155 -145l-18 -20l-163 135z" />
    <glyph glyph-name="Aacute" unicode="&#xc1;" horiz-adv-x="608" 
d="M332 690q7 0 11.5 -3t6.5 -10l241 -677h-43l-210 600l-10 28l-10 28h-28l-10 -28l-10 -28l-210 -600h-43l241 677q2 7 7 10t11 3h56zM478 279v-36h-350v36h350zM405 899l26 -30l-163 -135l-18 19z" />
    <glyph glyph-name="Acircumflex" unicode="&#xc2;" horiz-adv-x="608" 
d="M332 690q7 0 11.5 -3t6.5 -10l241 -677h-43l-210 600l-10 28l-10 28h-28l-10 -28l-10 -28l-210 -600h-43l241 677q2 7 7 10t11 3h56zM478 279v-36h-350v36h350zM318 882l136 -119l-16 -19l-130 101h-8l-129 -101l-17 19l135 119h29z" />
    <glyph glyph-name="Atilde" unicode="&#xc3;" horiz-adv-x="608" 
d="M332 690q7 0 11.5 -3t6.5 -10l241 -677h-43l-210 600l-10 28l-10 28h-28l-10 -28l-10 -28l-210 -600h-43l241 677q2 7 7 10t11 3h56zM478 279v-36h-350v36h350zM232 867q22 -2 39 -11.5t32.5 -21t32.5 -20.5t38 -12q31 -2 43.5 12.5t12.5 47.5h23q3 -46 -18.5 -70.5
t-57.5 -21.5q-33 3 -55.5 18t-42.5 30t-45 17q-30 3 -42.5 -12.5t-12.5 -50.5h-23q-2 33 7.5 55t27.5 32t41 8z" />
    <glyph glyph-name="Adieresis" unicode="&#xc4;" horiz-adv-x="608" 
d="M332 690q7 0 11.5 -3t6.5 -10l241 -677h-43l-210 600l-10 28l-10 28h-28l-10 -28l-10 -28l-210 -600h-43l241 677q2 7 7 10t11 3h56zM478 279v-36h-350v36h350zM400 858q14 0 14 -14v-56q0 -14 -14 -14h-15q-13 0 -13 14v56q0 14 13 14h15zM223 858q13 0 13 -14v-56
q0 -14 -13 -14h-15q-13 0 -13 14v56q0 14 13 14h15z" />
    <glyph glyph-name="Aring" unicode="&#xc5;" horiz-adv-x="608" 
d="M332 690q7 0 11.5 -3t6.5 -10l241 -677h-43l-210 600l-10 28l-10 28h-28l-10 -28l-10 -28l-210 -600h-43l241 677q2 7 7 10t11 3h56zM478 279v-36h-350v36h350zM304 913q28 0 50 -13t35.5 -35t13.5 -49q0 -26 -13 -48.5t-35.5 -36t-50.5 -13.5q-27 0 -49.5 13t-36 35.5
t-13.5 49.5t13.5 49t36 35t49.5 13zM304 888q-30 0 -50.5 -20.5t-20.5 -52.5q0 -31 20.5 -51.5t50.5 -20.5q31 0 51 20.5t20 51.5q0 32 -20 52.5t-51 20.5z" />
    <glyph glyph-name="AE" unicode="&#xc6;" horiz-adv-x="907" 
d="M573 690q93 0 156.5 -1t121.5 -3l-1 -32h-265q-36 0 -57.5 -21t-21.5 -57v-462q0 -36 21.5 -57.5t57.5 -21.5h265l1 -31q-70 -3 -139.5 -3.5t-139.5 -0.5q-46 0 -76 30t-30 76v474q0 22 12 45t27 30h-6q-16 -7 -34.5 -24t-37.5 -45l-373 -586h-46l384 599q18 29 37.5 47
t41.5 27.5t47.5 13t54.5 3.5zM481 295v-35h-282l11 35h271zM483 386l325 -1v-33l-325 -1v35z" />
    <glyph glyph-name="Ccedilla" unicode="&#xc7;" horiz-adv-x="563" 
d="M331 702q42 0 71.5 -2t54.5 -6t52 -10l-7 -30q-28 4 -52.5 6.5t-52.5 3.5t-66 1q-80 0 -127 -30.5t-68 -100.5t-21 -189t21 -189t68 -100.5t127 -30.5q61 0 103 3t82 10l7 -31q-41 -10 -84 -14.5t-108 -4.5q-95 0 -152 34.5t-82 112.5t-25 210t25 210t82 112.5t152 34.5z
M297 -59q29 2 48.5 -4t29 -21t8.5 -40q0 -36 -18.5 -63t-51 -39.5t-76.5 -7.5l6 23q50 -2 79 23.5t29 61.5q0 25 -12.5 35t-46.5 11z" />
    <glyph glyph-name="Egrave" unicode="&#xc8;" horiz-adv-x="553" 
d="M203 690h98.5t98.5 -1t97 -3l-2 -31h-285q-34 0 -55 -21.5t-21 -56.5v-464q0 -35 21 -56.5t55 -21.5h285l2 -31q-48 -2 -97 -3t-98.5 -1h-98.5t-79.5 30t-30.5 76v478q0 47 30.5 76.5t79.5 29.5zM110 386l344 -1v-33l-344 -1v35zM198 921l155 -145l-18 -20l-163 135z" />
    <glyph glyph-name="Eacute" unicode="&#xc9;" horiz-adv-x="553" 
d="M203 690h98.5t98.5 -1t97 -3l-2 -31h-285q-34 0 -55 -21.5t-21 -56.5v-464q0 -35 21 -56.5t55 -21.5h285l2 -31q-48 -2 -97 -3t-98.5 -1h-98.5t-79.5 30t-30.5 76v478q0 47 30.5 76.5t79.5 29.5zM110 386l344 -1v-33l-344 -1v35zM411 923l26 -30l-163 -135l-18 19z" />
    <glyph glyph-name="Ecircumflex" unicode="&#xca;" horiz-adv-x="553" 
d="M203 690h98.5t98.5 -1t97 -3l-2 -31h-285q-34 0 -55 -21.5t-21 -56.5v-464q0 -35 21 -56.5t55 -21.5h285l2 -31q-48 -2 -97 -3t-98.5 -1h-98.5t-79.5 30t-30.5 76v478q0 47 30.5 76.5t79.5 29.5zM110 386l344 -1v-33l-344 -1v35zM323 906l136 -119l-16 -19l-130 101h-8
l-129 -101l-17 19l135 119h29z" />
    <glyph glyph-name="Edieresis" unicode="&#xcb;" horiz-adv-x="553" 
d="M203 690h98.5t98.5 -1t97 -3l-2 -31h-285q-34 0 -55 -21.5t-21 -56.5v-464q0 -35 21 -56.5t55 -21.5h285l2 -31q-48 -2 -97 -3t-98.5 -1h-98.5t-79.5 30t-30.5 76v478q0 47 30.5 76.5t79.5 29.5zM110 386l344 -1v-33l-344 -1v35zM405 881q14 0 14 -14v-56q0 -14 -14 -14
h-15q-13 0 -13 14v56q0 14 13 14h15zM228 881q13 0 13 -14v-56q0 -14 -13 -14h-15q-13 0 -13 14v56q0 14 13 14h15z" />
    <glyph glyph-name="Igrave" unicode="&#xcc;" horiz-adv-x="239" 
d="M140 690v-690h-41v690h41zM7 899l155 -145l-18 -20l-163 135z" />
    <glyph glyph-name="Iacute" unicode="&#xcd;" horiz-adv-x="239" 
d="M140 690v-690h-41v690h41zM220 901l26 -30l-163 -135l-18 19z" />
    <glyph glyph-name="Icircumflex" unicode="&#xce;" horiz-adv-x="239" 
d="M140 690v-690h-41v690h41zM133 884l136 -119l-16 -19l-130 101h-8l-129 -101l-17 19l135 119h29z" />
    <glyph glyph-name="Idieresis" unicode="&#xcf;" horiz-adv-x="239" 
d="M140 690v-690h-41v690h41zM214 859q14 0 14 -14v-56q0 -14 -14 -14h-15q-13 0 -13 14v56q0 14 13 14h15zM37 859q13 0 13 -14v-56q0 -14 -13 -14h-15q-13 0 -13 14v56q0 14 13 14h15z" />
    <glyph glyph-name="Eth" unicode="&#xd0;" 
d="M318 384v-28h-293v28h293zM336 699q70 0 119 -18.5t79 -60t43.5 -109t13.5 -166.5q0 -98 -13.5 -166t-43.5 -109.5t-79 -60t-119 -18.5q-68 0 -125.5 2.5t-108.5 6.5l20 31q46 -1 98 -2t116 -1q78 0 125 30t67 99.5t20 187.5t-20 187.5t-67 99.5t-125 30q-64 0 -116 -1
t-101 -2l-17 31q51 4 109 6.5t125 2.5zM143 690v-690h-41v690h41z" />
    <glyph glyph-name="Ntilde" unicode="&#xd1;" horiz-adv-x="692" 
d="M594 690v-670q0 -20 -20 -20h-54q-8 0 -13.5 3.5t-9.5 11.5l-298 564q-9 17 -19 36t-18 38h-23q1 -19 1 -38v-37v-578h-41v670q0 20 20 20h50q9 0 14.5 -3.5t9.5 -11.5l290 -551q11 -20 22.5 -42t22.5 -44h25v47.5v46.5v558h41zM287 869q22 -2 39 -11.5t32.5 -21
t32.5 -20.5t38 -12q31 -2 43.5 12.5t12.5 47.5h23q3 -46 -18.5 -70.5t-57.5 -21.5q-33 3 -55.5 18t-42.5 30t-45 17q-30 3 -42.5 -12.5t-12.5 -50.5h-23q-2 33 7.5 55t27.5 32t41 8z" />
    <glyph glyph-name="Ograve" unicode="&#xd2;" 
d="M332 702q72 0 122 -18.5t80 -60.5t43.5 -110t13.5 -168t-13.5 -168t-43.5 -110t-80 -60.5t-122 -18.5t-122 18.5t-80 60.5t-44 110t-14 168t14 168t44 110t80 60.5t122 18.5zM332 665q-81 0 -128 -30.5t-68 -100.5t-21 -189t21 -189t68 -100.5t128 -30.5q80 0 127.5 30.5
t68 100.5t20.5 189t-20.5 189t-68 100.5t-127.5 30.5zM221 899l155 -145l-18 -20l-163 135z" />
    <glyph glyph-name="Oacute" unicode="&#xd3;" 
d="M332 702q72 0 122 -18.5t80 -60.5t43.5 -110t13.5 -168t-13.5 -168t-43.5 -110t-80 -60.5t-122 -18.5t-122 18.5t-80 60.5t-44 110t-14 168t14 168t44 110t80 60.5t122 18.5zM332 665q-81 0 -128 -30.5t-68 -100.5t-21 -189t21 -189t68 -100.5t128 -30.5q80 0 127.5 30.5
t68 100.5t20.5 189t-20.5 189t-68 100.5t-127.5 30.5zM434 901l26 -30l-163 -135l-18 19z" />
    <glyph glyph-name="Ocircumflex" unicode="&#xd4;" 
d="M332 702q72 0 122 -18.5t80 -60.5t43.5 -110t13.5 -168t-13.5 -168t-43.5 -110t-80 -60.5t-122 -18.5t-122 18.5t-80 60.5t-44 110t-14 168t14 168t44 110t80 60.5t122 18.5zM332 665q-81 0 -128 -30.5t-68 -100.5t-21 -189t21 -189t68 -100.5t128 -30.5q80 0 127.5 30.5
t68 100.5t20.5 189t-20.5 189t-68 100.5t-127.5 30.5zM346 884l136 -119l-16 -19l-130 101h-8l-129 -101l-17 19l135 119h29z" />
    <glyph glyph-name="Otilde" unicode="&#xd5;" 
d="M332 702q72 0 122 -18.5t80 -60.5t43.5 -110t13.5 -168t-13.5 -168t-43.5 -110t-80 -60.5t-122 -18.5t-122 18.5t-80 60.5t-44 110t-14 168t14 168t44 110t80 60.5t122 18.5zM332 665q-81 0 -128 -30.5t-68 -100.5t-21 -189t21 -189t68 -100.5t128 -30.5q80 0 127.5 30.5
t68 100.5t20.5 189t-20.5 189t-68 100.5t-127.5 30.5zM260 869q22 -2 39 -11.5t32.5 -21t32.5 -20.5t38 -12q31 -2 43.5 12.5t12.5 47.5h23q3 -46 -18.5 -70.5t-57.5 -21.5q-33 3 -55.5 18t-42.5 30t-45 17q-30 3 -42.5 -12.5t-12.5 -50.5h-23q-2 33 7.5 55t27.5 32t41 8z
" />
    <glyph glyph-name="Odieresis" unicode="&#xd6;" 
d="M332 702q72 0 122 -18.5t80 -60.5t43.5 -110t13.5 -168t-13.5 -168t-43.5 -110t-80 -60.5t-122 -18.5t-122 18.5t-80 60.5t-44 110t-14 168t14 168t44 110t80 60.5t122 18.5zM332 665q-81 0 -128 -30.5t-68 -100.5t-21 -189t21 -189t68 -100.5t128 -30.5q80 0 127.5 30.5
t68 100.5t20.5 189t-20.5 189t-68 100.5t-127.5 30.5zM428 859q14 0 14 -14v-56q0 -14 -14 -14h-15q-13 0 -13 14v56q0 14 13 14h15zM251 859q13 0 13 -14v-56q0 -14 -13 -14h-15q-13 0 -13 14v56q0 14 13 14h15z" />
    <glyph glyph-name="multiply" unicode="&#xd7;" horiz-adv-x="487" 
d="M412 459l-352 -316l21 -26l352 317zM81 459l-21 -26l352 -316l21 26z" />
    <glyph glyph-name="Oslash" unicode="&#xd8;" 
d="M494 743l28 -12l-368 -784l-27 13zM332 702q72 0 122 -18.5t80 -60.5t43.5 -110t13.5 -168t-13.5 -168t-43.5 -110t-80 -60.5t-122 -18.5t-122 18.5t-80 60.5t-44 110t-14 168t14 168t44 110t80 60.5t122 18.5zM332 665q-81 0 -128 -30.5t-68 -100.5t-21 -189t21 -189
t68 -100.5t128 -30.5q80 0 127.5 30.5t68 100.5t20.5 189t-20.5 189t-68 100.5t-127.5 30.5z" />
    <glyph glyph-name="Ugrave" unicode="&#xd9;" horiz-adv-x="667" 
d="M573 690v-433q0 -97 -23.5 -156t-75.5 -86t-139 -27q-89 0 -141.5 27t-76 86t-23.5 156v433h41v-433q0 -85 19.5 -136t63 -73.5t116.5 -22.5q72 0 115.5 22.5t63 73.5t19.5 136v433h41zM223 899l155 -145l-18 -20l-163 135z" />
    <glyph glyph-name="Uacute" unicode="&#xda;" horiz-adv-x="667" 
d="M573 690v-433q0 -97 -23.5 -156t-75.5 -86t-139 -27q-89 0 -141.5 27t-76 86t-23.5 156v433h41v-433q0 -85 19.5 -136t63 -73.5t116.5 -22.5q72 0 115.5 22.5t63 73.5t19.5 136v433h41zM436 901l26 -30l-163 -135l-18 19z" />
    <glyph glyph-name="Ucircumflex" unicode="&#xdb;" horiz-adv-x="667" 
d="M573 690v-433q0 -97 -23.5 -156t-75.5 -86t-139 -27q-89 0 -141.5 27t-76 86t-23.5 156v433h41v-433q0 -85 19.5 -136t63 -73.5t116.5 -22.5q72 0 115.5 22.5t63 73.5t19.5 136v433h41zM348 884l136 -119l-16 -19l-130 101h-8l-129 -101l-17 19l135 119h29z" />
    <glyph glyph-name="Udieresis" unicode="&#xdc;" horiz-adv-x="667" 
d="M573 690v-433q0 -97 -23.5 -156t-75.5 -86t-139 -27q-89 0 -141.5 27t-76 86t-23.5 156v433h41v-433q0 -85 19.5 -136t63 -73.5t116.5 -22.5q72 0 115.5 22.5t63 73.5t19.5 136v433h41zM430 859q14 0 14 -14v-56q0 -14 -14 -14h-15q-13 0 -13 14v56q0 14 13 14h15z
M253 859q13 0 13 -14v-56q0 -14 -13 -14h-15q-13 0 -13 14v56q0 14 13 14h15z" />
    <glyph glyph-name="Yacute" unicode="&#xdd;" horiz-adv-x="548" 
d="M528 690l-237 -444h-33l-239 444h45l171 -322q9 -17 18 -35l18 -36h6q8 18 17.5 35.5t17.5 34.5l171 323h45zM295 285v-285h-42v285h42zM376 898l26 -30l-163 -135l-18 19z" />
    <glyph glyph-name="Thorn" unicode="&#xde;" horiz-adv-x="585" 
d="M324 558q76 0 120.5 -18t64.5 -63t20 -126t-20 -126t-64 -63t-118 -18q-41 0 -76.5 1t-64.5 2.5t-49 3t-28 3.5l3 27h104.5h107.5q60 1 95.5 15t51.5 51t16 104q0 69 -16 105.5t-51.5 51t-95.5 14.5q-78 0 -134.5 -1t-76.5 -3l-14 32q36 4 67.5 5.5t68.5 2t89 0.5z
M140 690v-690h-41v690h41z" />
    <glyph glyph-name="germandbls" unicode="&#xdf;" horiz-adv-x="657" 
d="M332 714q68 0 115.5 -10t72 -35t24.5 -71q0 -38 -10 -62t-31.5 -39.5t-56.5 -29.5q-41 -15 -68 -25.5t-40.5 -26.5t-13.5 -49q0 -35 18 -51t48 -26l125 -42q30 -10 51 -24.5t32.5 -38t11.5 -61.5q0 -60 -20.5 -88.5t-57 -37t-86.5 -8.5q-32 0 -72.5 2t-91.5 9l3 30
q43 -4 81.5 -5.5t75.5 -1.5q43 1 71.5 8t42.5 27.5t14 65.5q0 32 -9.5 49.5t-26 27t-37.5 16.5l-125 42q-40 13 -63.5 36.5t-23.5 69.5q0 42 18 64t51 35t76 30q45 17 61 38t16 65q0 32 -20 50t-58.5 25.5t-95.5 7.5q-65 0 -102.5 -12t-53.5 -44t-16 -92v-532h-40v534
q0 62 15.5 98.5t44 54t67 22.5t84.5 5zM144 482v-34h-110v30l93 4h17z" />
    <glyph glyph-name="agrave" unicode="&#xe0;" horiz-adv-x="541" 
d="M312 494q45 0 77 -14t48.5 -44.5t16.5 -81.5v-354h-30l-8 106l-2 7v241q0 46 -22 75t-85 29q-50 0 -108.5 -4.5t-112.5 -10.5l-4 30q32 5 67.5 9.5t76 8t86.5 3.5zM429 293l-1 -32l-242 -3q-42 -1 -62.5 -22t-20.5 -61v-54q0 -45 23.5 -67.5t70.5 -23.5q36 -1 78 12.5
t82 37.5t68 53v-35q-14 -16 -38 -33.5t-55 -34t-66.5 -27t-72.5 -10.5q-40 0 -69.5 14.5t-45.5 42.5t-16 68v60q0 55 31.5 85t88.5 30h247zM157 718l155 -145l-18 -20l-163 135z" />
    <glyph glyph-name="aacute" unicode="&#xe1;" horiz-adv-x="541" 
d="M312 494q45 0 77 -14t48.5 -44.5t16.5 -81.5v-354h-30l-8 106l-2 7v241q0 46 -22 75t-85 29q-50 0 -108.5 -4.5t-112.5 -10.5l-4 30q32 5 67.5 9.5t76 8t86.5 3.5zM429 293l-1 -32l-242 -3q-42 -1 -62.5 -22t-20.5 -61v-54q0 -45 23.5 -67.5t70.5 -23.5q36 -1 78 12.5
t82 37.5t68 53v-35q-14 -16 -38 -33.5t-55 -34t-66.5 -27t-72.5 -10.5q-40 0 -69.5 14.5t-45.5 42.5t-16 68v60q0 55 31.5 85t88.5 30h247zM369 720l26 -30l-163 -135l-18 19z" />
    <glyph glyph-name="acircumflex" unicode="&#xe2;" horiz-adv-x="541" 
d="M312 494q45 0 77 -14t48.5 -44.5t16.5 -81.5v-354h-30l-8 106l-2 7v241q0 46 -22 75t-85 29q-50 0 -108.5 -4.5t-112.5 -10.5l-4 30q32 5 67.5 9.5t76 8t86.5 3.5zM429 293l-1 -32l-242 -3q-42 -1 -62.5 -22t-20.5 -61v-54q0 -45 23.5 -67.5t70.5 -23.5q36 -1 78 12.5
t82 37.5t68 53v-35q-14 -16 -38 -33.5t-55 -34t-66.5 -27t-72.5 -10.5q-40 0 -69.5 14.5t-45.5 42.5t-16 68v60q0 55 31.5 85t88.5 30h247zM282 702l136 -119l-16 -19l-130 101h-8l-129 -101l-17 19l135 119h29z" />
    <glyph glyph-name="atilde" unicode="&#xe3;" horiz-adv-x="541" 
d="M312 494q45 0 77 -14t48.5 -44.5t16.5 -81.5v-354h-30l-8 106l-2 7v241q0 46 -22 75t-85 29q-50 0 -108.5 -4.5t-112.5 -10.5l-4 30q32 5 67.5 9.5t76 8t86.5 3.5zM429 293l-1 -32l-242 -3q-42 -1 -62.5 -22t-20.5 -61v-54q0 -45 23.5 -67.5t70.5 -23.5q36 -1 78 12.5
t82 37.5t68 53v-35q-14 -16 -38 -33.5t-55 -34t-66.5 -27t-72.5 -10.5q-40 0 -69.5 14.5t-45.5 42.5t-16 68v60q0 55 31.5 85t88.5 30h247zM196 688q22 -2 39 -11.5t32.5 -21t32.5 -20.5t38 -12q31 -2 43.5 12.5t12.5 47.5h23q3 -46 -18.5 -70.5t-57.5 -21.5q-33 3 -55.5 18
t-42.5 30t-45 17q-30 3 -42.5 -12.5t-12.5 -50.5h-23q-2 33 7.5 55t27.5 32t41 8z" />
    <glyph glyph-name="adieresis" unicode="&#xe4;" horiz-adv-x="541" 
d="M312 494q45 0 77 -14t48.5 -44.5t16.5 -81.5v-354h-30l-8 106l-2 7v241q0 46 -22 75t-85 29q-50 0 -108.5 -4.5t-112.5 -10.5l-4 30q32 5 67.5 9.5t76 8t86.5 3.5zM429 293l-1 -32l-242 -3q-42 -1 -62.5 -22t-20.5 -61v-54q0 -45 23.5 -67.5t70.5 -23.5q36 -1 78 12.5
t82 37.5t68 53v-35q-14 -16 -38 -33.5t-55 -34t-66.5 -27t-72.5 -10.5q-40 0 -69.5 14.5t-45.5 42.5t-16 68v60q0 55 31.5 85t88.5 30h247zM364 678q14 0 14 -14v-56q0 -14 -14 -14h-15q-13 0 -13 14v56q0 14 13 14h15zM187 678q13 0 13 -14v-56q0 -14 -13 -14h-15
q-13 0 -13 14v56q0 14 13 14h15z" />
    <glyph glyph-name="aring" unicode="&#xe5;" horiz-adv-x="541" 
d="M312 494q45 0 77 -14t48.5 -44.5t16.5 -81.5v-354h-30l-8 106l-2 7v241q0 46 -22 75t-85 29q-50 0 -108.5 -4.5t-112.5 -10.5l-4 30q32 5 67.5 9.5t76 8t86.5 3.5zM429 293l-1 -32l-242 -3q-42 -1 -62.5 -22t-20.5 -61v-54q0 -45 23.5 -67.5t70.5 -23.5q36 -1 78 12.5
t82 37.5t68 53v-35q-14 -16 -38 -33.5t-55 -34t-66.5 -27t-72.5 -10.5q-40 0 -69.5 14.5t-45.5 42.5t-16 68v60q0 55 31.5 85t88.5 30h247zM269 733q28 0 50 -13t35.5 -35t13.5 -49q0 -26 -13 -48.5t-35.5 -36t-50.5 -13.5q-27 0 -49.5 13t-36 35.5t-13.5 49.5t13.5 49
t36 35t49.5 13zM269 708q-30 0 -50.5 -20.5t-20.5 -52.5q0 -31 20.5 -51.5t50.5 -20.5q31 0 51 20.5t20 51.5q0 32 -20 52.5t-51 20.5z" />
    <glyph glyph-name="ae" unicode="&#xe6;" horiz-adv-x="878" 
d="M625 494q98 0 145.5 -35.5t48.5 -106.5q1 -47 -13 -76t-44.5 -42t-81.5 -13h-247v33h241q59 0 82.5 23t21.5 73q0 55 -37.5 81.5t-114.5 26.5q-63 0 -100.5 -20t-54 -67t-16.5 -126q0 -84 19 -132.5t59.5 -68.5t104.5 -20q47 0 90.5 4t74.5 8l5 -28q-18 -6 -49.5 -10.5
t-65.5 -7t-60 -2.5q-78 0 -126 25.5t-70.5 81.5t-22.5 148q0 93 21.5 148t68 79t121.5 24zM429 293l-1 -32l-242 -3q-42 -1 -62.5 -22t-20.5 -61v-54q0 -45 23.5 -67.5t70.5 -23.5q39 -1 84 13.5t88 40t72 57.5v-35q-15 -17 -41 -36t-59 -37t-71 -29t-77 -11
q-40 0 -69.5 14.5t-45.5 42.5t-16 68v60q0 55 31.5 85t88.5 30h247zM312 494q45 0 77 -14t48.5 -44.5t16.5 -81.5v-125l-40 -1v126q0 46 -22 75t-85 29q-50 0 -108.5 -4.5t-112.5 -10.5l-4 30q32 5 67.5 9.5t76 8t86.5 3.5z" />
    <glyph glyph-name="ccedilla" unicode="&#xe7;" horiz-adv-x="481" 
d="M287 494q20 0 44 -1.5t49.5 -5.5t47.5 -12l-7 -27q-28 6 -65 8t-62 2q-68 0 -109 -19.5t-59.5 -66.5t-18.5 -131t18.5 -131.5t59.5 -66.5t109 -19q14 0 38 1t51.5 3.5t49.5 6.5l6 -28q-34 -8 -73.5 -13.5t-77.5 -5.5q-81 0 -130 24.5t-71 80.5t-22 148q0 93 22 148.5
t71 80t129 24.5zM252 -59q29 2 48.5 -4t29 -21t8.5 -40q0 -36 -18.5 -63t-51 -39.5t-76.5 -7.5l6 23q50 -2 79 23.5t29 61.5q0 25 -12.5 35t-46.5 11z" />
    <glyph glyph-name="egrave" unicode="&#xe8;" horiz-adv-x="530" 
d="M276 494q98 0 145.5 -35.5t48.5 -106.5q2 -64 -22.5 -97.5t-83.5 -33.5h-280v33h274q41 0 57 26t14 70q-1 57 -38 82.5t-113 25.5q-64 0 -101.5 -20t-53.5 -67t-16 -126q0 -84 18.5 -132.5t59 -68.5t104.5 -20q47 0 90.5 4t74.5 8l5 -28q-18 -6 -49 -10.5t-65 -7
t-61 -2.5q-78 0 -126 25.5t-70.5 81.5t-22.5 148q0 93 21.5 148t68 79t121.5 24zM166 718l155 -145l-18 -20l-163 135z" />
    <glyph glyph-name="eacute" unicode="&#xe9;" horiz-adv-x="530" 
d="M276 494q98 0 145.5 -35.5t48.5 -106.5q2 -64 -22.5 -97.5t-83.5 -33.5h-280v33h274q41 0 57 26t14 70q-1 57 -38 82.5t-113 25.5q-64 0 -101.5 -20t-53.5 -67t-16 -126q0 -84 18.5 -132.5t59 -68.5t104.5 -20q47 0 90.5 4t74.5 8l5 -28q-18 -6 -49 -10.5t-65 -7
t-61 -2.5q-78 0 -126 25.5t-70.5 81.5t-22.5 148q0 93 21.5 148t68 79t121.5 24zM379 720l26 -30l-163 -135l-18 19z" />
    <glyph glyph-name="ecircumflex" unicode="&#xea;" horiz-adv-x="530" 
d="M276 494q98 0 145.5 -35.5t48.5 -106.5q2 -64 -22.5 -97.5t-83.5 -33.5h-280v33h274q41 0 57 26t14 70q-1 57 -38 82.5t-113 25.5q-64 0 -101.5 -20t-53.5 -67t-16 -126q0 -84 18.5 -132.5t59 -68.5t104.5 -20q47 0 90.5 4t74.5 8l5 -28q-18 -6 -49 -10.5t-65 -7
t-61 -2.5q-78 0 -126 25.5t-70.5 81.5t-22.5 148q0 93 21.5 148t68 79t121.5 24zM292 702l136 -119l-16 -19l-130 101h-8l-129 -101l-17 19l135 119h29z" />
    <glyph glyph-name="edieresis" unicode="&#xeb;" horiz-adv-x="530" 
d="M276 494q98 0 145.5 -35.5t48.5 -106.5q2 -64 -22.5 -97.5t-83.5 -33.5h-280v33h274q41 0 57 26t14 70q-1 57 -38 82.5t-113 25.5q-64 0 -101.5 -20t-53.5 -67t-16 -126q0 -84 18.5 -132.5t59 -68.5t104.5 -20q47 0 90.5 4t74.5 8l5 -28q-18 -6 -49 -10.5t-65 -7
t-61 -2.5q-78 0 -126 25.5t-70.5 81.5t-22.5 148q0 93 21.5 148t68 79t121.5 24zM373 678q14 0 14 -14v-56q0 -14 -14 -14h-15q-13 0 -13 14v56q0 14 13 14h15zM196 678q13 0 13 -14v-56q0 -14 -13 -14h-15q-13 0 -13 14v56q0 14 13 14h15z" />
    <glyph glyph-name="igrave" unicode="&#xec;" horiz-adv-x="227" 
d="M134 482v-482h-40v482h40zM1 718l155 -145l-18 -20l-163 135z" />
    <glyph glyph-name="iacute" unicode="&#xed;" horiz-adv-x="227" 
d="M134 482v-482h-40v482h40zM214 720l26 -30l-163 -135l-18 19z" />
    <glyph glyph-name="icircumflex" unicode="&#xee;" horiz-adv-x="227" 
d="M134 482v-482h-40v482h40zM127 702l136 -119l-16 -19l-130 101h-8l-129 -101l-17 19l135 119h29z" />
    <glyph glyph-name="idieresis" unicode="&#xef;" horiz-adv-x="227" 
d="M134 482v-482h-40v482h40zM208 678q14 0 14 -14v-56q0 -14 -14 -14h-15q-13 0 -13 14v56q0 14 13 14h15zM31 678q13 0 13 -14v-56q0 -14 -13 -14h-15q-13 0 -13 14v56q0 14 13 14h15z" />
    <glyph glyph-name="eth" unicode="&#xf0;" horiz-adv-x="551" 
d="M124 698q41 2 89 -7t94 -33.5t84 -71.5t60.5 -121.5t22.5 -184.5q0 -59 -6.5 -111.5t-26.5 -93.5t-61 -64t-109 -23q-104 0 -154.5 55t-50.5 177q0 71 19.5 121.5t63.5 78t118 27.5q28 0 57.5 -6t62 -21t66.5 -42l-7 -21q-51 32 -92 43.5t-88 11.5q-61 0 -95.5 -24.5
t-48.5 -68t-14 -99.5q0 -108 40.5 -152.5t123.5 -44.5q71 0 105.5 32.5t45.5 92t11 138.5q0 106 -22 175.5t-58 111.5t-78 62.5t-84 27t-75 6.5zM414 702l16 -23l-195 -139l-16 23z" />
    <glyph glyph-name="ntilde" unicode="&#xf1;" horiz-adv-x="573" 
d="M356 494q130 0 130 -132v-362h-40v354q0 55 -24 79.5t-75 24.5q-53 0 -103 -24t-118 -71l-1 33q60 48 117.5 73t113.5 25zM123 482l4 -89l3 -16v-377h-39v482h32zM223 688q22 -2 39 -11.5t32.5 -21t32.5 -20.5t38 -12q31 -2 43.5 12.5t12.5 47.5h23q3 -46 -18.5 -70.5
t-57.5 -21.5q-33 3 -55.5 18t-42.5 30t-45 17q-30 3 -42.5 -12.5t-12.5 -50.5h-23q-2 33 7.5 55t27.5 32t41 8z" />
    <glyph glyph-name="ograve" unicode="&#xf2;" horiz-adv-x="562" 
d="M281 494q80 0 127 -24.5t67.5 -80t20.5 -148.5q0 -92 -20.5 -148t-67.5 -80.5t-127 -24.5q-78 0 -126 24.5t-68.5 80.5t-20.5 148q0 93 20.5 148.5t68.5 80t126 24.5zM281 458q-64 0 -102 -20t-54.5 -67t-16.5 -130q0 -82 16.5 -130t54.5 -68t102 -20t102 20t55 68
t17 130q0 83 -17 130t-55 67t-102 20zM169 717l155 -145l-18 -20l-163 135z" />
    <glyph glyph-name="oacute" unicode="&#xf3;" horiz-adv-x="562" 
d="M281 494q80 0 127 -24.5t67.5 -80t20.5 -148.5q0 -92 -20.5 -148t-67.5 -80.5t-127 -24.5q-78 0 -126 24.5t-68.5 80.5t-20.5 148q0 93 20.5 148.5t68.5 80t126 24.5zM281 458q-64 0 -102 -20t-54.5 -67t-16.5 -130q0 -82 16.5 -130t54.5 -68t102 -20t102 20t55 68
t17 130q0 83 -17 130t-55 67t-102 20zM381 719l26 -30l-163 -135l-18 19z" />
    <glyph glyph-name="ocircumflex" unicode="&#xf4;" horiz-adv-x="562" 
d="M281 494q80 0 127 -24.5t67.5 -80t20.5 -148.5q0 -92 -20.5 -148t-67.5 -80.5t-127 -24.5q-78 0 -126 24.5t-68.5 80.5t-20.5 148q0 93 20.5 148.5t68.5 80t126 24.5zM281 458q-64 0 -102 -20t-54.5 -67t-16.5 -130q0 -82 16.5 -130t54.5 -68t102 -20t102 20t55 68
t17 130q0 83 -17 130t-55 67t-102 20zM294 701l136 -119l-16 -19l-130 101h-8l-129 -101l-17 19l135 119h29z" />
    <glyph glyph-name="otilde" unicode="&#xf5;" horiz-adv-x="562" 
d="M281 494q80 0 127 -24.5t67.5 -80t20.5 -148.5q0 -92 -20.5 -148t-67.5 -80.5t-127 -24.5q-78 0 -126 24.5t-68.5 80.5t-20.5 148q0 93 20.5 148.5t68.5 80t126 24.5zM281 458q-64 0 -102 -20t-54.5 -67t-16.5 -130q0 -82 16.5 -130t54.5 -68t102 -20t102 20t55 68
t17 130q0 83 -17 130t-55 67t-102 20zM208 687q22 -2 39 -11.5t32.5 -21t32.5 -20.5t38 -12q31 -2 43.5 12.5t12.5 47.5h23q3 -46 -18.5 -70.5t-57.5 -21.5q-33 3 -55.5 18t-42.5 30t-45 17q-30 3 -42.5 -12.5t-12.5 -50.5h-23q-2 33 7.5 55t27.5 32t41 8z" />
    <glyph glyph-name="odieresis" unicode="&#xf6;" horiz-adv-x="562" 
d="M281 494q80 0 127 -24.5t67.5 -80t20.5 -148.5q0 -92 -20.5 -148t-67.5 -80.5t-127 -24.5q-78 0 -126 24.5t-68.5 80.5t-20.5 148q0 93 20.5 148.5t68.5 80t126 24.5zM281 458q-64 0 -102 -20t-54.5 -67t-16.5 -130q0 -82 16.5 -130t54.5 -68t102 -20t102 20t55 68
t17 130q0 83 -17 130t-55 67t-102 20zM376 677q14 0 14 -14v-56q0 -14 -14 -14h-15q-13 0 -13 14v56q0 14 13 14h15zM199 677q13 0 13 -14v-56q0 -14 -13 -14h-15q-13 0 -13 14v56q0 14 13 14h15z" />
    <glyph glyph-name="divide" unicode="&#xf7;" horiz-adv-x="584" 
d="M503 312v-33h-422v33h422zM297 176q9 0 13 -4t4 -13v-59q0 -9 -4 -13t-13 -4h-13q-9 0 -13 4t-4 13v59q0 9 4 13t13 4h13zM297 508q9 0 13 -4t4 -13v-59q0 -9 -4 -13t-13 -4h-13q-9 0 -13 4t-4 13v59q0 9 4 13t13 4h13z" />
    <glyph glyph-name="oslash" unicode="&#xf8;" horiz-adv-x="562" 
d="M404 544l24 -11l-278 -598l-25 12zM281 494q80 0 127 -24.5t67.5 -80t20.5 -148.5q0 -92 -20.5 -148t-67.5 -80.5t-127 -24.5q-79 0 -126.5 24.5t-68 80.5t-20.5 148q0 93 20.5 148.5t68 80t126.5 24.5zM281 458q-64 0 -102 -20t-54.5 -67t-16.5 -130q0 -82 16.5 -130
t54.5 -68t102 -20t102 20t55 68t17 130q0 83 -17 130t-55 67t-102 20z" />
    <glyph glyph-name="ugrave" unicode="&#xf9;" horiz-adv-x="563" 
d="M127 482v-354q-1 -54 24 -79t77 -25q50 0 97 24t112 70l3 -33q-59 -48 -114 -72.5t-109 -24.5q-130 0 -130 132v362h40zM472 482v-482h-31l-4 89l-5 16v377h40zM170 718l155 -145l-18 -20l-163 135z" />
    <glyph glyph-name="uacute" unicode="&#xfa;" horiz-adv-x="563" 
d="M127 482v-354q-1 -54 24 -79t77 -25q50 0 97 24t112 70l3 -33q-59 -48 -114 -72.5t-109 -24.5q-130 0 -130 132v362h40zM472 482v-482h-31l-4 89l-5 16v377h40zM382 720l26 -30l-163 -135l-18 19z" />
    <glyph glyph-name="ucircumflex" unicode="&#xfb;" horiz-adv-x="563" 
d="M127 482v-354q-1 -54 24 -79t77 -25q50 0 97 24t112 70l3 -33q-59 -48 -114 -72.5t-109 -24.5q-130 0 -130 132v362h40zM472 482v-482h-31l-4 89l-5 16v377h40zM295 703l136 -119l-16 -19l-130 101h-8l-129 -101l-17 19l135 119h29z" />
    <glyph glyph-name="udieresis" unicode="&#xfc;" horiz-adv-x="563" 
d="M127 482v-354q-1 -54 24 -79t77 -25q50 0 97 24t112 70l3 -33q-59 -48 -114 -72.5t-109 -24.5q-130 0 -130 132v362h40zM472 482v-482h-31l-4 89l-5 16v377h40zM377 679q14 0 14 -14v-56q0 -14 -14 -14h-15q-13 0 -13 14v56q0 14 13 14h15zM200 679q13 0 13 -14v-56
q0 -14 -13 -14h-15q-13 0 -13 14v56q0 14 13 14h15z" />
    <glyph glyph-name="yacute" unicode="&#xfd;" horiz-adv-x="512" 
d="M486 482l-215 -524q-13 -30 -27.5 -57t-34.5 -49.5t-46 -38t-62 -22.5l-6 25q59 22 90 61t50 89l21 50q7 17 14 36.5t14 35.5l158 394h44zM70 482l158 -395q5 -14 11 -27t10 -27h20l-14 -33h-19q-5 0 -10 3t-7 9l-192 470h43zM360 720l26 -30l-163 -135l-18 19z" />
    <glyph glyph-name="thorn" unicode="&#xfe;" horiz-adv-x="565" 
d="M323 494q95 0 134.5 -58.5t39.5 -195.5q0 -92 -18 -147.5t-56 -80t-101 -24.5q-50 0 -100 14t-101 41l4 28q58 -24 101.5 -36t88.5 -12q51 0 82 21t45 68.5t14 127.5q0 81 -14 128.5t-45 68.5t-81 21q-45 0 -88.5 -21t-101.5 -64l-5 32q51 43 100.5 66t101.5 23zM130 700
v-195v-49t-3 -48l3 -12v-340l-3 -12q3 -27 3 -49v-48v-155h-39v908h39z" />
    <glyph glyph-name="ydieresis" unicode="&#xff;" horiz-adv-x="512" 
d="M486 482l-215 -524q-13 -30 -27.5 -57t-34.5 -49.5t-46 -38t-62 -22.5l-6 25q59 22 90 61t50 89l21 50q7 17 14 36.5t14 35.5l158 394h44zM70 482l158 -395q5 -14 11 -27t10 -27h20l-14 -33h-19q-5 0 -10 3t-7 9l-192 470h43zM354 678q14 0 14 -14v-56q0 -14 -14 -14h-15
q-13 0 -13 14v56q0 14 13 14h15zM177 678q13 0 13 -14v-56q0 -14 -13 -14h-15q-13 0 -13 14v56q0 14 13 14h15z" />
    <glyph glyph-name="Amacron" unicode="&#x100;" horiz-adv-x="608" 
d="M332 690q7 0 11.5 -3t6.5 -10l241 -677h-43l-210 600l-10 28l-10 28h-28l-10 -28l-10 -28l-210 -600h-43l241 677q2 7 7 10t11 3h56zM478 279v-36h-350v36h350zM436 831v-33h-264v33h264z" />
    <glyph glyph-name="amacron" unicode="&#x101;" horiz-adv-x="541" 
d="M312 494q45 0 77 -14t48.5 -44.5t16.5 -81.5v-354h-30l-8 106l-2 7v241q0 46 -22 75t-85 29q-50 0 -108.5 -4.5t-112.5 -10.5l-4 30q32 5 67.5 9.5t76 8t86.5 3.5zM429 293l-1 -32l-242 -3q-42 -1 -62.5 -22t-20.5 -61v-54q0 -45 23.5 -67.5t70.5 -23.5q36 -1 78 12.5
t82 37.5t68 53v-35q-14 -16 -38 -33.5t-55 -34t-66.5 -27t-72.5 -10.5q-40 0 -69.5 14.5t-45.5 42.5t-16 68v60q0 55 31.5 85t88.5 30h247zM401 651v-33h-264v33h264z" />
    <glyph glyph-name="Abreve" unicode="&#x102;" horiz-adv-x="608" 
d="M332 690q7 0 11.5 -3t6.5 -10l241 -677h-43l-210 600l-10 28l-10 28h-28l-10 -28l-10 -28l-210 -600h-43l241 677q2 7 7 10t11 3h56zM478 279v-36h-350v36h350zM418 873l25 -4q1 -36 -16 -63t-48 -41.5t-75 -14.5q-43 0 -75 14.5t-49 41.5t-16 63l24 4q0 -42 31 -65.5
t85 -23.5q53 0 83.5 23.5t30.5 65.5z" />
    <glyph glyph-name="abreve" unicode="&#x103;" horiz-adv-x="541" 
d="M312 494q45 0 77 -14t48.5 -44.5t16.5 -81.5v-354h-30l-8 106l-2 7v241q0 46 -22 75t-85 29q-50 0 -108.5 -4.5t-112.5 -10.5l-4 30q32 5 67.5 9.5t76 8t86.5 3.5zM429 293l-1 -32l-242 -3q-42 -1 -62.5 -22t-20.5 -61v-54q0 -45 23.5 -67.5t70.5 -23.5q36 -1 78 12.5
t82 37.5t68 53v-35q-14 -16 -38 -33.5t-55 -34t-66.5 -27t-72.5 -10.5q-40 0 -69.5 14.5t-45.5 42.5t-16 68v60q0 55 31.5 85t88.5 30h247zM382 694l25 -4q1 -36 -16 -63t-48 -41.5t-75 -14.5q-43 0 -75 14.5t-49 41.5t-16 63l24 4q0 -42 31 -65.5t85 -23.5q53 0 83.5 23.5
t30.5 65.5z" />
    <glyph glyph-name="Aogonek" unicode="&#x104;" horiz-adv-x="608" 
d="M332 690q7 0 11.5 -3t6.5 -10l241 -677h-43l-210 600l-10 28l-10 28h-28l-10 -28l-10 -28l-210 -600h-43l241 677q2 7 7 10t11 3h56zM478 279v-36h-350v36h350zM567 2l24 -2q-26 -26 -48 -56t-36 -67q-16 -44 9.5 -58t79.5 5l5 -18q-41 -18 -69 -19t-43.5 11.5t-19 33.5
t5.5 46q9 26 30.5 57t61.5 67z" />
    <glyph glyph-name="aogonek" unicode="&#x105;" horiz-adv-x="541" 
d="M312 494q45 0 77 -14t48.5 -44.5t16.5 -81.5v-354h-30l-8 106l-2 7v241q0 46 -22 75t-85 29q-50 0 -108.5 -4.5t-112.5 -10.5l-4 30q32 5 67.5 9.5t76 8t86.5 3.5zM429 293l-1 -32l-242 -3q-42 -1 -62.5 -22t-20.5 -61v-54q0 -45 23.5 -67.5t70.5 -23.5q36 -1 78 12.5
t82 37.5t68 53v-35q-14 -16 -38 -33.5t-55 -34t-66.5 -27t-72.5 -10.5q-40 0 -69.5 14.5t-45.5 42.5t-16 68v60q0 55 31.5 85t88.5 30h247zM430 2l24 -2q-26 -26 -48 -56t-36 -67q-16 -44 9.5 -58t79.5 5l5 -18q-41 -18 -69 -19t-43.5 11.5t-19 33.5t5.5 46q9 26 30.5 57
t61.5 67z" />
    <glyph glyph-name="Cacute" unicode="&#x106;" horiz-adv-x="563" 
d="M331 702q42 0 71.5 -2t54.5 -6t52 -10l-7 -30q-28 4 -52.5 6.5t-52.5 3.5t-66 1q-80 0 -127 -30.5t-68 -100.5t-21 -189t21 -189t68 -100.5t127 -30.5q61 0 103 3t82 10l7 -31q-41 -10 -84 -14.5t-108 -4.5q-95 0 -152 34.5t-82 112.5t-25 210t25 210t82 112.5t152 34.5z
M422 901l26 -30l-163 -135l-18 19z" />
    <glyph glyph-name="cacute" unicode="&#x107;" horiz-adv-x="481" 
d="M287 494q20 0 44 -1.5t49.5 -5.5t47.5 -12l-7 -27q-28 6 -65 8t-62 2q-68 0 -109 -19.5t-59.5 -66.5t-18.5 -131t18.5 -131.5t59.5 -66.5t109 -19q14 0 38 1t51.5 3.5t49.5 6.5l6 -28q-34 -8 -73.5 -13.5t-77.5 -5.5q-81 0 -130 24.5t-71 80.5t-22 148q0 93 22 148.5
t71 80t129 24.5zM372 720l26 -30l-163 -135l-18 19z" />
    <glyph glyph-name="Ccircumflex" unicode="&#x108;" horiz-adv-x="563" 
d="M331 702q42 0 71.5 -2t54.5 -6t52 -10l-7 -30q-28 4 -52.5 6.5t-52.5 3.5t-66 1q-80 0 -127 -30.5t-68 -100.5t-21 -189t21 -189t68 -100.5t127 -30.5q61 0 103 3t82 10l7 -31q-41 -10 -84 -14.5t-108 -4.5q-95 0 -152 34.5t-82 112.5t-25 210t25 210t82 112.5t152 34.5z
M335 884l136 -119l-16 -19l-130 101h-8l-129 -101l-17 19l135 119h29z" />
    <glyph glyph-name="ccircumflex" unicode="&#x109;" horiz-adv-x="481" 
d="M287 494q20 0 44 -1.5t49.5 -5.5t47.5 -12l-7 -27q-28 6 -65 8t-62 2q-68 0 -109 -19.5t-59.5 -66.5t-18.5 -131t18.5 -131.5t59.5 -66.5t109 -19q14 0 38 1t51.5 3.5t49.5 6.5l6 -28q-34 -8 -73.5 -13.5t-77.5 -5.5q-81 0 -130 24.5t-71 80.5t-22 148q0 93 22 148.5
t71 80t129 24.5zM285 702l136 -119l-16 -19l-130 101h-8l-129 -101l-17 19l135 119h29z" />
    <glyph glyph-name="Cdotaccent" unicode="&#x10a;" horiz-adv-x="563" 
d="M331 702q42 0 71.5 -2t54.5 -6t52 -10l-7 -30q-28 4 -52.5 6.5t-52.5 3.5t-66 1q-80 0 -127 -30.5t-68 -100.5t-21 -189t21 -189t68 -100.5t127 -30.5q61 0 103 3t82 10l7 -31q-41 -10 -84 -14.5t-108 -4.5q-95 0 -152 34.5t-82 112.5t-25 210t25 210t82 112.5t152 34.5z
M329 861q16 0 16 -15v-61q0 -15 -16 -15h-14q-16 0 -16 15v61q0 15 16 15h14z" />
    <glyph glyph-name="cdotaccent" unicode="&#x10b;" horiz-adv-x="481" 
d="M287 494q20 0 44 -1.5t49.5 -5.5t47.5 -12l-7 -27q-28 6 -65 8t-62 2q-68 0 -109 -19.5t-59.5 -66.5t-18.5 -131t18.5 -131.5t59.5 -66.5t109 -19q14 0 38 1t51.5 3.5t49.5 6.5l6 -28q-34 -8 -73.5 -13.5t-77.5 -5.5q-81 0 -130 24.5t-71 80.5t-22 148q0 93 22 148.5
t71 80t129 24.5zM279 680q16 0 16 -15v-61q0 -15 -16 -15h-14q-16 0 -16 15v61q0 15 16 15h14z" />
    <glyph glyph-name="Ccaron" unicode="&#x10c;" horiz-adv-x="563" 
d="M331 702q42 0 71.5 -2t54.5 -6t52 -10l-7 -30q-28 4 -52.5 6.5t-52.5 3.5t-66 1q-80 0 -127 -30.5t-68 -100.5t-21 -189t21 -189t68 -100.5t127 -30.5q61 0 103 3t82 10l7 -31q-41 -10 -84 -14.5t-108 -4.5q-95 0 -152 34.5t-82 112.5t-25 210t25 210t82 112.5t152 34.5z
M457 888l16 -18l-138 -120h-24l-139 120l18 18l129 -98h8z" />
    <glyph glyph-name="ccaron" unicode="&#x10d;" horiz-adv-x="481" 
d="M287 494q20 0 44 -1.5t49.5 -5.5t47.5 -12l-7 -27q-28 6 -65 8t-62 2q-68 0 -109 -19.5t-59.5 -66.5t-18.5 -131t18.5 -131.5t59.5 -66.5t109 -19q14 0 38 1t51.5 3.5t49.5 6.5l6 -28q-34 -8 -73.5 -13.5t-77.5 -5.5q-81 0 -130 24.5t-71 80.5t-22 148q0 93 22 148.5
t71 80t129 24.5zM407 706l16 -18l-138 -120h-24l-139 120l18 18l129 -98h8z" />
    <glyph glyph-name="Dcaron" unicode="&#x10e;" horiz-adv-x="660" 
d="M332 699q71 0 119.5 -18.5t78.5 -60t44 -109t14 -166.5q0 -98 -14 -166t-44 -109.5t-78.5 -60t-119.5 -18.5q-67 0 -124.5 2.5t-108.5 6.5l19 31q47 -1 99 -2t115 -1q79 0 125.5 30t67 99.5t20.5 187.5t-20.5 187.5t-67 99.5t-125.5 30q-63 0 -115 -1t-101 -2l-17 31
q51 4 109 6.5t124 2.5zM140 690v-690h-41v690h41zM458 888l16 -18l-138 -120h-24l-139 120l18 18l129 -98h8z" />
    <glyph glyph-name="dcaron" unicode="&#x10f;" horiz-adv-x="564" 
d="M244 494q49 0 97.5 -13.5t99.5 -36.5l-2 -31q-57 22 -100.5 33.5t-89.5 11.5q-50 0 -81 -20t-45.5 -68t-14.5 -128q0 -81 14 -128.5t45 -68.5t81 -21q31 0 59.5 10t60.5 30.5t71 52.5l1 -35q-50 -44 -98.5 -69t-101.5 -25q-93 0 -133 60t-40 193q0 92 18 147.5t57 80.5
t102 25zM473 700v-700h-30l-6 84l-4 5v337l4 16q-3 26 -3.5 48t-0.5 49v161h40zM553 702q8 0 11.5 -4t4.5 -11l-1 -55q-1 -26 -6 -57t-13 -57l-17 5l3.5 45.5t1.5 52.5q-11 0 -10 12l1 54q-1 7 2.5 11t11.5 4h11z" />
    <glyph glyph-name="Dcroat" unicode="&#x110;" 
d="M318 384v-28h-293v28h293zM336 699q70 0 119 -18.5t79 -60t43.5 -109t13.5 -166.5q0 -98 -13.5 -166t-43.5 -109.5t-79 -60t-119 -18.5q-68 0 -125.5 2.5t-108.5 6.5l20 31q46 -1 98 -2t116 -1q78 0 125 30t67 99.5t20 187.5t-20 187.5t-67 99.5t-125 30q-64 0 -116 -1
t-101 -2l-17 31q51 4 109 6.5t125 2.5zM143 690v-690h-41v690h41z" />
    <glyph glyph-name="dcroat" unicode="&#x111;" horiz-adv-x="557" 
d="M546 613v-27h-283v27h283zM244 494q49 0 97.5 -13.5t99.5 -36.5l-2 -31q-57 22 -100.5 33.5t-89.5 11.5q-50 0 -81 -20t-45.5 -68t-14.5 -128q0 -81 14 -128.5t45 -68.5t81 -21q31 0 59.5 10t60.5 30.5t71 52.5l1 -35q-50 -44 -98.5 -69t-101.5 -25q-93 0 -133 60
t-40 193q0 92 18 147.5t57 80.5t102 25zM473 700v-700h-30l-6 84l-4 5v337l4 16q-3 26 -3.5 48t-0.5 49v161h40z" />
    <glyph glyph-name="Emacron" unicode="&#x112;" horiz-adv-x="553" 
d="M203 690h98.5t98.5 -1t97 -3l-2 -31h-285q-34 0 -55 -21.5t-21 -56.5v-464q0 -35 21 -56.5t55 -21.5h285l2 -31q-48 -2 -97 -3t-98.5 -1h-98.5t-79.5 30t-30.5 76v478q0 47 30.5 76.5t79.5 29.5zM110 386l344 -1v-33l-344 -1v35zM442 854v-33h-264v33h264z" />
    <glyph glyph-name="emacron" unicode="&#x113;" horiz-adv-x="530" 
d="M276 494q98 0 145.5 -35.5t48.5 -106.5q2 -64 -22.5 -97.5t-83.5 -33.5h-280v33h274q41 0 57 26t14 70q-1 57 -38 82.5t-113 25.5q-64 0 -101.5 -20t-53.5 -67t-16 -126q0 -84 18.5 -132.5t59 -68.5t104.5 -20q47 0 90.5 4t74.5 8l5 -28q-18 -6 -49 -10.5t-65 -7
t-61 -2.5q-78 0 -126 25.5t-70.5 81.5t-22.5 148q0 93 21.5 148t68 79t121.5 24zM410 651v-33h-264v33h264z" />
    <glyph glyph-name="Ebreve" unicode="&#x114;" horiz-adv-x="553" 
d="M203 690h98.5t98.5 -1t97 -3l-2 -31h-285q-34 0 -55 -21.5t-21 -56.5v-464q0 -35 21 -56.5t55 -21.5h285l2 -31q-48 -2 -97 -3t-98.5 -1h-98.5t-79.5 30t-30.5 76v478q0 47 30.5 76.5t79.5 29.5zM110 386l344 -1v-33l-344 -1v35zM424 897l25 -4q1 -36 -16 -63t-48 -41.5
t-75 -14.5q-43 0 -75 14.5t-49 41.5t-16 63l24 4q0 -42 31 -65.5t85 -23.5q53 0 83.5 23.5t30.5 65.5z" />
    <glyph glyph-name="ebreve" unicode="&#x115;" horiz-adv-x="530" 
d="M276 494q98 0 145.5 -35.5t48.5 -106.5q2 -64 -22.5 -97.5t-83.5 -33.5h-280v33h274q41 0 57 26t14 70q-1 57 -38 82.5t-113 25.5q-64 0 -101.5 -20t-53.5 -67t-16 -126q0 -84 18.5 -132.5t59 -68.5t104.5 -20q47 0 90.5 4t74.5 8l5 -28q-18 -6 -49 -10.5t-65 -7
t-61 -2.5q-78 0 -126 25.5t-70.5 81.5t-22.5 148q0 93 21.5 148t68 79t121.5 24zM392 694l25 -4q1 -36 -16 -63t-48 -41.5t-75 -14.5q-43 0 -75 14.5t-49 41.5t-16 63l24 4q0 -42 31 -65.5t85 -23.5q53 0 83.5 23.5t30.5 65.5z" />
    <glyph glyph-name="Edotaccent" unicode="&#x116;" horiz-adv-x="553" 
d="M203 690h98.5t98.5 -1t97 -3l-2 -31h-285q-34 0 -55 -21.5t-21 -56.5v-464q0 -35 21 -56.5t55 -21.5h285l2 -31q-48 -2 -97 -3t-98.5 -1h-98.5t-79.5 30t-30.5 76v478q0 47 30.5 76.5t79.5 29.5zM110 386l344 -1v-33l-344 -1v35zM317 883q16 0 16 -15v-61q0 -15 -16 -15
h-14q-16 0 -16 15v61q0 15 16 15h14z" />
    <glyph glyph-name="edotaccent" unicode="&#x117;" horiz-adv-x="530" 
d="M276 494q98 0 145.5 -35.5t48.5 -106.5q2 -64 -22.5 -97.5t-83.5 -33.5h-280v33h274q41 0 57 26t14 70q-1 57 -38 82.5t-113 25.5q-64 0 -101.5 -20t-53.5 -67t-16 -126q0 -84 18.5 -132.5t59 -68.5t104.5 -20q47 0 90.5 4t74.5 8l5 -28q-18 -6 -49 -10.5t-65 -7
t-61 -2.5q-78 0 -126 25.5t-70.5 81.5t-22.5 148q0 93 21.5 148t68 79t121.5 24zM285 680q16 0 16 -15v-61q0 -15 -16 -15h-14q-16 0 -16 15v61q0 15 16 15h14z" />
    <glyph glyph-name="Eogonek" unicode="&#x118;" horiz-adv-x="553" 
d="M203 690h98.5t98.5 -1t97 -3l-2 -31h-285q-34 0 -55 -21.5t-21 -56.5v-464q0 -35 21 -56.5t55 -21.5h285l2 -31q-48 -2 -97 -3t-98.5 -1h-98.5t-79.5 30t-30.5 76v478q0 47 30.5 76.5t79.5 29.5zM110 386l344 -1v-33l-344 -1v35zM474 6l24 -2q-26 -26 -48 -56t-36 -67
q-16 -44 9.5 -58t79.5 5l5 -18q-41 -18 -69 -19t-43.5 11.5t-19 33.5t5.5 46q9 26 30.5 57t61.5 67z" />
    <glyph glyph-name="eogonek" unicode="&#x119;" horiz-adv-x="530" 
d="M276 494q98 0 145.5 -35.5t48.5 -106.5q2 -64 -22.5 -97.5t-83.5 -33.5h-280v33h274q41 0 57 26t14 70q-1 57 -38 82.5t-113 25.5q-64 0 -101.5 -20t-53.5 -67t-16 -126q0 -84 18.5 -132.5t59 -68.5t104.5 -20q47 0 90.5 4t74.5 8l5 -28q-18 -6 -49 -10.5t-65 -7
t-61 -2.5q-78 0 -126 25.5t-70.5 81.5t-22.5 148q0 93 21.5 148t68 79t121.5 24zM435 11l24 -2q-26 -26 -48 -56t-36 -67q-16 -44 9.5 -58t79.5 5l5 -18q-41 -18 -69 -19t-43.5 11.5t-19 33.5t5.5 46q9 26 30.5 57t61.5 67z" />
    <glyph glyph-name="Ecaron" unicode="&#x11a;" horiz-adv-x="553" 
d="M203 690h98.5t98.5 -1t97 -3l-2 -31h-285q-34 0 -55 -21.5t-21 -56.5v-464q0 -35 21 -56.5t55 -21.5h285l2 -31q-48 -2 -97 -3t-98.5 -1h-98.5t-79.5 30t-30.5 76v478q0 47 30.5 76.5t79.5 29.5zM110 386l344 -1v-33l-344 -1v35zM445 910l16 -18l-138 -120h-24l-139 120
l18 18l129 -98h8z" />
    <glyph glyph-name="ecaron" unicode="&#x11b;" horiz-adv-x="530" 
d="M276 494q98 0 145.5 -35.5t48.5 -106.5q2 -64 -22.5 -97.5t-83.5 -33.5h-280v33h274q41 0 57 26t14 70q-1 57 -38 82.5t-113 25.5q-64 0 -101.5 -20t-53.5 -67t-16 -126q0 -84 18.5 -132.5t59 -68.5t104.5 -20q47 0 90.5 4t74.5 8l5 -28q-18 -6 -49 -10.5t-65 -7
t-61 -2.5q-78 0 -126 25.5t-70.5 81.5t-22.5 148q0 93 21.5 148t68 79t121.5 24zM413 706l16 -18l-138 -120h-24l-139 120l18 18l129 -98h8z" />
    <glyph glyph-name="Gcircumflex" unicode="&#x11c;" horiz-adv-x="624" 
d="M338 702q43 0 76 -2t61.5 -5.5t57.5 -10.5l-7 -30q-31 4 -59.5 6.5t-59 3.5t-68.5 1q-62 0 -105 -16t-69 -52.5t-37.5 -98.5t-11.5 -154q0 -113 18.5 -183.5t60 -103t110.5 -32.5q47 0 83 14.5t66 36.5t56 45l7 -28q-24 -28 -57.5 -52t-73.5 -38.5t-88 -14.5
q-81 0 -130.5 37.5t-72.5 116.5t-23 204q0 133 25.5 211t84 111.5t156.5 33.5zM546 400v-400h-29l-9 100l-3 14v286h41zM338 886l136 -119l-16 -19l-130 101h-8l-129 -101l-17 19l135 119h29z" />
    <glyph glyph-name="gcircumflex" unicode="&#x11d;" horiz-adv-x="548" 
d="M270 494q71 0 113.5 -17t61.5 -50t19 -84q0 -50 -19 -83.5t-61.5 -49.5t-114.5 -16q-70 0 -113.5 16t-63 49.5t-19.5 83.5q0 51 19.5 84t62.5 50t115 17zM269 461q-87 0 -122.5 -29t-35.5 -89t36 -88t122 -28q88 0 122.5 28t34.5 88t-34.5 89t-122.5 29zM521 482l-3 -26
l-120 -5l-35 31h158zM135 228l28 -4q-25 -23 -33.5 -50.5t5.5 -49.5t57 -30l190 -32q65 -11 87 -41.5t22 -88.5q0 -53 -21 -83.5t-69 -44t-126 -13.5q-62 0 -104.5 7.5t-68.5 23.5t-37.5 43t-11.5 66q0 34 6 57.5t22 42t44 33.5l47 26l28 -9l-50 -32q-23 -15 -35.5 -30.5
t-17.5 -35.5t-5 -50q0 -40 17.5 -63.5t57.5 -33.5t107 -10q66 0 105 10t56 33.5t17 63.5q0 30 -6.5 49t-25.5 30.5t-55 17.5l-192 32q-31 5 -50 19.5t-27 34t-5 40t14 40t30 32.5zM284 702l136 -119l-16 -19l-130 101h-8l-129 -101l-17 19l135 119h29z" />
    <glyph glyph-name="Gbreve" unicode="&#x11e;" horiz-adv-x="624" 
d="M338 702q43 0 76 -2t61.5 -5.5t57.5 -10.5l-7 -30q-31 4 -59.5 6.5t-59 3.5t-68.5 1q-62 0 -105 -16t-69 -52.5t-37.5 -98.5t-11.5 -154q0 -113 18.5 -183.5t60 -103t110.5 -32.5q47 0 83 14.5t66 36.5t56 45l7 -28q-24 -28 -57.5 -52t-73.5 -38.5t-88 -14.5
q-81 0 -130.5 37.5t-72.5 116.5t-23 204q0 133 25.5 211t84 111.5t156.5 33.5zM546 400v-400h-29l-9 100l-3 14v286h41zM439 877l25 -4q1 -36 -16 -63t-48 -41.5t-75 -14.5q-43 0 -75 14.5t-49 41.5t-16 63l24 4q0 -42 31 -65.5t85 -23.5q53 0 83.5 23.5t30.5 65.5z" />
    <glyph glyph-name="gbreve" unicode="&#x11f;" horiz-adv-x="548" 
d="M270 494q71 0 113.5 -17t61.5 -50t19 -84q0 -50 -19 -83.5t-61.5 -49.5t-114.5 -16q-70 0 -113.5 16t-63 49.5t-19.5 83.5q0 51 19.5 84t62.5 50t115 17zM269 461q-87 0 -122.5 -29t-35.5 -89t36 -88t122 -28q88 0 122.5 28t34.5 88t-34.5 89t-122.5 29zM521 482l-3 -26
l-120 -5l-35 31h158zM135 228l28 -4q-25 -23 -33.5 -50.5t5.5 -49.5t57 -30l190 -32q65 -11 87 -41.5t22 -88.5q0 -53 -21 -83.5t-69 -44t-126 -13.5q-62 0 -104.5 7.5t-68.5 23.5t-37.5 43t-11.5 66q0 34 6 57.5t22 42t44 33.5l47 26l28 -9l-50 -32q-23 -15 -35.5 -30.5
t-17.5 -35.5t-5 -50q0 -40 17.5 -63.5t57.5 -33.5t107 -10q66 0 105 10t56 33.5t17 63.5q0 30 -6.5 49t-25.5 30.5t-55 17.5l-192 32q-31 5 -50 19.5t-27 34t-5 40t14 40t30 32.5zM384 694l25 -4q1 -36 -16 -63t-48 -41.5t-75 -14.5q-43 0 -75 14.5t-49 41.5t-16 63l24 4
q0 -42 31 -65.5t85 -23.5q53 0 83.5 23.5t30.5 65.5z" />
    <glyph glyph-name="Gdotaccent" unicode="&#x120;" horiz-adv-x="624" 
d="M338 702q43 0 76 -2t61.5 -5.5t57.5 -10.5l-7 -30q-31 4 -59.5 6.5t-59 3.5t-68.5 1q-62 0 -105 -16t-69 -52.5t-37.5 -98.5t-11.5 -154q0 -113 18.5 -183.5t60 -103t110.5 -32.5q47 0 83 14.5t66 36.5t56 45l7 -28q-24 -28 -57.5 -52t-73.5 -38.5t-88 -14.5
q-81 0 -130.5 37.5t-72.5 116.5t-23 204q0 133 25.5 211t84 111.5t156.5 33.5zM546 400v-400h-29l-9 100l-3 14v286h41zM332 863q16 0 16 -15v-61q0 -15 -16 -15h-14q-16 0 -16 15v61q0 15 16 15h14z" />
    <glyph glyph-name="gdotaccent" unicode="&#x121;" horiz-adv-x="548" 
d="M270 494q71 0 113.5 -17t61.5 -50t19 -84q0 -50 -19 -83.5t-61.5 -49.5t-114.5 -16q-70 0 -113.5 16t-63 49.5t-19.5 83.5q0 51 19.5 84t62.5 50t115 17zM269 461q-87 0 -122.5 -29t-35.5 -89t36 -88t122 -28q88 0 122.5 28t34.5 88t-34.5 89t-122.5 29zM521 482l-3 -26
l-120 -5l-35 31h158zM135 228l28 -4q-25 -23 -33.5 -50.5t5.5 -49.5t57 -30l190 -32q65 -11 87 -41.5t22 -88.5q0 -53 -21 -83.5t-69 -44t-126 -13.5q-62 0 -104.5 7.5t-68.5 23.5t-37.5 43t-11.5 66q0 34 6 57.5t22 42t44 33.5l47 26l28 -9l-50 -32q-23 -15 -35.5 -30.5
t-17.5 -35.5t-5 -50q0 -40 17.5 -63.5t57.5 -33.5t107 -10q66 0 105 10t56 33.5t17 63.5q0 30 -6.5 49t-25.5 30.5t-55 17.5l-192 32q-31 5 -50 19.5t-27 34t-5 40t14 40t30 32.5zM278 680q16 0 16 -15v-61q0 -15 -16 -15h-14q-16 0 -16 15v61q0 15 16 15h14z" />
    <glyph glyph-name="uni0122" unicode="&#x122;" horiz-adv-x="624" 
d="M329 -63q8 0 11.5 -3.5t4.5 -12.5l-1 -57q0 -18 -2.5 -38.5t-7 -42t-10.5 -38.5l-18 5q3 27 4 47.5t1 55.5q-11 0 -10 12l1 56q-1 9 3 12.5t12 3.5h12zM338 702q43 0 76 -2t61.5 -5.5t57.5 -10.5l-7 -30q-31 4 -59.5 6.5t-59 3.5t-68.5 1q-62 0 -105 -16t-69 -52.5
t-37.5 -98.5t-11.5 -154q0 -113 18.5 -183.5t60 -103t110.5 -32.5q47 0 83 14.5t66 36.5t56 45l7 -28q-24 -28 -57.5 -52t-73.5 -38.5t-88 -14.5q-81 0 -130.5 37.5t-72.5 116.5t-23 204q0 133 25.5 211t84 111.5t156.5 33.5zM546 400v-400h-29l-9 100l-3 14v286h41z" />
    <glyph glyph-name="uni0123" unicode="&#x123;" horiz-adv-x="548" 
d="M271 564q-9 0 -12.5 3.5t-4.5 11.5l1 57q0 19 2.5 39.5t7 41.5t10.5 39l18 -6q-3 -27 -4 -47.5t-1 -54.5q12 0 10 -13v-56q0 -8 -3.5 -11.5t-12.5 -3.5h-11zM270 494q71 0 113.5 -17t61.5 -50t19 -84q0 -50 -19 -83.5t-61.5 -49.5t-114.5 -16q-70 0 -113.5 16t-63 49.5
t-19.5 83.5q0 51 19.5 84t62.5 50t115 17zM269 461q-87 0 -122.5 -29t-35.5 -89t36 -88t122 -28q88 0 122.5 28t34.5 88t-34.5 89t-122.5 29zM521 482l-3 -26l-120 -5l-35 31h158zM135 228l28 -4q-25 -23 -33.5 -50.5t5.5 -49.5t57 -30l190 -32q65 -11 87 -41.5t22 -88.5
q0 -53 -21 -83.5t-69 -44t-126 -13.5q-62 0 -104.5 7.5t-68.5 23.5t-37.5 43t-11.5 66q0 34 6 57.5t22 42t44 33.5l47 26l28 -9l-50 -32q-23 -15 -35.5 -30.5t-17.5 -35.5t-5 -50q0 -40 17.5 -63.5t57.5 -33.5t107 -10q66 0 105 10t56 33.5t17 63.5q0 30 -6.5 49t-25.5 30.5
t-55 17.5l-192 32q-31 5 -50 19.5t-27 34t-5 40t14 40t30 32.5z" />
    <glyph glyph-name="Hcircumflex" unicode="&#x124;" horiz-adv-x="660" 
d="M140 690v-690h-41v690h41zM531 388v-36h-399v36h399zM561 690v-690h-41v690h41zM345 890l136 -119l-16 -19l-130 101h-8l-129 -101l-17 19l135 119h29z" />
    <glyph glyph-name="hcircumflex" unicode="&#x125;" horiz-adv-x="572" 
d="M355 494q130 0 130 -132v-362h-40v354q0 55 -24 79.5t-75 24.5q-53 0 -102.5 -24t-118.5 -71l-1 33q61 46 118.5 72t112.5 26zM130 700l1 -209q0 -28 -1 -53t-5 -45l5 -16v-377h-40v700h40zM122 851l136 -119l-16 -19l-130 101h-8l-129 -101l-17 19l135 119h29z" />
    <glyph glyph-name="Hbar" unicode="&#x126;" horiz-adv-x="668" 
d="M642 550v-27h-617v27h617zM144 690v-690h-41v690h41zM535 388v-36h-399v36h399zM565 690v-690h-41v690h41z" />
    <glyph glyph-name="hbar" unicode="&#x127;" horiz-adv-x="576" 
d="M294 613v-27h-283v27h283zM359 494q130 0 130 -132v-362h-40v354q0 55 -24 79.5t-75 24.5q-53 0 -102.5 -24t-118.5 -71l-1 33q61 46 118.5 72t112.5 26zM134 700l1 -209q0 -28 -1 -53t-5 -45l5 -16v-377h-40v700h40z" />
    <glyph glyph-name="Itilde" unicode="&#x128;" horiz-adv-x="239" 
d="M140 690v-690h-41v690h41zM47 869q22 -2 39 -11.5t32.5 -21t32.5 -20.5t38 -12q31 -2 43.5 12.5t12.5 47.5h23q3 -46 -18.5 -70.5t-57.5 -21.5q-33 3 -55.5 18t-42.5 30t-45 17q-30 3 -42.5 -12.5t-12.5 -50.5h-23q-2 33 7.5 55t27.5 32t41 8z" />
    <glyph glyph-name="itilde" unicode="&#x129;" horiz-adv-x="227" 
d="M134 482v-482h-40v482h40zM41 688q22 -2 39 -11.5t32.5 -21t32.5 -20.5t38 -12q31 -2 43.5 12.5t12.5 47.5h23q3 -46 -18.5 -70.5t-57.5 -21.5q-33 3 -55.5 18t-42.5 30t-45 17q-30 3 -42.5 -12.5t-12.5 -50.5h-23q-2 33 7.5 55t27.5 32t41 8z" />
    <glyph glyph-name="Imacron" unicode="&#x12a;" horiz-adv-x="239" 
d="M140 690v-690h-41v690h41zM251 832v-33h-264v33h264z" />
    <glyph glyph-name="imacron" unicode="&#x12b;" horiz-adv-x="227" 
d="M134 482v-482h-40v482h40zM245 651v-33h-264v33h264z" />
    <glyph glyph-name="Ibreve" unicode="&#x12c;" horiz-adv-x="239" 
d="M140 690v-690h-41v690h41zM233 875l25 -4q1 -36 -16 -63t-48 -41.5t-75 -14.5q-43 0 -75 14.5t-49 41.5t-16 63l24 4q0 -42 31 -65.5t85 -23.5q53 0 83.5 23.5t30.5 65.5z" />
    <glyph glyph-name="ibreve" unicode="&#x12d;" horiz-adv-x="227" 
d="M134 482v-482h-40v482h40zM227 694l25 -4q1 -36 -16 -63t-48 -41.5t-75 -14.5q-43 0 -75 14.5t-49 41.5t-16 63l24 4q0 -42 31 -65.5t85 -23.5q53 0 83.5 23.5t30.5 65.5z" />
    <glyph glyph-name="Iogonek" unicode="&#x12e;" horiz-adv-x="239" 
d="M140 690v-690h-41v690h41zM114 2l24 -2q-26 -26 -48 -56t-36 -67q-16 -44 9.5 -58t79.5 5l5 -18q-41 -18 -69 -19t-43.5 11.5t-19 33.5t5.5 46q9 26 30.5 57t61.5 67z" />
    <glyph glyph-name="iogonek" unicode="&#x12f;" horiz-adv-x="227" 
d="M134 482v-482h-40v482h40zM120 680q16 0 16 -15v-61q0 -15 -16 -15h-14q-16 0 -16 15v61q0 15 16 15h14zM108 2l24 -2q-26 -26 -48 -56t-36 -67q-16 -44 9.5 -58t79.5 5l5 -18q-41 -18 -69 -19t-43.5 11.5t-19 33.5t5.5 46q9 26 30.5 57t61.5 67z" />
    <glyph glyph-name="Idotaccent" unicode="&#x130;" horiz-adv-x="239" 
d="M140 690v-690h-41v690h41zM126 861q16 0 16 -15v-61q0 -15 -16 -15h-14q-16 0 -16 15v61q0 15 16 15h14z" />
    <glyph glyph-name="dotlessi" unicode="&#x131;" horiz-adv-x="227" 
d="M134 482v-482h-40v482h40z" />
    <glyph glyph-name="IJ" unicode="&#x132;" horiz-adv-x="567" 
d="M140 690v-690h-41v690h41zM471 690v-567q0 -64 -31 -97.5t-94 -32.5q-10 0 -23 1t-26 3t-22 4l5 28h56q94 0 94 94v567h41z" />
    <glyph glyph-name="ij" unicode="&#x133;" horiz-adv-x="455" 
d="M133 482v-482h-39v482h39zM122 683q16 0 16 -16v-60q0 -16 -16 -16h-17q-16 0 -16 16v60q0 16 16 16h17zM361 482v-519q0 -34 -9 -64.5t-25.5 -57t-38.5 -49.5l-22 17q27 34 41 69.5t14 84.5v519h40zM350 683q15 0 15 -16v-60q0 -16 -15 -16h-18q-15 0 -15 16v60
q0 16 15 16h18z" />
    <glyph glyph-name="Jcircumflex" unicode="&#x134;" horiz-adv-x="328" 
d="M232 690v-567q0 -64 -31 -97.5t-94 -32.5q-10 0 -23 1t-26 3t-22 4l5 28h56q94 0 94 94v567h41zM222 888l136 -119l-16 -19l-130 101h-8l-129 -101l-17 19l135 119h29z" />
    <glyph glyph-name="jcircumflex" unicode="&#x135;" horiz-adv-x="228" 
d="M134 482v-519q0 -34 -9 -64.5t-25.5 -57t-38.5 -49.5l-22 17q27 34 41 69.5t14 84.5v519h40zM127 702l136 -119l-16 -19l-130 101h-8l-129 -101l-17 19l135 119h29z" />
    <glyph glyph-name="uni0136" unicode="&#x136;" horiz-adv-x="569" 
d="M313 -63q9 0 12.5 -3.5t4.5 -12.5l-1 -57q0 -18 -2.5 -38.5t-7 -42t-10.5 -38.5l-18 5q3 27 4 47.5t1 55.5q-12 0 -10 12l1 56q-1 9 2.5 12.5t12.5 3.5h11zM524 690l-223 -300q-7 -9 -13.5 -16.5t-13.5 -12.5v-2q7 -6 14 -13.5t14 -16.5l238 -329h-48l-262 360l247 330
h47zM139 690v-231q0 -27 -1 -49t-4 -49q3 -27 4 -51.5t1 -49.5v-260h-40v690h40zM262 377v-34h-142v34h142z" />
    <glyph glyph-name="uni0137" unicode="&#x137;" horiz-adv-x="482" 
d="M270 -63q9 0 12.5 -3.5t3.5 -12.5v-57q-1 -18 -3 -38.5t-6.5 -42t-11.5 -38.5l-17 5q3 27 4 47.5t1 55.5q-12 0 -11 12l1 56q-1 9 3 12.5t12 3.5h12zM437 482l-173 -184q-5 -5 -13 -12t-13 -11v-2q5 -4 13 -12.5t13 -16.5l189 -244h-48l-213 277l196 205h49zM130 700
l1 -327q0 -27 -1 -49t-5 -49q3 -27 4 -51.5t1 -49.5v-174h-40v700h40zM225 291v-32h-114v32h114z" />
    <glyph glyph-name="kgreenlandic" unicode="&#x138;" horiz-adv-x="482" 
d="M437 482l-174 -200q-5 -6 -13 -13.5t-13 -10.5v-2q5 -4 12.5 -13t13.5 -16l190 -227h-48l-213 255l196 227h49zM130 482l1 -130q1 -28 -0.5 -50t-5.5 -49q3 -27 4 -51t1 -50v-152h-40v482h40zM225 269v-32h-114v32h114z" />
    <glyph glyph-name="Lacute" unicode="&#x139;" horiz-adv-x="509" 
d="M137 690v-577q0 -35 21.5 -56.5t56.5 -21.5h266l1 -30q-68 -4 -137 -4.5t-137 -0.5q-52 0 -82 31t-30 78v581h41zM221 905l26 -30l-163 -135l-18 19z" />
    <glyph glyph-name="lacute" unicode="&#x13a;" horiz-adv-x="277" 
d="M131 700l-1 -594q0 -38 20 -57t57 -19h55l5 -29q-7 -2 -20 -4t-27 -3t-23 -1q-48 0 -77 27.5t-29 79.5v600h40zM212 922l26 -30l-163 -135l-18 19z" />
    <glyph glyph-name="uni013B" unicode="&#x13b;" horiz-adv-x="509" 
d="M306 -71q8 0 11.5 -3.5t4.5 -12.5l-1 -57q0 -18 -2.5 -38.5t-7 -42t-10.5 -38.5l-18 5q3 27 4 47.5t1 55.5q-11 0 -10 13l1 55q-1 9 3 12.5t12 3.5h12zM137 690v-577q0 -35 21.5 -56.5t56.5 -21.5h266l1 -30q-68 -4 -137 -4.5t-137 -0.5q-52 0 -82 31t-30 78v581h41z" />
    <glyph glyph-name="uni013C" unicode="&#x13c;" horiz-adv-x="277" 
d="M173 -71q9 0 12.5 -3.5t4.5 -12.5l-1 -57q0 -18 -2.5 -38.5t-7 -42t-10.5 -38.5l-18 5q3 27 4 47.5t1 55.5q-11 0 -10 13l1 55q-1 9 3 12.5t12 3.5h11zM131 700l-1 -594q0 -38 20 -57t57 -19h55l5 -29q-7 -2 -20 -4t-27 -3t-23 -1q-48 0 -77 27.5t-29 79.5v600h40z" />
    <glyph glyph-name="Lcaron" unicode="&#x13d;" horiz-adv-x="509" 
d="M137 690v-577q0 -35 21.5 -56.5t56.5 -21.5h266l1 -30q-68 -4 -137 -4.5t-137 -0.5q-52 0 -82 31t-30 78v581h41zM307 691q8 0 11.5 -4t4.5 -11l-1 -55q-1 -26 -6 -57t-13 -57l-17 5l3.5 45.5t1.5 52.5q-11 0 -10 12l1 54q-1 7 2.5 11t11.5 4h11z" />
    <glyph glyph-name="lcaron" unicode="&#x13e;" horiz-adv-x="277" 
d="M131 700l-1 -594q0 -38 20 -57t57 -19h55l5 -29q-7 -2 -20 -4t-27 -3t-23 -1q-48 0 -77 27.5t-29 79.5v600h40zM235 702q8 0 11.5 -4t4.5 -11l-1 -55q-1 -26 -6 -57t-13 -57l-17 5l3.5 45.5t1.5 52.5q-11 0 -10 12l1 54q-1 7 2.5 11t11.5 4h11z" />
    <glyph glyph-name="Ldot" unicode="&#x13f;" horiz-adv-x="509" 
d="M352 342q-16 0 -16 15v61q0 15 16 15h14q16 0 16 -15v-61q0 -15 -16 -15h-14zM137 690v-577q0 -35 21.5 -56.5t56.5 -21.5h266l1 -30q-68 -4 -137 -4.5t-137 -0.5q-52 0 -82 31t-30 78v581h41z" />
    <glyph glyph-name="ldot" unicode="&#x140;" horiz-adv-x="297" 
d="M248 344q-16 0 -16 16v60q0 16 16 16h14q16 0 16 -16v-60q0 -16 -16 -16h-14zM131 700l-1 -594q0 -38 20 -57t57 -19h55l5 -29q-7 -2 -20 -4t-27 -3t-23 -1q-48 0 -77 27.5t-29 79.5v600h40z" />
    <glyph glyph-name="Lslash" unicode="&#x141;" horiz-adv-x="513" 
d="M267 453v-29l-242 -106v30zM142 690v-577q0 -35 21 -56.5t57 -21.5h266l1 -30q-68 -4 -137 -4.5t-138 -0.5q-52 0 -81.5 31t-29.5 78v581h41z" />
    <glyph glyph-name="lslash" unicode="&#x142;" horiz-adv-x="309" 
d="M270 453v-30l-242 -105v30zM154 700v-594q0 -38 20 -57t56 -19h56l4 -29q-7 -2 -20 -4t-27 -3t-23 -1q-48 0 -77 27.5t-29 79.5v600h40z" />
    <glyph glyph-name="Nacute" unicode="&#x143;" horiz-adv-x="692" 
d="M594 690v-670q0 -20 -20 -20h-54q-8 0 -13.5 3.5t-9.5 11.5l-298 564q-9 17 -19 36t-18 38h-23q1 -19 1 -38v-37v-578h-41v670q0 20 20 20h50q9 0 14.5 -3.5t9.5 -11.5l290 -551q11 -20 22.5 -42t22.5 -44h25v47.5v46.5v558h41zM460 901l26 -30l-163 -135l-18 19z" />
    <glyph glyph-name="nacute" unicode="&#x144;" horiz-adv-x="573" 
d="M356 494q130 0 130 -132v-362h-40v354q0 55 -24 79.5t-75 24.5q-53 0 -103 -24t-118 -71l-1 33q60 48 117.5 73t113.5 25zM123 482l4 -89l3 -16v-377h-39v482h32zM396 720l26 -30l-163 -135l-18 19z" />
    <glyph glyph-name="uni0145" unicode="&#x145;" horiz-adv-x="692" 
d="M338 -63q9 0 12.5 -3.5t4.5 -12.5l-1 -57q0 -18 -2.5 -38.5t-7 -42t-10.5 -38.5l-18 5q3 27 4 47.5t1 55.5q-12 0 -10 12l1 56q-1 9 2.5 12.5t12.5 3.5h11zM594 690v-670q0 -20 -20 -20h-54q-8 0 -13.5 3.5t-9.5 11.5l-298 564q-9 17 -19 36t-18 38h-23q1 -19 1 -38v-37
v-578h-41v670q0 20 20 20h50q9 0 14.5 -3.5t9.5 -11.5l290 -551q11 -20 22.5 -42t22.5 -44h25v47.5v46.5v558h41z" />
    <glyph glyph-name="uni0146" unicode="&#x146;" horiz-adv-x="573" 
d="M296 -63q9 0 12.5 -3.5t3.5 -12.5v-57q-1 -18 -3 -38.5t-6.5 -42t-10.5 -38.5l-18 5q3 27 4 47.5t1 55.5q-12 0 -10 12v56q0 9 3.5 12.5t11.5 3.5h12zM356 494q130 0 130 -132v-362h-40v354q0 55 -24 79.5t-75 24.5q-53 0 -103 -24t-118 -71l-1 33q60 48 117.5 73
t113.5 25zM123 482l4 -89l3 -16v-377h-39v482h32z" />
    <glyph glyph-name="Ncaron" unicode="&#x147;" horiz-adv-x="692" 
d="M594 690v-670q0 -20 -20 -20h-54q-8 0 -13.5 3.5t-9.5 11.5l-298 564q-9 17 -19 36t-18 38h-23q1 -19 1 -38v-37v-578h-41v670q0 20 20 20h50q9 0 14.5 -3.5t9.5 -11.5l290 -551q11 -20 22.5 -42t22.5 -44h25v47.5v46.5v558h41zM495 888l16 -18l-138 -120h-24l-139 120
l18 18l129 -98h8z" />
    <glyph glyph-name="ncaron" unicode="&#x148;" horiz-adv-x="573" 
d="M356 494q130 0 130 -132v-362h-40v354q0 55 -24 79.5t-75 24.5q-53 0 -103 -24t-118 -71l-1 33q60 48 117.5 73t113.5 25zM123 482l4 -89l3 -16v-377h-39v482h32zM431 706l16 -18l-138 -120h-24l-139 120l18 18l129 -98h8z" />
    <glyph glyph-name="Eng" unicode="&#x14a;" horiz-adv-x="692" 
d="M594 690v-785q0 -62 -32 -94t-94 -31q-14 0 -34.5 2t-35.5 5l5 26h55q96 0 96 94v93h-33q-7 0 -12 4t-8 11l-302 560q-9 17 -19 36.5t-19 37.5h-22q1 -19 1 -38v-38v-573h-41v670q0 20 20 20h46q9 0 14.5 -3.5t9.5 -11.5l294 -547q11 -20 22.5 -42t22.5 -44h25
q0 24 -0.5 47t-0.5 46v555h42z" />
    <glyph glyph-name="eng" unicode="&#x14b;" horiz-adv-x="573" 
d="M356 494q130 0 130 -132v-446q0 -61 -28.5 -93.5t-85.5 -31.5q-9 0 -18.5 1.5t-20 3l-24.5 3.5l5 26h47q85 0 85 94v435q0 53 -24 78t-76 25q-50 0 -100.5 -23.5t-115.5 -67.5v-366h-39v482h30l4 -86q61 49 118.5 73.5t112.5 24.5z" />
    <glyph glyph-name="Omacron" unicode="&#x14c;" 
d="M332 702q72 0 122 -18.5t80 -60.5t43.5 -110t13.5 -168t-13.5 -168t-43.5 -110t-80 -60.5t-122 -18.5t-122 18.5t-80 60.5t-44 110t-14 168t14 168t44 110t80 60.5t122 18.5zM332 665q-81 0 -128 -30.5t-68 -100.5t-21 -189t21 -189t68 -100.5t128 -30.5q80 0 127.5 30.5
t68 100.5t20.5 189t-20.5 189t-68 100.5t-127.5 30.5zM465 832v-33h-264v33h264z" />
    <glyph glyph-name="omacron" unicode="&#x14d;" horiz-adv-x="562" 
d="M281 494q80 0 127 -24.5t67.5 -80t20.5 -148.5q0 -92 -20.5 -148t-67.5 -80.5t-127 -24.5q-78 0 -126 24.5t-68.5 80.5t-20.5 148q0 93 20.5 148.5t68.5 80t126 24.5zM281 458q-64 0 -102 -20t-54.5 -67t-16.5 -130q0 -82 16.5 -130t54.5 -68t102 -20t102 20t55 68
t17 130q0 83 -17 130t-55 67t-102 20zM413 650v-33h-264v33h264z" />
    <glyph glyph-name="Obreve" unicode="&#x14e;" 
d="M332 702q72 0 122 -18.5t80 -60.5t43.5 -110t13.5 -168t-13.5 -168t-43.5 -110t-80 -60.5t-122 -18.5t-122 18.5t-80 60.5t-44 110t-14 168t14 168t44 110t80 60.5t122 18.5zM332 665q-81 0 -128 -30.5t-68 -100.5t-21 -189t21 -189t68 -100.5t128 -30.5q80 0 127.5 30.5
t68 100.5t20.5 189t-20.5 189t-68 100.5t-127.5 30.5zM447 875l25 -4q1 -36 -16 -63t-48 -41.5t-75 -14.5q-43 0 -75 14.5t-49 41.5t-16 63l24 4q0 -42 31 -65.5t85 -23.5q53 0 83.5 23.5t30.5 65.5z" />
    <glyph glyph-name="obreve" unicode="&#x14f;" horiz-adv-x="562" 
d="M281 494q80 0 127 -24.5t67.5 -80t20.5 -148.5q0 -92 -20.5 -148t-67.5 -80.5t-127 -24.5q-78 0 -126 24.5t-68.5 80.5t-20.5 148q0 93 20.5 148.5t68.5 80t126 24.5zM281 458q-64 0 -102 -20t-54.5 -67t-16.5 -130q0 -82 16.5 -130t54.5 -68t102 -20t102 20t55 68
t17 130q0 83 -17 130t-55 67t-102 20zM394 693l25 -4q1 -36 -16 -63t-48 -41.5t-75 -14.5q-43 0 -75 14.5t-49 41.5t-16 63l24 4q0 -42 31 -65.5t85 -23.5q53 0 83.5 23.5t30.5 65.5z" />
    <glyph glyph-name="Ohungarumlaut" unicode="&#x150;" 
d="M332 702q72 0 122 -18.5t80 -60.5t43.5 -110t13.5 -168t-13.5 -168t-43.5 -110t-80 -60.5t-122 -18.5t-122 18.5t-80 60.5t-44 110t-14 168t14 168t44 110t80 60.5t122 18.5zM332 665q-81 0 -128 -30.5t-68 -100.5t-21 -189t21 -189t68 -100.5t128 -30.5q80 0 127.5 30.5
t68 100.5t20.5 189t-20.5 189t-68 100.5t-127.5 30.5zM336 909l32 -22l-121 -154l-22 14zM482 909l32 -22l-121 -154l-22 14z" />
    <glyph glyph-name="ohungarumlaut" unicode="&#x151;" horiz-adv-x="562" 
d="M281 494q80 0 127 -24.5t67.5 -80t20.5 -148.5q0 -92 -20.5 -148t-67.5 -80.5t-127 -24.5q-78 0 -126 24.5t-68.5 80.5t-20.5 148q0 93 20.5 148.5t68.5 80t126 24.5zM281 458q-64 0 -102 -20t-54.5 -67t-16.5 -130q0 -82 16.5 -130t54.5 -68t102 -20t102 20t55 68
t17 130q0 83 -17 130t-55 67t-102 20zM284 727l32 -22l-121 -154l-22 14zM430 727l32 -22l-121 -154l-22 14z" />
    <glyph glyph-name="OE" unicode="&#x152;" horiz-adv-x="895" 
d="M332 702q36 0 62 -3.5t51 -11t55 -20.5l-14 -33q-27 11 -49 17.5t-46.5 10t-58.5 3.5q-81 0 -128 -29.5t-68 -99.5t-21 -191q0 -119 21 -189t68 -100.5t128 -30.5q36 0 60 3.5t46.5 10.5t50.5 18l16 -31q-30 -14 -55.5 -22.5t-53 -12t-64.5 -3.5q-72 0 -122 18.5
t-80 60.5t-44 110t-14 168t14 168t44 110t80 60.5t122 18.5zM561 690h93.5t92.5 -1t92 -3l-1 -31h-266q-35 0 -56.5 -21.5t-21.5 -56.5v-464q0 -35 21.5 -56.5t56.5 -21.5h266l1 -31q-46 -2 -92.5 -3t-93.5 -1h-94q-46 0 -76 30.5t-30 78.5v472q0 48 30.5 78.5t77.5 30.5z
M470 386l326 -1v-33l-326 -1v35z" />
    <glyph glyph-name="oe" unicode="&#x153;" horiz-adv-x="918" 
d="M281 -12q-79 0 -126.5 24.5t-68 80.5t-20.5 148q0 93 20.5 148.5t68 80t126.5 24.5q80 0 127 -24.5t67.5 -80t20.5 -148.5q0 -92 -20.5 -148t-67.5 -80.5t-127 -24.5zM281 23q64 0 102 20t55 68t17 130q0 83 -17 130t-55 67t-102 20t-102 -20t-54.5 -67t-16.5 -130
q0 -82 16.5 -130t54.5 -68t102 -20zM673 -12q-78 0 -126 25.5t-70.5 82t-22.5 147.5q0 93 21 148t67.5 79t121.5 24q99 0 146.5 -35.5t48.5 -104.5q1 -49 -13.5 -78t-46 -41.5t-85.5 -12.5h-241v32h240q59 0 83.5 22t22.5 77q-2 53 -40 79t-114 26q-63 0 -100 -20.5t-53 -67
t-16 -125.5q0 -84 19 -132.5t59 -68.5t105 -20q46 0 90 4t74 8l5 -28q-18 -6 -49 -10.5t-65 -7t-61 -2.5z" />
    <glyph glyph-name="Racute" unicode="&#x154;" horiz-adv-x="610" 
d="M324 698q75 0 120 -16.5t65 -59t20 -119.5q0 -60 -13 -98.5t-41 -58t-73 -25.5v-5q18 -4 32.5 -18t26.5 -33.5t20 -44.5l73 -220h-45l-70 217q-16 48 -42.5 67.5t-65.5 19.5q-58 0 -103.5 1t-75.5 2t-43 2l3 32h212q60 1 95.5 15t51.5 48.5t16 97.5t-16 97.5t-51.5 48.5
t-95.5 14q-78 0 -134.5 -1t-76.5 -2l-14 31q36 4 67.5 5.5t68.5 2t89 0.5zM140 690v-690h-41v690h41zM404 901l26 -30l-163 -135l-18 19z" />
    <glyph glyph-name="racute" unicode="&#x155;" horiz-adv-x="388" 
d="M121 482l5 -89l4 -16v-377h-39v482h30zM366 494l-6 -38h-20q-50 0 -99 -24t-115 -67l-2 30q58 47 113.5 73t108.5 26h20zM322 720l26 -30l-163 -135l-18 19z" />
    <glyph glyph-name="uni0156" unicode="&#x156;" horiz-adv-x="610" 
d="M334 -63q9 0 12 -3.5t4 -12.5l-1 -57q0 -18 -2.5 -38.5t-6.5 -42t-11 -38.5l-17 5q2 27 3 47.5t1 55.5q-11 0 -10 12l1 56q-1 9 3 12.5t12 3.5h12zM324 698q75 0 120 -16.5t65 -59t20 -119.5q0 -60 -13 -98.5t-41 -58t-73 -25.5v-5q18 -4 32.5 -18t26.5 -33.5t20 -44.5
l73 -220h-45l-70 217q-16 48 -42.5 67.5t-65.5 19.5q-58 0 -103.5 1t-75.5 2t-43 2l3 32h212q60 1 95.5 15t51.5 48.5t16 97.5t-16 97.5t-51.5 48.5t-95.5 14q-78 0 -134.5 -1t-76.5 -2l-14 31q36 4 67.5 5.5t68.5 2t89 0.5zM140 690v-690h-41v690h41z" />
    <glyph glyph-name="uni0157" unicode="&#x157;" horiz-adv-x="388" 
d="M110 -63q9 0 12.5 -3.5t3.5 -12.5v-57q-1 -18 -3 -38.5t-6.5 -42t-11.5 -38.5l-17 5q2 27 3.5 47.5t1.5 55.5q-12 0 -11 12l1 56q-1 9 3 12.5t12 3.5h12zM121 482l5 -89l4 -16v-377h-39v482h30zM366 494l-6 -38h-20q-50 0 -99 -24t-115 -67l-2 30q58 47 113.5 73
t108.5 26h20z" />
    <glyph glyph-name="Rcaron" unicode="&#x158;" horiz-adv-x="610" 
d="M324 698q75 0 120 -16.5t65 -59t20 -119.5q0 -60 -13 -98.5t-41 -58t-73 -25.5v-5q18 -4 32.5 -18t26.5 -33.5t20 -44.5l73 -220h-45l-70 217q-16 48 -42.5 67.5t-65.5 19.5q-58 0 -103.5 1t-75.5 2t-43 2l3 32h212q60 1 95.5 15t51.5 48.5t16 97.5t-16 97.5t-51.5 48.5
t-95.5 14q-78 0 -134.5 -1t-76.5 -2l-14 31q36 4 67.5 5.5t68.5 2t89 0.5zM140 690v-690h-41v690h41zM438 888l16 -18l-138 -120h-24l-139 120l18 18l129 -98h8z" />
    <glyph glyph-name="rcaron" unicode="&#x159;" horiz-adv-x="388" 
d="M121 482l5 -89l4 -16v-377h-39v482h30zM366 494l-6 -38h-20q-50 0 -99 -24t-115 -67l-2 30q58 47 113.5 73t108.5 26h20zM356 706l16 -18l-138 -120h-24l-139 120l18 18l129 -98h8z" />
    <glyph glyph-name="Sacute" unicode="&#x15a;" horiz-adv-x="556" 
d="M275 701q48 -1 96.5 -4t95.5 -10l-4 -30q-44 2 -91.5 4.5t-95.5 2.5q-45 0 -77.5 -3t-53.5 -16t-30.5 -41.5t-9.5 -81.5q0 -71 23.5 -102t79.5 -40l150 -25q77 -11 108 -53.5t31 -130.5q0 -61 -14 -97.5t-41 -54.5t-67 -24t-94 -6q-39 0 -90 2t-116 11l3 31
q44 -3 76.5 -4.5t62.5 -2t66 -0.5q63 1 100.5 11t54.5 41t17 93q0 51 -10.5 80.5t-34 45t-62.5 20.5l-150 25q-74 11 -104.5 54.5t-30.5 126.5q0 61 13 97.5t39 54t66.5 22.5t93.5 4zM382 901l26 -30l-163 -135l-18 19z" />
    <glyph glyph-name="sacute" unicode="&#x15b;" horiz-adv-x="501" 
d="M239 494q30 0 63 -1.5t66 -4.5t62 -7l-4 -29q-44 2 -91.5 4t-91.5 3q-51 1 -83 -3t-47 -24t-15 -67q0 -49 20.5 -68t57.5 -25l157 -23q54 -9 82 -38t28 -87q0 -61 -22.5 -89.5t-65.5 -37t-106 -8.5q-33 0 -77.5 2t-101.5 10l4 29q30 -2 57 -3.5t54.5 -2t59.5 -0.5
q59 1 93.5 7.5t50 28t15.5 64.5q0 48 -23.5 67t-59.5 24l-157 23q-34 5 -58 19.5t-35.5 40.5t-11.5 67q0 60 20 87.5t60 35t100 6.5zM355 720l26 -30l-163 -135l-18 19z" />
    <glyph glyph-name="Scircumflex" unicode="&#x15c;" horiz-adv-x="556" 
d="M275 701q48 -1 96.5 -4t95.5 -10l-4 -30q-44 2 -91.5 4.5t-95.5 2.5q-45 0 -77.5 -3t-53.5 -16t-30.5 -41.5t-9.5 -81.5q0 -71 23.5 -102t79.5 -40l150 -25q77 -11 108 -53.5t31 -130.5q0 -61 -14 -97.5t-41 -54.5t-67 -24t-94 -6q-39 0 -90 2t-116 11l3 31
q44 -3 76.5 -4.5t62.5 -2t66 -0.5q63 1 100.5 11t54.5 41t17 93q0 51 -10.5 80.5t-34 45t-62.5 20.5l-150 25q-74 11 -104.5 54.5t-30.5 126.5q0 61 13 97.5t39 54t66.5 22.5t93.5 4zM295 884l136 -119l-16 -19l-130 101h-8l-129 -101l-17 19l135 119h29z" />
    <glyph glyph-name="scircumflex" unicode="&#x15d;" horiz-adv-x="501" 
d="M239 494q30 0 63 -1.5t66 -4.5t62 -7l-4 -29q-44 2 -91.5 4t-91.5 3q-51 1 -83 -3t-47 -24t-15 -67q0 -49 20.5 -68t57.5 -25l157 -23q54 -9 82 -38t28 -87q0 -61 -22.5 -89.5t-65.5 -37t-106 -8.5q-33 0 -77.5 2t-101.5 10l4 29q30 -2 57 -3.5t54.5 -2t59.5 -0.5
q59 1 93.5 7.5t50 28t15.5 64.5q0 48 -23.5 67t-59.5 24l-157 23q-34 5 -58 19.5t-35.5 40.5t-11.5 67q0 60 20 87.5t60 35t100 6.5zM268 702l136 -119l-16 -19l-130 101h-8l-129 -101l-17 19l135 119h29z" />
    <glyph glyph-name="Scedilla" unicode="&#x15e;" horiz-adv-x="556" 
d="M275 701q48 -1 96.5 -4t95.5 -10l-4 -30q-44 2 -91.5 4.5t-95.5 2.5q-45 0 -77.5 -3t-53.5 -16t-30.5 -41.5t-9.5 -81.5q0 -71 23.5 -102t79.5 -40l150 -25q77 -11 108 -53.5t31 -130.5q0 -61 -14 -97.5t-41 -54.5t-67 -24t-94 -6q-39 0 -90 2t-116 11l3 31
q44 -3 76.5 -4.5t62.5 -2t66 -0.5q63 1 100.5 11t54.5 41t17 93q0 51 -10.5 80.5t-34 45t-62.5 20.5l-150 25q-74 11 -104.5 54.5t-30.5 126.5q0 61 13 97.5t39 54t66.5 22.5t93.5 4zM250 -58q29 2 48.5 -4t29 -21t8.5 -40q0 -36 -18.5 -63t-51 -39.5t-76.5 -7.5l6 23
q50 -2 79 23.5t29 61.5q0 25 -12.5 35t-46.5 11z" />
    <glyph glyph-name="scedilla" unicode="&#x15f;" horiz-adv-x="501" 
d="M239 494q30 0 63 -1.5t66 -4.5t62 -7l-4 -29q-44 2 -91.5 4t-91.5 3q-51 1 -83 -3t-47 -24t-15 -67q0 -49 20.5 -68t57.5 -25l157 -23q54 -9 82 -38t28 -87q0 -61 -22.5 -89.5t-65.5 -37t-106 -8.5q-33 0 -77.5 2t-101.5 10l4 29q30 -2 57 -3.5t54.5 -2t59.5 -0.5
q59 1 93.5 7.5t50 28t15.5 64.5q0 48 -23.5 67t-59.5 24l-157 23q-34 5 -58 19.5t-35.5 40.5t-11.5 67q0 60 20 87.5t60 35t100 6.5zM216 -58q29 2 48.5 -4t29 -21t8.5 -40q0 -36 -18.5 -63t-51 -39.5t-76.5 -7.5l6 23q50 -2 79 23.5t29 61.5q0 25 -12.5 35t-46.5 11z" />
    <glyph glyph-name="Scaron" unicode="&#x160;" horiz-adv-x="556" 
d="M275 701q48 -1 96.5 -4t95.5 -10l-4 -30q-44 2 -91.5 4.5t-95.5 2.5q-45 0 -77.5 -3t-53.5 -16t-30.5 -41.5t-9.5 -81.5q0 -71 23.5 -102t79.5 -40l150 -25q77 -11 108 -53.5t31 -130.5q0 -61 -14 -97.5t-41 -54.5t-67 -24t-94 -6q-39 0 -90 2t-116 11l3 31
q44 -3 76.5 -4.5t62.5 -2t66 -0.5q63 1 100.5 11t54.5 41t17 93q0 51 -10.5 80.5t-34 45t-62.5 20.5l-150 25q-74 11 -104.5 54.5t-30.5 126.5q0 61 13 97.5t39 54t66.5 22.5t93.5 4zM417 888l16 -18l-138 -120h-24l-139 120l18 18l129 -98h8z" />
    <glyph glyph-name="scaron" unicode="&#x161;" horiz-adv-x="501" 
d="M239 494q30 0 63 -1.5t66 -4.5t62 -7l-4 -29q-44 2 -91.5 4t-91.5 3q-51 1 -83 -3t-47 -24t-15 -67q0 -49 20.5 -68t57.5 -25l157 -23q54 -9 82 -38t28 -87q0 -61 -22.5 -89.5t-65.5 -37t-106 -8.5q-33 0 -77.5 2t-101.5 10l4 29q30 -2 57 -3.5t54.5 -2t59.5 -0.5
q59 1 93.5 7.5t50 28t15.5 64.5q0 48 -23.5 67t-59.5 24l-157 23q-34 5 -58 19.5t-35.5 40.5t-11.5 67q0 60 20 87.5t60 35t100 6.5zM390 706l16 -18l-138 -120h-24l-139 120l18 18l129 -98h8z" />
    <glyph glyph-name="uni0162" unicode="&#x162;" horiz-adv-x="568" 
d="M304 690v-690h-41v690h41zM542 690v-36h-516v36h516zM252 -47q29 2 48.5 -4t29 -21t8.5 -40q0 -36 -18.5 -63t-51 -39.5t-76.5 -7.5l6 23q50 -2 79 23.5t29 61.5q0 25 -12.5 35t-46.5 11z" />
    <glyph glyph-name="uni0163" unicode="&#x163;" horiz-adv-x="356" 
d="M159 631v-525q0 -39 19.5 -57.5t57.5 -18.5h84l5 -29q-14 -2 -32 -4t-34 -3t-26 -1q-56 0 -85 28t-29 81v529h40zM331 482v-34h-299v29l94 5h205zM202 -54q29 2 48.5 -4t29 -21t8.5 -40q0 -36 -18.5 -63t-51 -39.5t-76.5 -7.5l6 23q50 -2 79 23.5t29 61.5q0 25 -12.5 35
t-46.5 11z" />
    <glyph glyph-name="Tcaron" unicode="&#x164;" horiz-adv-x="568" 
d="M304 690v-690h-41v690h41zM542 690v-36h-516v36h516zM420 888l16 -18l-138 -120h-24l-139 120l18 18l129 -98h8z" />
    <glyph glyph-name="tcaron" unicode="&#x165;" horiz-adv-x="356" 
d="M159 631v-525q0 -39 19.5 -57.5t57.5 -18.5h84l5 -29q-14 -2 -32 -4t-34 -3t-26 -1q-56 0 -85 28t-29 81v529h40zM331 482v-34h-299v29l94 5h205zM285 750q8 0 11.5 -4t4.5 -11l-1 -55q-1 -26 -6 -57t-13 -57l-17 5l3.5 45.5t1.5 52.5q-11 0 -10 12l1 54q-1 7 2.5 11
t11.5 4h11z" />
    <glyph glyph-name="Tbar" unicode="&#x166;" horiz-adv-x="568" 
d="M451 404v-28h-339v28h339zM304 690v-690h-41v690h41zM542 690v-36h-516v36h516z" />
    <glyph glyph-name="tbar" unicode="&#x167;" horiz-adv-x="356" 
d="M309 316v-27h-261v27h261zM159 631v-525q0 -39 19.5 -57.5t57.5 -18.5h84l5 -29q-14 -2 -32 -4t-34 -3t-26 -1q-56 0 -85 28t-29 81v529h40zM331 482v-34h-299v29l94 5h205z" />
    <glyph glyph-name="Utilde" unicode="&#x168;" horiz-adv-x="667" 
d="M573 690v-433q0 -97 -23.5 -156t-75.5 -86t-139 -27q-89 0 -141.5 27t-76 86t-23.5 156v433h41v-433q0 -85 19.5 -136t63 -73.5t116.5 -22.5q72 0 115.5 22.5t63 73.5t19.5 136v433h41zM262 869q22 -2 39 -11.5t32.5 -21t32.5 -20.5t38 -12q31 -2 43.5 12.5t12.5 47.5h23
q3 -46 -18.5 -70.5t-57.5 -21.5q-33 3 -55.5 18t-42.5 30t-45 17q-30 3 -42.5 -12.5t-12.5 -50.5h-23q-2 33 7.5 55t27.5 32t41 8z" />
    <glyph glyph-name="utilde" unicode="&#x169;" horiz-adv-x="563" 
d="M127 482v-354q-1 -54 24 -79t77 -25q50 0 97 24t112 70l3 -33q-59 -48 -114 -72.5t-109 -24.5q-130 0 -130 132v362h40zM472 482v-482h-31l-4 89l-5 16v377h40zM209 689q22 -2 39 -11.5t32.5 -21t32.5 -20.5t38 -12q31 -2 43.5 12.5t12.5 47.5h23q3 -46 -18.5 -70.5
t-57.5 -21.5q-33 3 -55.5 18t-42.5 30t-45 17q-30 3 -42.5 -12.5t-12.5 -50.5h-23q-2 33 7.5 55t27.5 32t41 8z" />
    <glyph glyph-name="Umacron" unicode="&#x16a;" horiz-adv-x="667" 
d="M573 690v-433q0 -97 -23.5 -156t-75.5 -86t-139 -27q-89 0 -141.5 27t-76 86t-23.5 156v433h41v-433q0 -85 19.5 -136t63 -73.5t116.5 -22.5q72 0 115.5 22.5t63 73.5t19.5 136v433h41zM467 832v-33h-264v33h264z" />
    <glyph glyph-name="umacron" unicode="&#x16b;" horiz-adv-x="563" 
d="M127 482v-354q-1 -54 24 -79t77 -25q50 0 97 24t112 70l3 -33q-59 -48 -114 -72.5t-109 -24.5q-130 0 -130 132v362h40zM472 482v-482h-31l-4 89l-5 16v377h40zM413 652v-33h-264v33h264z" />
    <glyph glyph-name="Ubreve" unicode="&#x16c;" horiz-adv-x="667" 
d="M573 690v-433q0 -97 -23.5 -156t-75.5 -86t-139 -27q-89 0 -141.5 27t-76 86t-23.5 156v433h41v-433q0 -85 19.5 -136t63 -73.5t116.5 -22.5q72 0 115.5 22.5t63 73.5t19.5 136v433h41zM449 875l25 -4q1 -36 -16 -63t-48 -41.5t-75 -14.5q-43 0 -75 14.5t-49 41.5t-16 63
l24 4q0 -42 31 -65.5t85 -23.5q53 0 83.5 23.5t30.5 65.5z" />
    <glyph glyph-name="ubreve" unicode="&#x16d;" horiz-adv-x="563" 
d="M127 482v-354q-1 -54 24 -79t77 -25q50 0 97 24t112 70l3 -33q-59 -48 -114 -72.5t-109 -24.5q-130 0 -130 132v362h40zM472 482v-482h-31l-4 89l-5 16v377h40zM395 695l25 -4q1 -36 -16 -63t-48 -41.5t-75 -14.5q-43 0 -75 14.5t-49 41.5t-16 63l24 4q0 -42 31 -65.5
t85 -23.5q53 0 83.5 23.5t30.5 65.5z" />
    <glyph glyph-name="Uring" unicode="&#x16e;" horiz-adv-x="667" 
d="M573 690v-433q0 -97 -23.5 -156t-75.5 -86t-139 -27q-89 0 -141.5 27t-76 86t-23.5 156v433h41v-433q0 -85 19.5 -136t63 -73.5t116.5 -22.5q72 0 115.5 22.5t63 73.5t19.5 136v433h41zM335 915q28 0 50 -13t35.5 -35t13.5 -49q0 -26 -13 -48.5t-35.5 -36t-50.5 -13.5
q-27 0 -49.5 13t-36 35.5t-13.5 49.5t13.5 49t36 35t49.5 13zM335 890q-30 0 -50.5 -20.5t-20.5 -52.5q0 -31 20.5 -51.5t50.5 -20.5q31 0 51 20.5t20 51.5q0 32 -20 52.5t-51 20.5z" />
    <glyph glyph-name="uring" unicode="&#x16f;" horiz-adv-x="563" 
d="M127 482v-354q-1 -54 24 -79t77 -25q50 0 97 24t112 70l3 -33q-59 -48 -114 -72.5t-109 -24.5q-130 0 -130 132v362h40zM472 482v-482h-31l-4 89l-5 16v377h40zM281 734q28 0 50 -13t35.5 -35t13.5 -49q0 -26 -13 -48.5t-35.5 -36t-50.5 -13.5q-27 0 -49.5 13t-36 35.5
t-13.5 49.5t13.5 49t36 35t49.5 13zM281 709q-30 0 -50.5 -20.5t-20.5 -52.5q0 -31 20.5 -51.5t50.5 -20.5q31 0 51 20.5t20 51.5q0 32 -20 52.5t-51 20.5z" />
    <glyph glyph-name="Uhungarumlaut" unicode="&#x170;" horiz-adv-x="667" 
d="M573 690v-433q0 -97 -23.5 -156t-75.5 -86t-139 -27q-89 0 -141.5 27t-76 86t-23.5 156v433h41v-433q0 -85 19.5 -136t63 -73.5t116.5 -22.5q72 0 115.5 22.5t63 73.5t19.5 136v433h41zM338 909l32 -22l-121 -154l-22 14zM484 909l32 -22l-121 -154l-22 14z" />
    <glyph glyph-name="uhungarumlaut" unicode="&#x171;" horiz-adv-x="563" 
d="M127 482v-354q-1 -54 24 -79t77 -25q50 0 97 24t112 70l3 -33q-59 -48 -114 -72.5t-109 -24.5q-130 0 -130 132v362h40zM472 482v-482h-31l-4 89l-5 16v377h40zM284 728l32 -22l-121 -154l-22 14zM430 728l32 -22l-121 -154l-22 14z" />
    <glyph glyph-name="Uogonek" unicode="&#x172;" horiz-adv-x="667" 
d="M573 690v-433q0 -97 -23.5 -156t-75.5 -86t-139 -27q-89 0 -141.5 27t-76 86t-23.5 156v433h41v-433q0 -85 19.5 -136t63 -73.5t116.5 -22.5q72 0 115.5 22.5t63 73.5t19.5 136v433h41zM350 -7l24 -2q-26 -26 -48 -56t-36 -67q-16 -44 9.5 -58t79.5 5l5 -18
q-41 -18 -69 -19t-43.5 11.5t-19 33.5t5.5 46q9 26 30.5 57t61.5 67z" />
    <glyph glyph-name="uogonek" unicode="&#x173;" horiz-adv-x="563" 
d="M127 482v-354q-1 -54 24 -79t77 -25q50 0 97 24t112 70l3 -33q-59 -48 -114 -72.5t-109 -24.5q-130 0 -130 132v362h40zM472 482v-482h-31l-4 89l-5 16v377h40zM449 2l24 -2q-26 -26 -48 -56t-36 -67q-16 -44 9.5 -58t79.5 5l5 -18q-41 -18 -69 -19t-43.5 11.5t-19 33.5
t5.5 46q9 26 30.5 57t61.5 67z" />
    <glyph glyph-name="Wcircumflex" unicode="&#x174;" horiz-adv-x="935" 
d="M902 690l-172 -676q-1 -6 -6.5 -10t-12.5 -4h-57q-7 0 -12 4t-7 11l-137 564q-5 20 -9.5 39.5t-9.5 38.5h-23q-5 -19 -9.5 -38.5t-9.5 -39.5l-137 -564q-1 -7 -6.5 -11t-12.5 -4h-57q-8 0 -13 4t-7 10l-172 676h44l146 -583q5 -18 9 -36.5t8 -36.5h27q5 18 9 36l8 36
l139 568q2 7 7 11.5t12 4.5h53q7 0 12 -4.5t7 -11.5l139 -567q5 -19 9 -37t7 -36h27q5 18 9 36l8 36l147 584h43zM482 884l136 -119l-16 -19l-130 101h-8l-129 -101l-17 19l135 119h29z" />
    <glyph glyph-name="wcircumflex" unicode="&#x175;" horiz-adv-x="815" 
d="M783 482l-160 -469q-2 -6 -6.5 -9.5t-11.5 -3.5h-39q-7 0 -12 4t-7 10l-113 365q-5 18 -10 36.5t-11 36.5h-11q-5 -18 -10.5 -36.5t-11.5 -36.5l-112 -365q-2 -6 -7 -10t-12 -4h-39q-6 0 -11 3.5t-7 9.5l-160 469h42l128 -385q6 -17 10.5 -33.5t10.5 -32.5h13
q5 17 10.5 33.5t10.5 33.5l114 370q2 6 7 10t11 4h38q6 0 11 -4t6 -10l115 -370q4 -17 9.5 -33.5t10.5 -33.5h13q6 17 10.5 33.5t10.5 33.5l128 384h42zM421 702l136 -119l-16 -19l-130 101h-8l-129 -101l-17 19l135 119h29z" />
    <glyph glyph-name="Ycircumflex" unicode="&#x176;" horiz-adv-x="548" 
d="M528 690l-237 -444h-33l-239 444h45l171 -322q9 -17 18 -35l18 -36h6q8 18 17.5 35.5t17.5 34.5l171 323h45zM295 285v-285h-42v285h42zM288 881l136 -119l-16 -19l-130 101h-8l-129 -101l-17 19l135 119h29z" />
    <glyph glyph-name="ycircumflex" unicode="&#x177;" horiz-adv-x="512" 
d="M486 482l-215 -524q-13 -30 -27.5 -57t-34.5 -49.5t-46 -38t-62 -22.5l-6 25q59 22 90 61t50 89l21 50q7 17 14 36.5t14 35.5l158 394h44zM70 482l158 -395q5 -14 11 -27t10 -27h20l-14 -33h-19q-5 0 -10 3t-7 9l-192 470h43zM272 702l136 -119l-16 -19l-130 101h-8
l-129 -101l-17 19l135 119h29z" />
    <glyph glyph-name="Ydieresis" unicode="&#x178;" horiz-adv-x="548" 
d="M528 690l-237 -444h-33l-239 444h45l171 -322q9 -17 18 -35l18 -36h6q8 18 17.5 35.5t17.5 34.5l171 323h45zM295 285v-285h-42v285h42zM370 857q14 0 14 -14v-56q0 -14 -14 -14h-15q-13 0 -13 14v56q0 14 13 14h15zM193 857q13 0 13 -14v-56q0 -14 -13 -14h-15
q-13 0 -13 14v56q0 14 13 14h15z" />
    <glyph glyph-name="Zacute" unicode="&#x179;" horiz-adv-x="560" 
d="M459 655l46 -1l-408 -619l-46 1zM510 36v-36h-459v36h459zM505 690v-36h-450v36h450zM380 901l26 -30l-163 -135l-18 19z" />
    <glyph glyph-name="zacute" unicode="&#x17a;" horiz-adv-x="502" 
d="M400 448l47 -1l-348 -414l-47 1zM450 34v-34h-398v34h398zM447 482v-35h-392v35h392zM348 720l26 -30l-163 -135l-18 19z" />
    <glyph glyph-name="Zdotaccent" unicode="&#x17b;" horiz-adv-x="560" 
d="M459 655l46 -1l-408 -619l-46 1zM510 36v-36h-459v36h459zM505 690v-36h-450v36h450zM287 861q16 0 16 -15v-61q0 -15 -16 -15h-14q-16 0 -16 15v61q0 15 16 15h14z" />
    <glyph glyph-name="zdotaccent" unicode="&#x17c;" horiz-adv-x="502" 
d="M400 448l47 -1l-348 -414l-47 1zM450 34v-34h-398v34h398zM447 482v-35h-392v35h392zM255 680q16 0 16 -15v-61q0 -15 -16 -15h-14q-16 0 -16 15v61q0 15 16 15h14z" />
    <glyph glyph-name="Zcaron" unicode="&#x17d;" horiz-adv-x="560" 
d="M459 655l46 -1l-408 -619l-46 1zM510 36v-36h-459v36h459zM505 690v-36h-450v36h450zM415 888l16 -18l-138 -120h-24l-139 120l18 18l129 -98h8z" />
    <glyph glyph-name="zcaron" unicode="&#x17e;" horiz-adv-x="502" 
d="M400 448l47 -1l-348 -414l-47 1zM450 34v-34h-398v34h398zM447 482v-35h-392v35h392zM383 706l16 -18l-138 -120h-24l-139 120l18 18l129 -98h8z" />
    <glyph glyph-name="uni018F" unicode="&#x18f;" horiz-adv-x="626" 
d="M302 -12q-82 0 -134 26t-75.5 71t-25.5 103q-2 89 37.5 135.5t122.5 46.5h306v-38h-311q-59 0 -86.5 -39t-26.5 -104q2 -72 46.5 -118t143.5 -46q85 0 130.5 34.5t63.5 104.5t18 176q0 83 -10 144t-33.5 100.5t-64.5 59t-103 19.5q-59 0 -114 -5.5t-98 -11.5l-6 28
q30 8 67 14.5t77.5 10t77.5 3.5q99 0 153 -40.5t75.5 -120.5t21.5 -199q0 -122 -22.5 -200.5t-77 -116t-152.5 -37.5z" />
    <glyph glyph-name="florin" unicode="&#x192;" horiz-adv-x="414" 
d="M313 699q11 0 26 -0.5t31 -1t27 -2.5l-4 -30h-70q-56 0 -81 -22.5t-31 -81.5l-53 -560q-4 -44 -18 -74t-42 -45.5t-72 -15.5q-11 0 -26.5 0.5t-30.5 1.5t-27 3l4 30h69q52 0 75 23t28 80l54 560q4 44 19.5 74t45.5 45.5t76 15.5zM356 388l-4 -34h-296l2 30l103 4h195z
" />
    <glyph glyph-name="Ohorn" unicode="&#x1a0;" 
d="M332 702q72 0 122 -18.5t80 -60.5t43.5 -110t13.5 -168t-13.5 -168t-43.5 -110t-80 -60.5t-122 -18.5t-122 18.5t-80 60.5t-44 110t-14 168q0 99 14 167.5t44.5 110.5t80 60.5t121.5 18.5zM332 665q-81 0 -128 -30.5t-68 -100.5t-21 -189t21 -189t68 -100.5t128 -30.5
q80 0 127.5 30.5t68 100.5t20.5 189t-20.5 189t-68 100.5t-127.5 30.5zM521 594l-4 23q43 3 67.5 32.5t27.5 74.5l34 -5q-2 -36 -19 -64t-45 -44t-61 -17z" />
    <glyph glyph-name="ohorn" unicode="&#x1a1;" horiz-adv-x="565" 
d="M281 494q80 0 127 -24.5t67.5 -80t20.5 -148.5q0 -92 -20.5 -148t-67.5 -80.5t-127 -24.5q-79 0 -126.5 24.5t-68 80.5t-20.5 148q0 93 20.5 148.5t68 80t126.5 24.5zM281 458q-64 0 -102 -20t-54.5 -67t-16.5 -130q0 -82 16.5 -130t54.5 -68t102 -20t102 20t55 68
t17 130q0 83 -17 130t-55 67t-102 20zM434 414l-4 24q43 3 67.5 32.5t27.5 74.5l34 -5q-2 -37 -19.5 -64.5t-45 -43.5t-60.5 -18z" />
    <glyph glyph-name="Uhorn" unicode="&#x1af;" horiz-adv-x="674" 
d="M573 690v-433q0 -97 -23.5 -156t-75.5 -86t-139 -27q-89 0 -141.5 27t-76 86t-23.5 156v433h41v-433q0 -85 19.5 -136t63 -73.5t116.5 -22.5q72 0 115.5 22.5t63 73.5t19.5 136v433h41zM565 594l-4 23q42 3 67 32.5t28 74.5l34 -5q-2 -36 -19.5 -64t-45 -44t-60.5 -17z
" />
    <glyph glyph-name="uhorn" unicode="&#x1b0;" horiz-adv-x="569" 
d="M127 482v-354q-1 -54 24 -79t77 -25q50 0 97 24t112 70l3 -33q-59 -48 -114 -72.5t-109 -24.5q-130 0 -130 132v362h40zM472 482v-482h-31l-4 89l-5 16v377h40zM459 413l-4 23q42 3 67 32.5t28 74.5l34 -5q-2 -36 -19.5 -64t-45 -44t-60.5 -17z" />
    <glyph glyph-name="uni01C4" unicode="&#x1c4;" horiz-adv-x="1212" 
d="M332 699q71 0 119.5 -18.5t78.5 -60t44 -109t14 -166.5q0 -98 -14 -166t-44 -109.5t-78.5 -60t-119.5 -18.5q-67 0 -124.5 2.5t-108.5 6.5l19 31q47 -1 99 -2t115 -1q79 0 125.5 30t67 99.5t20.5 187.5t-20.5 187.5t-67 99.5t-125.5 30q-63 0 -115 -1t-101 -2l-17 31
q51 4 109 6.5t124 2.5zM140 690v-690h-41v690h41zM1111 655l46 -1l-408 -619l-46 1zM1162 36v-36h-459v36h459zM1157 690v-36h-450v36h450zM1067 888l16 -18l-138 -120h-24l-139 120l18 18l129 -98h8z" />
    <glyph glyph-name="uni01C5" unicode="&#x1c5;" horiz-adv-x="1162" 
d="M332 699q71 0 119.5 -18.5t78.5 -60t44 -109t14 -166.5q0 -98 -14 -166t-44 -109.5t-78.5 -60t-119.5 -18.5q-67 0 -124.5 2.5t-108.5 6.5l19 31q47 -1 99 -2t115 -1q79 0 125.5 30t67 99.5t20.5 187.5t-20.5 187.5t-67 99.5t-125.5 30q-63 0 -115 -1t-101 -2l-17 31
q51 4 109 6.5t124 2.5zM140 690v-690h-41v690h41zM1060 448l47 -1l-348 -414l-47 1zM1110 34v-34h-398v34h398zM1107 482v-35h-392v35h392zM1043 706l16 -18l-138 -120h-24l-139 120l18 18l129 -98h8z" />
    <glyph glyph-name="uni01C6" unicode="&#x1c6;" horiz-adv-x="1066" 
d="M244 494q49 0 97.5 -13.5t99.5 -36.5l-2 -31q-57 22 -100.5 33.5t-89.5 11.5q-50 0 -81 -20t-45.5 -68t-14.5 -128q0 -81 14 -128.5t45 -68.5t81 -21q31 0 59.5 10t60.5 30.5t71 52.5l1 -35q-50 -44 -98.5 -69t-101.5 -25q-93 0 -133 60t-40 193q0 92 18 147.5t57 80.5
t102 25zM473 700v-700h-30l-6 84l-4 5v337l4 16q-3 26 -3.5 48t-0.5 49v161h40zM964 448l47 -1l-348 -414l-47 1zM1014 34v-34h-398v34h398zM1011 482v-35h-392v35h392zM947 706l16 -18l-138 -120h-24l-139 120l18 18l129 -98h8z" />
    <glyph glyph-name="uni01C7" unicode="&#x1c7;" horiz-adv-x="837" 
d="M137 690v-577q0 -35 21.5 -56.5t56.5 -21.5h266l1 -30q-68 -4 -137 -4.5t-137 -0.5q-52 0 -82 31t-30 78v581h41zM741 690v-567q0 -64 -31 -97.5t-94 -32.5q-10 0 -23 1t-26 3t-22 4l5 28h56q94 0 94 94v567h41z" />
    <glyph glyph-name="uni01C8" unicode="&#x1c8;" horiz-adv-x="736" 
d="M137 690v-577q0 -35 21.5 -56.5t56.5 -21.5h266l1 -30q-68 -4 -137 -4.5t-137 -0.5q-52 0 -82 31t-30 78v581h41zM643 482v-519q0 -34 -9 -64.5t-25.5 -57t-38.5 -49.5l-22 17q27 34 41 69.5t14 84.5v519h40zM632 683q15 0 15 -16v-60q0 -16 -15 -16h-18q-15 0 -15 16v60
q0 16 15 16h18z" />
    <glyph glyph-name="uni01C9" unicode="&#x1c9;" horiz-adv-x="505" 
d="M131 700l-1 -594q0 -38 20 -57t57 -19h55l5 -29q-7 -2 -20 -4t-27 -3t-23 -1q-48 0 -77 27.5t-29 79.5v600h40zM411 482v-519q0 -34 -9 -64.5t-25.5 -57t-38.5 -49.5l-22 17q27 34 41 69.5t14 84.5v519h40zM400 683q15 0 15 -16v-60q0 -16 -15 -16h-18q-15 0 -15 16v60
q0 16 15 16h18z" />
    <glyph glyph-name="uni01CA" unicode="&#x1ca;" horiz-adv-x="1021" 
d="M594 690v-670q0 -20 -20 -20h-54q-8 0 -13.5 3.5t-9.5 11.5l-298 564q-9 17 -19 36t-18 38h-23q1 -19 1 -38v-37v-578h-41v670q0 20 20 20h50q9 0 14.5 -3.5t9.5 -11.5l290 -551q11 -20 22.5 -42t22.5 -44h25v47.5v46.5v558h41zM924 690v-567q0 -64 -31 -97.5t-94 -32.5
q-10 0 -23 1t-26 3t-22 4l5 28h56q94 0 94 94v567h41z" />
    <glyph glyph-name="uni01CB" unicode="&#x1cb;" horiz-adv-x="920" 
d="M594 690v-670q0 -20 -20 -20h-54q-8 0 -13.5 3.5t-9.5 11.5l-298 564q-9 17 -19 36t-18 38h-23q1 -19 1 -38v-37v-578h-41v670q0 20 20 20h50q9 0 14.5 -3.5t9.5 -11.5l290 -551q11 -20 22.5 -42t22.5 -44h25v47.5v46.5v558h41zM826 482v-519q0 -34 -9 -64.5t-25.5 -57
t-38.5 -49.5l-22 17q27 34 41 69.5t14 84.5v519h40zM815 683q15 0 15 -16v-60q0 -16 -15 -16h-18q-15 0 -15 16v60q0 16 15 16h18z" />
    <glyph glyph-name="uni01CC" unicode="&#x1cc;" horiz-adv-x="801" 
d="M356 494q130 0 130 -132v-362h-40v354q0 55 -24 79.5t-75 24.5q-53 0 -103 -24t-118 -71l-1 33q60 48 117.5 73t113.5 25zM123 482l4 -89l3 -16v-377h-39v482h32zM707 482v-519q0 -34 -9 -64.5t-25.5 -57t-38.5 -49.5l-22 17q27 34 41 69.5t14 84.5v519h40zM696 683
q15 0 15 -16v-60q0 -16 -15 -16h-18q-15 0 -15 16v60q0 16 15 16h18z" />
    <glyph glyph-name="Gcaron" unicode="&#x1e6;" horiz-adv-x="624" 
d="M338 702q43 0 76 -2t61.5 -5.5t57.5 -10.5l-7 -30q-31 4 -59.5 6.5t-59 3.5t-68.5 1q-62 0 -105 -16t-69 -52.5t-37.5 -98.5t-11.5 -154q0 -113 18.5 -183.5t60 -103t110.5 -32.5q47 0 83 14.5t66 36.5t56 45l7 -28q-24 -28 -57.5 -52t-73.5 -38.5t-88 -14.5
q-81 0 -130.5 37.5t-72.5 116.5t-23 204q0 133 25.5 211t84 111.5t156.5 33.5zM546 400v-400h-29l-9 100l-3 14v286h41zM460 890l16 -18l-138 -120h-24l-139 120l18 18l129 -98h8z" />
    <glyph glyph-name="gcaron" unicode="&#x1e7;" horiz-adv-x="548" 
d="M270 494q71 0 113.5 -17t61.5 -50t19 -84q0 -50 -19 -83.5t-61.5 -49.5t-114.5 -16q-70 0 -113.5 16t-63 49.5t-19.5 83.5q0 51 19.5 84t62.5 50t115 17zM269 461q-87 0 -122.5 -29t-35.5 -89t36 -88t122 -28q88 0 122.5 28t34.5 88t-34.5 89t-122.5 29zM521 482l-3 -26
l-120 -5l-35 31h158zM135 228l28 -4q-25 -23 -33.5 -50.5t5.5 -49.5t57 -30l190 -32q65 -11 87 -41.5t22 -88.5q0 -53 -21 -83.5t-69 -44t-126 -13.5q-62 0 -104.5 7.5t-68.5 23.5t-37.5 43t-11.5 66q0 34 6 57.5t22 42t44 33.5l47 26l28 -9l-50 -32q-23 -15 -35.5 -30.5
t-17.5 -35.5t-5 -50q0 -40 17.5 -63.5t57.5 -33.5t107 -10q66 0 105 10t56 33.5t17 63.5q0 30 -6.5 49t-25.5 30.5t-55 17.5l-192 32q-31 5 -50 19.5t-27 34t-5 40t14 40t30 32.5zM406 706l16 -18l-138 -120h-24l-139 120l18 18l129 -98h8z" />
    <glyph glyph-name="uni01EA" unicode="&#x1ea;" 
d="M332 702q72 0 122 -18.5t80 -60.5t43.5 -110t13.5 -168t-13.5 -168t-43.5 -110t-80 -60.5t-122 -18.5t-122 18.5t-80 60.5t-44 110t-14 168t14 168t44 110t80 60.5t122 18.5zM332 665q-81 0 -128 -30.5t-68 -100.5t-21 -189t21 -189t68 -100.5t128 -30.5q80 0 127.5 30.5
t68 100.5t20.5 189t-20.5 189t-68 100.5t-127.5 30.5zM341 2l24 -2q-26 -26 -48 -56t-36 -67q-16 -44 9.5 -58t79.5 5l5 -18q-41 -18 -69 -19t-43.5 11.5t-19 33.5t5.5 46q9 26 30.5 57t61.5 67z" />
    <glyph glyph-name="uni01EB" unicode="&#x1eb;" horiz-adv-x="562" 
d="M281 494q80 0 127 -24.5t67.5 -80t20.5 -148.5q0 -92 -20.5 -148t-67.5 -80.5t-127 -24.5q-78 0 -126 24.5t-68.5 80.5t-20.5 148q0 93 20.5 148.5t68.5 80t126 24.5zM281 458q-64 0 -102 -20t-54.5 -67t-16.5 -130q0 -82 16.5 -130t54.5 -68t102 -20t102 20t55 68
t17 130q0 83 -17 130t-55 67t-102 20zM291 4l24 -2q-26 -26 -48 -56t-36 -67q-16 -44 9.5 -58t79.5 5l5 -18q-41 -18 -69 -19t-43.5 11.5t-19 33.5t5.5 46q9 26 30.5 57t61.5 67z" />
    <glyph glyph-name="Aringacute" unicode="&#x1fa;" horiz-adv-x="608" 
d="M332 630q7 0 11.5 -3t6.5 -10l241 -617h-43l-210 540q-6 14 -10.5 28t-9.5 28h-28q-5 -14 -9.5 -28t-10.5 -28l-210 -540h-43l241 617q3 7 7.5 10t10.5 3h56zM487 224v-36h-367v36h367zM383 976l21 -32l-141 -86l-15 22zM308 847q27 0 49.5 -13t35.5 -35t13 -49
q0 -26 -13 -48.5t-35.5 -36t-49.5 -13.5t-50 13t-36 35.5t-13 49.5t13 49t36 35t50 13zM308 822q-31 0 -51 -20.5t-20 -51.5q0 -32 20 -52.5t51 -20.5q30 0 50.5 20.5t20.5 52.5q0 31 -20.5 51.5t-50.5 20.5z" />
    <glyph glyph-name="aringacute" unicode="&#x1fb;" horiz-adv-x="541" 
d="M356 875l21 -30l-150 -94l-14 20zM312 494q45 0 77 -14t48.5 -44.5t16.5 -81.5v-354h-30l-8 106l-2 7v241q0 46 -22 75t-85 29q-50 0 -108.5 -4.5t-112.5 -10.5l-4 30q32 5 67.5 9.5t76 8t86.5 3.5zM429 293l-1 -32l-242 -3q-42 -1 -62.5 -22t-20.5 -61v-54
q0 -45 23.5 -67.5t70.5 -23.5q36 -1 78 12.5t82 37.5t68 53v-35q-14 -16 -38 -33.5t-55 -34t-66.5 -27t-72.5 -10.5q-40 0 -69.5 14.5t-45.5 42.5t-16 68v60q0 55 31.5 85t88.5 30h247zM269 730q27 0 49.5 -13.5t35.5 -35.5t13 -49q0 -25 -13 -47.5t-35.5 -36t-49.5 -13.5
t-50 12.5t-36 35t-13 49.5t13 49t36 35.5t50 13.5zM269 704q-31 0 -51 -20.5t-20 -51.5t20 -51.5t51 -20.5q30 0 50.5 20.5t20.5 51.5t-20.5 51.5t-50.5 20.5z" />
    <glyph glyph-name="AEacute" unicode="&#x1fc;" horiz-adv-x="907" 
d="M573 690q93 0 156.5 -1t121.5 -3l-1 -32h-265q-36 0 -57.5 -21t-21.5 -57v-462q0 -36 21.5 -57.5t57.5 -21.5h265l1 -31q-70 -3 -139.5 -3.5t-139.5 -0.5q-46 0 -76 30t-30 76v474q0 22 12 45t27 30h-6q-16 -7 -34.5 -24t-37.5 -45l-373 -586h-46l384 599q18 29 37.5 47
t41.5 27.5t47.5 13t54.5 3.5zM481 295v-35h-282l11 35h271zM483 386l325 -1v-33l-325 -1v35zM668 918l26 -30l-163 -135l-18 20z" />
    <glyph glyph-name="aeacute" unicode="&#x1fd;" horiz-adv-x="878" 
d="M625 494q98 0 145.5 -35.5t48.5 -106.5q1 -47 -13 -76t-44.5 -42t-81.5 -13h-247v33h241q59 0 82.5 23t21.5 73q0 55 -37.5 81.5t-114.5 26.5q-63 0 -100.5 -20t-54 -67t-16.5 -126q0 -84 19 -132.5t59.5 -68.5t104.5 -20q47 0 90.5 4t74.5 8l5 -28q-18 -6 -49.5 -10.5
t-65.5 -7t-60 -2.5q-78 0 -126 25.5t-70.5 81.5t-22.5 148q0 93 21.5 148t68 79t121.5 24zM429 293l-1 -32l-242 -3q-42 -1 -62.5 -22t-20.5 -61v-54q0 -45 23.5 -67.5t70.5 -23.5q39 -1 84 13.5t88 40t72 57.5v-35q-15 -17 -41 -36t-59 -37t-71 -29t-77 -11
q-40 0 -69.5 14.5t-45.5 42.5t-16 68v60q0 55 31.5 85t88.5 30h247zM312 494q45 0 77 -14t48.5 -44.5t16.5 -81.5v-125l-40 -1v126q0 46 -22 75t-85 29q-50 0 -108.5 -4.5t-112.5 -10.5l-4 30q32 5 67.5 9.5t76 8t86.5 3.5zM566 718l26 -30l-163 -135l-18 20z" />
    <glyph glyph-name="Oslashacute" unicode="&#x1fe;" 
d="M494 743l28 -12l-368 -784l-27 13zM332 702q72 0 122 -18.5t80 -60.5t43.5 -110t13.5 -168t-13.5 -168t-43.5 -110t-80 -60.5t-122 -18.5t-122 18.5t-80 60.5t-44 110t-14 168t14 168t44 110t80 60.5t122 18.5zM332 665q-81 0 -128 -30.5t-68 -100.5t-21 -189t21 -189
t68 -100.5t128 -30.5q80 0 127.5 30.5t68 100.5t20.5 189t-20.5 189t-68 100.5t-127.5 30.5zM434 901l26 -30l-163 -135l-18 20z" />
    <glyph glyph-name="oslashacute" unicode="&#x1ff;" horiz-adv-x="562" 
d="M404 544l24 -11l-278 -598l-25 12zM281 494q80 0 127 -24.5t67.5 -80t20.5 -148.5q0 -92 -20.5 -148t-67.5 -80.5t-127 -24.5q-79 0 -126.5 24.5t-68 80.5t-20.5 148q0 93 20.5 148.5t68 80t126.5 24.5zM281 458q-64 0 -102 -20t-54.5 -67t-16.5 -130q0 -82 16.5 -130
t54.5 -68t102 -20t102 20t55 68t17 130q0 83 -17 130t-55 67t-102 20zM382 718l26 -30l-163 -135l-18 20z" />
    <glyph glyph-name="uni0200" unicode="&#x200;" horiz-adv-x="608" 
d="M332 690q7 0 11.5 -3t6.5 -10l241 -677h-43l-210 600l-10 28l-10 28h-28l-10 -28l-10 -28l-210 -600h-43l241 677q2 7 7 10t11 3h56zM478 279v-36h-350v36h350zM298 907l111 -162l-22 -14l-121 154zM152 907l110 -162l-21 -14l-122 154z" />
    <glyph glyph-name="uni0201" unicode="&#x201;" horiz-adv-x="541" 
d="M312 494q45 0 77 -14t48.5 -44.5t16.5 -81.5v-354h-30l-8 106l-2 7v241q0 46 -22 75t-85 29q-50 0 -108.5 -4.5t-112.5 -10.5l-4 30q32 5 67.5 9.5t76 8t86.5 3.5zM429 293l-1 -32l-242 -3q-42 -1 -62.5 -22t-20.5 -61v-54q0 -45 23.5 -67.5t70.5 -23.5q36 -1 78 12.5
t82 37.5t68 53v-35q-14 -16 -38 -33.5t-55 -34t-66.5 -27t-72.5 -10.5q-40 0 -69.5 14.5t-45.5 42.5t-16 68v60q0 55 31.5 85t88.5 30h247zM262 728l111 -162l-22 -14l-121 154zM116 728l110 -162l-21 -14l-122 154z" />
    <glyph glyph-name="uni0202" unicode="&#x202;" horiz-adv-x="608" 
d="M332 690q7 0 11.5 -3t6.5 -10l241 -677h-43l-210 600l-10 28l-10 28h-28l-10 -28l-10 -28l-210 -600h-43l241 677q2 7 7 10t11 3h56zM478 279v-36h-350v36h350zM187 752l-24 5q-1 37 16 63.5t48.5 40.5t74.5 14t75 -14t49 -40.5t16 -63.5l-25 -5q0 43 -30.5 66t-84.5 23
q-53 0 -84 -23t-31 -66z" />
    <glyph glyph-name="uni0203" unicode="&#x203;" horiz-adv-x="541" 
d="M312 494q45 0 77 -14t48.5 -44.5t16.5 -81.5v-354h-30l-8 106l-2 7v241q0 46 -22 75t-85 29q-50 0 -108.5 -4.5t-112.5 -10.5l-4 30q32 5 67.5 9.5t76 8t86.5 3.5zM429 293l-1 -32l-242 -3q-42 -1 -62.5 -22t-20.5 -61v-54q0 -45 23.5 -67.5t70.5 -23.5q36 -1 78 12.5
t82 37.5t68 53v-35q-14 -16 -38 -33.5t-55 -34t-66.5 -27t-72.5 -10.5q-40 0 -69.5 14.5t-45.5 42.5t-16 68v60q0 55 31.5 85t88.5 30h247zM151 573l-24 5q-1 37 16 63.5t48.5 40.5t74.5 14t75 -14t49 -40.5t16 -63.5l-25 -5q0 43 -30.5 66t-84.5 23q-53 0 -84 -23t-31 -66z
" />
    <glyph glyph-name="uni0204" unicode="&#x204;" horiz-adv-x="553" 
d="M203 690h98.5t98.5 -1t97 -3l-2 -31h-285q-34 0 -55 -21.5t-21 -56.5v-464q0 -35 21 -56.5t55 -21.5h285l2 -31q-48 -2 -97 -3t-98.5 -1h-98.5t-79.5 30t-30.5 76v478q0 47 30.5 76.5t79.5 29.5zM110 386l344 -1v-33l-344 -1v35zM303 931l111 -162l-22 -14l-121 154z
M157 931l110 -162l-21 -14l-122 154z" />
    <glyph glyph-name="uni0205" unicode="&#x205;" horiz-adv-x="530" 
d="M276 494q98 0 145.5 -35.5t48.5 -106.5q2 -64 -22.5 -97.5t-83.5 -33.5h-280v33h274q41 0 57 26t14 70q-1 57 -38 82.5t-113 25.5q-64 0 -101.5 -20t-53.5 -67t-16 -126q0 -84 18.5 -132.5t59 -68.5t104.5 -20q47 0 90.5 4t74.5 8l5 -28q-18 -6 -49 -10.5t-65 -7
t-61 -2.5q-78 0 -126 25.5t-70.5 81.5t-22.5 148q0 93 21.5 148t68 79t121.5 24zM272 728l111 -162l-22 -14l-121 154zM126 728l110 -162l-21 -14l-122 154z" />
    <glyph glyph-name="uni0206" unicode="&#x206;" horiz-adv-x="553" 
d="M203 690h98.5t98.5 -1t97 -3l-2 -31h-285q-34 0 -55 -21.5t-21 -56.5v-464q0 -35 21 -56.5t55 -21.5h285l2 -31q-48 -2 -97 -3t-98.5 -1h-98.5t-79.5 30t-30.5 76v478q0 47 30.5 76.5t79.5 29.5zM110 386l344 -1v-33l-344 -1v35zM193 776l-24 5q-1 37 16 63.5t48.5 40.5
t74.5 14t75 -14t49 -40.5t16 -63.5l-25 -5q0 43 -30.5 66t-84.5 23q-53 0 -84 -23t-31 -66z" />
    <glyph glyph-name="uni0207" unicode="&#x207;" horiz-adv-x="530" 
d="M276 494q98 0 145.5 -35.5t48.5 -106.5q2 -64 -22.5 -97.5t-83.5 -33.5h-280v33h274q41 0 57 26t14 70q-1 57 -38 82.5t-113 25.5q-64 0 -101.5 -20t-53.5 -67t-16 -126q0 -84 18.5 -132.5t59 -68.5t104.5 -20q47 0 90.5 4t74.5 8l5 -28q-18 -6 -49 -10.5t-65 -7
t-61 -2.5q-78 0 -126 25.5t-70.5 81.5t-22.5 148q0 93 21.5 148t68 79t121.5 24zM161 573l-24 5q-1 37 16 63.5t48.5 40.5t74.5 14t75 -14t49 -40.5t16 -63.5l-25 -5q0 43 -30.5 66t-84.5 23q-53 0 -84 -23t-31 -66z" />
    <glyph glyph-name="uni0208" unicode="&#x208;" horiz-adv-x="239" 
d="M140 690v-690h-41v690h41zM113 909l111 -162l-22 -14l-121 154zM-33 909l110 -162l-21 -14l-122 154z" />
    <glyph glyph-name="uni0209" unicode="&#x209;" horiz-adv-x="227" 
d="M134 482v-482h-40v482h40zM107 728l111 -162l-22 -14l-121 154zM-39 728l110 -162l-21 -14l-122 154z" />
    <glyph glyph-name="uni020A" unicode="&#x20a;" horiz-adv-x="239" 
d="M140 690v-690h-41v690h41zM2 754l-24 5q-1 37 16 63.5t48.5 40.5t74.5 14t75 -14t49 -40.5t16 -63.5l-25 -5q0 43 -30.5 66t-84.5 23q-53 0 -84 -23t-31 -66z" />
    <glyph glyph-name="uni020B" unicode="&#x20b;" horiz-adv-x="227" 
d="M134 482v-482h-40v482h40zM-4 573l-24 5q-1 37 16 63.5t48.5 40.5t74.5 14t75 -14t49 -40.5t16 -63.5l-25 -5q0 43 -30.5 66t-84.5 23q-53 0 -84 -23t-31 -66z" />
    <glyph glyph-name="uni020C" unicode="&#x20c;" 
d="M332 702q72 0 122 -18.5t80 -60.5t43.5 -110t13.5 -168t-13.5 -168t-43.5 -110t-80 -60.5t-122 -18.5t-122 18.5t-80 60.5t-44 110t-14 168t14 168t44 110t80 60.5t122 18.5zM332 665q-81 0 -128 -30.5t-68 -100.5t-21 -189t21 -189t68 -100.5t128 -30.5q80 0 127.5 30.5
t68 100.5t20.5 189t-20.5 189t-68 100.5t-127.5 30.5zM326 909l111 -162l-22 -14l-121 154zM180 909l110 -162l-21 -14l-122 154z" />
    <glyph glyph-name="uni020D" unicode="&#x20d;" horiz-adv-x="562" 
d="M281 494q80 0 127 -24.5t67.5 -80t20.5 -148.5q0 -92 -20.5 -148t-67.5 -80.5t-127 -24.5q-78 0 -126 24.5t-68.5 80.5t-20.5 148q0 93 20.5 148.5t68.5 80t126 24.5zM281 458q-64 0 -102 -20t-54.5 -67t-16.5 -130q0 -82 16.5 -130t54.5 -68t102 -20t102 20t55 68
t17 130q0 83 -17 130t-55 67t-102 20zM274 727l111 -162l-22 -14l-121 154zM128 727l110 -162l-21 -14l-122 154z" />
    <glyph glyph-name="uni020E" unicode="&#x20e;" 
d="M332 702q72 0 122 -18.5t80 -60.5t43.5 -110t13.5 -168t-13.5 -168t-43.5 -110t-80 -60.5t-122 -18.5t-122 18.5t-80 60.5t-44 110t-14 168t14 168t44 110t80 60.5t122 18.5zM332 665q-81 0 -128 -30.5t-68 -100.5t-21 -189t21 -189t68 -100.5t128 -30.5q80 0 127.5 30.5
t68 100.5t20.5 189t-20.5 189t-68 100.5t-127.5 30.5zM216 754l-24 5q-1 37 16 63.5t48.5 40.5t74.5 14t75 -14t49 -40.5t16 -63.5l-25 -5q0 43 -30.5 66t-84.5 23q-53 0 -84 -23t-31 -66z" />
    <glyph glyph-name="uni020F" unicode="&#x20f;" horiz-adv-x="562" 
d="M281 494q80 0 127 -24.5t67.5 -80t20.5 -148.5q0 -92 -20.5 -148t-67.5 -80.5t-127 -24.5q-78 0 -126 24.5t-68.5 80.5t-20.5 148q0 93 20.5 148.5t68.5 80t126 24.5zM281 458q-64 0 -102 -20t-54.5 -67t-16.5 -130q0 -82 16.5 -130t54.5 -68t102 -20t102 20t55 68
t17 130q0 83 -17 130t-55 67t-102 20zM163 572l-24 5q-1 37 16 63.5t48.5 40.5t74.5 14t75 -14t49 -40.5t16 -63.5l-25 -5q0 43 -30.5 66t-84.5 23q-53 0 -84 -23t-31 -66z" />
    <glyph glyph-name="uni0210" unicode="&#x210;" horiz-adv-x="610" 
d="M324 698q75 0 120 -16.5t65 -59t20 -119.5q0 -60 -13 -98.5t-41 -58t-73 -25.5v-5q18 -4 32.5 -18t26.5 -33.5t20 -44.5l73 -220h-45l-70 217q-16 48 -42.5 67.5t-65.5 19.5q-58 0 -103.5 1t-75.5 2t-43 2l3 32h212q60 1 95.5 15t51.5 48.5t16 97.5t-16 97.5t-51.5 48.5
t-95.5 14q-78 0 -134.5 -1t-76.5 -2l-14 31q36 4 67.5 5.5t68.5 2t89 0.5zM140 690v-690h-41v690h41zM296 909l111 -162l-22 -14l-121 154zM150 909l110 -162l-21 -14l-122 154z" />
    <glyph glyph-name="uni0211" unicode="&#x211;" horiz-adv-x="388" 
d="M121 482l5 -89l4 -16v-377h-39v482h30zM366 494l-6 -38h-20q-50 0 -99 -24t-115 -67l-2 30q58 47 113.5 73t108.5 26h20zM214 728l111 -162l-22 -14l-121 154zM68 728l110 -162l-21 -14l-122 154z" />
    <glyph glyph-name="uni0212" unicode="&#x212;" horiz-adv-x="610" 
d="M324 698q75 0 120 -16.5t65 -59t20 -119.5q0 -60 -13 -98.5t-41 -58t-73 -25.5v-5q18 -4 32.5 -18t26.5 -33.5t20 -44.5l73 -220h-45l-70 217q-16 48 -42.5 67.5t-65.5 19.5q-58 0 -103.5 1t-75.5 2t-43 2l3 32h212q60 1 95.5 15t51.5 48.5t16 97.5t-16 97.5t-51.5 48.5
t-95.5 14q-78 0 -134.5 -1t-76.5 -2l-14 31q36 4 67.5 5.5t68.5 2t89 0.5zM140 690v-690h-41v690h41zM186 754l-24 5q-1 37 16 63.5t48.5 40.5t74.5 14t75 -14t49 -40.5t16 -63.5l-25 -5q0 43 -30.5 66t-84.5 23q-53 0 -84 -23t-31 -66z" />
    <glyph glyph-name="uni0213" unicode="&#x213;" horiz-adv-x="388" 
d="M121 482l5 -89l4 -16v-377h-39v482h30zM366 494l-6 -38h-20q-50 0 -99 -24t-115 -67l-2 30q58 47 113.5 73t108.5 26h20zM103 573l-24 5q-1 37 16 63.5t48.5 40.5t74.5 14t75 -14t49 -40.5t16 -63.5l-25 -5q0 43 -30.5 66t-84.5 23q-53 0 -84 -23t-31 -66z" />
    <glyph glyph-name="uni0214" unicode="&#x214;" horiz-adv-x="667" 
d="M573 690v-433q0 -97 -23.5 -156t-75.5 -86t-139 -27q-89 0 -141.5 27t-76 86t-23.5 156v433h41v-433q0 -85 19.5 -136t63 -73.5t116.5 -22.5q72 0 115.5 22.5t63 73.5t19.5 136v433h41zM325 913l111 -162l-22 -14l-122 153zM179 913l110 -162l-21 -14l-122 153z" />
    <glyph glyph-name="uni0215" unicode="&#x215;" horiz-adv-x="563" 
d="M127 482v-354q-1 -54 24 -79t77 -25q50 0 97 24t112 70l3 -33q-59 -48 -114 -72.5t-109 -24.5q-130 0 -130 132v362h40zM472 482v-482h-31l-4 89l-5 16v377h40zM275 728l111 -162l-22 -14l-121 154zM129 728l110 -162l-21 -14l-122 154z" />
    <glyph glyph-name="uni0216" unicode="&#x216;" horiz-adv-x="667" 
d="M573 690v-433q0 -97 -23.5 -156t-75.5 -86t-139 -27q-89 0 -141.5 27t-76 86t-23.5 156v433h41v-433q0 -85 19.5 -136t63 -73.5t116.5 -22.5q72 0 115.5 22.5t63 73.5t19.5 136v433h41zM217 754l-24 5q-1 37 16 63.5t48.5 40.5t74.5 14t75 -14t49 -40.5t16 -63.5l-25 -5
q0 43 -30.5 66t-84.5 23q-53 0 -84 -23t-31 -66z" />
    <glyph glyph-name="uni0217" unicode="&#x217;" horiz-adv-x="563" 
d="M127 482v-354q-1 -54 24 -79t77 -25q50 0 97 24t112 70l3 -33q-59 -48 -114 -72.5t-109 -24.5q-130 0 -130 132v362h40zM472 482v-482h-31l-4 89l-5 16v377h40zM164 574l-24 5q-1 37 16 63.5t48.5 40.5t74.5 14t75 -14t49 -40.5t16 -63.5l-25 -5q0 43 -30.5 66t-84.5 23
q-53 0 -84 -23t-31 -66z" />
    <glyph glyph-name="uni0218" unicode="&#x218;" horiz-adv-x="556" 
d="M296 -63q9 0 12.5 -3.5t4.5 -12.5l-1 -57q0 -18 -2.5 -38.5t-7 -42t-10.5 -38.5l-18 5q3 27 4 47.5t1 55.5q-12 0 -10 12v56q0 9 3.5 12.5t12.5 3.5h11zM275 701q48 -1 96.5 -4t95.5 -10l-4 -30q-44 2 -91.5 4.5t-95.5 2.5q-45 0 -77.5 -3t-53.5 -16t-30.5 -41.5
t-9.5 -81.5q0 -71 23.5 -102t79.5 -40l150 -25q77 -11 108 -53.5t31 -130.5q0 -61 -14 -97.5t-41 -54.5t-67 -24t-94 -6q-39 0 -90 2t-116 11l3 31q44 -3 76.5 -4.5t62.5 -2t66 -0.5q63 1 100.5 11t54.5 41t17 93q0 51 -10.5 80.5t-34 45t-62.5 20.5l-150 25
q-74 11 -104.5 54.5t-30.5 126.5q0 61 13 97.5t39 54t66.5 22.5t93.5 4z" />
    <glyph glyph-name="uni0219" unicode="&#x219;" horiz-adv-x="501" 
d="M267 -63q9 0 12 -3.5t4 -12.5l-1 -57q0 -18 -2.5 -38.5t-6.5 -42t-11 -38.5l-17 5q2 27 3 47.5t1 55.5q-11 0 -10 12l1 56q-1 9 3 12.5t12 3.5h12zM239 494q30 0 63 -1.5t66 -4.5t62 -7l-4 -29q-44 2 -91.5 4t-91.5 3q-51 1 -83 -3t-47 -24t-15 -67q0 -49 20.5 -68
t57.5 -25l157 -23q54 -9 82 -38t28 -87q0 -61 -22.5 -89.5t-65.5 -37t-106 -8.5q-33 0 -77.5 2t-101.5 10l4 29q30 -2 57 -3.5t54.5 -2t59.5 -0.5q59 1 93.5 7.5t50 28t15.5 64.5q0 48 -23.5 67t-59.5 24l-157 23q-34 5 -58 19.5t-35.5 40.5t-11.5 67q0 60 20 87.5t60 35
t100 6.5z" />
    <glyph glyph-name="uni021A" unicode="&#x21a;" horiz-adv-x="568" 
d="M280 -63q9 0 12.5 -3.5t4.5 -12.5l-1 -57q0 -18 -2.5 -38.5t-7 -42t-10.5 -38.5l-18 5q3 27 4 47.5t1 55.5q-12 0 -10 12l1 56q-1 9 2.5 12.5t12.5 3.5h11zM304 690v-690h-41v690h41zM542 690v-36h-516v36h516z" />
    <glyph glyph-name="uni021B" unicode="&#x21b;" horiz-adv-x="356" 
d="M238 -63q8 0 11.5 -3.5t4.5 -12.5l-1 -57q0 -18 -2.5 -38.5t-7 -42t-10.5 -38.5l-18 5q3 27 4 47.5t1 55.5q-11 0 -10 12l1 56q-1 9 3 12.5t12 3.5h12zM159 631v-525q0 -39 19.5 -57.5t57.5 -18.5h84l5 -29q-14 -2 -32 -4t-34 -3t-26 -1q-56 0 -85 28t-29 81v529h40z
M331 482v-34h-299v29l94 5h205z" />
    <glyph glyph-name="uni022A" unicode="&#x22a;" 
d="M332 702q72 0 122 -18.5t80 -60.5t43.5 -110t13.5 -168t-13.5 -168t-43.5 -110t-80 -60.5t-122 -18.5t-122 18.5t-80 60.5t-44 110t-14 168t14 168t44 110t80 60.5t122 18.5zM332 665q-81 0 -128 -30.5t-68 -100.5t-21 -189t21 -189t68 -100.5t128 -30.5q80 0 127.5 30.5
t68 100.5t20.5 189t-20.5 189t-68 100.5t-127.5 30.5zM420 852q12 0 12 -13v-50q0 -13 -12 -13h-14q-13 0 -13 13v50q0 13 13 13h14zM259 852q12 0 12 -13v-50q0 -13 -12 -13h-14q-13 0 -13 13v50q0 13 13 13h14zM212 941h241v-30h-241v30z" />
    <glyph glyph-name="uni022B" unicode="&#x22b;" horiz-adv-x="562" 
d="M281 494q80 0 127 -24.5t67.5 -80t20.5 -148.5q0 -92 -20.5 -148t-67.5 -80.5t-127 -24.5q-78 0 -126 24.5t-68.5 80.5t-20.5 148q0 93 20.5 148.5t68.5 80t126 24.5zM281 458q-64 0 -102 -20t-54.5 -67t-16.5 -130q0 -82 16.5 -130t54.5 -68t102 -20t102 20t55 68
t17 130q0 83 -17 130t-55 67t-102 20zM368 669q12 0 12 -13v-50q0 -13 -12 -13h-14q-13 0 -13 13v50q0 13 13 13h14zM207 669q12 0 12 -13v-50q0 -13 -12 -13h-14q-13 0 -13 13v50q0 13 13 13h14zM160 758h241v-30h-241v30z" />
    <glyph glyph-name="uni022C" unicode="&#x22c;" 
d="M332 702q72 0 122 -18.5t80 -60.5t43.5 -110t13.5 -168t-13.5 -168t-43.5 -110t-80 -60.5t-122 -18.5t-122 18.5t-80 60.5t-44 110t-14 168t14 168t44 110t80 60.5t122 18.5zM332 665q-81 0 -128 -30.5t-68 -100.5t-21 -189t21 -189t68 -100.5t128 -30.5q80 0 127.5 30.5
t68 100.5t20.5 189t-20.5 189t-68 100.5t-127.5 30.5zM259 858q22 -2 39 -11.5t32.5 -21.5t32.5 -21t38 -11q31 -2 43.5 12t12.5 48h23q3 -47 -18.5 -71t-57.5 -21q-33 3 -55.5 18t-42.5 30t-45 17q-30 3 -42.5 -13t-12.5 -51h-23q-2 33 7.5 55.5t27.5 32.5t41 8zM452 914
h-241v31h241v-31z" />
    <glyph glyph-name="uni022D" unicode="&#x22d;" horiz-adv-x="562" 
d="M281 494q80 0 127 -24.5t67.5 -80t20.5 -148.5q0 -92 -20.5 -148t-67.5 -80.5t-127 -24.5q-78 0 -126 24.5t-68.5 80.5t-20.5 148q0 93 20.5 148.5t68.5 80t126 24.5zM281 458q-64 0 -102 -20t-54.5 -67t-16.5 -130q0 -82 16.5 -130t54.5 -68t102 -20t102 20t55 68
t17 130q0 83 -17 130t-55 67t-102 20zM207 675q22 -2 39 -11.5t32.5 -21.5t32.5 -21t38 -11q31 -2 43.5 12t12.5 48h23q3 -47 -18.5 -71t-57.5 -21q-33 3 -55.5 18t-42.5 30t-45 17q-30 3 -42.5 -13t-12.5 -51h-23q-2 33 7.5 55.5t27.5 32.5t41 8zM400 731h-241v31h241v-31z
" />
    <glyph glyph-name="uni0230" unicode="&#x230;" 
d="M332 702q72 0 122 -18.5t80 -60.5t43.5 -110t13.5 -168t-13.5 -168t-43.5 -110t-80 -60.5t-122 -18.5t-122 18.5t-80 60.5t-44 110t-14 168t14 168t44 110t80 60.5t122 18.5zM332 665q-81 0 -128 -30.5t-68 -100.5t-21 -189t21 -189t68 -100.5t128 -30.5q80 0 127.5 30.5
t68 100.5t20.5 189t-20.5 189t-68 100.5t-127.5 30.5zM212 941h241v-30h-241v30zM339 855q13 0 13 -14v-55q0 -7 -3.5 -11t-9.5 -4h-14q-14 0 -14 15v55q0 14 14 14h14z" />
    <glyph glyph-name="uni0231" unicode="&#x231;" horiz-adv-x="562" 
d="M281 494q80 0 127 -24.5t67.5 -80t20.5 -148.5q0 -92 -20.5 -148t-67.5 -80.5t-127 -24.5q-78 0 -126 24.5t-68.5 80.5t-20.5 148q0 93 20.5 148.5t68.5 80t126 24.5zM281 458q-64 0 -102 -20t-54.5 -67t-16.5 -130q0 -82 16.5 -130t54.5 -68t102 -20t102 20t55 68
t17 130q0 83 -17 130t-55 67t-102 20zM160 758h241v-30h-241v30zM287 672q13 0 13 -14v-55q0 -7 -3.5 -11t-9.5 -4h-14q-14 0 -14 15v55q0 14 14 14h14z" />
    <glyph glyph-name="uni0232" unicode="&#x232;" horiz-adv-x="548" 
d="M528 690l-237 -444h-33l-239 444h45l171 -322q9 -17 18 -35l18 -36h6q8 18 17.5 35.5t17.5 34.5l171 323h45zM295 285v-285h-42v285h42zM407 830v-33h-264v33h264z" />
    <glyph glyph-name="uni0233" unicode="&#x233;" horiz-adv-x="512" 
d="M486 482l-215 -524q-13 -30 -27.5 -57t-34.5 -49.5t-46 -38t-62 -22.5l-6 25q59 22 90 61t50 89l21 50q7 17 14 36.5t14 35.5l158 394h44zM70 482l158 -395q5 -14 11 -27t10 -27h20l-14 -33h-19q-5 0 -10 3t-7 9l-192 470h43zM391 651v-33h-264v33h264z" />
    <glyph glyph-name="uni0237" unicode="&#x237;" horiz-adv-x="228" 
d="M134 482v-519q0 -34 -9 -64.5t-25.5 -57t-38.5 -49.5l-22 17q27 34 41 69.5t14 84.5v519h40z" />
    <glyph glyph-name="uni0259" unicode="&#x259;" horiz-adv-x="529" 
d="M253 -12q-98 0 -145.5 35.5t-48.5 106.5q-1 64 23 97.5t83 33.5h280v-33h-274q-41 0 -56.5 -26t-15.5 -71q2 -56 39 -81.5t113 -25.5q64 0 101.5 20t53.5 67t16 126q0 85 -18.5 133t-59 68t-104.5 20q-47 0 -90.5 -4t-74.5 -9l-5 28q18 7 49 11.5t65 7t61 2.5
q78 0 126 -25.5t70.5 -81t22.5 -148.5t-21.5 -148t-68 -79t-121.5 -24z" />
    <glyph glyph-name="uni02B9" unicode="&#x2b9;" horiz-adv-x="241" 
d="M171 748l-59 -210h-30l53 210h36z" />
    <glyph glyph-name="uni02BA" unicode="&#x2ba;" horiz-adv-x="350" 
d="M280 748l-60 -210h-29l53 210h36zM171 748l-59 -210h-30l54 210h35z" />
    <glyph glyph-name="uni02BB" unicode="&#x2bb;" horiz-adv-x="213" 
d="M99 541q-9 0 -13 4.5t-4 13.5v64q1 20 3.5 43.5t7.5 47t12 42.5l19 -6q-3 -30 -4 -53.5t-1 -60.5q5 0 8 -4t3 -11l-1 -62q0 -9 -4 -13.5t-12 -4.5h-14z" />
    <glyph glyph-name="uni02BE" unicode="&#x2be;" horiz-adv-x="185" 
d="M109 639q0 32 -20 52.5t-51 20.5v25q28 0 50 -13t35.5 -35t13.5 -49t-13.5 -49.5t-35.5 -35.5t-50 -13v25q30 0 50.5 20.5t20.5 51.5z" />
    <glyph glyph-name="uni02BF" unicode="&#x2bf;" horiz-adv-x="185" 
d="M147 712q-30 0 -50.5 -20.5t-20.5 -52.5q0 -31 20.5 -51.5t50.5 -20.5v-25q-27 0 -49.5 13t-36 35.5t-13.5 49.5t13.5 49t36 35t49.5 13v-25z" />
    <glyph glyph-name="circumflex" unicode="&#x2c6;" horiz-adv-x="399" 
d="M214 706l136 -119l-16 -19l-130 101h-8l-129 -101l-17 19l135 119h29z" />
    <glyph glyph-name="caron" unicode="&#x2c7;" horiz-adv-x="399" 
d="M334 709l16 -18l-138 -120h-24l-139 120l18 18l129 -98h8z" />
    <glyph glyph-name="uni02C8" unicode="&#x2c8;" horiz-adv-x="193" 
d="M113 584h-33v104h33v-104z" />
    <glyph glyph-name="uni02C9" unicode="&#x2c9;" horiz-adv-x="400" 
d="M332 654v-33h-264v33h264z" />
    <glyph glyph-name="uni02CA" unicode="&#x2ca;" horiz-adv-x="287" 
d="M212 714l26 -30l-163 -135l-18 19z" />
    <glyph glyph-name="uni02CB" unicode="&#x2cb;" horiz-adv-x="287" 
d="M72 712l155 -145l-18 -20l-163 135z" />
    <glyph glyph-name="uni02CC" unicode="&#x2cc;" horiz-adv-x="193" 
d="M113 -165h-33v104h33v-104z" />
    <glyph glyph-name="breve" unicode="&#x2d8;" horiz-adv-x="362" 
d="M296 689l25 -4q1 -36 -16 -63t-48 -41.5t-75 -14.5q-43 0 -75 14.5t-49 41.5t-16 63l24 4q0 -42 31 -65.5t85 -23.5q53 0 83.5 23.5t30.5 65.5z" />
    <glyph glyph-name="dotaccent" unicode="&#x2d9;" horiz-adv-x="210" 
d="M112 678q16 0 16 -15v-61q0 -15 -16 -15h-14q-16 0 -16 15v61q0 15 16 15h14z" />
    <glyph glyph-name="ring" unicode="&#x2da;" horiz-adv-x="294" 
d="M147 737q28 0 50 -13t35.5 -35t13.5 -49q0 -26 -13 -48.5t-35.5 -36t-50.5 -13.5q-27 0 -49.5 13t-36 35.5t-13.5 49.5t13.5 49t36 35t49.5 13zM147 712q-30 0 -50.5 -20.5t-20.5 -52.5q0 -31 20.5 -51.5t50.5 -20.5q31 0 51 20.5t20 51.5q0 32 -20 52.5t-51 20.5z" />
    <glyph glyph-name="ogonek" unicode="&#x2db;" horiz-adv-x="253" 
d="M145 2l24 -2q-26 -26 -48 -56t-36 -67q-16 -44 9.5 -58t79.5 5l5 -18q-41 -18 -69 -19t-43.5 11.5t-19 33.5t5.5 46q9 26 30.5 57t61.5 67z" />
    <glyph glyph-name="tilde" unicode="&#x2dc;" horiz-adv-x="404" 
d="M130 690q22 -2 39 -11.5t32.5 -21t32.5 -20.5t38 -12q31 -2 43.5 12.5t12.5 47.5h23q3 -46 -18.5 -70.5t-57.5 -21.5q-33 3 -55.5 18t-42.5 30t-45 17q-30 3 -42.5 -12.5t-12.5 -50.5h-23q-2 33 7.5 55t27.5 32t41 8z" />
    <glyph glyph-name="hungarumlaut" unicode="&#x2dd;" horiz-adv-x="422" 
d="M171 722l32 -22l-121 -154l-22 14zM317 722l32 -22l-121 -154l-22 14z" />
    <glyph glyph-name="acutecomb" unicode="&#x301;" horiz-adv-x="0" 
d="M-116 712l26 -30l-163 -135l-18 20z" />
    <glyph glyph-name="uni0302" unicode="&#x302;" horiz-adv-x="0" 
d="M-193 706l135 -119l-16 -19l-130 101h-8l-129 -101l-16 19l134 119h30z" />
    <glyph glyph-name="tildecomb" unicode="&#x303;" horiz-adv-x="0" 
d="M-285 690q22 -2 39 -11.5t32.5 -21t32 -20.5t38.5 -12q30 -2 43 12.5t13 47.5h22q4 -46 -17.5 -70.5t-57.5 -21.5q-34 3 -56.5 18t-42 30t-44.5 17q-30 3 -42.5 -12.5t-12.5 -50.5h-23q-2 33 7 55t27 32t42 8z" />
    <glyph glyph-name="uni0304" unicode="&#x304;" horiz-adv-x="0" 
d="M-69 654v-33h-265v33h265z" />
    <glyph glyph-name="uni0306" unicode="&#x306;" horiz-adv-x="0" 
d="M-95 689l24 -4q1 -36 -15.5 -63t-48 -41.5t-74.5 -14.5q-44 0 -75.5 14.5t-48.5 41.5t-17 63l25 4q0 -42 31 -65.5t85 -23.5q52 0 83 23.5t31 65.5z" />
    <glyph glyph-name="uni0307" unicode="&#x307;" horiz-adv-x="0" 
d="M-164 678q15 0 15 -15v-61q0 -15 -15 -15h-15q-15 0 -15 15v61q0 15 15 15h15z" />
    <glyph glyph-name="uni0308" unicode="&#x308;" horiz-adv-x="0" 
d="M-128 678q13 0 13 -14v-56q0 -14 -13 -14h-15q-14 0 -14 14v56q0 14 14 14h15zM-305 678q13 0 13 -14v-56q0 -14 -13 -14h-15q-14 0 -14 14v56q0 14 14 14h15z" />
    <glyph glyph-name="hookabovecomb" unicode="&#x309;" horiz-adv-x="0" 
d="M-163 588q36 12 51.5 33t15.5 47q0 34 -24.5 45t-67.5 2l-6 24q39 9 68 4.5t45 -22.5t16 -51q0 -23 -9.5 -43.5t-30 -36.5t-51.5 -23z" />
    <glyph glyph-name="uni030A" unicode="&#x30a;" horiz-adv-x="0" 
d="M-157 735q27 0 49.5 -13t36 -35t13.5 -49q0 -26 -13 -48.5t-35.5 -36t-50.5 -13.5q-27 0 -49.5 13t-36 35.5t-13.5 49.5t13.5 49t36 35t49.5 13zM-157 710q-30 0 -50.5 -20.5t-20.5 -52.5q0 -31 20.5 -51t50.5 -20t50.5 20t20.5 51q0 32 -20.5 52.5t-50.5 20.5z" />
    <glyph glyph-name="uni030B" unicode="&#x30b;" horiz-adv-x="0" 
d="M-252 720l32 -22l-121 -154l-22 15zM-106 720l32 -22l-121 -154l-22 15z" />
    <glyph glyph-name="uni030C" unicode="&#x30c;" horiz-adv-x="0" 
d="M-73 709l16 -18l-138 -120h-24l-138 120l17 18l129 -98h8z" />
    <glyph glyph-name="uni030F" unicode="&#x30f;" horiz-adv-x="0" 
d="M-204 726l111 -162l-22 -14l-122 153zM-350 726l110 -162l-21 -14l-122 153z" />
    <glyph glyph-name="uni0311" unicode="&#x311;" horiz-adv-x="0" 
d="M-317 568l-24 5q-1 37 16 63.5t48.5 40.5t74.5 14t75 -14t49 -40.5t16 -63.5l-25 -5q0 43 -30.5 66t-84.5 23q-53 0 -84 -23t-31 -66z" />
    <glyph glyph-name="uni0312" unicode="&#x312;" horiz-adv-x="0" 
d="M-155 552q-6 0 -9.5 3t-3.5 10l1 49q1 23 4.5 50.5t12.5 49.5l14 -4q-2 -23 -3 -40.5t-1 -46.5q8 0 8 -10l-1 -48q0 -7 -2.5 -10t-9.5 -3h-10z" />
    <glyph glyph-name="uni031B" unicode="&#x31b;" horiz-adv-x="0" 
d="M-246 415l-4 23q42 3 67 32.5t28 74.5l34 -5q-2 -36 -19.5 -64t-45 -44t-60.5 -17z" />
    <glyph glyph-name="dotbelowcomb" unicode="&#x323;" horiz-adv-x="0" 
d="M-106 -61q16 0 16 -15v-61q0 -16 -16 -16h-14q-16 0 -16 16v61q0 15 16 15h14z" />
    <glyph glyph-name="uni0324" unicode="&#x324;" horiz-adv-x="0" 
d="M-112 -64q13 0 13 -15v-55q0 -15 -13 -15h-15q-13 0 -13 15v55q0 15 13 15h15zM-289 -64q13 0 13 -15v-55q0 -15 -13 -15h-15q-13 0 -13 15v55q0 15 13 15h15z" />
    <glyph glyph-name="uni0327" unicode="&#x327;" horiz-adv-x="0" 
d="M-126 -47q29 2 48.5 -4t29.5 -21t9 -40q0 -36 -18.5 -63t-51 -39.5t-77.5 -7.5l7 23q50 -2 78.5 23.5t28.5 61.5q1 25 -12 35t-47 11z" />
    <glyph glyph-name="uni0328" unicode="&#x328;" horiz-adv-x="0" 
d="M-116 2l23 -2q-26 -26 -48 -56t-36 -67q-16 -44 9.5 -58t79.5 5l5 -18q-41 -18 -69 -19t-43.5 11.5t-19 33.5t6.5 46q8 26 29.5 57t62.5 67z" />
    <glyph glyph-name="uni032E" unicode="&#x32e;" horiz-adv-x="0" 
d="M-97 -43l24 -5q1 -36 -15.5 -62.5t-48 -41t-74.5 -14.5q-44 0 -75.5 14.5t-48.5 41t-17 62.5l25 5q0 -42 31 -65.5t85 -23.5q52 0 83 23.5t31 65.5z" />
    <glyph glyph-name="uni0331" unicode="&#x331;" horiz-adv-x="0" 
d="M-75 -84v-33h-264v33h264z" />
    <glyph glyph-name="uni0394" unicode="&#x394;" horiz-adv-x="617" 
d="M330 690l253 -664v-26h-549v26l253 664h43zM309 648q-6 -18 -12.5 -35.5t-12.5 -35.5l-205 -542h458l-204 543q-6 18 -12 35.5t-12 34.5z" />
    <glyph glyph-name="uni03A9" unicode="&#x3a9;" horiz-adv-x="718" 
d="M359 702q96 0 155.5 -38.5t88 -114t28.5 -188.5q0 -81 -16.5 -140t-51.5 -104t-89 -82q16 0 31.5 0.5t31.5 0.5h127v-36h-234v35q59 40 93.5 85.5t50 103t15.5 133.5q0 105 -24 173.5t-74.5 101.5t-131.5 33q-83 0 -133 -33t-73 -101.5t-23 -175.5q0 -83 17 -139.5
t52 -98.5t89 -82v-35h-234v36h127h32t31 -1q-55 38 -90 83.5t-51 104.5t-16 138q0 113 27.5 188.5t87.5 114t157 38.5z" />
    <glyph glyph-name="uni03BC" unicode="&#x3bc;" horiz-adv-x="597" 
d="M129 482v-350q0 -56 25.5 -81.5t78.5 -25.5q40 0 78 15t69 42.5t49.5 62.5t19.5 75l3 -89q-20 -47 -57 -79t-80.5 -48t-84.5 -16q-44 0 -74.5 14.5t-46.5 44.5t-16 76v359h36zM91 482h38v-580l-7 -99h-31v679zM489 482v-387q0 -30 6.5 -50t34.5 -20h44l3 -24
q-12 -4 -28 -6t-31 -2q-37 0 -51.5 23.5t-14.5 65.5v49l-3 16v335h40z" />
    <glyph glyph-name="pi" unicode="&#x3c0;" horiz-adv-x="641" 
d="M176 482v-482h-39v482h39zM611 482v-34h-581v34h581zM504 482v-482h-40v482h40z" />
    <glyph glyph-name="uni0400" unicode="&#x400;" horiz-adv-x="553" 
d="M203 690h98.5t98.5 -1t97 -3l-2 -31h-285q-35 0 -55.5 -21.5t-20.5 -56.5v-464q0 -35 20.5 -56.5t55.5 -21.5h285l2 -31q-48 -2 -97 -3t-98.5 -1h-98.5t-79.5 30t-30.5 76v478q0 47 30.5 76.5t79.5 29.5zM110 386l344 -1v-33l-344 -1v35zM195 899l155 -145l-18 -20
l-163 135z" />
    <glyph glyph-name="uni0401" unicode="&#x401;" horiz-adv-x="553" 
d="M203 690h98.5t98.5 -1t97 -3l-2 -31h-285q-35 0 -55.5 -21.5t-20.5 -56.5v-464q0 -35 20.5 -56.5t55.5 -21.5h285l2 -31q-48 -2 -97 -3t-98.5 -1h-98.5t-79.5 30t-30.5 76v478q0 47 30.5 76.5t79.5 29.5zM110 386l344 -1v-33l-344 -1v35zM402 859q13 0 13 -14v-56
q0 -14 -13 -14h-15q-14 0 -14 14v56q0 14 14 14h15zM225 859q13 0 13 -14v-56q0 -14 -13 -14h-15q-14 0 -14 14v56q0 14 14 14h15z" />
    <glyph glyph-name="uni0402" unicode="&#x402;" horiz-adv-x="749" 
d="M442 0l-4 29q70 5 118 22t73 59t25 120q0 71 -18 107t-50 48.5t-73 12.5q-43 0 -79 -10.5t-70 -28.5t-72 -43l-2 33q41 30 79 49t75.5 28t77.5 9q49 0 88 -16t62 -59.5t23 -126.5q0 -66 -16.5 -111.5t-48.5 -73t-79.5 -39t-108.5 -9.5zM263 0v690h41v-690h-41zM26 654v36
h516v-36h-516z" />
    <glyph glyph-name="uni0403" unicode="&#x403;" horiz-adv-x="515" 
d="M204 690q72 0 143.5 -0.5t142.5 -4.5l-3 -30h-271q-36 0 -57.5 -21.5t-21.5 -58.5v-575h-41v581q0 48 30.5 78.5t77.5 30.5zM397 901l26 -30l-163 -135l-18 19z" />
    <glyph glyph-name="uni0404" unicode="&#x404;" horiz-adv-x="572" 
d="M340 702q42 0 72 -2t56 -6t52 -10l-7 -31q-28 5 -53 7.5t-53 3.5t-67 1q-83 0 -132.5 -30.5t-71 -100.5t-21.5 -189t21.5 -189t71 -100.5t132.5 -30.5q61 0 101 3t80 10l7 -31q-41 -9 -82 -14t-106 -5q-99 0 -157.5 34.5t-84.5 112.5t-26 210t26 210t84.5 112.5
t157.5 34.5zM96 386l331 -1v-32l-331 -1v34z" />
    <glyph glyph-name="uni0405" unicode="&#x405;" horiz-adv-x="556" 
d="M275 701q48 -1 96.5 -4t95.5 -10l-4 -30q-44 2 -91.5 4.5t-95.5 2.5q-45 0 -77.5 -3t-53.5 -16t-30.5 -41.5t-9.5 -81.5q0 -71 23.5 -102t79.5 -40l150 -25q77 -11 108 -53.5t31 -130.5q0 -61 -14 -97.5t-41 -54.5t-67 -24t-94 -6q-39 0 -90 2t-116 11l3 31
q44 -3 76.5 -4.5t62.5 -2t66 -0.5q63 1 100.5 11t54.5 41t17 93q0 51 -10.5 80.5t-34 45t-62.5 20.5l-150 25q-74 11 -104.5 54.5t-30.5 126.5q0 61 13 97.5t39 54t66.5 22.5t93.5 4z" />
    <glyph glyph-name="uni0406" unicode="&#x406;" horiz-adv-x="239" 
d="M140 690v-690h-41v690h41z" />
    <glyph glyph-name="uni0407" unicode="&#x407;" horiz-adv-x="239" 
d="M140 690v-690h-41v690h41zM215 859q13 0 13 -14v-56q0 -14 -13 -14h-15q-14 0 -14 14v56q0 14 14 14h15zM38 859q13 0 13 -14v-56q0 -14 -13 -14h-15q-14 0 -14 14v56q0 14 14 14h15z" />
    <glyph glyph-name="uni0408" unicode="&#x408;" horiz-adv-x="328" 
d="M232 690v-567q0 -64 -31 -97.5t-94 -32.5q-10 0 -23 1t-26 3t-22 4l5 28h56q94 0 94 94v567h41z" />
    <glyph glyph-name="uni0409" unicode="&#x409;" horiz-adv-x="966" 
d="M512 690v-35h-186q-38 0 -58 -20t-23 -60q-8 -104 -15 -176t-15.5 -122t-20.5 -87t-32 -73q-16 -28 -35 -53t-43.5 -42t-53.5 -22l-5 29q22 11 46.5 32.5t51.5 69.5q16 28 27.5 56t18.5 61.5t12.5 78t11 107t13.5 146.5q4 55 33 82.5t82 27.5h191zM526 690v-690h-41v690
h41zM699 391q82 0 128 -19.5t65 -63.5t19 -117q0 -78 -20.5 -121.5t-66.5 -60.5t-121 -17q-51 0 -86.5 0.5t-66 2.5t-65.5 5l14 32q21 -1 73.5 -2t126.5 -1q63 0 100 13t53.5 48.5t16.5 101.5q0 60 -14.5 95.5t-51.5 51.5t-104 16h-201v36h201z" />
    <glyph glyph-name="uni040A" unicode="&#x40a;" horiz-adv-x="982" 
d="M715 389q81 0 127.5 -19.5t65.5 -63t19 -115.5q0 -78 -21 -121.5t-66.5 -60.5t-121.5 -17q-51 0 -86.5 0.5t-65.5 2.5t-66 5l14 32q21 -1 73.5 -2t127.5 -1q62 0 99.5 13t54 48.5t16.5 100.5q0 60 -15 95.5t-51.5 51.5t-103.5 16h-202v35h202zM140 690v-690h-41v690h41z
M511 388v-34h-379v34h379zM541 690v-690h-41v690h41z" />
    <glyph glyph-name="uni040B" unicode="&#x40b;" horiz-adv-x="786" 
d="M572 435q75 0 111.5 -36.5t36.5 -111.5v-287h-41v280q0 62 -28 90t-90 28q-48 0 -89.5 -8t-84 -26t-95.5 -49l-2 34q50 32 98 50.5t93.5 27t90.5 8.5zM304 690v-690h-41v690h41zM542 690v-36h-516v36h516z" />
    <glyph glyph-name="uni040C" unicode="&#x40c;" horiz-adv-x="580" 
d="M523 690q-20 -53 -40 -100.5t-40.5 -88t-44 -70.5t-50.5 -48t-60 -22v-2q38 -3 68 -23t54 -53.5t45.5 -78t42 -96.5t42.5 -108h-44q-29 72 -54 134.5t-54 109.5t-66.5 73t-91.5 26l2 34q49 2 85.5 28.5t64.5 71t51.5 99.5t46.5 114h43zM139 690v-231q0 -27 -1 -49.5
t-4 -48.5q3 -27 4 -51.5t1 -49.5v-260h-40v690h40zM263 377v-34h-142v34h142zM393 901l26 -30l-163 -135l-18 19z" />
    <glyph glyph-name="uni040D" unicode="&#x40d;" horiz-adv-x="681" 
d="M582 690v-690h-40v562q0 18 0.5 36t0.5 35h-2q-7 -15 -16.5 -32t-18.5 -32l-366 -569h-41v690h40v-559v-37t-1 -37h2q9 16 19.5 35t20.5 34l361 564h41zM231 899l155 -145l-18 -20l-163 135z" />
    <glyph glyph-name="uni040E" unicode="&#x40e;" horiz-adv-x="544" 
d="M524 690l-198 -527q-15 -40 -32 -78t-41 -63t-61 -28q-14 -1 -32.5 0t-37 4.5t-33.5 7.5l5 29q48 -7 77.5 -6.5t47 14.5t32.5 43t35 80l19 50l5 14l171 460h43zM75 690l161 -430q8 -21 29 -21h57l-5 -35h-60q-19 0 -33.5 10t-20.5 28l-171 448h43zM379 877h35
q1 -36 -16 -64.5t-48 -45t-75 -16.5q-43 0 -75 16.5t-49 45t-16 64.5h34q0 -47 29.5 -73.5t76.5 -26.5t75.5 26.5t28.5 73.5z" />
    <glyph glyph-name="uni040F" unicode="&#x40f;" horiz-adv-x="668" 
d="M569 690v-690h-41v690h41zM352 7l-2 -158h-29l-4 158h35zM552 35l1 -35h-421v35h420zM140 690v-690h-41v690h41z" />
    <glyph glyph-name="uni0410" unicode="&#x410;" horiz-adv-x="608" 
d="M332 690q7 0 11.5 -3t6.5 -10l241 -677h-43l-210 600l-10 28l-10 28h-28l-10 -28l-10 -28l-210 -600h-43l241 677q2 7 7 10t11 3h56zM478 279v-36h-350v36h350z" />
    <glyph glyph-name="uni0411" unicode="&#x411;" horiz-adv-x="594" 
d="M500 690l-4 -34h-356v-656h-41v690q51 2 102 3.5t101 1.5t99 -1.5t99 -3.5zM322 376q81 0 127.5 -19t65.5 -61t19 -113q0 -59 -12.5 -96.5t-38.5 -58t-67 -28.5t-98 -8q-48 0 -83.5 0.5t-67 2.5t-68.5 5l14 31q22 -1 76.5 -2t132.5 -1q62 0 99.5 12.5t54 46t16.5 97.5
q0 59 -15 93t-52 49t-103 15h-210v35h210z" />
    <glyph glyph-name="uni0412" unicode="&#x412;" horiz-adv-x="614" 
d="M301 698q82 0 131 -15.5t71 -54.5t22 -110q0 -74 -27.5 -113t-89.5 -45v-4q77 -7 107 -54t30 -130q0 -71 -21 -110t-68 -54.5t-125 -15.5q-54 0 -92.5 0.5t-70.5 2.5t-69 5l14 31q21 -1 79 -2t135 -1q66 0 104 12t55 44t17 92q0 65 -18 100.5t-58.5 49.5t-108.5 15h-206
v33h206q61 1 97.5 12.5t52 42t15.5 86.5q0 60 -17.5 91.5t-58 43.5t-107.5 12q-46 0 -83 -0.5t-63.5 -1t-40.5 -1.5l-14 31q32 4 60 5.5t61.5 2t80.5 0.5zM140 690v-690h-41v690h41z" />
    <glyph glyph-name="uni0413" unicode="&#x413;" horiz-adv-x="515" 
d="M204 690q72 0 143.5 -0.5t142.5 -4.5l-3 -30h-271q-36 0 -57.5 -21.5t-21.5 -58.5v-575h-41v581q0 48 30.5 78.5t77.5 30.5z" />
    <glyph glyph-name="uni0414" unicode="&#x414;" horiz-adv-x="665" 
d="M546 690v-690h-42v655h-189q-39 0 -58.5 -19.5t-20.5 -58.5q-2 -63 -6.5 -125t-13.5 -122t-23 -117t-35.5 -110.5t-51.5 -102.5h-43q52 82 79.5 177.5t39.5 198.5t15 204q1 53 30 81.5t82 28.5h237zM60 7l-7 -158h-29v158h36zM628 35v-35h-604v35h604zM628 7v-158h-29
l-6 158h35z" />
    <glyph glyph-name="uni0415" unicode="&#x415;" horiz-adv-x="553" 
d="M203 690h98.5t98.5 -1t97 -3l-2 -31h-285q-35 0 -55.5 -21.5t-20.5 -56.5v-464q0 -35 20.5 -56.5t55.5 -21.5h285l2 -31q-48 -2 -97 -3t-98.5 -1h-98.5t-79.5 30t-30.5 76v478q0 47 30.5 76.5t79.5 29.5zM110 386l344 -1v-33l-344 -1v35z" />
    <glyph glyph-name="uni0416" unicode="&#x416;" horiz-adv-x="886" 
d="M829 690q-19 -45 -37 -91t-38.5 -87.5t-44 -74t-52 -52.5t-63.5 -24v-2q38 -3 68 -23t54 -53.5t45.5 -78t42 -96.5t42.5 -108h-44q-29 72 -54.5 134.5t-54 109.5t-65.5 73t-91 26l2 34q49 0 84.5 27t63.5 72t51.5 100.5t47.5 113.5h43zM100 690q23 -58 46.5 -113.5
t51.5 -100.5t64 -72t84 -27l3 -34q-54 0 -91 -26t-65.5 -73t-54 -109.5t-54.5 -134.5h-44q22 55 42.5 107.5t41.5 97t45.5 78t54.5 53.5t68 23v2q-35 4 -63.5 24t-52.5 52.5t-44 74t-38.5 87.5t-36.5 91h43zM438 377v-34h-121v34h121zM466 690v-231q0 -27 -1 -49t-5 -49
q3 -27 4.5 -51.5t1.5 -49.5v-260h-39v260q0 25 1.5 49.5t4.5 51.5q-4 27 -5 49t-1 49v231h39zM569 377v-34h-112v34h112z" />
    <glyph glyph-name="uni0417" unicode="&#x417;" horiz-adv-x="546" 
d="M232 698q82 0 131 -15.5t70.5 -54.5t21.5 -110q0 -74 -27.5 -113t-89.5 -45v-4q77 -7 107 -54t30 -130q0 -71 -21 -110t-67.5 -54.5t-124.5 -15.5q-41 0 -79.5 1.5t-73.5 5t-67 9.5l5 30q26 -2 82 -6t129 -4q65 0 103 11.5t55 43.5t17 93q0 65 -18 100.5t-58 50
t-108 14.5h-105v33h105q61 0 96.5 12t51.5 42.5t16 86.5q0 60 -17.5 92t-57.5 43.5t-107 11.5q-61 0 -105 -3.5t-65 -4.5l-5 30q44 7 85.5 10.5t90.5 3.5z" />
    <glyph glyph-name="uni0418" unicode="&#x418;" horiz-adv-x="681" 
d="M582 690v-690h-40v562q0 18 0.5 36t0.5 35h-2q-7 -15 -16.5 -32t-18.5 -32l-366 -569h-41v690h40v-559v-37t-1 -37h2q9 16 19.5 35t20.5 34l361 564h41z" />
    <glyph glyph-name="uni0419" unicode="&#x419;" horiz-adv-x="681" 
d="M582 690v-690h-40v562q0 18 0.5 36t0.5 35h-2q-7 -15 -16.5 -32t-18.5 -32l-366 -569h-41v690h40v-559v-37t-1 -37h2q9 16 19.5 35t20.5 34l361 564h41zM448 877h35q1 -36 -16 -64.5t-48 -45t-75 -16.5q-43 0 -75 16.5t-49 45t-16 64.5h34q0 -47 29.5 -73.5t76.5 -26.5
t75.5 26.5t28.5 73.5z" />
    <glyph glyph-name="uni041A" unicode="&#x41a;" horiz-adv-x="580" 
d="M523 690q-20 -53 -40 -100.5t-40.5 -88t-44 -70.5t-50.5 -48t-60 -22v-2q38 -3 68 -23t54 -53.5t45.5 -78t42 -96.5t42.5 -108h-44q-29 72 -54 134.5t-54 109.5t-66.5 73t-91.5 26l2 34q49 2 85.5 28.5t64.5 71t51.5 99.5t46.5 114h43zM139 690v-231q0 -27 -1 -49.5
t-4 -48.5q3 -27 4 -51.5t1 -49.5v-260h-40v690h40zM263 377v-34h-142v34h142z" />
    <glyph glyph-name="uni041B" unicode="&#x41b;" horiz-adv-x="637" 
d="M524 690v-35h-207q-77 0 -83 -80q-8 -103 -15 -175t-15 -122.5t-20.5 -87.5t-33.5 -73q-15 -28 -35 -52.5t-44.5 -41.5t-52.5 -23l-5 32q25 12 49.5 33t49.5 65q16 28 26.5 55t18 60t13 78t11.5 107.5t13 150.5q10 109 114 109h216zM538 690v-690h-41v690h41z" />
    <glyph glyph-name="uni041C" unicode="&#x41c;" horiz-adv-x="860" 
d="M726 690q20 0 20 -21l30 -669h-41l-29 655h-23l-208 -576q-4 -14 -19 -14h-52q-15 0 -20 14l-207 576h-23l-29 -655h-41l29 669q1 21 21 21h57q15 0 19 -14l175 -484q9 -23 16.5 -46.5t16.5 -46.5h24q8 24 16.5 47.5t16.5 47.5l174 482q5 14 20 14h57z" />
    <glyph glyph-name="uni041D" unicode="&#x41d;" horiz-adv-x="660" 
d="M140 690v-690h-41v690h41zM531 388v-36h-399v36h399zM561 690v-690h-41v690h41z" />
    <glyph glyph-name="uni041E" unicode="&#x41e;" 
d="M332 702q72 0 122 -18.5t80 -60.5t43.5 -110t13.5 -168t-13.5 -168t-43.5 -110t-80 -60.5t-122 -18.5t-122 18.5t-80 60.5t-44 110t-14 168t14 168t44 110t80 60.5t122 18.5zM332 665q-81 0 -128 -30.5t-68 -100.5t-21 -189t21 -189t68 -100.5t128 -30.5q80 0 127.5 30.5
t68 100.5t20.5 189t-20.5 189t-68 100.5t-127.5 30.5z" />
    <glyph glyph-name="uni041F" unicode="&#x41f;" horiz-adv-x="663" 
d="M140 690v-690h-41v690h41zM534 690v-35h-402v35h402zM564 690v-690h-41v690h41z" />
    <glyph glyph-name="uni0420" unicode="&#x420;" horiz-adv-x="583" 
d="M324 698q76 0 120.5 -18t64.5 -63t20 -125q0 -81 -19.5 -126t-64 -62.5t-119.5 -17.5q-40 0 -75.5 0.5t-64.5 2.5t-49 3t-28 3l3 27h104.5h107.5q60 1 95.5 15t51.5 51t16 104q0 68 -16 104.5t-51.5 51t-95.5 14.5q-78 0 -134.5 -1t-76.5 -3l-14 32q36 4 67.5 5.5t68.5 2
t89 0.5zM140 690v-690h-41v690h41z" />
    <glyph glyph-name="uni0421" unicode="&#x421;" horiz-adv-x="563" 
d="M331 702q42 0 71.5 -2t54.5 -6t52 -10l-7 -30q-28 4 -52.5 6.5t-52.5 3.5t-66 1q-80 0 -127 -30.5t-68 -100.5t-21 -189t21 -189t68 -100.5t127 -30.5q61 0 103 3t82 10l7 -31q-41 -10 -84 -14.5t-108 -4.5q-95 0 -152 34.5t-82 112.5t-25 210t25 210t82 112.5t152 34.5z
" />
    <glyph glyph-name="uni0422" unicode="&#x422;" horiz-adv-x="568" 
d="M304 690v-690h-41v690h41zM542 690v-36h-516v36h516z" />
    <glyph glyph-name="uni0423" unicode="&#x423;" horiz-adv-x="544" 
d="M524 690l-198 -527q-15 -40 -32 -78t-41 -63t-61 -28q-14 -1 -32.5 0t-37 4.5t-33.5 7.5l5 29q48 -7 77.5 -6.5t47 14.5t32.5 43t35 80l19 50l5 14l171 460h43zM75 690l161 -430q8 -21 29 -21h57l-5 -35h-60q-19 0 -33.5 10t-20.5 28l-171 448h43z" />
    <glyph glyph-name="uni0424" unicode="&#x424;" horiz-adv-x="821" 
d="M410 651q94 0 159.5 -15t106 -50t58.5 -91.5t18 -140.5q0 -82 -18 -139t-58.5 -91.5t-106 -50t-159.5 -15.5t-159 15.5t-105.5 50t-58.5 91.5t-18 139q0 84 18 140.5t58.5 91.5t105.5 50t159 15zM410 616q-83 0 -140 -12.5t-92 -42t-51 -80t-16 -127.5q0 -75 16 -125.5
t51 -80t92 -42t140 -12.5t140.5 12.5t92.5 42t51 80t16 125.5q0 77 -16 127.5t-51 80t-92.5 42t-140.5 12.5zM431 755v-115l-1 -14v-543l1 -11v-117h-41v117l1 11v543l-1 14v115h41z" />
    <glyph glyph-name="uni0425" unicode="&#x425;" horiz-adv-x="603" 
d="M552 690l-199 -331l212 -359h-47l-211 359l199 331h46zM97 690l198 -331l-211 -359h-47l213 359l-200 331h47zM337 377v-34h-66v34h66z" />
    <glyph glyph-name="uni0426" unicode="&#x426;" horiz-adv-x="677" 
d="M99 0v690h41v-690h-41zM132 0v35h508v-35h-508zM516 0v690h41v-690h-41zM611 -151l-7 158h36v-158h-29z" />
    <glyph glyph-name="uni0427" unicode="&#x427;" horiz-adv-x="610" 
d="M109 690v-272q0 -60 27 -88.5t86 -28.5q47 0 86.5 8t81 26t92.5 48l1 -33q-48 -31 -94.5 -50.5t-90.5 -27.5t-88 -8q-72 0 -107 36.5t-35 110.5v279h41zM511 690v-690h-41v690h41z" />
    <glyph glyph-name="uni0428" unicode="&#x428;" horiz-adv-x="908" 
d="M809 690v-690h-40v690h40zM140 690v-690h-41v690h41zM786 35v-35h-654l-1 35h655zM474 690v-690h-40v690h40z" />
    <glyph glyph-name="uni0429" unicode="&#x429;" horiz-adv-x="919" 
d="M140 690v-690h-41v690h41zM883 35v-35h-751l-1 35h752zM470 690v-690h-41v690h41zM800 690v-690h-40v690h40zM883 7v-158h-29l-7 158h36z" />
    <glyph glyph-name="uni042A" unicode="&#x42a;" horiz-adv-x="745" 
d="M478 391q81 0 127.5 -19.5t65.5 -63.5t19 -117q0 -78 -21 -121.5t-66.5 -60.5t-121.5 -17q-53 0 -90 0.5t-68 2.5t-68 5l14 32q22 -1 77 -2t132 -1q62 0 99.5 13t54 48.5t16.5 100.5q0 61 -15 96.5t-51.5 51.5t-103.5 16h-210v36h210zM297 690v-690h-42v690h42zM277 690
v-36h-251v36h251z" />
    <glyph glyph-name="uni042B" unicode="&#x42b;" horiz-adv-x="819" 
d="M322 391q81 0 127 -19.5t65.5 -63.5t19.5 -117q0 -78 -21 -121.5t-66.5 -60.5t-121.5 -17q-53 0 -90 0.5t-68 2.5t-68 5l14 32q22 -1 76.5 -2t132.5 -1q62 0 99.5 13t54 48.5t16.5 100.5q0 61 -15 96.5t-52 51.5t-103 16h-210v36h210zM140 690v-690h-41v690h41zM720 690
v-690h-41v690h41z" />
    <glyph glyph-name="uni042C" unicode="&#x42c;" horiz-adv-x="589" 
d="M322 391q81 0 127 -19.5t65.5 -63.5t19.5 -117q0 -78 -21 -121.5t-66.5 -60.5t-121.5 -17q-53 0 -90 0.5t-68 2.5t-68 5l14 32q22 -1 76.5 -2t132.5 -1q62 0 99.5 13t54 48.5t16.5 100.5q0 61 -15 96.5t-52 51.5t-103 16h-210v36h210zM140 690v-690h-41v690h41z" />
    <glyph glyph-name="uni042D" unicode="&#x42d;" horiz-adv-x="572" 
d="M231 702q100 0 158.5 -34.5t84 -112.5t25.5 -210t-25.5 -210t-84 -112.5t-158.5 -34.5q-64 0 -105.5 5t-81.5 14l7 31q39 -7 79.5 -10t100.5 -3q84 0 133.5 30.5t71 100.5t21.5 189t-21.5 189t-71 100.5t-133.5 30.5q-37 0 -65.5 -1t-53.5 -3.5t-54 -7.5l-7 31
q27 6 53 10t56.5 6t70.5 2zM476 386v-34l-332 1v32z" />
    <glyph glyph-name="uni042E" unicode="&#x42e;" horiz-adv-x="902" 
d="M569 702q73 0 122.5 -18.5t80 -60.5t44 -110t13.5 -168t-13.5 -168t-44 -110t-80 -60.5t-122.5 -18.5q-69 0 -116.5 18.5t-76.5 60.5t-42 110t-13 168t13 168t42 110t76.5 60.5t116.5 18.5zM141 690v-690h-41v690h41zM351 377v-35h-218v35h218zM569 665
q-76 0 -121.5 -30.5t-65 -100.5t-19.5 -189t19.5 -189t65 -100.5t121.5 -30.5q81 0 128.5 30.5t68 100.5t20.5 189t-20.5 189t-68 100.5t-128.5 30.5z" />
    <glyph glyph-name="uni042F" unicode="&#x42f;" horiz-adv-x="605" 
d="M289 698q50 0 86 -0.5t66.5 -2t64.5 -5.5l-14 -32q-20 2 -74 3t-129 1q-55 0 -91 -15.5t-53.5 -51.5t-17.5 -102q0 -46 14 -82.5t47 -57.5t87 -21h218l3 -33q-9 0 -29 -0.5t-48 -1.5t-64.5 -1.5t-80.5 -0.5q-39 0 -65.5 -20t-41.5 -67l-71 -208h-45l73 211
q10 27 22.5 46.5t27.5 32t32 17.5l-1 5q-41 7 -68 33.5t-39.5 66t-12.5 83.5q0 76 21.5 120.5t66.5 63.5t116 19zM506 690v-690h-41v690h41z" />
    <glyph glyph-name="uni0430" unicode="&#x430;" horiz-adv-x="542" 
d="M313 494q44 0 76 -14t48.5 -44.5t16.5 -81.5v-354h-30l-8 106l-1 7v241q-1 46 -23 75t-84 29q-51 0 -109.5 -4.5t-112.5 -10.5l-4 30q33 5 68.5 9.5t76 8t86.5 3.5zM429 293l-1 -32l-241 -3q-42 -1 -63 -22t-21 -61v-54q0 -45 24 -67.5t70 -23.5q36 -1 78.5 12.5t82 37.5
t67.5 53v-35q-13 -16 -37 -33.5t-55.5 -34t-67 -27t-72.5 -10.5q-40 0 -69.5 14.5t-45 42.5t-15.5 68v60q0 55 31 85t89 30h246z" />
    <glyph glyph-name="uni0431" unicode="&#x431;" horiz-adv-x="564" 
d="M460 734l10 -30q-27 -18 -51 -29.5t-46.5 -18.5t-44 -12t-42.5 -11q-64 -18 -98 -48t-48.5 -71.5t-19.5 -95.5q-2 -17 -3 -34.5t-2 -33.5h1q6 19 16.5 40t31.5 39t56 28.5t88 10.5q71 0 112 -23t59 -75.5t18 -139.5q0 -72 -15.5 -126.5t-60 -85t-131.5 -30.5
q-58 0 -96 14t-60.5 40.5t-34 64t-14.5 85t-3 103.5q0 82 6.5 143.5t26 105.5t58 73t101.5 48q25 7 46.5 12t43 11.5t45 17t51.5 28.5zM300 433q-75 0 -113 -25t-51 -69.5t-13 -105.5q0 -79 17 -125t54 -65t98 -19q60 0 96 19t51.5 65t15.5 126q0 75 -14 118t-48 62t-93 19z
" />
    <glyph glyph-name="uni0432" unicode="&#x432;" horiz-adv-x="549" 
d="M268 487q74 0 117.5 -11t62.5 -38.5t19 -79.5q0 -51 -24.5 -77.5t-79.5 -31.5v-2q68 -5 94.5 -37.5t26.5 -90.5q0 -49 -18.5 -76t-59.5 -38t-111 -11q-47 0 -81 0.5t-62.5 2t-61.5 3.5l12 29q19 -1 70 -1.5t119 -0.5q56 0 89.5 8t48.5 29t15 61q0 62 -35.5 85t-124.5 23
h-183v30h183q53 1 84.5 8.5t45.5 27.5t14 57q0 40 -15.5 60.5t-51 28.5t-94.5 8q-39 1 -71.5 0.5t-56.5 -1t-37 -1.5l-12 30q29 3 53.5 4t54.5 1.5t70 0.5zM128 481v-481h-38v481h38z" />
    <glyph glyph-name="uni0433" unicode="&#x433;" horiz-adv-x="444" 
d="M184 482q59 0 116.5 -0.5t115.5 -3.5l-1 -30h-218q-35 0 -52 -17t-17 -54v-377h-40v385q0 46 25.5 71.5t70.5 25.5z" />
    <glyph glyph-name="uni0434" unicode="&#x434;" horiz-adv-x="559" 
d="M440 482v-33h-167q-66 0 -69 -68t-13.5 -135t-33 -129t-63.5 -117h-40q41 57 64.5 119.5t34 130t13.5 135.5q3 47 28 72t73 25h173zM63 5l-6 -150h-27v150h33zM510 33v-33h-480v33h480zM510 5v-150h-28l-6 150h34zM452 482v-482h-38v482h38z" />
    <glyph glyph-name="uni0435" unicode="&#x435;" horiz-adv-x="530" 
d="M276 494q98 0 145.5 -35.5t48.5 -106.5q2 -64 -22 -97.5t-84 -33.5h-280v33h274q41 0 57 26t15 70q-1 57 -38.5 82.5t-113.5 25.5q-64 0 -101.5 -20t-53.5 -67t-16 -126q0 -84 19 -132.5t59 -68.5t104 -20q47 0 91 4t74 8l5 -28q-17 -6 -48.5 -10.5t-65.5 -7t-61 -2.5
q-78 0 -126 25.5t-70 81.5t-22 148q0 93 21 148t67.5 79t121.5 24z" />
    <glyph glyph-name="uni0436" unicode="&#x436;" horiz-adv-x="767" 
d="M711 482q-14 -34 -28.5 -66.5t-30 -61t-33.5 -50.5t-40 -36t-50 -16v-1q30 -2 53 -15.5t42 -36.5t35.5 -53.5t32 -67.5t33.5 -78h-43q-23 52 -42.5 95.5t-40.5 75t-49 48t-69 16.5l1 32q37 0 64 18t48 48t39 68.5t36 80.5h42zM98 482q18 -42 36 -80.5t39 -68.5t48.5 -48
t63.5 -18l1 -32q-40 0 -68 -16.5t-49.5 -48t-40.5 -75t-43 -95.5h-42q17 41 33 78t32.5 67.5t35 53.5t42 36.5t53.5 15.5v1q-28 2 -50.5 16t-40.5 36t-33.5 50.5t-29.5 61t-29 66.5h42zM377 267v-32h-115v32h115zM405 482v-157q0 -20 -1 -36.5t-5 -36.5q3 -19 4.5 -37
t1.5 -35v-180h-37v180q0 17 1.5 35t4.5 37q-4 20 -5 36.5t-1 36.5v157h37zM505 267v-32h-108v32h108z" />
    <glyph glyph-name="uni0437" unicode="&#x437;" horiz-adv-x="478" 
d="M199 488q78 0 122.5 -10.5t64 -38t19.5 -77.5t-21.5 -79t-81.5 -34v-2q64 -5 91 -35.5t27 -92.5q0 -45 -19 -72.5t-62 -40.5t-116 -13q-38 0 -85 3t-86 9l5 30q22 -2 68.5 -4.5t95.5 -2.5q90 0 123.5 22.5t33.5 74.5q0 42 -15 65t-48.5 32t-91.5 9l-99 1v30l99 1
q55 1 86 9t43.5 28.5t12.5 56.5q0 41 -15.5 61.5t-52.5 27.5t-102 7q-36 0 -71 -1.5t-57 -4.5l-5 30q37 7 72 9t65 2z" />
    <glyph glyph-name="uni0438" unicode="&#x438;" horiz-adv-x="583" 
d="M492 482v-482h-38v375q0 14 0.5 27.5t0.5 27.5h-1q-6 -11 -14 -22.5t-16 -22.5l-299 -385h-35v482h38v-372v-29t-1 -29h1q8 12 17 24.5t17 22.5l296 383h34z" />
    <glyph glyph-name="uni0439" unicode="&#x439;" horiz-adv-x="583" 
d="M492 482v-482h-38v375q0 14 0.5 27.5t0.5 27.5h-1q-6 -11 -14 -22.5t-16 -22.5l-299 -385h-35v482h38v-372v-29t-1 -29h1q8 12 17 24.5t17 22.5l296 383h34zM388 695h35q1 -36 -16 -64.5t-48 -45t-75 -16.5q-43 0 -75 16.5t-49 45t-16 64.5h34q0 -47 29.5 -73.5
t76.5 -26.5t75.5 26.5t28.5 73.5z" />
    <glyph glyph-name="uni043A" unicode="&#x43a;" horiz-adv-x="520" 
d="M465 482q-15 -34 -30.5 -66.5t-32 -61t-36.5 -50.5t-43.5 -36t-53.5 -16v-1q33 -3 57.5 -16t45 -36t38 -53.5t34.5 -67.5t35 -78h-43q-19 42 -36 78.5t-34.5 65.5t-38.5 49.5t-47.5 31t-62.5 10.5l2 32q40 0 70.5 18t53 48t42 68.5t38.5 80.5h42zM130 482v-157
q0 -20 -1 -36.5t-4 -36.5q3 -19 4 -37t1 -35v-180h-40v482h40zM246 267v-32h-132v32h132z" />
    <glyph glyph-name="uni043B" unicode="&#x43b;" horiz-adv-x="543" 
d="M439 482v-33h-167q-35 0 -51 -16.5t-20 -51.5q-5 -47 -11.5 -99t-16.5 -101t-29 -88q-11 -24 -27.5 -44.5t-39 -34t-50.5 -19.5l-5 32q25 10 41.5 22.5t27.5 27.5t18 30q15 30 23.5 68t14.5 77.5t9.5 75t6.5 58.5q6 47 30.5 71.5t75.5 24.5h170zM452 482v-482h-39v482h39
z" />
    <glyph glyph-name="uni043C" unicode="&#x43c;" horiz-adv-x="727" 
d="M605 482q19 0 19 -18l24 -464h-38l-23 449h-19l-165 -389q-3 -6 -6.5 -10t-11.5 -4h-44q-6 0 -10 4t-7 10l-165 389h-19l-23 -449h-38l24 464q0 18 19 18h50q7 0 11.5 -3.5t6.5 -10.5l137 -325q8 -17 14.5 -33.5t12.5 -33.5h19q7 17 13.5 34t13.5 33l137 325q5 14 19 14
h49z" />
    <glyph glyph-name="uni043D" unicode="&#x43d;" horiz-adv-x="570" 
d="M130 482v-482h-40v482h40zM450 273v-32h-326v32h326zM480 482v-482h-39v482h39z" />
    <glyph glyph-name="uni043E" unicode="&#x43e;" horiz-adv-x="563" 
d="M282 494q79 0 126 -24.5t67.5 -80t20.5 -148.5q0 -92 -20.5 -148t-67.5 -80.5t-126 -24.5t-126.5 24.5t-68.5 80.5t-21 148q0 93 21 148.5t68.5 80t126.5 24.5zM282 458q-65 0 -103 -20t-54.5 -67t-16.5 -130q0 -82 16.5 -130t54.5 -68t103 -20q64 0 102 20t54.5 68
t16.5 130q0 83 -16.5 130t-54.5 67t-102 20z" />
    <glyph glyph-name="uni043F" unicode="&#x43f;" horiz-adv-x="567" 
d="M477 482v-482h-40v482h40zM129 482v-482h-39v482h39zM445 482v-34h-321v34h321z" />
    <glyph glyph-name="uni0440" unicode="&#x440;" horiz-adv-x="567" 
d="M327 494q94 0 133 -59.5t39 -194.5q0 -92 -18 -147.5t-57 -80t-101 -24.5q-49 0 -98 13.5t-99 40.5l1 27q58 -22 101 -33.5t89 -11.5q51 0 82 20.5t45 68t14 127.5t-14 128t-44 69t-80 21q-46 0 -90 -22.5t-103 -71.5l-1 32q34 32 67 54t66.5 33t67.5 11zM122 482l6 -91
l3 -6v-329l-4 -12q3 -27 3.5 -49t0.5 -48v-155h-40v690h31z" />
    <glyph glyph-name="uni0441" unicode="&#x441;" horiz-adv-x="482" 
d="M288 494q19 0 43.5 -1.5t50 -5.5t46.5 -12l-7 -27q-28 6 -65 8t-62 2q-68 0 -109 -19.5t-59.5 -66.5t-18.5 -131t18.5 -131.5t59.5 -66.5t109 -19q15 0 39 1t51 3.5t50 6.5l5 -28q-34 -8 -73.5 -13.5t-77.5 -5.5q-81 0 -130 24.5t-70.5 80.5t-21.5 148q0 93 21.5 148.5
t70.5 80t130 24.5z" />
    <glyph glyph-name="uni0442" unicode="&#x442;" horiz-adv-x="475" 
d="M258 482v-482h-41v482h41zM446 482v-35h-417v35h417z" />
    <glyph glyph-name="uni0443" unicode="&#x443;" horiz-adv-x="513" 
d="M486 482l-214 -524q-8 -21 -20.5 -46t-28.5 -48t-37 -40q-31 -21 -67.5 -28t-75.5 -1l3 26q30 -1 61 4.5t57 24.5q23 21 41 52t31 64l20 50q7 17 14.5 36.5t14.5 35.5l158 394h43zM70 482l159 -395q5 -14 10.5 -27t10.5 -27h20l-15 -33h-18q-6 0 -10.5 3t-7.5 9l-192 470
h43z" />
    <glyph glyph-name="uni0444" unicode="&#x444;" horiz-adv-x="702" 
d="M351 494q105 0 167.5 -25.5t90.5 -81t28 -146.5t-28 -146.5t-90.5 -81t-167.5 -25.5q-104 0 -167 25.5t-91 81t-28 146.5t28 146.5t91 81t167 25.5zM351 458q-91 0 -145 -20t-78 -67t-24 -130q0 -82 24 -130t78 -67.5t145 -19.5q90 0 144 19.5t78 67.5t24 130
q0 83 -24 130t-78 67t-144 20zM371 700v-214l-1 -13v-462l1 -12v-207h-39v207l1 12v461l-1 14v214h39z" />
    <glyph glyph-name="uni0445" unicode="&#x445;" horiz-adv-x="512" 
d="M466 482l-164 -232l177 -250h-46l-176 250l163 232h46zM92 482l163 -232l-176 -250h-46l177 250l-164 232h46zM288 268v-33h-65v33h65z" />
    <glyph glyph-name="uni0446" unicode="&#x446;" horiz-adv-x="573" 
d="M130 482v-482h-39v482h39zM524 33v-33h-400v33h400zM468 482l-1 -482h-39v482h40zM524 5v-148h-27l-7 148h34z" />
    <glyph glyph-name="uni0447" unicode="&#x447;" horiz-adv-x="512" 
d="M102 482v-190q0 -41 19 -59t60 -18q55 0 102.5 11t108.5 41l3 -33q-59 -30 -116.5 -42.5t-109.5 -12.5t-79.5 25.5t-27.5 77.5v200h40zM422 482v-482h-40v482h40z" />
    <glyph glyph-name="uni0448" unicode="&#x448;" horiz-adv-x="787" 
d="M130 482v-482h-40v482h40zM674 33v-33h-551v33h551zM413 482v-482h-39v482h39zM697 482v-482h-39v482h39z" />
    <glyph glyph-name="uni0449" unicode="&#x449;" horiz-adv-x="804" 
d="M130 482v-482h-39v482h39zM755 33v-33h-631v33h631zM413 482v-482h-38v482h38zM698 482v-482h-38v482h38zM755 5v-148h-28l-6 148h34z" />
    <glyph glyph-name="uni044A" unicode="&#x44a;" horiz-adv-x="626" 
d="M395 276q69 0 108 -14t55.5 -44.5t16.5 -82.5q0 -55 -18 -85.5t-56.5 -43t-101.5 -12.5q-44 0 -75.5 0.5t-57.5 2t-56 3.5l11 30q18 -1 63.5 -1.5t110.5 -0.5q50 0 80 8.5t44 32t14 67.5q0 60 -28.5 84t-109.5 24h-174v32h174zM249 482v-482h-39v482h39zM29 482h202v-34
h-202v34z" />
    <glyph glyph-name="uni044B" unicode="&#x44b;" horiz-adv-x="686" 
d="M277 276q63 0 98 -14t50 -44.5t15 -82.5q0 -55 -16 -85.5t-51 -43t-92 -12.5q-44 0 -76 0.5t-58 2t-56 3.5l12 30q17 -1 63 -1.5t111 -0.5q44 0 70.5 8.5t38.5 32t12 67.5q0 60 -25 84t-96 24h-175v32h175zM129 482v-482h-39v482h39zM595 482v-482h-40v482h40z" />
    <glyph glyph-name="uni044C" unicode="&#x44c;" horiz-adv-x="507" 
d="M277 276q69 0 108 -14t55 -44.5t16 -82.5q0 -55 -17.5 -85.5t-56 -43t-101.5 -12.5q-44 0 -76 0.5t-58 2t-56 3.5l12 30q17 -1 63 -1.5t111 -0.5q50 0 80 8.5t43.5 32t13.5 67.5q0 41 -12 64t-42 33.5t-83 10.5h-175v32h175zM129 482v-482h-39v482h39z" />
    <glyph glyph-name="uni044D" unicode="&#x44d;" horiz-adv-x="489" 
d="M201 486q82 0 130.5 -23.5t70 -77.5t21.5 -146q0 -91 -21.5 -145.5t-70 -78.5t-130.5 -24q-53 0 -87.5 3.5t-68.5 11.5l6 30q34 -4 67 -6.5t83 -2.5q68 0 107.5 19.5t56.5 66t17 126.5q0 79 -17 126t-56.5 66.5t-107.5 19.5q-47 0 -77.5 -1.5t-66.5 -5.5l-6 29
q34 8 66.5 10.5t83.5 2.5zM402 262v-32l-273 1v30z" />
    <glyph glyph-name="uni044E" unicode="&#x44e;" horiz-adv-x="774" 
d="M488 494q61 0 103 -13t67.5 -42t37.5 -77t12 -119q0 -95 -21 -149.5t-69.5 -78t-129.5 -23.5q-77 0 -123.5 23.5t-66.5 78t-20 149.5q0 71 11.5 119t36 77t64.5 42t98 13zM131 482v-482h-40v482h40zM306 265v-32h-182v32h182zM488 459q-63 0 -100.5 -20.5t-53 -67
t-15.5 -128.5q0 -81 15.5 -128.5t53 -67.5t100.5 -20q66 0 105 20t56 67.5t17 128.5q0 82 -17 128.5t-56 67t-105 20.5z" />
    <glyph glyph-name="uni044F" unicode="&#x44f;" horiz-adv-x="530" 
d="M237 485q49 0 82 -0.5t60.5 -2t59.5 -4.5l-12 -31q-13 2 -65 3t-124 1q-70 0 -96.5 -30.5t-26.5 -77.5q0 -58 30 -89t104 -31h179l2 -32h-32h-63.5h-86.5t-76.5 -16.5t-37.5 -45.5l-39 -129h-43l45 141q7 20 21 33.5t33.5 20.5t41.5 10v3q-41 3 -67 21t-38.5 49t-12.5 71
q0 28 8.5 52.5t27 43t50 29.5t76.5 11zM439 478v-478h-39v478h39z" />
    <glyph glyph-name="uni0450" unicode="&#x450;" horiz-adv-x="530" 
d="M276 494q98 0 145.5 -35.5t48.5 -106.5q2 -64 -22 -97.5t-84 -33.5h-280v33h274q41 0 57 26t15 70q-1 57 -38.5 82.5t-113.5 25.5q-64 0 -101.5 -20t-53.5 -67t-16 -126q0 -84 19 -132.5t59 -68.5t104 -20q47 0 91 4t74 8l5 -28q-17 -6 -48.5 -10.5t-65.5 -7t-61 -2.5
q-78 0 -126 25.5t-70 81.5t-22 148q0 93 21 148t67.5 79t121.5 24zM166 718l155 -145l-18 -20l-163 135z" />
    <glyph glyph-name="uni0451" unicode="&#x451;" horiz-adv-x="530" 
d="M276 494q98 0 145.5 -35.5t48.5 -106.5q2 -64 -22 -97.5t-84 -33.5h-280v33h274q41 0 57 26t15 70q-1 57 -38.5 82.5t-113.5 25.5q-64 0 -101.5 -20t-53.5 -67t-16 -126q0 -84 19 -132.5t59 -68.5t104 -20q47 0 91 4t74 8l5 -28q-17 -6 -48.5 -10.5t-65.5 -7t-61 -2.5
q-78 0 -126 25.5t-70 81.5t-22 148q0 93 21 148t67.5 79t121.5 24zM374 678q13 0 13 -14v-56q0 -14 -13 -14h-15q-14 0 -14 14v56q0 14 14 14h15zM197 678q13 0 13 -14v-56q0 -14 -13 -14h-15q-14 0 -14 14v56q0 14 14 14h15z" />
    <glyph glyph-name="uni0452" unicode="&#x452;" horiz-adv-x="571" 
d="M376 395q130 0 130 -132v-300q0 -34 -9 -64.5t-25.5 -57t-38.5 -49.5l-22 17q27 34 41.5 70t14.5 85v291q0 53 -25 78t-79 25q-51 0 -100 -23t-117 -69l-2 32q61 46 118.5 71.5t113.5 25.5zM152 700v-309q0 -27 -1 -52t-5 -46l5 -15v-278h-40v700h41zM362 534v-29h-331
v29h331z" />
    <glyph glyph-name="uni0453" unicode="&#x453;" horiz-adv-x="444" 
d="M184 482q59 0 116.5 -0.5t115.5 -3.5l-1 -30h-218q-35 0 -52 -17t-17 -54v-377h-40v385q0 46 25.5 71.5t70.5 25.5zM360 720l26 -30l-163 -135l-18 19z" />
    <glyph glyph-name="uni0454" unicode="&#x454;" horiz-adv-x="490" 
d="M289 486q51 0 83.5 -2.5t65.5 -10.5l-5 -29q-36 4 -66.5 5.5t-77.5 1.5q-67 0 -107 -19.5t-57 -66.5t-17 -126q0 -80 17 -126.5t57 -66t107 -19.5q50 0 83 2.5t66 6.5l6 -30q-33 -8 -67.5 -11.5t-87.5 -3.5q-82 0 -131 24t-70 78.5t-21 145.5q0 92 21 146t70 77.5
t131 23.5zM88 262l273 -1v-30l-273 -1v32z" />
    <glyph glyph-name="uni0455" unicode="&#x455;" horiz-adv-x="502" 
d="M240 494q30 0 62.5 -1.5t65.5 -4.5t62 -7l-3 -29q-45 2 -92 4t-92 3q-51 1 -83 -3t-47 -24t-15 -67q0 -49 20.5 -68t57.5 -25l157 -23q54 -9 82 -38t28 -87q0 -61 -22 -89.5t-65 -37t-107 -8.5q-33 0 -77 2t-101 10l4 29q30 -2 56.5 -3.5t54.5 -2t59 -0.5q59 1 94 7.5
t50 28t15 64.5q0 48 -23.5 67t-59.5 24l-156 23q-35 5 -58.5 19.5t-35.5 40.5t-12 67q0 60 20 87.5t60.5 35t100.5 6.5z" />
    <glyph glyph-name="uni0456" unicode="&#x456;" horiz-adv-x="228" 
d="M134 482v-482h-40v482h40zM123 683q15 0 15 -16v-60q0 -16 -15 -16h-18q-15 0 -15 16v60q0 16 15 16h18z" />
    <glyph glyph-name="uni0457" unicode="&#x457;" horiz-adv-x="228" 
d="M134 482v-482h-40v482h40zM209 678q13 0 13 -14v-56q0 -14 -13 -14h-15q-14 0 -14 14v56q0 14 14 14h15zM32 678q13 0 13 -14v-56q0 -14 -13 -14h-15q-14 0 -14 14v56q0 14 14 14h15z" />
    <glyph glyph-name="uni0458" unicode="&#x458;" horiz-adv-x="228" 
d="M134 482v-519q0 -34 -9 -64.5t-25.5 -57t-38.5 -49.5l-22 17q27 34 41 69.5t14 84.5v519h40zM123 683q16 0 16 -16v-60q0 -16 -16 -16h-18q-15 0 -15 16v60q0 16 15 16h18z" />
    <glyph glyph-name="uni0459" unicode="&#x459;" horiz-adv-x="779" 
d="M416 482v-32h-143q-29 0 -44.5 -13t-18.5 -43q-7 -71 -12.5 -119t-11.5 -80.5t-15.5 -57.5t-24.5 -50q-18 -35 -44.5 -56.5t-64.5 -31.5l-6 29q23 13 42 27t36 43q16 26 25 49.5t14.5 54.5t10.5 78t13 120q8 82 95 82h149zM427 482v-482h-39v482h39zM557 285
q65 0 102 -14.5t52 -46.5t15 -85q0 -64 -20 -95.5t-61 -40.5t-104 -9q-25 0 -50 0.5t-50.5 2t-52.5 3.5l11 29q11 0 34 -0.5t51 -1t51 -0.5q54 0 87 7t48.5 31t15.5 75q0 63 -27 88.5t-102 25.5h-159v31h159z" />
    <glyph glyph-name="uni045A" unicode="&#x45a;" horiz-adv-x="791" 
d="M571 283q64 0 100.5 -14t52 -45.5t15.5 -83.5q0 -57 -16.5 -89t-52.5 -44.5t-95 -12.5q-41 0 -70 0.5t-52.5 2t-52.5 3.5l11 29q17 -1 58.5 -1.5t101.5 -0.5q46 0 74 9t40.5 34t12.5 70q0 62 -26.5 87t-100.5 25h-160v31h160zM129 482v-482h-38v482h38zM409 282v-31h-286
v31h286zM439 482v-482h-39v482h39z" />
    <glyph glyph-name="uni045B" unicode="&#x45b;" horiz-adv-x="571" 
d="M376 395q130 0 130 -132v-263h-39v255q0 53 -25 78t-79 25q-51 0 -100 -23t-117 -69l-2 32q61 46 118.5 71.5t113.5 25.5zM152 700v-309q0 -27 -1 -52t-5 -46l5 -15v-278h-40v700h41zM362 534v-29h-331v29h331z" />
    <glyph glyph-name="uni045C" unicode="&#x45c;" horiz-adv-x="520" 
d="M465 482q-15 -34 -30.5 -66.5t-32 -61t-36.5 -50.5t-43.5 -36t-53.5 -16v-1q33 -3 57.5 -16t45 -36t38 -53.5t34.5 -67.5t35 -78h-43q-19 42 -36 78.5t-34.5 65.5t-38.5 49.5t-47.5 31t-62.5 10.5l2 32q40 0 70.5 18t53 48t42 68.5t38.5 80.5h42zM130 482v-157
q0 -20 -1 -36.5t-4 -36.5q3 -19 4 -37t1 -35v-180h-40v482h40zM246 267v-32h-132v32h132zM376 720l26 -30l-163 -135l-18 19z" />
    <glyph glyph-name="uni045D" unicode="&#x45d;" horiz-adv-x="583" 
d="M492 482v-482h-38v375q0 14 0.5 27.5t0.5 27.5h-1q-6 -11 -14 -22.5t-16 -22.5l-299 -385h-35v482h38v-372v-29t-1 -29h1q8 12 17 24.5t17 22.5l296 383h34zM172 718l155 -145l-18 -20l-163 135z" />
    <glyph glyph-name="uni045E" unicode="&#x45e;" horiz-adv-x="513" 
d="M486 482l-214 -524q-8 -21 -20.5 -46t-28.5 -48t-37 -40q-31 -21 -67.5 -28t-75.5 -1l3 26q30 -1 61 4.5t57 24.5q23 21 41 52t31 64l20 50q7 17 14.5 36.5t14.5 35.5l158 394h43zM70 482l159 -395q5 -14 10.5 -27t10.5 -27h20l-15 -33h-18q-6 0 -10.5 3t-7.5 9l-192 470
h43zM359 695h35q1 -36 -16 -64.5t-48 -45t-75 -16.5q-43 0 -75 16.5t-49 45t-16 64.5h34q0 -47 29.5 -73.5t76.5 -26.5t75.5 26.5t28.5 73.5z" />
    <glyph glyph-name="uni045F" unicode="&#x45f;" horiz-adv-x="569" 
d="M131 482l1 -482h-41v482h40zM448 33v-33h-323l-1 33h324zM478 482v-482h-41v482h41zM303 5l-4 -172h-28l-6 172h38z" />
    <glyph glyph-name="uni0462" unicode="&#x462;" horiz-adv-x="621" 
d="M366 -8q-54 0 -90.5 0.5t-67.5 2.5t-68 5l14 32q21 -1 76 -2t132 -1q63 0 100 13t53.5 48.5t16.5 100.5q0 61 -14.5 96.5t-51.5 51.5t-104 16h-209v36h209q82 0 128 -19.5t65 -63.5t19 -117q0 -78 -20.5 -121.5t-66.5 -60.5t-121 -17zM139 0v730h42v-730h-42zM20 562v33
h410v-33h-410z" />
    <glyph glyph-name="uni0463" unicode="&#x463;" horiz-adv-x="519" 
d="M289 276q69 0 107.5 -14t55 -44.5t16.5 -82.5q0 -55 -17.5 -85.5t-56 -43t-101.5 -12.5q-44 0 -76 0.5t-58 2t-56 3.5l11 30q18 -1 64 -1.5t111 -0.5q50 0 80 8.5t43.5 32t13.5 67.5q0 41 -12 64t-42 33.5t-83 10.5h-176v32h176zM141 690v-690h-39v690h39zM4 460v29h318
v-29h-318z" />
    <glyph glyph-name="uni046A" unicode="&#x46a;" horiz-adv-x="842" 
d="M23 0q34 84 61.5 146.5t54.5 105t60 68t78.5 37t111.5 11.5v3l-307 296q-6 6 -6 11t4 8.5t11 3.5h655q7 0 11 -4t4 -8.5t-6 -10.5l-301 -296v-3q66 0 111.5 -11.5t79 -37t60 -68t54 -104.5t62.5 -147h-44q-36 91 -64 152t-53.5 98.5t-55.5 56t-69.5 25t-95.5 6.5
q1 -22 1.5 -42t0.5 -39v-257h-39v257q0 19 0.5 39t1.5 42q-55 0 -94.5 -6.5t-69.5 -25t-56 -56t-53.5 -98.5t-64.5 -152h-43zM422 387l273 269h-555z" />
    <glyph glyph-name="uni046B" unicode="&#x46b;" horiz-adv-x="674" 
d="M23 0q27 60 48 103.5t41 74t45.5 48.5t60.5 26t86 8v3l-231 198q-4 4 -4 9t3.5 8.5t8.5 3.5h507q6 0 9 -3.5t3 -8t-4 -8.5l-225 -199v-3q51 0 85.5 -8t60 -26t46 -48.5t41.5 -74t47 -103.5h-43q-34 79 -59.5 125.5t-50.5 69.5t-58 30.5t-85 7.5q0 -14 0.5 -28.5
t0.5 -27.5v-177h-39v177q0 13 1 27.5t2 28.5q-52 0 -86 -7.5t-58.5 -30.5t-49.5 -69.5t-60 -125.5h-43zM337 277l199 173h-403z" />
    <glyph glyph-name="uni0472" unicode="&#x472;" 
d="M103 332v34h462v-34h-462zM332 702q72 0 122 -18.5t80 -60.5t43.5 -110t13.5 -168t-13.5 -168t-43.5 -110t-80 -60.5t-122 -18.5t-122 18.5t-80 60.5t-44 110t-14 168t14 168t44 110t80 60.5t122 18.5zM332 665q-81 0 -128 -30.5t-68 -100.5t-21 -189t21 -189t68 -100.5
t128 -30.5q80 0 127.5 30.5t68 100.5t20.5 189t-20.5 189t-68 100.5t-127.5 30.5z" />
    <glyph glyph-name="uni0473" unicode="&#x473;" horiz-adv-x="563" 
d="M282 -12q-79 0 -126.5 24.5t-68.5 80.5t-21 148q0 93 21 148.5t68.5 80t126.5 24.5t126 -24.5t67.5 -80t20.5 -148.5q0 -92 -20.5 -148t-67.5 -80.5t-126 -24.5zM282 23q64 0 102 20t54.5 68t16.5 130q0 83 -16.5 130t-54.5 67t-102 20q-65 0 -103 -20t-54.5 -67
t-16.5 -130q0 -82 16.5 -130t54.5 -68t103 -20zM89 236v28h386v-28h-386z" />
    <glyph glyph-name="uni0474" unicode="&#x474;" horiz-adv-x="636" 
d="M271 0q-6 0 -11 4t-7 9l-229 677h43l194 -582q6 -19 12 -37t11 -37h28q5 14 6.5 19.5t5.5 16.5t12 39l140 495q7 22 15.5 40t22.5 32t34 21t48 7q7 0 14.5 -0.5t16.5 -2.5l-1 -31h-9.5h-8.5q-39 0 -58.5 -15.5t-34.5 -63.5l-171 -578q-2 -5 -7 -9t-12 -4h-54z" />
    <glyph glyph-name="uni0475" unicode="&#x475;" horiz-adv-x="540" 
d="M234 0q-5 0 -9.5 3t-7.5 9l-190 472h44l157 -400q5 -13 10.5 -26t9.5 -26h22l6 13.5t5 12.5t9 27l114 335q5 16 12.5 29.5t19 24t28.5 15.5t42 5q6 0 13.5 -0.5t14.5 -1.5v-31q-4 0 -8 0.5t-8 0.5q-31 0 -48 -11t-29 -45l-140 -394q-1 -6 -6 -9t-11 -3h-50z" />
    <glyph glyph-name="uni048A" unicode="&#x48a;" horiz-adv-x="689" 
d="M543 35h116v-33l-38 -153h-30l32 151h-80v35zM582 690v-690h-40v562q0 18 0.5 36t0.5 35h-2q-7 -15 -16.5 -32t-18.5 -32l-366 -569h-41v690h40v-559v-37t-1 -37h2q9 16 19.5 35t20.5 34l361 564h41zM448 877h35q0 -36 -16.5 -65t-47.5 -45t-75 -16q-43 0 -75 16t-49 45
t-17 65h35q0 -47 29 -73.5t77 -26.5q47 0 75.5 26.5t28.5 73.5z" />
    <glyph glyph-name="uni048B" unicode="&#x48b;" horiz-adv-x="591" 
d="M456 33h104v-31l-39 -146h-28l32 144h-69v33zM492 482v-482h-38v375q0 14 0.5 27.5t0.5 27.5h-1q-6 -11 -14 -22.5t-16 -22.5l-299 -385h-35v482h38v-372v-29t-1 -29h1q8 12 17 24.5t17 22.5l296 383h34zM388 696h35q1 -36 -16 -65t-48 -45.5t-75 -16.5q-43 0 -75 16.5
t-49 45.5t-16 65h34q0 -48 29.5 -74.5t76.5 -26.5t75.5 26.5t28.5 74.5z" />
    <glyph glyph-name="uni048C" unicode="&#x48c;" horiz-adv-x="621" 
d="M21 527v34h409v-34h-409zM362 391q82 0 128 -19.5t65 -63.5t19 -117q0 -78 -20.5 -121.5t-66.5 -60.5t-121 -17q-53 0 -90 0.5t-68 2.5t-68 5l14 32q21 -1 76 -2t132 -1q63 0 100 13t53.5 48.5t16.5 100.5q0 61 -14.5 96.5t-51.5 51.5t-104 16h-209v36h209zM181 690v-690
h-41v690h41z" />
    <glyph glyph-name="uni048D" unicode="&#x48d;" horiz-adv-x="519" 
d="M289 276q69 0 107.5 -14t55 -44.5t16.5 -82.5q0 -55 -17.5 -85.5t-56 -43t-101.5 -12.5q-44 0 -76 0.5t-58 2t-56 3.5l11 30q18 -1 64 -1.5t111 -0.5q50 0 80 8.5t43.5 32t13.5 67.5q0 41 -12 64t-42 33.5t-83 10.5h-176v32h176zM141 690v-690h-39v690h39zM4 460v29h318
v-29h-318z" />
    <glyph glyph-name="uni048E" unicode="&#x48e;" horiz-adv-x="619" 
d="M331 698q76 0 120.5 -18t64.5 -63t20 -125q0 -81 -19.5 -126t-64 -62.5t-118.5 -17.5q-40 0 -76 0.5t-65 2.5t-49 3t-28 3l3 27h104.5h107.5q61 1 96 15t51 51t16 104q0 68 -16 104.5t-51 51t-96 14.5q-78 0 -134 -1t-77 -3l-14 32q36 4 67.5 5.5t68.5 2t89 0.5zM147 690
v-690h-41v690h41zM358 432l20 21l198 -198l-20 -21z" />
    <glyph glyph-name="uni048F" unicode="&#x48f;" horiz-adv-x="566" 
d="M321 142l23 17l161 -230l-23 -17zM327 494q93 0 132.5 -59.5t39.5 -194.5q0 -92 -18.5 -147.5t-57 -80t-101.5 -24.5q-49 0 -97.5 13.5t-99.5 40.5l2 27q58 -22 101 -33.5t89 -11.5q51 0 81.5 20.5t45 68t14.5 127.5t-14 128t-44.5 69t-80.5 21q-46 0 -89.5 -22.5
t-103.5 -71.5v32q33 32 66.5 54t67 33t67.5 11zM122 482l5 -91l3 -6v-329l-3 -12q3 -27 3 -49v-48v-155h-39v690h31z" />
    <glyph glyph-name="uni0490" unicode="&#x490;" horiz-adv-x="516" 
d="M204 690h96.5t95 -1.5t94.5 -4.5l-2 -29h-272q-36 0 -57.5 -21.5t-21.5 -58.5v-575h-41v581q0 48 30.5 78.5t77.5 30.5zM490 841v-157l-35 -18l8 175h27z" />
    <glyph glyph-name="uni0491" unicode="&#x491;" horiz-adv-x="445" 
d="M184 482h80.5t73 -0.5t79.5 -3.5l-1 -30h-219q-35 1 -52 -16.5t-17 -54.5v-377h-40v385q0 46 25.5 71.5t70.5 25.5zM418 629l-1 -151l-35 -17l7 168h29z" />
    <glyph glyph-name="uni0492" unicode="&#x492;" horiz-adv-x="537" 
d="M19 326v34h382v-34h-382zM240 690q72 0 143 -0.5t142 -4.5l-3 -30h-271q-36 0 -57.5 -21.5t-21.5 -58.5v-575h-41v581q0 48 31 78.5t78 30.5z" />
    <glyph glyph-name="uni0493" unicode="&#x493;" horiz-adv-x="444" 
d="M1 205v29h300v-29h-300zM184 482q59 0 116.5 -0.5t115.5 -3.5l-1 -30h-218q-35 0 -52 -17t-17 -54v-377h-40v385q0 46 25.5 71.5t70.5 25.5z" />
    <glyph glyph-name="uni0494" unicode="&#x494;" horiz-adv-x="582" 
d="M277 -149l-6 30q52 6 92 20t68 44.5t42 84t14 136.5q0 74 -10.5 120t-29.5 70t-45 33t-58 9q-42 0 -78 -10.5t-69.5 -28.5t-71.5 -43l-2 33q61 45 116 65.5t115 20.5q36 0 67.5 -11.5t55.5 -40.5t37.5 -81t13.5 -135q0 -88 -16 -147.5t-48 -95.5t-79 -52.5t-108 -20.5z
M204 690q68 0 135 -0.5t134 -4.5l-3 -30h-254q-36 0 -57.5 -21.5t-21.5 -58.5v-575h-41v581q0 48 30.5 78.5t77.5 30.5z" />
    <glyph glyph-name="uni0495" unicode="&#x495;" horiz-adv-x="521" 
d="M184 482h71t69.5 -0.5t69.5 -3.5v-30h-197q-35 0 -52 -17t-17 -54v-377h-40v385q0 46 25.5 71.5t70.5 25.5zM235 -210l-6 30q67 7 112 30t68.5 74.5t23.5 141.5q0 79 -18 119t-49.5 53.5t-71.5 13.5q-52 0 -89 -17t-82 -48l-2 32q48 36 91.5 52.5t90.5 16.5q35 0 66 -9.5
t54.5 -33.5t36.5 -67t13 -110q0 -75 -15 -126.5t-45 -84t-75 -48.5t-103 -19z" />
    <glyph glyph-name="uni0496" unicode="&#x496;" horiz-adv-x="927" 
d="M914 35v-35h-109v35h109zM914 7v-158h-29l-7 158h36zM827 690q-18 -45 -36.5 -91t-38.5 -87.5t-44 -74t-52.5 -52.5t-63.5 -24v-2q38 -3 68 -23t54.5 -53.5t45.5 -78t41.5 -96.5t42.5 -108h-44q-29 72 -54.5 134.5t-54 109.5t-65.5 73t-91 26l3 34q48 0 84 27t63.5 72
t51.5 100.5t47 113.5h43zM98 690q24 -58 47.5 -113.5t51 -100.5t63.5 -72t84 -27l3 -34q-54 0 -91 -26t-65.5 -73t-54 -109.5t-54.5 -134.5h-44q22 55 42.5 107.5t41.5 97t45.5 78t54.5 53.5t68 23v2q-35 4 -63.5 24t-52 52.5t-44 74t-38.5 87.5t-37 91h43zM436 377v-34
h-121v34h121zM464 690v-231q0 -27 -1 -49t-5 -49q3 -27 4.5 -51.5t1.5 -49.5v-260h-39v260q0 25 1.5 49.5t4.5 51.5q-4 27 -5 49t-1 49v231h39zM567 377v-34h-111v34h111z" />
    <glyph glyph-name="uni0497" unicode="&#x497;" horiz-adv-x="782" 
d="M768 33v-33h-76v33h76zM768 5v-148h-27l-7 148h34zM711 482q-14 -34 -28.5 -66.5t-30 -61t-33.5 -50.5t-40 -36t-50 -16v-1q30 -2 53 -15.5t42 -36.5t35.5 -53.5t32 -67.5t33.5 -78h-43q-23 52 -42.5 95.5t-40.5 75t-49 48t-69 16.5l1 32q37 0 64 18t48 48t39 68.5
t36 80.5h42zM98 482q18 -42 36 -80.5t39 -68.5t48.5 -48t63.5 -18l1 -32q-40 0 -68 -16.5t-49.5 -48t-40.5 -75t-43 -95.5h-42q17 41 33 78t32.5 67.5t35 53.5t42 36.5t53.5 15.5v1q-28 2 -50.5 16t-40.5 36t-33.5 50.5t-29.5 61t-29 66.5h42zM377 267v-32h-115v32h115z
M405 482v-157q0 -20 -1 -36.5t-5 -36.5q3 -19 4.5 -37t1.5 -35v-180h-37v180q0 17 1.5 35t4.5 37q-4 20 -5 36.5t-1 36.5v157h37zM505 267v-32h-108v32h108z" />
    <glyph glyph-name="uni0498" unicode="&#x498;" horiz-adv-x="546" 
d="M232 698q82 0 131 -15.5t70.5 -54.5t21.5 -110q0 -74 -27.5 -113t-89.5 -45v-4q77 -7 107 -54t30 -130q0 -71 -21 -110t-67.5 -54.5t-124.5 -15.5q-41 0 -79.5 1.5t-73.5 5t-67 9.5l5 30q26 -2 82 -6t129 -4q65 0 103 11.5t55 43.5t17 93q0 65 -18 100.5t-58 50
t-108 14.5h-105v33h105q61 0 96.5 12t51.5 42.5t16 86.5q0 60 -17.5 92t-57.5 43.5t-107 11.5q-61 0 -105 -3.5t-65 -4.5l-5 30q44 7 85.5 10.5t90.5 3.5zM228 -47q29 2 48.5 -4t29 -21t8.5 -40q0 -36 -18.5 -63t-51 -39.5t-76.5 -7.5l6 23q50 -2 79 23.5t29 61.5
q0 25 -12.5 35t-46.5 11z" />
    <glyph glyph-name="uni0499" unicode="&#x499;" horiz-adv-x="478" 
d="M247 5l-6 -172h-27l-6 172h39zM199 488q78 0 122.5 -10.5t64 -38t19.5 -77.5t-21.5 -79t-81.5 -34v-2q64 -5 91 -35.5t27 -92.5q0 -45 -19 -72.5t-62 -40.5t-116 -13q-38 0 -85 3t-86 9l5 30q22 -2 68.5 -4.5t95.5 -2.5q90 0 123.5 22.5t33.5 74.5q0 42 -15 65t-48.5 32
t-91.5 9l-99 1v30l99 1q55 1 86 9t43.5 28.5t12.5 56.5q0 41 -15.5 61.5t-52.5 27.5t-102 7q-36 0 -71 -1.5t-57 -4.5l-5 30q37 7 72 9t65 2z" />
    <glyph glyph-name="uni049A" unicode="&#x49a;" horiz-adv-x="627" 
d="M614 35v-35h-115v35h115zM614 7v-158h-28l-7 158h35zM523 690q-20 -53 -40 -100.5t-40.5 -88t-44 -70.5t-50.5 -48t-60 -22v-2q38 -3 68 -23t54 -53.5t45.5 -78t42 -96.5t42.5 -108h-44q-29 72 -54 134.5t-54 109.5t-66.5 73t-91.5 26l2 34q49 2 85.5 28.5t64.5 71
t51.5 99.5t46.5 114h43zM139 690v-231q0 -27 -1 -49.5t-4 -48.5q3 -27 4 -51.5t1 -49.5v-260h-40v690h40zM263 377v-34h-142v34h142z" />
    <glyph glyph-name="uni049B" unicode="&#x49b;" horiz-adv-x="525" 
d="M520 33v-33h-72v33h72zM520 5v-148h-27l-7 148h34zM465 482q-15 -34 -30.5 -66.5t-32 -61t-36.5 -50.5t-43.5 -36t-53.5 -16v-1q33 -3 57.5 -16t45 -36t38 -53.5t34.5 -67.5t35 -78h-43q-19 42 -36 78.5t-34.5 65.5t-38.5 49.5t-47.5 31t-62.5 10.5l2 32q40 0 70.5 18
t53 48t42 68.5t38.5 80.5h42zM130 482v-157q0 -20 -1 -36.5t-4 -36.5q3 -19 4 -37t1 -35v-180h-40v482h40zM246 267v-32h-132v32h132z" />
    <glyph glyph-name="uni049C" unicode="&#x49c;" horiz-adv-x="574" 
d="M496 0q-29 72 -54 134.5t-54 109.5t-66.5 73t-91.5 26l2 34q49 2 85.5 28.5t64.5 71t51.5 99.5t46.5 114h43q-20 -53 -40 -100.5t-40.5 -88t-44 -70.5t-50.5 -48t-60 -22v-2q38 -3 68 -23t54 -53.5t45.5 -78t42 -96.5t42.5 -108h-44zM99 0v690h40v-231q0 -27 -1 -49.5
t-4 -48.5q3 -27 4 -51.5t1 -49.5v-260h-40zM121 343v34h142v-34h-142zM238 166v387h29v-387h-29z" />
    <glyph glyph-name="uni049D" unicode="&#x49d;" horiz-adv-x="520" 
d="M465 482q-15 -34 -30.5 -66.5t-32 -61t-36.5 -50.5t-43.5 -36t-53.5 -16v-1q33 -3 57.5 -16t45 -36t38 -53.5t34.5 -67.5t35 -78h-43q-19 42 -36 78.5t-34.5 65.5t-38.5 49.5t-47.5 31t-62.5 10.5l2 32q40 0 70.5 18t53 48t42 68.5t38.5 80.5h42zM130 482v-157
q0 -20 -1 -36.5t-4 -36.5q3 -19 4 -37t1 -35v-180h-40v482h40zM246 267v-32h-132v32h132zM222 106v285h28v-285h-28z" />
    <glyph glyph-name="uni049E" unicode="&#x49e;" horiz-adv-x="616" 
d="M19 529v34h284v-34h-284zM565 690q-20 -53 -40 -100.5t-40.5 -88t-44 -70.5t-50.5 -48t-60 -22v-2q38 -3 68 -23t54 -53.5t45.5 -78t41.5 -96.5t43 -108h-44q-29 72 -54.5 134.5t-54 109.5t-66 73t-91.5 26l2 34q49 2 85.5 28.5t64.5 71t51.5 99.5t46.5 114h43zM181 690
v-231q0 -27 -1 -49.5t-4 -48.5q2 -27 3.5 -51.5t1.5 -49.5v-260h-40v690h40zM305 377v-34h-142v34h142z" />
    <glyph glyph-name="uni049F" unicode="&#x49f;" horiz-adv-x="522" 
d="M465 482q-15 -34 -30.5 -66.5t-32 -61t-36.5 -50.5t-43.5 -36t-53.5 -16v-1q33 -3 57.5 -16t45 -36t38 -53.5t34.5 -67.5t35 -78h-43q-19 42 -36 78.5t-34.5 65.5t-38.5 49.5t-47.5 31t-62.5 10.5l2 32q40 0 70.5 18t53 48t42 68.5t38.5 80.5h42zM130 690v-365
q0 -20 -1 -36.5t-4 -36.5q3 -19 4 -37t1 -35v-180h-40v690h40zM246 267v-32h-132v32h132zM317 586v-29h-306v29h306z" />
    <glyph glyph-name="uni04A0" unicode="&#x4a0;" horiz-adv-x="725" 
d="M283 690v-36h-271v36h271zM674 690q-20 -53 -40 -100.5t-40.5 -88t-44 -70.5t-50.5 -48t-60 -22v-2q38 -3 68 -23t54 -53.5t45.5 -78t42 -96.5t42.5 -108h-44q-29 72 -54 134.5t-53.5 109.5t-66.5 73t-92 26l2 34q49 2 85.5 28.5t64.5 71t51.5 99.5t46.5 114h43zM290 690
v-231q0 -27 -1 -49.5t-4 -48.5q3 -27 4 -51.5t1 -49.5v-260h-40v690h40zM414 377v-34h-142v34h142z" />
    <glyph glyph-name="uni04A1" unicode="&#x4a1;" horiz-adv-x="613" 
d="M556 482q-16 -34 -31 -66.5t-32 -61t-36.5 -50.5t-43 -36t-53.5 -16v-1q32 -3 57 -16t45.5 -36t37.5 -53.5t34.5 -67.5t35.5 -78h-43q-19 42 -36.5 78.5t-35 65.5t-38 49.5t-47 31t-62.5 10.5l1 32q41 0 71 18t53 48t42 68.5t39 80.5h42zM220 482v-157q0 -20 -1 -36.5
t-4 -36.5q3 -19 4 -37t1 -35v-180h-39v482h39zM336 267v-32h-132v32h132zM0 482h202v-34h-202v34z" />
    <glyph glyph-name="uni04A2" unicode="&#x4a2;" horiz-adv-x="680" 
d="M646 35v-35h-120v35h120zM646 7v-158h-29l-7 158h36zM146 690v-690h-41v690h41zM537 388v-36h-399v36h399zM567 690v-690h-41v690h41z" />
    <glyph glyph-name="uni04A3" unicode="&#x4a3;" horiz-adv-x="572" 
d="M536 33v-33h-81v33h81zM536 5v-148h-27l-7 148h34zM130 482v-482h-40v482h40zM450 273v-32h-326v32h326zM480 482v-482h-39v482h39z" />
    <glyph glyph-name="uni04A4" unicode="&#x4a4;" horiz-adv-x="871" 
d="M492 0v581q0 48 31 78.5t77 30.5q62 0 123.5 -0.5t122.5 -4.5l-3 -30h-231q-36 0 -57 -21.5t-21 -58.5v-575h-42zM99 0v690h41v-690h-41zM132 352v36h371v-36h-371z" />
    <glyph glyph-name="uni04A5" unicode="&#x4a5;" horiz-adv-x="761" 
d="M130 482v-482h-40v482h40zM431 273v-32h-307v32h307zM518 482q54 0 107.5 -0.5t107.5 -3.5l-1 -30h-201q-35 0 -52 -17t-17 -54v-377h-40v385q0 46 25.5 71.5t70.5 25.5z" />
    <glyph glyph-name="uni04A6" unicode="&#x4a6;" horiz-adv-x="1009" 
d="M704 -147l-6 30q52 6 92 20t68 44t42 83.5t14 135.5q0 74 -10 120t-29.5 70t-45.5 33t-58 9q-42 0 -78 -10.5t-69.5 -28.5t-71.5 -43l-2 33q61 45 116 65.5t115 20.5q36 0 67.5 -11.5t55.5 -40.5t37.5 -81t13.5 -135q0 -88 -16 -147t-48 -94.5t-79 -52.5t-108 -20zM99 0
v690h41v-690h-41zM523 0v690h41v-690h-41zM132 655v35h402v-35h-402z" />
    <glyph glyph-name="uni04A7" unicode="&#x4a7;" horiz-adv-x="881" 
d="M594 -209l-6 29q70 8 118.5 39t73 91.5t24.5 153.5q0 80 -18 122.5t-50 58.5t-73 16q-58 0 -103 -21.5t-96 -60.5l-2 34q55 45 105.5 64.5t105.5 19.5q47 0 86.5 -20t62.5 -70t23 -142q0 -75 -16 -132t-48 -96.5t-79 -61t-108 -24.5zM477 482v-482h-40v482h40zM129 482
v-482h-39v482h39zM445 482v-34h-321v34h321z" />
    <glyph glyph-name="uni04A8" unicode="&#x4a8;" horiz-adv-x="855" 
d="M328 669q-75 0 -122 -30.5t-69 -103t-22 -197.5q0 -113 30.5 -181.5t90.5 -100.5t145 -32q62 0 120 17.5t104.5 59.5t74 113.5t27.5 180.5q0 97 -17 156t-51.5 85.5t-90.5 26.5q-54 0 -89 -27.5t-52 -87.5t-17 -160q0 -106 26 -176t70 -111.5t97 -59.5t107 -18
q48 0 76.5 5t53.5 12l6 -25q-16 -9 -47 -18t-93 -9q-68 0 -129 22.5t-108.5 71t-74.5 125.5t-27 185q0 111 22 179t66 98.5t113 30.5t114 -30t66.5 -96.5t21.5 -174.5q0 -116 -31.5 -195t-85 -126.5t-120 -68.5t-136.5 -21q-102 0 -170 37t-101.5 115t-33.5 199
q0 137 27.5 217.5t84 115t144.5 34.5v-37z" />
    <glyph glyph-name="uni04A9" unicode="&#x4a9;" horiz-adv-x="681" 
d="M275 461q-89 0 -129 -46t-40 -158q0 -125 52 -179.5t156 -54.5q48 0 93.5 11.5t82 41t58 82t21.5 133.5q0 88 -29.5 129.5t-91.5 41.5t-91.5 -42.5t-29.5 -132.5q0 -80 20 -131.5t53.5 -81t74.5 -41.5t82 -12q32 0 61.5 7t51.5 19l9 -21q-14 -11 -43 -22.5t-81 -11.5
q-54 0 -102 16t-85 50.5t-58.5 92t-21.5 139.5q0 69 17.5 114.5t53 68t89.5 22.5q81 0 120 -50.5t39 -151.5q0 -85 -25 -143t-67.5 -93t-95.5 -50t-109 -15q-126 0 -185 64.5t-59 200.5q0 88 22 139.5t68.5 74t118.5 22.5v-32z" />
    <glyph glyph-name="uni04AA" unicode="&#x4aa;" horiz-adv-x="563" 
d="M331 702q41 0 71 -2t55 -6t52 -10l-7 -30q-28 4 -52.5 6.5t-52 3.5t-66.5 1q-80 0 -127 -30.5t-68 -100.5t-21 -189t21 -189t68 -100.5t127 -30.5q61 0 103 3t82 10l7 -31q-41 -9 -84 -14t-108 -5q-95 0 -152 34.5t-82 112.5t-25 210t25 210t82 112.5t152 34.5zM349 7
l-4 -158h-29l-3 158h36z" />
    <glyph glyph-name="uni04AB" unicode="&#x4ab;" horiz-adv-x="481" 
d="M293 5l-5 -172h-27l-7 172h39zM287 494q20 0 44 -1.5t49.5 -5.5t47.5 -12l-7 -27q-28 6 -65 8t-62 2q-68 0 -109 -19.5t-59.5 -66.5t-18.5 -131t18.5 -131.5t59.5 -66.5t109 -19q14 0 38 1t51.5 3.5t49.5 6.5l6 -28q-34 -8 -73.5 -13.5t-77.5 -5.5q-81 0 -130 24.5
t-71 80.5t-22 148q0 93 22 148.5t71 80t129 24.5z" />
    <glyph glyph-name="uni04AC" unicode="&#x4ac;" horiz-adv-x="568" 
d="M383 35v-35h-120v35h120zM354 -151l-7 158h36v-158h-29zM304 690v-690h-41v690h41zM542 690v-36h-516v36h516z" />
    <glyph glyph-name="uni04AD" unicode="&#x4ad;" horiz-adv-x="474" 
d="M257 482v-482h-41v482h41zM454 482v-34h-434v34h434zM313 33v-33h-82v33h82zM313 5v-148h-27l-7 148h34z" />
    <glyph glyph-name="Ustraitcy" unicode="&#x4ae;" horiz-adv-x="548" 
d="M528 690l-237 -444h-33l-239 444h45l171 -322q9 -17 18 -35l18 -36h6q8 18 17.5 35.5t17.5 34.5l171 323h45zM295 285v-285h-42v285h42z" />
    <glyph glyph-name="ustraitcy" unicode="&#x4af;" horiz-adv-x="563" 
d="M536 482l-238 -444h-33l-238 444h45l171 -322q9 -16 18 -34.5t18 -35.5h6q8 17 17.5 35t17.5 34l171 323h45zM302 77v-285h-41v285h41z" />
    <glyph glyph-name="Ustraitstrokecy" unicode="&#x4b0;" horiz-adv-x="543" 
d="M462 266v-28h-360v28h360zM530 690l-238 -444h-33l-238 444h45l171 -322q9 -17 18 -35l18 -36h6q8 18 17.5 35.5t17.5 34.5l171 323h45zM296 285v-285h-41v285h41z" />
    <glyph glyph-name="ustraitstrokecy" unicode="&#x4b1;" horiz-adv-x="563" 
d="M536 482l-238 -444h-33l-238 444h45l171 -322q9 -16 18 -34.5t18 -35.5h6q8 17 17.5 35t17.5 34l171 323h45zM302 77v-285h-41v285h41zM461 58v-29h-360v29h360z" />
    <glyph glyph-name="uni04B2" unicode="&#x4b2;" horiz-adv-x="631" 
d="M550 690l-200 -331l213 -359h-47l-211 359l198 331h47zM94 690l199 -331l-211 -359h-47l212 359l-199 331h46zM335 377v-34h-66v34h66zM616 35v-35h-99v35h99zM616 7v-158h-29l-6 158h35z" />
    <glyph glyph-name="uni04B3" unicode="&#x4b3;" horiz-adv-x="512" 
d="M506 33v-33h-66v33h66zM506 5v-148h-27l-7 148h34zM466 482l-165 -232l177 -250h-46l-176 250l164 232h46zM91 482l164 -232l-176 -250h-46l177 250l-165 232h46zM288 268v-33h-66v33h66z" />
    <glyph glyph-name="uni04B4" unicode="&#x4b4;" horiz-adv-x="813" 
d="M658 0v690h42v-690h-42zM240 0v690h41v-690h-41zM273 0v35h509v-35h-509zM753 -151l-6 158h35v-158h-29zM26 654v36h500v-36h-500z" />
    <glyph glyph-name="uni04B5" unicode="&#x4b5;" horiz-adv-x="674" 
d="M544 0v482h41v-482h-41zM194 0v482h40v-482h-40zM226 0v35h412v-35h-412zM609 -150l-7 157h36v-157h-29zM12 448v34h407v-34h-407z" />
    <glyph glyph-name="uni04B6" unicode="&#x4b6;" horiz-adv-x="621" 
d="M211 264q-75 0 -111.5 36.5t-36.5 110.5v279h42v-272q-1 -60 27.5 -88.5t90.5 -28.5q45 0 84 7.5t80 26t91 48.5l2 -34q-47 -31 -93 -50t-90 -27t-86 -8zM556 -151l-6 158h37l-2 -158h-29zM467 0v32h120v-32h-120zM466 0v690h41v-690h-41z" />
    <glyph glyph-name="uni04B7" unicode="&#x4b7;" horiz-adv-x="524" 
d="M102 482v-190q0 -41 19 -59t60 -18q55 0 102.5 11t108.5 41l3 -33q-59 -30 -116.5 -42.5t-109.5 -12.5t-79.5 25.5t-27.5 77.5v200h40zM422 482l-1 -482h-39v482h40zM478 33v-33h-77v33h77zM478 5v-148h-27l-7 148h34z" />
    <glyph glyph-name="uni04B8" unicode="&#x4b8;" horiz-adv-x="605" 
d="M205 264q-72 0 -107 36.5t-35 110.5v279h41v-272q0 -60 27 -88.5t86 -28.5q47 0 86.5 8t81 26t92.5 48l2 -33q-49 -31 -95.5 -50.5t-90.5 -27.5t-88 -8zM272 120v383h29v-383h-29zM465 0v690h42v-690h-42z" />
    <glyph glyph-name="uni04B9" unicode="&#x4b9;" horiz-adv-x="512" 
d="M102 482v-190q0 -41 19 -59t60 -18q55 0 102.5 11t108.5 41l3 -33q-59 -30 -116.5 -42.5t-109.5 -12.5t-79.5 25.5t-27.5 77.5v200h40zM422 482v-482h-40v482h40zM229 63v301h27v-301h-27z" />
    <glyph glyph-name="uni04BA" unicode="&#x4ba;" horiz-adv-x="603" 
d="M395 426q74 0 110.5 -36.5t36.5 -110.5v-279h-41v272q0 61 -28 89t-90 28q-44 0 -84 -7.5t-80.5 -25.5t-90.5 -49l-2 34q47 32 92.5 50.5t89.5 26.5t87 8zM140 690v-690h-41v690h41z" />
    <glyph glyph-name="uni04BB" unicode="&#x4bb;" horiz-adv-x="572" 
d="M355 494q130 0 130 -132v-362h-40v354q0 55 -24 79.5t-75 24.5q-53 0 -102.5 -24t-118.5 -71l-1 33q61 46 118.5 72t112.5 26zM130 700l1 -209q0 -28 -1 -53t-5 -45l5 -16v-377h-40v700h40z" />
    <glyph glyph-name="uni04BC" unicode="&#x4bc;" horiz-adv-x="715" 
d="M152 336q-68 0 -101 32t-23 117h35q-9 -59 13 -86.5t75 -27.5h340q52 0 80 16.5t39 46t11 66.5q0 87 -49 126t-145 39q-82 0 -130.5 -30t-69.5 -100t-21 -190q0 -92 12.5 -154t41 -98t76.5 -52t119 -16q31 0 63.5 2t64.5 6.5t59 9.5l6 -29q-21 -8 -57 -14t-76 -9t-74 -3
q-106 0 -167 35.5t-86 113.5t-25 207q0 100 14 168.5t45.5 110.5t81.5 60.5t123 18.5q80 0 132.5 -22t78.5 -67.5t26 -113.5q0 -47 -14 -84t-50 -58t-104 -21h-344z" />
    <glyph glyph-name="uni04BD" unicode="&#x4bd;" horiz-adv-x="598" 
d="M353 -12q-78 0 -126 25.5t-70.5 81.5t-22.5 148q0 93 21.5 148t68 79t121.5 24q98 0 145.5 -35.5t48.5 -106.5q2 -64 -22.5 -97.5t-84.5 -33.5h-295q-45 0 -74.5 12.5t-42 44t-6.5 83.5h33q-9 -58 13 -82.5t77 -24.5h290q41 0 57 26t14 70q-1 57 -38 82.5t-114 25.5
q-63 0 -100.5 -20t-53.5 -67t-16 -126q0 -84 18.5 -132.5t59 -68.5t104.5 -20q46 0 90 4t75 8l5 -28q-18 -6 -49.5 -10.5t-65.5 -7t-60 -2.5z" />
    <glyph glyph-name="uni04BE" unicode="&#x4be;" horiz-adv-x="715" 
d="M449 7l-2 -158h-29l-5 158h36zM152 336q-68 0 -101 32t-23 117h35q-9 -59 13 -86.5t75 -27.5h340q52 0 80 16.5t39 46t11 66.5q0 87 -49 126t-145 39q-82 0 -130.5 -30t-69.5 -100t-21 -190q0 -92 12.5 -154t41 -98t76.5 -52t119 -16q31 0 63.5 2t64.5 6.5t59 9.5l6 -29
q-21 -8 -57 -14t-76 -9t-74 -3q-106 0 -167 35.5t-86 113.5t-25 207q0 100 14 168.5t45.5 110.5t81.5 60.5t123 18.5q80 0 132.5 -22t78.5 -67.5t26 -113.5q0 -47 -14 -84t-50 -58t-104 -21h-344z" />
    <glyph glyph-name="uni04BF" unicode="&#x4bf;" horiz-adv-x="598" 
d="M367 5l-6 -172h-27l-6 172h39zM353 -12q-78 0 -126 25.5t-70.5 81.5t-22.5 148q0 93 21.5 148t68 79t121.5 24q98 0 145.5 -35.5t48.5 -106.5q2 -64 -22.5 -97.5t-84.5 -33.5h-295q-45 0 -74.5 12.5t-42 44t-6.5 83.5h33q-9 -58 13 -82.5t77 -24.5h290q41 0 57 26t14 70
q-1 57 -38 82.5t-114 25.5q-63 0 -100.5 -20t-53.5 -67t-16 -126q0 -84 18.5 -132.5t59 -68.5t104.5 -20q46 0 90 4t75 8l5 -28q-18 -6 -49.5 -10.5t-65.5 -7t-60 -2.5z" />
    </font>
</defs>
</svg>
